<?xml version="1.0" ?>
<svg xmlns="http://www.w3.org/2000/svg" version="1.1" width="600" height="600">
  <defs/>
  <g>
    <path d="M 228.7196807861328 -9.265158653259277 C 256.7444152832031 -21.713520050048828 258.842529296875 -31.72806167602539 267.81463623046875 -45.56349182128906 C 243.00552368164062 -48.682979583740234 246.730224609375 -68.22236633300781 249.92349243164062 -76.92828369140625 C 277.4073791503906 -101.45063781738281 306.1257629394531 -106.72348022460938 306.3619079589844 -127.83470916748047 C 319.49993896484375 -146.43641662597656 309.9935607910156 -175.025146484375 300.3646240234375 -146.9761962890625" stroke-width="6.0" fill="none" stroke="rgb(0, 0, 0)" stroke-opacity="0.55921465" stroke-linecap="round" stroke-linejoin="round"/>
    <path d="M 453.7000732421875 7.6919941902160645 C 441.71954345703125 1.111398458480835 481.31256103515625 -28.3298397064209 463.7021789550781 -29.648916244506836 C 489.17645263671875 -8.672117233276367 512.238525390625 -27.51238441467285 520.46875 -6.377662658691406 C 526.5481567382812 29.031503677368164 505.3506774902344 54.67975616455078 477.8588562011719 45.57098388671875 C 502.6597595214844 28.14093780517578 496.92047119140625 29.859439849853516 527.3374633789062 25.843055725097656" stroke-width="6.0" fill="none" stroke="rgb(0, 0, 0)" stroke-opacity="0.0" stroke-linecap="round" stroke-linejoin="round"/>
    <path d="M 575.8541870117188 490.6860656738281 C 539.1935424804688 499.7453308105469 533.984619140625 480.2431945800781 536.5047607421875 452.1856994628906 C 576.2113037109375 436.5391540527344 621.5256958007812 453.1007385253906 642.4962158203125 456.6590270996094 C 608.7249145507812 457.16180419921875 624.1458740234375 456.4844970703125 654.8056640625 503.4716796875 C 629.469970703125 498.77410888671875 607.9849243164062 510.4642333984375 578.2281494140625 504.0047912597656" stroke-width="6.0" fill="none" stroke="rgb(0, 0, 0)" stroke-opacity="0.00043910113" stroke-linecap="round" stroke-linejoin="round"/>
    <path d="M 320.028076171875 51.669891357421875 C 324.66156005859375 83.40715789794922 314.97314453125 55.9570426940918 307.68524169921875 46.4956169128418 C 265.224365234375 48.600406646728516 278.72467041015625 10.390327453613281 274.23077392578125 34.55739212036133 C 261.8644714355469 34.39149856567383 259.544189453125 20.5179386138916 262.79937744140625 49.453285217285156 C 253.24215698242188 7.797885417938232 274.53106689453125 -22.751096725463867 273.87359619140625 -25.38950538635254" stroke-width="6.0" fill="none" stroke="rgb(0, 0, 0)" stroke-opacity="0.0008757203" stroke-linecap="round" stroke-linejoin="round"/>
    <path d="M 429.9654541015625 325.9515075683594 C 314.1458435058594 320.0804748535156 368.24072265625 308.0470275878906 414.3457946777344 288.93817138671875 C 338.2742004394531 297.7615051269531 319.3806457519531 299.1481628417969 348.0440368652344 267.66015625 C 369.9660339355469 273.6500549316406 385.1455078125 267.83056640625 380.6946105957031 244.19419860839844 C 373.7904357910156 289.2519226074219 368.66436767578125 285.45281982421875 380.1871032714844 230.84642028808594" stroke-width="6.0" fill="none" stroke="rgb(0, 0, 0)" stroke-opacity="1.0" stroke-linecap="round" stroke-linejoin="round"/>
    <path d="M 401.5619201660156 8.482089042663574 C 412.6535949707031 36.26532745361328 409.93389892578125 38.10078048706055 410.0341491699219 32.99862289428711 C 394.73370361328125 42.258514404296875 364.9864501953125 21.44303321838379 409.4811096191406 34.48822784423828 C 425.2955627441406 79.60321807861328 417.1737976074219 77.15945434570312 397.9381103515625 60.23059844970703 C 383.1439514160156 71.95384979248047 402.3112487792969 82.91478729248047 398.82171630859375 66.44528198242188" stroke-width="6.0" fill="none" stroke="rgb(0, 0, 0)" stroke-opacity="0.0013114731" stroke-linecap="round" stroke-linejoin="round"/>
    <path d="M 443.5049743652344 -3.948734998703003 C 450.192626953125 -7.264946937561035 475.61285400390625 -28.715152740478516 473.54254150390625 -58.051998138427734 C 443.2106018066406 -45.21192169189453 460.6892395019531 -54.75032043457031 449.85015869140625 -82.30158996582031 C 425.8271179199219 -103.39069366455078 408.20257568359375 -99.19976806640625 399.7361755371094 -70.53614044189453 C 386.7828063964844 -49.15937042236328 362.2892150878906 -47.503082275390625 365.2576904296875 -38.06532287597656" stroke-width="6.0" fill="none" stroke="rgb(0, 0, 0)" stroke-opacity="0.012749135" stroke-linecap="round" stroke-linejoin="round"/>
    <path d="M 375.9576721191406 489.0103759765625 C 327.2618408203125 501.3529968261719 314.0353698730469 490.0487060546875 248.5936279296875 478.8281555175781 C 264.0652770996094 493.3229675292969 316.7156677246094 472.1404113769531 335.47320556640625 499.44940185546875 C 236.2321319580078 513.5223999023438 161.320068359375 501.24273681640625 211.7877960205078 485.9686279296875 C 209.9040985107422 460.968017578125 229.95179748535156 473.3744812011719 183.81068420410156 470.33087158203125" stroke-width="6.0" fill="none" stroke="rgb(0, 0, 0)" stroke-opacity="0.7459683" stroke-linecap="round" stroke-linejoin="round"/>
    <path d="M 130.55938720703125 155.29202270507812 C 130.1179962158203 149.09657287597656 122.06492614746094 132.7568817138672 102.31346893310547 132.99786376953125 C 75.21912384033203 107.43379211425781 76.5865707397461 125.68682098388672 110.8337173461914 168.78195190429688 C 131.0513153076172 187.52854919433594 161.4700927734375 194.88226318359375 134.739013671875 195.038330078125 C 157.58070373535156 175.09165954589844 128.29437255859375 214.2001190185547 112.1300277709961 211.4139862060547" stroke-width="6.0" fill="none" stroke="rgb(0, 0, 0)" stroke-opacity="0.0021288304" stroke-linecap="round" stroke-linejoin="round"/>
    <path d="M 188.52928161621094 154.0634307861328 C 218.28890991210938 147.73252868652344 188.56085205078125 128.14193725585938 193.0291290283203 130.29397583007812 C 208.18426513671875 147.05287170410156 253.5081024169922 137.90721130371094 174.27381896972656 147.93341064453125 C 209.72793579101562 150.77972412109375 206.90138244628906 184.32640075683594 209.52674865722656 118.60691833496094 C 181.87266540527344 128.19039916992188 163.14515686035156 118.00833129882812 182.06053161621094 146.16897583007812" stroke-width="6.0" fill="none" stroke="rgb(0, 0, 0)" stroke-opacity="0.0" stroke-linecap="round" stroke-linejoin="round"/>
    <path d="M 372.1122741699219 379.4788818359375 C 369.8531188964844 384.7564697265625 339.6979064941406 385.5240173339844 310.7159729003906 426.3735656738281 C 359.9486083984375 424.2182312011719 351.9530334472656 398.3836669921875 325.8622131347656 405.7968444824219 C 291.5743713378906 426.0937194824219 255.32107543945312 416.4909973144531 268.9345397949219 344.3106384277344 C 298.76531982421875 343.8431396484375 315.748046875 363.2861328125 314.3362121582031 365.94976806640625" stroke-width="6.0" fill="none" stroke="rgb(0, 0, 0)" stroke-opacity="0.0" stroke-linecap="round" stroke-linejoin="round"/>
    <path d="M 355.8927307128906 195.80421447753906 C 363.0825500488281 176.537353515625 381.55133056640625 157.86068725585938 334.82330322265625 174.99148559570312 C 372.8758850097656 208.98321533203125 397.62396240234375 222.0076141357422 351.99371337890625 260.7369689941406 C 389.357421875 271.4414367675781 432.111083984375 269.61773681640625 326.3207702636719 274.08392333984375 C 350.06689453125 286.5180969238281 421.5450439453125 265.6087341308594 363.94866943359375 286.9613342285156" stroke-width="6.0" fill="none" stroke="rgb(0, 0, 0)" stroke-opacity="1.0" stroke-linecap="round" stroke-linejoin="round"/>
    <path d="M 34.523414611816406 255.15660095214844 C 23.76720428466797 246.40858459472656 19.428131103515625 260.0777587890625 47.58255386352539 244.8688201904297 C 28.589675903320312 216.9940643310547 30.802040100097656 226.70516967773438 5.4210076332092285 213.21527099609375 C 26.205963134765625 203.4435272216797 5.992192268371582 191.9803924560547 26.055782318115234 211.61949157714844 C 17.209814071655273 220.06625366210938 -11.45551872253418 230.52835083007812 -20.530441284179688 230.8106231689453" stroke-width="6.0" fill="none" stroke="rgb(0, 0, 0)" stroke-opacity="0.0011845827" stroke-linecap="round" stroke-linejoin="round"/>
    <path d="M 546.3612060546875 493.1430358886719 C 490.71270751953125 476.7841491699219 446.7203674316406 468.27374267578125 451.1426696777344 475.48016357421875 C 447.9638977050781 506.0364074707031 465.4205627441406 524.1976318359375 482.38177490234375 553.7911987304688 C 474.8547058105469 510.83575439453125 460.65838623046875 502.98870849609375 413.4352722167969 534.726318359375 C 441.0433044433594 550.6951904296875 427.2698059082031 514.3009033203125 448.3451843261719 502.3714599609375" stroke-width="6.0" fill="none" stroke="rgb(0, 0, 0)" stroke-opacity="0.0" stroke-linecap="round" stroke-linejoin="round"/>
    <path d="M 340.52459716796875 399.42303466796875 C 378.8763732910156 395.16448974609375 399.89984130859375 380.074951171875 385.903076171875 386.9313659667969 C 328.9918518066406 399.7800598144531 357.3779602050781 392.2610778808594 361.6493835449219 396.3553161621094 C 380.74609375 390.4581604003906 357.2125244140625 393.2540283203125 304.237060546875 400.60552978515625 C 366.6881103515625 391.1896057128906 390.87957763671875 393.4473876953125 455.41015625 366.9558410644531" stroke-width="6.0" fill="none" stroke="rgb(0, 0, 0)" stroke-opacity="1.0" stroke-linecap="round" stroke-linejoin="round"/>
    <path d="M 491.9773864746094 42.395206451416016 C 495.2147216796875 66.2988052368164 482.2218017578125 50.19562530517578 466.26123046875 56.03575897216797 C 480.22900390625 43.506649017333984 492.9996337890625 79.66716766357422 501.7978210449219 24.487699508666992 C 495.71673583984375 18.464740753173828 519.955322265625 32.39324188232422 491.09735107421875 2.9325737953186035 C 500.2023620605469 -26.72263526916504 479.1505432128906 -30.106590270996094 486.7294616699219 -28.31345558166504" stroke-width="6.0" fill="none" stroke="rgb(0, 0, 0)" stroke-opacity="0.0" stroke-linecap="round" stroke-linejoin="round"/>
    <path d="M 48.77030944824219 105.081787109375 C 42.140907287597656 72.91776275634766 11.881007194519043 77.0293197631836 48.582176208496094 78.68595886230469 C 41.233272552490234 107.3973617553711 59.76626968383789 85.00288391113281 45.05955505371094 56.90668487548828 C 34.97123718261719 104.1844482421875 35.96682357788086 92.75499725341797 45.20559310913086 71.93192291259766 C 60.8164176940918 80.03760528564453 92.7260513305664 84.77656555175781 77.27971649169922 87.93232727050781" stroke-width="6.0" fill="none" stroke="rgb(0, 0, 0)" stroke-opacity="0.00028188518" stroke-linecap="round" stroke-linejoin="round"/>
    <path d="M 69.6098861694336 155.5866241455078 C 66.61811828613281 138.63351440429688 81.63329315185547 154.46774291992188 68.99195861816406 141.34426879882812 C 57.42876052856445 182.2978057861328 75.09077453613281 202.68588256835938 82.08869171142578 217.6674041748047 C 68.44849395751953 185.61839294433594 83.47725677490234 186.26535034179688 69.42742156982422 198.84835815429688 C 73.36337280273438 184.3074188232422 65.07864379882812 197.30563354492188 82.79747009277344 197.502197265625" stroke-width="6.0" fill="none" stroke="rgb(0, 0, 0)" stroke-opacity="0.0034131452" stroke-linecap="round" stroke-linejoin="round"/>
    <path d="M 152.78395080566406 337.2740478515625 C 260.7425231933594 340.465576171875 237.23516845703125 334.6528625488281 185.0797882080078 346.3733825683594 C 239.01229858398438 338.27032470703125 268.1122131347656 368.9276123046875 283.802490234375 306.7283020019531 C 172.2598419189453 324.6506652832031 206.3218231201172 330.4361572265625 235.01364135742188 312.2372131347656 C 281.254150390625 305.6808776855469 290.2453308105469 307.4180908203125 298.1636047363281 269.4229431152344" stroke-width="6.0" fill="none" stroke="rgb(0, 0, 0)" stroke-opacity="1.0" stroke-linecap="round" stroke-linejoin="round"/>
    <path d="M 46.50494384765625 259.0758056640625 C 57.212284088134766 256.56488037109375 28.769487380981445 248.2530517578125 2.5046212673187256 261.8433532714844 C 13.969249725341797 266.8638610839844 16.765522003173828 266.22955322265625 -15.64443302154541 265.7848815917969 C 1.2524292469024658 273.11419677734375 -14.410380363464355 245.68795776367188 -18.642860412597656 276.4295959472656 C -6.411952018737793 309.458251953125 -14.334524154663086 315.9632568359375 -39.77936935424805 298.1119689941406" stroke-width="6.0" fill="none" stroke="rgb(0, 0, 0)" stroke-opacity="0.0" stroke-linecap="round" stroke-linejoin="round"/>
    <path d="M 258.38604736328125 179.5314483642578 C 266.0591125488281 183.79141235351562 252.5358428955078 169.78689575195312 224.69056701660156 177.44442749023438 C 221.2599639892578 198.0501251220703 169.3364715576172 170.8857879638672 138.6366424560547 169.6681365966797 C 132.3185272216797 183.75865173339844 123.28736877441406 172.3946990966797 136.47781372070312 162.16725158691406 C 131.51123046875 185.07443237304688 148.8499298095703 156.4180450439453 148.25723266601562 167.5262908935547" stroke-width="6.0" fill="none" stroke="rgb(0, 0, 0)" stroke-opacity="0.0" stroke-linecap="round" stroke-linejoin="round"/>
    <path d="M 319.4942932128906 400.0494384765625 C 337.2906188964844 414.4945373535156 325.0904541015625 402.5537109375 275.6138916015625 369.2654724121094 C 273.08734130859375 349.5892333984375 290.88519287109375 339.9395751953125 259.13616943359375 337.4421081542969 C 291.3363037109375 331.0456848144531 287.8213195800781 298.1964111328125 286.27587890625 282.7042236328125 C 306.3776550292969 293.8916931152344 325.21331787109375 296.396240234375 304.7262268066406 299.48016357421875" stroke-width="6.0" fill="none" stroke="rgb(0, 0, 0)" stroke-opacity="0.0" stroke-linecap="round" stroke-linejoin="round"/>
    <path d="M 429.0615234375 202.01992797851562 C 465.17718505859375 199.02224731445312 510.8211975097656 199.8798065185547 549.8218994140625 235.3693084716797 C 485.86175537109375 231.50352478027344 473.0782165527344 234.8983612060547 519.4160766601562 254.0532684326172 C 500.0956726074219 275.2605285644531 469.1263427734375 266.8465270996094 475.74981689453125 292.25433349609375 C 532.3364868164062 263.5063781738281 520.221435546875 235.4941864013672 516.7079467773438 245.04408264160156" stroke-width="6.0" fill="none" stroke="rgb(0, 0, 0)" stroke-opacity="0.0" stroke-linecap="round" stroke-linejoin="round"/>
    <path d="M 549.9998779296875 382.0050048828125 C 585.3848876953125 367.4217834472656 629.0990600585938 388.1078796386719 617.96728515625 352.81097412109375 C 605.8302001953125 384.5007629394531 626.4500732421875 369.34930419921875 655.4624633789062 362.2013854980469 C 609.8707885742188 377.0765686035156 627.5179443359375 402.9453125 650.6021118164062 373.08721923828125 C 634.3265991210938 378.05877685546875 618.2332153320312 399.12359619140625 632.4134521484375 414.48583984375" stroke-width="6.0" fill="none" stroke="rgb(0, 0, 0)" stroke-opacity="0.51761085" stroke-linecap="round" stroke-linejoin="round"/>
    <path d="M 425.0518798828125 559.476318359375 C 440.3675842285156 560.6322631835938 421.33343505859375 562.6302490234375 445.97369384765625 558.3627319335938 C 411.7061767578125 553.52978515625 382.25946044921875 568.0933227539062 352.2253112792969 544.8887329101562 C 383.8464660644531 534.1264038085938 415.027587890625 533.75927734375 452.1326904296875 534.4287109375 C 414.7554016113281 530.8348388671875 421.8653869628906 530.2843627929688 373.5263366699219 539.1118774414062" stroke-width="6.0" fill="none" stroke="rgb(0, 0, 0)" stroke-opacity="0.9813402" stroke-linecap="round" stroke-linejoin="round"/>
    <path d="M 163.04444885253906 194.89752197265625 C 170.7331085205078 199.40232849121094 138.8271026611328 192.4297332763672 132.6112518310547 207.007080078125 C 175.2333221435547 224.41969299316406 215.503173828125 245.7159881591797 242.50851440429688 245.4528350830078 C 204.88209533691406 247.637451171875 233.14688110351562 244.18324279785156 209.8740997314453 238.9861602783203 C 212.853271484375 253.95591735839844 217.39854431152344 247.86663818359375 127.75434112548828 216.66259765625" stroke-width="6.0" fill="none" stroke="rgb(0, 0, 0)" stroke-opacity="1.0" stroke-linecap="round" stroke-linejoin="round"/>
    <path d="M 372.5023498535156 337.24090576171875 C 283.1038818359375 348.80816650390625 273.3966369628906 346.669189453125 268.48834228515625 333.05682373046875 C 289.2638244628906 358.21734619140625 286.624755859375 356.7986145019531 267.0384826660156 333.83099365234375 C 284.25634765625 385.96343994140625 305.70843505859375 387.23004150390625 324.1634521484375 396.9973449707031 C 314.51922607421875 401.95867919921875 338.96875 398.3334655761719 309.4609375 391.9567565917969" stroke-width="6.0" fill="none" stroke="rgb(0, 0, 0)" stroke-opacity="0.36617526" stroke-linecap="round" stroke-linejoin="round"/>
    <path d="M 459.16668701171875 605.0653686523438 C 437.7118225097656 628.1461181640625 430.5185546875 627.9503784179688 477.93939208984375 617.3583374023438 C 533.3555908203125 609.0060424804688 574.0751953125 611.8732299804688 534.4578247070312 585.0303955078125 C 533.1356811523438 553.4699096679688 480.609130859375 556.4036254882812 464.1927795410156 554.7310180664062 C 492.43426513671875 576.3221435546875 491.00628662109375 594.5591430664062 501.78173828125 545.9987182617188" stroke-width="6.0" fill="none" stroke="rgb(0, 0, 0)" stroke-opacity="0.0" stroke-linecap="round" stroke-linejoin="round"/>
    <path d="M 88.5474853515625 125.06419372558594 C 68.71855163574219 117.49324798583984 85.77754211425781 103.66240692138672 77.13445281982422 80.5412368774414 C 89.81135559082031 97.52910614013672 120.3853759765625 78.34307861328125 108.6667709350586 103.26760864257812 C 132.7747802734375 102.77779388427734 128.8960418701172 120.64610290527344 146.28494262695312 111.36995697021484 C 157.78546142578125 130.50717163085938 157.13174438476562 133.60247802734375 156.4671173095703 153.32858276367188" stroke-width="6.0" fill="none" stroke="rgb(0, 0, 0)" stroke-opacity="0.0010737196" stroke-linecap="round" stroke-linejoin="round"/>
    <path d="M 358.2530212402344 365.4444274902344 C 355.8468017578125 390.44830322265625 360.6998291015625 440.3033752441406 384.7280578613281 440.0856628417969 C 370.3815612792969 418.4310302734375 362.5711669921875 410.05255126953125 358.7118835449219 413.0014343261719 C 352.53704833984375 386.7337341308594 394.3922424316406 372.4957580566406 409.91845703125 370.3778076171875 C 415.1622619628906 364.0361022949219 397.51800537109375 311.5440979003906 409.037109375 248.00389099121094" stroke-width="6.0" fill="none" stroke="rgb(0, 0, 0)" stroke-opacity="0.0" stroke-linecap="round" stroke-linejoin="round"/>
    <path d="M 149.1228790283203 16.254291534423828 C 153.8155975341797 49.00908279418945 148.4823455810547 48.27486801147461 158.02842712402344 1.3142061233520508 C 161.58250427246094 -8.522942543029785 171.68678283691406 -32.753238677978516 194.03631591796875 -46.74190902709961 C 177.47996520996094 -63.260616302490234 180.3179168701172 -45.69048309326172 205.19288635253906 -28.3077392578125 C 228.81423950195312 -57.84090805053711 247.16151428222656 -84.90022277832031 269.39495849609375 -55.12075424194336" stroke-width="6.0" fill="none" stroke="rgb(0, 0, 0)" stroke-opacity="0.0040321373" stroke-linecap="round" stroke-linejoin="round"/>
    <path d="M 389.020751953125 442.68072509765625 C 322.7857360839844 458.3123779296875 289.0838317871094 446.87841796875 266.4153137207031 445.225830078125 C 287.4911804199219 445.5686950683594 296.2325439453125 447.1771240234375 325.37774658203125 441.2194519042969 C 287.7691955566406 465.2220458984375 261.13360595703125 446.9728088378906 293.2950744628906 418.9173583984375 C 343.6832580566406 414.4505310058594 352.0753479003906 398.35211181640625 354.77374267578125 394.5518798828125" stroke-width="6.0" fill="none" stroke="rgb(0, 0, 0)" stroke-opacity="0.0" stroke-linecap="round" stroke-linejoin="round"/>
    <path d="M 36.43961715698242 45.46625900268555 C 39.16504669189453 47.17793655395508 22.531230926513672 23.07828140258789 15.360705375671387 51.8004150390625 C 40.1640625 45.06874465942383 40.64848709106445 44.09864807128906 31.253740310668945 17.925888061523438 C 25.06577491760254 62.469871520996094 45.57002639770508 27.01296615600586 22.55487632751465 39.22048568725586 C 38.063133239746094 70.34330749511719 46.2116813659668 95.32334899902344 33.965667724609375 65.78561401367188" stroke-width="6.0" fill="none" stroke="rgb(0, 0, 0)" stroke-opacity="0.0" stroke-linecap="round" stroke-linejoin="round"/>
    <path d="M 176.4846954345703 103.75099182128906 C 172.651611328125 72.41207885742188 177.54721069335938 118.65665435791016 176.74734497070312 109.55289459228516 C 185.4221954345703 109.81014251708984 120.09598541259766 106.42537689208984 104.98822784423828 110.11858367919922 C 132.2813720703125 106.65995788574219 96.60647583007812 91.37539672851562 111.3243179321289 110.65937042236328 C 90.06598663330078 96.07075500488281 117.97586822509766 106.28382873535156 146.53756713867188 109.04698944091797" stroke-width="6.0" fill="none" stroke="rgb(0, 0, 0)" stroke-opacity="0.0030797427" stroke-linecap="round" stroke-linejoin="round"/>
    <path d="M 211.55934143066406 405.16143798828125 C 193.124267578125 397.1929016113281 219.47067260742188 403.95623779296875 259.3594665527344 404.6946716308594 C 235.38467407226562 416.84869384765625 237.98387145996094 412.3921203613281 205.7321319580078 410.8029479980469 C 218.00448608398438 374.0350341796875 219.34573364257812 409.8575439453125 215.7085418701172 399.2038269042969 C 251.99606323242188 415.04400634765625 331.7357482910156 397.7017822265625 355.83489990234375 395.5335693359375" stroke-width="6.0" fill="none" stroke="rgb(0, 0, 0)" stroke-opacity="0.99920326" stroke-linecap="round" stroke-linejoin="round"/>
    <path d="M 299.17999267578125 164.10076904296875 C 274.95477294921875 195.04344177246094 267.97283935546875 159.5950927734375 279.2830810546875 191.2467498779297 C 300.4375 184.27232360839844 310.4478759765625 160.349609375 275.6501159667969 165.99240112304688 C 261.3219909667969 201.51742553710938 304.1853942871094 178.44923400878906 294.8948059082031 160.17645263671875 C 273.71380615234375 159.95310974121094 268.905517578125 170.92169189453125 300.3992919921875 167.2913055419922" stroke-width="6.0" fill="none" stroke="rgb(0, 0, 0)" stroke-opacity="1.0" stroke-linecap="round" stroke-linejoin="round"/>
    <path d="M 282.5450439453125 262.4083557128906 C 235.28054809570312 249.60855102539062 211.808837890625 245.18304443359375 238.4967041015625 250.9472198486328 C 208.5555877685547 249.45864868164062 200.85800170898438 239.12631225585938 238.7320556640625 246.10923767089844 C 258.2527160644531 257.2099304199219 239.52011108398438 243.25860595703125 208.2837371826172 245.9397430419922 C 256.8615417480469 266.9085693359375 266.6668395996094 279.2849426269531 310.91680908203125 269.7759704589844" stroke-width="6.0" fill="none" stroke="rgb(0, 0, 0)" stroke-opacity="0.975106" stroke-linecap="round" stroke-linejoin="round"/>
    <path d="M 616.7561645507812 77.48207092285156 C 592.6754150390625 84.82503509521484 594.4750366210938 81.71996307373047 639.581787109375 75.4888687133789 C 588.7145385742188 56.58964157104492 613.8175048828125 78.9213638305664 626.2342529296875 52.6087646484375 C 625.9739379882812 55.37501907348633 629.7850341796875 68.62820434570312 658.4740600585938 71.7110366821289 C 637.1608276367188 72.41522979736328 640.456298828125 87.54095458984375 621.9197998046875 90.63833618164062" stroke-width="6.0" fill="none" stroke="rgb(0, 0, 0)" stroke-opacity="0.12091823" stroke-linecap="round" stroke-linejoin="round"/>
    <path d="M 586.1595458984375 -10.006902694702148 C 588.3394775390625 -15.071610450744629 579.2111206054688 -19.961837768554688 568.2807006835938 -33.92330551147461 C 553.65966796875 -26.1993465423584 581.04638671875 -43.64768600463867 561.4049682617188 -71.07421875 C 586.3432006835938 -54.09104919433594 606.1763916015625 -75.11771392822266 602.66162109375 -64.82868957519531 C 604.5414428710938 -50.88907241821289 586.1942749023438 -26.734512329101562 591.71142578125 -20.02150535583496" stroke-width="6.0" fill="none" stroke="rgb(0, 0, 0)" stroke-opacity="0.4961349" stroke-linecap="round" stroke-linejoin="round"/>
    <path d="M 253.8724822998047 1.8102784156799316 C 252.86776733398438 -7.239678859710693 227.15757751464844 -5.625585079193115 182.92172241210938 3.4738101959228516 C 185.72772216796875 23.520002365112305 176.4123992919922 12.034313201904297 186.57278442382812 -14.569772720336914 C 222.53672790527344 -35.207763671875 233.510986328125 -15.247448921203613 251.20108032226562 21.649078369140625 C 241.8513946533203 78.08351135253906 244.3132781982422 57.772830963134766 243.62693786621094 75.07787322998047" stroke-width="6.0" fill="none" stroke="rgb(0, 0, 0)" stroke-opacity="0.0" stroke-linecap="round" stroke-linejoin="round"/>
    <path d="M 42.91244888305664 372.7208557128906 C 61.76640701293945 322.6100158691406 24.41493797302246 350.3208312988281 37.08045196533203 376.24774169921875 C 39.134220123291016 350.417724609375 38.096832275390625 302.6422119140625 47.95926284790039 299.49151611328125 C 99.15813446044922 276.94012451171875 136.3264923095703 266.09820556640625 117.1495361328125 274.17840576171875 C 132.6170654296875 267.57177734375 120.3705825805664 268.3529357910156 119.76364135742188 241.23069763183594" stroke-width="6.0" fill="none" stroke="rgb(0, 0, 0)" stroke-opacity="0.0" stroke-linecap="round" stroke-linejoin="round"/>
    <path d="M 324.5648498535156 294.3836364746094 C 398.3115539550781 275.31597900390625 420.49725341796875 292.4596862792969 403.1042785644531 276.2356262207031 C 367.1552429199219 293.56732177734375 401.74359130859375 214.33653259277344 410.08050537109375 318.37298583984375 C 333.5730285644531 315.2942810058594 329.4725036621094 295.7051696777344 381.72564697265625 300.23016357421875 C 397.3365173339844 337.2712707519531 344.59393310546875 312.1589660644531 343.74163818359375 313.29443359375" stroke-width="6.0" fill="none" stroke="rgb(0, 0, 0)" stroke-opacity="1.0" stroke-linecap="round" stroke-linejoin="round"/>
    <path d="M 164.58309936523438 484.6382141113281 C 194.96559143066406 498.1603698730469 152.9659423828125 506.0930480957031 159.75082397460938 545.7521362304688 C 157.13632202148438 556.310791015625 156.08628845214844 551.5115356445312 211.20767211914062 545.8679809570312 C 202.2081298828125 537.85009765625 186.13926696777344 557.5771484375 189.99151611328125 546.2743530273438 C 180.86465454101562 548.0029907226562 201.4766387939453 546.93310546875 206.06329345703125 552.5650024414062" stroke-width="6.0" fill="none" stroke="rgb(0, 0, 0)" stroke-opacity="0.0017568379" stroke-linecap="round" stroke-linejoin="round"/>
    <path d="M 433.5338439941406 558.3478393554688 C 405.5490417480469 570.5216064453125 389.5572814941406 537.119384765625 409.1768798828125 530.2593994140625 C 460.01873779296875 535.8619384765625 482.0701599121094 529.6500244140625 507.6397705078125 547.1320190429688 C 442.8915710449219 557.39990234375 493.15155029296875 544.58984375 458.35760498046875 555.049072265625 C 421.04974365234375 559.720947265625 427.8031005859375 556.542724609375 453.0875244140625 558.7817993164062" stroke-width="6.0" fill="none" stroke="rgb(0, 0, 0)" stroke-opacity="0.6067609" stroke-linecap="round" stroke-linejoin="round"/>
    <path d="M 196.68653869628906 169.2029571533203 C 180.12017822265625 177.14773559570312 193.47381591796875 175.31536865234375 182.61300659179688 104.61618041992188 C 183.1530303955078 138.32618713378906 218.15843200683594 138.15792846679688 197.90505981445312 108.54084014892578 C 214.67076110839844 115.18460845947266 203.95388793945312 102.17562103271484 198.3243408203125 150.03086853027344 C 145.30307006835938 138.18202209472656 124.51200866699219 133.7003936767578 122.63263702392578 141.4867706298828" stroke-width="6.0" fill="none" stroke="rgb(0, 0, 0)" stroke-opacity="0.0" stroke-linecap="round" stroke-linejoin="round"/>
    <path d="M 416.2345886230469 378.2713928222656 C 465.7586669921875 359.7198486328125 453.3647766113281 355.7452392578125 448.0979309082031 331.8113708496094 C 453.9339599609375 338.39312744140625 466.86407470703125 381.12225341796875 394.809814453125 397.4150085449219 C 380.91107177734375 351.2855224609375 378.5763854980469 320.8523864746094 366.996826171875 307.9237365722656 C 323.6034240722656 298.02593994140625 329.77227783203125 252.75233459472656 314.8005065917969 288.5198059082031" stroke-width="6.0" fill="none" stroke="rgb(0, 0, 0)" stroke-opacity="0.0017614206" stroke-linecap="round" stroke-linejoin="round"/>
    <path d="M 112.8067398071289 41.757049560546875 C 122.23130798339844 15.59907341003418 113.99273681640625 16.943851470947266 121.22757720947266 41.1908073425293 C 80.68024444580078 53.20460510253906 91.04596710205078 47.066829681396484 90.26055908203125 48.9932861328125 C 56.724124908447266 31.04886817932129 42.07585906982422 5.57234001159668 62.78151321411133 -13.822623252868652 C 56.39854431152344 7.290008544921875 67.99911499023438 9.361241340637207 85.9789047241211 45.8071174621582" stroke-width="6.0" fill="none" stroke="rgb(0, 0, 0)" stroke-opacity="0.0" stroke-linecap="round" stroke-linejoin="round"/>
    <path d="M 268.9813537597656 284.72210693359375 C 256.8920593261719 288.50823974609375 294.16058349609375 332.0599060058594 288.4676208496094 292.1613464355469 C 298.28289794921875 276.7434387207031 285.5076599121094 288.7528381347656 286.322021484375 320.0840148925781 C 253.67420959472656 282.8127746582031 240.8008270263672 250.85391235351562 229.3911590576172 220.3792724609375 C 236.63343811035156 237.2576904296875 244.6560821533203 243.6175537109375 240.1217803955078 250.03536987304688" stroke-width="6.0" fill="none" stroke="rgb(0, 0, 0)" stroke-opacity="0.006337734" stroke-linecap="round" stroke-linejoin="round"/>
    <path d="M 264.102783203125 38.75413131713867 C 259.8670654296875 33.18132019042969 274.3419494628906 61.52317810058594 262.7147521972656 63.587257385253906 C 260.6762390136719 115.17662048339844 266.8663024902344 123.04460906982422 292.88018798828125 108.31169891357422 C 314.6797790527344 110.24888610839844 301.52093505859375 118.36210632324219 305.2028503417969 102.07249450683594 C 213.49913024902344 124.13809204101562 196.04627990722656 114.75180053710938 198.79495239257812 111.06952667236328" stroke-width="6.0" fill="none" stroke="rgb(0, 0, 0)" stroke-opacity="0.0" stroke-linecap="round" stroke-linejoin="round"/>
    <path d="M 549.1387329101562 383.93048095703125 C 538.7869262695312 385.1987609863281 542.9820556640625 383.48553466796875 595.2972412109375 391.6747131347656 C 615.0418701171875 415.0989990234375 563.679931640625 408.7249450683594 577.3711547851562 416.8837585449219 C 511.501708984375 409.7554626464844 467.94818115234375 410.9505615234375 464.5763244628906 411.4376220703125 C 463.991455078125 406.00592041015625 524.451416015625 415.1508483886719 554.3327026367188 421.4594421386719" stroke-width="6.0" fill="none" stroke="rgb(0, 0, 0)" stroke-opacity="0.86309874" stroke-linecap="round" stroke-linejoin="round"/>
    <path d="M 484.7005310058594 254.80926513671875 C 562.4265747070312 262.25372314453125 553.22705078125 238.3524932861328 534.2241821289062 255.96559143066406 C 535.3480834960938 281.2004089355469 489.12921142578125 299.2475891113281 447.24176025390625 313.883056640625 C 414.3043212890625 327.78594970703125 403.43389892578125 332.7362976074219 351.35089111328125 341.3484802246094 C 410.6888427734375 318.5144958496094 416.6496276855469 295.181640625 345.3515625 316.9573974609375" stroke-width="6.0" fill="none" stroke="rgb(0, 0, 0)" stroke-opacity="1.0" stroke-linecap="round" stroke-linejoin="round"/>
    <path d="M 418.22833251953125 48.53651428222656 C 411.6391906738281 26.85186004638672 412.1117248535156 7.7841691970825195 386.5837097167969 -17.3903865814209 C 377.6131591796875 -37.11371612548828 380.1134338378906 -65.35314178466797 381.3294677734375 -76.33857727050781 C 353.6994934082031 -105.01190948486328 358.62225341796875 -92.30032348632812 339.4311218261719 -88.0384521484375 C 314.5343322753906 -90.09336853027344 333.52703857421875 -108.74873352050781 331.41064453125 -84.56290435791016" stroke-width="6.0" fill="none" stroke="rgb(0, 0, 0)" stroke-opacity="0.013222602" stroke-linecap="round" stroke-linejoin="round"/>
    <path d="M 477.63336181640625 56.30244445800781 C 460.39599609375 68.47248840332031 486.20001220703125 51.484275817871094 489.1943359375 56.009620666503906 C 467.6904602050781 53.67021560668945 485.54388427734375 54.60909652709961 473.9855651855469 22.139877319335938 C 487.24658203125 43.00326919555664 493.958984375 48.737667083740234 501.066650390625 12.769203186035156 C 486.67230224609375 38.81429672241211 518.4963989257812 64.08403778076172 510.7184143066406 52.62680435180664" stroke-width="6.0" fill="none" stroke="rgb(0, 0, 0)" stroke-opacity="0.00037570304" stroke-linecap="round" stroke-linejoin="round"/>
    <path d="M 172.1033172607422 607.8313598632812 C 193.85882568359375 606.9208374023438 197.4837188720703 603.77783203125 221.24642944335938 615.9227294921875 C 228.17013549804688 643.8761596679688 234.3561553955078 664.2251586914062 240.7540283203125 667.1964111328125 C 260.0320129394531 663.9904174804688 280.6596984863281 649.4527587890625 309.1574401855469 663.3523559570312 C 290.875244140625 674.4077758789062 278.20611572265625 650.2276611328125 256.12359619140625 646.2329711914062" stroke-width="6.0" fill="none" stroke="rgb(0, 0, 0)" stroke-opacity="0.5442239" stroke-linecap="round" stroke-linejoin="round"/>
    <path d="M 113.67247772216797 280.8112487792969 C 114.97509002685547 289.35638427734375 127.3392562866211 275.45654296875 111.68634796142578 306.1627197265625 C 126.97270202636719 292.1545104980469 130.37989807128906 274.2718505859375 136.6361541748047 234.2533721923828 C 131.60646057128906 200.78904724121094 188.5633544921875 217.81436157226562 182.867431640625 240.38986206054688 C 190.85169982910156 264.763427734375 178.64944458007812 248.18942260742188 185.90219116210938 277.0180969238281" stroke-width="6.0" fill="none" stroke="rgb(0, 0, 0)" stroke-opacity="0.0" stroke-linecap="round" stroke-linejoin="round"/>
    <path d="M 506.5445861816406 530.5260009765625 C 487.78167724609375 495.21514892578125 486.56011962890625 468.65264892578125 502.031494140625 471.749267578125 C 504.04925537109375 466.9699401855469 485.0594482421875 482.6553039550781 492.1002197265625 489.92529296875 C 534.3011474609375 479.9159851074219 533.4658813476562 489.46502685546875 509.0000915527344 474.3203430175781 C 511.10711669921875 498.2638244628906 522.7029418945312 526.9364013671875 486.03802490234375 524.5875244140625" stroke-width="6.0" fill="none" stroke="rgb(0, 0, 0)" stroke-opacity="0.0016382001" stroke-linecap="round" stroke-linejoin="round"/>
    <path d="M 431.3355407714844 161.71104431152344 C 438.06805419921875 167.84695434570312 411.60638427734375 142.56271362304688 453.7322692871094 124.67882537841797 C 399.3663635253906 111.47529602050781 421.7668151855469 67.38016510009766 390.9132995605469 51.1901969909668 C 387.5538024902344 46.32548904418945 382.2928466796875 28.665132522583008 382.404052734375 63.5247802734375 C 363.6466064453125 0.25623154640197754 370.017578125 -18.882129669189453 356.1194152832031 -23.52806282043457" stroke-width="6.0" fill="none" stroke="rgb(0, 0, 0)" stroke-opacity="0.0" stroke-linecap="round" stroke-linejoin="round"/>
    <path d="M -5.818673133850098 480.6216735839844 C 78.52254486083984 470.4329528808594 120.34817504882812 487.0262145996094 136.4456329345703 494.7147216796875 C 91.24152374267578 487.7023010253906 109.12052154541016 507.538330078125 115.3829116821289 501.9007263183594 C 97.96897888183594 532.921142578125 83.85311126708984 507.8987731933594 78.73926544189453 530.3074951171875 C 82.71338653564453 552.8612670898438 92.98348236083984 543.2665405273438 136.29510498046875 538.4881591796875" stroke-width="6.0" fill="none" stroke="rgb(0, 0, 0)" stroke-opacity="0.0" stroke-linecap="round" stroke-linejoin="round"/>
    <path d="M 602.1209106445312 224.0481719970703 C 589.202392578125 217.06497192382812 626.9819946289062 186.0254669189453 626.6585083007812 189.62120056152344 C 616.1152954101562 193.171875 648.23974609375 201.38571166992188 599.4844970703125 222.2906951904297 C 572.5879516601562 237.173828125 575.03125 223.34889221191406 612.470947265625 229.06141662597656 C 603.1568603515625 229.71229553222656 626.8272094726562 253.2045440673828 605.63232421875 266.6098327636719" stroke-width="6.0" fill="none" stroke="rgb(0, 0, 0)" stroke-opacity="0.0075715426" stroke-linecap="round" stroke-linejoin="round"/>
    <path d="M 285.4079895019531 76.97430419921875 C 283.2484130859375 92.54351806640625 296.9384765625 73.54672241210938 291.5390930175781 47.16957473754883 C 286.85577392578125 75.86322784423828 307.4078674316406 80.32772827148438 303.7282409667969 77.76374816894531 C 296.92645263671875 78.09115600585938 281.22833251953125 28.89081382751465 296.8857421875 35.98271179199219 C 282.7126159667969 -5.923226833343506 289.4962158203125 -28.800405502319336 235.9693603515625 -0.3958880603313446" stroke-width="6.0" fill="none" stroke="rgb(0, 0, 0)" stroke-opacity="0.0" stroke-linecap="round" stroke-linejoin="round"/>
    <path d="M 211.41087341308594 486.5281677246094 C 266.41259765625 480.6302795410156 293.46875 453.6977844238281 299.95147705078125 468.8721008300781 C 312.873291015625 467.72003173828125 322.962158203125 463.8651123046875 390.6117248535156 472.0842590332031 C 428.399658203125 441.2830810546875 349.6875305175781 457.08355712890625 349.4108581542969 438.2135925292969 C 372.6323547363281 427.9190673828125 382.9874267578125 428.5713195800781 412.6365966796875 426.2350769042969" stroke-width="6.0" fill="none" stroke="rgb(0, 0, 0)" stroke-opacity="0.7107495" stroke-linecap="round" stroke-linejoin="round"/>
    <path d="M 20.156620025634766 421.6402282714844 C -0.5562954545021057 424.45074462890625 21.52507209777832 397.21697998046875 7.956659317016602 461.04193115234375 C -5.5719451904296875 487.7179260253906 11.058287620544434 487.41156005859375 55.34093475341797 478.7456970214844 C 36.52188491821289 493.3884582519531 64.13549041748047 506.42529296875 117.39412689208984 488.2383117675781 C 87.47421264648438 472.412109375 107.62748718261719 484.1960754394531 102.76175689697266 523.7310180664062" stroke-width="6.0" fill="none" stroke="rgb(0, 0, 0)" stroke-opacity="0.003991252" stroke-linecap="round" stroke-linejoin="round"/>
    <path d="M 38.796661376953125 557.7523803710938 C 53.506187438964844 590.310546875 32.2978630065918 599.7678833007812 48.923336029052734 568.9157104492188 C 21.036630630493164 579.19482421875 8.12893295288086 570.2681274414062 -20.346967697143555 565.0146484375 C -14.711264610290527 584.495849609375 -30.66473960876465 577.9395751953125 -21.158809661865234 555.9952392578125 C -42.15132141113281 531.3123779296875 -21.281328201293945 548.4663696289062 -44.172298431396484 535.3193359375" stroke-width="6.0" fill="none" stroke="rgb(0, 0, 0)" stroke-opacity="0.015010453" stroke-linecap="round" stroke-linejoin="round"/>
    <path d="M -7.317310333251953 41.85963821411133 C 4.472046375274658 43.671810150146484 -24.626102447509766 46.94999694824219 -49.30364990234375 55.28703308105469 C -8.725144386291504 84.20901489257812 -28.269243240356445 82.13768005371094 -43.11293029785156 71.52738189697266 C -53.18268966674805 96.0850601196289 -72.01768493652344 89.8205795288086 -55.103675842285156 64.59613800048828 C -38.43939971923828 88.89390563964844 -31.25222396850586 114.40711975097656 -33.95914077758789 131.12294006347656" stroke-width="6.0" fill="none" stroke="rgb(0, 0, 0)" stroke-opacity="0.48744956" stroke-linecap="round" stroke-linejoin="round"/>
    <path d="M 251.59521484375 259.7267761230469 C 338.8778991699219 282.2832946777344 342.81689453125 268.4210510253906 361.9815673828125 313.6687927246094 C 350.868896484375 300.26483154296875 326.2254943847656 243.83082580566406 345.7767333984375 281.0223083496094 C 393.5350341796875 296.5299987792969 406.1682434082031 325.15234375 380.37860107421875 290.1923828125 C 405.9393005371094 277.8410339355469 401.212158203125 247.39132690429688 378.4979248046875 221.98974609375" stroke-width="6.0" fill="none" stroke="rgb(0, 0, 0)" stroke-opacity="1.0" stroke-linecap="round" stroke-linejoin="round"/>
    <path d="M 355.2489318847656 195.83790588378906 C 360.2347106933594 208.2567138671875 366.611328125 187.6066436767578 370.0684509277344 182.1997528076172 C 329.4855041503906 160.0119171142578 366.2911682128906 178.1946563720703 359.5644226074219 201.91204833984375 C 347.5296325683594 163.29043579101562 329.1647033691406 176.35887145996094 342.24505615234375 173.1157989501953 C 264.2092590332031 172.20468139648438 260.0740966796875 178.27029418945312 293.29168701171875 162.13632202148438" stroke-width="6.0" fill="none" stroke="rgb(0, 0, 0)" stroke-opacity="1.0" stroke-linecap="round" stroke-linejoin="round"/>
    <path d="M 290.9417419433594 525.4194946289062 C 298.83734130859375 510.89825439453125 295.6308288574219 520.340087890625 288.0561218261719 524.0357666015625 C 275.11834716796875 538.2684326171875 280.4595642089844 539.1104736328125 280.5754699707031 545.5948486328125 C 299.47442626953125 517.4494018554688 294.137451171875 510.0367736816406 289.992919921875 548.257080078125 C 294.39605712890625 535.69482421875 281.7596435546875 550.8779296875 278.0631408691406 534.9949951171875" stroke-width="6.0" fill="none" stroke="rgb(0, 0, 0)" stroke-opacity="0.0" stroke-linecap="round" stroke-linejoin="round"/>
    <path d="M 396.7172546386719 153.4523162841797 C 415.77337646484375 153.13555908203125 391.26544189453125 153.74554443359375 419.59686279296875 186.56605529785156 C 472.4757385253906 189.55455017089844 498.26654052734375 199.60858154296875 519.4719848632812 154.2009735107422 C 524.949462890625 99.69702911376953 526.1568603515625 80.47779846191406 525.373291015625 73.67745971679688 C 516.91845703125 92.2574462890625 522.8921508789062 91.71385192871094 520.9652099609375 79.89246368408203" stroke-width="6.0" fill="none" stroke="rgb(0, 0, 0)" stroke-opacity="0.0014502188" stroke-linecap="round" stroke-linejoin="round"/>
    <path d="M 47.05594253540039 258.78076171875 C 37.403446197509766 235.85350036621094 54.98582077026367 222.376220703125 100.6556167602539 203.8378143310547 C 136.46414184570312 234.62786865234375 121.7078628540039 212.9921875 110.38148498535156 166.57412719726562 C 100.59730529785156 168.5648193359375 97.2237548828125 186.9708709716797 102.42109680175781 210.32171630859375 C 100.21748352050781 157.90773010253906 117.5345458984375 164.6992950439453 103.83348846435547 183.1240997314453" stroke-width="6.0" fill="none" stroke="rgb(0, 0, 0)" stroke-opacity="0.0051890966" stroke-linecap="round" stroke-linejoin="round"/>
    <path d="M 114.72512817382812 482.6929931640625 C 80.57222747802734 491.6111145019531 21.174062728881836 488.30438232421875 -0.27776479721069336 474.43450927734375 C -30.92690658569336 473.0666198730469 -17.61089324951172 488.5603942871094 -27.10181999206543 483.3556823730469 C -33.95891189575195 460.966796875 -21.867462158203125 436.01776123046875 -37.021602630615234 458.1541442871094 C -27.19997787475586 438.1676330566406 -24.91632652282715 429.9873352050781 -45.65228271484375 424.3666076660156" stroke-width="6.0" fill="none" stroke="rgb(0, 0, 0)" stroke-opacity="1.0" stroke-linecap="round" stroke-linejoin="round"/>
    <path d="M 416.81817626953125 553.5308837890625 C 385.1534423828125 582.2504272460938 372.00604248046875 594.4284057617188 347.6854248046875 535.6880493164062 C 400.7472229003906 542.54443359375 393.0192565917969 517.4486694335938 368.5557556152344 527.5435791015625 C 331.38348388671875 553.062255859375 310.7038269042969 539.6455688476562 285.5800476074219 544.3285522460938 C 300.88818359375 529.3782958984375 286.13922119140625 531.0762939453125 301.5301208496094 546.109619140625" stroke-width="6.0" fill="none" stroke="rgb(0, 0, 0)" stroke-opacity="0.0" stroke-linecap="round" stroke-linejoin="round"/>
    <path d="M 75.77997589111328 483.8573913574219 C 113.4052734375 481.4260559082031 124.74815368652344 469.0075378417969 123.28194427490234 473.8934020996094 C 105.68203735351562 451.1415100097656 66.75067901611328 460.4416809082031 41.794193267822266 457.45941162109375 C 55.64680099487305 454.6950378417969 44.69865036010742 455.59893798828125 68.62245178222656 455.14080810546875 C 25.474666595458984 456.69573974609375 19.413963317871094 465.8399963378906 49.889503479003906 458.12310791015625" stroke-width="6.0" fill="none" stroke="rgb(0, 0, 0)" stroke-opacity="1.0" stroke-linecap="round" stroke-linejoin="round"/>
    <path d="M 185.9266357421875 525.6778564453125 C 115.24771881103516 523.7553100585938 149.4297332763672 479.07733154296875 198.92984008789062 494.8324890136719 C 227.55441284179688 473.5636291503906 226.08883666992188 483.8812255859375 204.38833618164062 464.7030029296875 C 201.3060302734375 500.9552917480469 172.4405059814453 492.020263671875 153.8823699951172 482.8772277832031 C 119.54098510742188 511.9054870605469 130.04432678222656 490.53546142578125 123.07208251953125 453.9041748046875" stroke-width="6.0" fill="none" stroke="rgb(0, 0, 0)" stroke-opacity="0.0017149448" stroke-linecap="round" stroke-linejoin="round"/>
    <path d="M 353.43408203125 262.6766052246094 C 288.9996337890625 270.9217224121094 270.2545166015625 292.008544921875 281.5742492675781 319.0180969238281 C 275.7078857421875 316.9704895019531 231.23146057128906 342.4993591308594 197.59170532226562 336.7156066894531 C 225.49114990234375 437.09283447265625 166.5792999267578 413.6976318359375 148.91770935058594 351.8800048828125 C 131.17782592773438 316.10089111328125 212.54293823242188 346.1445007324219 233.5970458984375 336.3091735839844" stroke-width="6.0" fill="none" stroke="rgb(0, 0, 0)" stroke-opacity="1.0" stroke-linecap="round" stroke-linejoin="round"/>
    <path d="M 449.4629821777344 505.07073974609375 C 440.7103576660156 520.5985107421875 444.3606262207031 529.2213745117188 404.2166748046875 533.597412109375 C 427.81317138671875 539.23193359375 436.8923034667969 554.9306640625 418.20989990234375 565.30126953125 C 433.2433166503906 581.2001342773438 432.14617919921875 593.7493896484375 468.6236267089844 600.3192749023438 C 439.57281494140625 588.6737670898438 428.110107421875 598.6126708984375 457.0365905761719 601.619873046875" stroke-width="6.0" fill="none" stroke="rgb(0, 0, 0)" stroke-opacity="0.00039083144" stroke-linecap="round" stroke-linejoin="round"/>
    <path d="M 286.2383117675781 407.539306640625 C 301.67291259765625 424.15234375 297.07073974609375 389.95147705078125 278.0724792480469 400.332275390625 C 277.6181335449219 422.2341613769531 294.6832580566406 433.7158508300781 274.75439453125 460.7929382324219 C 271.0119323730469 401.6933288574219 289.8957214355469 445.65887451171875 276.447021484375 420.24334716796875 C 281.2529296875 466.7586669921875 272.7019958496094 437.8204040527344 269.17962646484375 432.44915771484375" stroke-width="6.0" fill="none" stroke="rgb(0, 0, 0)" stroke-opacity="0.0" stroke-linecap="round" stroke-linejoin="round"/>
    <path d="M 188.06947326660156 401.29803466796875 C 216.5113983154297 419.6864929199219 188.7045135498047 371.8984375 187.6565704345703 329.5704345703125 C 248.88699340820312 318.6297912597656 276.1608581542969 305.66522216796875 290.36566162109375 281.66363525390625 C 361.016357421875 305.9505310058594 359.6214904785156 315.80584716796875 359.0744323730469 258.6816711425781 C 372.2635498046875 239.54930114746094 369.6995544433594 307.8287048339844 342.15325927734375 310.8921203613281" stroke-width="6.0" fill="none" stroke="rgb(0, 0, 0)" stroke-opacity="1.0" stroke-linecap="round" stroke-linejoin="round"/>
    <path d="M 58.67514419555664 384.2847900390625 C 87.06112670898438 394.42254638671875 59.638916015625 350.314453125 56.34333038330078 334.4267272949219 C 23.581504821777344 343.46295166015625 57.5166015625 370.9514465332031 57.054073333740234 389.19512939453125 C 58.88829040527344 368.11279296875 30.64711570739746 344.1587829589844 51.149070739746094 360.46038818359375 C 57.30352020263672 336.7325439453125 51.924102783203125 366.1492614746094 68.20487976074219 368.0372314453125" stroke-width="6.0" fill="none" stroke="rgb(0, 0, 0)" stroke-opacity="0.0005200397" stroke-linecap="round" stroke-linejoin="round"/>
    <path d="M 205.99049377441406 558.6929321289062 C 201.43096923828125 555.1095581054688 182.9014892578125 521.8933715820312 245.60057067871094 528.501953125 C 259.7231140136719 544.6060791015625 257.0106506347656 542.9938354492188 257.46942138671875 562.687255859375 C 268.05279541015625 538.567138671875 238.82337951660156 536.95361328125 259.8707275390625 545.5206298828125 C 266.7317199707031 515.2539672851562 231.2404022216797 504.1382141113281 167.6424102783203 502.5601501464844" stroke-width="6.0" fill="none" stroke="rgb(0, 0, 0)" stroke-opacity="0.0008467504" stroke-linecap="round" stroke-linejoin="round"/>
    <path d="M 174.8867645263672 520.800048828125 C 169.2178955078125 548.1112060546875 163.95982360839844 541.9213256835938 182.63412475585938 552.5927734375 C 219.4625244140625 555.4358520507812 198.71095275878906 512.1660766601562 208.24810791015625 544.2821044921875 C 200.5945281982422 526.912353515625 178.5182342529297 550.909423828125 232.5121612548828 542.5679321289062 C 269.599609375 555.7781982421875 289.42474365234375 557.3108520507812 277.7862548828125 555.8506469726562" stroke-width="6.0" fill="none" stroke="rgb(0, 0, 0)" stroke-opacity="0.0011251343" stroke-linecap="round" stroke-linejoin="round"/>
    <path d="M 410.7719421386719 549.256103515625 C 389.58563232421875 591.1262817382812 397.9948425292969 571.4148559570312 367.6761779785156 573.9617919921875 C 385.1377258300781 558.119873046875 341.4482421875 560.080078125 353.04278564453125 567.3704223632812 C 333.660400390625 555.0206909179688 338.2552490234375 537.8304443359375 346.0433349609375 514.8524780273438 C 373.3646240234375 517.7185668945312 353.4649963378906 505.3625183105469 370.3917541503906 508.4320373535156" stroke-width="6.0" fill="none" stroke="rgb(0, 0, 0)" stroke-opacity="0.0" stroke-linecap="round" stroke-linejoin="round"/>
    <path d="M 324.90380859375 501.4129943847656 C 311.8343811035156 524.32177734375 331.87744140625 523.28466796875 349.9386901855469 525.2554321289062 C 306.06689453125 516.75390625 258.4045104980469 506.2318420410156 296.09075927734375 502.0525207519531 C 322.765625 466.7152099609375 301.17095947265625 470.0999755859375 310.9273681640625 466.95574951171875 C 310.8697509765625 466.11688232421875 263.7851867675781 462.0234069824219 218.69161987304688 470.7168884277344" stroke-width="6.0" fill="none" stroke="rgb(0, 0, 0)" stroke-opacity="0.003210812" stroke-linecap="round" stroke-linejoin="round"/>
    <path d="M 573.2197875976562 45.13273620605469 C 580.0848999023438 26.620872497558594 583.1272583007812 42.79427719116211 559.5604248046875 31.245878219604492 C 555.6185913085938 74.00823974609375 560.5280151367188 52.39522171020508 547.8003540039062 55.51470184326172 C 537.762451171875 57.76254653930664 538.510009765625 76.99268341064453 560.4548950195312 67.68125915527344 C 522.7648315429688 57.684749603271484 539.7175903320312 83.90328979492188 533.2247314453125 62.31049728393555" stroke-width="6.0" fill="none" stroke="rgb(0, 0, 0)" stroke-opacity="0.0" stroke-linecap="round" stroke-linejoin="round"/>
    <path d="M 79.85116577148438 17.438159942626953 C 69.15863800048828 8.696660041809082 112.01992797851562 -12.934063911437988 111.48311614990234 10.665117263793945 C 92.14086151123047 5.62976598739624 110.69046783447266 -15.95571517944336 96.0059585571289 6.851726055145264 C 86.75271606445312 32.37171173095703 95.92254638671875 67.93677520751953 127.28462219238281 75.89583587646484 C 97.70782470703125 78.54161071777344 107.90250396728516 118.92721557617188 111.10057067871094 134.4294891357422" stroke-width="6.0" fill="none" stroke="rgb(0, 0, 0)" stroke-opacity="0.0" stroke-linecap="round" stroke-linejoin="round"/>
    <path d="M 349.543701171875 548.219970703125 C 434.8008117675781 528.9298095703125 495.4758605957031 530.7725219726562 518.82666015625 515.07666015625 C 521.6372680664062 544.8971557617188 512.3326416015625 535.9194946289062 517.428466796875 492.91241455078125 C 539.76513671875 501.30926513671875 545.7568969726562 480.368408203125 524.11376953125 474.72161865234375 C 505.0534973144531 490.34088134765625 497.20098876953125 483.4704895019531 487.5452575683594 493.2972717285156" stroke-width="6.0" fill="none" stroke="rgb(0, 0, 0)" stroke-opacity="0.003947996" stroke-linecap="round" stroke-linejoin="round"/>
    <path d="M 387.3121032714844 141.7786102294922 C 416.4438171386719 152.33802795410156 404.45751953125 196.26881408691406 398.09466552734375 170.93582153320312 C 372.33056640625 159.0836181640625 352.96124267578125 134.9346923828125 376.2286071777344 139.82180786132812 C 403.8223876953125 167.27420043945312 383.4286804199219 147.7835235595703 382.05560302734375 155.31390380859375 C 390.1290283203125 135.1714324951172 376.6552429199219 140.8154296875 351.32366943359375 141.5733642578125" stroke-width="6.0" fill="none" stroke="rgb(0, 0, 0)" stroke-opacity="0.0" stroke-linecap="round" stroke-linejoin="round"/>
    <path d="M 553.36474609375 455.3757019042969 C 550.4715576171875 422.52740478515625 541.900146484375 416.8817443847656 579.0338745117188 407.2795104980469 C 560.060791015625 413.04083251953125 559.9059448242188 397.4312438964844 534.24365234375 384.9017333984375 C 537.8223266601562 424.2539367675781 554.71875 461.0710144042969 554.0628051757812 438.3131408691406 C 587.9697875976562 454.6095275878906 620.9149169921875 447.93438720703125 637.4066772460938 463.4439697265625" stroke-width="6.0" fill="none" stroke="rgb(0, 0, 0)" stroke-opacity="0.0022366128" stroke-linecap="round" stroke-linejoin="round"/>
    <path d="M 436.60699462890625 425.031005859375 C 488.38916015625 428.020263671875 482.8847961425781 421.63800048828125 509.2261047363281 435.3781433105469 C 491.8137512207031 451.28802490234375 460.3913269042969 441.9634094238281 428.6922607421875 448.8872375488281 C 337.8389892578125 458.1833801269531 300.3743591308594 425.8572082519531 438.3148193359375 425.8582763671875 C 487.822998046875 360.3722229003906 471.2256164550781 353.71600341796875 397.83392333984375 385.455322265625" stroke-width="6.0" fill="none" stroke="rgb(0, 0, 0)" stroke-opacity="0.9090413" stroke-linecap="round" stroke-linejoin="round"/>
    <path d="M 324.9596862792969 235.54751586914062 C 287.1298828125 204.3975067138672 279.6380310058594 234.7459716796875 307.1997375488281 257.23193359375 C 267.5367736816406 278.21136474609375 221.3936004638672 267.0675354003906 259.6533203125 279.7642517089844 C 338.3028869628906 282.3387756347656 346.5561218261719 295.54522705078125 341.4234619140625 285.2799987792969 C 301.69793701171875 279.6087951660156 349.91925048828125 270.09539794921875 385.43243408203125 240.80470275878906" stroke-width="6.0" fill="none" stroke="rgb(0, 0, 0)" stroke-opacity="1.0" stroke-linecap="round" stroke-linejoin="round"/>
    <path d="M 391.68719482421875 454.0828857421875 C 349.3089904785156 448.0625 337.47576904296875 422.6504821777344 355.922607421875 409.5862121582031 C 341.1070556640625 412.1054382324219 359.7227478027344 422.9249572753906 340.2298583984375 437.2406311035156 C 353.2534484863281 454.60858154296875 359.2269287109375 455.43182373046875 358.26129150390625 441.5777587890625 C 352.63677978515625 425.56915283203125 333.8840026855469 406.53179931640625 319.6369323730469 405.1177062988281" stroke-width="6.0" fill="none" stroke="rgb(0, 0, 0)" stroke-opacity="0.0" stroke-linecap="round" stroke-linejoin="round"/>
    <path d="M 364.6775207519531 89.99586486816406 C 351.9863586425781 88.64214324951172 360.0533142089844 81.22261810302734 344.89825439453125 58.40410614013672 C 342.58258056640625 85.30813598632812 325.4697570800781 82.24903869628906 333.8639221191406 80.1518325805664 C 386.75689697265625 86.11524200439453 337.6194763183594 83.55375671386719 323.9930725097656 87.1466064453125 C 334.8595275878906 89.46891784667969 316.23736572265625 65.5995101928711 347.1589050292969 79.53150177001953" stroke-width="6.0" fill="none" stroke="rgb(0, 0, 0)" stroke-opacity="2.7984303e-05" stroke-linecap="round" stroke-linejoin="round"/>
    <path d="M 15.661843299865723 297.87322998046875 C 18.178131103515625 291.45404052734375 16.57961654663086 292.16583251953125 18.014524459838867 319.0565490722656 C 19.503511428833008 285.8116455078125 22.213390350341797 257.6596984863281 18.45667839050293 300.31939697265625 C 11.062192916870117 347.9260559082031 56.58365249633789 331.43084716796875 50.460205078125 342.17010498046875 C 44.74266815185547 350.8907470703125 34.856292724609375 345.5667419433594 43.08930206298828 348.9368896484375" stroke-width="6.0" fill="none" stroke="rgb(0, 0, 0)" stroke-opacity="0.5627521" stroke-linecap="round" stroke-linejoin="round"/>
    <path d="M 393.81707763671875 512.7156372070312 C 398.4138488769531 487.9332275390625 389.5333557128906 512.631103515625 382.8866882324219 494.93304443359375 C 400.05572509765625 512.0068969726562 410.4654235839844 522.6929931640625 392.51824951171875 511.6961364746094 C 402.3537902832031 541.805419921875 427.94195556640625 533.3659057617188 404.80535888671875 540.7303466796875 C 447.1477355957031 546.202392578125 449.4183044433594 521.3318481445312 455.3766784667969 530.1477661132812" stroke-width="6.0" fill="none" stroke="rgb(0, 0, 0)" stroke-opacity="0.0" stroke-linecap="round" stroke-linejoin="round"/>
    <path d="M 580.1618041992188 287.1876525878906 C 573.265625 300.1502380371094 604.1912231445312 292.2192077636719 573.50927734375 275.543212890625 C 540.94189453125 273.2301940917969 542.0103759765625 265.6175231933594 532.868896484375 294.16632080078125 C 591.3760375976562 296.7236328125 614.36669921875 307.3652038574219 625.1956176757812 268.3388366699219 C 586.9517211914062 253.3949432373047 600.8665161132812 245.87796020507812 602.6996459960938 247.2736053466797" stroke-width="6.0" fill="none" stroke="rgb(0, 0, 0)" stroke-opacity="0.009533012" stroke-linecap="round" stroke-linejoin="round"/>
    <path d="M 545.0191650390625 107.43726348876953 C 544.29248046875 128.29823303222656 548.5818481445312 147.62149047851562 539.6602172851562 167.0283660888672 C 521.73095703125 157.43988037109375 563.0419921875 140.0834503173828 561.6690063476562 102.60833740234375 C 555.181396484375 132.63937377929688 567.5890502929688 159.76412963867188 513.3013305664062 169.01895141601562 C 514.7357177734375 152.9249267578125 515.0980834960938 142.2900390625 518.3543090820312 167.7098388671875" stroke-width="6.0" fill="none" stroke="rgb(0, 0, 0)" stroke-opacity="0.0003483903" stroke-linecap="round" stroke-linejoin="round"/>
    <path d="M 338.4580383300781 62.237831115722656 C 340.35198974609375 91.38684844970703 341.0018005371094 97.75728607177734 403.1098327636719 71.05207824707031 C 398.81561279296875 86.176025390625 372.2354736328125 80.53811645507812 396.9436340332031 67.96222686767578 C 390.1670227050781 89.12654876708984 411.8987731933594 80.02946472167969 416.8115539550781 109.86051177978516 C 415.46124267578125 86.40498352050781 413.3117980957031 109.15287017822266 412.6981506347656 111.49439239501953" stroke-width="6.0" fill="none" stroke="rgb(0, 0, 0)" stroke-opacity="0.0" stroke-linecap="round" stroke-linejoin="round"/>
    <path d="M 129.9366912841797 100.3431167602539 C 145.78565979003906 111.70198822021484 152.1435089111328 123.19046020507812 151.4088592529297 126.41683959960938 C 109.96495056152344 133.0919952392578 129.83901977539062 134.85777282714844 139.40589904785156 131.03231811523438 C 136.8559112548828 109.5242691040039 126.74627685546875 125.46878051757812 156.73817443847656 116.1016616821289 C 139.11700439453125 115.3372802734375 138.3514862060547 128.91693115234375 127.02188110351562 93.9464340209961" stroke-width="6.0" fill="none" stroke="rgb(0, 0, 0)" stroke-opacity="0.0" stroke-linecap="round" stroke-linejoin="round"/>
    <path d="M 405.0002746582031 67.80276489257812 C 403.199951171875 78.49523162841797 400.21240234375 60.73486328125 354.922119140625 73.87348937988281 C 335.98577880859375 52.17018508911133 358.6190185546875 64.76807403564453 399.146484375 47.30670928955078 C 379.69915771484375 50.85000228881836 346.6798400878906 46.592185974121094 338.0668029785156 84.727294921875 C 351.0945129394531 98.04701232910156 342.15740966796875 99.64900970458984 324.3228759765625 69.71927642822266" stroke-width="6.0" fill="none" stroke="rgb(0, 0, 0)" stroke-opacity="0.00050334155" stroke-linecap="round" stroke-linejoin="round"/>
    <path d="M 376.237548828125 112.17807006835938 C 361.150390625 121.3431625366211 394.2845458984375 110.06632995605469 427.5247497558594 121.21562957763672 C 400.0866394042969 119.15986633300781 399.3149108886719 118.33045196533203 384.8773498535156 84.64402770996094 C 414.9944152832031 74.73750305175781 403.0603942871094 41.804176330566406 386.671875 89.77388763427734 C 379.81219482421875 66.2047119140625 395.6112976074219 78.95990753173828 414.5523376464844 82.17820739746094" stroke-width="6.0" fill="none" stroke="rgb(0, 0, 0)" stroke-opacity="0.0" stroke-linecap="round" stroke-linejoin="round"/>
    <path d="M 563.8960571289062 477.3409118652344 C 572.53857421875 462.1888732910156 539.508056640625 484.5119934082031 526.5913696289062 514.4321899414062 C 514.5823974609375 509.87017822265625 470.5007019042969 496.6982116699219 504.4342346191406 490.28704833984375 C 512.0614013671875 526.6237182617188 457.32122802734375 522.3226928710938 484.6698913574219 547.927490234375 C 510.76397705078125 555.0198974609375 510.76318359375 514.234130859375 513.26513671875 538.7216796875" stroke-width="6.0" fill="none" stroke="rgb(0, 0, 0)" stroke-opacity="0.0" stroke-linecap="round" stroke-linejoin="round"/>
    <path d="M 66.38603973388672 528.5022583007812 C 58.77367401123047 533.2589721679688 90.04670715332031 520.26806640625 106.63294219970703 530.498779296875 C 125.10064697265625 564.381103515625 120.98248291015625 529.5084228515625 116.53739166259766 556.1464233398438 C 95.72713470458984 542.9561157226562 69.43136596679688 544.8234252929688 45.284645080566406 569.2595825195312 C 59.972286224365234 560.0030517578125 82.99980163574219 572.9073486328125 45.925819396972656 570.1385498046875" stroke-width="6.0" fill="none" stroke="rgb(0, 0, 0)" stroke-opacity="0.0" stroke-linecap="round" stroke-linejoin="round"/>
    <path d="M 419.9217529296875 30.151226043701172 C 425.5544128417969 43.742225646972656 391.87261962890625 55.68523406982422 364.3541259765625 37.46237564086914 C 345.8450622558594 77.39167022705078 362.0946960449219 75.50450134277344 351.39556884765625 58.023521423339844 C 398.61444091796875 31.06007194519043 414.08038330078125 58.227169036865234 416.6313171386719 63.243587493896484 C 406.1160583496094 32.203208923339844 384.03985595703125 7.082235336303711 384.7093200683594 28.00179672241211" stroke-width="6.0" fill="none" stroke="rgb(0, 0, 0)" stroke-opacity="0.0032595631" stroke-linecap="round" stroke-linejoin="round"/>
    <path d="M 23.84844398498535 276.8110656738281 C 24.061044692993164 262.0606384277344 -1.9587739706039429 284.7076416015625 25.015884399414062 331.1974182128906 C 47.95841979980469 291.255126953125 42.1312255859375 279.46075439453125 44.47759246826172 346.3936767578125 C 74.61791229248047 313.7843322753906 51.47737121582031 312.66131591796875 20.322784423828125 306.1549072265625 C 31.535037994384766 297.0904541015625 37.03367233276367 318.322998046875 47.85419464111328 326.6387939453125" stroke-width="6.0" fill="none" stroke="rgb(0, 0, 0)" stroke-opacity="0.0" stroke-linecap="round" stroke-linejoin="round"/>
    <path d="M 205.734619140625 240.46331787109375 C 203.3172149658203 224.79405212402344 189.67088317871094 228.9862518310547 172.0633544921875 259.5368347167969 C 209.7782745361328 270.3924560546875 226.38258361816406 289.24542236328125 224.4447784423828 235.0986328125 C 200.53302001953125 211.47128295898438 151.14010620117188 240.9320068359375 129.51565551757812 234.59043884277344 C 143.1819305419922 231.29190063476562 175.4815673828125 259.1707458496094 196.1821746826172 273.7309265136719" stroke-width="6.0" fill="none" stroke="rgb(0, 0, 0)" stroke-opacity="0.0" stroke-linecap="round" stroke-linejoin="round"/>
    <path d="M 547.4956665039062 512.1040649414062 C 544.690673828125 511.8330078125 552.1256103515625 519.6380615234375 550.5120239257812 544.72705078125 C 552.3615112304688 501.5037536621094 588.43505859375 525.156494140625 526.6376342773438 518.1824951171875 C 562.6185302734375 511.2742919921875 577.1392211914062 526.0516967773438 542.6968383789062 513.1011352539062 C 517.68994140625 507.134521484375 532.9991455078125 494.026123046875 553.19384765625 504.3212890625" stroke-width="6.0" fill="none" stroke="rgb(0, 0, 0)" stroke-opacity="0.0022618445" stroke-linecap="round" stroke-linejoin="round"/>
    <path d="M 362.19512939453125 187.16552734375 C 345.9626770019531 168.18861389160156 375.8999328613281 169.719482421875 370.2857666015625 187.98101806640625 C 350.9434814453125 212.74038696289062 397.9184875488281 222.082275390625 393.2058410644531 295.56134033203125 C 358.9022521972656 329.395751953125 391.0404052734375 354.2884521484375 406.1033630371094 305.15338134765625 C 412.3607177734375 294.0199890136719 397.47698974609375 224.835205078125 383.2315673828125 265.2603454589844" stroke-width="6.0" fill="none" stroke="rgb(0, 0, 0)" stroke-opacity="1.0" stroke-linecap="round" stroke-linejoin="round"/>
    <path d="M 561.75634765625 295.55804443359375 C 567.5447998046875 301.15625 543.9609985351562 291.9859619140625 517.1935424804688 298.78082275390625 C 545.3712158203125 320.6098327636719 553.7554931640625 327.5074768066406 541.5673828125 278.5058898925781 C 588.994873046875 309.0869140625 600.3106079101562 293.4314270019531 637.041748046875 294.19683837890625 C 608.406982421875 291.1609802246094 586.3566284179688 316.0904235839844 570.0405883789062 289.6119079589844" stroke-width="6.0" fill="none" stroke="rgb(0, 0, 0)" stroke-opacity="0.0" stroke-linecap="round" stroke-linejoin="round"/>
    <path d="M 394.73583984375 301.9598083496094 C 408.1239318847656 314.37591552734375 429.9653015136719 316.6007080078125 507.6198425292969 340.9244079589844 C 542.4375 348.1850891113281 512.9957275390625 320.7862854003906 455.65838623046875 365.28961181640625 C 467.9576416015625 368.2500915527344 520.6701049804688 335.8807067871094 527.9154663085938 281.90631103515625 C 477.26226806640625 291.1133117675781 448.8150634765625 302.8399353027344 520.76171875 266.9890441894531" stroke-width="6.0" fill="none" stroke="rgb(0, 0, 0)" stroke-opacity="1.0" stroke-linecap="round" stroke-linejoin="round"/>
    <path d="M 203.00050354003906 117.18500518798828 C 173.25184631347656 96.82549285888672 209.17416381835938 124.252197265625 198.54013061523438 112.19277954101562 C 217.54054260253906 120.6965103149414 247.84164428710938 152.59130859375 241.52090454101562 122.02355194091797 C 260.6725769042969 109.08042907714844 222.44671630859375 135.02357482910156 229.88572692871094 77.9222640991211 C 222.78123474121094 66.66668701171875 220.59841918945312 70.54573059082031 233.3794708251953 91.2991943359375" stroke-width="6.0" fill="none" stroke="rgb(0, 0, 0)" stroke-opacity="0.00037649024" stroke-linecap="round" stroke-linejoin="round"/>
    <path d="M 340.6800231933594 -5.135472297668457 C 329.4875793457031 -8.663702964782715 320.02374267578125 -2.4937808513641357 342.80950927734375 -15.905994415283203 C 345.8139343261719 0.32029131054878235 330.3260192871094 -15.847277641296387 349.10992431640625 -7.625229358673096 C 379.0150451660156 -48.03547286987305 377.6282653808594 -38.83745574951172 360.8955993652344 -36.79027557373047 C 333.323486328125 -27.96631622314453 339.432373046875 -19.285091400146484 311.88690185546875 -16.537694931030273" stroke-width="6.0" fill="none" stroke="rgb(0, 0, 0)" stroke-opacity="0.04281826" stroke-linecap="round" stroke-linejoin="round"/>
    <path d="M 136.93373107910156 611.003662109375 C 131.91555786132812 615.9639892578125 134.2979278564453 639.6599731445312 115.89837646484375 635.7478637695312 C 131.37799072265625 607.9760131835938 110.01553344726562 607.3096923828125 112.227783203125 629.6783447265625 C 120.79344177246094 613.7875366210938 110.51612854003906 633.7818603515625 90.29847717285156 622.5208129882812 C 79.55162048339844 628.5923461914062 92.50936889648438 607.8568725585938 88.58718872070312 629.5035400390625" stroke-width="6.0" fill="none" stroke="rgb(0, 0, 0)" stroke-opacity="0.39150748" stroke-linecap="round" stroke-linejoin="round"/>
    <path d="M 506.0968322753906 497.112548828125 C 504.01617431640625 501.01055908203125 483.55120849609375 528.0315551757812 512.9585571289062 537.3533935546875 C 522.9668579101562 482.05255126953125 515.8643188476562 451.2504577636719 513.7759399414062 453.56048583984375 C 522.3382568359375 448.0174865722656 499.54180908203125 467.4057922363281 513.2269897460938 437.9958801269531 C 489.9475402832031 440.7441101074219 472.0770568847656 474.7982482910156 478.6189270019531 481.9656066894531" stroke-width="6.0" fill="none" stroke="rgb(0, 0, 0)" stroke-opacity="0.0021443237" stroke-linecap="round" stroke-linejoin="round"/>
    <path d="M 379.5376892089844 277.6211242675781 C 345.6344909667969 308.7337951660156 377.2294921875 361.0389709472656 353.17657470703125 381.38671875 C 354.3241271972656 373.7552490234375 402.5386962890625 378.1881103515625 436.8101806640625 372.28961181640625 C 440.02813720703125 376.7864990234375 473.4237060546875 411.8869934082031 506.7884216308594 391.96331787109375 C 532.0028686523438 350.2253723144531 512.58935546875 363.1954650878906 505.7035827636719 386.497314453125" stroke-width="6.0" fill="none" stroke="rgb(0, 0, 0)" stroke-opacity="0.0" stroke-linecap="round" stroke-linejoin="round"/>
    <path d="M 112.6187515258789 105.20038604736328 C 106.47193145751953 124.02421569824219 97.31451416015625 111.89034271240234 132.1576690673828 116.40445709228516 C 92.31732940673828 123.84906005859375 95.53038024902344 90.2945556640625 87.68022918701172 80.42449188232422 C 85.44518280029297 96.58667755126953 64.82073211669922 43.921775817871094 91.32816314697266 95.27420806884766 C 100.89733123779297 96.90241241455078 109.34740447998047 107.69268035888672 119.47294616699219 115.75386047363281" stroke-width="6.0" fill="none" stroke="rgb(0, 0, 0)" stroke-opacity="0.0" stroke-linecap="round" stroke-linejoin="round"/>
    <path d="M -9.127509117126465 520.6923828125 C -6.755555152893066 500.9903259277344 -14.697610855102539 513.202880859375 -23.93511199951172 528.7989501953125 C -18.928810119628906 537.5333251953125 0.3274519145488739 561.2794189453125 -13.203667640686035 526.87353515625 C -4.404688358306885 533.4680786132812 -14.611153602600098 532.0527954101562 -4.195615768432617 504.6004333496094 C -17.380990982055664 539.3582763671875 -37.665287017822266 530.6475830078125 -61.103702545166016 532.8626098632812" stroke-width="6.0" fill="none" stroke="rgb(0, 0, 0)" stroke-opacity="0.5601865" stroke-linecap="round" stroke-linejoin="round"/>
    <path d="M 96.29044342041016 98.41959381103516 C 112.38780212402344 78.62850952148438 111.4347915649414 72.31681060791016 93.94638061523438 72.8168716430664 C 113.11111450195312 76.81671905517578 96.3738784790039 96.80472564697266 42.72244644165039 92.15150451660156 C 81.28180694580078 95.60401153564453 94.86248779296875 82.4262924194336 102.81477355957031 104.96096801757812 C 111.45428466796875 20.564149856567383 119.2717514038086 50.412960052490234 122.73094177246094 51.835716247558594" stroke-width="6.0" fill="none" stroke="rgb(0, 0, 0)" stroke-opacity="0.0" stroke-linecap="round" stroke-linejoin="round"/>
    <path d="M 108.5887222290039 502.54461669921875 C 152.4736328125 497.5047912597656 153.6851806640625 499.4651184082031 134.0951690673828 503.4464111328125 C 157.1159210205078 474.3532409667969 118.63668060302734 463.5864562988281 114.90705871582031 480.4131774902344 C 136.54299926757812 444.5460205078125 96.65316772460938 467.9050598144531 92.21048736572266 442.5394287109375 C 147.64080810546875 439.74322509765625 164.7028350830078 446.3844909667969 191.1375732421875 449.8958740234375" stroke-width="6.0" fill="none" stroke="rgb(0, 0, 0)" stroke-opacity="0.0" stroke-linecap="round" stroke-linejoin="round"/>
    <path d="M 153.5065460205078 539.3519897460938 C 101.82017517089844 556.4283447265625 84.48193359375 550.5975952148438 103.32539367675781 568.41015625 C 103.78467559814453 552.2843017578125 130.062744140625 551.633056640625 138.38279724121094 547.0652465820312 C 124.86746978759766 558.230224609375 101.3434066772461 543.6585083007812 60.55126190185547 552.0213623046875 C 123.92530822753906 551.9907836914062 155.28004455566406 543.926025390625 91.06953430175781 550.288330078125" stroke-width="6.0" fill="none" stroke="rgb(0, 0, 0)" stroke-opacity="0.0" stroke-linecap="round" stroke-linejoin="round"/>
    <path d="M 294.66424560546875 232.94139099121094 C 319.5564880371094 222.6077880859375 301.5455017089844 209.85353088378906 335.6368408203125 235.31640625 C 290.56585693359375 262.29962158203125 280.6792907714844 240.1693878173828 272.0456848144531 252.27052307128906 C 323.86907958984375 273.01959228515625 316.1690673828125 286.4647521972656 319.3677062988281 290.61187744140625 C 280.9119567871094 257.53399658203125 252.53201293945312 245.6953887939453 282.3226318359375 192.39956665039062" stroke-width="6.0" fill="none" stroke="rgb(0, 0, 0)" stroke-opacity="0.99536806" stroke-linecap="round" stroke-linejoin="round"/>
    <path d="M 325.6149597167969 345.47003173828125 C 264.0640869140625 334.3177795410156 268.39324951171875 335.09765625 255.0824737548828 351.6101379394531 C 228.0768280029297 332.4225769042969 256.57147216796875 342.03997802734375 282.9132080078125 350.56439208984375 C 252.9287567138672 341.4097595214844 286.6254577636719 330.85906982421875 257.7729187011719 347.6816101074219 C 308.7121276855469 352.6259460449219 347.81805419921875 345.4999084472656 264.5567626953125 342.50048828125" stroke-width="6.0" fill="none" stroke="rgb(0, 0, 0)" stroke-opacity="1.0" stroke-linecap="round" stroke-linejoin="round"/>
    <path d="M 249.7889862060547 184.5707550048828 C 235.83851623535156 158.65524291992188 234.59173583984375 181.05731201171875 258.1035461425781 198.09249877929688 C 266.4857177734375 170.59454345703125 236.77978515625 156.3260040283203 239.8608856201172 170.89340209960938 C 261.9800720214844 208.63894653320312 259.2023620605469 232.96817016601562 264.23297119140625 182.23941040039062 C 251.3529510498047 185.26776123046875 252.43560791015625 168.53424072265625 202.1707763671875 170.52728271484375" stroke-width="6.0" fill="none" stroke="rgb(0, 0, 0)" stroke-opacity="0.0" stroke-linecap="round" stroke-linejoin="round"/>
    <path d="M 165.93243408203125 519.5785522460938 C 118.3221664428711 495.34100341796875 106.99010467529297 504.5273742675781 91.46923065185547 532.0990600585938 C 86.10324096679688 537.4749145507812 70.27816772460938 560.888916015625 28.863445281982422 542.3509521484375 C 50.14457702636719 554.9989013671875 49.64508819580078 539.792236328125 87.0458755493164 565.3712158203125 C 70.56485748291016 560.8059692382812 71.35867309570312 554.1554565429688 78.93038940429688 559.5736694335938" stroke-width="6.0" fill="none" stroke="rgb(0, 0, 0)" stroke-opacity="0.0015447028" stroke-linecap="round" stroke-linejoin="round"/>
    <path d="M 228.3561553955078 506.67724609375 C 211.31927490234375 481.9226989746094 231.9113006591797 506.9147644042969 245.37319946289062 487.7731018066406 C 211.9097900390625 494.8922424316406 219.89414978027344 515.401123046875 230.8239288330078 518.0172119140625 C 223.55238342285156 500.392822265625 227.4008026123047 472.12725830078125 229.824951171875 458.5857849121094 C 233.52706909179688 470.5046081542969 238.3291778564453 474.70703125 234.14772033691406 476.53369140625" stroke-width="6.0" fill="none" stroke="rgb(0, 0, 0)" stroke-opacity="0.0" stroke-linecap="round" stroke-linejoin="round"/>
    <path d="M 314.8775329589844 280.63623046875 C 386.6270446777344 271.5694580078125 361.6146240234375 263.7131652832031 376.0325012207031 235.68389892578125 C 377.91241455078125 230.92205810546875 400.6216735839844 283.1621398925781 372.34967041015625 293.29693603515625 C 447.1676330566406 298.30560302734375 496.07830810546875 283.956787109375 484.2626647949219 299.157470703125 C 400.010009765625 295.6389465332031 405.01800537109375 298.86871337890625 526.048828125 271.476318359375" stroke-width="6.0" fill="none" stroke="rgb(0, 0, 0)" stroke-opacity="1.0" stroke-linecap="round" stroke-linejoin="round"/>
    <path d="M 356.9532470703125 76.52725982666016 C 334.92205810546875 70.54769897460938 338.510986328125 37.1375617980957 345.0335388183594 13.071975708007812 C 360.8868103027344 42.6064567565918 369.6079406738281 22.84752082824707 334.6896057128906 34.25935745239258 C 326.9878234863281 27.2183895111084 333.0968322753906 55.99345779418945 361.4560852050781 50.25595474243164 C 328.4945068359375 49.717342376708984 332.4892883300781 39.05183792114258 348.12469482421875 25.315176010131836" stroke-width="6.0" fill="none" stroke="rgb(0, 0, 0)" stroke-opacity="0.0040689465" stroke-linecap="round" stroke-linejoin="round"/>
    <path d="M 347.6742858886719 28.868389129638672 C 387.14178466796875 28.885318756103516 331.5795593261719 46.34785461425781 327.33575439453125 17.5502872467041 C 316.2056579589844 -7.508845806121826 317.3642883300781 -48.91197967529297 263.7100830078125 -10.377038955688477 C 271.1881103515625 -12.709885597229004 275.720703125 -0.9792066812515259 268.8148498535156 12.814016342163086 C 229.8629913330078 17.846826553344727 239.13157653808594 38.64262390136719 234.36181640625 23.525846481323242" stroke-width="6.0" fill="none" stroke="rgb(0, 0, 0)" stroke-opacity="0.009104634" stroke-linecap="round" stroke-linejoin="round"/>
    <path d="M 418.1746520996094 188.65684509277344 C 410.3667297363281 199.7169952392578 426.6817626953125 230.2284698486328 407.7375183105469 188.7368621826172 C 453.9908752441406 175.9752960205078 469.0703125 172.64781188964844 468.3342590332031 199.34005737304688 C 494.8373718261719 196.28689575195312 486.395751953125 216.0072479248047 481.1543884277344 192.3851318359375 C 443.73101806640625 192.40452575683594 446.02740478515625 238.48680114746094 451.53955078125 256.15667724609375" stroke-width="6.0" fill="none" stroke="rgb(0, 0, 0)" stroke-opacity="0.0" stroke-linecap="round" stroke-linejoin="round"/>
    <path d="M 8.731717109680176 120.32667541503906 C 4.824098587036133 122.84855651855469 48.3111457824707 116.54350280761719 8.361504554748535 163.26431274414062 C 5.401522636413574 155.2484893798828 21.842788696289062 148.239501953125 45.499000549316406 156.0850067138672 C 29.736618041992188 149.54226684570312 46.238006591796875 140.06788635253906 9.396610260009766 137.75230407714844 C 8.399191856384277 140.7028350830078 -21.335744857788086 168.98524475097656 -45.08303451538086 150.03610229492188" stroke-width="6.0" fill="none" stroke="rgb(0, 0, 0)" stroke-opacity="0.0030792458" stroke-linecap="round" stroke-linejoin="round"/>
  </g>
</svg>
