<?xml version="1.0" ?>
<svg xmlns="http://www.w3.org/2000/svg" version="1.1" width="600" height="600">
  <defs/>
  <g>
    <path d="M 90.98282623291016 244.42202758789062 C 100.19209289550781 144.64732360839844 108.63494110107422 110.97554016113281 146.56239318847656 255.92367553710938 C 8.293745040893555 115.775390625 184.83474731445312 145.85513305664062 27.441333770751953 128.43328857421875 C 157.9477996826172 68.6103744506836 -1.928501844406128 138.27224731445312 280.1116943359375 173.84771728515625 C 24.773574829101562 192.75872802734375 43.0045166015625 1.0677493810653687 87.45429229736328 331.5443420410156" stroke-width="6.0" fill="none" stroke="rgb(0, 0, 0)" stroke-opacity="0.0" stroke-linecap="round" stroke-linejoin="round"/>
    <path d="M 172.3215789794922 140.6367645263672 C 91.39066314697266 266.5233154296875 125.41670989990234 557.5761108398438 129.6241455078125 179.35580444335938 C 17.302576065063477 125.97905731201172 125.57550048828125 193.55873107910156 115.0275650024414 330.2891845703125 C 193.7876434326172 307.74261474609375 149.3387451171875 418.68145751953125 159.65748596191406 392.4303283691406 C 197.2930145263672 301.7743835449219 203.91131591796875 264.33740234375 198.2749481201172 325.9352722167969" stroke-width="6.0" fill="none" stroke="rgb(0, 0, 0)" stroke-opacity="0.0" stroke-linecap="round" stroke-linejoin="round"/>
    <path d="M 385.9044494628906 508.2186279296875 C 572.3516845703125 505.7525939941406 420.6004943847656 517.919921875 340.8321533203125 491.8639831542969 C 694.77978515625 500.7510986328125 632.9798583984375 503.06005859375 225.45652770996094 523.5843505859375 C 346.67620849609375 454.2549743652344 514.007568359375 483.625732421875 600.8504638671875 466.6370544433594 C 310.5011901855469 417.8370666503906 222.78851318359375 484.4949645996094 176.0911102294922 495.94976806640625" stroke-width="6.0" fill="none" stroke="rgb(0, 0, 0)" stroke-opacity="0.0" stroke-linecap="round" stroke-linejoin="round"/>
    <path d="M 108.17080688476562 80.41502380371094 C 140.11050415039062 99.51304626464844 371.8952941894531 135.61376953125 189.28482055664062 151.71298217773438 C 363.5122375488281 17.882577896118164 166.80674743652344 189.86497497558594 117.3708724975586 173.0093231201172 C 91.2909927368164 126.38928985595703 58.098968505859375 152.35903930664062 93.51285552978516 39.85997009277344 C 141.42286682128906 164.9367218017578 73.36705017089844 85.38496398925781 86.21409606933594 25.396821975708008" stroke-width="6.0" fill="none" stroke="rgb(0, 0, 0)" stroke-opacity="0.0" stroke-linecap="round" stroke-linejoin="round"/>
    <path d="M 290.8025817871094 38.483665466308594 C 424.20849609375 26.595123291015625 441.2349548339844 15.278483390808105 589.7517700195312 9.344954490661621 C 459.91351318359375 -9.390631675720215 446.7840270996094 -4.8702216148376465 464.23980712890625 -19.529132843017578 C 505.3965148925781 -65.72870635986328 517.6567993164062 -62.78910446166992 518.27783203125 -77.59380340576172 C 543.7257080078125 -98.9609603881836 569.43994140625 -91.49129486083984 543.5868530273438 -80.81652069091797" stroke-width="6.0" fill="none" stroke="rgb(0, 0, 0)" stroke-opacity="0.8933229" stroke-linecap="round" stroke-linejoin="round"/>
    <path d="M 106.65028381347656 524.7655029296875 C 234.741943359375 498.4616394042969 168.40231323242188 466.2017822265625 306.81903076171875 400.3904113769531 C 91.58905792236328 424.9841003417969 84.6584243774414 411.04144287109375 113.36448669433594 412.11260986328125 C 14.501873016357422 439.4924621582031 -28.620994567871094 444.6684265136719 109.1539535522461 420.22113037109375 C 223.90057373046875 376.0820617675781 182.26942443847656 340.4564208984375 52.477108001708984 360.7979736328125" stroke-width="6.0" fill="none" stroke="rgb(0, 0, 0)" stroke-opacity="0.0047867475" stroke-linecap="round" stroke-linejoin="round"/>
    <path d="M 610.459716796875 39.35110092163086 C 623.7539672851562 22.84916877746582 633.6195678710938 1.6750330924987793 616.6612548828125 14.559746742248535 C 599.1879272460938 4.274585247039795 618.36669921875 0.5871514678001404 593.1521606445312 -5.31321907043457 C 617.6410522460938 -3.393343448638916 597.5830078125 -28.057470321655273 593.7312622070312 -13.592050552368164 C 582.2933349609375 4.001536846160889 606.5806274414062 -8.993548393249512 619.576171875 -12.28564453125" stroke-width="6.0" fill="none" stroke="rgb(0, 0, 0)" stroke-opacity="1.0" stroke-linecap="round" stroke-linejoin="round"/>
    <path d="M 98.40525817871094 275.69268798828125 C 165.69329833984375 63.54317855834961 -16.2286376953125 87.31844329833984 10.130012512207031 184.89234924316406 C -90.59651947021484 188.76222229003906 -53.74697494506836 201.5885772705078 -42.70768737792969 233.705322265625 C -30.42447280883789 239.24514770507812 -7.987807750701904 228.614990234375 -5.838620662689209 208.9724578857422 C -8.42746639251709 218.91763305664062 -12.754528045654297 227.88462829589844 -22.655147552490234 202.65435791015625" stroke-width="6.0" fill="none" stroke="rgb(0, 0, 0)" stroke-opacity="0.0" stroke-linecap="round" stroke-linejoin="round"/>
    <path d="M 326.8055725097656 476.1759033203125 C 509.5572204589844 429.8865661621094 555.0533447265625 380.27587890625 524.5106201171875 407.7883605957031 C 348.1235656738281 374.4179992675781 338.7535400390625 435.2544250488281 449.61114501953125 365.2322082519531 C 400.1550598144531 314.7719421386719 459.3919372558594 419.13153076171875 353.03094482421875 372.3904724121094 C 306.51116943359375 257.6565246582031 355.7445373535156 452.7743225097656 355.4986877441406 384.7132568359375" stroke-width="6.0" fill="none" stroke="rgb(0, 0, 0)" stroke-opacity="1.0" stroke-linecap="round" stroke-linejoin="round"/>
    <path d="M 120.89630889892578 463.3505554199219 C 308.04583740234375 455.9548645019531 354.1844787597656 453.7879943847656 326.75665283203125 407.9162902832031 C 368.3054504394531 353.6687316894531 293.9278564453125 377.088623046875 107.10807800292969 430.9506530761719 C 188.92919921875 416.9790954589844 191.70828247070312 374.2188720703125 370.9724426269531 439.1719970703125 C 96.73938751220703 455.4963684082031 -0.6815950870513916 403.7432556152344 200.567626953125 444.05279541015625" stroke-width="6.0" fill="none" stroke="rgb(0, 0, 0)" stroke-opacity="1.0" stroke-linecap="round" stroke-linejoin="round"/>
    <path d="M 151.5460662841797 478.47369384765625 C 435.52447509765625 410.29559326171875 419.0738830566406 516.343505859375 148.58587646484375 522.4324951171875 C 260.1294860839844 419.9162902832031 412.5544738769531 426.85479736328125 189.891845703125 503.8888854980469 C 246.38790893554688 456.2209777832031 285.5558166503906 424.26214599609375 451.7191467285156 422.4984436035156 C 170.3614501953125 488.97381591796875 279.2793884277344 506.7799377441406 556.2808227539062 380.9609069824219" stroke-width="6.0" fill="none" stroke="rgb(0, 0, 0)" stroke-opacity="0.99744296" stroke-linecap="round" stroke-linejoin="round"/>
    <path d="M 243.38302612304688 502.3334045410156 C 112.11031341552734 487.6788330078125 184.90890502929688 503.44720458984375 358.40966796875 481.6981506347656 C 427.158447265625 563.2864990234375 346.4289245605469 592.012451171875 114.69129943847656 511.8963317871094 C 82.18558502197266 571.8170166015625 93.04169464111328 539.9655151367188 330.4315490722656 565.3362426757812 C 256.55010986328125 573.79931640625 300.82562255859375 570.1695556640625 391.49053955078125 577.8282470703125" stroke-width="6.0" fill="none" stroke="rgb(0, 0, 0)" stroke-opacity="0.0" stroke-linecap="round" stroke-linejoin="round"/>
    <path d="M 137.94107055664062 342.91375732421875 C 221.86346435546875 361.632080078125 438.6298828125 386.1488952636719 382.6717224121094 399.5832214355469 C 285.7017822265625 417.3344421386719 327.9882507324219 384.6438903808594 332.28570556640625 417.6168212890625 C 320.5162353515625 442.10638427734375 450.99981689453125 509.6143798828125 476.07012939453125 388.7484436035156 C 242.85215759277344 412.56341552734375 203.91172790527344 431.1040954589844 382.7943420410156 385.0679016113281" stroke-width="6.0" fill="none" stroke="rgb(0, 0, 0)" stroke-opacity="1.0" stroke-linecap="round" stroke-linejoin="round"/>
    <path d="M 360.6882019042969 298.5072937011719 C 276.49365234375 368.02294921875 455.6181945800781 247.2589569091797 399.4347839355469 330.65716552734375 C 421.9636535644531 232.4972381591797 367.5423889160156 377.852783203125 334.4589538574219 291.0181884765625 C 391.5864562988281 321.97723388671875 373.6446533203125 348.4499816894531 419.4671325683594 287.7787170410156 C 403.80560302734375 302.763427734375 470.28192138671875 370.9862976074219 419.6670227050781 283.1495361328125" stroke-width="6.0" fill="none" stroke="rgb(0, 0, 0)" stroke-opacity="1.0" stroke-linecap="round" stroke-linejoin="round"/>
    <path d="M 34.3587760925293 -12.23061752319336 C 42.43632888793945 -15.55396556854248 45.58057403564453 -12.761521339416504 -3.5173959732055664 -32.43275451660156 C -13.142017364501953 29.123048782348633 5.048067569732666 25.863819122314453 0.5081005692481995 63.01958465576172 C -2.6470487117767334 103.83387756347656 -9.28815746307373 147.3796844482422 45.53654861450195 65.67645263671875 C 30.433414459228516 57.407318115234375 13.152644157409668 195.7545928955078 9.457479476928711 176.4375" stroke-width="6.0" fill="none" stroke="rgb(0, 0, 0)" stroke-opacity="0.0" stroke-linecap="round" stroke-linejoin="round"/>
    <path d="M 27.41877555847168 539.3302612304688 C 199.74647521972656 501.22125244140625 243.25616455078125 559.0365600585938 272.31182861328125 614.2913818359375 C 81.08723449707031 605.6190185546875 133.77647399902344 587.7924194335938 5.720264911651611 582.8269653320312 C 76.0350112915039 554.67236328125 273.4827575683594 568.7828979492188 175.40573120117188 560.5703735351562 C 124.97157287597656 568.0453491210938 217.32257080078125 589.6381225585938 210.27163696289062 576.3585815429688" stroke-width="6.0" fill="none" stroke="rgb(0, 0, 0)" stroke-opacity="0.0" stroke-linecap="round" stroke-linejoin="round"/>
    <path d="M 533.0985717773438 216.3111114501953 C 507.52899169921875 183.29725646972656 525.5767822265625 180.1201629638672 428.926025390625 176.7366943359375 C 513.890869140625 240.1091766357422 521.8844604492188 188.7544708251953 492.15020751953125 244.5330810546875 C 467.67022705078125 277.72021484375 466.0220947265625 305.5015869140625 506.78033447265625 159.15277099609375 C 415.99212646484375 183.21865844726562 483.8011474609375 275.55767822265625 413.5752868652344 266.7970275878906" stroke-width="6.0" fill="none" stroke="rgb(0, 0, 0)" stroke-opacity="0.0" stroke-linecap="round" stroke-linejoin="round"/>
    <path d="M 394.6693420410156 489.3190002441406 C 452.7032775878906 490.2003479003906 457.2192687988281 497.0660705566406 268.9222412109375 493.4124450683594 C 413.2596435546875 474.65863037109375 454.9878845214844 464.1864013671875 459.6009521484375 484.9483947753906 C 486.0740966796875 514.3519897460938 321.4765319824219 511.6480712890625 351.14703369140625 495.00042724609375 C 289.83270263671875 470.9429626464844 270.5782775878906 458.3373718261719 119.84113311767578 512.6394653320312" stroke-width="6.0" fill="none" stroke="rgb(0, 0, 0)" stroke-opacity="0.84031314" stroke-linecap="round" stroke-linejoin="round"/>
    <path d="M 235.02809143066406 185.7987823486328 C 235.78012084960938 161.0324249267578 278.68316650390625 175.0344696044922 255.12562561035156 152.18707275390625 C 154.7421875 306.3507080078125 323.5617980957031 187.49679565429688 -7.2762980461120605 165.22073364257812 C 249.31410217285156 182.81640625 165.7004852294922 312.65142822265625 166.29281616210938 176.61216735839844 C 201.7345428466797 176.70497131347656 207.7617645263672 207.5182342529297 116.1811752319336 187.32191467285156" stroke-width="6.0" fill="none" stroke="rgb(0, 0, 0)" stroke-opacity="0.0" stroke-linecap="round" stroke-linejoin="round"/>
    <path d="M 566.7102661132812 156.0491943359375 C 626.2674560546875 269.505615234375 595.7633056640625 282.1328125 588.1875 119.10454559326172 C 567.3755493164062 164.243896484375 613.7174072265625 206.83392333984375 648.5548095703125 244.79244995117188 C 601.5950927734375 228.3032684326172 547.6642456054688 207.795166015625 516.5748901367188 250.30105590820312 C 603.2750854492188 181.3334503173828 560.219970703125 204.66079711914062 504.93359375 373.7361755371094" stroke-width="6.0" fill="none" stroke="rgb(0, 0, 0)" stroke-opacity="0.0" stroke-linecap="round" stroke-linejoin="round"/>
    <path d="M 393.5722961425781 475.92987060546875 C 621.0919799804688 472.34112548828125 584.4076538085938 469.7597351074219 553.0136108398438 443.68060302734375 C 535.3411865234375 442.31243896484375 460.962646484375 455.37042236328125 460.9831848144531 447.40240478515625 C 619.4815063476562 434.2078857421875 611.67919921875 421.28936767578125 389.8848876953125 428.5320739746094 C 538.5336303710938 470.0885314941406 482.097900390625 404.797607421875 358.76837158203125 458.0250549316406" stroke-width="6.0" fill="none" stroke="rgb(0, 0, 0)" stroke-opacity="0.9987206" stroke-linecap="round" stroke-linejoin="round"/>
    <path d="M 383.8301696777344 35.70899200439453 C 302.4684143066406 147.36264038085938 314.8567199707031 168.56521606445312 389.49884033203125 182.5165557861328 C 364.0617370605469 138.68722534179688 386.57049560546875 145.44485473632812 99.94813537597656 156.08555603027344 C 361.4725646972656 172.8646697998047 349.8340148925781 204.75656127929688 445.22613525390625 275.2892150878906 C 324.2577209472656 245.94290161132812 324.42449951171875 219.89466857910156 214.6177520751953 247.9718017578125" stroke-width="6.0" fill="none" stroke="rgb(0, 0, 0)" stroke-opacity="0.0" stroke-linecap="round" stroke-linejoin="round"/>
    <path d="M 410.93011474609375 209.1680450439453 C 383.75665283203125 278.78204345703125 323.02459716796875 228.16712951660156 324.0683898925781 365.90008544921875 C 415.0734558105469 277.2816162109375 464.0892333984375 284.9467468261719 398.3536376953125 216.9738311767578 C 380.8344421386719 311.12750244140625 394.1881103515625 251.2415008544922 423.8093566894531 211.640380859375 C 290.0395812988281 226.28114318847656 325.8464050292969 199.10360717773438 420.7540283203125 223.57908630371094" stroke-width="6.0" fill="none" stroke="rgb(0, 0, 0)" stroke-opacity="0.9990617" stroke-linecap="round" stroke-linejoin="round"/>
    <path d="M 306.9454650878906 -12.329394340515137 C 314.2022399902344 -8.003486633300781 297.7727355957031 -12.440268516540527 299.3351745605469 -28.665306091308594 C 284.7423095703125 -21.800058364868164 260.1658935546875 -51.208953857421875 233.7300567626953 -70.59819030761719 C 254.22044372558594 -100.43121337890625 240.93304443359375 -86.97090148925781 217.50445556640625 -89.64899444580078 C 216.97940063476562 -76.67654418945312 189.22703552246094 -56.490299224853516 183.28182983398438 -66.48121643066406" stroke-width="6.0" fill="none" stroke="rgb(0, 0, 0)" stroke-opacity="1.0" stroke-linecap="round" stroke-linejoin="round"/>
    <path d="M 179.5963897705078 160.556640625 C -42.37482452392578 53.95421600341797 17.938228607177734 93.02365112304688 235.73736572265625 171.7460479736328 C 87.26235961914062 90.14356231689453 86.03600311279297 141.9995880126953 196.45941162109375 38.1929931640625 C 143.37220764160156 111.03553771972656 242.63174438476562 64.58782196044922 126.90607452392578 101.52397918701172 C 172.7606658935547 50.309452056884766 223.08387756347656 36.77376174926758 123.38117218017578 88.85628509521484" stroke-width="6.0" fill="none" stroke="rgb(0, 0, 0)" stroke-opacity="0.0" stroke-linecap="round" stroke-linejoin="round"/>
    <path d="M 527.6347045898438 318.1835632324219 C 592.4285888671875 331.7291564941406 650.0208740234375 334.0677490234375 691.5948486328125 314.20513916015625 C 572.5359497070312 296.7821044921875 593.882080078125 305.923583984375 615.5125122070312 292.5965576171875 C 619.10205078125 298.7892761230469 577.1473999023438 349.77435302734375 649.1755981445312 309.68255615234375 C 630.8287963867188 309.95074462890625 595.0997924804688 312.4548645019531 614.9225463867188 310.00634765625" stroke-width="6.0" fill="none" stroke="rgb(0, 0, 0)" stroke-opacity="0.98836756" stroke-linecap="round" stroke-linejoin="round"/>
    <path d="M 330.83258056640625 223.0011444091797 C 382.6372985839844 175.1783447265625 280.0414733886719 245.188720703125 350.7191162109375 219.13612365722656 C 314.6202087402344 239.9967498779297 291.0948486328125 303.7060852050781 397.8668212890625 320.16094970703125 C 350.27691650390625 291.948974609375 319.5875549316406 284.0387268066406 300.2324523925781 408.2027282714844 C 374.1499938964844 276.19903564453125 460.6464538574219 344.82073974609375 395.7028503417969 300.42315673828125" stroke-width="6.0" fill="none" stroke="rgb(0, 0, 0)" stroke-opacity="1.0" stroke-linecap="round" stroke-linejoin="round"/>
    <path d="M 612.8015747070312 455.1171569824219 C 605.7207641601562 656.8191528320312 606.24755859375 677.9649047851562 577.2451782226562 640.8513793945312 C 535.771484375 616.7913208007812 518.4332885742188 630.5279541015625 543.0198364257812 631.3165283203125 C 572.498291015625 624.2711181640625 553.9682006835938 627.5032348632812 537.2577514648438 617.2852172851562 C 566.528564453125 617.9467163085938 546.4266357421875 641.1104736328125 542.3344116210938 642.4563598632812" stroke-width="6.0" fill="none" stroke="rgb(0, 0, 0)" stroke-opacity="0.9957481" stroke-linecap="round" stroke-linejoin="round"/>
    <path d="M 39.169105529785156 307.3983459472656 C 149.02017211914062 547.1315307617188 71.63075256347656 393.9708251953125 87.8370590209961 257.8564453125 C 108.98429107666016 472.6531677246094 91.89863586425781 541.7281494140625 125.60157012939453 475.8841552734375 C 115.73854064941406 206.8415069580078 40.24275588989258 174.67840576171875 45.82624816894531 372.5627746582031 C 14.994064331054688 293.7633972167969 4.77781343460083 284.8208312988281 27.684831619262695 347.8536071777344" stroke-width="6.0" fill="none" stroke="rgb(0, 0, 0)" stroke-opacity="0.0" stroke-linecap="round" stroke-linejoin="round"/>
    <path d="M 134.1750946044922 360.2275695800781 C 273.833984375 380.60833740234375 311.67327880859375 374.62640380859375 308.5166015625 391.90142822265625 C 388.2944030761719 364.51116943359375 329.1369934082031 433.41156005859375 335.9766845703125 287.02886962890625 C 351.1394958496094 430.811279296875 371.0594787597656 377.4319152832031 435.8581848144531 387.3501281738281 C 395.79638671875 364.66082763671875 457.7183837890625 378.84326171875 407.8934326171875 292.62091064453125" stroke-width="6.0" fill="none" stroke="rgb(0, 0, 0)" stroke-opacity="0.9997349" stroke-linecap="round" stroke-linejoin="round"/>
    <path d="M 487.9835205078125 180.7102813720703 C 486.5274963378906 185.35658264160156 592.34912109375 113.43689727783203 557.6448974609375 141.7203369140625 C 471.05352783203125 167.03619384765625 525.7208862304688 174.68785095214844 498.7391662597656 166.58766174316406 C 581.3668212890625 170.4099578857422 598.2921752929688 171.04327392578125 652.6483154296875 191.43641662597656 C 636.314208984375 174.7490997314453 607.8334350585938 146.6556854248047 576.8212280273438 82.56658172607422" stroke-width="6.0" fill="none" stroke="rgb(0, 0, 0)" stroke-opacity="0.0" stroke-linecap="round" stroke-linejoin="round"/>
    <path d="M 25.634424209594727 516.5252075195312 C 24.381608963012695 498.9760437011719 63.81434631347656 545.9833984375 215.6536102294922 455.0535583496094 C 47.19588851928711 555.3204956054688 162.20077514648438 523.9418334960938 -8.125692367553711 508.579833984375 C -9.146419525146484 549.8467407226562 -4.7891645431518555 532.445068359375 238.02549743652344 543.0908203125 C -60.13237762451172 520.8240356445312 37.61835861206055 579.171875 195.2455596923828 483.5500183105469" stroke-width="6.0" fill="none" stroke="rgb(0, 0, 0)" stroke-opacity="0.0008270334" stroke-linecap="round" stroke-linejoin="round"/>
    <path d="M 91.59521484375 420.54034423828125 C 140.0210723876953 517.4082641601562 181.37582397460938 479.7434387207031 -30.484642028808594 496.0357666015625 C 41.98630905151367 435.6011962890625 -0.3638902008533478 495.7886047363281 -48.74614715576172 437.2574157714844 C -10.907012939453125 377.2088928222656 -21.545211791992188 386.4635314941406 -59.993106842041016 386.71795654296875 C -26.590696334838867 398.9938049316406 0.29823097586631775 374.37451171875 -24.825002670288086 399.4564208984375" stroke-width="6.0" fill="none" stroke="rgb(0, 0, 0)" stroke-opacity="1.0" stroke-linecap="round" stroke-linejoin="round"/>
    <path d="M 551.4921264648438 389.9319152832031 C 501.7502136230469 402.0634765625 449.89111328125 460.7312316894531 304.6780700683594 444.7341003417969 C 437.8434143066406 444.7734069824219 462.3375244140625 409.3154602050781 572.2230834960938 369.7335205078125 C 498.4295349121094 354.3930358886719 504.4444885253906 350.4284362792969 441.1178283691406 362.1585693359375 C 404.8710632324219 451.90203857421875 396.8959045410156 429.07403564453125 556.05615234375 367.8801574707031" stroke-width="6.0" fill="none" stroke="rgb(0, 0, 0)" stroke-opacity="1.0" stroke-linecap="round" stroke-linejoin="round"/>
    <path d="M 24.501161575317383 401.54095458984375 C 29.528432846069336 412.2985534667969 10.37926959991455 384.21417236328125 -7.332162380218506 350.5558776855469 C 74.86734771728516 282.3788757324219 93.67880249023438 364.4285888671875 125.26998901367188 617.1295776367188 C 108.36427307128906 323.4429931640625 50.151756286621094 313.15716552734375 31.233259201049805 335.505615234375 C 58.16498565673828 379.2073974609375 69.23149108886719 461.27691650390625 53.789424896240234 370.0167541503906" stroke-width="6.0" fill="none" stroke="rgb(0, 0, 0)" stroke-opacity="0.0" stroke-linecap="round" stroke-linejoin="round"/>
    <path d="M 228.51095581054688 530.6705932617188 C 72.2147445678711 512.6769409179688 442.4959716796875 529.57275390625 411.5188903808594 550.6015014648438 C 250.05226135253906 565.1087036132812 160.07969665527344 544.2717895507812 201.765869140625 556.4456787109375 C 410.00823974609375 561.9085693359375 464.1888732910156 546.6935424804688 402.0436706542969 549.2166137695312 C 420.5921936035156 554.4544677734375 422.016845703125 554.1945190429688 421.7970275878906 550.1033935546875" stroke-width="6.0" fill="none" stroke="rgb(0, 0, 0)" stroke-opacity="0.9153761" stroke-linecap="round" stroke-linejoin="round"/>
    <path d="M 407.832275390625 438.06781005859375 C 505.9551696777344 418.649658203125 659.8839721679688 464.8533935546875 487.89239501953125 431.3338623046875 C 561.7952880859375 471.4718322753906 535.5405883789062 444.2144775390625 521.1502685546875 517.6015014648438 C 589.75830078125 532.3933715820312 623.8062744140625 525.3904418945312 652.6998291015625 535.3435668945312 C 621.1964111328125 512.4300537109375 641.5103149414062 500.9308166503906 668.3220825195312 518.123291015625" stroke-width="6.0" fill="none" stroke="rgb(0, 0, 0)" stroke-opacity="0.0" stroke-linecap="round" stroke-linejoin="round"/>
    <path d="M 191.18417358398438 211.31207275390625 C 144.6541290283203 136.51785278320312 160.06674194335938 206.67803955078125 128.7722930908203 272.9929504394531 C 172.5190887451172 143.83709716796875 128.43272399902344 179.3209228515625 228.2361602783203 205.49871826171875 C 57.42070770263672 130.46714782714844 -0.4658481478691101 115.33654022216797 146.08543395996094 195.1150665283203 C 160.94212341308594 140.39930725097656 206.98109436035156 170.07672119140625 218.50953674316406 194.90826416015625" stroke-width="6.0" fill="none" stroke="rgb(0, 0, 0)" stroke-opacity="0.0" stroke-linecap="round" stroke-linejoin="round"/>
    <path d="M 499.34588623046875 402.12664794921875 C 528.4440307617188 322.82080078125 546.765869140625 279.5475769042969 486.30596923828125 273.0882263183594 C 363.11346435546875 289.62030029296875 457.3786926269531 301.634033203125 435.5157775878906 365.8870544433594 C 432.0003356933594 301.39739990234375 425.4285583496094 313.32745361328125 353.1204833984375 335.16497802734375 C 348.43951416015625 296.087158203125 426.9317626953125 319.86199951171875 348.4019470214844 322.8611755371094" stroke-width="6.0" fill="none" stroke="rgb(0, 0, 0)" stroke-opacity="1.0" stroke-linecap="round" stroke-linejoin="round"/>
    <path d="M -1.2200186252593994 305.57025146484375 C -6.669867992401123 253.6069793701172 79.3294677734375 331.06427001953125 49.06537628173828 182.35960388183594 C 37.467079162597656 283.425048828125 -12.324655532836914 334.64947509765625 -24.34336280822754 277.8232727050781 C -19.09276008605957 220.050537109375 -8.32922649383545 307.4378356933594 15.607361793518066 276.1814270019531 C -6.472973823547363 318.5794982910156 -22.01344871520996 314.5214538574219 -43.8604621887207 300.593994140625" stroke-width="6.0" fill="none" stroke="rgb(0, 0, 0)" stroke-opacity="0.0" stroke-linecap="round" stroke-linejoin="round"/>
    <path d="M 38.921226501464844 303.56695556640625 C 67.63041687011719 94.57273864746094 -5.849886894226074 321.4276123046875 78.90785217285156 150.6932373046875 C 12.24543285369873 229.5688018798828 107.3984146118164 243.93359375 12.239103317260742 251.4954071044922 C -9.773902893066406 267.8040466308594 -21.207509994506836 278.37860107421875 -16.79768180847168 274.1540222167969 C -14.875744819641113 232.2419891357422 -27.524721145629883 205.2098388671875 -24.11606788635254 216.78244018554688" stroke-width="6.0" fill="none" stroke="rgb(0, 0, 0)" stroke-opacity="0.0" stroke-linecap="round" stroke-linejoin="round"/>
    <path d="M 359.57672119140625 106.23580169677734 C 485.13824462890625 82.5625991821289 472.7799072265625 97.32401275634766 496.1997985839844 203.7593536376953 C 481.31427001953125 80.57301330566406 431.2313537597656 105.44990539550781 409.65997314453125 74.9513168334961 C 368.3617248535156 124.62713623046875 347.01055908203125 156.86538696289062 410.67047119140625 78.91179656982422 C 467.4342346191406 137.51531982421875 394.1070861816406 43.44693374633789 329.91656494140625 150.29824829101562" stroke-width="6.0" fill="none" stroke="rgb(0, 0, 0)" stroke-opacity="0.0" stroke-linecap="round" stroke-linejoin="round"/>
    <path d="M 552.3582153320312 426.09136962890625 C 437.77294921875 428.2900390625 597.2883911132812 374.79254150390625 502.23577880859375 435.99951171875 C 604.4772338867188 462.7850036621094 522.2789306640625 384.4330139160156 452.8560485839844 448.2339172363281 C 494.1087646484375 390.9848937988281 568.5572509765625 406.92437744140625 608.6851806640625 417.04571533203125 C 589.9087524414062 406.26904296875 631.8468627929688 411.318115234375 624.8568115234375 411.6302185058594" stroke-width="6.0" fill="none" stroke="rgb(0, 0, 0)" stroke-opacity="0.59950995" stroke-linecap="round" stroke-linejoin="round"/>
    <path d="M 210.3549041748047 586.6319580078125 C 171.36508178710938 566.97265625 171.1337890625 595.25244140625 248.3918914794922 646.2306518554688 C 266.6170654296875 583.0440673828125 263.0558776855469 547.7423095703125 148.57664489746094 503.85699462890625 C 332.1695861816406 506.16265869140625 363.4027404785156 494.05938720703125 154.09303283691406 521.4028930664062 C 246.27081298828125 502.8834533691406 203.0274658203125 459.0636901855469 133.4318084716797 480.10430908203125" stroke-width="6.0" fill="none" stroke="rgb(0, 0, 0)" stroke-opacity="0.022180509" stroke-linecap="round" stroke-linejoin="round"/>
    <path d="M 246.34771728515625 508.7132568359375 C 300.2286376953125 514.169921875 158.3166961669922 499.0462341308594 138.552978515625 486.1977844238281 C 347.8804931640625 496.6003723144531 238.2396240234375 501.1430969238281 114.9349365234375 521.6572875976562 C 208.57907104492188 445.41632080078125 37.77953338623047 478.4798278808594 305.63836669921875 474.86077880859375 C 48.9794807434082 461.3252258300781 169.0963897705078 467.5385437011719 138.6098175048828 505.0599365234375" stroke-width="6.0" fill="none" stroke="rgb(0, 0, 0)" stroke-opacity="1.0" stroke-linecap="round" stroke-linejoin="round"/>
    <path d="M 250.7880096435547 497.8829345703125 C 439.4212951660156 541.594482421875 362.67822265625 513.225830078125 169.73167419433594 525.0294799804688 C 231.15101623535156 552.09521484375 274.9250183105469 471.189208984375 262.0553894042969 543.0612182617188 C 322.9527282714844 576.8661499023438 327.42364501953125 615.7626953125 231.31703186035156 533.5440673828125 C 172.6146697998047 507.18353271484375 301.7320861816406 476.8860168457031 282.6741638183594 481.7162780761719" stroke-width="6.0" fill="none" stroke="rgb(0, 0, 0)" stroke-opacity="0.0031367806" stroke-linecap="round" stroke-linejoin="round"/>
    <path d="M 540.0966796875 347.19696044921875 C 560.6973266601562 389.3981018066406 603.1620483398438 316.9637451171875 437.63287353515625 369.0621032714844 C 585.6165161132812 318.1161193847656 540.8463745117188 351.25445556640625 537.9193115234375 335.81317138671875 C 617.5447387695312 330.3634948730469 620.935302734375 289.6013488769531 572.790283203125 308.10845947265625 C 559.5934448242188 352.41534423828125 477.0687255859375 337.859619140625 554.0385131835938 369.9218444824219" stroke-width="6.0" fill="none" stroke="rgb(0, 0, 0)" stroke-opacity="0.33051845" stroke-linecap="round" stroke-linejoin="round"/>
    <path d="M 301.2219543457031 571.4715576171875 C 327.3034362792969 553.2987670898438 330.3857421875 575.39794921875 195.44175720214844 578.8971557617188 C 311.54583740234375 581.9087524414062 243.5536346435547 563.5469360351562 262.59332275390625 594.7743530273438 C 275.9775085449219 646.1532592773438 286.9947509765625 644.5230712890625 301.9842529296875 642.8649291992188 C 298.2016296386719 611.8336181640625 316.9532470703125 602.7442016601562 293.7959289550781 622.9487915039062" stroke-width="6.0" fill="none" stroke="rgb(0, 0, 0)" stroke-opacity="0.0" stroke-linecap="round" stroke-linejoin="round"/>
    <path d="M 567.7495727539062 209.80471801757812 C 557.9777221679688 158.6632080078125 521.5552368164062 163.5539093017578 503.8367919921875 232.27487182617188 C 531.9656372070312 267.4155578613281 550.52197265625 306.7887878417969 547.1066284179688 223.49620056152344 C 589.0291137695312 257.336669921875 513.9338989257812 296.2752380371094 599.3096923828125 277.0729064941406 C 603.4755859375 310.2650451660156 566.57861328125 261.7843017578125 508.03515625 281.17681884765625" stroke-width="6.0" fill="none" stroke="rgb(0, 0, 0)" stroke-opacity="0.0" stroke-linecap="round" stroke-linejoin="round"/>
    <path d="M 292.00225830078125 448.0459289550781 C 173.99658203125 462.6548767089844 204.42417907714844 412.6302490234375 248.60848999023438 480.6839294433594 C 428.9238586425781 502.927001953125 364.81597900390625 490.4290771484375 270.0524597167969 485.842529296875 C 284.2768859863281 450.86956787109375 296.91522216796875 463.2860107421875 103.74052429199219 435.0533752441406 C 140.21273803710938 458.36956787109375 172.5660858154297 438.1006164550781 283.22747802734375 473.5279541015625" stroke-width="6.0" fill="none" stroke="rgb(0, 0, 0)" stroke-opacity="1.0" stroke-linecap="round" stroke-linejoin="round"/>
    <path d="M 580.1808471679688 520.6121215820312 C 385.8063659667969 486.4500427246094 621.785400390625 533.7752685546875 405.03143310546875 517.6046752929688 C 356.66290283203125 569.7704467773438 526.21142578125 547.134033203125 510.28564453125 561.8773193359375 C 556.84423828125 556.5286254882812 529.6370239257812 553.2259521484375 422.54345703125 567.392822265625 C 354.8539733886719 576.7738037109375 382.4394226074219 554.8900146484375 414.4730529785156 520.0263061523438" stroke-width="6.0" fill="none" stroke="rgb(0, 0, 0)" stroke-opacity="0.0" stroke-linecap="round" stroke-linejoin="round"/>
    <path d="M 111.81246948242188 369.1270446777344 C 92.07901763916016 251.27464294433594 92.0577163696289 314.4439697265625 47.16604995727539 316.5699768066406 C 46.35930252075195 231.29872131347656 40.97371292114258 260.4139099121094 233.26629638671875 239.23031616210938 C 31.516132354736328 299.5511474609375 28.811967849731445 233.27645874023438 39.163761138916016 274.70452880859375 C 3.9479923248291016 199.25399780273438 123.36783599853516 280.14990234375 84.2366714477539 198.02017211914062" stroke-width="6.0" fill="none" stroke="rgb(0, 0, 0)" stroke-opacity="0.0" stroke-linecap="round" stroke-linejoin="round"/>
    <path d="M 278.2030029296875 270.51318359375 C 269.1317138671875 260.1212463378906 281.1075134277344 276.1456604003906 273.1792297363281 271.7818603515625 C 224.71316528320312 279.4220886230469 192.65066528320312 314.5143737792969 218.32614135742188 377.513671875 C 201.19021606445312 209.4769287109375 213.67691040039062 315.7015686035156 304.07861328125 402.5980224609375 C 242.9779510498047 220.28089904785156 286.4618835449219 206.141845703125 212.42662048339844 243.74749755859375" stroke-width="6.0" fill="none" stroke="rgb(0, 0, 0)" stroke-opacity="0.0" stroke-linecap="round" stroke-linejoin="round"/>
    <path d="M 382.10546875 209.10362243652344 C 290.5054626464844 171.29283142089844 323.6116638183594 128.91673278808594 327.4249267578125 156.2451934814453 C 304.7632751464844 198.51747131347656 398.5208740234375 201.82408142089844 398.1462707519531 44.71908187866211 C 398.6165771484375 157.76052856445312 353.63671875 143.73562622070312 379.73773193359375 113.07908630371094 C 337.5609436035156 132.23085021972656 418.98565673828125 98.62675476074219 468.12738037109375 136.966552734375" stroke-width="6.0" fill="none" stroke="rgb(0, 0, 0)" stroke-opacity="0.0" stroke-linecap="round" stroke-linejoin="round"/>
    <path d="M -4.542361259460449 306.3771057128906 C 43.33024978637695 361.56378173828125 45.76682662963867 357.77337646484375 6.6851043701171875 320.07293701171875 C -9.406932830810547 289.4956359863281 -10.709256172180176 259.7335510253906 -50.379478454589844 268.9488830566406 C -26.873884201049805 283.0313415527344 -43.06596374511719 264.2716064453125 -39.096031188964844 258.669677734375 C -32.22683334350586 268.0001525878906 -6.96706485748291 291.0633850097656 -6.102518558502197 303.6788330078125" stroke-width="6.0" fill="none" stroke="rgb(0, 0, 0)" stroke-opacity="0.006223509" stroke-linecap="round" stroke-linejoin="round"/>
    <path d="M 68.59390258789062 48.14334487915039 C 47.9541130065918 57.92173767089844 103.53215026855469 82.3673095703125 92.43415069580078 58.20481491088867 C 105.61863708496094 67.96796417236328 70.01782989501953 -6.791278839111328 87.08842468261719 18.862703323364258 C 139.16741943359375 11.942965507507324 44.5567512512207 38.35488510131836 155.98622131347656 81.53213500976562 C 99.78849029541016 72.5703353881836 209.94407653808594 47.02670669555664 178.32318115234375 58.48640060424805" stroke-width="6.0" fill="none" stroke="rgb(0, 0, 0)" stroke-opacity="0.0" stroke-linecap="round" stroke-linejoin="round"/>
    <path d="M 205.60467529296875 86.67403411865234 C 182.10671997070312 63.45247268676758 250.1324462890625 156.3499755859375 244.2930908203125 162.92330932617188 C 300.16485595703125 164.82420349121094 249.3671417236328 159.17214965820312 281.9305419921875 105.50565338134766 C 273.1518249511719 125.03067779541016 291.8272705078125 100.98036193847656 241.53311157226562 102.16375732421875 C 313.3737487792969 117.24174499511719 217.13072204589844 79.69956970214844 235.35025024414062 114.56961059570312" stroke-width="6.0" fill="none" stroke="rgb(0, 0, 0)" stroke-opacity="0.0" stroke-linecap="round" stroke-linejoin="round"/>
    <path d="M 514.5821533203125 467.4487609863281 C 538.9111938476562 467.03594970703125 501.5483703613281 468.76007080078125 521.7612915039062 444.1628112792969 C 498.2956237792969 434.9512023925781 485.35791015625 433.7454833984375 400.9782409667969 462.6907043457031 C 323.7643127441406 451.030029296875 359.2601623535156 477.59246826171875 484.6734313964844 491.7452087402344 C 488.6197814941406 494.1171875 516.7229614257812 494.6283264160156 344.43511962890625 476.7744140625" stroke-width="6.0" fill="none" stroke="rgb(0, 0, 0)" stroke-opacity="0.08408575" stroke-linecap="round" stroke-linejoin="round"/>
    <path d="M 514.52587890625 169.14230346679688 C 478.29351806640625 170.13497924804688 484.9109802246094 208.91934204101562 549.058349609375 192.12652587890625 C 563.9990844726562 233.25997924804688 542.1546020507812 209.46817016601562 568.78125 206.4159698486328 C 554.9212036132812 159.63406372070312 553.317138671875 193.17971801757812 579.9547729492188 147.40792846679688 C 565.800537109375 97.10819244384766 555.8042602539062 208.30007934570312 608.8582153320312 71.9298324584961" stroke-width="6.0" fill="none" stroke="rgb(0, 0, 0)" stroke-opacity="0.0" stroke-linecap="round" stroke-linejoin="round"/>
    <path d="M 171.36795043945312 115.53125 C 148.25198364257812 117.29009246826172 96.22960662841797 161.88694763183594 162.2292022705078 157.8759307861328 C 210.7646026611328 94.99056243896484 106.66304016113281 149.7447509765625 89.01634216308594 129.4786834716797 C 201.55795288085938 134.4644317626953 154.71237182617188 113.08547973632812 173.73117065429688 74.14380645751953 C 148.56173706054688 143.87606811523438 149.02377319335938 132.39222717285156 207.30783081054688 54.94736099243164" stroke-width="6.0" fill="none" stroke="rgb(0, 0, 0)" stroke-opacity="0.0" stroke-linecap="round" stroke-linejoin="round"/>
    <path d="M 141.41461181640625 439.92303466796875 C 348.3521423339844 460.14630126953125 444.9607238769531 429.6034851074219 325.0937805175781 462.99847412109375 C 242.16795349121094 478.2666931152344 254.23683166503906 455.11328125 333.24603271484375 457.2018127441406 C 352.92816162109375 481.7379150390625 416.4714050292969 474.57940673828125 487.661376953125 431.2426452636719 C 311.7008972167969 391.3311462402344 394.5114440917969 405.14715576171875 306.4844970703125 398.23760986328125" stroke-width="6.0" fill="none" stroke="rgb(0, 0, 0)" stroke-opacity="1.0" stroke-linecap="round" stroke-linejoin="round"/>
    <path d="M 130.33384704589844 227.27183532714844 C 100.50592041015625 145.8475799560547 130.363037109375 183.97039794921875 147.1685028076172 223.4943389892578 C 105.08242797851562 213.23707580566406 150.30897521972656 207.84027099609375 100.46258544921875 336.755615234375 C 147.5810546875 235.2248992919922 63.5816650390625 218.53506469726562 171.4178009033203 276.9730224609375 C 222.04811096191406 268.75555419921875 247.33212280273438 276.71978759765625 226.99490356445312 264.1019592285156" stroke-width="6.0" fill="none" stroke="rgb(0, 0, 0)" stroke-opacity="0.0" stroke-linecap="round" stroke-linejoin="round"/>
    <path d="M 496.9890441894531 239.0235137939453 C 497.4620361328125 282.0263366699219 514.5890502929688 273.5810546875 488.5146484375 375.238037109375 C 523.0111083984375 235.71617126464844 478.4165954589844 229.42149353027344 517.7996826171875 288.58001708984375 C 528.9423217773438 272.49444580078125 511.9602966308594 249.8717803955078 476.5025329589844 281.9678649902344 C 430.3724365234375 250.98851013183594 434.96044921875 213.90670776367188 402.4526672363281 242.4129638671875" stroke-width="6.0" fill="none" stroke="rgb(0, 0, 0)" stroke-opacity="0.0" stroke-linecap="round" stroke-linejoin="round"/>
    <path d="M 427.93548583984375 323.30120849609375 C 428.2631530761719 411.7829895019531 454.9803161621094 401.129150390625 511.1160888671875 363.0216369628906 C 542.0750122070312 318.5662841796875 493.2485656738281 356.3998107910156 433.6817932128906 366.797607421875 C 383.24755859375 373.38507080078125 553.2465209960938 334.08734130859375 467.8581848144531 365.37939453125 C 379.2703857421875 378.1656494140625 521.085693359375 340.8397521972656 420.7166748046875 374.6668701171875" stroke-width="6.0" fill="none" stroke="rgb(0, 0, 0)" stroke-opacity="1.0" stroke-linecap="round" stroke-linejoin="round"/>
    <path d="M -0.09052760899066925 417.99346923828125 C 79.44219207763672 429.52142333984375 0.9318714737892151 436.12030029296875 103.30671691894531 398.5474548339844 C 87.564453125 200.50523376464844 171.2147979736328 404.48748779296875 95.25491333007812 333.2983703613281 C 140.19020080566406 384.7989501953125 137.10281372070312 358.860595703125 171.08401489257812 386.1171569824219 C 202.0797882080078 293.0909118652344 108.65836334228516 288.4729919433594 130.75009155273438 363.782958984375" stroke-width="6.0" fill="none" stroke="rgb(0, 0, 0)" stroke-opacity="0.0" stroke-linecap="round" stroke-linejoin="round"/>
    <path d="M 31.18903923034668 243.09896850585938 C -45.431304931640625 249.3641815185547 -39.520877838134766 285.70806884765625 12.173007011413574 319.59088134765625 C 59.995445251464844 233.25791931152344 -0.8671045303344727 206.8325958251953 46.324344635009766 208.7384796142578 C 59.697608947753906 263.7850646972656 61.95475769042969 286.73138427734375 70.17823028564453 240.06861877441406 C 93.03473663330078 241.9063262939453 60.57662582397461 330.52099609375 56.073604583740234 235.51910400390625" stroke-width="6.0" fill="none" stroke="rgb(0, 0, 0)" stroke-opacity="0.0" stroke-linecap="round" stroke-linejoin="round"/>
    <path d="M 365.65155029296875 575.3154296875 C 480.949951171875 564.2144165039062 508.8702697753906 556.2980346679688 598.435302734375 526.3679809570312 C 524.9421997070312 541.9921264648438 485.683837890625 537.2550659179688 403.5831604003906 549.5465698242188 C 363.5401611328125 607.7105712890625 411.478515625 635.7784423828125 503.9824523925781 621.4954833984375 C 581.5231323242188 611.1065063476562 599.25927734375 590.244384765625 551.095458984375 601.0354614257812" stroke-width="6.0" fill="none" stroke="rgb(0, 0, 0)" stroke-opacity="0.0" stroke-linecap="round" stroke-linejoin="round"/>
    <path d="M 448.51171875 399.982421875 C 518.7450561523438 416.5425720214844 511.5856628417969 415.750732421875 415.0015869140625 419.55572509765625 C 465.4523010253906 392.30322265625 552.9298706054688 406.76654052734375 454.27349853515625 428.176025390625 C 448.582763671875 401.1864013671875 439.923583984375 411.5944519042969 396.0780334472656 428.2209167480469 C 272.1016540527344 456.5577697753906 252.56959533691406 441.9251403808594 447.3764953613281 453.9908447265625" stroke-width="6.0" fill="none" stroke="rgb(0, 0, 0)" stroke-opacity="0.9809634" stroke-linecap="round" stroke-linejoin="round"/>
    <path d="M 88.90682983398438 93.71772766113281 C 97.9586410522461 66.84671020507812 95.17790985107422 73.22196960449219 87.86575317382812 74.49225616455078 C 55.25339126586914 106.12551879882812 92.10303497314453 56.95886993408203 86.27285766601562 119.84750366210938 C 106.90685272216797 77.5341796875 62.363338470458984 103.60944366455078 71.29035186767578 271.4934997558594 C 30.61823081970215 158.60693359375 -6.465025424957275 93.92581939697266 82.48149871826172 144.0230255126953" stroke-width="6.0" fill="none" stroke="rgb(0, 0, 0)" stroke-opacity="0.0" stroke-linecap="round" stroke-linejoin="round"/>
    <path d="M 8.833639144897461 142.79434204101562 C 4.909022331237793 146.65884399414062 4.939035415649414 120.56635284423828 -7.970739841461182 179.3470458984375 C -13.230031967163086 162.73387145996094 -27.661117553710938 183.02005004882812 -41.84410095214844 166.7646942138672 C -20.286670684814453 153.59384155273438 -12.025808334350586 171.34347534179688 -9.126213073730469 181.02630615234375 C -21.576017379760742 161.9927520751953 -41.250335693359375 180.1049346923828 -63.29822540283203 150.54319763183594" stroke-width="6.0" fill="none" stroke="rgb(0, 0, 0)" stroke-opacity="0.0" stroke-linecap="round" stroke-linejoin="round"/>
    <path d="M 43.808223724365234 106.66291046142578 C 31.251541137695312 -130.03273010253906 24.735240936279297 50.64734649658203 -15.263823509216309 128.02931213378906 C 73.79927825927734 176.700439453125 54.57027053833008 110.68621063232422 69.74966430664062 180.08062744140625 C -16.55596160888672 213.70425415039062 42.568359375 102.07457733154297 23.101924896240234 119.93180084228516 C 44.17193603515625 121.05005645751953 8.718228340148926 173.8702850341797 65.77931213378906 164.41600036621094" stroke-width="6.0" fill="none" stroke="rgb(0, 0, 0)" stroke-opacity="0.0" stroke-linecap="round" stroke-linejoin="round"/>
    <path d="M 84.99945068359375 89.1938247680664 C 174.97474670410156 21.001754760742188 124.6545181274414 91.66939544677734 89.77845764160156 3.40665340423584 C 76.43714904785156 78.24297332763672 76.2068099975586 52.54878616333008 84.60409545898438 70.7801284790039 C 108.26687622070312 102.8992691040039 72.92036437988281 58.29093551635742 117.9569320678711 102.25904083251953 C 125.3906021118164 32.65644073486328 104.18311309814453 27.185462951660156 103.12999725341797 31.902040481567383" stroke-width="6.0" fill="none" stroke="rgb(0, 0, 0)" stroke-opacity="0.0012865835" stroke-linecap="round" stroke-linejoin="round"/>
    <path d="M 350.28594970703125 454.00909423828125 C 400.3441467285156 455.7927551269531 400.777587890625 402.5333557128906 368.40972900390625 404.6825866699219 C 387.8301696777344 333.0782165527344 296.7611083984375 349.8873291015625 312.61798095703125 395.8533935546875 C 350.5992126464844 394.88397216796875 328.9200134277344 433.8984375 345.2330627441406 444.6027526855469 C 313.9183654785156 444.9654846191406 299.4300537109375 458.9703369140625 298.1085205078125 476.0213623046875" stroke-width="6.0" fill="none" stroke="rgb(0, 0, 0)" stroke-opacity="0.0017049084" stroke-linecap="round" stroke-linejoin="round"/>
    <path d="M 521.56689453125 375.8459167480469 C 589.3700561523438 336.4735107421875 620.3507080078125 313.03546142578125 611.6257934570312 277.5689392089844 C 615.0784912109375 291.6575927734375 617.0314331054688 265.69482421875 550.147705078125 268.8393859863281 C 565.4740600585938 264.05780029296875 564.04541015625 270.4721984863281 559.7711791992188 268.4547119140625 C 553.7239990234375 267.03631591796875 577.1784057617188 302.2111511230469 550.4168701171875 211.93392944335938" stroke-width="6.0" fill="none" stroke="rgb(0, 0, 0)" stroke-opacity="0.0" stroke-linecap="round" stroke-linejoin="round"/>
    <path d="M 138.6615753173828 332.9609680175781 C 139.474609375 333.8708801269531 151.9742889404297 319.26409912109375 176.03213500976562 343.4473571777344 C 159.6580352783203 346.9051208496094 143.7423553466797 331.0257873535156 149.3364715576172 293.8802795410156 C 152.92263793945312 263.6319274902344 145.56227111816406 347.2319030761719 149.38259887695312 317.0703430175781 C 136.16639709472656 375.7966003417969 119.232177734375 401.5400695800781 136.66958618164062 328.74560546875" stroke-width="6.0" fill="none" stroke="rgb(0, 0, 0)" stroke-opacity="0.0" stroke-linecap="round" stroke-linejoin="round"/>
    <path d="M 515.4998168945312 337.9131774902344 C 458.5831298828125 347.386474609375 490.5665283203125 350.9346618652344 585.0055541992188 366.8726806640625 C 482.8446350097656 345.90423583984375 511.86407470703125 308.64886474609375 509.70123291015625 385.0455322265625 C 514.1983642578125 269.7425537109375 503.8510437011719 396.95294189453125 504.0227355957031 331.3965759277344 C 566.4896850585938 343.5567321777344 564.2330932617188 367.35076904296875 576.8378295898438 322.9609069824219" stroke-width="6.0" fill="none" stroke="rgb(0, 0, 0)" stroke-opacity="0.27908662" stroke-linecap="round" stroke-linejoin="round"/>
    <path d="M 401.7375793457031 447.12060546875 C 452.7526550292969 440.8872985839844 447.9989013671875 434.530029296875 520.2182006835938 428.3273620605469 C 412.5248107910156 456.7049255371094 471.0717468261719 458.97772216796875 553.1504516601562 401.5697937011719 C 516.1405639648438 408.8021545410156 519.182373046875 418.9553527832031 485.6026916503906 423.8155517578125 C 485.0912170410156 435.9654541015625 438.783447265625 467.1333312988281 447.90618896484375 442.43255615234375" stroke-width="6.0" fill="none" stroke="rgb(0, 0, 0)" stroke-opacity="1.0" stroke-linecap="round" stroke-linejoin="round"/>
    <path d="M 200.9609832763672 484.97784423828125 C 476.0906982421875 479.3486328125 367.7409973144531 454.9590759277344 215.6117706298828 465.2749328613281 C 349.6234436035156 478.15570068359375 304.3797607421875 495.6503601074219 312.91766357421875 460.8917236328125 C 373.8458251953125 432.99530029296875 285.2873229980469 407.7424011230469 372.79345703125 393.7530822753906 C 274.4281005859375 373.89239501953125 336.6827392578125 401.4638366699219 384.87835693359375 393.2747497558594" stroke-width="6.0" fill="none" stroke="rgb(0, 0, 0)" stroke-opacity="0.9858649" stroke-linecap="round" stroke-linejoin="round"/>
    <path d="M 178.69439697265625 44.98387145996094 C 190.69882202148438 53.544044494628906 196.67324829101562 34.358306884765625 174.2539825439453 82.35110473632812 C 182.12078857421875 27.85411834716797 189.1335906982422 36.893882751464844 188.42910766601562 33.764671325683594 C 169.8390655517578 29.37139892578125 164.93687438964844 45.00703811645508 186.98681640625 37.104652404785156 C 182.40126037597656 21.964519500732422 185.01698303222656 52.81721496582031 184.47994995117188 71.21266174316406" stroke-width="6.0" fill="none" stroke="rgb(0, 0, 0)" stroke-opacity="0.0" stroke-linecap="round" stroke-linejoin="round"/>
    <path d="M 68.80245208740234 252.12335205078125 C 84.16862487792969 247.32254028320312 76.77433776855469 197.1968994140625 60.549747467041016 140.46014404296875 C 123.81050109863281 180.33917236328125 66.27729797363281 301.8512878417969 71.00811767578125 364.11614990234375 C 16.89531707763672 234.9325408935547 77.87938690185547 208.27850341796875 150.19158935546875 258.6087951660156 C 124.26264190673828 263.3305969238281 142.76095581054688 261.259765625 144.146484375 253.86337280273438" stroke-width="6.0" fill="none" stroke="rgb(0, 0, 0)" stroke-opacity="0.0" stroke-linecap="round" stroke-linejoin="round"/>
    <path d="M 81.16915130615234 85.0487060546875 C 50.21946716308594 76.77178192138672 36.83194351196289 70.57235717773438 52.61039352416992 90.85362243652344 C 25.753761291503906 75.34219360351562 78.90313720703125 84.73207092285156 56.57398223876953 81.71222686767578 C 3.4534811973571777 111.22038269042969 60.722164154052734 108.25935363769531 64.30301666259766 104.35299682617188 C 55.77228546142578 92.55916595458984 54.88288879394531 108.04277038574219 72.53158569335938 140.57081604003906" stroke-width="6.0" fill="none" stroke="rgb(0, 0, 0)" stroke-opacity="0.0" stroke-linecap="round" stroke-linejoin="round"/>
    <path d="M 224.90347290039062 133.6009979248047 C 223.58441162109375 143.59654235839844 175.24327087402344 125.86382293701172 195.53024291992188 149.9105224609375 C 139.0027313232422 163.5168914794922 182.69041442871094 125.83544921875 178.8233184814453 172.04922485351562 C 243.05870056152344 174.99034118652344 271.4472961425781 178.9247283935547 237.73147583007812 173.9120330810547 C 229.03225708007812 182.78103637695312 220.5020751953125 173.88201904296875 230.63656616210938 174.65159606933594" stroke-width="6.0" fill="none" stroke="rgb(0, 0, 0)" stroke-opacity="0.002437611" stroke-linecap="round" stroke-linejoin="round"/>
    <path d="M 148.9484405517578 422.45477294921875 C 360.4917907714844 370.6337585449219 309.2534484863281 356.8972473144531 230.20974731445312 404.0451354980469 C 262.8111572265625 488.70623779296875 219.55462646484375 463.54534912109375 148.71841430664062 458.6053771972656 C 225.33676147460938 450.77545166015625 226.0087127685547 461.7780456542969 176.47254943847656 476.60406494140625 C 270.9898986816406 491.04364013671875 127.77139282226562 475.27349853515625 182.29957580566406 485.9212951660156" stroke-width="6.0" fill="none" stroke="rgb(0, 0, 0)" stroke-opacity="1.0" stroke-linecap="round" stroke-linejoin="round"/>
    <path d="M 18.705442428588867 35.93312072753906 C -0.3960668742656708 64.12568664550781 11.780683517456055 35.2312126159668 33.466548919677734 20.487018585205078 C 46.45455551147461 67.36148071289062 68.17935943603516 93.98271942138672 41.4527473449707 47.030426025390625 C 85.63453674316406 40.54135513305664 39.344627380371094 38.036956787109375 59.01576232910156 34.23348617553711 C 94.11347961425781 15.401520729064941 85.24143981933594 -35.35413360595703 111.0511245727539 -25.34954261779785" stroke-width="6.0" fill="none" stroke="rgb(0, 0, 0)" stroke-opacity="0.0" stroke-linecap="round" stroke-linejoin="round"/>
    <path d="M 576.7767944335938 341.4657287597656 C 546.5989379882812 339.2492370605469 480.9942626953125 436.78717041015625 565.3438110351562 353.1174011230469 C 587.3262329101562 410.0855712890625 660.3488159179688 343.1277160644531 569.8975219726562 344.123291015625 C 567.8909301757812 350.40374755859375 577.9335327148438 305.2782897949219 556.9247436523438 344.2455139160156 C 601.2801513671875 332.6323547363281 602.9185180664062 307.89422607421875 589.4052734375 326.2384948730469" stroke-width="6.0" fill="none" stroke="rgb(0, 0, 0)" stroke-opacity="0.50238526" stroke-linecap="round" stroke-linejoin="round"/>
    <path d="M 604.8545532226562 171.64273071289062 C 621.8883056640625 5.518082141876221 632.2036743164062 46.695213317871094 614.5543212890625 157.7150115966797 C 609.50927734375 141.6800994873047 601.19482421875 188.46365356445312 607.9072265625 210.74798583984375 C 617.4423828125 190.19300842285156 625.6194458007812 196.6695556640625 650.5772705078125 206.61129760742188 C 637.3219604492188 187.8617706298828 614.1016235351562 187.2589111328125 610.0253295898438 204.65530395507812" stroke-width="6.0" fill="none" stroke="rgb(0, 0, 0)" stroke-opacity="0.5956895" stroke-linecap="round" stroke-linejoin="round"/>
    <path d="M 198.62310791015625 475.2012023925781 C 331.7346496582031 485.34942626953125 376.4687805175781 472.9986572265625 272.13201904296875 463.4205017089844 C 303.92425537109375 462.8228454589844 321.3888854980469 466.4571533203125 317.24835205078125 472.9953308105469 C 350.7209167480469 459.8566589355469 413.3100280761719 458.2702941894531 298.22174072265625 448.27374267578125 C 234.25921630859375 464.91375732421875 218.3900604248047 509.75042724609375 326.82928466796875 487.12548828125" stroke-width="6.0" fill="none" stroke="rgb(0, 0, 0)" stroke-opacity="1.0" stroke-linecap="round" stroke-linejoin="round"/>
    <path d="M 137.32838439941406 351.648681640625 C 321.4953918457031 360.5456237792969 374.7461242675781 411.7859802246094 324.02813720703125 304.4539794921875 C 316.7385559082031 411.8908386230469 334.4832763671875 388.8018493652344 329.0249328613281 285.85089111328125 C 355.5938720703125 371.49212646484375 357.4613342285156 341.4071960449219 404.831787109375 304.18353271484375 C 402.37518310546875 262.4268493652344 469.62408447265625 324.52972412109375 434.99566650390625 389.0098876953125" stroke-width="6.0" fill="none" stroke="rgb(0, 0, 0)" stroke-opacity="1.0" stroke-linecap="round" stroke-linejoin="round"/>
    <path d="M 219.28871154785156 525.8646850585938 C 159.70603942871094 540.2874145507812 260.02105712890625 521.7858276367188 222.07577514648438 529.8470458984375 C 232.11651611328125 454.6976013183594 272.9991149902344 498.2777404785156 239.79534912109375 492.19940185546875 C 160.04637145996094 457.9885559082031 230.02467346191406 460.4317932128906 107.74811553955078 447.3804626464844 C 161.7667236328125 474.9344787597656 188.5903778076172 516.7178955078125 193.8363494873047 509.3298034667969" stroke-width="6.0" fill="none" stroke="rgb(0, 0, 0)" stroke-opacity="1.0" stroke-linecap="round" stroke-linejoin="round"/>
    <path d="M 323.80645751953125 200.9304656982422 C 316.86572265625 207.6742706298828 315.2485046386719 257.678955078125 366.27203369140625 228.2914581298828 C 343.8793029785156 176.48191833496094 358.67974853515625 191.89564514160156 335.71868896484375 177.61228942871094 C 332.0859680175781 175.68154907226562 305.9563293457031 225.0009307861328 322.1589660644531 193.90748596191406 C 349.1031188964844 169.8949432373047 353.3268737792969 203.82652282714844 362.6712646484375 190.51138305664062" stroke-width="6.0" fill="none" stroke="rgb(0, 0, 0)" stroke-opacity="0.0" stroke-linecap="round" stroke-linejoin="round"/>
    <path d="M 283.8846740722656 522.1148071289062 C 206.2152099609375 561.5438232421875 248.27011108398438 562.6808471679688 213.1492156982422 560.7332763671875 C 223.3089599609375 545.1018676757812 232.72592163085938 549.0010986328125 231.4598388671875 532.6131591796875 C 245.23814392089844 533.12255859375 219.92283630371094 553.2394409179688 233.29576110839844 502.4158935546875 C 294.5557556152344 529.5177612304688 200.10610961914062 545.52880859375 303.4053955078125 549.3228759765625" stroke-width="6.0" fill="none" stroke="rgb(0, 0, 0)" stroke-opacity="0.0" stroke-linecap="round" stroke-linejoin="round"/>
    <path d="M 293.52655029296875 172.31906127929688 C 310.23388671875 188.90110778808594 328.158935546875 236.95074462890625 292.9110412597656 159.2657928466797 C 299.9820251464844 216.35581970214844 300.18804931640625 214.04005432128906 300.5001220703125 191.2206268310547 C 255.74932861328125 245.22140502929688 269.576171875 276.7848205566406 328.943359375 283.2673645019531 C 369.7868347167969 240.09683227539062 358.0622863769531 235.3942413330078 338.09619140625 231.40069580078125" stroke-width="6.0" fill="none" stroke="rgb(0, 0, 0)" stroke-opacity="0.0" stroke-linecap="round" stroke-linejoin="round"/>
    <path d="M 99.49430847167969 128.52267456054688 C 91.71701049804688 117.98844909667969 107.7000732421875 158.21600341796875 112.15056610107422 174.36965942382812 C 133.4303436279297 187.1475067138672 131.01385498046875 139.77923583984375 155.04544067382812 128.1169891357422 C 159.02821350097656 126.71186828613281 169.82894897460938 147.71580505371094 173.1172332763672 162.0895538330078 C 156.49191284179688 159.83091735839844 199.07481384277344 161.3984375 180.343017578125 160.38937377929688" stroke-width="6.0" fill="none" stroke="rgb(0, 0, 0)" stroke-opacity="0.0" stroke-linecap="round" stroke-linejoin="round"/>
    <path d="M 121.9254379272461 513.67138671875 C 251.84396362304688 522.3165893554688 207.75758361816406 549.0108032226562 68.33448791503906 532.3212890625 C 269.0775451660156 562.560791015625 223.04872131347656 549.5617065429688 266.1454772949219 555.1302490234375 C 241.88035583496094 558.2589111328125 282.5566101074219 537.4848022460938 230.47206115722656 491.4138488769531 C 273.6684875488281 443.3230285644531 245.16787719726562 431.8074951171875 113.89965057373047 460.27862548828125" stroke-width="6.0" fill="none" stroke="rgb(0, 0, 0)" stroke-opacity="0.54098505" stroke-linecap="round" stroke-linejoin="round"/>
    <path d="M -8.622993469238281 22.622108459472656 C -9.254898071289062 15.919130325317383 -5.926136493682861 6.649256229400635 -7.766656875610352 86.66703033447266 C -0.46748608350753784 85.81816864013672 25.46318817138672 109.30747985839844 61.36337661743164 81.42012786865234 C 20.889999389648438 52.41481399536133 56.607940673828125 76.50171661376953 47.478816986083984 69.32347869873047 C 58.93051528930664 102.36339569091797 28.398529052734375 31.56263542175293 16.924184799194336 109.83877563476562" stroke-width="6.0" fill="none" stroke="rgb(0, 0, 0)" stroke-opacity="0.003066388" stroke-linecap="round" stroke-linejoin="round"/>
    <path d="M 350.09686279296875 187.44837951660156 C 303.67852783203125 201.0240936279297 389.9576110839844 176.71485900878906 393.28558349609375 195.91815185546875 C 385.1289367675781 181.44302368164062 366.8511657714844 224.30760192871094 361.42816162109375 166.2798309326172 C 318.7116394042969 121.73480987548828 268.558837890625 182.26290893554688 313.85272216796875 204.871826171875 C 349.9947814941406 220.47210693359375 316.3550109863281 241.04515075683594 313.60540771484375 230.3032989501953" stroke-width="6.0" fill="none" stroke="rgb(0, 0, 0)" stroke-opacity="0.0" stroke-linecap="round" stroke-linejoin="round"/>
    <path d="M 579.9871215820312 433.9271545410156 C 583.2493286132812 440.14971923828125 580.2626342773438 433.87969970703125 484.1419372558594 409.60980224609375 C 593.8872680664062 409.6563415527344 619.1060180664062 404.17095947265625 615.131591796875 442.2382507324219 C 493.4623107910156 424.2423095703125 545.5316162109375 417.3202209472656 509.3651428222656 436.16375732421875 C 455.0813293457031 497.8138122558594 594.9769287109375 468.9720458984375 576.5125122070312 458.9444885253906" stroke-width="6.0" fill="none" stroke="rgb(0, 0, 0)" stroke-opacity="0.17314446" stroke-linecap="round" stroke-linejoin="round"/>
    <path d="M 445.25482177734375 -3.975703477859497 C 515.8084716796875 -11.588850021362305 533.8185424804688 5.273636341094971 599.053466796875 -26.23433494567871 C 512.3449096679688 2.587895393371582 516.9291381835938 33.862884521484375 470.8280029296875 31.747432708740234 C 461.4306335449219 -51.415428161621094 472.8493957519531 -62.17500305175781 482.92144775390625 -85.4771728515625 C 508.0692443847656 -67.63348388671875 500.13677978515625 -93.58670043945312 521.4295654296875 -91.86534881591797" stroke-width="6.0" fill="none" stroke="rgb(0, 0, 0)" stroke-opacity="0.0" stroke-linecap="round" stroke-linejoin="round"/>
    <path d="M 45.23166275024414 -14.872480392456055 C 43.717933654785156 -16.361431121826172 22.31846046447754 -22.95330047607422 -4.507032871246338 -14.538086891174316 C 17.293964385986328 -15.289994239807129 7.908041477203369 -29.18758773803711 -12.324077606201172 1.1266449689865112 C -24.07027244567871 24.45256996154785 -41.489723205566406 -0.5079599618911743 -41.13299560546875 -10.414332389831543 C -40.84654235839844 -15.29953670501709 -61.3176155090332 -21.594619750976562 -90.4468765258789 -10.52220630645752" stroke-width="6.0" fill="none" stroke="rgb(0, 0, 0)" stroke-opacity="1.0" stroke-linecap="round" stroke-linejoin="round"/>
    <path d="M 347.42523193359375 486.43011474609375 C 452.7198181152344 485.3621826171875 380.54534912109375 456.37408447265625 357.03118896484375 498.2708740234375 C 354.4379577636719 457.96673583984375 333.1508483886719 481.24530029296875 464.5262756347656 479.01824951171875 C 443.6823425292969 455.9247741699219 323.9919128417969 479.59716796875 379.4037780761719 434.6212158203125 C 429.0361328125 427.98468017578125 482.7678527832031 434.0991516113281 433.8045349121094 451.5756530761719" stroke-width="6.0" fill="none" stroke="rgb(0, 0, 0)" stroke-opacity="0.42504615" stroke-linecap="round" stroke-linejoin="round"/>
    <path d="M 132.46066284179688 86.66017150878906 C 161.5852508544922 173.45652770996094 141.46209716796875 135.8115234375 173.6248779296875 189.09803771972656 C 195.69583129882812 162.80674743652344 164.25289916992188 105.54222869873047 173.86619567871094 124.62338256835938 C 189.16903686523438 131.2706298828125 225.5944061279297 148.0431671142578 234.98939514160156 78.92709350585938 C 172.92247009277344 106.44242858886719 177.6571044921875 93.53271484375 185.82666015625 100.06082153320312" stroke-width="6.0" fill="none" stroke="rgb(0, 0, 0)" stroke-opacity="0.0" stroke-linecap="round" stroke-linejoin="round"/>
    <path d="M 506.8871765136719 191.5452423095703 C 463.4219970703125 175.49826049804688 488.3872375488281 159.7825164794922 562.9490966796875 166.25936889648438 C 570.715576171875 200.52951049804688 553.7150268554688 225.6186981201172 538.2019653320312 207.48028564453125 C 550.6179809570312 207.552734375 551.9552001953125 213.29197692871094 551.3578491210938 214.34536743164062 C 537.4818115234375 177.6688232421875 503.10284423828125 174.9192657470703 506.66778564453125 208.69943237304688" stroke-width="6.0" fill="none" stroke="rgb(0, 0, 0)" stroke-opacity="0.0" stroke-linecap="round" stroke-linejoin="round"/>
    <path d="M 453.388427734375 8.888154029846191 C 541.9765014648438 43.929195404052734 530.8994750976562 127.8643569946289 464.9875793457031 131.95689392089844 C 493.0606994628906 62.47049331665039 549.8748168945312 -11.781058311462402 424.8572692871094 9.475912094116211 C 473.4028015136719 -16.52872657775879 493.5970458984375 9.001697540283203 357.2693176269531 -12.124815940856934 C 461.33758544921875 -18.64940071105957 488.034423828125 25.00339126586914 389.84423828125 43.778465270996094" stroke-width="6.0" fill="none" stroke="rgb(0, 0, 0)" stroke-opacity="0.0" stroke-linecap="round" stroke-linejoin="round"/>
    <path d="M 250.34970092773438 84.06653594970703 C 197.5465850830078 54.37092208862305 209.53469848632812 54.99031066894531 144.3339080810547 112.05562591552734 C 179.6327667236328 42.52037811279297 214.56192016601562 84.68756866455078 268.2077941894531 73.07202911376953 C 209.79653930664062 72.67823028564453 210.18460083007812 68.97388458251953 212.609375 107.60431671142578 C 219.08340454101562 81.05492401123047 202.7122802734375 45.93992614746094 244.73851013183594 78.47384643554688" stroke-width="6.0" fill="none" stroke="rgb(0, 0, 0)" stroke-opacity="0.0" stroke-linecap="round" stroke-linejoin="round"/>
    <path d="M 3.4095299243927 259.5500183105469 C -19.98844337463379 281.1050720214844 -15.84348201751709 270.6225891113281 44.26315689086914 267.8504333496094 C 81.40730285644531 327.88470458984375 58.81019592285156 356.42431640625 78.97852325439453 289.23858642578125 C 126.3200454711914 360.58087158203125 77.83219146728516 258.33843994140625 102.39878845214844 333.9066467285156 C 111.43047332763672 327.3792724609375 98.84984588623047 232.7424774169922 114.69173431396484 262.1658935546875" stroke-width="6.0" fill="none" stroke="rgb(0, 0, 0)" stroke-opacity="0.0" stroke-linecap="round" stroke-linejoin="round"/>
    <path d="M 308.76788330078125 281.9582824707031 C 258.3236389160156 245.67247009277344 340.3463439941406 204.42886352539062 214.3562469482422 233.23623657226562 C 206.9410400390625 278.063720703125 290.641357421875 214.7173309326172 259.6993103027344 246.94235229492188 C 269.98779296875 220.6280975341797 282.9384765625 266.257568359375 268.1383972167969 276.4289855957031 C 251.2936553955078 248.7279052734375 250.55233764648438 260.203857421875 304.7371520996094 357.17279052734375" stroke-width="6.0" fill="none" stroke="rgb(0, 0, 0)" stroke-opacity="0.0" stroke-linecap="round" stroke-linejoin="round"/>
    <path d="M 544.0563354492188 199.74636840820312 C 506.6411437988281 125.23529052734375 497.6354675292969 133.4722137451172 523.58740234375 221.6171875 C 519.4116821289062 181.40982055664062 531.8692626953125 164.93386840820312 511.6615295410156 166.47093200683594 C 507.9542236328125 151.10986328125 522.1502075195312 100.9240951538086 567.3012084960938 134.87918090820312 C 566.9772338867188 138.8520050048828 586.5357666015625 157.05491638183594 612.1654663085938 147.1673583984375" stroke-width="6.0" fill="none" stroke="rgb(0, 0, 0)" stroke-opacity="0.0" stroke-linecap="round" stroke-linejoin="round"/>
    <path d="M 296.3441162109375 472.3653564453125 C 310.4145202636719 443.4688415527344 305.38427734375 454.6181640625 358.6843566894531 467.123779296875 C 313.4110107421875 464.8721923828125 327.329833984375 488.954833984375 322.3499755859375 447.11090087890625 C 286.1448669433594 464.2249450683594 291.35968017578125 463.8574523925781 298.6705017089844 471.6301574707031 C 315.796142578125 462.572998046875 286.22528076171875 472.66357421875 282.7696533203125 466.4936828613281" stroke-width="6.0" fill="none" stroke="rgb(0, 0, 0)" stroke-opacity="1.0" stroke-linecap="round" stroke-linejoin="round"/>
    <path d="M 94.64898681640625 325.71795654296875 C 58.59074401855469 294.6360168457031 146.92816162109375 297.6751708984375 133.85592651367188 343.1585998535156 C 131.1519012451172 400.9702453613281 174.96041870117188 417.600341796875 142.1366424560547 434.52288818359375 C 200.55252075195312 430.2508544921875 146.53524780273438 371.96112060546875 195.58181762695312 356.47821044921875 C 227.73020935058594 302.2036437988281 165.2501983642578 423.04022216796875 170.76565551757812 298.29547119140625" stroke-width="6.0" fill="none" stroke="rgb(0, 0, 0)" stroke-opacity="0.0" stroke-linecap="round" stroke-linejoin="round"/>
    <path d="M 243.9571990966797 380.79241943359375 C 289.6648254394531 388.4793395996094 321.1889343261719 395.1910705566406 184.24415588378906 428.701904296875 C 185.3571319580078 407.9801025390625 267.2599792480469 397.4012756347656 282.3606872558594 386.48077392578125 C 203.66470336914062 372.04766845703125 263.8648376464844 395.416259765625 282.2762451171875 371.4895324707031 C 237.28985595703125 355.7791442871094 203.69810485839844 388.13153076171875 204.5201416015625 352.7716369628906" stroke-width="6.0" fill="none" stroke="rgb(0, 0, 0)" stroke-opacity="0.0" stroke-linecap="round" stroke-linejoin="round"/>
    <path d="M 75.30734252929688 180.32424926757812 C 95.58758544921875 157.45169067382812 102.66901397705078 177.72254943847656 121.01603698730469 158.932373046875 C 117.38897705078125 229.86424255371094 79.26533508300781 287.5458679199219 95.31961059570312 199.90452575683594 C 84.4193115234375 215.21218872070312 59.91717529296875 190.14236450195312 106.63220977783203 181.47044372558594 C 99.92536163330078 177.1577606201172 106.95561981201172 182.760986328125 77.17465209960938 181.817138671875" stroke-width="6.0" fill="none" stroke="rgb(0, 0, 0)" stroke-opacity="3.1652686e-05" stroke-linecap="round" stroke-linejoin="round"/>
    <path d="M 383.6296691894531 -15.996094703674316 C 375.2146301269531 11.984784126281738 403.3813171386719 36.24237060546875 354.33685302734375 14.014618873596191 C 412.798828125 36.50172805786133 438.2237243652344 -20.27914810180664 437.58154296875 -36.229942321777344 C 430.1833190917969 39.57302474975586 409.5621337890625 26.602006912231445 370.884033203125 76.61551666259766 C 395.71124267578125 71.4141616821289 372.2505187988281 77.78477478027344 356.6789855957031 74.74674987792969" stroke-width="6.0" fill="none" stroke="rgb(0, 0, 0)" stroke-opacity="0.0" stroke-linecap="round" stroke-linejoin="round"/>
    <path d="M 333.76043701171875 458.42132568359375 C 342.6963806152344 431.91900634765625 372.3466491699219 440.62237548828125 382.4211730957031 444.9429626464844 C 382.8799133300781 440.9192810058594 366.2745361328125 467.3485107421875 394.9075012207031 490.87042236328125 C 392.9926452636719 504.1966552734375 378.82159423828125 507.3716735839844 341.9117736816406 488.840576171875 C 363.60333251953125 455.3269958496094 368.7417907714844 456.46673583984375 478.5121154785156 457.40496826171875" stroke-width="6.0" fill="none" stroke="rgb(0, 0, 0)" stroke-opacity="0.3095017" stroke-linecap="round" stroke-linejoin="round"/>
    <path d="M 295.5797424316406 187.04049682617188 C 253.1082305908203 170.41368103027344 297.27685546875 171.68101501464844 324.94677734375 155.6847381591797 C 313.2201232910156 187.20806884765625 358.0370788574219 161.19287109375 324.7620544433594 119.13700866699219 C 282.68389892578125 137.7150115966797 300.58612060546875 130.11463928222656 335.2057189941406 100.41234588623047 C 308.693603515625 132.22946166992188 239.08558654785156 125.94764709472656 290.51715087890625 100.44216918945312" stroke-width="6.0" fill="none" stroke="rgb(0, 0, 0)" stroke-opacity="0.0" stroke-linecap="round" stroke-linejoin="round"/>
    <path d="M 59.65949249267578 511.9429016113281 C 48.654335021972656 547.2692260742188 2.439669609069824 539.5650024414062 -45.83347702026367 539.6726684570312 C -19.36565399169922 585.001220703125 0.059979505836963654 617.9911499023438 6.562782287597656 618.4502563476562 C 28.939592361450195 574.8743286132812 71.69579315185547 553.7118530273438 42.77659606933594 573.5814819335938 C 15.883841514587402 574.8743896484375 29.672548294067383 559.6656494140625 188.0999298095703 562.96923828125" stroke-width="6.0" fill="none" stroke="rgb(0, 0, 0)" stroke-opacity="0.0" stroke-linecap="round" stroke-linejoin="round"/>
    <path d="M 605.8187255859375 451.68072509765625 C 562.046142578125 443.0774230957031 570.945068359375 426.3709716796875 558.1953735351562 462.89422607421875 C 605.8196411132812 461.0513000488281 667.8129272460938 465.9148254394531 661.2150268554688 484.3573913574219 C 606.5594482421875 486.8006896972656 613.9736938476562 520.5782470703125 619.1424560546875 475.2453918457031 C 573.136962890625 471.4010314941406 679.9031372070312 496.08099365234375 504.67230224609375 491.4020690917969" stroke-width="6.0" fill="none" stroke="rgb(0, 0, 0)" stroke-opacity="0.0" stroke-linecap="round" stroke-linejoin="round"/>
    <path d="M 128.27195739746094 481.8283386230469 C 146.1427459716797 467.1417541503906 219.74203491210938 478.8217468261719 154.0084686279297 484.5150451660156 C 142.10665893554688 495.8874816894531 152.16871643066406 525.8950805664062 150.7085723876953 481.9645080566406 C 162.59120178222656 475.815185546875 96.17278289794922 484.042236328125 159.6710205078125 451.1630859375 C 84.72164154052734 464.78240966796875 186.37850952148438 503.6016540527344 67.22027587890625 491.00439453125" stroke-width="6.0" fill="none" stroke="rgb(0, 0, 0)" stroke-opacity="0.986753" stroke-linecap="round" stroke-linejoin="round"/>
    <path d="M 606.0159912109375 154.47824096679688 C 609.8379516601562 64.65086364746094 620.322998046875 74.27275848388672 625.3895874023438 112.92698669433594 C 619.9496459960938 132.0972442626953 637.3809204101562 157.74879455566406 652.1378784179688 168.0288848876953 C 654.7020874023438 163.21075439453125 651.6947021484375 149.59811401367188 664.533447265625 122.20039367675781 C 680.1986694335938 132.5252227783203 670.0402221679688 132.49290466308594 661.0576782226562 106.57611846923828" stroke-width="6.0" fill="none" stroke="rgb(0, 0, 0)" stroke-opacity="0.98908126" stroke-linecap="round" stroke-linejoin="round"/>
    <path d="M 224.90264892578125 274.6439208984375 C 231.5127410888672 225.77879333496094 303.2734375 300.9965515136719 277.16180419921875 215.8046417236328 C 278.818115234375 195.97291564941406 223.9246063232422 204.74212646484375 132.34259033203125 249.0585479736328 C 168.01502990722656 182.205322265625 188.52313232421875 258.0861511230469 224.47772216796875 274.4488220214844 C 268.7908935546875 278.2496032714844 282.4959716796875 278.5279235839844 276.8728332519531 263.24169921875" stroke-width="6.0" fill="none" stroke="rgb(0, 0, 0)" stroke-opacity="0.0" stroke-linecap="round" stroke-linejoin="round"/>
    <path d="M 194.08103942871094 255.7091064453125 C 219.4597625732422 256.55438232421875 204.3646697998047 265.47650146484375 158.63262939453125 250.40086364746094 C 194.6885223388672 288.9857177734375 175.1874237060547 304.51220703125 224.55491638183594 346.69317626953125 C 178.70867919921875 289.2868347167969 156.23634338378906 253.26150512695312 182.5242462158203 247.73452758789062 C 209.0024871826172 295.3052978515625 187.481689453125 320.4410400390625 177.6856231689453 330.4553527832031" stroke-width="6.0" fill="none" stroke="rgb(0, 0, 0)" stroke-opacity="0.0" stroke-linecap="round" stroke-linejoin="round"/>
    <path d="M 222.49005126953125 500.8389587402344 C 192.37066650390625 487.2231750488281 326.6912841796875 527.2279052734375 267.6584777832031 476.1663818359375 C 241.05238342285156 535.2484130859375 326.6982421875 495.9605407714844 296.2868347167969 511.23236083984375 C 341.66070556640625 477.2597351074219 315.1927490234375 424.9676513671875 360.22320556640625 491.159423828125 C 313.34844970703125 427.79608154296875 371.790771484375 454.0306701660156 335.9036865234375 463.4307861328125" stroke-width="6.0" fill="none" stroke="rgb(0, 0, 0)" stroke-opacity="0.23582546" stroke-linecap="round" stroke-linejoin="round"/>
    <path d="M -9.49272632598877 162.49896240234375 C -2.8983218669891357 164.6527862548828 -16.794567108154297 167.9711456298828 -15.84366512298584 140.53854370117188 C -23.566997528076172 132.72642517089844 -20.786542892456055 156.859375 -18.01494026184082 183.7976837158203 C 8.808074951171875 154.13050842285156 -21.132177352905273 149.06918334960938 -13.305438995361328 114.55951690673828 C 0.3370877802371979 101.47191619873047 -14.667208671569824 129.1614532470703 -14.090731620788574 112.59947204589844" stroke-width="6.0" fill="none" stroke="rgb(0, 0, 0)" stroke-opacity="1.0" stroke-linecap="round" stroke-linejoin="round"/>
    <path d="M 422.7806701660156 440.3683776855469 C 361.4256591796875 460.17657470703125 332.0552062988281 473.6595458984375 274.3777160644531 469.6993408203125 C 312.1955261230469 455.05535888671875 313.7381896972656 443.32122802734375 409.90692138671875 450.64227294921875 C 398.15850830078125 414.9900817871094 352.0507507324219 445.5873107910156 303.4371337890625 459.5544128417969 C 339.7375183105469 480.42852783203125 376.700927734375 467.6880798339844 403.4681701660156 458.2066955566406" stroke-width="6.0" fill="none" stroke="rgb(0, 0, 0)" stroke-opacity="1.0" stroke-linecap="round" stroke-linejoin="round"/>
    <path d="M 432.2013854980469 96.87460327148438 C 458.390869140625 106.67028045654297 514.8690795898438 84.34944915771484 475.8022766113281 107.07412719726562 C 400.0779724121094 110.93180847167969 436.10284423828125 107.46603393554688 560.1141357421875 64.11808776855469 C 464.7821960449219 79.93930053710938 470.29718017578125 79.25379943847656 454.4527282714844 121.95787048339844 C 521.8966674804688 149.02374267578125 496.51055908203125 113.25484466552734 636.229736328125 77.37134552001953" stroke-width="6.0" fill="none" stroke="rgb(0, 0, 0)" stroke-opacity="0.0" stroke-linecap="round" stroke-linejoin="round"/>
    <path d="M 117.82072448730469 139.8916015625 C 134.1798553466797 54.12552261352539 163.07110595703125 104.88777160644531 165.81906127929688 71.85906982421875 C 186.13058471679688 95.18849182128906 162.77479553222656 86.57160186767578 176.5390625 87.6402359008789 C 171.1027069091797 75.43631744384766 186.74224853515625 58.2354850769043 167.727294921875 70.36640930175781 C 166.4967803955078 52.72586441040039 160.12464904785156 29.31437110900879 166.26419067382812 70.67664337158203" stroke-width="6.0" fill="none" stroke="rgb(0, 0, 0)" stroke-opacity="0.0" stroke-linecap="round" stroke-linejoin="round"/>
    <path d="M 191.636474609375 89.22001647949219 C 248.43014526367188 71.77950286865234 252.13551330566406 85.37635803222656 234.03799438476562 59.22117233276367 C 232.00137329101562 93.52140808105469 204.36215209960938 74.5062026977539 213.33273315429688 164.2191162109375 C 202.37062072753906 65.2059097290039 250.6830596923828 106.78251647949219 184.01023864746094 83.66803741455078 C 179.32571411132812 24.53533172607422 213.34353637695312 8.990668296813965 208.02410888671875 18.7302303314209" stroke-width="6.0" fill="none" stroke="rgb(0, 0, 0)" stroke-opacity="0.0020073806" stroke-linecap="round" stroke-linejoin="round"/>
    <path d="M 219.95480346679688 486.8822937011719 C 89.12027740478516 459.2031555175781 203.03009033203125 440.1669006347656 159.33245849609375 463.419677734375 C 191.42227172851562 392.73876953125 228.9321746826172 378.41461181640625 248.2498779296875 452.3501892089844 C 257.86346435546875 490.12408447265625 221.9107208251953 496.6361999511719 231.44326782226562 456.9344787597656 C 290.9611511230469 462.20721435546875 287.47772216796875 499.3456115722656 315.7768249511719 489.96026611328125" stroke-width="6.0" fill="none" stroke="rgb(0, 0, 0)" stroke-opacity="0.0" stroke-linecap="round" stroke-linejoin="round"/>
    <path d="M 469.0108947753906 487.9771423339844 C 377.90570068359375 513.878173828125 399.6451416015625 484.9840087890625 370.23382568359375 456.5389404296875 C 458.65771484375 452.86492919921875 417.35382080078125 471.4923095703125 443.1708984375 509.8751220703125 C 299.7081604003906 511.17547607421875 378.8398132324219 538.0220947265625 376.32080078125 565.5702514648438 C 395.212646484375 533.7515258789062 309.02496337890625 513.0676879882812 270.49285888671875 501.23236083984375" stroke-width="6.0" fill="none" stroke="rgb(0, 0, 0)" stroke-opacity="0.01464688" stroke-linecap="round" stroke-linejoin="round"/>
  </g>
</svg>
