<?xml version="1.0" ?>
<svg xmlns="http://www.w3.org/2000/svg" version="1.1" width="600" height="600">
  <defs/>
  <g>
    <path d="M 297.240478515625 340.6047668457031 C 301.10028076171875 565.75732421875 380.36407470703125 617.642333984375 125.6744384765625 594.2750854492188 C 59.394317626953125 627.3158569335938 -0.4570842981338501 562.89306640625 -37.68906021118164 439.4151306152344 C -61.494415283203125 186.3052215576172 75.5880126953125 256.6517333984375 232.39630126953125 289.79058837890625 C 289.0221862792969 362.2959899902344 345.38238525390625 297.3038024902344 297.240478515625 340.6047668457031" stroke-width="0.0" fill="rgb(199, 42, 60)" opacity="0.70858324"/>
    <path d="M 639.8209838867188 284.1760559082031 C 600.56982421875 576.6968383789062 554.1295166015625 531.8271484375 328.18487548828125 610.6375122070312 C 151.4441375732422 599.6956787109375 163.72222900390625 577.1005249023438 138.23707580566406 420.3851013183594 C 266.75823974609375 304.136474609375 276.0953369140625 300.28594970703125 345.54803466796875 227.74180603027344 C 496.94171142578125 180.2952880859375 527.1676635742188 150.4638671875 639.8209838867188 284.1760559082031" stroke-width="0.0" fill="rgb(255, 255, 255)" opacity="0.4596583"/>
    <path d="M 353.00531005859375 222.27903747558594 C 113.81183624267578 208.1871337890625 243.87916564941406 276.0318603515625 143.61929321289062 505.4973449707031 C -17.46543312072754 481.1173095703125 21.211257934570312 471.97589111328125 25.621761322021484 214.9467010498047 C 80.87166595458984 152.66537475585938 112.3729476928711 147.03076171875 242.3431854248047 129.14163208007812 C 339.7723388671875 101.21479797363281 351.9341735839844 85.2277603149414 353.00531005859375 222.27903747558594" stroke-width="0.0" fill="rgb(72, 193, 171)" opacity="0.6939922"/>
    <path d="M 315.7091064453125 57.65261459350586 C 352.6142883300781 54.047603607177734 356.83880615234375 92.37969970703125 276.92095947265625 146.12442016601562 C 238.87892150878906 122.16635131835938 229.82701110839844 84.42724609375 237.67572021484375 22.962411880493164 C 259.5311279296875 -18.957866668701172 259.85528564453125 -17.076465606689453 285.8714904785156 -37.875762939453125 C 334.1230163574219 -28.367456436157227 318.9342956542969 5.099275588989258 315.7091064453125 57.65261459350586" stroke-width="0.0" fill="rgb(101, 202, 163)" opacity="0.611885"/>
    <path d="M 20.667348861694336 0.9401909112930298 C 17.987855911254883 10.940191268920898 10.66734790802002 18.260698318481445 0.6673480868339539 20.9401912689209 C -9.33265209197998 18.260698318481445 -16.65315818786621 10.940191268920898 -19.332651138305664 0.9401909112930298 C -16.65315818786621 -9.059808731079102 -9.33265209197998 -16.38031578063965 0.6673480868339539 -19.0598087310791 C 10.66734790802002 -16.38031578063965 17.987855911254883 -9.059808731079102 20.667348861694336 0.9401909112930298" stroke-width="0.0" fill="rgb(56, 20, 223)" opacity="1.0"/>
    <path d="M 223.4815216064453 125.32860565185547 C 259.7488708496094 202.07916259765625 194.27342224121094 159.65203857421875 30.654741287231445 220.5840606689453 C -21.9409122467041 213.25355529785156 -0.783565878868103 270.32586669921875 -24.479021072387695 132.22434997558594 C -39.099822998046875 15.425532341003418 -0.8975198864936829 -6.426732063293457 103.85912322998047 -43.05553436279297 C 164.25157165527344 -15.244404792785645 154.98927307128906 13.893868446350098 223.4815216064453 125.32860565185547" stroke-width="0.0" fill="rgb(87, 187, 235)" opacity="0.7875586"/>
    <path d="M 595.8659057617188 -4.7119574546813965 C 507.93975830078125 26.47735023498535 513.7061767578125 53.73088455200195 448.476806640625 96.76129150390625 C 427.29644775390625 68.3189697265625 419.83673095703125 75.7432861328125 418.2322082519531 -19.883827209472656 C 424.5810546875 -34.44564437866211 470.94158935546875 -10.528851509094238 506.4725341796875 -19.076601028442383 C 521.50927734375 -27.45023536682129 561.61767578125 -51.732975006103516 595.8659057617188 -4.7119574546813965" stroke-width="0.0" fill="rgb(54, 167, 194)" opacity="0.6701972"/>
    <path d="M 471.9454040527344 472.18145751953125 C 450.6729431152344 638.8411254882812 484.8393859863281 609.9563598632812 322.21429443359375 595.4907836914062 C 198.29061889648438 597.6292724609375 167.03689575195312 630.8125610351562 158.6090087890625 541.7932739257812 C 270.5943298339844 417.05194091796875 297.0874938964844 447.953369140625 457.385498046875 446.1766662597656 C 562.82763671875 425.4156188964844 565.615234375 435.5484619140625 471.9454040527344 472.18145751953125" stroke-width="0.0" fill="rgb(16, 159, 184)" opacity="0.9298549"/>
    <path d="M 647.4678344726562 521.1176147460938 C 631.6531372070312 615.0421142578125 556.3535766601562 635.0095825195312 573.7526245117188 644.6524047851562 C 433.79241943359375 619.1432495117188 434.9962158203125 625.2691040039062 458.99981689453125 551.660400390625 C 445.5904541015625 375.0165710449219 307.2227478027344 251.59927368164062 573.6978759765625 232.74464416503906 C 626.17041015625 291.6539306640625 626.4742431640625 335.50469970703125 647.4678344726562 521.1176147460938" stroke-width="0.0" fill="rgb(22, 145, 184)" opacity="0.9921561"/>
    <path d="M 356.87933349609375 18.50496482849121 C 352.6406555175781 102.03264617919922 311.09295654296875 66.24498748779297 197.94451904296875 95.6265640258789 C 183.0751495361328 79.04959106445312 169.93417358398438 82.3505630493164 152.4912567138672 -4.5996575355529785 C 177.82861328125 -37.81209182739258 215.7210693359375 -17.678932189941406 265.1202087402344 -57.78224182128906 C 296.03350830078125 -46.96627426147461 320.07427978515625 -55.194541931152344 356.87933349609375 18.50496482849121" stroke-width="0.0" fill="rgb(114, 206, 217)" opacity="0.95741135"/>
    <path d="M 467.1520690917969 7.583392143249512 C 461.00946044921875 127.56542205810547 446.3916015625 115.11392211914062 324.2017517089844 124.29338836669922 C 285.5227355957031 119.53556060791016 295.8454895019531 86.82331848144531 293.36981201171875 -4.663478374481201 C 288.12969970703125 -15.956681251525879 309.0533142089844 -15.195686340332031 351.9174499511719 -14.75660514831543 C 412.88427734375 -32.51880645751953 438.4225158691406 -40.572166442871094 467.1520690917969 7.583392143249512" stroke-width="0.0" fill="rgb(120, 200, 227)" opacity="0.98770463"/>
    <path d="M 256.7925109863281 10.986847877502441 C 278.9607849121094 144.21371459960938 294.71368408203125 174.64254760742188 176.75672912597656 167.1416015625 C 130.46913146972656 114.10966491699219 158.86561584472656 54.54044723510742 133.04415893554688 -45.27709197998047 C 78.74125671386719 -32.887569427490234 110.67229461669922 -15.71268081665039 209.71041870117188 -47.79428482055664 C 253.29281616210938 -42.21906280517578 254.17222595214844 -33.200626373291016 256.7925109863281 10.986847877502441" stroke-width="0.0" fill="rgb(121, 198, 240)" opacity="0.84487104"/>
    <path d="M 20.088083267211914 0.3533188998699188 C 17.40859031677246 10.35331916809082 10.088082313537598 17.673826217651367 0.0880826860666275 20.35331916809082 C -9.911917686462402 17.673826217651367 -17.232423782348633 10.35331916809082 -19.911916732788086 0.3533188998699188 C -17.232423782348633 -9.64668083190918 -9.911917686462402 -16.967187881469727 0.0880826860666275 -19.64668083190918 C 10.088082313537598 -16.967187881469727 17.40859031677246 -9.64668083190918 20.088083267211914 0.3533188998699188" stroke-width="0.0" fill="rgb(139, 232, 234)" opacity="1.0"/>
    <path d="M 639.932861328125 34.43064498901367 C 613.853515625 182.6026611328125 619.2509155273438 221.7505340576172 608.4271850585938 266.7997131347656 C 402.58642578125 211.14353942871094 415.1160583496094 142.4083251953125 424.04876708984375 69.35234069824219 C 471.1841735839844 9.383191108703613 459.1727294921875 12.037334442138672 519.6829223632812 14.740979194641113 C 565.2650756835938 -25.19414520263672 624.8461303710938 -21.977048873901367 639.932861328125 34.43064498901367" stroke-width="0.0" fill="rgb(73, 153, 224)" opacity="0.66741645"/>
    <path d="M 20.72211265563965 0.408340722322464 C 18.042619705200195 10.408340454101562 10.722112655639648 17.72884750366211 0.7221127152442932 20.408340454101562 C -9.277887344360352 17.72884750366211 -16.5983943939209 10.408340454101562 -19.27788734436035 0.408340722322464 C -16.5983943939209 -9.591659545898438 -9.277887344360352 -16.912166595458984 0.7221127152442932 -19.591659545898438 C 10.722112655639648 -16.912166595458984 18.042619705200195 -9.591659545898438 20.72211265563965 0.408340722322464" stroke-width="0.0" fill="rgb(38, 45, 173)" opacity="1.0"/>
    <path d="M 505.7421875 241.71954345703125 C 564.7994384765625 276.9414367675781 577.7877807617188 296.7608947753906 398.2659912109375 280.0996398925781 C 358.40423583984375 203.76364135742188 336.4405822753906 190.3380584716797 337.1396179199219 120.59121704101562 C 322.6878662109375 38.06371307373047 353.4232177734375 58.39999008178711 366.9805603027344 62.01007080078125 C 408.8348083496094 76.70697021484375 429.210693359375 70.85443115234375 505.7421875 241.71954345703125" stroke-width="0.0" fill="rgb(74, 215, 132)" opacity="0.8508133"/>
    <path d="M 255.56809997558594 375.8074951171875 C 314.0533752441406 421.50238037109375 293.4348449707031 394.9925537109375 179.17645263671875 416.0320739746094 C 186.69834899902344 396.1420593261719 174.341796875 351.9240417480469 159.2808380126953 335.8157958984375 C 145.7141876220703 313.1789245605469 159.63180541992188 314.7899475097656 196.70399475097656 306.99664306640625 C 235.20272827148438 363.4058532714844 164.40792846679688 330.9854431152344 255.56809997558594 375.8074951171875" stroke-width="0.0" fill="rgb(151, 8, 97)" opacity="0.7794798"/>
    <path d="M 389.187744140625 395.6754150390625 C 606.0597534179688 382.6642150878906 526.5555419921875 423.734375 315.46484375 460.40594482421875 C 85.63251495361328 448.78826904296875 172.33639526367188 453.2160339355469 145.54759216308594 375.6241455078125 C 180.24415588378906 352.8080139160156 212.50784301757812 385.5701599121094 312.5489196777344 373.26580810546875 C 423.9194030761719 338.5947265625 250.39932250976562 417.8116760253906 389.187744140625 395.6754150390625" stroke-width="0.0" fill="rgb(255, 132, 8)" opacity="0.8527907"/>
    <path d="M 499.2921142578125 366.0146789550781 C 337.317138671875 422.4173278808594 366.7077941894531 316.8205261230469 351.379638671875 379.8509521484375 C 311.3309631347656 393.25726318359375 257.4742431640625 398.6558532714844 304.0338134765625 426.0035095214844 C 329.7580871582031 368.0367431640625 374.8778076171875 400.819091796875 419.16571044921875 361.48553466796875 C 420.1312561035156 377.5514831542969 310.17547607421875 331.34954833984375 499.2921142578125 366.0146789550781" stroke-width="0.0" fill="rgb(255, 156, 0)" opacity="1.0"/>
    <path d="M 222.2988739013672 314.4873352050781 C 182.60781860351562 320.69873046875 198.35646057128906 363.0498046875 211.02978515625 387.3930358886719 C 101.26986694335938 380.02313232421875 96.6227035522461 379.2538146972656 113.0632553100586 339.335205078125 C 106.1395492553711 361.62255859375 98.38594055175781 350.423828125 29.132732391357422 291.729248046875 C 206.382568359375 275.11224365234375 189.57037353515625 261.8524475097656 222.2988739013672 314.4873352050781" stroke-width="0.0" fill="rgb(0, 232, 143)" opacity="0.72250724"/>
    <path d="M 89.90689086914062 324.1749572753906 C 79.99771881103516 365.9435729980469 96.69300842285156 404.0828857421875 34.77119827270508 445.73101806640625 C 5.5394392013549805 393.6468811035156 5.397773742675781 349.1043701171875 12.60889720916748 331.08612060546875 C -42.7281379699707 315.9020080566406 -72.83568572998047 303.64080810546875 10.35722827911377 301.33734130859375 C 68.78585815429688 310.39642333984375 88.63279724121094 308.4376525878906 89.90689086914062 324.1749572753906" stroke-width="0.0" fill="rgb(43, 173, 250)" opacity="0.80972874"/>
    <path d="M 210.23922729492188 380.66943359375 C 211.2788848876953 411.9221496582031 210.3953399658203 398.9319152832031 181.68634033203125 389.9075012207031 C 131.66143798828125 395.9555969238281 150.72984313964844 375.7496643066406 142.76834106445312 322.9831237792969 C 138.70193481445312 328.3355407714844 124.5824203491211 318.4604797363281 144.8753662109375 312.9759826660156 C 207.667236328125 295.9341125488281 190.46356201171875 317.9170837402344 210.23922729492188 380.66943359375" stroke-width="0.0" fill="rgb(41, 152, 229)" opacity="0.7287256"/>
    <path d="M 167.5816192626953 417.5439758300781 C 268.78179931640625 375.23040771484375 281.76690673828125 393.2288513183594 82.61372375488281 411.4120788574219 C 112.18062591552734 366.89752197265625 165.98211669921875 400.7764587402344 177.556640625 385.0008850097656 C 129.1432647705078 330.0104064941406 120.81214141845703 345.8404846191406 154.42543029785156 334.7145690917969 C 157.91183471679688 319.02947998046875 159.651123046875 339.9627380371094 167.5816192626953 417.5439758300781" stroke-width="0.0" fill="rgb(147, 124, 139)" opacity="0.74806863"/>
    <path d="M 214.97076416015625 397.0312805175781 C 114.83819580078125 411.9853515625 168.2617645263672 386.3427734375 94.90287780761719 374.41912841796875 C 252.2865753173828 636.9362182617188 56.8797607421875 685.3375854492188 -36.18000030517578 569.4918823242188 C -97.34417724609375 288.9425354003906 -6.982649326324463 276.26788330078125 58.07318878173828 308.0057067871094 C 175.28872680664062 299.9772033691406 177.23992919921875 299.8634338378906 214.97076416015625 397.0312805175781" stroke-width="0.0" fill="rgb(14, 187, 214)" opacity="0.9757961"/>
    <path d="M 138.37217712402344 283.0390930175781 C 185.92025756835938 334.91363525390625 190.13890075683594 351.06085205078125 102.99990844726562 338.4759826660156 C 43.87559509277344 342.04071044921875 27.376054763793945 354.1904602050781 20.121105194091797 279.90576171875 C 53.59632873535156 272.7330322265625 88.98649597167969 282.5166015625 147.2596435546875 283.3605651855469 C 114.89766693115234 316.792236328125 117.26828002929688 281.8667297363281 138.37217712402344 283.0390930175781" stroke-width="0.0" fill="rgb(7, 183, 187)" opacity="0.25423875"/>
    <path d="M 229.8171844482422 228.4794464111328 C 207.42095947265625 237.46543884277344 191.83432006835938 261.55499267578125 205.07752990722656 278.6022033691406 C 207.23049926757812 247.3223876953125 174.88735961914062 267.1911926269531 176.61524963378906 231.09799194335938 C 180.39315795898438 215.39425659179688 195.06271362304688 206.66575622558594 195.87710571289062 205.001953125 C 231.00921630859375 204.66116333007812 230.2711639404297 216.6927947998047 229.8171844482422 228.4794464111328" stroke-width="0.0" fill="rgb(0, 0, 14)" opacity="1.0"/>
    <path d="M 584.0830078125 -0.22809307277202606 C 490.98956298828125 84.28211212158203 466.6673583984375 235.91757202148438 436.772216796875 203.40200805664062 C 371.3787841796875 72.51651763916016 354.59088134765625 163.22242736816406 261.3609313964844 117.0700912475586 C 247.2427215576172 16.302167892456055 239.72254943847656 40.77666473388672 356.5997009277344 30.764806747436523 C 505.7850646972656 -2.9767205715179443 599.876220703125 -46.78535842895508 584.0830078125 -0.22809307277202606" stroke-width="0.0" fill="rgb(128, 196, 239)" opacity="1.0"/>
    <path d="M 20.298906326293945 0.7355937361717224 C 17.619413375854492 10.735593795776367 10.298906326293945 18.056100845336914 0.2989058494567871 20.735593795776367 C -9.701093673706055 18.056100845336914 -17.0216007232666 10.735593795776367 -19.701093673706055 0.7355937361717224 C -17.0216007232666 -9.264406204223633 -9.701093673706055 -16.58491325378418 0.2989058494567871 -19.264406204223633 C 10.298906326293945 -16.58491325378418 17.619413375854492 -9.264406204223633 20.298906326293945 0.7355937361717224" stroke-width="0.0" fill="rgb(147, 5, 178)" opacity="1.0"/>
    <path d="M 186.4164581298828 335.1177673339844 C 208.47515869140625 365.42864990234375 212.20648193359375 365.2275390625 246.46975708007812 390.5008544921875 C 207.7037353515625 394.54132080078125 154.88194274902344 398.83026123046875 114.24657440185547 392.0793762207031 C 96.55828094482422 314.3820495605469 115.35655975341797 312.0208435058594 128.33544921875 304.6770935058594 C 180.4918670654297 294.0548095703125 193.55221557617188 308.8650207519531 186.4164581298828 335.1177673339844" stroke-width="0.0" fill="rgb(0, 178, 222)" opacity="0.569131"/>
    <path d="M 366.8101501464844 245.1480712890625 C 355.1815490722656 258.5631103515625 352.6487121582031 227.61488342285156 388.1072998046875 274.7894592285156 C 354.3629150390625 249.6956329345703 342.8174133300781 226.90524291992188 323.65093994140625 223.23117065429688 C 317.3301086425781 216.51898193359375 331.42864990234375 199.62562561035156 332.24072265625 198.0977020263672 C 362.86895751953125 193.3301239013672 387.76861572265625 222.15338134765625 366.8101501464844 245.1480712890625" stroke-width="0.0" fill="rgb(0, 0, 8)" opacity="1.0"/>
    <path d="M 20.392263412475586 0.935149610042572 C 17.712770462036133 10.935149192810059 10.392263412475586 18.255657196044922 0.39226293563842773 20.935150146484375 C -9.607736587524414 18.255657196044922 -16.92824363708496 10.935149192810059 -19.607736587524414 0.935149610042572 C -16.92824363708496 -9.064850807189941 -9.607736587524414 -16.385356903076172 0.39226293563842773 -19.064849853515625 C 10.392263412475586 -16.385356903076172 17.712770462036133 -9.064850807189941 20.392263412475586 0.935149610042572" stroke-width="0.0" fill="rgb(242, 181, 170)" opacity="1.0"/>
    <path d="M 215.85589599609375 271.2308349609375 C 243.44464111328125 349.2438659667969 225.49755859375 314.13916015625 141.0719451904297 327.52069091796875 C 138.3072967529297 334.02508544921875 141.66485595703125 312.6265563964844 145.36367797851562 263.74530029296875 C 150.59378051757812 268.08770751953125 165.02890014648438 266.22998046875 157.6930389404297 284.1445007324219 C 180.4694366455078 287.31146240234375 211.10350036621094 288.8921203613281 215.85589599609375 271.2308349609375" stroke-width="0.0" fill="rgb(0, 173, 213)" opacity="0.66714746"/>
    <path d="M 299.2207336425781 393.7840270996094 C 308.1722106933594 403.1914367675781 302.2484130859375 432.46197509765625 261.8887939453125 427.42034912109375 C 249.85797119140625 407.0572814941406 213.19723510742188 446.236572265625 204.8652801513672 384.5011901855469 C 184.34686279296875 295.8486022949219 205.1915740966797 353.3368225097656 259.7308654785156 373.3916015625 C 394.5993957519531 389.59307861328125 322.16119384765625 392.11444091796875 299.2207336425781 393.7840270996094" stroke-width="0.0" fill="rgb(0, 0, 6)" opacity="1.0"/>
    <path d="M 629.5772094726562 109.8429183959961 C 529.3250122070312 187.66065979003906 478.242919921875 157.72271728515625 533.5355224609375 175.7099151611328 C 468.55889892578125 174.3750762939453 459.8854064941406 183.6435546875 471.27276611328125 183.343994140625 C 470.38671875 153.3740234375 487.8673400878906 140.9932861328125 493.190673828125 119.65319061279297 C 553.4113159179688 77.35750579833984 566.2700805664062 88.97828674316406 629.5772094726562 109.8429183959961" stroke-width="0.0" fill="rgb(77, 157, 19)" opacity="0.84347504"/>
    <path d="M 523.22509765625 232.68460083007812 C 486.8096008300781 243.84048461914062 497.310302734375 241.23248291015625 475.3799743652344 240.61663818359375 C 460.6079406738281 205.2840576171875 463.883056640625 218.01268005371094 480.88885498046875 228.31796264648438 C 489.0657043457031 221.83248901367188 480.5428771972656 199.7254180908203 458.5871887207031 221.11865234375 C 487.70068359375 223.75799560546875 516.9698486328125 211.90330505371094 523.22509765625 232.68460083007812" stroke-width="0.0" fill="rgb(49, 166, 86)" opacity="0.45071402"/>
    <path d="M 452.5662841796875 285.7729797363281 C 279.9674987792969 262.03564453125 435.0472412109375 241.39895629882812 349.1868591308594 193.63084411621094 C 285.9317932128906 197.45423889160156 386.9552917480469 242.0691680908203 203.59356689453125 200.53355407714844 C 282.582275390625 164.77102661132812 286.112060546875 149.43624877929688 292.9632568359375 130.1652374267578 C 378.18804931640625 133.94432067871094 399.6661376953125 84.38848114013672 452.5662841796875 285.7729797363281" stroke-width="0.0" fill="rgb(69, 254, 93)" opacity="0.8133783"/>
    <path d="M 495.1432189941406 206.59402465820312 C 486.4242248535156 216.5637969970703 485.5743408203125 249.12078857421875 479.2332763671875 234.42681884765625 C 453.5963439941406 233.00872802734375 432.3624572753906 232.0979461669922 440.1883850097656 209.6141357421875 C 448.39227294921875 191.75933837890625 449.61700439453125 160.56764221191406 495.4309387207031 118.41716003417969 C 519.0918579101562 128.08316040039062 524.9095458984375 144.74607849121094 495.1432189941406 206.59402465820312" stroke-width="0.0" fill="rgb(121, 139, 54)" opacity="0.86654186"/>
    <path d="M 648.189697265625 296.6568908691406 C 556.0137939453125 297.86126708984375 490.8045349121094 307.9933776855469 410.37249755859375 290.3990783691406 C 350.6918029785156 264.61749267578125 383.6535949707031 251.4312744140625 440.3703918457031 287.60308837890625 C 441.2258605957031 208.15899658203125 429.9372253417969 191.33349609375 468.39239501953125 207.3660430908203 C 508.84991455078125 219.8661651611328 527.2456665039062 215.68338012695312 648.189697265625 296.6568908691406" stroke-width="0.0" fill="rgb(82, 177, 12)" opacity="0.88313866"/>
    <path d="M 514.0552368164062 228.17222595214844 C 545.9320068359375 267.2518310546875 510.3421630859375 272.5165100097656 456.7407531738281 262.9573669433594 C 450.8676452636719 210.02252197265625 453.654296875 214.53253173828125 455.1914367675781 183.38693237304688 C 476.6429443359375 159.33047485351562 473.95648193359375 186.2974853515625 493.7577209472656 197.1006317138672 C 508.1510009765625 195.5877685546875 486.2156677246094 184.51522827148438 514.0552368164062 228.17222595214844" stroke-width="0.0" fill="rgb(104, 147, 94)" opacity="0.38798276"/>
    <path d="M 614.3355102539062 206.29458618164062 C 513.587158203125 212.0849151611328 478.11859130859375 205.05804443359375 546.8285522460938 208.10476684570312 C 544.7958984375 188.37481689453125 526.2562255859375 185.3065643310547 466.28753662109375 161.3671112060547 C 471.203369140625 230.9757843017578 489.1500549316406 198.30015563964844 559.9747924804688 140.37486267089844 C 650.3661499023438 119.67460632324219 646.9443359375 108.22526550292969 614.3355102539062 206.29458618164062" stroke-width="0.0" fill="rgb(155, 97, 138)" opacity="0.5858019"/>
    <path d="M 514.5109252929688 182.7269287109375 C 474.28173828125 241.6073455810547 479.8340759277344 271.0513916015625 467.026611328125 294.85137939453125 C 409.7740783691406 276.09796142578125 438.41357421875 293.52557373046875 443.5137939453125 251.40382385253906 C 440.6016845703125 213.60540771484375 439.6421203613281 205.46353149414062 460.45526123046875 170.03884887695312 C 471.5282287597656 146.203857421875 491.8615417480469 171.80479431152344 514.5109252929688 182.7269287109375" stroke-width="0.0" fill="rgb(100, 178, 41)" opacity="0.71755934"/>
    <path d="M 642.8959350585938 366.5520324707031 C 642.3618774414062 386.7259826660156 700.2352905273438 449.9750061035156 606.48291015625 560.9968872070312 C 615.250732421875 389.14874267578125 604.7640991210938 359.00115966796875 611.7550048828125 320.81939697265625 C 604.0851440429688 320.71942138671875 598.724853515625 283.3030700683594 604.3175048828125 116.3447494506836 C 659.7374877929688 279.0576171875 624.2705688476562 324.2921447753906 642.8959350585938 366.5520324707031" stroke-width="0.0" fill="rgb(13, 149, 68)" opacity="0.4962002"/>
    <path d="M 621.8383178710938 91.43948364257812 C 643.0592041015625 318.3252868652344 629.9510498046875 277.469970703125 566.6653442382812 277.6958312988281 C 478.650634765625 261.32904052734375 486.3695983886719 252.611083984375 482.7042541503906 225.9063720703125 C 471.8817443847656 181.15814208984375 459.9926452636719 195.11093139648438 503.00140380859375 194.50723266601562 C 499.7725830078125 155.5702362060547 551.1876831054688 117.76322937011719 621.8383178710938 91.43948364257812" stroke-width="0.0" fill="rgb(75, 170, 30)" opacity="0.93663263"/>
    <path d="M 333.0935363769531 439.50048828125 C 157.89920043945312 517.0880126953125 214.90972900390625 593.0517578125 62.215232849121094 501.74462890625 C 93.25637817382812 474.4977111816406 34.247440338134766 508.1561584472656 38.61521911621094 449.49444580078125 C 109.414306640625 411.9789733886719 149.24620056152344 475.52557373046875 195.83384704589844 446.1072082519531 C 189.4501190185547 471.64666748046875 171.33412170410156 501.0381774902344 333.0935363769531 439.50048828125" stroke-width="0.0" fill="rgb(15, 172, 226)" opacity="0.9187202"/>
    <path d="M 514.0643310546875 466.82562255859375 C 490.82720947265625 481.890380859375 379.6324157714844 483.3402404785156 404.8727722167969 501.16766357421875 C 397.2427673339844 489.8596496582031 366.32781982421875 517.1138916015625 141.55734252929688 484.0950927734375 C 67.86691284179688 385.27423095703125 149.08544921875 430.269287109375 425.5358581542969 434.8161926269531 C 596.8556518554688 331.0888671875 631.5379638671875 278.34814453125 514.0643310546875 466.82562255859375" stroke-width="0.0" fill="rgb(221, 173, 30)" opacity="0.78731346"/>
    <path d="M 20.040874481201172 0.39274683594703674 C 17.36138153076172 10.392746925354004 10.040875434875488 17.713253021240234 0.04087517037987709 20.392745971679688 C -9.959124565124512 17.713253021240234 -17.279632568359375 10.392746925354004 -19.959125518798828 0.39274683594703674 C -17.279632568359375 -9.607253074645996 -9.959124565124512 -16.92776107788086 0.04087517037987709 -19.607254028320312 C 10.040875434875488 -16.92776107788086 17.36138153076172 -9.607253074645996 20.040874481201172 0.39274683594703674" stroke-width="0.0" fill="rgb(218, 229, 237)" opacity="1.0"/>
    <path d="M 524.3544311523438 249.6152801513672 C 522.9283447265625 299.484130859375 546.3025512695312 267.197998046875 526.8019409179688 266.53106689453125 C 461.3051452636719 280.01983642578125 469.1406555175781 269.8637390136719 462.7909851074219 225.45440673828125 C 445.06103515625 155.96319580078125 447.83636474609375 179.6221923828125 499.09893798828125 177.70263671875 C 505.19818115234375 175.03887939453125 515.671875 204.23489379882812 524.3544311523438 249.6152801513672" stroke-width="0.0" fill="rgb(69, 185, 24)" opacity="0.37916073"/>
    <path d="M 337.40283203125 125.76445770263672 C 194.65554809570312 197.25833129882812 242.398193359375 252.94309997558594 91.6874008178711 166.5771026611328 C 103.1700668334961 244.100830078125 167.7908172607422 218.58096313476562 15.528085708618164 216.94546508789062 C 87.14878845214844 149.30422973632812 108.32565307617188 160.0790252685547 129.2967529296875 119.49229431152344 C 140.3837890625 119.61534881591797 180.28793334960938 -10.72732162475586 337.40283203125 125.76445770263672" stroke-width="0.0" fill="rgb(133, 189, 251)" opacity="1.0"/>
    <path d="M 169.62744140625 243.23548889160156 C 144.62147521972656 295.4160461425781 94.7098159790039 269.58099365234375 68.88340759277344 283.6338195800781 C 35.013729095458984 282.77337646484375 22.336591720581055 315.2236022949219 -19.373388290405273 271.5338134765625 C 14.322356224060059 157.35455322265625 -24.82914924621582 196.03768920898438 70.1443862915039 131.2112579345703 C 143.27830505371094 140.142578125 152.14010620117188 199.88385009765625 169.62744140625 243.23548889160156" stroke-width="0.0" fill="rgb(89, 223, 31)" opacity="0.9568273"/>
    <path d="M 531.1735229492188 503.530029296875 C 578.9447631835938 505.1342468261719 503.81866455078125 505.3522033691406 464.7328796386719 516.7122192382812 C 464.1340026855469 547.9293823242188 439.25433349609375 558.7664794921875 276.58636474609375 507.5235900878906 C 474.1870422363281 494.0400085449219 454.5091247558594 475.1219177246094 518.8339233398438 462.96014404296875 C 440.8636779785156 490.8670349121094 447.5686340332031 471.2716369628906 531.1735229492188 503.530029296875" stroke-width="0.0" fill="rgb(14, 140, 217)" opacity="0.584051"/>
    <path d="M 349.5960693359375 274.10400390625 C 376.47100830078125 297.7191467285156 342.4319763183594 321.55731201171875 323.0505065917969 301.2305908203125 C 276.2865295410156 260.5550537109375 305.61517333984375 284.18109130859375 324.23870849609375 269.62286376953125 C 271.09039306640625 278.1473388671875 301.7444152832031 249.1978302001953 309.1619567871094 250.54991149902344 C 321.9208068847656 249.6422119140625 333.39141845703125 258.19366455078125 349.5960693359375 274.10400390625" stroke-width="0.0" fill="rgb(2, 0, 5)" opacity="1.0"/>
    <path d="M 119.77151489257812 260.0765380859375 C 99.31756591796875 256.1971130371094 107.53987121582031 246.6717987060547 106.46453857421875 298.3376770019531 C 46.38125991821289 312.22802734375 -4.263857364654541 299.86126708984375 -13.431741714477539 290.486328125 C -14.233457565307617 197.68017578125 -9.318742752075195 217.71923828125 71.62914276123047 209.18821716308594 C 105.3820571899414 205.29196166992188 105.93797302246094 247.42152404785156 119.77151489257812 260.0765380859375" stroke-width="0.0" fill="rgb(87, 230, 47)" opacity="0.3192512"/>
    <path d="M 312.3597717285156 324.8948059082031 C 265.0904541015625 296.2026062011719 270.8656311035156 312.6243896484375 188.39720153808594 321.4607849121094 C 209.40902709960938 272.7263488769531 228.3220977783203 288.03436279296875 224.04452514648438 300.34307861328125 C 233.1565399169922 280.35296630859375 246.32595825195312 270.9894104003906 259.57122802734375 256.4851379394531 C 265.771240234375 228.94046020507812 313.4043884277344 264.0911865234375 312.3597717285156 324.8948059082031" stroke-width="0.0" fill="rgb(255, 255, 255)" opacity="0.32762018"/>
    <path d="M 294.3873291015625 315.5210876464844 C 288.9739074707031 358.5161437988281 231.5872802734375 290.88189697265625 314.8843994140625 366.6297302246094 C 204.37860107421875 381.95947265625 133.94082641601562 328.22393798828125 227.880859375 227.9599609375 C 316.4547119140625 190.08624267578125 219.81594848632812 312.27728271484375 245.33169555664062 311.7759704589844 C 287.9946594238281 281.2531433105469 251.37448120117188 283.72589111328125 294.3873291015625 315.5210876464844" stroke-width="0.0" fill="rgb(255, 255, 255)" opacity="0.99945974"/>
    <path d="M 471.4034423828125 381.9057312011719 C 497.5693054199219 400.35211181640625 542.6349487304688 391.4129943847656 422.1427001953125 400.0856018066406 C 332.96051025390625 395.62237548828125 349.6902160644531 409.51422119140625 345.9716491699219 383.5138854980469 C 368.93927001953125 369.9112243652344 404.93463134765625 371.991455078125 394.2266540527344 392.8340148925781 C 360.4855651855469 383.1313781738281 390.0347595214844 374.1806945800781 471.4034423828125 381.9057312011719" stroke-width="0.0" fill="rgb(15, 168, 207)" opacity="0.78197575"/>
    <path d="M 598.6707763671875 284.6694030761719 C 570.4486694335938 284.4198303222656 548.414794921875 290.98321533203125 525.09716796875 274.2741394042969 C 532.599609375 279.39239501953125 485.8673095703125 288.7825622558594 470.36224365234375 277.48333740234375 C 452.8436279296875 209.37327575683594 470.98797607421875 240.42515563964844 546.9794921875 244.28732299804688 C 572.509521484375 248.06964111328125 567.87109375 244.96969604492188 598.6707763671875 284.6694030761719" stroke-width="0.0" fill="rgb(91, 168, 45)" opacity="0.5427109"/>
    <path d="M 435.8656311035156 294.9111022949219 C 434.3387451171875 298.77191162109375 392.87701416015625 299.373779296875 387.3418273925781 310.0030822753906 C 389.67901611328125 296.569091796875 379.6550598144531 277.90716552734375 358.9775085449219 249.4358367919922 C 373.9403991699219 239.59005737304688 404.2015686035156 209.08486938476562 400.37762451171875 238.3209991455078 C 402.41558837890625 232.91294860839844 412.03021240234375 263.7302551269531 435.8656311035156 294.9111022949219" stroke-width="0.0" fill="rgb(56, 249, 106)" opacity="1.0"/>
    <path d="M 551.9671020507812 363.97039794921875 C 499.4254455566406 517.5031127929688 508.1836242675781 480.2396240234375 313.9969787597656 497.2669982910156 C 241.4163360595703 502.8921813964844 226.5712890625 480.8287353515625 188.61395263671875 449.5410461425781 C 180.2785186767578 418.3760681152344 216.03294372558594 410.7491455078125 222.8446502685547 433.3489074707031 C 374.1276550292969 413.9096374511719 399.8790283203125 423.95086669921875 551.9671020507812 363.97039794921875" stroke-width="0.0" fill="rgb(238, 189, 0)" opacity="0.9616874"/>
    <path d="M 330.1968688964844 495.864501953125 C 254.98880004882812 524.3577880859375 220.39407348632812 517.5822143554688 226.1043701171875 489.77740478515625 C 209.1001739501953 488.94085693359375 113.25154876708984 499.2029724121094 100.0923080444336 406.5838623046875 C 58.65034103393555 358.2397766113281 135.12452697753906 392.6563415527344 245.05819702148438 408.43975830078125 C 281.4299011230469 428.1541442871094 249.06199645996094 463.7779846191406 330.1968688964844 495.864501953125" stroke-width="0.0" fill="rgb(252, 190, 3)" opacity="0.6522578"/>
    <path d="M 171.23854064941406 237.13307189941406 C 175.7946319580078 295.05682373046875 155.7555389404297 286.09796142578125 82.65031433105469 286.7769775390625 C 89.16990661621094 259.0560302734375 105.73339080810547 300.5335388183594 104.78052520751953 235.7747039794922 C 116.00519561767578 124.75599670410156 82.3300552368164 150.6747589111328 133.5737762451172 161.02569580078125 C 183.11074829101562 274.9039611816406 174.23211669921875 207.60231018066406 171.23854064941406 237.13307189941406" stroke-width="0.0" fill="rgb(104, 218, 70)" opacity="0.8071283"/>
    <path d="M 20.4307861328125 0.393583208322525 C 17.751293182373047 10.393583297729492 10.430787086486816 17.71409034729004 0.43078693747520447 20.393583297729492 C -9.569212913513184 17.71409034729004 -16.889720916748047 10.393583297729492 -19.5692138671875 0.393583208322525 C -16.889720916748047 -9.606416702270508 -9.569212913513184 -16.926923751831055 0.43078693747520447 -19.606416702270508 C 10.430787086486816 -16.926923751831055 17.751293182373047 -9.606416702270508 20.4307861328125 0.393583208322525" stroke-width="0.0" fill="rgb(26, 139, 204)" opacity="1.0"/>
    <path d="M 20.25130271911621 0.03014780953526497 C 17.571809768676758 10.030147552490234 10.251302719116211 17.35065460205078 0.25130248069763184 20.030147552490234 C -9.748697280883789 17.35065460205078 -17.069204330444336 10.030147552490234 -19.74869728088379 0.03014780953526497 C -17.069204330444336 -9.969852447509766 -9.748697280883789 -17.290359497070312 0.25130248069763184 -19.969852447509766 C 10.251302719116211 -17.290359497070312 17.571809768676758 -9.969852447509766 20.25130271911621 0.03014780953526497" stroke-width="0.0" fill="rgb(140, 5, 175)" opacity="1.0"/>
    <path d="M 20.248945236206055 0.22523510456085205 C 17.5694522857666 10.225234985351562 10.248946189880371 17.54574203491211 0.24894604086875916 20.225234985351562 C -9.751053810119629 17.54574203491211 -17.071561813354492 10.225234985351562 -19.751054763793945 0.22523510456085205 C -17.071561813354492 -9.774765014648438 -9.751053810119629 -17.095272064208984 0.24894604086875916 -19.774765014648438 C 10.248946189880371 -17.095272064208984 17.5694522857666 -9.774765014648438 20.248945236206055 0.22523510456085205" stroke-width="0.0" fill="rgb(53, 46, 67)" opacity="1.0"/>
    <path d="M 162.2607879638672 275.51092529296875 C 97.86251068115234 305.30987548828125 62.78742599487305 305.35076904296875 58.50445556640625 307.8414306640625 C 62.9356575012207 321.3000793457031 71.13958740234375 295.2692565917969 47.987369537353516 282.20159912109375 C 45.039241790771484 277.8149719238281 42.78737258911133 283.52227783203125 104.01946258544922 280.3926696777344 C 118.85848236083984 305.27294921875 189.98785400390625 231.3698272705078 162.2607879638672 275.51092529296875" stroke-width="0.0" fill="rgb(63, 198, 45)" opacity="0.21296012"/>
    <path d="M 466.09014892578125 514.1113891601562 C 454.5585632324219 737.3668212890625 344.7382507324219 657.2030639648438 275.45074462890625 622.2523193359375 C 239.9072265625 634.4132690429688 218.90557861328125 643.8673095703125 215.4294891357422 589.8915405273438 C 212.7603759765625 524.4707641601562 216.78903198242188 544.2831420898438 219.803466796875 508.61224365234375 C 312.09228515625 514.27294921875 402.58074951171875 521.9566040039062 466.09014892578125 514.1113891601562" stroke-width="0.0" fill="rgb(28, 178, 228)" opacity="0.9779307"/>
    <path d="M 351.010498046875 502.0314636230469 C 243.627685546875 530.5316772460938 195.90086364746094 525.3346557617188 165.1144561767578 503.56304931640625 C 194.28823852539062 489.24383544921875 98.90266418457031 490.54052734375 67.03543090820312 480.74371337890625 C 120.33562469482422 446.0129699707031 169.81541442871094 515.12744140625 197.65798950195312 489.9080810546875 C 177.8103485107422 493.9100036621094 255.6607208251953 477.3992919921875 351.010498046875 502.0314636230469" stroke-width="0.0" fill="rgb(8, 156, 210)" opacity="0.90782017"/>
    <path d="M 450.6765441894531 309.46807861328125 C 401.52679443359375 338.9881286621094 385.7550354003906 321.8605041503906 407.3638000488281 308.347900390625 C 396.6044616699219 293.4517517089844 366.6076354980469 302.2993469238281 372.58526611328125 268.50311279296875 C 379.1630859375 275.6531677246094 404.47540283203125 277.20928955078125 386.8205871582031 308.6565856933594 C 358.2759704589844 297.2255554199219 399.11541748046875 289.4255065917969 450.6765441894531 309.46807861328125" stroke-width="0.0" fill="rgb(106, 246, 88)" opacity="0.04028201"/>
    <path d="M 175.7426300048828 286.65966796875 C 173.1112518310547 287.9461975097656 126.11809539794922 302.2329406738281 60.54563522338867 295.8023986816406 C 17.873149871826172 298.4420166015625 14.407322883605957 290.8753967285156 9.827445030212402 240.965087890625 C 60.55967712402344 249.52992248535156 32.90769958496094 259.1570739746094 4.888221740722656 192.28631591796875 C 39.004615783691406 249.7437744140625 75.36747741699219 106.73236083984375 175.7426300048828 286.65966796875" stroke-width="0.0" fill="rgb(84, 229, 41)" opacity="0.44204667"/>
    <path d="M 20.277538299560547 0.6983115077018738 C 17.598045349121094 10.698311805725098 10.277538299560547 18.018817901611328 0.277538537979126 20.69831085205078 C -9.722461700439453 18.018817901611328 -17.04296875 10.698311805725098 -19.722461700439453 0.6983115077018738 C -17.04296875 -9.301688194274902 -9.722461700439453 -16.622196197509766 0.277538537979126 -19.30168914794922 C 10.277538299560547 -16.622196197509766 17.598045349121094 -9.301688194274902 20.277538299560547 0.6983115077018738" stroke-width="0.0" fill="rgb(56, 202, 67)" opacity="1.0"/>
    <path d="M 65.93666076660156 268.5806884765625 C 46.72412109375 267.5729064941406 41.31904220581055 265.2128601074219 33.15367889404297 267.2723388671875 C 8.592757225036621 251.7248992919922 16.4417667388916 282.4007873535156 -30.7374210357666 378.67291259765625 C -68.93917083740234 182.28933715820312 -8.458874702453613 124.60855865478516 1.2178233861923218 164.0117645263672 C 27.110204696655273 263.1258239746094 55.526519775390625 244.78195190429688 65.93666076660156 268.5806884765625" stroke-width="0.0" fill="rgb(91, 235, 8)" opacity="0.53819585"/>
    <path d="M 77.26931762695312 282.1665344238281 C 71.78459167480469 271.8580322265625 77.53673553466797 262.8913269042969 100.96895599365234 294.7641296386719 C 80.07256317138672 299.6212158203125 34.88156509399414 311.0301208496094 -20.27379035949707 306.7694091796875 C -26.986797332763672 168.90106201171875 -31.250568389892578 175.6273651123047 67.08333587646484 191.15444946289062 C 70.0768051147461 238.19998168945312 76.67928314208984 250.94017028808594 77.26931762695312 282.1665344238281" stroke-width="0.0" fill="rgb(79, 238, 26)" opacity="0.6330571"/>
    <path d="M 482.6983947753906 343.5086364746094 C 492.0262451171875 366.83477783203125 455.9437561035156 365.8321838378906 365.30682373046875 375.2950439453125 C 372.3776550292969 326.0995178222656 386.8482971191406 332.4036560058594 397.536865234375 340.1156005859375 C 370.1002502441406 330.5306701660156 382.1299743652344 297.3894348144531 401.0323791503906 296.5762634277344 C 448.2619323730469 300.1510009765625 479.8810119628906 270.8446350097656 482.6983947753906 343.5086364746094" stroke-width="0.0" fill="rgb(27, 163, 203)" opacity="0.9912245"/>
    <path d="M 386.9455261230469 324.6163635253906 C 435.06390380859375 430.6976013183594 372.57354736328125 370.7384338378906 304.0247497558594 393.6108703613281 C 271.0462646484375 366.79888916015625 237.53636169433594 360.01141357421875 194.12689208984375 345.4598083496094 C 241.59947204589844 363.28125 252.39085388183594 382.9685974121094 317.7166748046875 369.9976806640625 C 307.8058166503906 368.15716552734375 337.7116394042969 377.0898742675781 386.9455261230469 324.6163635253906" stroke-width="0.0" fill="rgb(18, 0, 21)" opacity="0.6282121"/>
    <path d="M 20.032238006591797 0.02157209999859333 C 17.352745056152344 10.02157211303711 10.032238006591797 17.342079162597656 0.03223773464560509 20.02157211303711 C -9.967761993408203 17.342079162597656 -17.28826904296875 10.02157211303711 -19.967761993408203 0.02157209999859333 C -17.28826904296875 -9.97842788696289 -9.967761993408203 -17.298934936523438 0.03223773464560509 -19.97842788696289 C 10.032238006591797 -17.298934936523438 17.352745056152344 -9.97842788696289 20.032238006591797 0.02157209999859333" stroke-width="0.0" fill="rgb(83, 10, 241)" opacity="1.0"/>
    <path d="M 234.0491485595703 566.3477783203125 C 231.14303588867188 614.6517333984375 224.94947814941406 614.4013061523438 214.9825897216797 629.1384887695312 C 157.8474578857422 595.040283203125 120.02133178710938 613.3998413085938 51.33112335205078 594.348388671875 C 48.76359558105469 490.1624755859375 57.7838249206543 501.3419189453125 115.56459045410156 509.37158203125 C 233.6016387939453 518.6358032226562 255.27626037597656 510.9336853027344 234.0491485595703 566.3477783203125" stroke-width="0.0" fill="rgb(31, 182, 231)" opacity="1.0"/>
    <path d="M 476.71563720703125 310.37445068359375 C 409.8544006347656 315.9083251953125 418.4571228027344 281.4238586425781 409.5824890136719 354.40631103515625 C 378.3542785644531 332.21588134765625 379.4063720703125 323.8593444824219 370.18524169921875 346.16351318359375 C 404.3923034667969 296.8493957519531 370.0357666015625 298.43328857421875 412.5366516113281 298.6083984375 C 446.73284912109375 279.58880615234375 451.9759521484375 279.43121337890625 476.71563720703125 310.37445068359375" stroke-width="0.0" fill="rgb(9, 170, 197)" opacity="0.95510715"/>
    <path d="M 243.45187377929688 289.0331726074219 C 286.40887451171875 256.4571533203125 266.6724548339844 287.17681884765625 244.0173797607422 321.6563415527344 C 207.19659423828125 325.3460388183594 201.74964904785156 302.1805419921875 216.57626342773438 283.74176025390625 C 225.78765869140625 269.9368896484375 231.4752197265625 254.82313537597656 258.8138427734375 255.7940673828125 C 286.42333984375 299.3102722167969 241.9970245361328 257.60711669921875 243.45187377929688 289.0331726074219" stroke-width="0.0" fill="rgb(0, 0, 2)" opacity="1.0"/>
    <path d="M 20.972400665283203 0.0415937565267086 C 18.29290771484375 10.041593551635742 10.972399711608887 17.36210060119629 0.9724000692367554 20.041593551635742 C -9.027600288391113 17.36210060119629 -16.348106384277344 10.041593551635742 -19.027599334716797 0.0415937565267086 C -16.348106384277344 -9.958406448364258 -9.027600288391113 -17.278913497924805 0.9724000692367554 -19.958406448364258 C 10.972399711608887 -17.278913497924805 18.29290771484375 -9.958406448364258 20.972400665283203 0.0415937565267086" stroke-width="0.0" fill="rgb(6, 67, 235)" opacity="1.0"/>
    <path d="M 266.4203796386719 580.271728515625 C 275.0829772949219 615.470703125 275.484619140625 617.7341918945312 241.300537109375 632.292724609375 C 180.88394165039062 620.412841796875 154.8929901123047 643.4541015625 66.39639282226562 612.1644897460938 C 220.5338897705078 602.2151489257812 237.96151733398438 579.1549682617188 216.7467803955078 591.9075927734375 C 216.8853759765625 548.203369140625 237.29364013671875 527.895751953125 266.4203796386719 580.271728515625" stroke-width="0.0" fill="rgb(34, 190, 211)" opacity="0.050627798"/>
    <path d="M 20.965126037597656 0.6874821186065674 C 18.285633087158203 10.687481880187988 10.965126037597656 18.00798988342285 0.9651256203651428 20.687482833862305 C -9.034873962402344 18.00798988342285 -16.35538101196289 10.687481880187988 -19.034873962402344 0.6874821186065674 C -16.35538101196289 -9.312518119812012 -9.034873962402344 -16.633024215698242 0.9651256203651428 -19.312517166137695 C 10.965126037597656 -16.633024215698242 18.285633087158203 -9.312518119812012 20.965126037597656 0.6874821186065674" stroke-width="0.0" fill="rgb(12, 77, 59)" opacity="1.0"/>
    <path d="M 543.8276977539062 147.44186401367188 C 537.7246704101562 175.08319091796875 555.3095092773438 167.864501953125 508.8338623046875 165.21910095214844 C 499.0130615234375 191.0556182861328 497.132080078125 181.6108856201172 483.6248779296875 142.0717315673828 C 479.46356201171875 137.5604248046875 497.2727966308594 103.18437957763672 559.512939453125 87.9134292602539 C 595.988037109375 98.09791564941406 597.4763793945312 166.37905883789062 543.8276977539062 147.44186401367188" stroke-width="0.0" fill="rgb(65, 194, 5)" opacity="0.83350414"/>
    <path d="M 20.307987213134766 0.8778207898139954 C 17.628494262695312 10.87782096862793 10.307988166809082 18.198328018188477 0.3079877197742462 20.87782096862793 C -9.692011833190918 18.198328018188477 -17.01251983642578 10.87782096862793 -19.692012786865234 0.8778207898139954 C -17.01251983642578 -9.12217903137207 -9.692011833190918 -16.442686080932617 0.3079877197742462 -19.12217903137207 C 10.307988166809082 -16.442686080932617 17.628494262695312 -9.12217903137207 20.307987213134766 0.8778207898139954" stroke-width="0.0" fill="rgb(254, 164, 87)" opacity="1.0"/>
    <path d="M 20.638608932495117 0.5246112942695618 C 17.959115982055664 10.524611473083496 10.638609886169434 17.845117568969727 0.6386095285415649 20.52461051940918 C -9.361390113830566 17.845117568969727 -16.68189811706543 10.524611473083496 -19.361391067504883 0.5246112942695618 C -16.68189811706543 -9.475388526916504 -9.361390113830566 -16.795896530151367 0.6386095285415649 -19.47538948059082 C 10.638609886169434 -16.795896530151367 17.959115982055664 -9.475388526916504 20.638608932495117 0.5246112942695618" stroke-width="0.0" fill="rgb(61, 140, 240)" opacity="1.0"/>
    <path d="M 601.2666015625 155.1927490234375 C 548.460693359375 166.2041473388672 565.5750122070312 151.1478729248047 568.2319946289062 167.98622131347656 C 471.1588439941406 173.4724578857422 505.29241943359375 154.29684448242188 548.595703125 163.2101287841797 C 552.05908203125 140.0945587158203 521.8408813476562 86.19197845458984 565.1004028320312 88.30219268798828 C 620.85205078125 86.89151763916016 624.679931640625 111.9715576171875 601.2666015625 155.1927490234375" stroke-width="0.0" fill="rgb(79, 173, 29)" opacity="0.3347312"/>
    <path d="M 508.37384033203125 158.31683349609375 C 510.4556884765625 144.95066833496094 504.5422058105469 189.98159790039062 501.1302490234375 223.0181884765625 C 491.73504638671875 213.72108459472656 463.82861328125 223.68258666992188 458.1497802734375 219.38525390625 C 462.5519714355469 144.16714477539062 452.04522705078125 174.14309692382812 524.5967407226562 176.8129425048828 C 557.7568359375 187.0081329345703 549.2780151367188 175.2696990966797 508.37384033203125 158.31683349609375" stroke-width="0.0" fill="rgb(127, 138, 103)" opacity="0.34020534"/>
    <path d="M 286.1451416015625 55.933319091796875 C 289.2393798828125 96.50006103515625 294.86541748046875 89.59001159667969 244.6151885986328 92.5562515258789 C 214.33676147460938 78.23623657226562 180.08839416503906 95.45206451416016 173.2450408935547 74.8277587890625 C 191.76705932617188 21.713603973388672 206.8297119140625 23.33647918701172 292.5509338378906 10.991544723510742 C 304.5329284667969 33.27894592285156 294.5936584472656 63.33388137817383 286.1451416015625 55.933319091796875" stroke-width="0.0" fill="rgb(119, 197, 233)" opacity="0.39758256"/>
    <path d="M 549.650634765625 229.1182861328125 C 553.75341796875 247.51235961914062 553.252197265625 230.04331970214844 475.32275390625 229.46728515625 C 442.8212890625 240.4448699951172 447.5150146484375 235.52549743652344 452.0760803222656 182.83567810058594 C 471.947021484375 149.96775817871094 472.86248779296875 128.0303955078125 498.7537536621094 142.1414794921875 C 550.52001953125 161.37860107421875 541.93359375 126.0088882446289 549.650634765625 229.1182861328125" stroke-width="0.0" fill="rgb(80, 169, 29)" opacity="0.4487174"/>
    <path d="M 20.68667984008789 0.8286058306694031 C 18.007186889648438 10.828605651855469 10.68667984008789 18.149112701416016 0.6866797208786011 20.82860565185547 C -9.31332015991211 18.149112701416016 -16.633827209472656 10.828605651855469 -19.31332015991211 0.8286058306694031 C -16.633827209472656 -9.171394348144531 -9.31332015991211 -16.491901397705078 0.6866797208786011 -19.17139434814453 C 10.68667984008789 -16.491901397705078 18.007186889648438 -9.171394348144531 20.68667984008789 0.8286058306694031" stroke-width="0.0" fill="rgb(31, 62, 181)" opacity="1.0"/>
    <path d="M 20.222129821777344 0.5061748623847961 C 17.54263687133789 10.50617504119873 10.22213077545166 17.82668113708496 0.22213061153888702 20.506174087524414 C -9.77786922454834 17.82668113708496 -17.098377227783203 10.50617504119873 -19.777870178222656 0.5061748623847961 C -17.098377227783203 -9.49382495880127 -9.77786922454834 -16.814332962036133 0.22213061153888702 -19.493825912475586 C 10.22213077545166 -16.814332962036133 17.54263687133789 -9.49382495880127 20.222129821777344 0.5061748623847961" stroke-width="0.0" fill="rgb(91, 91, 133)" opacity="1.0"/>
    <path d="M 604.94482421875 184.99502563476562 C 547.4776611328125 185.18751525878906 526.283935546875 185.12843322753906 542.4567260742188 144.92198181152344 C 556.2833862304688 225.29360961914062 560.9634399414062 245.3170623779297 560.2761840820312 188.85240173339844 C 524.6007080078125 183.96676635742188 541.0380859375 160.508056640625 529.9913940429688 122.48381042480469 C 565.841796875 130.69737243652344 584.487548828125 117.44830322265625 604.94482421875 184.99502563476562" stroke-width="0.0" fill="rgb(78, 179, 17)" opacity="0.18047237"/>
    <path d="M 20.47813606262207 0.13813447952270508 C 17.798643112182617 10.138134002685547 10.478135108947754 17.458641052246094 0.47813543677330017 20.138134002685547 C -9.521864891052246 17.458641052246094 -16.842370986938477 10.138134002685547 -19.52186393737793 0.13813447952270508 C -16.842370986938477 -9.861865997314453 -9.521864891052246 -17.182373046875 0.47813543677330017 -19.861865997314453 C 10.478135108947754 -17.182373046875 17.798643112182617 -9.861865997314453 20.47813606262207 0.13813447952270508" stroke-width="0.0" fill="rgb(33, 90, 133)" opacity="1.0"/>
    <path d="M 297.8712158203125 85.17274475097656 C 345.8916320800781 124.7039794921875 370.1878356933594 140.68508911132812 271.36236572265625 128.8144989013672 C 223.8711700439453 124.6519775390625 228.24249267578125 109.82008361816406 235.34585571289062 77.80815887451172 C 236.28225708007812 54.76668930053711 248.45205688476562 24.040271759033203 250.64369201660156 -6.710257530212402 C 301.91204833984375 -11.8748197555542 276.2542724609375 -4.028590679168701 297.8712158203125 85.17274475097656" stroke-width="0.0" fill="rgb(120, 201, 244)" opacity="0.40329954"/>
    <path d="M 543.51708984375 180.8006134033203 C 541.6610107421875 228.2587127685547 571.8098754882812 213.13455200195312 511.9109191894531 217.6988067626953 C 506.8668518066406 201.0601043701172 501.41259765625 171.47596740722656 499.4652099609375 163.92884826660156 C 505.60687255859375 186.5751495361328 486.91302490234375 176.3416748046875 490.162353515625 121.61749267578125 C 575.0292358398438 126.63819122314453 591.8696899414062 194.27613830566406 543.51708984375 180.8006134033203" stroke-width="0.0" fill="rgb(80, 175, 33)" opacity="0.33278853"/>
    <path d="M 570.322265625 430.6603088378906 C 545.9965209960938 461.5822448730469 516.9951782226562 488.8123474121094 479.6229553222656 490.9549255371094 C 450.34271240234375 487.11138916015625 469.4259033203125 489.6471252441406 472.3407287597656 395.3404846191406 C 503.79791259765625 417.2677001953125 471.9572448730469 398.1080017089844 550.7108154296875 361.98309326171875 C 630.6129150390625 280.3857116699219 591.5729370117188 406.3973693847656 570.322265625 430.6603088378906" stroke-width="0.0" fill="rgb(253, 190, 0)" opacity="0.999302"/>
    <path d="M 358.2366027832031 417.8006286621094 C 357.3178405761719 401.8083190917969 331.80718994140625 413.1236877441406 341.97998046875 418.6272888183594 C 329.8942565917969 408.362548828125 363.53887939453125 408.677734375 304.1828308105469 408.79632568359375 C 342.8345642089844 396.6208190917969 339.47747802734375 300.8603820800781 444.5163269042969 365.4073486328125 C 450.4532775878906 438.3901062011719 355.0493469238281 394.6420593261719 358.2366027832031 417.8006286621094" stroke-width="0.0" fill="rgb(0, 0, 10)" opacity="1.0"/>
    <path d="M 518.8770751953125 120.28479766845703 C 527.6290893554688 146.5019073486328 519.6040649414062 196.75912475585938 528.66455078125 200.0277557373047 C 453.08477783203125 204.6240234375 475.9048156738281 189.79161071777344 468.4892272949219 168.3616180419922 C 463.72698974609375 163.47496032714844 467.83367919921875 137.022216796875 516.823974609375 105.64651489257812 C 524.3474731445312 136.80551147460938 517.19921875 153.7860565185547 518.8770751953125 120.28479766845703" stroke-width="0.0" fill="rgb(77, 180, 4)" opacity="0.2803106"/>
    <path d="M 20.501218795776367 0.8166486620903015 C 17.821725845336914 10.816648483276367 10.501218795776367 18.137155532836914 0.5012192726135254 20.816648483276367 C -9.498781204223633 18.137155532836914 -16.81928825378418 10.816648483276367 -19.498781204223633 0.8166486620903015 C -16.81928825378418 -9.183351516723633 -9.498781204223633 -16.50385856628418 0.5012192726135254 -19.183351516723633 C 10.501218795776367 -16.50385856628418 17.821725845336914 -9.183351516723633 20.501218795776367 0.8166486620903015" stroke-width="0.0" fill="rgb(222, 218, 6)" opacity="1.0"/>
    <path d="M 20.645986557006836 0.2604620158672333 C 17.966493606567383 10.260461807250977 10.645987510681152 17.580968856811523 0.6459874510765076 20.260461807250977 C -9.354012489318848 17.580968856811523 -16.67452049255371 10.260461807250977 -19.354013442993164 0.2604620158672333 C -16.67452049255371 -9.739538192749023 -9.354012489318848 -17.06004524230957 0.6459874510765076 -19.739538192749023 C 10.645987510681152 -17.06004524230957 17.966493606567383 -9.739538192749023 20.645986557006836 0.2604620158672333" stroke-width="0.0" fill="rgb(212, 123, 8)" opacity="1.0"/>
    <path d="M 305.9664306640625 305.1850891113281 C 302.6935729980469 297.01177978515625 291.6315002441406 306.2705993652344 300.89892578125 301.7203674316406 C 285.31011962890625 307.6339416503906 290.7069091796875 303.7166442871094 273.1029052734375 305.5580139160156 C 277.35528564453125 327.2062683105469 300.3388366699219 308.0686340332031 278.21954345703125 304.9047546386719 C 257.6257629394531 311.26837158203125 294.9676208496094 328.4966125488281 305.9664306640625 305.1850891113281" stroke-width="0.0" fill="rgb(0, 0, 24)" opacity="1.0"/>
    <path d="M 20.079387664794922 0.0626436248421669 C 17.39989471435547 10.062644004821777 10.079388618469238 17.383150100708008 0.07938843220472336 20.06264305114746 C -9.920611381530762 17.383150100708008 -17.241119384765625 10.062644004821777 -19.920612335205078 0.0626436248421669 C -17.241119384765625 -9.937355995178223 -9.920611381530762 -17.257863998413086 0.07938843220472336 -19.93735694885254 C 10.079388618469238 -17.257863998413086 17.39989471435547 -9.937355995178223 20.079387664794922 0.0626436248421669" stroke-width="0.0" fill="rgb(138, 37, 158)" opacity="1.0"/>
    <path d="M 20.767061233520508 0.7487475275993347 C 18.087568283081055 10.748747825622559 10.767061233520508 18.06925392150879 0.7670612335205078 20.748746871948242 C -9.232938766479492 18.06925392150879 -16.55344581604004 10.748747825622559 -19.232938766479492 0.7487475275993347 C -16.55344581604004 -9.251252174377441 -9.232938766479492 -16.571760177612305 0.7670612335205078 -19.251253128051758 C 10.767061233520508 -16.571760177612305 18.087568283081055 -9.251252174377441 20.767061233520508 0.7487475275993347" stroke-width="0.0" fill="rgb(68, 31, 48)" opacity="1.0"/>
    <path d="M 148.5682373046875 402.38397216796875 C 118.89295196533203 446.95794677734375 139.13584899902344 467.75054931640625 127.12596893310547 459.4833679199219 C 113.7848129272461 444.9700622558594 100.67720031738281 432.2865905761719 88.81705474853516 384.5545959472656 C 80.93977355957031 363.02630615234375 103.30966186523438 377.85894775390625 117.83185577392578 382.3206787109375 C 118.93106842041016 385.4908142089844 138.32049560546875 391.6850891113281 148.5682373046875 402.38397216796875" stroke-width="0.0" fill="rgb(255, 201, 0)" opacity="1.0"/>
    <path d="M 20.617664337158203 0.9228792786598206 C 17.93817138671875 10.922879219055176 10.617664337158203 18.24338722229004 0.6176643371582031 20.922880172729492 C -9.382335662841797 18.24338722229004 -16.702842712402344 10.922879219055176 -19.382335662841797 0.9228792786598206 C -16.702842712402344 -9.077120780944824 -9.382335662841797 -16.397626876831055 0.6176643371582031 -19.077119827270508 C 10.617664337158203 -16.397626876831055 17.93817138671875 -9.077120780944824 20.617664337158203 0.9228792786598206" stroke-width="0.0" fill="rgb(172, 100, 70)" opacity="1.0"/>
    <path d="M 20.10102653503418 0.16096308827400208 C 17.421533584594727 10.16096305847168 10.10102653503418 17.481470108032227 0.10102609544992447 20.16096305847168 C -9.89897346496582 17.481470108032227 -17.219480514526367 10.16096305847168 -19.89897346496582 0.16096308827400208 C -17.219480514526367 -9.83903694152832 -9.89897346496582 -17.159543991088867 0.10102609544992447 -19.83903694152832 C 10.10102653503418 -17.159543991088867 17.421533584594727 -9.83903694152832 20.10102653503418 0.16096308827400208" stroke-width="0.0" fill="rgb(125, 53, 242)" opacity="1.0"/>
    <path d="M 20.646013259887695 0.036826133728027344 C 17.966520309448242 10.036826133728027 10.646013259887695 17.35733413696289 0.6460127830505371 20.036827087402344 C -9.353986740112305 17.35733413696289 -16.67449378967285 10.036826133728027 -19.353986740112305 0.036826133728027344 C -16.67449378967285 -9.963173866271973 -9.353986740112305 -17.283679962158203 0.6460127830505371 -19.963172912597656 C 10.646013259887695 -17.283679962158203 17.966520309448242 -9.963173866271973 20.646013259887695 0.036826133728027344" stroke-width="0.0" fill="rgb(220, 2, 131)" opacity="1.0"/>
    <path d="M 440.7042236328125 394.5702819824219 C 419.3382263183594 408.6385192871094 325.7020568847656 410.3235168457031 306.33587646484375 402.4475402832031 C 302.1459045410156 399.33966064453125 357.35003662109375 372.9928283691406 403.9977722167969 381.8398132324219 C 354.1268615722656 404.980712890625 308.237548828125 398.1828308105469 339.1033935546875 393.16546630859375 C 301.42681884765625 416.0282287597656 295.095947265625 427.16717529296875 440.7042236328125 394.5702819824219" stroke-width="0.0" fill="rgb(237, 148, 0)" opacity="0.9497829"/>
    <path d="M 20.05929183959961 0.664051353931427 C 17.379798889160156 10.664051055908203 10.059292793273926 17.98455810546875 0.05929239094257355 20.664051055908203 C -9.940707206726074 17.98455810546875 -17.261215209960938 10.664051055908203 -19.94070816040039 0.664051353931427 C -17.261215209960938 -9.335948944091797 -9.940707206726074 -16.656455993652344 0.05929239094257355 -19.335948944091797 C 10.059292793273926 -16.656455993652344 17.379798889160156 -9.335948944091797 20.05929183959961 0.664051353931427" stroke-width="0.0" fill="rgb(210, 2, 47)" opacity="1.0"/>
    <path d="M 20.402095794677734 0.44214367866516113 C 17.72260284423828 10.442143440246582 10.402094841003418 17.762651443481445 0.4020949900150299 20.4421443939209 C -9.597905158996582 17.762651443481445 -16.918411254882812 10.442143440246582 -19.597904205322266 0.44214367866516113 C -16.918411254882812 -9.557856559753418 -9.597905158996582 -16.87836265563965 0.4020949900150299 -19.5578556060791 C 10.402094841003418 -16.87836265563965 17.72260284423828 -9.557856559753418 20.402095794677734 0.44214367866516113" stroke-width="0.0" fill="rgb(151, 90, 221)" opacity="1.0"/>
    <path d="M 354.28350830078125 626.0335693359375 C 279.3040771484375 607.813232421875 251.17208862304688 592.7621459960938 247.7400665283203 591.4979248046875 C 250.08164978027344 608.8538208007812 226.8344268798828 620.830078125 160.06434631347656 593.4552001953125 C 161.9193572998047 521.0758056640625 148.39991760253906 522.4596557617188 210.1053924560547 529.3694458007812 C 290.6817626953125 560.2265014648438 323.5023498535156 533.6109619140625 354.28350830078125 626.0335693359375" stroke-width="0.0" fill="rgb(15, 190, 216)" opacity="0.09657487"/>
    <path d="M 20.525487899780273 0.23958604037761688 C 17.84599494934082 10.239585876464844 10.525487899780273 17.56009292602539 0.52548748254776 20.239585876464844 C -9.474512100219727 17.56009292602539 -16.795019149780273 10.239585876464844 -19.474512100219727 0.23958604037761688 C -16.795019149780273 -9.760414123535156 -9.474512100219727 -17.080921173095703 0.52548748254776 -19.760414123535156 C 10.525487899780273 -17.080921173095703 17.84599494934082 -9.760414123535156 20.525487899780273 0.23958604037761688" stroke-width="0.0" fill="rgb(150, 152, 67)" opacity="1.0"/>
    <path d="M 20.823448181152344 0.3060721755027771 C 18.14395523071289 10.306072235107422 10.823447227478027 17.62657928466797 0.8234473466873169 20.306072235107422 C -9.176552772521973 17.62657928466797 -16.497058868408203 10.306072235107422 -19.176551818847656 0.3060721755027771 C -16.497058868408203 -9.693927764892578 -9.176552772521973 -17.014434814453125 0.8234473466873169 -19.693927764892578 C 10.823447227478027 -17.014434814453125 18.14395523071289 -9.693927764892578 20.823448181152344 0.3060721755027771" stroke-width="0.0" fill="rgb(250, 197, 212)" opacity="1.0"/>
    <path d="M 112.10680389404297 409.3263244628906 C 105.78543090820312 397.0870361328125 108.16693878173828 412.48779296875 141.95176696777344 416.22003173828125 C 149.51243591308594 419.5644836425781 136.79307556152344 401.1355285644531 133.77610778808594 406.1394958496094 C 98.8434066772461 383.82525634765625 131.5039520263672 392.99298095703125 183.89805603027344 395.1873779296875 C 173.48712158203125 462.3016357421875 144.93310546875 430.573486328125 112.10680389404297 409.3263244628906" stroke-width="0.0" fill="rgb(245, 104, 49)" opacity="0.4193712"/>
    <path d="M 567.4058227539062 349.9581298828125 C 525.89208984375 350.9772033691406 467.8697509765625 356.1856384277344 474.0370788574219 373.170166015625 C 554.1871337890625 359.2766418457031 562.5452270507812 362.39019775390625 524.3652954101562 356.03021240234375 C 522.2353515625 362.973876953125 554.601318359375 368.9306640625 569.9837646484375 344.7679443359375 C 493.09796142578125 351.7557678222656 501.52520751953125 369.3855285644531 567.4058227539062 349.9581298828125" stroke-width="0.0" fill="rgb(241, 61, 30)" opacity="0.978155"/>
    <path d="M 20.495092391967773 0.9970294237136841 C 17.81559944152832 10.997029304504395 10.495091438293457 18.317537307739258 0.49509158730506897 20.99703025817871 C -9.504908561706543 18.317537307739258 -16.825414657592773 10.997029304504395 -19.504907608032227 0.9970294237136841 C -16.825414657592773 -9.002970695495605 -9.504908561706543 -16.323476791381836 0.49509158730506897 -19.00296974182129 C 10.495091438293457 -16.323476791381836 17.81559944152832 -9.002970695495605 20.495092391967773 0.9970294237136841" stroke-width="0.0" fill="rgb(175, 40, 251)" opacity="1.0"/>
    <path d="M 20.017147064208984 0.19108673930168152 C 17.33765411376953 10.191086769104004 10.017146110534668 17.511592864990234 0.017146140336990356 20.191085815429688 C -9.982853889465332 17.511592864990234 -17.303359985351562 10.191086769104004 -19.982852935791016 0.19108673930168152 C -17.303359985351562 -9.808913230895996 -9.982853889465332 -17.12942123413086 0.017146140336990356 -19.808914184570312 C 10.017146110534668 -17.12942123413086 17.33765411376953 -9.808913230895996 20.017147064208984 0.19108673930168152" stroke-width="0.0" fill="rgb(105, 225, 79)" opacity="1.0"/>
    <path d="M 20.146970748901367 0.6221730709075928 C 17.467477798461914 10.622173309326172 10.146970748901367 17.94268035888672 0.146971195936203 20.622173309326172 C -9.853029251098633 17.94268035888672 -17.17353630065918 10.622173309326172 -19.853029251098633 0.6221730709075928 C -17.17353630065918 -9.377826690673828 -9.853029251098633 -16.698333740234375 0.146971195936203 -19.377826690673828 C 10.146970748901367 -16.698333740234375 17.467477798461914 -9.377826690673828 20.146970748901367 0.6221730709075928" stroke-width="0.0" fill="rgb(30, 111, 135)" opacity="1.0"/>
    <path d="M 20.726160049438477 0.4308740198612213 C 18.046667098999023 10.43087387084961 10.726161003112793 17.751380920410156 0.7261605858802795 20.43087387084961 C -9.273838996887207 17.751380920410156 -16.59434700012207 10.43087387084961 -19.273839950561523 0.4308740198612213 C -16.59434700012207 -9.56912612915039 -9.273838996887207 -16.889633178710938 0.7261605858802795 -19.56912612915039 C 10.726161003112793 -16.889633178710938 18.046667098999023 -9.56912612915039 20.726160049438477 0.4308740198612213" stroke-width="0.0" fill="rgb(20, 120, 10)" opacity="1.0"/>
    <path d="M 261.5907897949219 202.94313049316406 C 256.5598449707031 194.32838439941406 223.53543090820312 176.5551300048828 231.07733154296875 223.50453186035156 C 269.3515625 216.96571350097656 270.7652587890625 230.7804718017578 256.58587646484375 190.883056640625 C 230.93914794921875 201.12371826171875 242.0216827392578 198.9433135986328 249.09278869628906 219.3879852294922 C 245.423828125 204.99160766601562 248.50405883789062 213.03463745117188 261.5907897949219 202.94313049316406" stroke-width="0.0" fill="rgb(92, 253, 115)" opacity="0.5866431"/>
    <path d="M 20.340484619140625 0.3746830224990845 C 17.660991668701172 10.374683380126953 10.340484619140625 17.6951904296875 0.3404845595359802 20.374683380126953 C -9.659515380859375 17.6951904296875 -16.980022430419922 10.374683380126953 -19.659515380859375 0.3746830224990845 C -16.980022430419922 -9.625316619873047 -9.659515380859375 -16.945823669433594 0.3404845595359802 -19.625316619873047 C 10.340484619140625 -16.945823669433594 17.660991668701172 -9.625316619873047 20.340484619140625 0.3746830224990845" stroke-width="0.0" fill="rgb(104, 35, 174)" opacity="1.0"/>
    <path d="M 377.6746520996094 357.59466552734375 C 376.0538330078125 336.8492736816406 351.06158447265625 352.6623840332031 357.53228759765625 367.4942932128906 C 362.61444091796875 340.8199768066406 400.2938537597656 317.2406311035156 376.5766296386719 354.4884948730469 C 355.85980224609375 341.1966552734375 385.2894287109375 342.4061584472656 359.8681640625 381.1184997558594 C 348.8310852050781 344.6693115234375 378.0768127441406 346.6594543457031 377.6746520996094 357.59466552734375" stroke-width="0.0" fill="rgb(9, 0, 1)" opacity="0.15526988"/>
    <path d="M 20.001108169555664 0.8823235034942627 C 17.32161521911621 10.882323265075684 10.001107215881348 18.202831268310547 0.0011075829388573766 20.88232421875 C -9.998892784118652 18.202831268310547 -17.319398880004883 10.882323265075684 -19.998891830444336 0.8823235034942627 C -17.319398880004883 -9.117676734924316 -9.998892784118652 -16.438182830810547 0.0011075829388573766 -19.11767578125 C 10.001107215881348 -16.438182830810547 17.32161521911621 -9.117676734924316 20.001108169555664 0.8823235034942627" stroke-width="0.0" fill="rgb(239, 79, 25)" opacity="1.0"/>
    <path d="M 20.829689025878906 0.24005623161792755 C 18.150196075439453 10.240056037902832 10.829689025878906 17.560564041137695 0.8296893835067749 20.24005699157715 C -9.170310974121094 17.560564041137695 -16.49081802368164 10.240056037902832 -19.170310974121094 0.24005623161792755 C -16.49081802368164 -9.759943962097168 -9.170310974121094 -17.0804500579834 0.8296893835067749 -19.75994300842285 C 10.829689025878906 -17.0804500579834 18.150196075439453 -9.759943962097168 20.829689025878906 0.24005623161792755" stroke-width="0.0" fill="rgb(163, 46, 81)" opacity="1.0"/>
    <path d="M 192.32066345214844 468.6718444824219 C 186.82647705078125 483.35003662109375 181.19796752929688 491.2633056640625 183.19500732421875 487.1971130371094 C 131.25331115722656 483.36859130859375 148.33657836914062 478.25299072265625 112.07001495361328 437.9801940917969 C 83.94584655761719 358.08441162109375 92.83435821533203 382.432373046875 199.60545349121094 407.4172058105469 C 199.29200744628906 477.5103454589844 197.87045288085938 476.6827697753906 192.32066345214844 468.6718444824219" stroke-width="0.0" fill="rgb(254, 185, 0)" opacity="0.9864082"/>
    <path d="M 20.272560119628906 0.0576048269867897 C 17.593067169189453 10.057604789733887 10.272560119628906 17.37811279296875 0.27256035804748535 20.057605743408203 C -9.727439880371094 17.37811279296875 -17.04794692993164 10.057604789733887 -19.727439880371094 0.0576048269867897 C -17.04794692993164 -9.942395210266113 -9.727439880371094 -17.262901306152344 0.27256035804748535 -19.942394256591797 C 10.272560119628906 -17.262901306152344 17.593067169189453 -9.942395210266113 20.272560119628906 0.0576048269867897" stroke-width="0.0" fill="rgb(158, 123, 193)" opacity="1.0"/>
    <path d="M -15.78752613067627 120.44342041015625 C 3.862987756729126 111.2485122680664 -11.302783966064453 120.63916778564453 -9.195601463317871 165.0341339111328 C -11.636019706726074 159.67315673828125 -13.626140594482422 145.41456604003906 -15.37948226928711 125.98039245605469 C -17.31911849975586 104.85758972167969 -17.33247947692871 87.6974105834961 -1.984670877456665 74.00154113769531 C -5.126422882080078 122.68795776367188 -2.4208853244781494 137.01585388183594 -15.78752613067627 120.44342041015625" stroke-width="0.0" fill="rgb(93, 204, 202)" opacity="0.68521327"/>
    <path d="M 20.773204803466797 0.900900661945343 C 18.093711853027344 10.900900840759277 10.77320384979248 18.221406936645508 0.7732042670249939 20.90089988708496 C -9.22679615020752 18.221406936645508 -16.54730224609375 10.900900840759277 -19.226795196533203 0.900900661945343 C -16.54730224609375 -9.099099159240723 -9.22679615020752 -16.419607162475586 0.7732042670249939 -19.09910011291504 C 10.77320384979248 -16.419607162475586 18.093711853027344 -9.099099159240723 20.773204803466797 0.900900661945343" stroke-width="0.0" fill="rgb(175, 206, 186)" opacity="1.0"/>
    <path d="M 20.850194931030273 0.31328490376472473 C 18.17070198059082 10.313284873962402 10.850194931030273 17.633792877197266 0.8501948118209839 20.31328582763672 C -9.149805068969727 17.633792877197266 -16.470312118530273 10.313284873962402 -19.149805068969727 0.31328490376472473 C -16.470312118530273 -9.686715126037598 -9.149805068969727 -17.007221221923828 0.8501948118209839 -19.68671417236328 C 10.850194931030273 -17.007221221923828 18.17070198059082 -9.686715126037598 20.850194931030273 0.31328490376472473" stroke-width="0.0" fill="rgb(253, 223, 166)" opacity="1.0"/>
    <path d="M 20.973041534423828 0.06866791844367981 C 18.293548583984375 10.068668365478516 10.973041534423828 17.389175415039062 0.9730414748191833 20.068668365478516 C -9.026958465576172 17.389175415039062 -16.34746551513672 10.068668365478516 -19.026958465576172 0.06866791844367981 C -16.34746551513672 -9.931331634521484 -9.026958465576172 -17.25183868408203 0.9730414748191833 -19.931331634521484 C 10.973041534423828 -17.25183868408203 18.293548583984375 -9.931331634521484 20.973041534423828 0.06866791844367981" stroke-width="0.0" fill="rgb(181, 209, 54)" opacity="1.0"/>
  </g>
</svg>
