<?xml version="1.0" ?>
<svg xmlns="http://www.w3.org/2000/svg" version="1.1" width="600" height="600">
  <defs/>
  <g>
    <path d="M 324.95367431640625 559.9212646484375 C 338.08514404296875 553.6593627929688 340.2737121582031 595.7188720703125 325.5012512207031 620.5106201171875 C 287.8407897949219 610.3096313476562 282.67034912109375 604.1904907226562 288.4679260253906 539.96240234375 C 286.05364990234375 488.84954833984375 308.31243896484375 497.2525329589844 325.9880676269531 510.4934387207031 C 324.7063293457031 524.0872192382812 333.6015319824219 558.6951293945312 324.95367431640625 559.9212646484375" stroke-width="0.0" fill="rgb(37, 176, 189)" opacity="0.68503165"/>
    <path d="M 567.2403564453125 369.0563659667969 C 556.4376220703125 389.7456970214844 551.1721801757812 392.5873107910156 549.9183349609375 344.29949951171875 C 544.9803466796875 348.9498596191406 521.0590209960938 373.07568359375 545.7135009765625 364.52264404296875 C 551.4373779296875 333.24853515625 571.330322265625 322.3979797363281 563.1441040039062 320.1333312988281 C 592.5032348632812 307.4852600097656 586.0072631835938 332.024658203125 567.2403564453125 369.0563659667969" stroke-width="0.0" fill="rgb(255, 169, 10)" opacity="0.8582153"/>
    <path d="M 417.0259094238281 71.0252685546875 C 421.0 130.53021240234375 423.701171875 125.07445526123047 417.2815246582031 127.97444152832031 C 351.90350341796875 135.1962890625 326.2246398925781 133.49835205078125 344.6768798828125 142.75975036621094 C 336.319580078125 59.33549499511719 351.0579833984375 68.07530975341797 373.2578125 87.85076141357422 C 377.6837463378906 66.31901550292969 387.49560546875 72.82049560546875 417.0259094238281 71.0252685546875" stroke-width="0.0" fill="rgb(81, 252, 0)" opacity="0.9288667"/>
    <path d="M 242.54409790039062 399.909423828125 C 269.12982177734375 433.1827697753906 224.90989685058594 412.2667541503906 170.0013427734375 387.4853515625 C 140.02247619628906 397.026123046875 157.72348022460938 402.45111083984375 208.97398376464844 414.2513732910156 C 217.75833129882812 448.80029296875 220.42794799804688 408.4632568359375 182.72154235839844 396.80169677734375 C 174.85577392578125 354.02032470703125 231.04483032226562 328.32440185546875 242.54409790039062 399.909423828125" stroke-width="0.0" fill="rgb(0, 0, 8)" opacity="1.0"/>
    <path d="M 92.50180053710938 190.02474975585938 C 104.44823455810547 250.3031768798828 110.86531829833984 284.83612060546875 78.89514923095703 277.20916748046875 C 33.23307418823242 276.3558654785156 35.16012191772461 252.28514099121094 18.6967830657959 240.5398712158203 C 24.10032844543457 146.165283203125 10.986493110656738 140.3459014892578 70.21870422363281 142.4546356201172 C 134.13693237304688 168.2141876220703 141.01663208007812 180.6650848388672 92.50180053710938 190.02474975585938" stroke-width="0.0" fill="rgb(37, 233, 247)" opacity="0.6960871"/>
    <path d="M 341.94171142578125 76.59981536865234 C 347.02264404296875 78.4823226928711 310.8087158203125 81.56211853027344 272.22412109375 83.79531860351562 C 275.9183044433594 90.13735961914062 269.6619873046875 83.71878814697266 259.76806640625 23.838319778442383 C 254.41148376464844 9.182000160217285 257.62860107421875 7.692081451416016 286.1006774902344 6.322055339813232 C 339.6737060546875 14.86779499053955 345.3570556640625 23.59453582763672 341.94171142578125 76.59981536865234" stroke-width="0.0" fill="rgb(87, 242, 36)" opacity="0.7201188"/>
    <path d="M 555.1019897460938 509.2348937988281 C 563.7023315429688 528.5869750976562 571.5348510742188 558.1832275390625 534.8311157226562 570.615966796875 C 501.03887939453125 554.8631591796875 506.33233642578125 532.5725708007812 488.2724304199219 512.0493774414062 C 467.569091796875 487.108154296875 486.467529296875 477.1430358886719 505.9491882324219 449.1181640625 C 552.3562622070312 432.8656311035156 568.6397705078125 457.9004211425781 555.1019897460938 509.2348937988281" stroke-width="0.0" fill="rgb(60, 240, 206)" opacity="0.5903428"/>
    <path d="M -13.680832862854004 403.8157043457031 C -5.797183513641357 406.8238525390625 -20.427196502685547 410.3397521972656 -26.39080810546875 428.7762451171875 C -3.320216655731201 467.09033203125 -13.162517547607422 460.1686706542969 -36.0085563659668 429.8914794921875 C -9.354451179504395 404.9503173828125 20.628063201904297 421.4606018066406 23.403106689453125 387.5649719238281 C 31.737667083740234 371.71783447265625 -18.84748077392578 382.05743408203125 -13.680832862854004 403.8157043457031" stroke-width="0.0" fill="rgb(130, 181, 152)" opacity="0.49623382"/>
    <path d="M 370.6882019042969 130.29541015625 C 329.7915954589844 140.81468200683594 300.8731689453125 147.41189575195312 327.229736328125 154.0280303955078 C 273.1572265625 151.05258178710938 224.05665588378906 171.4800262451172 228.6532440185547 135.64913940429688 C 262.3261413574219 114.71780395507812 260.6824645996094 123.87506103515625 282.4546813964844 122.72225189208984 C 301.8097229003906 121.41419982910156 357.3144836425781 97.49820709228516 370.6882019042969 130.29541015625" stroke-width="0.0" fill="rgb(82, 241, 0)" opacity="0.7704977"/>
    <path d="M 634.1847534179688 510.46258544921875 C 614.8790893554688 567.3326416015625 614.2407836914062 576.3759155273438 614.9810791015625 615.608642578125 C 532.6952514648438 621.170654296875 511.6651916503906 613.9937133789062 537.041259765625 556.9833374023438 C 540.3053588867188 466.88177490234375 555.0282592773438 463.45452880859375 615.7755737304688 477.5624084472656 C 608.763916015625 459.75048828125 619.9032592773438 462.6911926269531 634.1847534179688 510.46258544921875" stroke-width="0.0" fill="rgb(2, 132, 157)" opacity="0.98774797"/>
    <path d="M 608.904296875 455.4105529785156 C 608.47021484375 466.9927673339844 605.39892578125 479.97259521484375 592.0624389648438 498.60845947265625 C 574.99658203125 490.9679870605469 549.9290771484375 482.5390319824219 562.3535766601562 451.3420715332031 C 600.672119140625 464.6921081542969 608.3511962890625 478.9513854980469 618.72314453125 471.4388122558594 C 594.8555297851562 451.4666748046875 603.9727783203125 458.14337158203125 608.904296875 455.4105529785156" stroke-width="0.0" fill="rgb(32, 192, 177)" opacity="0.6732567"/>
    <path d="M 588.448974609375 379.62615966796875 C 528.3800048828125 451.7962341308594 508.64691162109375 454.1963806152344 483.9556579589844 488.42901611328125 C 462.21417236328125 483.6582946777344 453.41680908203125 471.0599365234375 415.6768493652344 429.9910583496094 C 465.0321044921875 416.05450439453125 484.671875 400.69354248046875 513.672119140625 379.673095703125 C 546.8843383789062 351.6693115234375 560.6730346679688 343.4219665527344 588.448974609375 379.62615966796875" stroke-width="0.0" fill="rgb(255, 180, 1)" opacity="0.9983025"/>
    <path d="M 445.9471740722656 296.6333923339844 C 407.18035888671875 301.0379333496094 379.23468017578125 294.6844787597656 388.7869873046875 281.9532470703125 C 385.9503479003906 282.3947448730469 368.8782958984375 280.4944763183594 368.8651428222656 273.8727722167969 C 363.42388916015625 288.70709228515625 378.4769287109375 269.71490478515625 418.882568359375 264.4726867675781 C 445.04071044921875 257.3564758300781 465.1095886230469 254.75341796875 445.9471740722656 296.6333923339844" stroke-width="0.0" fill="rgb(113, 151, 3)" opacity="0.39798588"/>
    <path d="M 510.6917419433594 70.50931549072266 C 509.4104919433594 124.21894836425781 527.6754150390625 126.52116394042969 502.3865966796875 134.28977966308594 C 437.3245849609375 138.33119201660156 434.2042236328125 144.27725219726562 427.412353515625 124.33186340332031 C 396.11663818359375 87.93293762207031 399.9557189941406 66.89608764648438 416.408935546875 30.792556762695312 C 495.0310363769531 36.64278030395508 508.7171630859375 57.46036911010742 510.6917419433594 70.50931549072266" stroke-width="0.0" fill="rgb(118, 232, 5)" opacity="0.8442676"/>
    <path d="M 605.35986328125 506.32763671875 C 606.12744140625 519.8568115234375 603.7796020507812 535.9346313476562 604.2988891601562 545.5794677734375 C 603.0698852539062 545.6696166992188 599.8719482421875 546.1148681640625 608.7504272460938 554.1964721679688 C 606.7015991210938 538.6572265625 615.7634887695312 533.1051635742188 624.1724243164062 519.1613159179688 C 611.2205200195312 505.0584411621094 617.8346557617188 513.2511596679688 605.35986328125 506.32763671875" stroke-width="0.0" fill="rgb(96, 76, 134)" opacity="0.52826303"/>
    <path d="M 455.7066345214844 474.6484680175781 C 399.24322509765625 495.6226501464844 385.9912109375 496.53863525390625 393.5540466308594 520.1432495117188 C 363.4231872558594 520.2106323242188 305.44720458984375 507.1021728515625 312.5926208496094 431.40692138671875 C 325.6800231933594 428.9104919433594 359.4024658203125 433.4880065917969 387.4964904785156 439.1075134277344 C 437.3788146972656 421.3038635253906 444.606689453125 425.5078430175781 455.7066345214844 474.6484680175781" stroke-width="0.0" fill="rgb(255, 171, 10)" opacity="0.9702223"/>
    <path d="M 629.2693481445312 452.724365234375 C 646.7074584960938 492.363037109375 649.6765747070312 508.4517822265625 576.4718627929688 535.1467895507812 C 508.26849365234375 496.29095458984375 533.6561279296875 468.407470703125 540.538330078125 459.0831604003906 C 542.0498657226562 414.73199462890625 557.6597290039062 397.0097351074219 567.09326171875 370.26629638671875 C 624.356201171875 361.8141784667969 625.3690185546875 378.0361633300781 629.2693481445312 452.724365234375" stroke-width="0.0" fill="rgb(54, 208, 249)" opacity="0.97818756"/>
    <path d="M 445.2078552246094 67.76124572753906 C 405.6793518066406 60.47503662109375 385.2187194824219 67.347412109375 352.8526306152344 65.44469451904297 C 355.5342102050781 106.114501953125 346.2982482910156 104.73626708984375 390.849853515625 108.09988403320312 C 395.3527526855469 110.29578399658203 377.53546142578125 76.95454406738281 375.24432373046875 -11.255236625671387 C 443.7132263183594 -10.175806045532227 462.44049072265625 11.894651412963867 445.2078552246094 67.76124572753906" stroke-width="0.0" fill="rgb(70, 189, 32)" opacity="0.8859109"/>
    <path d="M 208.35919189453125 69.1753158569336 C 196.60528564453125 99.90553283691406 170.61019897460938 96.7425765991211 157.34716796875 97.23365783691406 C 102.65863037109375 94.85971069335938 108.95049285888672 91.8709487915039 140.28082275390625 95.97396087646484 C 151.38450622558594 73.09879302978516 154.91712951660156 67.84519958496094 184.168701171875 55.19544982910156 C 186.0081329345703 34.554996490478516 205.52288818359375 41.666221618652344 208.35919189453125 69.1753158569336" stroke-width="0.0" fill="rgb(89, 189, 49)" opacity="0.5802619"/>
    <path d="M 205.85472106933594 398.8623352050781 C 185.12649536132812 488.63262939453125 186.739501953125 488.5657043457031 114.82718658447266 523.1212158203125 C 72.62832641601562 522.5374145507812 119.95130920410156 499.63494873046875 72.50965881347656 484.30303955078125 C 112.9864501953125 438.406982421875 115.08458709716797 412.6083068847656 108.99669647216797 370.86279296875 C 158.38351440429688 376.2490234375 182.43511962890625 387.1982421875 205.85472106933594 398.8623352050781" stroke-width="0.0" fill="rgb(36, 200, 238)" opacity="0.9989324"/>
    <path d="M 90.4219970703125 258.45635986328125 C 82.01603698730469 291.4828186035156 95.09406280517578 315.00653076171875 64.56986236572266 326.74755859375 C 9.873967170715332 314.00244140625 30.00763702392578 306.24945068359375 9.690847396850586 284.18890380859375 C 39.17866134643555 260.30950927734375 58.59293746948242 265.15753173828125 49.760074615478516 254.15892028808594 C 78.98357391357422 244.28643798828125 80.6710433959961 242.16915893554688 90.4219970703125 258.45635986328125" stroke-width="0.0" fill="rgb(79, 232, 246)" opacity="0.39368734"/>
    <path d="M 371.5174560546875 432.5087890625 C 352.4736633300781 436.984130859375 350.54132080078125 454.3331298828125 328.28680419921875 443.9620056152344 C 308.889892578125 442.752685546875 344.502685546875 463.2618408203125 308.7372131347656 453.8268127441406 C 276.85162353515625 422.247314453125 285.23712158203125 393.4671630859375 330.9941711425781 383.9712829589844 C 369.00506591796875 374.3119201660156 381.4225769042969 384.09332275390625 371.5174560546875 432.5087890625" stroke-width="0.0" fill="rgb(205, 203, 164)" opacity="0.2739905"/>
    <path d="M 312.46734619140625 110.6719741821289 C 336.53759765625 157.91912841796875 297.95745849609375 139.38943481445312 224.50100708007812 142.13690185546875 C 193.40394592285156 150.97999572753906 191.12109375 126.47525024414062 158.9640350341797 62.606414794921875 C 161.80538940429688 13.679544448852539 179.98800659179688 22.68678855895996 257.9219665527344 -8.189598083496094 C 298.4020690917969 6.46417236328125 303.0603332519531 24.473770141601562 312.46734619140625 110.6719741821289" stroke-width="0.0" fill="rgb(140, 218, 56)" opacity="0.98721457"/>
    <path d="M 423.4605407714844 225.47463989257812 C 478.83953857421875 201.6642608642578 435.5204162597656 216.36097717285156 428.9008483886719 221.18624877929688 C 410.3302001953125 222.67724609375 401.678955078125 209.18954467773438 409.5194091796875 208.2798614501953 C 397.6387023925781 214.29208374023438 405.16876220703125 216.28250122070312 403.9217224121094 212.45672607421875 C 401.7792053222656 206.91802978515625 407.02288818359375 230.57498168945312 423.4605407714844 225.47463989257812" stroke-width="0.0" fill="rgb(64, 0, 0)" opacity="0.96302754"/>
    <path d="M 622.2064819335938 398.15252685546875 C 630.2863159179688 411.3388366699219 630.5463256835938 423.761962890625 607.2947998046875 420.0723571777344 C 596.2646484375 409.1871643066406 570.420654296875 393.83209228515625 565.7620849609375 377.8305969238281 C 567.61572265625 351.7652893066406 575.9796142578125 355.90045166015625 602.0911865234375 361.6910400390625 C 613.524658203125 367.2745361328125 616.6917724609375 378.62713623046875 622.2064819335938 398.15252685546875" stroke-width="0.0" fill="rgb(20, 224, 212)" opacity="0.6262073"/>
    <path d="M 214.85873413085938 39.419593811035156 C 216.22970581054688 24.29738998413086 196.6637725830078 31.383251190185547 204.7152099609375 68.15986633300781 C 189.58297729492188 65.09134674072266 176.00387573242188 79.41089630126953 175.2317657470703 45.5262336730957 C 161.7468719482422 47.96125030517578 190.2229766845703 44.66212463378906 163.3539581298828 29.184358596801758 C 187.81687927246094 27.020734786987305 225.3167266845703 30.838953018188477 214.85873413085938 39.419593811035156" stroke-width="0.0" fill="rgb(33, 220, 7)" opacity="0.6119768"/>
    <path d="M 550.977783203125 302.4067077636719 C 558.841796875 330.0889892578125 545.737548828125 331.4427795410156 464.6161804199219 352.13336181640625 C 440.7975769042969 361.844970703125 438.84454345703125 333.9397888183594 436.61444091796875 290.8802185058594 C 465.5775146484375 242.09124755859375 504.278564453125 229.83685302734375 555.8057861328125 235.7620391845703 C 533.1542358398438 291.2608947753906 549.6176147460938 290.85992431640625 550.977783203125 302.4067077636719" stroke-width="0.0" fill="rgb(231, 188, 4)" opacity="0.88781184"/>
    <path d="M 25.839435577392578 419.0927429199219 C 28.574195861816406 425.969482421875 30.281991958618164 417.6448974609375 8.874947547912598 425.7246398925781 C 9.817121505737305 456.9672546386719 -8.264091491699219 441.8323669433594 -41.594486236572266 405.5749206542969 C -22.76791000366211 387.60028076171875 -5.024880409240723 393.2374267578125 17.656604766845703 392.84649658203125 C 33.6755485534668 370.2810363769531 30.387168884277344 401.6727600097656 25.839435577392578 419.0927429199219" stroke-width="0.0" fill="rgb(151, 255, 161)" opacity="0.29188237"/>
    <path d="M 379.5193176269531 196.91346740722656 C 361.56768798828125 201.1692352294922 337.5946960449219 222.2190399169922 343.10906982421875 219.8228302001953 C 356.9820251464844 214.07310485839844 356.2886962890625 216.84719848632812 357.1650695800781 230.71658325195312 C 350.3600158691406 228.84800720214844 370.3224792480469 217.67465209960938 378.9345397949219 210.54043579101562 C 382.0480041503906 197.6985626220703 391.9829406738281 186.927490234375 379.5193176269531 196.91346740722656" stroke-width="0.0" fill="rgb(126, 74, 20)" opacity="0.0017379051"/>
    <path d="M 551.8046264648438 435.2904357910156 C 550.8623046875 467.3957824707031 578.76025390625 436.4132995605469 546.8399658203125 458.3840026855469 C 487.4512023925781 516.2352294921875 459.43255615234375 518.5492553710938 458.5213317871094 469.3022155761719 C 503.6351318359375 445.3472900390625 517.1363525390625 436.5849914550781 519.3849487304688 434.0226745605469 C 527.5859375 413.2597351074219 568.5924072265625 407.0635986328125 551.8046264648438 435.2904357910156" stroke-width="0.0" fill="rgb(105, 218, 233)" opacity="0.90204614"/>
    <path d="M 465.7580261230469 466.6544494628906 C 479.2898254394531 516.1188354492188 457.5918273925781 535.4793090820312 384.43658447265625 549.7042846679688 C 382.357177734375 556.3972778320312 380.9064025878906 534.9091186523438 382.9353332519531 483.9898376464844 C 424.941162109375 485.83184814453125 440.0769348144531 486.3566589355469 434.4280700683594 466.50567626953125 C 433.56060791015625 478.5851745605469 445.9627990722656 480.5151062011719 465.7580261230469 466.6544494628906" stroke-width="0.0" fill="rgb(163, 181, 81)" opacity="0.16933872"/>
    <path d="M 491.1211853027344 432.9373779296875 C 481.3625793457031 471.6880798339844 462.4884948730469 466.9608459472656 409.4913024902344 469.699462890625 C 378.64642333984375 470.242919921875 361.54742431640625 424.431396484375 387.87255859375 413.3563537597656 C 422.01446533203125 417.8638916015625 444.2954406738281 422.2204284667969 469.4185791015625 396.1119689941406 C 501.0032958984375 370.6091003417969 509.1904296875 363.7944641113281 491.1211853027344 432.9373779296875" stroke-width="0.0" fill="rgb(251, 192, 2)" opacity="0.2990293"/>
    <path d="M 480.4217224121094 491.5998840332031 C 414.2177429199219 513.9470825195312 419.0353698730469 502.4158020019531 394.7625732421875 545.7258911132812 C 398.0638427734375 539.130615234375 396.6065979003906 528.0139770507812 401.5711364746094 527.43017578125 C 430.517822265625 513.0785522460938 428.90679931640625 498.4745788574219 443.865234375 489.14617919921875 C 446.8990783691406 467.9891662597656 468.05615234375 458.7149963378906 480.4217224121094 491.5998840332031" stroke-width="0.0" fill="rgb(75, 244, 239)" opacity="0.81105983"/>
    <path d="M 238.57244873046875 233.67605590820312 C 195.97720336914062 271.0509338378906 178.28033447265625 276.5394287109375 154.62010192871094 274.524658203125 C 91.99887084960938 271.2574462890625 85.54483795166016 259.6451721191406 79.8673095703125 188.9137420654297 C 90.89995574951172 183.08224487304688 100.39128875732422 179.8123016357422 108.58019256591797 165.10768127441406 C 172.84571838378906 174.1251220703125 194.81570434570312 161.10206604003906 238.57244873046875 233.67605590820312" stroke-width="0.0" fill="rgb(24, 200, 236)" opacity="0.9137238"/>
    <path d="M 361.2926940917969 8.92357063293457 C 368.28924560546875 42.11305236816406 348.3616638183594 33.25148391723633 329.4503173828125 -8.48430061340332 C 333.02667236328125 53.34121322631836 310.9917907714844 42.99937438964844 316.3546447753906 4.87369966506958 C 319.0902099609375 -9.32101821899414 321.3220520019531 -28.739669799804688 321.84222412109375 -31.417924880981445 C 346.06854248046875 -28.546371459960938 360.19964599609375 -29.803386688232422 361.2926940917969 8.92357063293457" stroke-width="0.0" fill="rgb(162, 142, 95)" opacity="0.46054602"/>
    <path d="M 430.9541015625 116.12313079833984 C 452.7408142089844 105.55487823486328 455.71630859375 141.7047119140625 450.1016540527344 129.42962646484375 C 424.1202697753906 119.8045425415039 412.71417236328125 106.29685974121094 409.2785339355469 87.18480682373047 C 409.0630798339844 44.125579833984375 402.2723083496094 54.498779296875 397.8105163574219 57.2674560546875 C 403.2569274902344 98.88581085205078 406.35882568359375 117.86468505859375 430.9541015625 116.12313079833984" stroke-width="0.0" fill="rgb(74, 125, 54)" opacity="0.55718285"/>
    <path d="M 212.90562438964844 532.494873046875 C 190.56076049804688 565.0518188476562 173.50115966796875 561.3650512695312 146.7196807861328 518.873291015625 C 125.89114379882812 488.67938232421875 122.20683288574219 469.9526062011719 114.6504898071289 432.89105224609375 C 105.89069366455078 399.34912109375 128.56631469726562 418.5538330078125 170.05577087402344 434.47943115234375 C 180.67047119140625 439.28997802734375 195.5108184814453 431.1737060546875 212.90562438964844 532.494873046875" stroke-width="0.0" fill="rgb(241, 118, 0)" opacity="0.9475537"/>
    <path d="M 168.26341247558594 177.0702362060547 C 163.60240173339844 205.0146484375 181.07313537597656 221.82098388671875 208.8385009765625 175.65402221679688 C 175.04058837890625 186.5028839111328 144.31288146972656 183.5659942626953 142.63340759277344 185.2279510498047 C 121.25858306884766 187.0332489013672 129.14224243164062 178.40089416503906 163.18125915527344 180.3894805908203 C 178.3178253173828 180.54368591308594 187.78237915039062 181.65701293945312 168.26341247558594 177.0702362060547" stroke-width="0.0" fill="rgb(142, 119, 253)" opacity="0.22405246"/>
    <path d="M 124.69078826904297 140.3455810546875 C 96.95970153808594 157.66412353515625 87.88407897949219 169.53994750976562 80.53960418701172 167.28909301757812 C 76.1601791381836 170.35374450683594 43.109066009521484 179.1592559814453 -3.1466774940490723 129.30047607421875 C 15.254738807678223 90.96736145019531 38.37785339355469 72.64002990722656 100.87319946289062 71.38479614257812 C 120.70526123046875 90.1833724975586 123.26762390136719 111.99491882324219 124.69078826904297 140.3455810546875" stroke-width="0.0" fill="rgb(150, 205, 33)" opacity="0.8054879"/>
    <path d="M 430.91815185546875 134.78854370117188 C 459.4120178222656 159.04611206054688 450.70782470703125 149.310302734375 453.71258544921875 130.10862731933594 C 448.9133605957031 124.086181640625 443.2867126464844 105.4591293334961 422.0731201171875 113.4908447265625 C 401.68988037109375 134.17137145996094 420.75433349609375 130.9280548095703 422.0221862792969 132.407470703125 C 426.08544921875 134.41925048828125 432.9225158691406 137.14712524414062 430.91815185546875 134.78854370117188" stroke-width="0.0" fill="rgb(1, 2, 18)" opacity="0.99544835"/>
    <path d="M 426.975341796875 216.92611694335938 C 438.03955078125 228.48648071289062 395.7978820800781 231.14939880371094 429.9651184082031 222.210205078125 C 445.4113464355469 195.46250915527344 427.08416748046875 216.2586669921875 414.6756896972656 199.27809143066406 C 417.17236328125 197.76756286621094 421.2462158203125 195.532470703125 416.30877685546875 197.87957763671875 C 447.0814514160156 190.59817504882812 449.3017883300781 186.63787841796875 426.975341796875 216.92611694335938" stroke-width="0.0" fill="rgb(2, 2, 14)" opacity="0.9942504"/>
    <path d="M 220.533935546875 105.46601867675781 C 229.07940673828125 148.6887969970703 209.43612670898438 150.18045043945312 157.24974060058594 128.89804077148438 C 157.71331787109375 130.36610412597656 153.4362030029297 127.7669448852539 117.28970336914062 117.57524871826172 C 131.33367919921875 76.84854125976562 141.23101806640625 72.42327880859375 154.1858673095703 36.324485778808594 C 218.80856323242188 23.427099227905273 228.37168884277344 27.999757766723633 220.533935546875 105.46601867675781" stroke-width="0.0" fill="rgb(136, 219, 56)" opacity="0.99589914"/>
    <path d="M 58.927303314208984 149.42245483398438 C 67.22137451171875 188.21746826171875 28.529150009155273 189.55615234375 5.082413196563721 181.69158935546875 C -23.10614013671875 175.29193115234375 -31.89742088317871 180.13067626953125 -37.470645904541016 148.5616455078125 C -21.05184555053711 133.91848754882812 -10.791792869567871 126.6551742553711 6.74528169631958 88.61015319824219 C 60.67194747924805 82.25729370117188 52.65888977050781 100.36640930175781 58.927303314208984 149.42245483398438" stroke-width="0.0" fill="rgb(182, 215, 76)" opacity="0.8663283"/>
    <path d="M 577.9796752929688 488.3996276855469 C 540.294189453125 511.26983642578125 520.3654174804688 515.3646240234375 513.0182495117188 486.94952392578125 C 534.46826171875 480.6266784667969 536.0314331054688 476.4798889160156 540.6858520507812 502.87213134765625 C 561.4904174804688 489.3701477050781 572.3984375 487.7855224609375 540.9948120117188 468.1989440917969 C 537.071533203125 460.4596862792969 578.5596313476562 460.11114501953125 577.9796752929688 488.3996276855469" stroke-width="0.0" fill="rgb(79, 165, 205)" opacity="0.08517439"/>
    <path d="M 106.43810272216797 182.339599609375 C 114.390380859375 273.3115539550781 112.104736328125 264.1827697753906 50.40626525878906 238.31143188476562 C -39.78800582885742 255.32455444335938 -11.026896476745605 248.4427490234375 -17.128543853759766 189.57888793945312 C -48.16389083862305 151.4212646484375 -54.509761810302734 138.41175842285156 8.249738693237305 140.37542724609375 C 103.5691146850586 135.79592895507812 111.66757202148438 134.45428466796875 106.43810272216797 182.339599609375" stroke-width="0.0" fill="rgb(45, 200, 225)" opacity="1.0"/>
    <path d="M 123.64894104003906 105.9638671875 C 161.76736450195312 88.26558685302734 176.8611602783203 120.45265197753906 174.1835174560547 90.7156982421875 C 153.47689819335938 85.60948181152344 147.7100067138672 76.27405548095703 113.84326934814453 66.37554931640625 C 101.45970916748047 96.96128845214844 102.17271423339844 106.57723999023438 160.43479919433594 96.56330871582031 C 163.98233032226562 41.121429443359375 143.08251953125 57.152259826660156 123.64894104003906 105.9638671875" stroke-width="0.0" fill="rgb(110, 242, 10)" opacity="0.39265817"/>
    <path d="M 454.64825439453125 81.23355865478516 C 444.524658203125 103.38829803466797 423.5060119628906 110.16284942626953 397.3290100097656 113.45631408691406 C 400.5079040527344 110.18077850341797 396.59356689453125 103.41228485107422 391.164306640625 99.17096710205078 C 373.5299377441406 56.8853645324707 371.4902038574219 33.93880844116211 454.3222961425781 25.618982315063477 C 455.74383544921875 18.0301513671875 452.7019958496094 44.26801681518555 454.64825439453125 81.23355865478516" stroke-width="0.0" fill="rgb(146, 216, 47)" opacity="0.8597786"/>
    <path d="M 627.401611328125 268.06097412109375 C 619.0659790039062 279.0915832519531 612.0092163085938 284.81011962890625 623.876953125 266.80535888671875 C 593.6275634765625 250.7677459716797 584.8477783203125 240.18911743164062 576.6083984375 254.82785034179688 C 577.6351928710938 280.8224182128906 596.0460205078125 264.8092346191406 603.719482421875 246.61349487304688 C 608.7371215820312 241.6212921142578 620.508544921875 249.28085327148438 627.401611328125 268.06097412109375" stroke-width="0.0" fill="rgb(75, 198, 126)" opacity="0.29226503"/>
    <path d="M 294.0277099609375 246.3089141845703 C 271.6696472167969 283.4433898925781 256.53607177734375 280.6776123046875 223.704345703125 260.98748779296875 C 207.6523895263672 259.0924377441406 214.382080078125 222.6116485595703 214.8467254638672 188.36544799804688 C 216.05538940429688 195.27500915527344 214.50450134277344 193.54782104492188 224.91421508789062 185.11256408691406 C 233.23558044433594 189.40228271484375 239.4739990234375 206.39923095703125 294.0277099609375 246.3089141845703" stroke-width="0.0" fill="rgb(44, 46, 83)" opacity="0.98770285"/>
    <path d="M 351.44134521484375 421.21234130859375 C 358.3426208496094 432.32000732421875 374.6665344238281 423.687744140625 299.2940979003906 425.6399841308594 C 263.0846862792969 442.4704895019531 244.70254516601562 406.0107727050781 313.1069641113281 417.2313537597656 C 316.5083923339844 399.74993896484375 316.9768371582031 375.4270324707031 337.5067443847656 372.27398681640625 C 354.9824523925781 369.02203369140625 352.9166259765625 391.5207824707031 351.44134521484375 421.21234130859375" stroke-width="0.0" fill="rgb(149, 92, 113)" opacity="0.28879213"/>
    <path d="M 515.5316772460938 -0.96632981300354 C 518.15869140625 44.34136199951172 533.7216796875 63.18035125732422 515.127685546875 13.399304389953613 C 492.9053039550781 -6.820209503173828 460.78369140625 -0.388598769903183 472.9045104980469 1.5849337577819824 C 482.1798095703125 -10.442957878112793 473.4980163574219 -31.394044876098633 494.7864685058594 -60.210235595703125 C 508.6602478027344 -28.9553279876709 508.3546142578125 -16.408092498779297 515.5316772460938 -0.96632981300354" stroke-width="0.0" fill="rgb(103, 251, 83)" opacity="0.43629488"/>
    <path d="M 138.4746856689453 194.95167541503906 C 121.81256103515625 200.3705596923828 98.99137115478516 200.0619354248047 107.09059143066406 192.80157470703125 C 132.34300231933594 195.91006469726562 126.5525894165039 180.75994873046875 100.80335998535156 189.58096313476562 C 103.98133850097656 196.9082794189453 107.04856872558594 177.91110229492188 135.40814208984375 174.87649536132812 C 107.52014923095703 161.77276611328125 120.90586853027344 183.91282653808594 138.4746856689453 194.95167541503906" stroke-width="0.0" fill="rgb(60, 219, 230)" opacity="0.048586596"/>
    <path d="M 302.4710998535156 539.6924438476562 C 333.37457275390625 618.9572143554688 303.0179443359375 608.687255859375 197.8870391845703 623.6040649414062 C 161.76698303222656 616.39013671875 148.02392578125 570.6292724609375 189.23370361328125 540.1012573242188 C 239.1819305419922 519.77587890625 253.7127685546875 528.9381103515625 245.2571258544922 496.5792236328125 C 267.3355407714844 488.79241943359375 289.25616455078125 488.7349548339844 302.4710998535156 539.6924438476562" stroke-width="0.0" fill="rgb(17, 206, 239)" opacity="0.6677193"/>
    <path d="M 236.8248291015625 258.4302978515625 C 223.87770080566406 295.7499694824219 214.95767211914062 294.4520568847656 225.70697021484375 348.1468505859375 C 159.60769653320312 352.2809753417969 136.79237365722656 343.43316650390625 142.97662353515625 273.3050842285156 C 159.54408264160156 256.548095703125 171.79110717773438 250.82601928710938 173.01361083984375 224.7257080078125 C 210.61451721191406 214.18890380859375 235.11070251464844 230.71804809570312 236.8248291015625 258.4302978515625" stroke-width="0.0" fill="rgb(40, 203, 203)" opacity="0.93080014"/>
    <path d="M 202.23641967773438 61.426387786865234 C 123.70796203613281 64.26167297363281 141.9813995361328 56.90991973876953 162.39195251464844 100.08051300048828 C 98.13015747070312 112.11198425292969 48.46540069580078 136.8637237548828 38.42422103881836 1.0622165203094482 C 52.409095764160156 -24.10248565673828 90.60111236572266 -17.399492263793945 154.61349487304688 -9.856573104858398 C 185.3201446533203 7.525511741638184 206.45977783203125 -5.568449020385742 202.23641967773438 61.426387786865234" stroke-width="0.0" fill="rgb(149, 217, 51)" opacity="0.9789126"/>
    <path d="M 578.3804321289062 537.355224609375 C 564.3778076171875 560.2242431640625 539.62451171875 560.3563842773438 528.8665161132812 584.7210693359375 C 472.64404296875 596.6488037109375 483.1508483886719 583.1525268554688 467.2211608886719 538.2586669921875 C 463.7118225097656 478.6275329589844 474.2239685058594 476.8292541503906 503.2619934082031 490.4553527832031 C 536.7847290039062 494.0101623535156 556.5980224609375 499.42449951171875 578.3804321289062 537.355224609375" stroke-width="0.0" fill="rgb(20, 246, 234)" opacity="0.6080201"/>
    <path d="M 339.0031433105469 423.69647216796875 C 358.8903503417969 436.11676025390625 382.5439453125 419.4013366699219 372.8628845214844 390.1825866699219 C 349.4272766113281 373.27117919921875 336.9434814453125 369.6624755859375 334.8085021972656 377.9930114746094 C 353.27301025390625 388.6781921386719 355.71533203125 397.04296875 364.8320007324219 404.632568359375 C 355.03790283203125 385.56817626953125 339.1322021484375 389.9726867675781 339.0031433105469 423.69647216796875" stroke-width="0.0" fill="rgb(0, 35, 104)" opacity="0.26740688"/>
    <path d="M 189.10057067871094 223.3915252685547 C 196.29635620117188 222.52354431152344 180.780517578125 215.96484375 190.42477416992188 191.38839721679688 C 171.9741668701172 200.41217041015625 150.0003662109375 196.54832458496094 125.06028747558594 167.9762725830078 C 108.45195007324219 149.8940887451172 130.5275115966797 158.96287536621094 172.17921447753906 154.7151641845703 C 171.8829345703125 197.6962432861328 172.05850219726562 208.88873291015625 189.10057067871094 223.3915252685547" stroke-width="0.0" fill="rgb(0, 178, 213)" opacity="0.14623444"/>
    <path d="M 86.64978790283203 354.41986083984375 C 31.288410186767578 351.0043640136719 57.4390754699707 349.8690185546875 80.67965698242188 346.6610107421875 C 54.01723098754883 342.9222717285156 -4.826175212860107 347.935546875 -29.0103759765625 321.90850830078125 C 1.4292019605636597 262.86468505859375 14.495491981506348 283.3811950683594 75.10359954833984 291.80670166015625 C 126.79804229736328 300.0451354980469 148.15382385253906 354.4595642089844 86.64978790283203 354.41986083984375" stroke-width="0.0" fill="rgb(2, 192, 224)" opacity="0.87045467"/>
    <path d="M 532.0362548828125 352.38922119140625 C 505.06866455078125 379.106201171875 487.2761535644531 389.0142822265625 453.7919616699219 401.6575622558594 C 411.09814453125 423.51483154296875 407.36322021484375 398.314208984375 425.2393798828125 367.3180236816406 C 436.60577392578125 336.2308044433594 436.6324462890625 299.8945007324219 447.9101867675781 312.56085205078125 C 545.5519409179688 340.0581970214844 572.5247192382812 311.2501220703125 532.0362548828125 352.38922119140625" stroke-width="0.0" fill="rgb(138, 45, 0)" opacity="1.0"/>
    <path d="M 286.4056396484375 -5.864578723907471 C 293.51593017578125 41.1270637512207 259.3339538574219 40.819541931152344 247.4365234375 39.152557373046875 C 179.83802795410156 44.813140869140625 155.5625457763672 32.42627716064453 149.28579711914062 19.424911499023438 C 135.24758911132812 -7.563531398773193 152.0955047607422 -23.758445739746094 194.3451690673828 -54.788455963134766 C 238.91592407226562 -24.27363395690918 248.82302856445312 -18.151763916015625 286.4056396484375 -5.864578723907471" stroke-width="0.0" fill="rgb(23, 58, 25)" opacity="1.0"/>
    <path d="M 646.3842163085938 414.4188232421875 C 637.472412109375 482.7587890625 626.0287475585938 470.8760986328125 533.014404296875 473.5559997558594 C 503.64678955078125 473.9856262207031 490.507080078125 469.8842468261719 530.1339721679688 423.5206604003906 C 557.4134521484375 398.3674621582031 557.9318237304688 388.36102294921875 579.166259765625 331.11083984375 C 628.3970947265625 317.1137390136719 632.8574829101562 337.8023376464844 646.3842163085938 414.4188232421875" stroke-width="0.0" fill="rgb(102, 210, 253)" opacity="0.9376363"/>
    <path d="M 234.82443237304688 367.08026123046875 C 194.27517700195312 407.0019226074219 155.9066162109375 411.3590393066406 107.31977081298828 402.299072265625 C 96.6864242553711 364.2904052734375 82.66900634765625 348.34039306640625 99.29413604736328 336.33575439453125 C 97.67308044433594 293.3885498046875 96.30648803710938 273.337158203125 171.54957580566406 323.6567687988281 C 238.74314880371094 311.8556213378906 253.77220153808594 301.99102783203125 234.82443237304688 367.08026123046875" stroke-width="0.0" fill="rgb(32, 208, 237)" opacity="0.99903166"/>
    <path d="M 596.2125244140625 333.6462707519531 C 569.7703247070312 328.7930908203125 567.2782592773438 338.82354736328125 552.4654541015625 376.0074157714844 C 530.1747436523438 388.1718444824219 543.0904541015625 374.0379638671875 545.2791137695312 328.16778564453125 C 533.8341674804688 289.6746826171875 540.6929931640625 288.943603515625 550.3014526367188 314.2332458496094 C 597.3483276367188 301.21014404296875 611.0081176757812 292.0314025878906 596.2125244140625 333.6462707519531" stroke-width="0.0" fill="rgb(255, 157, 1)" opacity="0.2371817"/>
    <path d="M 580.2832641601562 -11.91331958770752 C 582.0771484375 54.395233154296875 593.3065185546875 80.90286254882812 543.9552612304688 70.25215911865234 C 449.1383972167969 65.99845123291016 446.77685546875 66.3465347290039 449.51776123046875 -0.14424417912960052 C 448.22198486328125 -58.430450439453125 456.81707763671875 -61.233978271484375 482.9652099609375 -62.6533088684082 C 540.3980102539062 -30.123455047607422 557.9473266601562 -25.5179443359375 580.2832641601562 -11.91331958770752" stroke-width="0.0" fill="rgb(26, 88, 26)" opacity="1.0"/>
    <path d="M 348.75518798828125 443.56561279296875 C 321.5196838378906 442.4033203125 321.9508056640625 414.8308410644531 322.9307861328125 440.54736328125 C 286.2119140625 471.296142578125 278.486083984375 464.2505187988281 272.6479187011719 451.6536865234375 C 278.9814758300781 440.4319152832031 299.9298400878906 416.2084655761719 298.7078857421875 423.580322265625 C 334.3494873046875 429.595947265625 328.79998779296875 439.9237060546875 348.75518798828125 443.56561279296875" stroke-width="0.0" fill="rgb(133, 109, 0)" opacity="0.78735095"/>
    <path d="M 602.769775390625 182.0312957763672 C 610.0859985351562 224.66436767578125 597.1777954101562 229.47389221191406 568.6484375 224.77989196777344 C 582.0098266601562 224.297119140625 554.3289794921875 239.03079223632812 500.3179931640625 219.52169799804688 C 500.64703369140625 127.43419647216797 509.7591857910156 137.5763702392578 536.0742797851562 180.2977752685547 C 538.9021606445312 142.26673889160156 543.210693359375 163.57199096679688 602.769775390625 182.0312957763672" stroke-width="0.0" fill="rgb(0, 153, 235)" opacity="0.7862351"/>
    <path d="M 178.52166748046875 600.062744140625 C 79.02383422851562 606.0940551757812 78.79259490966797 593.12939453125 70.4122314453125 607.5633544921875 C 12.78039836883545 626.3232421875 1.4989198446273804 599.0223999023438 -5.666557312011719 507.5918273925781 C 3.8219990730285645 480.94287109375 17.525941848754883 477.83807373046875 71.17041015625 484.1081237792969 C 131.81805419921875 501.2910461425781 183.2572784423828 515.4737548828125 178.52166748046875 600.062744140625" stroke-width="0.0" fill="rgb(11, 210, 245)" opacity="0.6611568"/>
    <path d="M 117.01162719726562 110.26628875732422 C 116.73251342773438 144.6653289794922 122.20204162597656 158.95053100585938 85.98552703857422 155.077880859375 C 75.7533187866211 103.18694305419922 80.89028930664062 89.92845916748047 36.43775177001953 98.86510467529297 C 44.59786605834961 88.57740783691406 67.8969497680664 89.649658203125 80.53219604492188 81.21477508544922 C 93.9190902709961 104.83671569824219 116.04631805419922 112.71961212158203 117.01162719726562 110.26628875732422" stroke-width="0.0" fill="rgb(65, 220, 104)" opacity="0.40256432"/>
    <path d="M 478.2311096191406 394.1507263183594 C 428.24566650390625 418.8747253417969 403.7438049316406 424.03363037109375 375.4393615722656 431.0036315917969 C 345.9866943359375 442.8819274902344 329.122802734375 452.4037780761719 355.0193786621094 437.4359436035156 C 399.6341247558594 428.8948974609375 407.7740173339844 408.9089660644531 424.6568298339844 369.06201171875 C 450.2315979003906 370.538818359375 507.5061340332031 370.3720397949219 478.2311096191406 394.1507263183594" stroke-width="0.0" fill="rgb(90, 43, 0)" opacity="0.99285513"/>
    <path d="M 402.69134521484375 89.81283569335938 C 392.2541198730469 137.75222778320312 362.8110046386719 138.34619140625 330.6109313964844 147.57142639160156 C 306.19940185546875 122.91413116455078 294.5634460449219 119.49259185791016 279.9388732910156 35.95595169067383 C 280.5392761230469 23.05063247680664 297.4977111816406 36.85708999633789 303.87811279296875 1.3417898416519165 C 405.69390869140625 16.673072814941406 404.9194030761719 14.983719825744629 402.69134521484375 89.81283569335938" stroke-width="0.0" fill="rgb(144, 236, 38)" opacity="0.9936677"/>
    <path d="M 398.63714599609375 193.7853240966797 C 392.1020812988281 206.73338317871094 379.84075927734375 223.7036590576172 380.0085754394531 217.23794555664062 C 377.1403503417969 223.7135772705078 353.1674499511719 226.97996520996094 342.5184631347656 201.0369415283203 C 349.1725769042969 176.00296020507812 370.9423828125 160.4859619140625 387.2328186035156 158.464599609375 C 402.8642272949219 160.4342041015625 416.203857421875 170.50588989257812 398.63714599609375 193.7853240966797" stroke-width="0.0" fill="rgb(0, 0, 15)" opacity="1.0"/>
    <path d="M 74.38265228271484 270.54876708984375 C 96.17912292480469 318.5199890136719 95.94749450683594 331.448486328125 46.743865966796875 327.5289306640625 C 8.246088027954102 371.0655517578125 -12.706673622131348 359.5145263671875 -3.2418320178985596 271.23931884765625 C 52.804134368896484 272.37200927734375 60.841007232666016 281.9433288574219 56.341094970703125 244.6486358642578 C 74.0845718383789 255.83607482910156 76.19552612304688 270.0094299316406 74.38265228271484 270.54876708984375" stroke-width="0.0" fill="rgb(30, 209, 220)" opacity="0.584896"/>
    <path d="M 65.46626281738281 238.3452606201172 C 52.822731018066406 286.4752197265625 55.12574768066406 303.61590576171875 73.88018035888672 308.2464904785156 C 24.164398193359375 322.82275390625 -12.844015121459961 317.890625 -47.69557189941406 265.31024169921875 C -32.722137451171875 225.4586639404297 -11.130122184753418 220.02020263671875 49.73415756225586 216.66983032226562 C 69.34375762939453 216.61923217773438 73.46260833740234 218.8955841064453 65.46626281738281 238.3452606201172" stroke-width="0.0" fill="rgb(36, 202, 221)" opacity="0.9999527"/>
    <path d="M 447.0440979003906 23.973873138427734 C 406.7022705078125 46.56230163574219 384.6121520996094 40.79293441772461 341.3152160644531 42.222660064697266 C 315.0482177734375 35.202884674072266 275.708984375 33.80308151245117 282.0846252441406 -11.602816581726074 C 301.75885009765625 -36.07966995239258 304.7763366699219 -48.921165466308594 372.0588073730469 -82.51005554199219 C 413.3034362792969 -62.65895462036133 441.04412841796875 -68.89739227294922 447.0440979003906 23.973873138427734" stroke-width="0.0" fill="rgb(54, 156, 32)" opacity="0.94977206"/>
    <path d="M 448.5299072265625 156.53358459472656 C 417.3573913574219 144.8245391845703 412.08282470703125 169.5867156982422 468.0289611816406 209.2884979248047 C 475.3047180175781 117.32845306396484 433.2683410644531 110.68034362792969 420.3449401855469 119.51300811767578 C 407.6569519042969 137.5009765625 416.4613952636719 110.46204376220703 431.4752502441406 110.11593627929688 C 428.72784423828125 116.6521224975586 435.5478210449219 101.53760528564453 448.5299072265625 156.53358459472656" stroke-width="0.0" fill="rgb(20, 0, 30)" opacity="0.95972526"/>
    <path d="M 142.71450805664062 130.4666748046875 C 128.18310546875 129.00302124023438 113.23323822021484 119.13311767578125 133.8338623046875 118.78460693359375 C 122.15213775634766 113.61720275878906 124.44393920898438 91.88015747070312 110.58975219726562 88.91265106201172 C 38.977169036865234 79.1401138305664 54.805484771728516 123.4399642944336 81.7690658569336 113.79226684570312 C 110.35662841796875 114.21198272705078 125.88286590576172 119.83907318115234 142.71450805664062 130.4666748046875" stroke-width="0.0" fill="rgb(245, 163, 47)" opacity="0.8356265"/>
    <path d="M 226.69744873046875 125.25228881835938 C 213.3760986328125 175.1748504638672 227.39361572265625 194.68075561523438 134.47238159179688 201.51712036132812 C 121.28096771240234 216.7528839111328 90.32273864746094 215.6101531982422 84.31793212890625 144.2980499267578 C 110.1268310546875 117.35614776611328 96.4084701538086 125.0945053100586 145.67190551757812 117.53225708007812 C 176.3106231689453 122.38595581054688 211.0167236328125 123.119384765625 226.69744873046875 125.25228881835938" stroke-width="0.0" fill="rgb(36, 194, 253)" opacity="1.0"/>
    <path d="M 532.8884887695312 554.7545776367188 C 543.9158325195312 546.5880737304688 520.688232421875 550.7509155273438 493.8626708984375 543.9808959960938 C 494.04168701171875 577.0661010742188 489.8795471191406 572.2616577148438 493.9898376464844 554.9946899414062 C 478.3643493652344 519.1102905273438 487.56658935546875 518.1028442382812 501.1559753417969 534.8475341796875 C 518.357421875 506.4359130859375 529.6141967773438 541.466064453125 532.8884887695312 554.7545776367188" stroke-width="0.0" fill="rgb(55, 249, 156)" opacity="0.11142499"/>
    <path d="M 631.7025146484375 366.0348815917969 C 595.62646484375 388.8658752441406 570.4437255859375 373.5516662597656 551.5139770507812 375.7364807128906 C 563.5800170898438 375.3879699707031 570.2051391601562 342.681640625 582.2125854492188 319.57879638671875 C 570.4913330078125 273.83782958984375 549.9421997070312 289.98223876953125 596.7850952148438 296.33612060546875 C 607.9200439453125 287.39080810546875 616.4595336914062 281.8988952636719 631.7025146484375 366.0348815917969" stroke-width="0.0" fill="rgb(78, 221, 217)" opacity="0.19234297"/>
    <path d="M 96.7009506225586 134.46336364746094 C 111.73705291748047 185.3439483642578 105.14647674560547 189.90887451171875 86.83672332763672 184.55531311035156 C 82.84891510009766 179.9329833984375 104.6129150390625 173.60568237304688 94.7647705078125 171.71807861328125 C 93.83110046386719 173.42044067382812 110.84146118164062 150.36460876464844 109.76126098632812 138.01405334472656 C 113.46546173095703 129.5247802734375 111.3908920288086 130.88143920898438 96.7009506225586 134.46336364746094" stroke-width="0.0" fill="rgb(52, 181, 236)" opacity="0.059596375"/>
    <path d="M 543.9617309570312 136.83645629882812 C 538.1908569335938 172.83067321777344 512.0401611328125 184.03762817382812 471.7741394042969 178.24240112304688 C 435.5383605957031 147.39207458496094 444.1665954589844 158.24868774414062 455.66278076171875 122.5803451538086 C 475.9259338378906 119.2983627319336 501.2513122558594 121.59844970703125 492.1003112792969 73.64893341064453 C 540.8097534179688 66.79212188720703 566.8163452148438 65.89722442626953 543.9617309570312 136.83645629882812" stroke-width="0.0" fill="rgb(147, 222, 46)" opacity="0.99791974"/>
    <path d="M 579.4080810546875 487.1125183105469 C 552.513427734375 498.27471923828125 532.76123046875 490.857421875 506.6919860839844 517.7421875 C 498.4847717285156 519.0526123046875 501.8100891113281 529.85546875 499.0716552734375 507.36285400390625 C 502.11175537109375 488.4693908691406 520.32275390625 463.1900634765625 539.5624389648438 482.8055725097656 C 560.248291015625 475.04083251953125 562.1773681640625 474.67864990234375 579.4080810546875 487.1125183105469" stroke-width="0.0" fill="rgb(36, 252, 250)" opacity="0.44535768"/>
    <path d="M 164.3203582763672 144.9976806640625 C 170.39169311523438 218.6522674560547 160.07630920410156 203.78602600097656 100.71115112304688 208.2268829345703 C 78.40412902832031 176.4149169921875 75.11309051513672 150.47613525390625 84.91332244873047 158.81463623046875 C 66.06591796875 133.74322509765625 73.8160400390625 132.1962127685547 98.82112884521484 122.19203186035156 C 149.81045532226562 98.81725311279297 164.120361328125 99.34828186035156 164.3203582763672 144.9976806640625" stroke-width="0.0" fill="rgb(44, 199, 237)" opacity="0.65301114"/>
    <path d="M 246.39874267578125 317.9058532714844 C 243.57278442382812 323.0220947265625 237.21824645996094 337.0558166503906 241.16653442382812 339.7396240234375 C 246.98707580566406 323.616455078125 229.33798217773438 326.0332946777344 209.93319702148438 311.13934326171875 C 200.11941528320312 310.934814453125 206.00083923339844 280.8385314941406 248.25759887695312 261.4832458496094 C 297.3817443847656 260.3218994140625 262.4931945800781 288.0569152832031 246.39874267578125 317.9058532714844" stroke-width="0.0" fill="rgb(27, 2, 0)" opacity="0.9865961"/>
    <path d="M 285.2806701660156 276.727294921875 C 288.885498046875 266.4810791015625 275.33056640625 285.2740783691406 248.8134307861328 304.0790100097656 C 233.57740783691406 261.49951171875 221.66497802734375 259.99761962890625 221.05416870117188 224.57838439941406 C 217.30491638183594 237.44168090820312 231.5948944091797 242.878173828125 276.9590148925781 236.01329040527344 C 316.7000732421875 239.0476531982422 309.85308837890625 259.44091796875 285.2806701660156 276.727294921875" stroke-width="0.0" fill="rgb(0, 0, 2)" opacity="1.0"/>
    <path d="M 384.8967590332031 396.3956298828125 C 394.0249938964844 424.39666748046875 374.028076171875 436.2369384765625 360.09942626953125 460.03704833984375 C 309.3733215332031 424.0826416015625 288.4690856933594 416.80218505859375 318.2976379394531 425.47686767578125 C 313.744140625 403.04193115234375 319.8263244628906 374.751708984375 340.9658508300781 368.6490783691406 C 356.7513122558594 367.0465087890625 372.1783752441406 377.1505126953125 384.8967590332031 396.3956298828125" stroke-width="0.0" fill="rgb(0, 0, 9)" opacity="1.0"/>
    <path d="M 312.7727966308594 206.9062957763672 C 321.41448974609375 240.5374298095703 317.97332763671875 226.2461395263672 281.7472839355469 238.71890258789062 C 189.7650604248047 263.9647216796875 193.2737274169922 248.31381225585938 214.7006072998047 175.7625274658203 C 218.90301513671875 157.55673217773438 239.21304321289062 148.4080352783203 300.92144775390625 153.6159210205078 C 327.60870361328125 155.39134216308594 320.4096374511719 158.60025024414062 312.7727966308594 206.9062957763672" stroke-width="0.0" fill="rgb(28, 201, 240)" opacity="0.88507426"/>
    <path d="M 493.8558044433594 496.16949462890625 C 467.6695556640625 575.731689453125 432.4088439941406 556.9270629882812 342.7987060546875 559.8653564453125 C 337.91461181640625 575.8458251953125 324.92578125 571.2219848632812 309.2363586425781 511.1579284667969 C 337.0724182128906 510.01458740234375 369.0184326171875 513.7647094726562 379.10479736328125 501.02490234375 C 399.4999694824219 493.29034423828125 449.36798095703125 486.46185302734375 493.8558044433594 496.16949462890625" stroke-width="0.0" fill="rgb(134, 212, 225)" opacity="0.9601766"/>
    <path d="M 35.9923095703125 620.853515625 C 53.680606842041016 618.3107299804688 26.917627334594727 617.7876586914062 -3.1401009559631348 618.3485717773438 C -21.455995559692383 607.9734497070312 -26.276081085205078 601.4666137695312 -33.183963775634766 583.2340698242188 C -25.056812286376953 553.83154296875 -21.815610885620117 540.569091796875 -2.319082498550415 526.2782592773438 C 31.248397827148438 534.9432983398438 24.677261352539062 555.1761474609375 35.9923095703125 620.853515625" stroke-width="0.0" fill="rgb(6, 127, 92)" opacity="0.9320104"/>
    <path d="M 35.9819221496582 399.4537353515625 C 6.900288105010986 385.3014221191406 -7.0068745613098145 388.72149658203125 -19.415241241455078 377.8129577636719 C -22.481027603149414 390.4363098144531 -28.60853385925293 379.7088928222656 -34.06060028076172 336.4617004394531 C -28.903549194335938 312.6827697753906 -39.528568267822266 313.88433837890625 -5.4614787101745605 337.5797119140625 C 28.564977645874023 332.00750732421875 42.36545944213867 346.3677062988281 35.9819221496582 399.4537353515625" stroke-width="0.0" fill="rgb(73, 255, 228)" opacity="0.43392134"/>
    <path d="M 6.229815483093262 567.4632568359375 C 34.36697006225586 563.1261596679688 28.139934539794922 564.9192504882812 -6.199976921081543 561.285888671875 C -11.625271797180176 583.4981689453125 -14.808993339538574 584.9507446289062 -11.54354476928711 603.9046020507812 C 9.490880012512207 599.249755859375 18.540252685546875 586.4066162109375 39.428043365478516 582.8251953125 C 37.26547622680664 573.126953125 51.416160583496094 584.7847900390625 6.229815483093262 567.4632568359375" stroke-width="0.0" fill="rgb(90, 151, 213)" opacity="0.0"/>
    <path d="M 296.9617614746094 441.2042236328125 C 273.8214111328125 485.6307373046875 239.94662475585938 471.59619140625 180.4812469482422 466.35186767578125 C 155.19749450683594 478.716552734375 142.415283203125 473.074462890625 174.07603454589844 470.49285888671875 C 189.27420043945312 429.07879638671875 197.63136291503906 393.3152770996094 199.12228393554688 395.202392578125 C 242.75152587890625 394.2934875488281 242.64588928222656 413.4640197753906 296.9617614746094 441.2042236328125" stroke-width="0.0" fill="rgb(1, 0, 9)" opacity="0.99930954"/>
    <path d="M 322.9810791015625 169.9384307861328 C 326.6097412109375 170.90377807617188 320.2057189941406 175.14215087890625 323.6692810058594 172.68740844726562 C 321.63861083984375 174.08016967773438 316.1546936035156 171.4114227294922 312.6250915527344 171.31356811523438 C 305.8387756347656 166.24838256835938 295.2615661621094 143.3323211669922 324.9236755371094 128.58584594726562 C 366.8302001953125 130.0524444580078 339.39080810546875 153.22193908691406 322.9810791015625 169.9384307861328" stroke-width="0.0" fill="rgb(0, 0, 1)" opacity="1.0"/>
    <path d="M 446.5035095214844 512.5679931640625 C 451.0133361816406 630.5704345703125 434.2596435546875 612.4572143554688 344.76422119140625 610.3067016601562 C 295.57891845703125 601.9078369140625 296.9194030761719 618.0350341796875 299.09722900390625 550.7855224609375 C 309.7516784667969 530.0982055664062 340.7554016113281 538.5904541015625 343.4864807128906 532.9493408203125 C 393.9230651855469 522.1000366210938 435.6828918457031 496.9368896484375 446.5035095214844 512.5679931640625" stroke-width="0.0" fill="rgb(49, 204, 234)" opacity="1.0"/>
    <path d="M 501.4280700683594 577.6913452148438 C 472.6047668457031 561.4598999023438 461.3336181640625 547.7041015625 466.16937255859375 553.2606811523438 C 463.7256164550781 556.8474731445312 456.0166015625 558.769775390625 476.7756042480469 569.67041015625 C 463.687255859375 566.6784057617188 466.1923828125 558.263427734375 487.2576599121094 545.2824096679688 C 489.60821533203125 513.6751708984375 501.3211975097656 541.4713134765625 501.4280700683594 577.6913452148438" stroke-width="0.0" fill="rgb(126, 254, 255)" opacity="0.3651703"/>
    <path d="M 344.0818176269531 453.90582275390625 C 295.32501220703125 536.3037719726562 281.0027770996094 526.2774658203125 233.1391143798828 527.135986328125 C 167.64920043945312 548.0816040039062 156.0879364013672 548.5908203125 125.4434814453125 415.36224365234375 C 195.9917449951172 437.8528747558594 242.52175903320312 436.9386291503906 243.8990936279297 436.6490478515625 C 273.2953186035156 441.67413330078125 324.5196228027344 438.212890625 344.0818176269531 453.90582275390625" stroke-width="0.0" fill="rgb(253, 166, 0)" opacity="1.0"/>
    <path d="M 451.9134826660156 319.980712890625 C 410.3970642089844 311.3799743652344 394.5767822265625 314.7902526855469 387.6174011230469 308.7091979980469 C 412.8421936035156 305.8768310546875 392.5575256347656 309.3040771484375 345.17877197265625 290.9014892578125 C 372.9804992675781 305.6991271972656 386.3111877441406 294.919189453125 410.4606628417969 295.5801696777344 C 438.44232177734375 311.4268493652344 466.1274108886719 306.23602294921875 451.9134826660156 319.980712890625" stroke-width="0.0" fill="rgb(114, 149, 234)" opacity="0.004318274"/>
    <path d="M 569.9111328125 98.2983627319336 C 552.0531616210938 100.66989135742188 557.6144409179688 111.9999771118164 570.6898803710938 154.23922729492188 C 577.0238647460938 155.08641052246094 563.12060546875 152.80517578125 522.0563354492188 139.73294067382812 C 518.2875366210938 72.62439727783203 521.8796997070312 62.01738357543945 545.95556640625 64.14147186279297 C 560.716796875 99.6549301147461 568.0906982421875 107.25430297851562 569.9111328125 98.2983627319336" stroke-width="0.0" fill="rgb(162, 198, 107)" opacity="0.48174497"/>
    <path d="M 377.90985107421875 190.76942443847656 C 367.076171875 186.96412658691406 379.9638366699219 167.39395141601562 380.36834716796875 197.45687866210938 C 357.845703125 195.0524139404297 380.2796630859375 172.4610595703125 370.5194091796875 187.35943603515625 C 386.9290466308594 174.6898956298828 399.7171325683594 166.40733337402344 386.8967590332031 193.8542938232422 C 388.552001953125 172.19235229492188 373.4668273925781 175.88954162597656 377.90985107421875 190.76942443847656" stroke-width="0.0" fill="rgb(255, 255, 216)" opacity="1.0"/>
    <path d="M 542.3380126953125 229.5610809326172 C 523.0442504882812 261.50897216796875 574.7066650390625 283.3355407714844 615.4823608398438 232.82342529296875 C 572.606201171875 217.9154052734375 527.9635009765625 223.5259552001953 501.2178039550781 197.730712890625 C 462.9565734863281 225.62844848632812 465.1822509765625 239.3978729248047 525.4553833007812 238.63389587402344 C 534.7144165039062 235.12429809570312 526.9548950195312 232.48281860351562 542.3380126953125 229.5610809326172" stroke-width="0.0" fill="rgb(103, 0, 7)" opacity="1.0"/>
    <path d="M 293.6213684082031 128.74851989746094 C 309.74322509765625 150.0618133544922 295.5054626464844 143.09886169433594 266.19342041015625 141.73486328125 C 219.1663055419922 167.00247192382812 201.95281982421875 167.26368713378906 228.2238006591797 117.2729263305664 C 250.24005126953125 100.0020523071289 295.3506164550781 93.0851821899414 315.5658264160156 96.42200469970703 C 324.96612548828125 145.86045837402344 314.7320861816406 133.87200927734375 293.6213684082031 128.74851989746094" stroke-width="0.0" fill="rgb(132, 240, 29)" opacity="0.18097475"/>
    <path d="M 47.17115020751953 375.94561767578125 C 56.231319427490234 358.1567687988281 38.8836784362793 374.62884521484375 23.824987411499023 366.7901916503906 C 20.85224151611328 383.34649658203125 19.672388076782227 364.9309997558594 25.876605987548828 345.3562927246094 C 42.002479553222656 351.5049743652344 47.125396728515625 333.22845458984375 31.627960205078125 366.31170654296875 C 30.237220764160156 361.2523498535156 34.947723388671875 372.7797546386719 47.17115020751953 375.94561767578125" stroke-width="0.0" fill="rgb(125, 192, 159)" opacity="0.30424556"/>
    <path d="M 458.533935546875 261.1761474609375 C 453.6496276855469 310.4373779296875 421.94586181640625 309.21575927734375 399.2652587890625 302.29852294921875 C 356.9333801269531 279.6622009277344 369.61175537109375 261.86676025390625 369.99755859375 284.49444580078125 C 369.6318664550781 281.0754089355469 363.2764587402344 282.0928649902344 376.17071533203125 283.2464599609375 C 389.86810302734375 270.0527038574219 387.8312072753906 258.94976806640625 458.533935546875 261.1761474609375" stroke-width="0.0" fill="rgb(0, 0, 5)" opacity="1.0"/>
    <path d="M 605.2047119140625 198.67715454101562 C 590.872802734375 204.8950958251953 591.2119750976562 220.72369384765625 541.0020141601562 216.73019409179688 C 525.159912109375 201.791259765625 500.7374572753906 162.66273498535156 510.0360107421875 191.0999298095703 C 578.0066528320312 189.74630737304688 578.3873291015625 169.80921936035156 582.9647827148438 211.11813354492188 C 575.8256225585938 202.85374450683594 553.9036865234375 204.38278198242188 605.2047119140625 198.67715454101562" stroke-width="0.0" fill="rgb(0, 209, 175)" opacity="0.12025761"/>
    <path d="M 585.1836547851562 302.6717224121094 C 598.3755493164062 330.5920715332031 567.8241577148438 330.7080383300781 570.5288696289062 311.7390441894531 C 530.4234008789062 333.7226867675781 539.9644165039062 315.2623596191406 523.500732421875 306.6780700683594 C 517.303955078125 307.7817077636719 524.8208618164062 331.55377197265625 532.489501953125 301.5163269042969 C 517.4548950195312 275.75689697265625 543.0844116210938 285.2879943847656 585.1836547851562 302.6717224121094" stroke-width="0.0" fill="rgb(254, 181, 71)" opacity="0.76070076"/>
    <path d="M 629.5698852539062 270.96051025390625 C 619.226806640625 366.34954833984375 603.7105102539062 358.9367370605469 578.1784057617188 303.95794677734375 C 548.86279296875 316.6131591796875 507.3741760253906 308.0379638671875 445.1156921386719 297.5594482421875 C 456.0238037109375 232.10635375976562 470.0350036621094 220.68252563476562 525.9004516601562 225.65708923339844 C 589.0813598632812 243.79034423828125 606.6542358398438 252.27134704589844 629.5698852539062 270.96051025390625" stroke-width="0.0" fill="rgb(40, 215, 228)" opacity="1.0"/>
    <path d="M 379.5126647949219 189.0384063720703 C 383.12542724609375 172.84242248535156 376.242431640625 186.9983673095703 395.1139221191406 185.0839385986328 C 395.3166809082031 193.5479736328125 377.8113098144531 203.18905639648438 385.2025451660156 183.39254760742188 C 392.9382019042969 180.69512939453125 394.4054260253906 179.101318359375 394.5364685058594 183.83828735351562 C 385.163818359375 196.54043579101562 372.01739501953125 198.5360565185547 379.5126647949219 189.0384063720703" stroke-width="0.0" fill="rgb(212, 50, 51)" opacity="0.9815043"/>
    <path d="M 70.06824493408203 109.35063934326172 C 86.52163696289062 135.03976440429688 70.56468963623047 137.3229522705078 29.262073516845703 143.0665283203125 C -16.450292587280273 144.96319580078125 -7.0692057609558105 150.95045471191406 -2.2746846675872803 105.42328643798828 C 8.56847095489502 78.11907196044922 -1.24574613571167 82.5145034790039 69.81006622314453 79.50596618652344 C 66.10355377197266 104.0752182006836 65.92317962646484 109.3976821899414 70.06824493408203 109.35063934326172" stroke-width="0.0" fill="rgb(180, 242, 41)" opacity="0.49191192"/>
    <path d="M 94.63505554199219 12.696638107299805 C 116.85235595703125 119.60008239746094 75.33499145507812 127.46358489990234 25.97167205810547 130.56727600097656 C -25.214889526367188 125.34249877929688 -41.286376953125 132.84620666503906 -31.275365829467773 46.049522399902344 C -16.327451705932617 24.2702579498291 -5.441603183746338 17.9773006439209 -6.767543792724609 2.237414598464966 C 19.097637176513672 -12.505985260009766 82.49276733398438 -17.762346267700195 94.63505554199219 12.696638107299805" stroke-width="0.0" fill="rgb(152, 211, 44)" opacity="0.9501941"/>
    <path d="M 586.9248657226562 485.9902038574219 C 597.0328369140625 604.2603149414062 582.4922485351562 609.5729370117188 499.8798522949219 631.2657470703125 C 399.0493469238281 621.622802734375 411.3152160644531 602.4454345703125 423.3941955566406 519.763671875 C 426.3389587402344 482.7981872558594 446.53741455078125 482.7816162109375 493.7392578125 464.8772277832031 C 528.5245971679688 460.3863525390625 549.7490234375 463.08514404296875 586.9248657226562 485.9902038574219" stroke-width="0.0" fill="rgb(51, 201, 237)" opacity="1.0"/>
    <path d="M 572.1813354492188 170.2980499267578 C 588.9888916015625 160.18211364746094 572.3599853515625 155.5656280517578 544.8176879882812 158.3701629638672 C 566.7300415039062 174.66778564453125 586.421630859375 165.3001708984375 582.0906982421875 176.72311401367188 C 558.8987426757812 171.8787841796875 573.24462890625 164.03794860839844 587.4073486328125 166.3506317138672 C 535.2874755859375 153.78981018066406 553.3441162109375 157.56695556640625 572.1813354492188 170.2980499267578" stroke-width="0.0" fill="rgb(253, 244, 93)" opacity="0.25356454"/>
    <path d="M 353.35552978515625 442.0022277832031 C 359.04742431640625 470.1429138183594 333.8000183105469 459.1954345703125 327.6521301269531 475.0797119140625 C 296.2139892578125 503.5972900390625 277.1751403808594 526.0977172851562 291.4623718261719 447.2800598144531 C 295.15020751953125 425.5485534667969 309.9271240234375 437.37799072265625 306.2589111328125 442.4268493652344 C 360.3872375488281 434.8692932128906 379.12103271484375 434.65826416015625 353.35552978515625 442.0022277832031" stroke-width="0.0" fill="rgb(152, 23, 41)" opacity="0.19358668"/>
    <path d="M 511.5971374511719 237.6035919189453 C 483.5001220703125 285.466552734375 475.4964294433594 291.463134765625 454.7415466308594 297.4034423828125 C 416.265380859375 311.2274475097656 410.5150146484375 297.4258117675781 402.8826904296875 265.79718017578125 C 423.8486328125 257.6753845214844 450.4170227050781 253.45704650878906 471.035888671875 240.5374298095703 C 492.9826965332031 198.2898712158203 530.1221923828125 197.9551544189453 511.5971374511719 237.6035919189453" stroke-width="0.0" fill="rgb(0, 0, 7)" opacity="1.0"/>
    <path d="M 479.0286560058594 220.25791931152344 C 499.7290954589844 228.7835235595703 486.81463623046875 216.16940307617188 498.1052551269531 218.38705444335938 C 473.7002868652344 224.85562133789062 463.4385681152344 241.71893310546875 447.02447509765625 248.788818359375 C 455.53570556640625 230.79745483398438 468.1136169433594 208.7779083251953 465.3769836425781 196.02450561523438 C 518.5030517578125 206.12814331054688 518.3359985351562 200.5500030517578 479.0286560058594 220.25791931152344" stroke-width="0.0" fill="rgb(0, 70, 43)" opacity="0.74995327"/>
    <path d="M 115.92217254638672 381.68115234375 C 112.01519775390625 488.2423095703125 81.25404357910156 485.4681701660156 5.841382026672363 498.7893371582031 C -74.84524536132812 476.40301513671875 -87.30345916748047 474.1476745605469 -93.49502563476562 434.5373229980469 C -40.8992919921875 369.6726379394531 -30.45387077331543 357.5018005371094 3.022970199584961 330.7701416015625 C 47.18802261352539 330.8451843261719 73.06130981445312 326.9228820800781 115.92217254638672 381.68115234375" stroke-width="0.0" fill="rgb(28, 201, 233)" opacity="0.9987614"/>
    <path d="M 609.5598754882812 519.9747314453125 C 631.2131958007812 574.2005004882812 630.5584716796875 579.0227661132812 601.8804321289062 587.5421142578125 C 579.8543701171875 569.7984008789062 568.9568481445312 564.499755859375 571.7364501953125 556.8076782226562 C 572.6334228515625 552.7868041992188 582.1834716796875 546.4644165039062 596.7649536132812 539.5091552734375 C 598.3179321289062 510.16558837890625 605.6571044921875 503.3583679199219 609.5598754882812 519.9747314453125" stroke-width="0.0" fill="rgb(14, 136, 135)" opacity="0.96652"/>
    <path d="M 191.80543518066406 172.49813842773438 C 173.63571166992188 237.8438262939453 175.39869689941406 228.37307739257812 118.152587890625 208.55694580078125 C 133.5234375 211.9658966064453 105.72438049316406 218.9989013671875 114.18657684326172 186.3882293701172 C 135.12696838378906 155.09954833984375 127.45072937011719 150.64584350585938 141.0902557373047 167.8372802734375 C 175.84304809570312 155.98512268066406 190.02484130859375 156.51983642578125 191.80543518066406 172.49813842773438" stroke-width="0.0" fill="rgb(27, 217, 239)" opacity="0.12955722"/>
    <path d="M 278.3572082519531 180.53575134277344 C 300.3489074707031 247.47134399414062 297.08538818359375 241.1862030029297 243.95289611816406 273.9060974121094 C 166.04446411132812 294.16864013671875 148.23509216308594 275.1697998046875 157.21380615234375 198.14158630371094 C 167.37942504882812 152.4874725341797 202.85928344726562 148.56529235839844 197.7873077392578 152.61648559570312 C 229.0891876220703 145.9442901611328 253.7375030517578 147.75416564941406 278.3572082519531 180.53575134277344" stroke-width="0.0" fill="rgb(25, 205, 224)" opacity="1.0"/>
    <path d="M 633.919189453125 23.255962371826172 C 665.3037719726562 112.08084106445312 664.51953125 113.03800964355469 596.1898193359375 103.56732940673828 C 526.0537719726562 90.84127807617188 521.6530151367188 81.72404479980469 531.4149780273438 53.99359893798828 C 579.4471435546875 36.88917922973633 586.607666015625 41.48063659667969 578.0595703125 3.065091133117676 C 593.5239868164062 -27.53922462463379 608.2185668945312 -18.538028717041016 633.919189453125 23.255962371826172" stroke-width="0.0" fill="rgb(27, 108, 15)" opacity="1.0"/>
    <path d="M 638.759521484375 103.44121551513672 C 643.477294921875 165.47390747070312 626.6588745117188 161.99899291992188 608.5842895507812 188.16673278808594 C 536.4656982421875 190.71688842773438 472.6047668457031 205.02674865722656 469.2900085449219 184.0782928466797 C 523.1492309570312 90.01114654541016 528.02197265625 86.38922882080078 531.6650390625 90.86336517333984 C 571.5291748046875 92.13099670410156 624.107666015625 81.03466033935547 638.759521484375 103.44121551513672" stroke-width="0.0" fill="rgb(146, 228, 43)" opacity="0.9841338"/>
    <path d="M 265.56280517578125 108.796142578125 C 273.6290283203125 133.41680908203125 230.1854248046875 137.36106872558594 225.68649291992188 115.20993041992188 C 231.0650177001953 101.04835510253906 255.9922637939453 88.8770751953125 192.2779541015625 88.15289306640625 C 188.35763549804688 127.20826721191406 205.79319763183594 126.02774047851562 216.6658935546875 153.8833770751953 C 240.26556396484375 138.94837951660156 217.75997924804688 98.5503921508789 265.56280517578125 108.796142578125" stroke-width="0.0" fill="rgb(182, 175, 158)" opacity="0.1314208"/>
    <path d="M 198.08544921875 262.8499755859375 C 213.4899444580078 352.05499267578125 198.88636779785156 360.08294677734375 117.69461822509766 376.04779052734375 C 17.799863815307617 375.06182861328125 10.532729148864746 362.26556396484375 24.910400390625 280.8999938964844 C 22.488061904907227 221.38548278808594 29.320125579833984 223.24737548828125 112.18220520019531 237.46507263183594 C 145.99281311035156 245.58946228027344 161.9678497314453 237.0836944580078 198.08544921875 262.8499755859375" stroke-width="0.0" fill="rgb(35, 199, 226)" opacity="1.0"/>
    <path d="M 284.364501953125 308.09326171875 C 265.16168212890625 314.8000183105469 267.5127868652344 340.9427185058594 241.5861053466797 319.8667297363281 C 261.311767578125 289.49505615234375 268.1283874511719 295.08306884765625 260.54901123046875 322.4096984863281 C 248.6174774169922 321.25152587890625 257.053955078125 300.21319580078125 272.2386169433594 295.7737121582031 C 258.1661376953125 290.207763671875 270.78326416015625 299.45257568359375 284.364501953125 308.09326171875" stroke-width="0.0" fill="rgb(230, 255, 222)" opacity="0.038020704"/>
    <path d="M 619.3724365234375 367.2978515625 C 576.9019775390625 364.87811279296875 551.6022338867188 373.4112548828125 569.4647216796875 376.5904235839844 C 570.0040893554688 361.82037353515625 568.81640625 348.72314453125 564.773681640625 352.2717590332031 C 570.979248046875 361.408447265625 563.9796142578125 359.0859680175781 561.213134765625 374.1113586425781 C 608.22265625 361.9705505371094 620.7191162109375 353.7771911621094 619.3724365234375 367.2978515625" stroke-width="0.0" fill="rgb(97, 218, 172)" opacity="0.026936136"/>
    <path d="M 365.9536437988281 487.42938232421875 C 354.68670654296875 513.9791259765625 336.3008728027344 516.44580078125 316.6641540527344 519.71630859375 C 267.41241455078125 530.7943115234375 257.905029296875 483.6907958984375 254.53370666503906 448.9653015136719 C 269.5039367675781 449.7986145019531 302.7095642089844 446.5334777832031 305.80548095703125 451.392822265625 C 323.88824462890625 460.65673828125 338.09124755859375 475.5728759765625 365.9536437988281 487.42938232421875" stroke-width="0.0" fill="rgb(246, 152, 0)" opacity="1.0"/>
    <path d="M 173.45994567871094 125.3095474243164 C 155.42446899414062 131.48728942871094 137.01910400390625 135.92234802246094 107.3661117553711 139.71640014648438 C 76.91659545898438 147.4695587158203 48.001102447509766 149.12608337402344 34.20524978637695 90.5323715209961 C 49.0504264831543 57.052303314208984 78.64289855957031 60.78803634643555 127.57817077636719 66.16427612304688 C 162.37989807128906 65.63116455078125 171.22959899902344 45.32004928588867 173.45994567871094 125.3095474243164" stroke-width="0.0" fill="rgb(141, 222, 56)" opacity="0.9294978"/>
    <path d="M 106.05587005615234 588.073486328125 C 154.2783660888672 584.89501953125 143.027587890625 610.4611206054688 91.61038970947266 630.8400268554688 C -0.5597514510154724 611.0676879882812 -6.502906322479248 596.8594970703125 -26.59931755065918 576.1710205078125 C -13.05142879486084 523.5347290039062 17.884769439697266 517.4727172851562 32.728607177734375 553.2600708007812 C 28.394418716430664 585.3720092773438 36.65595626831055 594.3974609375 106.05587005615234 588.073486328125" stroke-width="0.0" fill="rgb(3, 118, 140)" opacity="0.9731624"/>
  </g>
</svg>
