<?xml version="1.0" ?>
<svg xmlns="http://www.w3.org/2000/svg" version="1.1" width="600" height="600">
  <defs/>
  <g>
    <path d="M 77.50391387939453 417.5723876953125 C 73.43116760253906 376.49676513671875 154.42919921875 397.43487548828125 64.36144256591797 410.5998229980469 C 19.833824157714844 417.9637145996094 -20.490575790405273 407.23760986328125 -72.39580535888672 490.6651306152344 C -19.987751007080078 476.8800048828125 35.93140411376953 500.5352478027344 62.7818717956543 495.9742431640625 C 106.0524673461914 438.1791076660156 106.35441589355469 476.5662536621094 48.66358184814453 435.7801818847656" stroke-width="6.0" fill="none" stroke="rgb(0, 0, 0)" stroke-opacity="0.9819204" stroke-linecap="round" stroke-linejoin="round"/>
    <path d="M 155.81358337402344 163.6504364013672 C 147.2189483642578 156.94862365722656 173.95339965820312 124.93443298339844 180.20033264160156 97.38836669921875 C 177.2145538330078 108.7029800415039 167.9340362548828 125.82946014404297 125.34461212158203 129.6360626220703 C 159.09999084472656 95.22801208496094 131.6168212890625 138.5529327392578 132.6954803466797 133.11962890625 C 121.93193054199219 94.30797576904297 111.07270812988281 82.59308624267578 104.971923828125 122.66744232177734" stroke-width="6.0" fill="none" stroke="rgb(0, 0, 0)" stroke-opacity="0.0" stroke-linecap="round" stroke-linejoin="round"/>
    <path d="M 486.2029113769531 196.39642333984375 C 430.5924377441406 268.1289367675781 461.3425598144531 251.10923767089844 483.0356140136719 196.71470642089844 C 432.66119384765625 233.3822479248047 438.7602844238281 205.2813262939453 476.76885986328125 195.44119262695312 C 444.0444641113281 182.6493682861328 415.2183532714844 200.51393127441406 395.700439453125 148.3956298828125 C 343.155029296875 155.89553833007812 324.135986328125 166.39540100097656 350.238525390625 198.0800018310547" stroke-width="6.0" fill="none" stroke="rgb(0, 0, 0)" stroke-opacity="1.0" stroke-linecap="round" stroke-linejoin="round"/>
    <path d="M 470.5306701660156 252.39328002929688 C 471.5662536621094 187.42532348632812 438.4501953125 217.4785919189453 426.613037109375 228.89508056640625 C 464.9792175292969 199.47402954101562 500.1517028808594 195.33273315429688 467.0279541015625 246.72308349609375 C 426.9059753417969 356.93115234375 478.62884521484375 290.1673583984375 504.57061767578125 281.5140075683594 C 529.1058959960938 216.99343872070312 574.8613891601562 218.59671020507812 537.5618286132812 295.7992858886719" stroke-width="6.0" fill="none" stroke="rgb(0, 0, 0)" stroke-opacity="0.99996024" stroke-linecap="round" stroke-linejoin="round"/>
    <path d="M 96.23684692382812 557.814208984375 C 88.47762298583984 538.3644409179688 93.6163558959961 524.8635864257812 116.04085540771484 554.9996948242188 C 114.51224517822266 528.82666015625 126.91960906982422 518.8850708007812 91.03388214111328 548.0291137695312 C 110.91742706298828 516.5648193359375 103.97080993652344 518.4137573242188 126.14271545410156 504.4340515136719 C 100.85164642333984 522.1513671875 71.15176391601562 524.9445190429688 62.30364227294922 502.8031005859375" stroke-width="6.0" fill="none" stroke="rgb(0, 0, 0)" stroke-opacity="0.0" stroke-linecap="round" stroke-linejoin="round"/>
    <path d="M 193.6088104248047 173.6332244873047 C 228.96592712402344 150.8236083984375 231.23927307128906 138.27212524414062 254.10400390625 146.67578125 C 229.90428161621094 147.9989776611328 225.5421905517578 142.17486572265625 253.28309631347656 170.1204376220703 C 292.488525390625 135.01402282714844 292.79437255859375 137.86154174804688 253.0426788330078 152.98927307128906 C 223.3716278076172 151.0479736328125 230.3355712890625 112.50484466552734 221.96678161621094 172.32321166992188" stroke-width="6.0" fill="none" stroke="rgb(0, 0, 0)" stroke-opacity="0.007936997" stroke-linecap="round" stroke-linejoin="round"/>
    <path d="M 170.1269989013672 444.6044006347656 C 130.26861572265625 383.5208435058594 159.5021514892578 370.2616271972656 181.9032440185547 336.81195068359375 C 182.41993713378906 359.851806640625 148.77911376953125 374.7214660644531 172.99484252929688 351.177734375 C 152.79969787597656 309.3475036621094 138.63714599609375 332.6338195800781 112.45298767089844 369.44232177734375 C 96.15673828125 335.4434509277344 69.16204071044922 366.1585388183594 50.194000244140625 439.4852600097656" stroke-width="6.0" fill="none" stroke="rgb(0, 0, 0)" stroke-opacity="0.9366441" stroke-linecap="round" stroke-linejoin="round"/>
    <path d="M 333.23419189453125 249.2803192138672 C 379.1097106933594 224.14910888671875 430.9283142089844 223.1148223876953 436.5983581542969 232.13540649414062 C 480.912353515625 194.80381774902344 441.9627990722656 241.9471893310547 442.574462890625 296.7262268066406 C 455.11749267578125 265.9985656738281 458.5632629394531 235.30943298339844 448.3297424316406 294.64959716796875 C 459.9317932128906 250.07681274414062 479.527099609375 211.63916015625 478.536865234375 220.38671875" stroke-width="6.0" fill="none" stroke="rgb(0, 0, 0)" stroke-opacity="1.0" stroke-linecap="round" stroke-linejoin="round"/>
    <path d="M 471.34698486328125 653.6921997070312 C 470.313232421875 626.2289428710938 462.59765625 607.0508422851562 500.4556884765625 524.4879760742188 C 484.3398742675781 522.792236328125 471.52154541015625 524.5182495117188 462.3385314941406 558.6241455078125 C 448.6830749511719 520.34814453125 473.9505310058594 543.4808959960938 474.04217529296875 536.4224243164062 C 466.2608642578125 514.8831787109375 483.925537109375 486.24945068359375 454.9837341308594 511.9034423828125" stroke-width="6.0" fill="none" stroke="rgb(0, 0, 0)" stroke-opacity="0.0" stroke-linecap="round" stroke-linejoin="round"/>
    <path d="M 86.4918212890625 165.7917938232422 C 114.26114654541016 171.81973266601562 66.4365234375 179.365966796875 51.13444519042969 167.72557067871094 C 56.333736419677734 177.81692504882812 88.39497375488281 191.73306274414062 99.48966979980469 164.6002197265625 C 84.06278228759766 175.751708984375 120.80421447753906 159.0498046875 114.16893005371094 152.87310791015625 C 66.03372192382812 212.26837158203125 92.46659851074219 234.67819213867188 129.84304809570312 211.26220703125" stroke-width="6.0" fill="none" stroke="rgb(0, 0, 0)" stroke-opacity="0.0" stroke-linecap="round" stroke-linejoin="round"/>
    <path d="M 124.82097625732422 456.5890808105469 C 78.6679916381836 397.0195617675781 106.287109375 417.001708984375 109.84022521972656 408.3274841308594 C 94.55957794189453 367.74761962890625 94.42611694335938 319.50732421875 127.90401458740234 343.1942138671875 C 174.47991943359375 397.8383483886719 143.913330078125 411.6430358886719 104.42138671875 414.9508361816406 C 74.13666534423828 398.05511474609375 101.64070129394531 438.1766662597656 57.89723587036133 472.62762451171875" stroke-width="6.0" fill="none" stroke="rgb(0, 0, 0)" stroke-opacity="0.9992492" stroke-linecap="round" stroke-linejoin="round"/>
    <path d="M 125.86241912841797 432.2069396972656 C 10.211407661437988 446.8157958984375 -38.19102478027344 445.20233154296875 -57.846519470214844 467.9495544433594 C -28.817628860473633 439.645263671875 -23.802061080932617 469.38421630859375 -37.06950759887695 492.3417663574219 C -12.455061912536621 507.06036376953125 -33.61296463012695 517.4655151367188 -47.822959899902344 516.7615356445312 C -28.725101470947266 526.7869262695312 -55.64547348022461 519.9842529296875 -79.40758514404297 540.4425048828125" stroke-width="6.0" fill="none" stroke="rgb(0, 0, 0)" stroke-opacity="0.751587" stroke-linecap="round" stroke-linejoin="round"/>
    <path d="M -2.2455389499664307 314.9830017089844 C 62.35625076293945 265.7075500488281 47.45392990112305 291.598876953125 57.42543029785156 281.2704772949219 C 95.49960327148438 287.2281494140625 155.15286254882812 294.78570556640625 198.01263427734375 243.35508728027344 C 131.978271484375 246.41302490234375 98.20948791503906 238.493408203125 -12.779584884643555 227.6329345703125 C 27.90030860900879 313.0043029785156 89.899658203125 270.2439880371094 92.36571502685547 283.9132995605469" stroke-width="6.0" fill="none" stroke="rgb(0, 0, 0)" stroke-opacity="0.9984687" stroke-linecap="round" stroke-linejoin="round"/>
    <path d="M 629.1795043945312 484.0364685058594 C 565.6802978515625 481.64996337890625 548.31591796875 488.5998840332031 554.069580078125 464.0750427246094 C 546.9466552734375 446.24761962890625 565.704833984375 460.17523193359375 552.2911987304688 488.1453552246094 C 557.9515991210938 448.21221923828125 527.602783203125 456.274169921875 519.587890625 427.900146484375 C 535.5552978515625 421.9312438964844 518.2728881835938 408.4257507324219 527.4900512695312 422.20654296875" stroke-width="6.0" fill="none" stroke="rgb(0, 0, 0)" stroke-opacity="0.0" stroke-linecap="round" stroke-linejoin="round"/>
    <path d="M 426.3106994628906 -9.228262901306152 C 424.90704345703125 -7.590994834899902 408.19671630859375 -4.548305034637451 398.9845886230469 -12.768636703491211 C 415.2218017578125 3.3534674644470215 434.66583251953125 -21.725814819335938 456.5417175292969 -42.83540344238281 C 474.2974853515625 -73.498779296875 452.6971435546875 -67.14767456054688 445.7353820800781 -75.75804901123047 C 424.0021057128906 -91.8021469116211 395.8576354980469 -103.25494384765625 374.6554870605469 -127.81925964355469" stroke-width="6.0" fill="none" stroke="rgb(0, 0, 0)" stroke-opacity="0.0" stroke-linecap="round" stroke-linejoin="round"/>
    <path d="M 105.26428985595703 459.6806335449219 C 39.11491394042969 453.1051940917969 34.48371887207031 444.90509033203125 115.37511444091797 432.2634582519531 C 60.634159088134766 417.1264343261719 30.95785140991211 461.1528015136719 -59.69003677368164 442.0345764160156 C 65.64591217041016 443.7768859863281 122.27479553222656 439.55169677734375 111.85039520263672 493.0173034667969 C 21.603151321411133 502.9557800292969 33.55754470825195 499.7622985839844 55.14530563354492 477.75750732421875" stroke-width="6.0" fill="none" stroke="rgb(0, 0, 0)" stroke-opacity="0.997734" stroke-linecap="round" stroke-linejoin="round"/>
    <path d="M 283.39715576171875 376.9061584472656 C 289.8521728515625 351.3714599609375 341.7270812988281 355.473876953125 301.2430114746094 377.8700866699219 C 334.48175048828125 366.4126892089844 316.06475830078125 395.3937683105469 313.6307067871094 442.0574951171875 C 381.0915832519531 412.4778747558594 350.9077453613281 380.4875183105469 311.4376220703125 366.56561279296875 C 302.5234680175781 470.58837890625 316.5837707519531 444.3703918457031 319.821533203125 379.8021240234375" stroke-width="6.0" fill="none" stroke="rgb(0, 0, 0)" stroke-opacity="0.9909807" stroke-linecap="round" stroke-linejoin="round"/>
    <path d="M 280.96636962890625 168.4868621826172 C 281.7242736816406 232.2975616455078 251.95278930664062 251.93504333496094 291.8623962402344 257.21038818359375 C 328.7952880859375 213.7746124267578 312.6354675292969 178.5966796875 332.0718078613281 254.39463806152344 C 312.091796875 249.81546020507812 272.0786437988281 262.8326721191406 225.1968994140625 285.0595397949219 C 238.55615234375 272.8166198730469 296.9281921386719 267.47149658203125 280.7780456542969 241.78184509277344" stroke-width="6.0" fill="none" stroke="rgb(0, 0, 0)" stroke-opacity="1.0" stroke-linecap="round" stroke-linejoin="round"/>
    <path d="M 607.1405639648438 259.4239501953125 C 595.4812622070312 278.91766357421875 623.4728393554688 252.36692810058594 616.442138671875 241.069580078125 C 604.068603515625 225.59706115722656 624.79052734375 244.67971801757812 621.23486328125 270.866455078125 C 647.795166015625 281.72161865234375 653.3294067382812 309.1698303222656 650.7900390625 320.62103271484375 C 676.4932250976562 295.64825439453125 695.6587524414062 320.3102722167969 711.4085693359375 298.2413330078125" stroke-width="6.0" fill="none" stroke="rgb(0, 0, 0)" stroke-opacity="0.27239436" stroke-linecap="round" stroke-linejoin="round"/>
    <path d="M 566.1380615234375 336.9847106933594 C 628.80810546875 342.43212890625 618.1702880859375 358.16351318359375 588.6123046875 370.068115234375 C 560.8834228515625 354.6790771484375 564.0000610351562 352.593017578125 578.4227905273438 369.1021728515625 C 551.5097045898438 394.80645751953125 550.2832641601562 390.2878723144531 566.0807495117188 385.6557922363281 C 555.8639526367188 379.0164489746094 553.1842651367188 406.167724609375 555.8964233398438 369.3999938964844" stroke-width="6.0" fill="none" stroke="rgb(0, 0, 0)" stroke-opacity="0.0" stroke-linecap="round" stroke-linejoin="round"/>
    <path d="M 625.4535522460938 483.56097412109375 C 599.363037109375 490.9936828613281 609.6528930664062 493.558349609375 615.4535522460938 467.7319030761719 C 588.4119262695312 467.16949462890625 613.9125366210938 464.8749694824219 651.3406982421875 478.6573791503906 C 611.264404296875 501.9554443359375 604.4931030273438 483.2391052246094 608.5048828125 496.7367858886719 C 622.1187744140625 484.7502746582031 645.7061157226562 487.3202209472656 668.8121337890625 472.4305725097656" stroke-width="6.0" fill="none" stroke="rgb(0, 0, 0)" stroke-opacity="0.0" stroke-linecap="round" stroke-linejoin="round"/>
    <path d="M 435.3983459472656 195.10769653320312 C 497.6197204589844 159.57920837402344 459.35919189453125 165.2732696533203 473.0679626464844 159.02444458007812 C 440.93865966796875 189.466064453125 446.5190124511719 235.1900634765625 353.1702880859375 185.2098388671875 C 435.20208740234375 125.72000122070312 466.67333984375 139.75462341308594 495.24371337890625 132.21690368652344 C 470.8755798339844 87.07640075683594 490.1603698730469 67.25894927978516 478.11309814453125 86.90478515625" stroke-width="6.0" fill="none" stroke="rgb(0, 0, 0)" stroke-opacity="0.0" stroke-linecap="round" stroke-linejoin="round"/>
    <path d="M 63.60055160522461 522.1158447265625 C 60.48115539550781 512.7219848632812 44.56157684326172 520.1151733398438 0.2932034730911255 511.85589599609375 C -3.2128043174743652 532.6175537109375 -16.869443893432617 459.9185485839844 18.828243255615234 444.8928527832031 C 97.28677368164062 476.2637939453125 97.73931121826172 456.3551025390625 102.70511627197266 472.5326232910156 C 91.33013153076172 461.9056091308594 113.01220703125 446.67034912109375 116.33922576904297 437.5702209472656" stroke-width="6.0" fill="none" stroke="rgb(0, 0, 0)" stroke-opacity="0.008260597" stroke-linecap="round" stroke-linejoin="round"/>
    <path d="M 438.2505798339844 322.7799987792969 C 475.4184265136719 298.8135986328125 462.9156188964844 311.0798034667969 458.1248474121094 313.3447265625 C 524.7606811523438 318.08013916015625 498.1707458496094 281.4093322753906 507.7606201171875 244.70651245117188 C 526.4700927734375 275.14166259765625 566.3902587890625 296.12158203125 512.0361938476562 306.5229187011719 C 504.6700439453125 259.7565612792969 500.4752502441406 213.45449829101562 541.7033081054688 275.4691162109375" stroke-width="6.0" fill="none" stroke="rgb(0, 0, 0)" stroke-opacity="1.0" stroke-linecap="round" stroke-linejoin="round"/>
    <path d="M 85.85761260986328 524.1470947265625 C 112.41096496582031 516.48388671875 85.64903259277344 515.3790893554688 135.00025939941406 529.072021484375 C 80.27305603027344 536.3209228515625 30.84842872619629 525.5156860351562 44.11652755737305 505.076416015625 C 56.26722717285156 468.6274108886719 59.939266204833984 494.095947265625 33.24742126464844 513.388916015625 C 31.67909812927246 454.1579284667969 43.86567687988281 508.96630859375 42.20561981201172 514.0968017578125" stroke-width="6.0" fill="none" stroke="rgb(0, 0, 0)" stroke-opacity="0.0" stroke-linecap="round" stroke-linejoin="round"/>
    <path d="M 135.8519744873047 77.40809631347656 C 156.78271484375 85.78960418701172 125.5946273803711 78.62742614746094 100.61119842529297 127.32179260253906 C 65.13289642333984 116.17561340332031 69.60641479492188 128.90182495117188 88.67813873291016 118.7527847290039 C 80.86714935302734 118.07858276367188 76.65441131591797 91.582275390625 55.88410949707031 162.475830078125 C 49.63020324707031 131.0919647216797 32.69480514526367 137.29515075683594 6.087467193603516 138.77084350585938" stroke-width="6.0" fill="none" stroke="rgb(0, 0, 0)" stroke-opacity="0.0" stroke-linecap="round" stroke-linejoin="round"/>
    <path d="M 3.7947845458984375 35.27388381958008 C 45.481468200683594 42.53063201904297 8.615159034729004 54.70086669921875 34.242000579833984 46.11313247680664 C 8.779480934143066 48.57318878173828 5.526034355163574 52.8349723815918 11.252203941345215 38.19715881347656 C 45.40178680419922 29.945627212524414 3.813903331756592 60.298274993896484 28.675661087036133 48.804603576660156 C 10.402894020080566 33.98731231689453 43.252845764160156 -7.439298152923584 27.193307876586914 -50.62611389160156" stroke-width="6.0" fill="none" stroke="rgb(0, 0, 0)" stroke-opacity="0.0" stroke-linecap="round" stroke-linejoin="round"/>
    <path d="M 148.14874267578125 328.87530517578125 C 243.33074951171875 300.6781311035156 229.04071044921875 308.13873291015625 226.69430541992188 316.4294738769531 C 188.86122131347656 338.32958984375 189.20973205566406 353.7727966308594 178.19480895996094 353.6063232421875 C 198.29562377929688 336.7024841308594 171.9580841064453 379.2758483886719 106.64723205566406 364.42376708984375 C 136.61453247070312 311.8340148925781 151.7386016845703 339.6857604980469 188.835205078125 345.5047607421875" stroke-width="6.0" fill="none" stroke="rgb(0, 0, 0)" stroke-opacity="1.0" stroke-linecap="round" stroke-linejoin="round"/>
    <path d="M 221.79833984375 108.64610290527344 C 205.37631225585938 135.2581329345703 235.124267578125 121.4034423828125 302.9329833984375 112.5099868774414 C 296.71258544921875 153.22694396972656 305.4852600097656 109.20523071289062 284.56536865234375 209.12693786621094 C 324.1510009765625 212.8946075439453 348.53057861328125 208.0072021484375 391.9001159667969 189.1400146484375 C 367.59869384765625 193.5234832763672 312.09918212890625 234.8179168701172 332.9070739746094 247.938720703125" stroke-width="6.0" fill="none" stroke="rgb(0, 0, 0)" stroke-opacity="0.0" stroke-linecap="round" stroke-linejoin="round"/>
    <path d="M 50.80741882324219 208.79299926757812 C 60.87785720825195 181.4110870361328 56.05064010620117 174.8131561279297 8.189382553100586 194.75485229492188 C 59.493160247802734 227.47677612304688 32.243743896484375 183.21533203125 61.59341812133789 195.30282592773438 C 45.049583435058594 218.47039794921875 91.20028686523438 180.19625854492188 85.75712585449219 182.50364685058594 C 53.43086242675781 207.01431274414062 38.108028411865234 208.29217529296875 121.16816711425781 166.142333984375" stroke-width="6.0" fill="none" stroke="rgb(0, 0, 0)" stroke-opacity="1.0" stroke-linecap="round" stroke-linejoin="round"/>
    <path d="M 109.74322509765625 483.1377868652344 C 134.52027893066406 455.6583557128906 201.67706298828125 449.61407470703125 84.18629455566406 458.16668701171875 C 77.39009857177734 422.85736083984375 139.08277893066406 417.3384094238281 108.71727752685547 403.0721740722656 C 114.99681091308594 411.3890380859375 126.66848754882812 425.7629089355469 108.4872817993164 513.1737670898438 C 112.72277069091797 511.08660888671875 112.31362915039062 476.0411071777344 108.50413513183594 489.6998596191406" stroke-width="6.0" fill="none" stroke="rgb(0, 0, 0)" stroke-opacity="0.9988167" stroke-linecap="round" stroke-linejoin="round"/>
    <path d="M 126.5980224609375 429.2261657714844 C 26.18821907043457 430.0611877441406 10.906521797180176 390.8143615722656 54.02010726928711 431.8253479003906 C 47.45998764038086 402.4981689453125 64.43533325195312 426.4028625488281 -43.74730682373047 416.6008605957031 C 15.205289840698242 405.04595947265625 43.53837585449219 404.88861083984375 102.39891815185547 393.6236877441406 C 105.98384857177734 408.227294921875 161.61387634277344 432.85821533203125 145.27818298339844 412.8522644042969" stroke-width="6.0" fill="none" stroke="rgb(0, 0, 0)" stroke-opacity="1.0" stroke-linecap="round" stroke-linejoin="round"/>
    <path d="M 341.42156982421875 133.03761291503906 C 410.3992004394531 149.4283905029297 387.7171325683594 142.27621459960938 456.6136779785156 167.2910614013672 C 415.6392822265625 158.50413513183594 441.72821044921875 168.88467407226562 414.1399841308594 157.85116577148438 C 369.9308166503906 136.3025665283203 354.3523254394531 176.4828338623047 366.73321533203125 137.66412353515625 C 371.2979736328125 156.03810119628906 353.24932861328125 125.74698638916016 310.1484680175781 180.42422485351562" stroke-width="6.0" fill="none" stroke="rgb(0, 0, 0)" stroke-opacity="0.98954505" stroke-linecap="round" stroke-linejoin="round"/>
    <path d="M 365.5403137207031 372.7483825683594 C 456.06396484375 311.729248046875 444.9231262207031 308.329833984375 413.49298095703125 359.1122741699219 C 360.04058837890625 386.8583068847656 348.07025146484375 414.84356689453125 362.638916015625 383.52984619140625 C 356.39105224609375 400.1120910644531 339.5439147949219 357.6449890136719 307.1456298828125 352.1482238769531 C 330.724365234375 324.7908935546875 312.9601135253906 352.82598876953125 304.9803466796875 444.4132385253906" stroke-width="6.0" fill="none" stroke="rgb(0, 0, 0)" stroke-opacity="1.0" stroke-linecap="round" stroke-linejoin="round"/>
    <path d="M 87.74589538574219 444.5124816894531 C 192.69723510742188 442.0876159667969 171.3502197265625 458.8027038574219 131.58006286621094 450.2353820800781 C 92.69133758544922 474.364990234375 83.17567443847656 434.398681640625 171.54962158203125 442.4114990234375 C 198.5011749267578 422.7214050292969 169.72482299804688 429.7705078125 190.9600372314453 498.42388916015625 C 189.09588623046875 508.4885559082031 195.22999572753906 521.7332153320312 183.4580535888672 486.8119812011719" stroke-width="6.0" fill="none" stroke="rgb(0, 0, 0)" stroke-opacity="1.0" stroke-linecap="round" stroke-linejoin="round"/>
    <path d="M 521.4852905273438 455.5184020996094 C 523.3339233398438 426.45330810546875 530.3609619140625 431.8316650390625 502.25347900390625 470.19854736328125 C 526.7545166015625 478.663330078125 522.14111328125 504.0876770019531 555.3118286132812 508.28375244140625 C 560.8352661132812 495.4016418457031 583.1155395507812 503.84173583984375 557.8313598632812 499.66461181640625 C 557.2761840820312 484.46319580078125 538.3603515625 532.0176391601562 556.7655029296875 504.5800476074219" stroke-width="6.0" fill="none" stroke="rgb(0, 0, 0)" stroke-opacity="0.0017637743" stroke-linecap="round" stroke-linejoin="round"/>
    <path d="M 62.62044143676758 493.60870361328125 C 48.34886169433594 475.9881591796875 63.0437126159668 534.8971557617188 61.01441192626953 568.3896484375 C 70.70023345947266 593.1715087890625 93.63539123535156 576.4937744140625 92.77056884765625 543.6902465820312 C 64.10140991210938 551.7435913085938 46.968257904052734 602.0385131835938 39.152645111083984 614.1162719726562 C 37.42576599121094 598.6482543945312 32.60755157470703 614.6041259765625 47.50382614135742 641.1083984375" stroke-width="6.0" fill="none" stroke="rgb(0, 0, 0)" stroke-opacity="0.0" stroke-linecap="round" stroke-linejoin="round"/>
    <path d="M 116.00352478027344 23.895456314086914 C 133.62796020507812 17.86333465576172 137.69644165039062 9.443581581115723 105.81166076660156 16.62535858154297 C 124.57720184326172 16.73689079284668 133.1438751220703 37.454368591308594 119.32010650634766 16.615781784057617 C 116.71070098876953 -53.294776916503906 117.40528869628906 -66.9273910522461 116.57495880126953 -61.304161071777344 C 82.92958068847656 -20.240665435791016 91.2598648071289 -38.528053283691406 114.50032043457031 -24.417001724243164" stroke-width="6.0" fill="none" stroke="rgb(0, 0, 0)" stroke-opacity="0.0012034111" stroke-linecap="round" stroke-linejoin="round"/>
    <path d="M 461.7485046386719 221.7266082763672 C 416.2807922363281 278.1636657714844 435.7339172363281 321.5697326660156 460.4040832519531 225.3202362060547 C 434.3963623046875 219.78953552246094 389.27935791015625 296.4499816894531 336.9483337402344 305.7531433105469 C 413.59954833984375 241.95452880859375 442.3389892578125 205.46693420410156 475.33843994140625 238.08212280273438 C 455.5364685058594 319.4971008300781 429.45733642578125 300.3001708984375 463.9632873535156 235.14120483398438" stroke-width="6.0" fill="none" stroke="rgb(0, 0, 0)" stroke-opacity="0.999608" stroke-linecap="round" stroke-linejoin="round"/>
    <path d="M 105.16320037841797 493.97967529296875 C 213.51710510253906 481.49871826171875 252.1658935546875 469.2279968261719 282.5372314453125 461.6802673339844 C 282.4695739746094 435.3296203613281 376.8073425292969 418.2097473144531 280.42041015625 438.19671630859375 C 303.91351318359375 371.7085266113281 275.23040771484375 385.5926208496094 275.5845947265625 395.8999938964844 C 270.1330261230469 330.5040283203125 303.9527893066406 346.6183166503906 232.221923828125 373.0282287597656" stroke-width="6.0" fill="none" stroke="rgb(0, 0, 0)" stroke-opacity="0.99997663" stroke-linecap="round" stroke-linejoin="round"/>
    <path d="M 354.05029296875 48.19895935058594 C 353.3731689453125 47.25677490234375 351.0575256347656 72.66158294677734 361.8653259277344 59.968772888183594 C 350.0616149902344 54.243980407714844 353.6207275390625 62.221134185791016 363.6208190917969 54.05758285522461 C 368.91326904296875 42.70647048950195 337.6564636230469 37.65961837768555 356.13568115234375 54.00534439086914 C 358.0996398925781 63.8951530456543 353.49481201171875 41.76244354248047 340.9599609375 -1.8532837629318237" stroke-width="6.0" fill="none" stroke="rgb(0, 0, 0)" stroke-opacity="0.0" stroke-linecap="round" stroke-linejoin="round"/>
    <path d="M 156.79632568359375 219.12371826171875 C 293.1802062988281 203.5202178955078 298.2183837890625 197.46713256835938 198.62823486328125 173.59962463378906 C 249.13516235351562 203.83428955078125 236.92015075683594 188.4034881591797 197.89056396484375 189.37185668945312 C 128.92105102539062 191.85726928710938 141.8837890625 226.08154296875 178.44677734375 188.02020263671875 C 177.57032775878906 161.4696502685547 172.92787170410156 179.5847930908203 150.03445434570312 196.37303161621094" stroke-width="6.0" fill="none" stroke="rgb(0, 0, 0)" stroke-opacity="0.00017975154" stroke-linecap="round" stroke-linejoin="round"/>
    <path d="M 167.9396209716797 273.17230224609375 C 260.5347595214844 253.71493530273438 281.8116455078125 254.0404815673828 239.71238708496094 251.4888153076172 C 268.35150146484375 252.35618591308594 221.4319305419922 257.3564147949219 124.94098663330078 253.75477600097656 C 119.80677795410156 297.17236328125 172.0673370361328 273.2407531738281 201.9183349609375 244.08645629882812 C 285.6021728515625 242.62245178222656 327.36773681640625 236.81626892089844 355.82843017578125 284.0994873046875" stroke-width="6.0" fill="none" stroke="rgb(0, 0, 0)" stroke-opacity="1.0" stroke-linecap="round" stroke-linejoin="round"/>
    <path d="M 150.9965362548828 454.0614929199219 C 154.863525390625 442.4986572265625 137.7030487060547 378.43487548828125 164.7066650390625 360.4557189941406 C 126.36888885498047 372.6985168457031 113.14057922363281 356.3030700683594 135.29627990722656 442.70989990234375 C 103.35271453857422 426.87713623046875 154.14073181152344 417.56072998046875 151.6781768798828 351.7878112792969 C 156.4574737548828 397.2364196777344 143.51101684570312 382.4194641113281 75.58048248291016 397.92022705078125" stroke-width="6.0" fill="none" stroke="rgb(0, 0, 0)" stroke-opacity="1.0" stroke-linecap="round" stroke-linejoin="round"/>
    <path d="M 233.26023864746094 280.4332580566406 C 244.8297576904297 283.46600341796875 238.007080078125 294.1960144042969 239.4423828125 276.9689025878906 C 210.6168975830078 292.20916748046875 249.27911376953125 271.8143615722656 285.0595703125 261.8894958496094 C 268.1324768066406 237.41818237304688 312.35028076171875 245.52984619140625 264.2905578613281 253.80477905273438 C 309.4241943359375 242.86892700195312 288.41265869140625 258.14837646484375 315.47186279296875 205.86192321777344" stroke-width="6.0" fill="none" stroke="rgb(0, 0, 0)" stroke-opacity="1.0" stroke-linecap="round" stroke-linejoin="round"/>
    <path d="M 603.4879150390625 286.7992248535156 C 674.7709350585938 279.039306640625 664.4099731445312 269.04052734375 647.0184936523438 217.05262756347656 C 605.3428344726562 206.05223083496094 622.7444458007812 201.8221893310547 629.0575561523438 190.39158630371094 C 612.3159790039062 204.81109619140625 606.0096435546875 172.76077270507812 611.13818359375 175.79861450195312 C 633.3154907226562 164.6191864013672 627.9591064453125 131.4314727783203 635.6228637695312 149.04261779785156" stroke-width="6.0" fill="none" stroke="rgb(0, 0, 0)" stroke-opacity="0.0" stroke-linecap="round" stroke-linejoin="round"/>
    <path d="M 308.81085205078125 562.3702392578125 C 295.5364990234375 561.4976806640625 313.6351013183594 542.6303100585938 311.53509521484375 552.833251953125 C 344.5713806152344 579.1007080078125 352.17315673828125 596.33984375 333.2209167480469 571.4667358398438 C 364.08026123046875 593.064208984375 356.57452392578125 562.44921875 368.17901611328125 585.1317749023438 C 348.2421875 556.4949951171875 337.7387390136719 583.1939086914062 337.18646240234375 611.3580932617188" stroke-width="6.0" fill="none" stroke="rgb(0, 0, 0)" stroke-opacity="0.0" stroke-linecap="round" stroke-linejoin="round"/>
    <path d="M -11.923090934753418 564.6904296875 C 4.557610988616943 584.2099609375 -10.125971794128418 592.2499389648438 -6.068726062774658 583.2986450195312 C -21.838918685913086 566.1770629882812 -47.50395965576172 566.2337646484375 -62.53303909301758 541.11767578125 C -72.10338592529297 543.952392578125 -63.32453155517578 520.7933959960938 -42.989227294921875 525.1571044921875 C -23.897994995117188 553.4239501953125 -45.91250228881836 536.8359375 -45.426002502441406 555.9078369140625" stroke-width="6.0" fill="none" stroke="rgb(0, 0, 0)" stroke-opacity="0.0" stroke-linecap="round" stroke-linejoin="round"/>
    <path d="M 628.3777465820312 478.04217529296875 C 621.2850341796875 465.46978759765625 606.3304443359375 456.68536376953125 632.933349609375 461.24755859375 C 565.6848754882812 443.9747619628906 537.1106567382812 460.7530517578125 519.4906616210938 481.37872314453125 C 494.528564453125 481.1949462890625 474.36676025390625 487.65576171875 485.3951721191406 486.7085876464844 C 504.83331298828125 500.7782897949219 488.71014404296875 514.408447265625 472.64019775390625 490.70489501953125" stroke-width="6.0" fill="none" stroke="rgb(0, 0, 0)" stroke-opacity="0.00085715955" stroke-linecap="round" stroke-linejoin="round"/>
    <path d="M 166.9759979248047 362.28173828125 C 136.4986572265625 401.1694641113281 145.93655395507812 415.1175537109375 146.02743530273438 446.0251159667969 C 100.61170196533203 425.9050598144531 102.79903411865234 399.38677978515625 110.22018432617188 427.538818359375 C 98.25316619873047 400.73968505859375 134.9546661376953 453.5931396484375 86.27552032470703 457.1316223144531 C 110.55182647705078 418.31744384765625 53.83140182495117 399.28778076171875 27.734092712402344 437.8717041015625" stroke-width="6.0" fill="none" stroke="rgb(0, 0, 0)" stroke-opacity="0.9976485" stroke-linecap="round" stroke-linejoin="round"/>
    <path d="M 435.64715576171875 284.8923034667969 C 394.7926330566406 290.34454345703125 470.6474609375 261.13616943359375 456.2589416503906 209.57412719726562 C 431.31927490234375 297.8780822753906 432.72381591796875 296.8525390625 401.9958801269531 316.5389404296875 C 434.319091796875 289.8456726074219 420.45599365234375 303.1790466308594 360.56683349609375 348.96075439453125 C 346.3786315917969 297.1512451171875 320.5348205566406 265.3611755371094 360.687255859375 260.6812438964844" stroke-width="6.0" fill="none" stroke="rgb(0, 0, 0)" stroke-opacity="1.0" stroke-linecap="round" stroke-linejoin="round"/>
    <path d="M 250.9374237060547 162.75257873535156 C 188.1849822998047 157.72698974609375 140.1661376953125 166.05519104003906 117.91504669189453 158.33175659179688 C 114.41817474365234 167.42494201660156 84.26734161376953 177.94381713867188 74.58257293701172 188.67137145996094 C 83.73481750488281 180.1271209716797 114.59689331054688 172.52059936523438 83.17298889160156 184.03414916992188 C 54.79915237426758 203.8669891357422 71.0992202758789 181.85238647460938 132.97451782226562 154.1824188232422" stroke-width="6.0" fill="none" stroke="rgb(0, 0, 0)" stroke-opacity="0.98227227" stroke-linecap="round" stroke-linejoin="round"/>
    <path d="M 63.824459075927734 504.0656433105469 C 74.67338562011719 575.8086547851562 80.16446685791016 561.703125 87.27732849121094 552.5703125 C 73.05306243896484 555.4111328125 72.0001449584961 527.5245361328125 112.88272857666016 511.677001953125 C 112.28150177001953 527.9960327148438 108.19959259033203 523.8449096679688 100.39672088623047 499.9775085449219 C 134.5572052001953 472.5160827636719 100.51551818847656 440.3524475097656 33.11684799194336 485.84344482421875" stroke-width="6.0" fill="none" stroke="rgb(0, 0, 0)" stroke-opacity="0.0" stroke-linecap="round" stroke-linejoin="round"/>
    <path d="M 527.0188598632812 223.82814025878906 C 527.9763793945312 209.53050231933594 517.4844970703125 201.04745483398438 520.2269287109375 243.66136169433594 C 525.51416015625 199.26766967773438 492.09014892578125 180.6671905517578 506.0849304199219 171.95889282226562 C 490.53778076171875 175.0825958251953 417.9103088378906 150.42556762695312 421.5037536621094 179.736328125 C 396.0472717285156 181.9954376220703 439.1369934082031 190.00453186035156 488.6488037109375 128.1846160888672" stroke-width="6.0" fill="none" stroke="rgb(0, 0, 0)" stroke-opacity="1.0" stroke-linecap="round" stroke-linejoin="round"/>
    <path d="M 422.8790588378906 298.536865234375 C 504.0589904785156 258.4717712402344 479.12713623046875 176.14840698242188 430.028076171875 224.54257202148438 C 392.257080078125 243.07711791992188 405.6057434082031 238.27870178222656 343.5627136230469 244.515869140625 C 355.420166015625 233.89828491210938 366.42315673828125 215.6020050048828 373.2677917480469 271.21942138671875 C 263.3518371582031 229.70883178710938 279.0545959472656 272.2140808105469 312.25927734375 182.3596954345703" stroke-width="6.0" fill="none" stroke="rgb(0, 0, 0)" stroke-opacity="1.0" stroke-linecap="round" stroke-linejoin="round"/>
    <path d="M 520.1893920898438 204.40113830566406 C 511.7154541015625 290.8382263183594 459.6117248535156 284.7576904296875 449.0947265625 223.7459716796875 C 435.98907470703125 254.45240783691406 462.45965576171875 200.90786743164062 488.66229248046875 206.789306640625 C 516.5863037109375 226.82362365722656 526.85107421875 209.1559600830078 517.6381225585938 244.90292358398438 C 502.2049255371094 234.39039611816406 510.257568359375 256.9157409667969 548.3480224609375 218.4731903076172" stroke-width="6.0" fill="none" stroke="rgb(0, 0, 0)" stroke-opacity="1.0" stroke-linecap="round" stroke-linejoin="round"/>
    <path d="M -19.2785701751709 449.86279296875 C 51.484622955322266 473.0452880859375 113.24742126464844 491.2143249511719 121.369140625 456.66766357421875 C 105.52870178222656 450.54364013671875 31.454553604125977 419.118408203125 105.80220031738281 418.23760986328125 C 98.50083923339844 448.08172607421875 109.17772674560547 431.61767578125 121.1725845336914 456.8503112792969 C 106.90194702148438 491.1172790527344 108.19760131835938 492.45526123046875 114.48521423339844 474.5458679199219" stroke-width="6.0" fill="none" stroke="rgb(0, 0, 0)" stroke-opacity="0.9979815" stroke-linecap="round" stroke-linejoin="round"/>
    <path d="M 329.9142761230469 550.7760009765625 C 339.3655700683594 573.9736328125 303.1749267578125 594.3463134765625 348.7509460449219 571.670166015625 C 369.35845947265625 563.3352661132812 319.42572021484375 545.0636596679688 314.3518371582031 545.1346435546875 C 309.8330078125 537.2296752929688 349.87921142578125 548.1986694335938 348.3406677246094 574.7874755859375 C 309.4129333496094 569.2589721679688 332.16448974609375 529.9937744140625 356.207275390625 575.4122314453125" stroke-width="6.0" fill="none" stroke="rgb(0, 0, 0)" stroke-opacity="0.0" stroke-linecap="round" stroke-linejoin="round"/>
    <path d="M 44.41543960571289 202.5194854736328 C 61.928436279296875 199.32984924316406 128.95704650878906 149.47154235839844 126.68560791015625 168.0528564453125 C 91.92430114746094 237.03753662109375 88.25292205810547 265.55682373046875 85.14501953125 268.7867126464844 C 153.7347869873047 279.6191101074219 190.4334259033203 275.93304443359375 131.13014221191406 271.84112548828125 C 45.110450744628906 258.8763732910156 -13.873066902160645 221.28126525878906 56.838558197021484 249.06016540527344" stroke-width="6.0" fill="none" stroke="rgb(0, 0, 0)" stroke-opacity="1.0" stroke-linecap="round" stroke-linejoin="round"/>
    <path d="M 106.71292877197266 347.5022888183594 C 163.34796142578125 323.869873046875 181.29811096191406 385.8939514160156 100.62894439697266 381.23724365234375 C 90.76191711425781 366.32171630859375 163.88856506347656 379.0504150390625 155.10215759277344 377.24591064453125 C 144.6049346923828 386.9878845214844 189.48135375976562 358.1847229003906 192.41677856445312 320.06988525390625 C 175.0642547607422 333.6947326660156 156.2708740234375 367.7216796875 157.3655548095703 363.98895263671875" stroke-width="6.0" fill="none" stroke="rgb(0, 0, 0)" stroke-opacity="1.0" stroke-linecap="round" stroke-linejoin="round"/>
    <path d="M 518.5783081054688 237.93592834472656 C 500.26898193359375 208.61724853515625 539.2984619140625 175.76364135742188 544.0279541015625 192.84115600585938 C 531.8397827148438 224.93394470214844 560.6766967773438 222.9338836669922 552.2730712890625 150.59283447265625 C 519.23388671875 137.63624572753906 592.35986328125 195.91351318359375 513.3159790039062 216.69032287597656 C 525.7428588867188 272.849853515625 563.9203491210938 254.15296936035156 546.3047485351562 168.2542724609375" stroke-width="6.0" fill="none" stroke="rgb(0, 0, 0)" stroke-opacity="1.0" stroke-linecap="round" stroke-linejoin="round"/>
    <path d="M 577.3200073242188 415.94561767578125 C 607.6396484375 419.62896728515625 617.7594604492188 377.6150207519531 594.1971435546875 383.317138671875 C 591.5088500976562 393.20318603515625 558.4822387695312 386.1891174316406 597.7896118164062 408.66741943359375 C 575.1717529296875 429.2037048339844 559.3886108398438 416.1735534667969 553.1906127929688 431.53460693359375 C 559.6989135742188 458.65594482421875 575.4628295898438 445.282470703125 530.3263549804688 450.40380859375" stroke-width="6.0" fill="none" stroke="rgb(0, 0, 0)" stroke-opacity="0.0" stroke-linecap="round" stroke-linejoin="round"/>
    <path d="M 300.733642578125 426.79193115234375 C 292.263916015625 393.3532409667969 279.6026611328125 380.6197814941406 281.23614501953125 480.6563720703125 C 273.06268310546875 322.3109130859375 291.5260925292969 318.52886962890625 290.53643798828125 463.0257568359375 C 271.2013244628906 424.7171630859375 265.36700439453125 355.8691711425781 310.5168151855469 354.3867492675781 C 313.1742858886719 337.7452392578125 319.6427307128906 400.9122314453125 308.35150146484375 332.23077392578125" stroke-width="6.0" fill="none" stroke="rgb(0, 0, 0)" stroke-opacity="1.0" stroke-linecap="round" stroke-linejoin="round"/>
    <path d="M 504.0461730957031 609.60546875 C 518.2258911132812 618.021728515625 505.62847900390625 617.9336547851562 489.0932312011719 612.0819702148438 C 540.8583984375 618.4725341796875 548.0184936523438 636.6973266601562 545.6107788085938 567.9954833984375 C 529.596923828125 582.0465087890625 556.6353759765625 572.8634033203125 568.799560546875 600.4867553710938 C 558.8562622070312 558.8026733398438 539.4183349609375 550.0494995117188 560.467529296875 558.618408203125" stroke-width="6.0" fill="none" stroke="rgb(0, 0, 0)" stroke-opacity="0.005058956" stroke-linecap="round" stroke-linejoin="round"/>
    <path d="M 317.00396728515625 442.1598815917969 C 307.10675048828125 376.35638427734375 346.2067565917969 312.6502685546875 351.2853088378906 328.4062805175781 C 281.4460144042969 399.9955139160156 273.8604736328125 372.8883972167969 293.9776916503906 359.6136169433594 C 279.9078674316406 380.7315368652344 292.9366455078125 313.76983642578125 309.3332214355469 297.81640625 C 396.242431640625 308.1129455566406 299.7239074707031 401.25445556640625 308.66302490234375 303.7620849609375" stroke-width="6.0" fill="none" stroke="rgb(0, 0, 0)" stroke-opacity="1.0" stroke-linecap="round" stroke-linejoin="round"/>
    <path d="M 354.9087829589844 398.6464538574219 C 343.1420593261719 396.8068542480469 281.67578125 370.1944274902344 344.66070556640625 319.0945739746094 C 353.5499267578125 408.3778076171875 360.9304504394531 438.4661865234375 299.8646240234375 448.5643310546875 C 361.0990295410156 388.02667236328125 358.42913818359375 369.5820617675781 355.4842834472656 406.87628173828125 C 399.3934326171875 435.442626953125 420.5610656738281 454.178466796875 411.4375305175781 446.407470703125" stroke-width="6.0" fill="none" stroke="rgb(0, 0, 0)" stroke-opacity="1.0" stroke-linecap="round" stroke-linejoin="round"/>
    <path d="M 154.59701538085938 118.53211212158203 C 150.974609375 128.1011962890625 168.40121459960938 153.73651123046875 166.79335021972656 175.9376220703125 C 173.50550842285156 199.98219299316406 155.45785522460938 220.45579528808594 159.91506958007812 146.12747192382812 C 177.39407348632812 132.66949462890625 143.9957275390625 143.46145629882812 181.07041931152344 137.85879516601562 C 173.69644165039062 161.16517639160156 138.23175048828125 171.49383544921875 119.31892395019531 163.62997436523438" stroke-width="6.0" fill="none" stroke="rgb(0, 0, 0)" stroke-opacity="0.0019654362" stroke-linecap="round" stroke-linejoin="round"/>
    <path d="M 233.05972290039062 606.70849609375 C 223.57164001464844 614.4806518554688 244.9534149169922 612.5204467773438 234.97024536132812 630.8027954101562 C 232.65142822265625 649.2881469726562 260.7714538574219 664.485595703125 268.90301513671875 693.62109375 C 246.51065063476562 718.0368041992188 268.6476135253906 732.6002807617188 249.7150421142578 756.18896484375 C 247.2566680908203 774.7650146484375 268.2853698730469 784.824462890625 251.5863037109375 789.2716064453125" stroke-width="6.0" fill="none" stroke="rgb(0, 0, 0)" stroke-opacity="0.41479477" stroke-linecap="round" stroke-linejoin="round"/>
    <path d="M 200.44644165039062 280.37841796875 C 246.6643524169922 258.2469787597656 227.3618621826172 293.628173828125 195.3794708251953 333.6850280761719 C 134.02093505859375 338.3699035644531 144.7664794921875 324.7175598144531 149.53697204589844 274.6044616699219 C 144.1627960205078 284.218505859375 127.37098693847656 260.7530212402344 103.7933120727539 275.6570129394531 C 91.26571655273438 264.5367126464844 121.47882843017578 288.662841796875 154.59042358398438 287.73284912109375" stroke-width="6.0" fill="none" stroke="rgb(0, 0, 0)" stroke-opacity="0.0" stroke-linecap="round" stroke-linejoin="round"/>
    <path d="M 143.9952850341797 394.4099426269531 C 217.20065307617188 369.2486572265625 226.25514221191406 364.7072448730469 259.5668640136719 350.5119934082031 C 295.3728942871094 337.1662902832031 293.09344482421875 322.0785217285156 317.83367919921875 284.58868408203125 C 322.98162841796875 246.4996337890625 303.3205261230469 350.1043701171875 330.2857360839844 352.3096923828125 C 383.5340881347656 277.7120361328125 288.12908935546875 260.02520751953125 282.0648498535156 349.2648010253906" stroke-width="6.0" fill="none" stroke="rgb(0, 0, 0)" stroke-opacity="1.0" stroke-linecap="round" stroke-linejoin="round"/>
    <path d="M 168.8490447998047 377.6455078125 C 234.1586456298828 362.14788818359375 259.76116943359375 361.3183288574219 239.87515258789062 402.4386901855469 C 228.95326232910156 366.340576171875 260.4197692871094 336.0580749511719 231.544921875 344.3681335449219 C 250.0977325439453 337.4145812988281 255.4012451171875 325.8033447265625 224.39854431152344 343.5687561035156 C 204.72256469726562 349.9322509765625 255.2664794921875 332.7097473144531 230.58767700195312 327.10772705078125" stroke-width="6.0" fill="none" stroke="rgb(0, 0, 0)" stroke-opacity="0.0" stroke-linecap="round" stroke-linejoin="round"/>
    <path d="M 497.4830627441406 400.4775390625 C 461.04742431640625 386.2396545410156 433.1393127441406 374.19036865234375 413.1465759277344 368.4656677246094 C 344.423095703125 358.9202880859375 362.0726318359375 366.5711669921875 422.7711181640625 319.4405212402344 C 494.1449890136719 283.7467956542969 434.0854187011719 263.2466735839844 391.0225524902344 311.25579833984375 C 373.4561462402344 324.19073486328125 353.5025634765625 342.6747741699219 360.1847229003906 338.85302734375" stroke-width="6.0" fill="none" stroke="rgb(0, 0, 0)" stroke-opacity="1.0" stroke-linecap="round" stroke-linejoin="round"/>
    <path d="M 390.60791015625 129.4969940185547 C 401.9324951171875 120.50375366210938 357.389892578125 128.297607421875 422.9069519042969 186.71649169921875 C 377.91912841796875 212.15249633789062 406.8284606933594 204.21212768554688 364.42572021484375 154.7560577392578 C 327.3591613769531 181.2278594970703 409.7084655761719 109.19335174560547 381.8271179199219 137.92733764648438 C 531.8320922851562 150.62933349609375 603.8065795898438 152.93260192871094 503.04052734375 141.90077209472656" stroke-width="6.0" fill="none" stroke="rgb(0, 0, 0)" stroke-opacity="0.99863446" stroke-linecap="round" stroke-linejoin="round"/>
    <path d="M 373.4200744628906 93.88123321533203 C 376.4441833496094 86.7244873046875 421.093505859375 64.276123046875 425.5935974121094 44.152896881103516 C 415.5454406738281 65.99009704589844 404.33795166015625 64.658935546875 428.88128662109375 29.09697723388672 C 440.4176940917969 -20.852432250976562 420.7159118652344 -25.518739700317383 496.362548828125 -10.290112495422363 C 485.5616760253906 36.06462478637695 476.49114990234375 45.19239807128906 476.0105895996094 27.32205581665039" stroke-width="6.0" fill="none" stroke="rgb(0, 0, 0)" stroke-opacity="0.0058123115" stroke-linecap="round" stroke-linejoin="round"/>
    <path d="M 201.60638427734375 189.95274353027344 C 237.56248474121094 133.255615234375 192.8790740966797 168.81056213378906 124.55311584472656 158.31031799316406 C 189.01388549804688 125.38404846191406 225.17726135253906 118.39102172851562 262.6839904785156 121.23208618164062 C 257.1365966796875 142.1842041015625 225.4214630126953 133.44558715820312 291.1761779785156 124.0395278930664 C 276.59295654296875 128.5554656982422 277.18768310546875 113.2035903930664 207.14926147460938 154.26895141601562" stroke-width="6.0" fill="none" stroke="rgb(0, 0, 0)" stroke-opacity="1.0" stroke-linecap="round" stroke-linejoin="round"/>
    <path d="M 214.44879150390625 287.4771728515625 C 143.28530883789062 315.82147216796875 74.56539154052734 349.9080505371094 171.7314910888672 325.9132080078125 C 228.38906860351562 316.0209655761719 251.00465393066406 293.1812744140625 237.34872436523438 305.17791748046875 C 257.6451110839844 264.5972900390625 193.63540649414062 285.9752197265625 197.5814666748047 316.7856750488281 C 144.6446990966797 336.214599609375 152.18280029296875 356.8949890136719 233.3590850830078 308.2182312011719" stroke-width="6.0" fill="none" stroke="rgb(0, 0, 0)" stroke-opacity="0.997327" stroke-linecap="round" stroke-linejoin="round"/>
    <path d="M 219.78298950195312 71.28797149658203 C 233.60748291015625 68.39163970947266 236.2952880859375 65.2751693725586 220.84750366210938 51.072052001953125 C 214.62161254882812 81.69200134277344 228.72666931152344 46.372047424316406 228.0303955078125 51.56846618652344 C 219.74697875976562 63.95413589477539 239.59576416015625 74.88665008544922 226.6668243408203 62.65182876586914 C 228.88641357421875 98.43388366699219 251.84959411621094 91.67930603027344 245.7747344970703 88.12234497070312" stroke-width="6.0" fill="none" stroke="rgb(0, 0, 0)" stroke-opacity="0.00081738725" stroke-linecap="round" stroke-linejoin="round"/>
    <path d="M 109.12789154052734 254.393310546875 C 69.95279693603516 247.63455200195312 80.25611877441406 248.56643676757812 126.12202453613281 269.2099304199219 C 147.5831298828125 260.08740234375 177.425048828125 240.22586059570312 146.53146362304688 276.7633361816406 C 220.0787353515625 267.61700439453125 248.72369384765625 252.51876831054688 166.88729858398438 255.19338989257812 C 121.61832427978516 250.52352905273438 97.46104431152344 250.13218688964844 52.268001556396484 252.7059326171875" stroke-width="6.0" fill="none" stroke="rgb(0, 0, 0)" stroke-opacity="1.0" stroke-linecap="round" stroke-linejoin="round"/>
    <path d="M 53.72926330566406 333.39703369140625 C 47.80607604980469 332.09088134765625 41.307586669921875 344.51953125 17.995790481567383 357.4954833984375 C 30.41817283630371 385.7769775390625 36.33732604980469 363.8520812988281 78.7339859008789 366.07952880859375 C 90.03559112548828 380.953857421875 93.47711181640625 377.4227600097656 84.3110580444336 367.76361083984375 C 145.31712341308594 357.8980407714844 145.31015014648438 338.71185302734375 95.51485443115234 337.7043762207031" stroke-width="6.0" fill="none" stroke="rgb(0, 0, 0)" stroke-opacity="0.0025386345" stroke-linecap="round" stroke-linejoin="round"/>
    <path d="M 117.9212417602539 415.5654296875 C 227.3553466796875 448.6169738769531 156.650146484375 435.7341613769531 146.1667938232422 399.9427490234375 C 163.09552001953125 355.06268310546875 151.71881103515625 375.1264343261719 147.68359375 391.3482666015625 C 168.27708435058594 355.2448425292969 131.954833984375 387.6781921386719 147.27354431152344 361.3614196777344 C 187.62875366210938 318.9270324707031 137.6411590576172 316.90277099609375 141.88140869140625 353.4050598144531" stroke-width="6.0" fill="none" stroke="rgb(0, 0, 0)" stroke-opacity="0.9683985" stroke-linecap="round" stroke-linejoin="round"/>
    <path d="M 103.25550079345703 352.98321533203125 C 126.84927368164062 302.0750427246094 164.784423828125 270.4916076660156 150.0428924560547 324.5858154296875 C 149.88320922851562 382.540283203125 102.53030395507812 385.3412780761719 147.97979736328125 338.5846862792969 C 166.74093627929688 314.9658203125 171.63616943359375 350.3492736816406 110.16190338134766 333.52496337890625 C 167.54791259765625 267.6172180175781 180.43130493164062 281.8344421386719 156.05349731445312 255.53594970703125" stroke-width="6.0" fill="none" stroke="rgb(0, 0, 0)" stroke-opacity="0.9286379" stroke-linecap="round" stroke-linejoin="round"/>
    <path d="M 223.35362243652344 470.5697326660156 C 210.0304718017578 481.6339416503906 250.04127502441406 450.6583251953125 283.0046081542969 426.7882080078125 C 294.5735778808594 372.0447998046875 293.0589599609375 406.7281188964844 281.56353759765625 468.96795654296875 C 261.4852600097656 460.6922912597656 286.4210510253906 475.9637145996094 291.1849365234375 492.4670104980469 C 292.47210693359375 475.3384094238281 283.24755859375 484.03472900390625 299.4814453125 502.79827880859375" stroke-width="6.0" fill="none" stroke="rgb(0, 0, 0)" stroke-opacity="1.0" stroke-linecap="round" stroke-linejoin="round"/>
    <path d="M -6.228034496307373 226.36923217773438 C -3.262424945831299 223.45330810546875 -12.49164867401123 242.7902374267578 -35.52218246459961 237.69813537597656 C -17.591352462768555 248.24600219726562 -43.26283645629883 237.35418701171875 -59.00971221923828 230.5111083984375 C -50.983760833740234 243.67147827148438 -28.31104850769043 229.33897399902344 -51.58319091796875 252.443359375 C -40.80533981323242 237.81886291503906 11.285248756408691 231.3867950439453 54.61085510253906 200.71615600585938" stroke-width="6.0" fill="none" stroke="rgb(0, 0, 0)" stroke-opacity="1.0" stroke-linecap="round" stroke-linejoin="round"/>
    <path d="M 545.959228515625 200.36062622070312 C 542.7498168945312 237.15904235839844 564.0736694335938 219.92250061035156 544.8812866210938 162.55528259277344 C 547.4744262695312 129.8696746826172 548.2551879882812 170.6670379638672 549.6358642578125 201.1958770751953 C 550.060302734375 193.42813110351562 510.6281433105469 192.38661193847656 510.0162353515625 238.65399169921875 C 513.5842895507812 209.52442932128906 530.0267944335938 219.38604736328125 552.8041381835938 187.148681640625" stroke-width="6.0" fill="none" stroke="rgb(0, 0, 0)" stroke-opacity="0.99978966" stroke-linecap="round" stroke-linejoin="round"/>
    <path d="M 555.6649780273438 202.5769500732422 C 541.6587524414062 213.32504272460938 509.1078796386719 217.9072265625 467.9684753417969 241.57460021972656 C 566.1089477539062 240.36767578125 558.4226684570312 205.80514526367188 536.421875 164.033447265625 C 530.7929077148438 214.0196990966797 502.7926025390625 193.08871459960938 561.693603515625 208.27613830566406 C 569.34912109375 194.57461547851562 532.9074096679688 199.69802856445312 533.5191650390625 247.612548828125" stroke-width="6.0" fill="none" stroke="rgb(0, 0, 0)" stroke-opacity="0.0" stroke-linecap="round" stroke-linejoin="round"/>
    <path d="M 211.54879760742188 511.9695739746094 C 212.3585662841797 496.43499755859375 201.3822479248047 494.0096130371094 199.16888427734375 502.377197265625 C 218.4374542236328 479.7358093261719 201.57012939453125 496.75469970703125 197.31161499023438 472.7455749511719 C 171.029052734375 452.263916015625 163.8114013671875 495.4143371582031 252.43734741210938 428.1632995605469 C 284.4749450683594 441.60107421875 281.04241943359375 459.1001281738281 290.41546630859375 495.85089111328125" stroke-width="6.0" fill="none" stroke="rgb(0, 0, 0)" stroke-opacity="0.0" stroke-linecap="round" stroke-linejoin="round"/>
    <path d="M 229.27455139160156 553.659912109375 C 217.40109252929688 540.2921142578125 199.61302185058594 530.2984008789062 215.19107055664062 555.4223022460938 C 212.8746795654297 543.5392456054688 197.3439178466797 560.06689453125 201.63668823242188 562.6962890625 C 182.03280639648438 554.0457763671875 224.94261169433594 553.7420043945312 218.35726928710938 561.3357543945312 C 241.8546142578125 545.2034912109375 265.8612060546875 538.4364624023438 271.2759704589844 558.8240356445312" stroke-width="6.0" fill="none" stroke="rgb(0, 0, 0)" stroke-opacity="0.0" stroke-linecap="round" stroke-linejoin="round"/>
    <path d="M 533.6474609375 201.48587036132812 C 521.4583740234375 241.09446716308594 495.45635986328125 193.49163818359375 495.5189208984375 216.8287353515625 C 480.2761535644531 292.1924133300781 462.6854248046875 309.9240417480469 424.1996765136719 286.4535827636719 C 447.3879089355469 300.8066101074219 480.54925537109375 306.9895324707031 428.748291015625 326.8584289550781 C 408.8248291015625 375.30462646484375 444.6636047363281 320.89288330078125 535.1416625976562 286.03326416015625" stroke-width="6.0" fill="none" stroke="rgb(0, 0, 0)" stroke-opacity="1.0" stroke-linecap="round" stroke-linejoin="round"/>
    <path d="M 167.4508056640625 276.0152893066406 C 179.09088134765625 259.0440979003906 114.90564727783203 238.10174560546875 3.5053555965423584 255.8174285888672 C 92.95921325683594 273.52325439453125 121.74519348144531 272.0685119628906 158.66964721679688 255.0124053955078 C 138.8389892578125 298.67132568359375 94.22108459472656 286.2377014160156 171.90679931640625 269.4652099609375 C 181.8166046142578 252.23269653320312 169.88778686523438 278.9488220214844 133.57383728027344 276.83209228515625" stroke-width="6.0" fill="none" stroke="rgb(0, 0, 0)" stroke-opacity="0.9655806" stroke-linecap="round" stroke-linejoin="round"/>
    <path d="M 184.0515594482422 457.54669189453125 C 246.43701171875 473.45751953125 243.223388671875 475.251953125 245.87908935546875 461.6280822753906 C 230.67039489746094 462.1404113769531 188.93162536621094 493.5424499511719 155.5068359375 490.23565673828125 C 188.10784912109375 434.3365478515625 198.41163635253906 424.6444396972656 185.69154357910156 384.17919921875 C 206.86207580566406 361.1206970214844 219.5106964111328 360.85723876953125 152.6055908203125 364.39630126953125" stroke-width="6.0" fill="none" stroke="rgb(0, 0, 0)" stroke-opacity="8.476147e-05" stroke-linecap="round" stroke-linejoin="round"/>
    <path d="M 363.72259521484375 212.6038055419922 C 437.6861877441406 208.4583282470703 412.5430603027344 235.4982147216797 409.7348327636719 218.1000213623047 C 356.7064208984375 213.48817443847656 391.3189697265625 206.8687286376953 351.54718017578125 165.2154998779297 C 370.3564758300781 130.1743621826172 400.8114013671875 145.06121826171875 302.0647277832031 125.21491241455078 C 314.1973876953125 128.01876831054688 344.0552673339844 142.61167907714844 362.2127685546875 121.30084991455078" stroke-width="6.0" fill="none" stroke="rgb(0, 0, 0)" stroke-opacity="1.0" stroke-linecap="round" stroke-linejoin="round"/>
    <path d="M 412.9462890625 392.9563903808594 C 431.6333923339844 409.0773010253906 392.34332275390625 404.95257568359375 420.6511535644531 401.3186340332031 C 392.7405090332031 428.821533203125 368.2994384765625 403.4342346191406 366.6382751464844 376.7052917480469 C 353.7386169433594 394.2864685058594 406.2649841308594 404.555908203125 408.24957275390625 429.02044677734375 C 393.3841552734375 470.8351745605469 461.5173645019531 441.994873046875 436.35693359375 428.50872802734375" stroke-width="6.0" fill="none" stroke="rgb(0, 0, 0)" stroke-opacity="0.0" stroke-linecap="round" stroke-linejoin="round"/>
    <path d="M 415.4302673339844 161.7167205810547 C 439.9335632324219 175.1822509765625 398.6507568359375 214.83094787597656 351.55682373046875 216.35769653320312 C 365.22381591796875 276.13330078125 365.60546875 270.8296203613281 323.0164794921875 193.77488708496094 C 343.48394775390625 174.19259643554688 297.3609619140625 204.58157348632812 329.4205322265625 232.4392852783203 C 358.4272155761719 220.09561157226562 308.65228271484375 200.9552001953125 337.96343994140625 170.0872344970703" stroke-width="6.0" fill="none" stroke="rgb(0, 0, 0)" stroke-opacity="1.0" stroke-linecap="round" stroke-linejoin="round"/>
    <path d="M 442.91259765625 636.879638671875 C 429.376953125 615.4267578125 447.1295166015625 562.0177612304688 438.0499572753906 575.410400390625 C 453.9351806640625 577.4369506835938 451.0764465332031 587.009765625 449.77545166015625 504.76605224609375 C 460.2960510253906 510.1051940917969 429.0943298339844 514.537353515625 437.9266052246094 543.0288696289062 C 423.81524658203125 558.3975830078125 444.7084655761719 540.6299438476562 433.7935485839844 548.310302734375" stroke-width="6.0" fill="none" stroke="rgb(0, 0, 0)" stroke-opacity="0.0" stroke-linecap="round" stroke-linejoin="round"/>
    <path d="M -35.56682205200195 228.0186767578125 C -37.93687438964844 292.5275573730469 -25.341598510742188 343.8698425292969 18.94232940673828 234.5904998779297 C 85.14147186279297 226.36581420898438 140.2476806640625 284.2497863769531 91.31832122802734 306.110595703125 C 15.753350257873535 372.4901428222656 41.38228225708008 372.3481140136719 -2.448680877685547 366.50787353515625 C -94.42192077636719 328.80462646484375 -65.26460266113281 330.73876953125 -32.34041976928711 330.2464294433594" stroke-width="6.0" fill="none" stroke="rgb(0, 0, 0)" stroke-opacity="0.96898997" stroke-linecap="round" stroke-linejoin="round"/>
    <path d="M 562.8984985351562 418.164794921875 C 546.1062622070312 442.8216857910156 535.2662963867188 434.1665344238281 537.77734375 452.84832763671875 C 544.6616821289062 447.2527770996094 483.315673828125 437.09686279296875 482.9124755859375 445.5276794433594 C 508.27423095703125 418.4901123046875 498.99310302734375 373.400146484375 506.864013671875 441.62896728515625 C 465.8918762207031 417.5829162597656 516.6076049804688 408.0804138183594 534.0281982421875 402.0920715332031" stroke-width="6.0" fill="none" stroke="rgb(0, 0, 0)" stroke-opacity="0.0" stroke-linecap="round" stroke-linejoin="round"/>
    <path d="M 380.8058166503906 349.1744689941406 C 344.26519775390625 370.70703125 373.75421142578125 353.0578918457031 354.6944885253906 402.78271484375 C 359.8794860839844 394.226806640625 366.4983825683594 335.6611633300781 346.2615661621094 288.8382568359375 C 320.09820556640625 278.9506530761719 317.17877197265625 265.4633483886719 292.3969421386719 307.641845703125 C 317.5517272949219 289.12542724609375 346.12762451171875 280.1365051269531 361.2293395996094 365.20513916015625" stroke-width="6.0" fill="none" stroke="rgb(0, 0, 0)" stroke-opacity="1.0" stroke-linecap="round" stroke-linejoin="round"/>
    <path d="M 541.4952392578125 212.58160400390625 C 563.9193725585938 173.2069549560547 563.2695922851562 151.93890380859375 500.59136962890625 123.35417938232422 C 562.4893798828125 142.9286346435547 571.3446044921875 139.47386169433594 532.0087280273438 153.3159637451172 C 514.8555908203125 147.2517547607422 547.6138916015625 175.86058044433594 535.6032104492188 169.03115844726562 C 618.8145751953125 159.9949188232422 673.02294921875 168.8026580810547 701.609375 154.76487731933594" stroke-width="6.0" fill="none" stroke="rgb(0, 0, 0)" stroke-opacity="0.0013986367" stroke-linecap="round" stroke-linejoin="round"/>
    <path d="M 176.79916381835938 481.5975646972656 C 232.7989501953125 436.5284423828125 257.47711181640625 416.4002685546875 283.6679382324219 398.21099853515625 C 199.43792724609375 413.3259582519531 230.9733123779297 425.5284423828125 184.558837890625 467.3411560058594 C 226.7521209716797 426.3410949707031 213.0531768798828 444.6622009277344 149.14244079589844 394.38897705078125 C 85.11579132080078 404.23431396484375 116.78101348876953 394.71429443359375 154.8495635986328 454.6118469238281" stroke-width="6.0" fill="none" stroke="rgb(0, 0, 0)" stroke-opacity="1.0" stroke-linecap="round" stroke-linejoin="round"/>
    <path d="M -12.014449119567871 561.3381958007812 C -9.142184257507324 573.9953002929688 -34.17208480834961 598.8047485351562 -59.563690185546875 617.6595458984375 C -66.32935333251953 600.129150390625 -44.415672302246094 577.876220703125 -15.1929931640625 586.5089721679688 C 5.398118495941162 581.0437622070312 -14.478740692138672 572.7315673828125 -17.049354553222656 608.057373046875 C -4.838294982910156 607.0631103515625 -10.661942481994629 568.9407958984375 -8.347259521484375 554.1392822265625" stroke-width="6.0" fill="none" stroke="rgb(0, 0, 0)" stroke-opacity="0.44885865" stroke-linecap="round" stroke-linejoin="round"/>
    <path d="M 494.5304870605469 69.96684265136719 C 483.32440185546875 80.17420196533203 505.9643859863281 52.6698112487793 485.4323425292969 47.86487579345703 C 493.100341796875 45.476470947265625 497.8354797363281 80.1762924194336 514.6678466796875 31.44741439819336 C 537.8079833984375 12.509689331054688 520.3368530273438 -15.860616683959961 495.9332275390625 -32.54345703125 C 546.45361328125 4.06712532043457 584.042236328125 -11.913614273071289 514.193359375 -4.662329196929932" stroke-width="6.0" fill="none" stroke="rgb(0, 0, 0)" stroke-opacity="0.0" stroke-linecap="round" stroke-linejoin="round"/>
    <path d="M 604.71240234375 361.57958984375 C 647.7882690429688 353.0426330566406 628.556640625 333.93780517578125 606.73388671875 347.4631652832031 C 614.1700439453125 338.6783142089844 609.5590209960938 358.2513732910156 625.6658935546875 359.3888244628906 C 629.0541381835938 332.94708251953125 598.5903930664062 336.7899475097656 539.3667602539062 315.615234375 C 542.2332763671875 324.4770202636719 579.4054565429688 321.23504638671875 487.5561218261719 308.9239807128906" stroke-width="6.0" fill="none" stroke="rgb(0, 0, 0)" stroke-opacity="1.0" stroke-linecap="round" stroke-linejoin="round"/>
    <path d="M 379.3404846191406 89.88092041015625 C 354.3011779785156 81.37068939208984 319.4862365722656 99.02542877197266 353.98126220703125 72.27989959716797 C 357.5343933105469 107.55615997314453 383.2638244628906 74.81461334228516 377.6163635253906 76.70042419433594 C 379.3386535644531 57.82422637939453 399.1109619140625 54.84161376953125 373.18560791015625 82.3722152709961 C 376.2340087890625 30.18067741394043 378.9706726074219 -22.452322006225586 394.1113586425781 -26.857219696044922" stroke-width="6.0" fill="none" stroke="rgb(0, 0, 0)" stroke-opacity="0.0" stroke-linecap="round" stroke-linejoin="round"/>
    <path d="M 375.8114013671875 94.9861068725586 C 377.8778076171875 64.8747787475586 364.1895751953125 117.12660217285156 400.669921875 116.50050354003906 C 380.670166015625 106.60582733154297 363.1234436035156 124.09523010253906 368.5169982910156 121.6217041015625 C 400.542724609375 117.85321807861328 370.7972106933594 79.73733520507812 373.0605773925781 89.1830825805664 C 366.84375 66.70280456542969 362.8212890625 105.79316711425781 359.3560485839844 103.62983703613281" stroke-width="6.0" fill="none" stroke="rgb(0, 0, 0)" stroke-opacity="0.0" stroke-linecap="round" stroke-linejoin="round"/>
    <path d="M 423.85931396484375 329.4812927246094 C 449.7513122558594 328.3038330078125 403.4497985839844 350.3527526855469 399.6416015625 350.9497985839844 C 421.47454833984375 341.7225036621094 478.72027587890625 305.67120361328125 438.63140869140625 260.99005126953125 C 414.217041015625 281.19561767578125 412.4998474121094 249.18463134765625 440.586669921875 238.3799285888672 C 442.60028076171875 243.9839630126953 423.84185791015625 210.21788024902344 417.5042724609375 251.87637329101562" stroke-width="6.0" fill="none" stroke="rgb(0, 0, 0)" stroke-opacity="0.001399824" stroke-linecap="round" stroke-linejoin="round"/>
    <path d="M 27.02234649658203 367.625 C -22.823619842529297 430.23095703125 -10.74955940246582 428.5504455566406 2.200167417526245 420.2003479003906 C -46.654964447021484 392.95989990234375 -23.36536979675293 379.36279296875 -31.421321868896484 361.4944152832031 C 36.18334197998047 376.3522033691406 93.44853973388672 361.1148681640625 74.4315185546875 358.2085876464844 C 141.0592803955078 278.0991516113281 180.29537963867188 255.55999755859375 93.5483169555664 301.37677001953125" stroke-width="6.0" fill="none" stroke="rgb(0, 0, 0)" stroke-opacity="1.0" stroke-linecap="round" stroke-linejoin="round"/>
    <path d="M 106.04911804199219 35.90281295776367 C 80.9901123046875 14.440117835998535 46.47297286987305 -10.54013729095459 71.77542114257812 4.380256652832031 C 88.01371002197266 36.07796859741211 133.7788543701172 39.933589935302734 121.92507934570312 35.40787124633789 C 118.78019714355469 -3.2523610591888428 129.97781372070312 12.15731143951416 99.02425384521484 28.118602752685547 C 123.1390151977539 54.6202392578125 124.13391876220703 -1.8746330738067627 150.38497924804688 -2.493084192276001" stroke-width="6.0" fill="none" stroke="rgb(0, 0, 0)" stroke-opacity="0.0027679855" stroke-linecap="round" stroke-linejoin="round"/>
    <path d="M 37.0829963684082 608.12744140625 C 43.404972076416016 585.52392578125 38.76658248901367 596.3072509765625 34.753273010253906 597.5491943359375 C 18.399858474731445 587.310302734375 -1.5622397661209106 607.8764038085938 -0.4270581901073456 561.9806518554688 C -26.150062561035156 570.490478515625 -46.37071990966797 594.0346069335938 -17.96514892578125 611.423095703125 C -30.4818172454834 594.4736328125 -14.126370429992676 570.7449340820312 -13.991930961608887 589.33154296875" stroke-width="6.0" fill="none" stroke="rgb(0, 0, 0)" stroke-opacity="0.0043882583" stroke-linecap="round" stroke-linejoin="round"/>
    <path d="M 511.6473693847656 362.4013671875 C 469.29107666015625 349.5063171386719 488.6143798828125 355.0030212402344 456.7215576171875 347.6180114746094 C 475.8609313964844 352.2821044921875 467.51080322265625 349.19769287109375 481.53863525390625 356.09124755859375 C 497.6842041015625 357.958984375 470.8058166503906 355.5435485839844 498.656982421875 356.822998046875 C 484.99176025390625 358.6554260253906 484.3130187988281 352.8760681152344 561.7481079101562 380.8460388183594" stroke-width="6.0" fill="none" stroke="rgb(0, 0, 0)" stroke-opacity="0.9810714" stroke-linecap="round" stroke-linejoin="round"/>
    <path d="M 161.5594940185547 276.01708984375 C 67.1227035522461 254.33335876464844 77.30652618408203 229.1595001220703 180.70310974121094 197.8026123046875 C 213.3597412109375 142.25315856933594 209.58349609375 158.50457763671875 107.38439178466797 164.95799255371094 C 128.83770751953125 168.16510009765625 174.6370849609375 151.86572265625 182.30760192871094 167.57916259765625 C 144.23297119140625 219.1719970703125 166.04725646972656 194.2364044189453 159.7838897705078 201.09432983398438" stroke-width="6.0" fill="none" stroke="rgb(0, 0, 0)" stroke-opacity="1.0" stroke-linecap="round" stroke-linejoin="round"/>
    <path d="M 134.4587860107422 138.34609985351562 C 133.9211883544922 134.38677978515625 176.79820251464844 150.6142120361328 177.95591735839844 130.71591186523438 C 143.02859497070312 120.14988708496094 148.5209503173828 178.27003479003906 122.46988677978516 148.76199340820312 C 147.6606903076172 143.90126037597656 148.5523681640625 124.51074981689453 136.0992431640625 107.11074829101562 C 148.54344177246094 126.05463409423828 148.7088165283203 128.15887451171875 125.26260375976562 141.40667724609375" stroke-width="6.0" fill="none" stroke="rgb(0, 0, 0)" stroke-opacity="0.0" stroke-linecap="round" stroke-linejoin="round"/>
    <path d="M 403.8348083496094 362.63653564453125 C 452.0387268066406 328.4159240722656 484.1982116699219 307.7449951171875 471.5646667480469 318.167236328125 C 449.8946533203125 345.2742004394531 390.0247497558594 304.3236999511719 404.3523254394531 297.6012878417969 C 434.05169677734375 269.72808837890625 429.01556396484375 280.6603088378906 467.7607421875 322.40240478515625 C 510.45977783203125 289.0484619140625 528.7534790039062 323.8766174316406 510.4263000488281 257.213134765625" stroke-width="6.0" fill="none" stroke="rgb(0, 0, 0)" stroke-opacity="0.9479281" stroke-linecap="round" stroke-linejoin="round"/>
    <path d="M 368.72784423828125 9.82255744934082 C 357.1866455078125 39.634098052978516 358.1001281738281 18.361675262451172 349.0989685058594 5.679384231567383 C 357.2557067871094 16.654327392578125 366.8782043457031 19.58055305480957 387.2057189941406 58.284332275390625 C 383.2141418457031 68.01188659667969 401.09564208984375 49.9936408996582 392.2113342285156 38.26054382324219 C 422.3524475097656 12.993598937988281 386.81512451171875 5.154803276062012 409.2153015136719 -12.876858711242676" stroke-width="6.0" fill="none" stroke="rgb(0, 0, 0)" stroke-opacity="0.0" stroke-linecap="round" stroke-linejoin="round"/>
    <path d="M 260.4444274902344 130.66993713378906 C 304.54229736328125 129.17674255371094 304.7186584472656 118.91422271728516 258.0361022949219 105.83773040771484 C 266.8417663574219 129.89096069335938 269.8616027832031 162.61544799804688 268.50701904296875 150.9691619873047 C 283.2345275878906 147.0513458251953 318.5023498535156 130.373779296875 270.8994140625 135.9564666748047 C 260.029296875 171.6351318359375 268.10498046875 198.87266540527344 277.2468566894531 140.82098388671875" stroke-width="6.0" fill="none" stroke="rgb(0, 0, 0)" stroke-opacity="0.0" stroke-linecap="round" stroke-linejoin="round"/>
    <path d="M 343.32373046875 133.8437042236328 C 362.32452392578125 114.14402770996094 393.4420166015625 121.34944915771484 511.7238464355469 127.1188735961914 C 507.83551025390625 152.08428955078125 443.11798095703125 149.86305236816406 422.3387145996094 184.685546875 C 426.4206237792969 200.5657958984375 411.8948059082031 184.08201599121094 395.1848449707031 152.3341522216797 C 375.2537536621094 153.34666442871094 385.1667175292969 153.53558349609375 408.26727294921875 191.98341369628906" stroke-width="6.0" fill="none" stroke="rgb(0, 0, 0)" stroke-opacity="1.0" stroke-linecap="round" stroke-linejoin="round"/>
    <path d="M 164.00428771972656 378.3302001953125 C 197.5008544921875 375.35748291015625 191.50550842285156 395.6634521484375 252.66799926757812 319.72601318359375 C 161.82383728027344 294.8465270996094 160.4302520751953 319.4241638183594 185.0658721923828 342.0819091796875 C 156.67576599121094 375.58697509765625 172.45213317871094 368.44207763671875 169.17396545410156 395.3848571777344 C 144.25462341308594 391.3945007324219 131.96702575683594 373.1080627441406 188.6366424560547 334.7743225097656" stroke-width="6.0" fill="none" stroke="rgb(0, 0, 0)" stroke-opacity="0.0" stroke-linecap="round" stroke-linejoin="round"/>
    <path d="M 106.66077423095703 33.82358932495117 C 84.51567840576172 35.123077392578125 109.70934295654297 14.074833869934082 93.53343200683594 -50.845481872558594 C 93.23204803466797 18.484594345092773 95.66568756103516 16.607656478881836 126.40461730957031 15.30771541595459 C 106.31086730957031 41.465843200683594 100.8167724609375 51.77223205566406 92.49148559570312 50.5770378112793 C 95.81741333007812 77.51982116699219 85.91529083251953 23.94193458557129 63.94857406616211 26.063068389892578" stroke-width="6.0" fill="none" stroke="rgb(0, 0, 0)" stroke-opacity="0.0" stroke-linecap="round" stroke-linejoin="round"/>
    <path d="M 157.09622192382812 576.8394775390625 C 157.88185119628906 567.4287719726562 148.4381103515625 549.8623046875 157.55455017089844 578.4108276367188 C 172.67312622070312 547.1837158203125 182.39169311523438 557.143798828125 207.76947021484375 557.1939086914062 C 222.5862579345703 557.4573974609375 207.00653076171875 531.2918701171875 210.91217041015625 567.4539794921875 C 212.18991088867188 544.27490234375 214.88340759277344 506.5521240234375 196.62567138671875 517.5831298828125" stroke-width="6.0" fill="none" stroke="rgb(0, 0, 0)" stroke-opacity="0.0" stroke-linecap="round" stroke-linejoin="round"/>
    <path d="M 152.34457397460938 539.769775390625 C 174.60357666015625 602.5584106445312 168.74099731445312 600.760986328125 164.57913208007812 630.946533203125 C 145.0360870361328 633.5183715820312 157.9842071533203 632.2674560546875 167.766357421875 590.5693359375 C 185.5956573486328 555.119384765625 146.4755859375 543.2632446289062 151.74484252929688 565.6844482421875 C 131.98233032226562 560.9833374023438 143.04483032226562 591.6751098632812 163.15887451171875 612.9749755859375" stroke-width="6.0" fill="none" stroke="rgb(0, 0, 0)" stroke-opacity="0.0" stroke-linecap="round" stroke-linejoin="round"/>
    <path d="M 111.23776245117188 58.79291534423828 C 98.53353118896484 87.14739990234375 85.98772430419922 69.50830078125 97.7032699584961 83.93107604980469 C 71.86599731445312 78.656982421875 76.23509216308594 102.18934631347656 62.936344146728516 78.1041030883789 C 80.95880126953125 51.5389289855957 89.1919174194336 4.124246120452881 91.77842712402344 -1.3714925050735474 C 108.05824279785156 -16.05832290649414 138.03848266601562 -3.5495331287384033 137.9550323486328 -13.250936508178711" stroke-width="6.0" fill="none" stroke="rgb(0, 0, 0)" stroke-opacity="0.017391311" stroke-linecap="round" stroke-linejoin="round"/>
    <path d="M 520.7000732421875 53.74845886230469 C 516.5823974609375 27.30827522277832 502.37579345703125 28.560720443725586 457.6092834472656 63.55683517456055 C 440.3446044921875 23.354524612426758 425.0072937011719 41.66371536254883 445.07342529296875 26.85721206665039 C 425.7792053222656 55.752960205078125 408.8337707519531 17.757070541381836 434.7543640136719 31.533931732177734 C 446.83209228515625 20.635826110839844 443.3221435546875 7.001025676727295 438.37823486328125 -10.681864738464355" stroke-width="6.0" fill="none" stroke="rgb(0, 0, 0)" stroke-opacity="0.0" stroke-linecap="round" stroke-linejoin="round"/>
    <path d="M 51.865760803222656 188.71487426757812 C 26.485267639160156 205.1102752685547 33.98396682739258 243.41761779785156 22.564138412475586 218.5346221923828 C -7.557106971740723 243.97169494628906 34.977333068847656 222.30186462402344 94.97154998779297 181.54454040527344 C 81.62992095947266 218.53619384765625 59.71043014526367 267.709716796875 47.9468879699707 238.72962951660156 C 107.84186553955078 236.251953125 96.12100219726562 254.45120239257812 167.59982299804688 212.61761474609375" stroke-width="6.0" fill="none" stroke="rgb(0, 0, 0)" stroke-opacity="1.0" stroke-linecap="round" stroke-linejoin="round"/>
    <path d="M 314.81512451171875 215.24246215820312 C 277.68084716796875 302.4942626953125 259.2473449707031 245.09927368164062 321.8623962402344 169.9871826171875 C 251.63282775878906 158.19776916503906 217.6027069091797 160.72874450683594 255.65208435058594 161.13218688964844 C 254.2578582763672 252.40684509277344 248.40054321289062 280.62841796875 226.80455017089844 238.93408203125 C 219.01583862304688 155.50479125976562 246.4628143310547 145.61129760742188 312.1904602050781 129.04815673828125" stroke-width="6.0" fill="none" stroke="rgb(0, 0, 0)" stroke-opacity="1.0" stroke-linecap="round" stroke-linejoin="round"/>
    <path d="M 608.0861206054688 185.59689331054688 C 618.722900390625 153.3289794921875 592.9013671875 185.70436096191406 617.5175170898438 213.33892822265625 C 604.9752197265625 263.9954528808594 601.949951171875 244.09056091308594 618.2262573242188 246.6112518310547 C 613.9818115234375 228.79010009765625 610.3818359375 218.0703125 663.8853149414062 277.7353210449219 C 628.7293701171875 272.1255187988281 578.4310302734375 267.6531982421875 567.574462890625 263.8507995605469" stroke-width="6.0" fill="none" stroke="rgb(0, 0, 0)" stroke-opacity="0.9698271" stroke-linecap="round" stroke-linejoin="round"/>
    <path d="M 559.9317626953125 430.7445373535156 C 561.5574340820312 434.5710754394531 554.32763671875 418.1875915527344 569.4675903320312 435.9521789550781 C 555.9124755859375 430.474365234375 572.0455322265625 430.1417541503906 569.7512817382812 434.330078125 C 569.86572265625 485.13409423828125 565.9432983398438 452.71673583984375 568.5471801757812 434.3558044433594 C 634.712890625 427.98486328125 615.1663818359375 448.8129577636719 630.54345703125 478.2866516113281" stroke-width="6.0" fill="none" stroke="rgb(0, 0, 0)" stroke-opacity="0.0049047014" stroke-linecap="round" stroke-linejoin="round"/>
    <path d="M 84.03179931640625 503.660888671875 C 85.81159210205078 481.1749572753906 71.35640716552734 494.9018859863281 93.55245971679688 489.2732849121094 C 76.09982299804688 519.2437744140625 85.85476684570312 497.0325927734375 121.57228088378906 423.100341796875 C 17.812301635742188 439.6000061035156 15.339884757995605 448.1268615722656 50.56465148925781 521.4309692382812 C 40.208065032958984 520.9859619140625 57.34734344482422 513.3305053710938 40.02801513671875 510.51409912109375" stroke-width="6.0" fill="none" stroke="rgb(0, 0, 0)" stroke-opacity="0.01390529" stroke-linecap="round" stroke-linejoin="round"/>
    <path d="M 77.66970825195312 581.3253784179688 C 44.43721389770508 571.1928100585938 95.29766845703125 580.8129272460938 122.6093978881836 564.7850952148438 C 111.95645141601562 648.689208984375 98.73473358154297 643.9351806640625 98.43250274658203 630.7044067382812 C 142.2483673095703 605.3450927734375 160.27174377441406 607.0673828125 141.13442993164062 611.3948364257812 C 136.08041381835938 605.7598876953125 128.89393615722656 616.1449584960938 125.19081115722656 606.576904296875" stroke-width="6.0" fill="none" stroke="rgb(0, 0, 0)" stroke-opacity="0.0" stroke-linecap="round" stroke-linejoin="round"/>
    <path d="M 462.9524230957031 80.53641510009766 C 465.69976806640625 98.39320373535156 472.2440185546875 120.90535736083984 446.541748046875 89.61681365966797 C 461.8648376464844 89.22248077392578 463.9561767578125 92.25943756103516 450.4740905761719 87.15343475341797 C 446.4321594238281 90.16556549072266 456.549072265625 53.34938049316406 450.80096435546875 123.91304016113281 C 481.72021484375 134.68165588378906 460.86761474609375 127.96434020996094 409.9320983886719 127.4520492553711" stroke-width="6.0" fill="none" stroke="rgb(0, 0, 0)" stroke-opacity="0.034562066" stroke-linecap="round" stroke-linejoin="round"/>
  </g>
</svg>
