<?xml version="1.0" ?>
<svg xmlns="http://www.w3.org/2000/svg" version="1.1" width="600" height="600">
  <defs/>
  <g>
    <path d="M 257.05902099609375 216.04312133789062 C 337.9668273925781 266.1582336425781 399.1004638671875 267.3041687011719 343.73211669921875 220.6072540283203 C 299.94818115234375 244.674072265625 307.1938171386719 222.28782653808594 349.9808654785156 221.37318420410156 C 422.6956481933594 172.59388732910156 432.2638854980469 148.62771606445312 377.5854187011719 182.8328094482422 C 507.11956787109375 161.7335968017578 503.4521484375 176.43124389648438 341.2840270996094 207.7281036376953" stroke-width="6.0" fill="none" stroke="rgb(0, 0, 0)" stroke-opacity="1.0" stroke-linecap="round" stroke-linejoin="round"/>
    <path d="M 282.18585205078125 218.0841064453125 C 340.9479064941406 205.5365447998047 335.1630859375 221.943359375 276.47735595703125 180.93228149414062 C 350.6707763671875 164.20811462402344 391.5976257324219 162.5268096923828 352.54119873046875 174.01658630371094 C 296.79241943359375 260.96624755859375 308.7871398925781 250.01498413085938 347.783935546875 256.80322265625 C 440.90960693359375 256.80352783203125 424.607666015625 272.0892333984375 278.2146301269531 254.48728942871094" stroke-width="6.0" fill="none" stroke="rgb(0, 0, 0)" stroke-opacity="1.0" stroke-linecap="round" stroke-linejoin="round"/>
    <path d="M 247.62948608398438 166.9967803955078 C 236.27061462402344 156.0837860107422 239.30821228027344 179.21524047851562 220.74192810058594 165.44406127929688 C 224.36378479003906 177.6737823486328 226.71759033203125 169.95494079589844 230.11080932617188 113.50543975830078 C 238.48590087890625 144.072998046875 245.77615356445312 108.83236694335938 249.2560577392578 126.36187744140625 C 195.92526245117188 137.41799926757812 202.46644592285156 140.21470642089844 234.37850952148438 112.451171875" stroke-width="6.0" fill="none" stroke="rgb(0, 0, 0)" stroke-opacity="0.006440834" stroke-linecap="round" stroke-linejoin="round"/>
    <path d="M 482.6197204589844 240.44239807128906 C 543.25341796875 253.6595916748047 488.51739501953125 298.5022888183594 562.3309326171875 257.5915832519531 C 714.6683959960938 194.3207244873047 593.0166015625 180.58489990234375 549.9755859375 228.42501831054688 C 571.1331176757812 260.416015625 525.6588745117188 224.94720458984375 581.8882446289062 207.94036865234375 C 609.8013305664062 160.09544372558594 611.802734375 243.4436798095703 579.58203125 316.1648864746094" stroke-width="6.0" fill="none" stroke="rgb(0, 0, 0)" stroke-opacity="1.0" stroke-linecap="round" stroke-linejoin="round"/>
    <path d="M 303.00927734375 114.90753936767578 C 315.740966796875 120.69745635986328 290.6507263183594 98.03746795654297 293.345947265625 95.60030364990234 C 265.0025329589844 93.92864990234375 246.06910705566406 130.3149871826172 271.42462158203125 147.6027374267578 C 303.2369689941406 117.63997650146484 304.7295837402344 128.79592895507812 315.7549133300781 172.9752655029297 C 278.3134460449219 191.36392211914062 181.40435791015625 189.9014129638672 193.0802001953125 188.1769561767578" stroke-width="6.0" fill="none" stroke="rgb(0, 0, 0)" stroke-opacity="0.000968975" stroke-linecap="round" stroke-linejoin="round"/>
    <path d="M 102.18163299560547 588.6763305664062 C 96.92398834228516 578.0665283203125 66.31232452392578 608.3707885742188 75.38790893554688 628.8446655273438 C 28.964412689208984 622.8411254882812 12.840168952941895 598.3969116210938 -15.139359474182129 609.6742553710938 C -11.111227035522461 631.7628784179688 18.0697078704834 638.549560546875 -1.1475857496261597 624.5604248046875 C -11.283524513244629 596.755859375 -39.93764877319336 609.2147827148438 -52.7714729309082 628.0479736328125" stroke-width="6.0" fill="none" stroke="rgb(0, 0, 0)" stroke-opacity="0.00017955132" stroke-linecap="round" stroke-linejoin="round"/>
    <path d="M 399.741943359375 262.43621826171875 C 432.155029296875 223.08702087402344 441.4334716796875 207.1767120361328 476.90289306640625 172.27828979492188 C 467.15509033203125 173.21046447753906 380.5964660644531 154.3279266357422 306.1499328613281 160.9840545654297 C 289.6943664550781 166.64398193359375 336.6266174316406 143.18313598632812 406.34771728515625 146.0261993408203 C 437.3262023925781 142.18629455566406 494.06085205078125 148.2623291015625 506.0819091796875 151.4370880126953" stroke-width="6.0" fill="none" stroke="rgb(0, 0, 0)" stroke-opacity="1.0" stroke-linecap="round" stroke-linejoin="round"/>
    <path d="M 379.95233154296875 407.2101745605469 C 415.23199462890625 436.9586181640625 437.862060546875 458.0279235839844 420.53863525390625 465.0619812011719 C 432.43646240234375 413.482666015625 448.67724609375 380.396728515625 425.2031555175781 380.79766845703125 C 419.41082763671875 451.8562927246094 428.9568176269531 465.9673156738281 447.835205078125 416.50494384765625 C 468.18341064453125 452.43487548828125 404.3877868652344 463.7202453613281 422.87335205078125 389.4569091796875" stroke-width="6.0" fill="none" stroke="rgb(0, 0, 0)" stroke-opacity="1.0" stroke-linecap="round" stroke-linejoin="round"/>
    <path d="M 216.54200744628906 446.5657043457031 C 229.8973846435547 409.5432434082031 245.19821166992188 402.4917297363281 207.6151123046875 449.42303466796875 C 228.9214630126953 421.15655517578125 225.61436462402344 431.88214111328125 158.22279357910156 366.9368591308594 C 206.1732940673828 338.0716857910156 244.47708129882812 393.3361511230469 299.43524169921875 397.50146484375 C 283.2405090332031 380.5303039550781 296.5593566894531 401.585693359375 221.67050170898438 397.820068359375" stroke-width="6.0" fill="none" stroke="rgb(0, 0, 0)" stroke-opacity="0.0" stroke-linecap="round" stroke-linejoin="round"/>
    <path d="M 343.18212890625 434.0499267578125 C 340.738037109375 474.68560791015625 322.46728515625 424.93243408203125 313.1173400878906 408.4295654296875 C 260.8665771484375 389.3512268066406 203.19320678710938 405.9368591308594 288.4286193847656 373.0504150390625 C 340.8833312988281 330.8807373046875 277.408447265625 359.3085632324219 177.1450958251953 379.5492858886719 C 161.3587188720703 380.9236145019531 225.45724487304688 348.54559326171875 337.45184326171875 308.1315002441406" stroke-width="6.0" fill="none" stroke="rgb(0, 0, 0)" stroke-opacity="1.0" stroke-linecap="round" stroke-linejoin="round"/>
    <path d="M 605.5286865234375 110.79305267333984 C 601.7159423828125 129.51295471191406 607.2547607421875 95.09757995605469 629.0678100585938 112.60382843017578 C 608.35498046875 118.24482727050781 620.548828125 132.154296875 603.3941040039062 154.28709411621094 C 631.7337036132812 119.94400024414062 605.70654296875 90.37519073486328 681.4456787109375 73.85417938232422 C 639.412841796875 91.03583526611328 595.7064819335938 94.11090087890625 541.5811767578125 94.8788070678711" stroke-width="6.0" fill="none" stroke="rgb(0, 0, 0)" stroke-opacity="0.52840686" stroke-linecap="round" stroke-linejoin="round"/>
    <path d="M 480.6622314453125 605.9609985351562 C 464.5212097167969 627.589111328125 463.01361083984375 630.9073486328125 442.7099914550781 634.5757446289062 C 485.3081970214844 631.76416015625 472.5749816894531 618.3755493164062 442.5418701171875 627.1571655273438 C 409.6780700683594 610.49658203125 381.4020690917969 615.6279907226562 362.3747253417969 601.3814086914062 C 385.44384765625 552.9647216796875 369.2469177246094 544.4825439453125 363.60638427734375 582.8130493164062" stroke-width="6.0" fill="none" stroke="rgb(0, 0, 0)" stroke-opacity="0.0" stroke-linecap="round" stroke-linejoin="round"/>
    <path d="M 71.42525482177734 192.8670654296875 C 99.67019653320312 212.99038696289062 106.13813781738281 212.04319763183594 84.42137145996094 221.4491729736328 C 105.21800231933594 206.6133270263672 89.4339828491211 212.5577850341797 114.14702606201172 217.90585327148438 C 88.67726135253906 238.47799682617188 106.10157775878906 209.95172119140625 76.60525512695312 180.00331115722656 C 34.77750778198242 180.97743225097656 20.893550872802734 143.01832580566406 -4.7426557540893555 160.2394256591797" stroke-width="6.0" fill="none" stroke="rgb(0, 0, 0)" stroke-opacity="0.0023671794" stroke-linecap="round" stroke-linejoin="round"/>
    <path d="M 355.2314147949219 476.1221923828125 C 379.9766540527344 455.7777404785156 373.5292663574219 514.2340698242188 377.3773193359375 542.2905883789062 C 377.37823486328125 516.2534790039062 397.4432373046875 496.0270080566406 427.55072021484375 507.83880615234375 C 436.640380859375 583.2401123046875 455.77008056640625 566.2401733398438 433.81793212890625 547.1041259765625 C 432.98779296875 530.2874755859375 453.6914367675781 537.5347290039062 451.21820068359375 536.6637573242188" stroke-width="6.0" fill="none" stroke="rgb(0, 0, 0)" stroke-opacity="0.0" stroke-linecap="round" stroke-linejoin="round"/>
    <path d="M 31.754491806030273 42.14467239379883 C 36.457008361816406 42.59176254272461 38.58784484863281 42.96016311645508 15.700821876525879 -25.799686431884766 C -10.853944778442383 21.051855087280273 8.452032089233398 43.58788299560547 -14.632411003112793 48.76800537109375 C -22.682035446166992 7.298536777496338 -13.225238800048828 2.03581166267395 -2.625206232070923 -20.434045791625977 C -1.351288080215454 -10.701448440551758 -18.01114273071289 -17.618253707885742 5.31940221786499 -24.972688674926758" stroke-width="6.0" fill="none" stroke="rgb(0, 0, 0)" stroke-opacity="0.0" stroke-linecap="round" stroke-linejoin="round"/>
    <path d="M 212.82522583007812 481.08941650390625 C 220.96449279785156 472.36431884765625 246.1229248046875 475.6471252441406 204.3982391357422 474.34954833984375 C 160.9246063232422 498.99884033203125 176.148681640625 476.26007080078125 187.52685546875 468.5428771972656 C 182.17327880859375 493.6822204589844 158.7959747314453 482.2398681640625 206.6164093017578 504.4143371582031 C 200.097412109375 497.71795654296875 212.68899536132812 446.09710693359375 193.56179809570312 464.6973876953125" stroke-width="6.0" fill="none" stroke="rgb(0, 0, 0)" stroke-opacity="0.0014356665" stroke-linecap="round" stroke-linejoin="round"/>
    <path d="M 499.8792419433594 607.8109741210938 C 503.6798400878906 628.3455810546875 517.8175048828125 628.203857421875 529.6527099609375 627.951904296875 C 508.34375 640.2364501953125 493.3581237792969 619.1516723632812 512.1094970703125 554.0680541992188 C 513.8068237304688 594.9163208007812 518.3353881835938 588.128173828125 538.7451782226562 571.1924438476562 C 531.256103515625 573.1661376953125 544.725830078125 572.7633056640625 523.969970703125 595.2469482421875" stroke-width="6.0" fill="none" stroke="rgb(0, 0, 0)" stroke-opacity="0.0043948865" stroke-linecap="round" stroke-linejoin="round"/>
    <path d="M 433.30908203125 445.76080322265625 C 383.62518310546875 383.25177001953125 360.5057678222656 405.7331237792969 406.6556396484375 381.8004455566406 C 474.4815368652344 343.9680480957031 454.3406982421875 357.34027099609375 378.6698913574219 395.1427001953125 C 369.63812255859375 372.7940368652344 417.2555236816406 374.3312072753906 364.9969787597656 390.2656555175781 C 355.13336181640625 281.14703369140625 359.9530029296875 325.89825439453125 409.1680908203125 366.4058532714844" stroke-width="6.0" fill="none" stroke="rgb(0, 0, 0)" stroke-opacity="1.0" stroke-linecap="round" stroke-linejoin="round"/>
    <path d="M 596.9779052734375 322.9971008300781 C 624.7447509765625 312.5998229980469 593.5452270507812 332.76690673828125 543.3839721679688 360.70050048828125 C 525.7522583007812 347.7725524902344 586.1033935546875 339.1327819824219 615.1138916015625 302.43695068359375 C 624.9053344726562 333.4149475097656 626.2117309570312 292.1550598144531 603.968994140625 341.05322265625 C 629.330078125 297.0721740722656 628.0362548828125 313.948974609375 627.48828125 318.34228515625" stroke-width="6.0" fill="none" stroke="rgb(0, 0, 0)" stroke-opacity="1.0" stroke-linecap="round" stroke-linejoin="round"/>
    <path d="M 480.5627136230469 565.394775390625 C 479.0628967285156 583.0266723632812 480.8810729980469 624.9087524414062 462.92510986328125 640.9234008789062 C 473.1522216796875 659.703125 491.9924011230469 644.4339599609375 459.1971435546875 619.1885375976562 C 476.4475402832031 585.9718017578125 470.0578308105469 614.564208984375 455.74664306640625 655.8302001953125 C 459.8695373535156 597.9727783203125 454.40155029296875 581.609130859375 453.2056884765625 602.2409057617188" stroke-width="6.0" fill="none" stroke="rgb(0, 0, 0)" stroke-opacity="0.0" stroke-linecap="round" stroke-linejoin="round"/>
    <path d="M 355.53277587890625 397.7519226074219 C 389.0998840332031 373.81890869140625 351.73583984375 404.4711608886719 311.84954833984375 386.54766845703125 C 297.8782653808594 400.21044921875 311.5040283203125 430.51239013671875 295.8249206542969 407.7275695800781 C 238.7147979736328 464.4258728027344 249.5913848876953 451.18743896484375 278.8208923339844 462.9949035644531 C 219.19754028320312 435.90740966796875 219.8290252685547 448.55743408203125 142.72760009765625 506.57452392578125" stroke-width="6.0" fill="none" stroke="rgb(0, 0, 0)" stroke-opacity="1.0" stroke-linecap="round" stroke-linejoin="round"/>
    <path d="M 65.58318328857422 -7.820313930511475 C 83.86792755126953 -12.040072441101074 65.83797454833984 -37.684165954589844 81.39315032958984 -52.3936653137207 C 80.05634307861328 -57.73194885253906 67.72379302978516 -74.4472427368164 61.3764762878418 -59.5648307800293 C 75.4786605834961 -37.409114837646484 65.00794219970703 -43.30065155029297 49.23395538330078 -17.027013778686523 C 64.10240936279297 28.852375030517578 28.30841827392578 59.27080535888672 58.98134994506836 29.540430068969727" stroke-width="6.0" fill="none" stroke="rgb(0, 0, 0)" stroke-opacity="0.0010831384" stroke-linecap="round" stroke-linejoin="round"/>
    <path d="M 20.94078826904297 224.20286560058594 C -44.54261016845703 226.83241271972656 -16.531721115112305 223.5159454345703 8.434197425842285 267.3514099121094 C 63.24152374267578 279.84783935546875 48.54996871948242 264.32635498046875 -16.333782196044922 261.4508056640625 C -24.623905181884766 258.6688537597656 -37.43722915649414 260.56317138671875 -59.720909118652344 264.21728515625 C -21.077491760253906 278.676513671875 35.0328483581543 252.18606567382812 36.16554260253906 278.8785095214844" stroke-width="6.0" fill="none" stroke="rgb(0, 0, 0)" stroke-opacity="0.0" stroke-linecap="round" stroke-linejoin="round"/>
    <path d="M 318.7716064453125 443.8711853027344 C 319.0583801269531 473.6642150878906 317.72674560546875 469.9927062988281 329.3236999511719 462.99957275390625 C 360.7253112792969 485.4730224609375 368.8724060058594 492.0694885253906 330.1719665527344 480.64263916015625 C 332.12652587890625 456.10589599609375 309.63287353515625 487.8887634277344 299.3805847167969 495.659912109375 C 332.7219543457031 467.4453430175781 325.1061706542969 453.2978515625 316.99462890625 517.8295288085938" stroke-width="6.0" fill="none" stroke="rgb(0, 0, 0)" stroke-opacity="0.9491752" stroke-linecap="round" stroke-linejoin="round"/>
    <path d="M 122.62123107910156 282.7687072753906 C 73.9982681274414 235.95770263671875 57.87238311767578 284.3594055175781 71.09806823730469 304.3018798828125 C 90.961181640625 293.0866394042969 69.86017608642578 298.07965087890625 27.12252426147461 308.8574523925781 C 19.7198429107666 315.00115966796875 62.00493621826172 302.11944580078125 33.09031295776367 309.6043395996094 C 22.401081085205078 305.5926818847656 32.698448181152344 283.84271240234375 31.21327781677246 310.502197265625" stroke-width="6.0" fill="none" stroke="rgb(0, 0, 0)" stroke-opacity="0.0043140925" stroke-linecap="round" stroke-linejoin="round"/>
    <path d="M 356.5252380371094 401.8838195800781 C 274.1317138671875 394.6200256347656 314.1010437011719 395.0168762207031 291.7768859863281 495.1385192871094 C 264.3431701660156 465.9402160644531 288.4048156738281 464.75347900390625 325.02093505859375 478.18780517578125 C 290.3145446777344 374.8148193359375 298.7354431152344 403.2715148925781 320.7477111816406 471.9075927734375 C 339.6708984375 471.11114501953125 362.7957763671875 487.15771484375 318.1888732910156 466.70025634765625" stroke-width="6.0" fill="none" stroke="rgb(0, 0, 0)" stroke-opacity="0.99251425" stroke-linecap="round" stroke-linejoin="round"/>
    <path d="M 72.25051879882812 557.3213500976562 C 61.090972900390625 551.8212890625 58.143310546875 524.2474975585938 65.13441467285156 553.818359375 C 65.80986785888672 591.67626953125 113.22880554199219 580.5200805664062 74.75654602050781 611.3998413085938 C 75.59149932861328 620.9031372070312 51.44740676879883 650.6201782226562 79.3320083618164 620.3916015625 C 90.87815856933594 608.1777954101562 64.62464141845703 594.7389526367188 68.11360168457031 614.06396484375" stroke-width="6.0" fill="none" stroke="rgb(0, 0, 0)" stroke-opacity="0.0" stroke-linecap="round" stroke-linejoin="round"/>
    <path d="M 128.05409240722656 542.7490234375 C 142.21286010742188 569.8453369140625 144.812255859375 563.7936401367188 131.58950805664062 540.5776977539062 C 78.1116943359375 487.3697204589844 91.05841064453125 459.5978088378906 124.16592407226562 486.3124084472656 C 164.5802001953125 471.54937744140625 184.96229553222656 477.5618896484375 158.5925750732422 513.9488525390625 C 173.0351104736328 504.7209167480469 208.68760681152344 527.4022216796875 238.05955505371094 497.269287109375" stroke-width="6.0" fill="none" stroke="rgb(0, 0, 0)" stroke-opacity="0.0011961241" stroke-linecap="round" stroke-linejoin="round"/>
    <path d="M 409.43609619140625 475.3941345214844 C 352.2293701171875 488.2392578125 332.31787109375 461.2825927734375 368.81060791015625 516.4407348632812 C 389.2550964355469 462.5126037597656 464.2135925292969 429.5673522949219 464.3956604003906 444.2236022949219 C 432.2203369140625 465.872802734375 457.4005126953125 429.4132080078125 411.6605529785156 472.9810791015625 C 404.3002014160156 481.9721984863281 422.83294677734375 533.2449951171875 388.5624694824219 488.6083068847656" stroke-width="6.0" fill="none" stroke="rgb(0, 0, 0)" stroke-opacity="0.99127626" stroke-linecap="round" stroke-linejoin="round"/>
    <path d="M 146.88885498046875 373.36370849609375 C 156.29193115234375 307.6484069824219 213.47549438476562 335.3615417480469 164.34771728515625 355.16497802734375 C 191.8155975341797 307.18377685546875 138.212646484375 348.9148254394531 146.85948181152344 331.85308837890625 C 150.51950073242188 329.15924072265625 205.59921264648438 279.27276611328125 222.83753967285156 269.3830871582031 C 136.0631561279297 231.6163330078125 161.5012969970703 238.53469848632812 208.35079956054688 223.11477661132812" stroke-width="6.0" fill="none" stroke="rgb(0, 0, 0)" stroke-opacity="1.0" stroke-linecap="round" stroke-linejoin="round"/>
    <path d="M 577.3763427734375 211.923583984375 C 541.564697265625 240.11744689941406 514.88232421875 217.617431640625 573.15625 209.46273803710938 C 567.0875244140625 162.282958984375 526.00634765625 137.57765197753906 553.3736572265625 162.12208557128906 C 555.6212158203125 154.50958251953125 529.1013793945312 189.2635498046875 476.5754699707031 238.1016082763672 C 458.0292053222656 205.1206512451172 486.095458984375 230.67730712890625 602.2138061523438 183.857666015625" stroke-width="6.0" fill="none" stroke="rgb(0, 0, 0)" stroke-opacity="1.0" stroke-linecap="round" stroke-linejoin="round"/>
    <path d="M 593.36474609375 353.9376525878906 C 685.725830078125 328.9492492675781 666.5618286132812 269.5557861328125 569.2843627929688 209.36520385742188 C 529.1295166015625 243.02378845214844 594.8817138671875 252.69517517089844 479.5952453613281 244.92398071289062 C 459.9037780761719 218.19789123535156 470.4455871582031 149.6532440185547 533.1720581054688 221.06375122070312 C 432.8595275878906 208.4011688232422 456.2041015625 215.4080047607422 411.38665771484375 262.56353759765625" stroke-width="6.0" fill="none" stroke="rgb(0, 0, 0)" stroke-opacity="1.0" stroke-linecap="round" stroke-linejoin="round"/>
    <path d="M 304.1791076660156 433.02606201171875 C 299.2435607910156 399.8190612792969 292.77020263671875 408.76953125 363.52264404296875 412.7079162597656 C 348.7865295410156 407.8633728027344 361.7854919433594 423.6058654785156 358.5869445800781 399.72833251953125 C 304.20068359375 397.28704833984375 305.8818359375 397.34552001953125 302.5154724121094 404.59130859375 C 314.17706298828125 391.8069152832031 318.5072937011719 331.6356506347656 364.7857666015625 316.2061767578125" stroke-width="6.0" fill="none" stroke="rgb(0, 0, 0)" stroke-opacity="0.9510928" stroke-linecap="round" stroke-linejoin="round"/>
    <path d="M 297.48309326171875 422.0701599121094 C 316.0913391113281 384.0873718261719 351.4995422363281 359.4927062988281 341.5020446777344 352.78662109375 C 388.5736999511719 385.64410400390625 403.0305480957031 376.48101806640625 454.7713317871094 345.5416259765625 C 455.19659423828125 300.9271545410156 422.802978515625 284.7012023925781 365.2428283691406 310.73980712890625 C 439.25048828125 312.3192443847656 456.5566101074219 341.7777099609375 376.5574035644531 330.2892150878906" stroke-width="6.0" fill="none" stroke="rgb(0, 0, 0)" stroke-opacity="1.0" stroke-linecap="round" stroke-linejoin="round"/>
    <path d="M 90.77725982666016 -9.295941352844238 C 99.12040710449219 -2.5015227794647217 110.18162536621094 -14.825270652770996 90.7835693359375 -22.47039222717285 C 62.37650680541992 -28.043182373046875 88.67682647705078 -24.50649070739746 92.28878021240234 -49.525367736816406 C 117.13262176513672 -61.342628479003906 111.94749450683594 -63.422183990478516 91.77348327636719 -43.67707443237305 C 94.57940673828125 -59.28292465209961 69.22371673583984 -43.32347106933594 53.838436126708984 -55.382652282714844" stroke-width="6.0" fill="none" stroke="rgb(0, 0, 0)" stroke-opacity="0.0" stroke-linecap="round" stroke-linejoin="round"/>
    <path d="M 377.75384521484375 119.3167953491211 C 382.18792724609375 130.3499755859375 365.68780517578125 162.16339111328125 329.4411926269531 173.2789306640625 C 314.5129089355469 185.55807495117188 306.6405944824219 171.72653198242188 302.4342041015625 174.72508239746094 C 296.7207946777344 167.8378143310547 300.5432434082031 174.33526611328125 327.80224609375 107.98239135742188 C 320.46197509765625 83.0893325805664 327.6405944824219 108.51238250732422 317.5218200683594 138.70843505859375" stroke-width="6.0" fill="none" stroke="rgb(0, 0, 0)" stroke-opacity="0.0" stroke-linecap="round" stroke-linejoin="round"/>
    <path d="M 392.6380920410156 548.2262573242188 C 404.5681457519531 525.6729125976562 405.66986083984375 553.885986328125 370.595458984375 597.5051879882812 C 401.9718017578125 589.0109252929688 386.3539123535156 562.0508422851562 390.671875 594.4130249023438 C 414.1488037109375 538.1937255859375 438.8172302246094 551.1304931640625 431.9564514160156 546.0447387695312 C 493.98236083984375 536.4722290039062 527.4259033203125 544.5425415039062 482.42529296875 536.3253784179688" stroke-width="6.0" fill="none" stroke="rgb(0, 0, 0)" stroke-opacity="0.0" stroke-linecap="round" stroke-linejoin="round"/>
    <path d="M 578.0993041992188 135.93125915527344 C 548.5408935546875 152.20132446289062 562.3157348632812 156.9349822998047 522.8292846679688 108.46544647216797 C 549.1387939453125 109.177978515625 556.1372680664062 80.2266845703125 573.2697143554688 58.03411102294922 C 546.5634155273438 90.74298858642578 581.7975463867188 45.01548767089844 575.0036010742188 49.6715202331543 C 553.0112915039062 23.289329528808594 548.4246826171875 -30.24152183532715 544.475830078125 -39.65789794921875" stroke-width="6.0" fill="none" stroke="rgb(0, 0, 0)" stroke-opacity="0.0" stroke-linecap="round" stroke-linejoin="round"/>
    <path d="M 97.29763793945312 219.0149688720703 C 69.41825103759766 173.98614501953125 85.52359771728516 184.01829528808594 126.88605499267578 226.78041076660156 C 110.03453826904297 197.0078582763672 124.4384536743164 208.8617706298828 110.19275665283203 280.320556640625 C 127.91210174560547 273.8245544433594 142.2388153076172 287.8683776855469 124.03430938720703 326.9382019042969 C 52.30155944824219 328.2508239746094 108.02916717529297 321.63177490234375 93.05550384521484 339.40478515625" stroke-width="6.0" fill="none" stroke="rgb(0, 0, 0)" stroke-opacity="0.0031681196" stroke-linecap="round" stroke-linejoin="round"/>
    <path d="M 211.68849182128906 523.102783203125 C 157.0583953857422 531.2269897460938 148.55381774902344 534.8768920898438 180.75852966308594 540.0033569335938 C 161.64340209960938 518.25927734375 168.70628356933594 538.806884765625 158.42282104492188 520.6639404296875 C 188.5199432373047 550.1880493164062 191.7431640625 523.87744140625 213.3108367919922 518.52734375 C 211.7318572998047 439.9447937011719 213.0129852294922 447.9701232910156 206.71844482421875 501.4754943847656" stroke-width="6.0" fill="none" stroke="rgb(0, 0, 0)" stroke-opacity="0.0002194542" stroke-linecap="round" stroke-linejoin="round"/>
    <path d="M 108.1017074584961 125.63172912597656 C 108.89533233642578 134.8524932861328 120.79703521728516 135.80751037597656 123.73649597167969 107.01068115234375 C 110.07048034667969 130.416259765625 115.58069610595703 132.022705078125 109.66471099853516 154.57040405273438 C 111.21931457519531 170.73886108398438 119.83340454101562 164.9315185546875 122.62503814697266 180.5658416748047 C 122.7694091796875 148.18345642089844 144.5041046142578 149.80410766601562 134.27078247070312 155.4501495361328" stroke-width="6.0" fill="none" stroke="rgb(0, 0, 0)" stroke-opacity="0.0" stroke-linecap="round" stroke-linejoin="round"/>
    <path d="M 33.98125076293945 48.48800277709961 C 26.982545852661133 58.7931022644043 37.54375457763672 28.809118270874023 58.436744689941406 25.47543716430664 C 46.513641357421875 -15.2565279006958 40.933414459228516 -42.669456481933594 52.826053619384766 -6.787549018859863 C -19.206127166748047 -4.365211486816406 -33.959716796875 -25.847028732299805 0.4838588833808899 -35.471832275390625 C 43.04103088378906 -76.77974700927734 41.86912536621094 -81.30542755126953 37.47376251220703 -98.14920806884766" stroke-width="6.0" fill="none" stroke="rgb(0, 0, 0)" stroke-opacity="0.0046351943" stroke-linecap="round" stroke-linejoin="round"/>
    <path d="M 269.49609375 88.91162109375 C 241.8931427001953 75.78446960449219 210.4804229736328 37.95006561279297 210.10494995117188 51.092933654785156 C 233.24859619140625 59.706207275390625 241.80516052246094 55.68669509887695 224.7179412841797 61.566898345947266 C 234.2429962158203 58.62521743774414 214.3342742919922 32.44449996948242 240.3519744873047 61.12281036376953 C 221.10084533691406 47.194068908691406 232.04058837890625 79.4551010131836 227.1441650390625 53.72882843017578" stroke-width="6.0" fill="none" stroke="rgb(0, 0, 0)" stroke-opacity="0.0012225185" stroke-linecap="round" stroke-linejoin="round"/>
    <path d="M 195.04273986816406 -11.832618713378906 C 190.55577087402344 0.5580562353134155 165.05093383789062 -0.7670099139213562 247.85658264160156 -0.31222209334373474 C 254.24984741210938 31.0802001953125 182.22442626953125 47.891292572021484 189.3876190185547 53.910709381103516 C 200.07762145996094 42.37143325805664 212.4257354736328 61.418426513671875 212.8784637451172 84.07559967041016 C 211.30918884277344 59.723350524902344 242.67800903320312 71.67878723144531 219.3624725341797 73.86508178710938" stroke-width="6.0" fill="none" stroke="rgb(0, 0, 0)" stroke-opacity="0.00083580095" stroke-linecap="round" stroke-linejoin="round"/>
    <path d="M 246.92918395996094 531.6787719726562 C 245.07150268554688 525.1417236328125 214.90940856933594 527.3734741210938 252.96286010742188 533.1704711914062 C 279.90167236328125 557.2924194335938 266.27972412109375 540.6934204101562 264.26123046875 596.8477172851562 C 264.6014709472656 652.0762329101562 257.5382080078125 640.2659301757812 262.4828796386719 650.800048828125 C 241.4404754638672 655.2153930664062 265.2256164550781 662.2245483398438 256.37255859375 632.5466918945312" stroke-width="6.0" fill="none" stroke="rgb(0, 0, 0)" stroke-opacity="0.0" stroke-linecap="round" stroke-linejoin="round"/>
    <path d="M 263.395263671875 305.67266845703125 C 227.17962646484375 282.10198974609375 292.0427551269531 277.7744140625 265.6882019042969 304.227783203125 C 235.25228881835938 312.66009521484375 266.4674377441406 288.6720886230469 242.1578369140625 254.97705078125 C 262.9992370605469 244.20404052734375 265.1539306640625 267.0267028808594 272.00152587890625 292.4764709472656 C 148.56219482421875 279.60400390625 155.0927276611328 324.1444396972656 198.7297821044922 339.1241149902344" stroke-width="6.0" fill="none" stroke="rgb(0, 0, 0)" stroke-opacity="0.0" stroke-linecap="round" stroke-linejoin="round"/>
    <path d="M 328.2591247558594 169.4932098388672 C 378.4000244140625 164.0746612548828 407.170166015625 186.5599365234375 302.1207580566406 193.03433227539062 C 280.1611022949219 218.3326873779297 337.7228698730469 133.77247619628906 374.4218444824219 184.4156951904297 C 305.28265380859375 231.65292358398438 298.2475891113281 258.6073913574219 225.27389526367188 226.60366821289062 C 207.08888244628906 228.1593780517578 215.64878845214844 196.57130432128906 153.14317321777344 212.6365966796875" stroke-width="6.0" fill="none" stroke="rgb(0, 0, 0)" stroke-opacity="1.0" stroke-linecap="round" stroke-linejoin="round"/>
    <path d="M 415.1044006347656 107.89395904541016 C 410.9861145019531 141.1642608642578 444.1706848144531 149.40960693359375 441.6785583496094 107.31062316894531 C 437.579345703125 117.84463500976562 408.2894592285156 118.1147232055664 409.3976745605469 131.71080017089844 C 413.39935302734375 149.6423797607422 431.1778869628906 160.7171173095703 410.4703063964844 140.66783142089844 C 404.7361145019531 105.62079620361328 409.53338623046875 83.81098937988281 423.1209716796875 80.23824310302734" stroke-width="6.0" fill="none" stroke="rgb(0, 0, 0)" stroke-opacity="0.024119534" stroke-linecap="round" stroke-linejoin="round"/>
    <path d="M 489.2676696777344 291.5151672363281 C 451.1885681152344 222.3138427734375 469.1946716308594 259.7545166015625 429.2887878417969 259.968994140625 C 478.03271484375 203.59678649902344 454.6217346191406 244.0718536376953 485.60296630859375 267.3160095214844 C 461.5228271484375 219.40591430664062 453.6649169921875 195.26841735839844 492.68768310546875 184.24755859375 C 462.67437744140625 195.0689239501953 452.3103942871094 210.0074462890625 431.3270568847656 254.02020263671875" stroke-width="6.0" fill="none" stroke="rgb(0, 0, 0)" stroke-opacity="1.0" stroke-linecap="round" stroke-linejoin="round"/>
    <path d="M 304.55938720703125 233.97540283203125 C 173.19845581054688 247.9768829345703 164.7144317626953 213.9869842529297 299.5362243652344 198.4886474609375 C 320.70831298828125 194.38067626953125 280.38531494140625 184.74813842773438 278.56121826171875 261.1482849121094 C 242.59542846679688 274.8337097167969 239.81134033203125 283.8092346191406 287.7229309082031 274.4660339355469 C 280.3764343261719 273.37823486328125 337.8056640625 269.46337890625 368.558837890625 263.0826721191406" stroke-width="6.0" fill="none" stroke="rgb(0, 0, 0)" stroke-opacity="1.0" stroke-linecap="round" stroke-linejoin="round"/>
    <path d="M 212.99977111816406 515.4569091796875 C 243.611328125 478.0372314453125 259.4488830566406 474.3581237792969 150.19174194335938 509.5195617675781 C 117.76875305175781 523.2720336914062 104.94193267822266 484.5688171386719 94.01625061035156 500.3346862792969 C 85.40267944335938 384.3565979003906 103.51636505126953 400.4453430175781 140.97462463378906 451.4264221191406 C 94.86211395263672 482.7022399902344 103.29479217529297 486.4776916503906 95.23323822021484 487.8692932128906" stroke-width="6.0" fill="none" stroke="rgb(0, 0, 0)" stroke-opacity="0.9972946" stroke-linecap="round" stroke-linejoin="round"/>
    <path d="M 465.9986572265625 429.2557678222656 C 442.4190979003906 362.10858154296875 418.7920227050781 331.7217712402344 433.21783447265625 337.51080322265625 C 340.7063293457031 324.5810852050781 375.1751403808594 323.3228759765625 431.39892578125 360.0779113769531 C 367.0272216796875 383.79412841796875 390.8011474609375 406.49383544921875 377.788330078125 305.6212158203125 C 447.57415771484375 304.95208740234375 450.8583984375 322.6827392578125 379.3165588378906 319.67352294921875" stroke-width="6.0" fill="none" stroke="rgb(0, 0, 0)" stroke-opacity="1.0" stroke-linecap="round" stroke-linejoin="round"/>
    <path d="M 282.8251647949219 233.03358459472656 C 307.31146240234375 196.45578002929688 275.54559326171875 231.49435424804688 281.09375 209.987548828125 C 277.9391784667969 175.9764862060547 324.7892761230469 210.82449340820312 277.97528076171875 208.0301513671875 C 257.9000549316406 174.53053283691406 312.6638488769531 198.2512664794922 297.0435485839844 213.66204833984375 C 324.5086669921875 193.33602905273438 310.0591735839844 148.760498046875 313.61676025390625 139.4529571533203" stroke-width="6.0" fill="none" stroke="rgb(0, 0, 0)" stroke-opacity="0.0" stroke-linecap="round" stroke-linejoin="round"/>
    <path d="M 412.5946350097656 467.5672302246094 C 436.0979919433594 499.9705505371094 463.5919494628906 492.6606140136719 451.55218505859375 495.2228088378906 C 455.8139953613281 505.2220764160156 438.2911376953125 499.79736328125 431.603271484375 441.6250305175781 C 444.8470153808594 392.6409912109375 409.2345275878906 415.7718200683594 457.9997253417969 394.2899169921875 C 448.10955810546875 410.6648864746094 426.8813171386719 402.9866943359375 434.17034912109375 456.4385070800781" stroke-width="6.0" fill="none" stroke="rgb(0, 0, 0)" stroke-opacity="0.0" stroke-linecap="round" stroke-linejoin="round"/>
    <path d="M 453.67303466796875 570.1351928710938 C 429.1535339355469 599.1646728515625 450.9521179199219 568.9051513671875 488.4195251464844 517.1275024414062 C 509.0301818847656 517.6768798828125 487.52264404296875 522.0527954101562 479.57745361328125 529.117919921875 C 516.62646484375 532.5795288085938 490.9418640136719 544.973388671875 485.0619812011719 503.4537353515625 C 560.6536254882812 507.3785095214844 573.273681640625 513.0606689453125 557.3433227539062 483.1690368652344" stroke-width="6.0" fill="none" stroke="rgb(0, 0, 0)" stroke-opacity="0.0" stroke-linecap="round" stroke-linejoin="round"/>
    <path d="M 438.3742980957031 322.509765625 C 470.9981994628906 386.0736389160156 437.8431701660156 432.821044921875 458.1040344238281 405.35870361328125 C 457.3302307128906 344.4364013671875 462.2239685058594 355.2904357910156 436.04998779296875 356.4715881347656 C 397.6211853027344 314.18280029296875 350.8351135253906 310.2102355957031 338.8928527832031 342.98486328125 C 356.3227844238281 332.9549865722656 375.1366271972656 310.4398498535156 437.8625793457031 335.5756530761719" stroke-width="6.0" fill="none" stroke="rgb(0, 0, 0)" stroke-opacity="1.0" stroke-linecap="round" stroke-linejoin="round"/>
    <path d="M 610.6724243164062 166.71481323242188 C 545.1184692382812 155.84942626953125 545.9946899414062 142.5923309326172 552.2241821289062 178.92970275878906 C 542.7057495117188 171.09640502929688 527.3204345703125 157.3019561767578 542.6129760742188 167.99449157714844 C 520.8128051757812 161.34597778320312 460.177978515625 181.9910888671875 516.4798583984375 202.26271057128906 C 560.2122192382812 148.7325439453125 572.0017700195312 128.60885620117188 562.673583984375 218.7707977294922" stroke-width="6.0" fill="none" stroke="rgb(0, 0, 0)" stroke-opacity="1.0" stroke-linecap="round" stroke-linejoin="round"/>
    <path d="M 275.9958190917969 417.0559997558594 C 266.92572021484375 435.2220153808594 265.2695007324219 393.77398681640625 271.6668701171875 432.1033020019531 C 224.1558380126953 419.8789978027344 230.13427734375 430.8013916015625 275.3387756347656 485.25885009765625 C 309.1553955078125 484.25830078125 248.3939666748047 486.9278869628906 185.05459594726562 471.65057373046875 C 147.96949768066406 430.74591064453125 134.2301025390625 418.4049987792969 164.31724548339844 401.9428405761719" stroke-width="6.0" fill="none" stroke="rgb(0, 0, 0)" stroke-opacity="0.0" stroke-linecap="round" stroke-linejoin="round"/>
    <path d="M 172.48374938964844 461.53094482421875 C 96.55694580078125 366.0108642578125 148.54794311523438 415.7454833984375 188.17953491210938 458.0752868652344 C 187.072509765625 469.4257507324219 120.2431640625 467.1133117675781 117.3802719116211 441.47430419921875 C 158.12635803222656 485.5694274902344 109.60105895996094 433.1746826171875 97.54800415039062 415.7851867675781 C 98.3470230102539 449.6005554199219 49.38341522216797 407.63604736328125 29.129207611083984 338.0776062011719" stroke-width="6.0" fill="none" stroke="rgb(0, 0, 0)" stroke-opacity="1.0" stroke-linecap="round" stroke-linejoin="round"/>
    <path d="M 10.738062858581543 487.9844970703125 C 39.3037223815918 496.28961181640625 50.0157356262207 510.4066162109375 29.494434356689453 500.16424560546875 C 44.21922302246094 488.78973388671875 25.537769317626953 510.1619567871094 9.396689414978027 492.8415222167969 C 31.696847915649414 497.60906982421875 55.02932357788086 505.6660461425781 28.218610763549805 496.88250732421875 C 54.556358337402344 500.7976379394531 24.646024703979492 526.99267578125 38.556739807128906 520.5966796875" stroke-width="6.0" fill="none" stroke="rgb(0, 0, 0)" stroke-opacity="0.0067578233" stroke-linecap="round" stroke-linejoin="round"/>
    <path d="M 290.6585693359375 97.1487045288086 C 291.3272399902344 169.34619140625 272.91510009765625 173.97987365722656 273.3467712402344 125.04196166992188 C 262.78662109375 67.36267852783203 236.62551879882812 52.80219650268555 234.62646484375 80.33967590332031 C 268.8343811035156 99.02474212646484 247.73460388183594 87.73918151855469 242.0808868408203 89.15538787841797 C 242.12567138671875 53.38217544555664 276.04296875 85.78913879394531 243.85401916503906 68.6749496459961" stroke-width="6.0" fill="none" stroke="rgb(0, 0, 0)" stroke-opacity="0.0070547713" stroke-linecap="round" stroke-linejoin="round"/>
    <path d="M 331.75799560546875 380.730224609375 C 350.05682373046875 410.6092224121094 374.7998046875 366.27630615234375 378.2356262207031 313.624267578125 C 311.72540283203125 340.8515319824219 291.36846923828125 370.4358825683594 254.40042114257812 375.4244384765625 C 296.3292541503906 366.5788879394531 250.5021209716797 372.3154602050781 237.4431610107422 382.1568298339844 C 259.6195373535156 374.9469909667969 291.6893615722656 371.1524353027344 294.6586608886719 376.4759216308594" stroke-width="6.0" fill="none" stroke="rgb(0, 0, 0)" stroke-opacity="0.047942206" stroke-linecap="round" stroke-linejoin="round"/>
    <path d="M 169.28634643554688 473.0627136230469 C 231.2965087890625 436.5970764160156 195.83106994628906 448.9494934082031 165.40724182128906 405.5039367675781 C 181.96432495117188 406.1635437011719 204.24574279785156 396.2248229980469 162.588623046875 410.0534362792969 C 159.50137329101562 385.4366760253906 207.08868408203125 395.7019958496094 130.6243133544922 387.9039001464844 C 180.8997802734375 355.2832336425781 210.77305603027344 329.9776611328125 181.2735137939453 338.8769226074219" stroke-width="6.0" fill="none" stroke="rgb(0, 0, 0)" stroke-opacity="1.0" stroke-linecap="round" stroke-linejoin="round"/>
    <path d="M 181.51438903808594 116.76268768310547 C 201.94757080078125 112.57991790771484 193.14552307128906 104.6578598022461 170.65921020507812 106.23493194580078 C 179.06600952148438 82.18750762939453 183.48687744140625 98.22237396240234 165.3982696533203 66.40326690673828 C 187.06382751464844 66.9832534790039 177.3011474609375 64.32661437988281 177.30517578125 59.593589782714844 C 185.14413452148438 90.01799774169922 161.6926727294922 130.4225616455078 178.2946014404297 125.82184600830078" stroke-width="6.0" fill="none" stroke="rgb(0, 0, 0)" stroke-opacity="0.0" stroke-linecap="round" stroke-linejoin="round"/>
    <path d="M 450.56097412109375 131.4005889892578 C 494.1171875 126.07523345947266 476.3409118652344 157.0385284423828 469.06884765625 163.255126953125 C 411.2008972167969 162.34727478027344 503.3235168457031 149.1072998046875 519.4517822265625 149.33042907714844 C 502.16229248046875 215.95272827148438 547.386474609375 220.24818420410156 510.6929626464844 159.0860595703125 C 486.43359375 189.76605224609375 469.30078125 191.18458557128906 494.9130554199219 224.8386688232422" stroke-width="6.0" fill="none" stroke="rgb(0, 0, 0)" stroke-opacity="0.00057967193" stroke-linecap="round" stroke-linejoin="round"/>
    <path d="M 236.2304229736328 501.5301818847656 C 218.9909210205078 486.50848388671875 245.8826904296875 494.35675048828125 208.23756408691406 521.9711303710938 C 218.13214111328125 499.1536865234375 217.21591186523438 516.632080078125 193.57691955566406 534.7811889648438 C 216.6698455810547 569.7766723632812 216.13034057617188 565.0462646484375 202.65118408203125 547.9645385742188 C 181.344970703125 560.3589477539062 189.8088836669922 550.85009765625 202.8247528076172 549.9984130859375" stroke-width="6.0" fill="none" stroke="rgb(0, 0, 0)" stroke-opacity="0.00033238917" stroke-linecap="round" stroke-linejoin="round"/>
    <path d="M 118.0968246459961 444.6905212402344 C 75.33216094970703 377.0017395019531 62.7126579284668 399.9629821777344 139.3821258544922 408.0748291015625 C 88.55602264404297 404.84564208984375 56.02336883544922 396.72772216796875 64.6304931640625 385.24383544921875 C 70.65592193603516 418.82330322265625 66.68321228027344 353.865478515625 35.1147346496582 413.4805908203125 C 55.7874755859375 460.6027526855469 96.72775268554688 446.08154296875 60.10685348510742 469.2896728515625" stroke-width="6.0" fill="none" stroke="rgb(0, 0, 0)" stroke-opacity="0.9901131" stroke-linecap="round" stroke-linejoin="round"/>
    <path d="M 566.755615234375 367.0892028808594 C 512.7013549804688 347.0753173828125 520.5685424804688 359.36285400390625 586.7857055664062 304.58050537109375 C 582.4348754882812 346.600341796875 518.5184326171875 351.74359130859375 520.790283203125 367.4979248046875 C 580.3018188476562 357.68365478515625 502.6733703613281 352.56561279296875 544.051513671875 337.1213684082031 C 610.327392578125 292.84820556640625 599.7755737304688 314.3431091308594 589.1760864257812 322.5850830078125" stroke-width="6.0" fill="none" stroke="rgb(0, 0, 0)" stroke-opacity="1.0" stroke-linecap="round" stroke-linejoin="round"/>
    <path d="M 45.94759750366211 180.1804656982422 C 43.574684143066406 214.72784423828125 40.36532974243164 195.90972900390625 61.48417663574219 196.90457153320312 C 29.423707962036133 196.61624145507812 28.816911697387695 224.619140625 48.557682037353516 226.80050659179688 C 63.78059005737305 194.89059448242188 58.14266586303711 241.74026489257812 57.8770751953125 219.17083740234375 C 32.356422424316406 242.7487335205078 60.4011116027832 203.458740234375 54.710208892822266 191.972900390625" stroke-width="6.0" fill="none" stroke="rgb(0, 0, 0)" stroke-opacity="0.0020474815" stroke-linecap="round" stroke-linejoin="round"/>
    <path d="M 318.296875 366.17529296875 C 290.23052978515625 432.1996765136719 313.9183044433594 458.7713928222656 304.2977600097656 432.98974609375 C 329.74639892578125 454.83709716796875 293.17230224609375 518.34765625 296.8563232421875 420.2094421386719 C 310.44952392578125 463.4420471191406 289.1670227050781 478.13092041015625 351.419677734375 482.2959899902344 C 330.2362060546875 488.3698425292969 342.46484375 472.0255126953125 363.70989990234375 414.6834411621094" stroke-width="6.0" fill="none" stroke="rgb(0, 0, 0)" stroke-opacity="0.99803704" stroke-linecap="round" stroke-linejoin="round"/>
    <path d="M 199.51779174804688 121.19815063476562 C 228.626708984375 120.12883758544922 194.50875854492188 127.26317596435547 217.6156463623047 122.60919952392578 C 223.296875 112.17532348632812 194.10862731933594 118.5924301147461 101.91571807861328 121.06123352050781 C 104.14407348632812 121.66844177246094 109.15625 106.1668472290039 165.03684997558594 89.18716430664062 C 159.9845733642578 124.778564453125 172.77854919433594 106.42858123779297 140.4180145263672 118.99964141845703" stroke-width="6.0" fill="none" stroke="rgb(0, 0, 0)" stroke-opacity="0.0028005366" stroke-linecap="round" stroke-linejoin="round"/>
    <path d="M 81.30419921875 404.3558044433594 C 122.42964935302734 345.7418518066406 160.19810485839844 314.2306213378906 153.79119873046875 331.2113037109375 C 246.268310546875 325.2063293457031 276.35784912109375 326.34356689453125 196.38137817382812 338.410888671875 C 187.73724365234375 314.89324951171875 126.4290542602539 332.0654296875 141.45758056640625 381.8354797363281 C 218.3770751953125 373.55706787109375 199.98953247070312 366.8720703125 138.75086975097656 362.388427734375" stroke-width="6.0" fill="none" stroke="rgb(0, 0, 0)" stroke-opacity="1.0" stroke-linecap="round" stroke-linejoin="round"/>
    <path d="M 529.9452514648438 368.1283874511719 C 445.888916015625 402.1465759277344 489.5569763183594 447.93511962890625 487.8144226074219 301.17706298828125 C 487.14703369140625 275.136962890625 458.6553955078125 335.9487609863281 379.2128601074219 319.98321533203125 C 436.22332763671875 349.2779846191406 477.0888977050781 339.931884765625 452.6399230957031 357.2553405761719 C 479.8980712890625 419.43914794921875 395.17767333984375 440.43280029296875 375.3585205078125 386.7255859375" stroke-width="6.0" fill="none" stroke="rgb(0, 0, 0)" stroke-opacity="1.0" stroke-linecap="round" stroke-linejoin="round"/>
    <path d="M 604.8230590820312 120.84282684326172 C 604.8649291992188 124.9617919921875 595.047607421875 124.27468872070312 659.52099609375 117.80448913574219 C 634.8988037109375 156.66299438476562 587.5184326171875 180.99551391601562 548.8060913085938 201.20533752441406 C 509.09295654296875 165.7305908203125 498.5440979003906 170.16317749023438 472.3285217285156 196.32308959960938 C 477.1701354980469 190.29901123046875 535.36083984375 150.69166564941406 549.3832397460938 172.42372131347656" stroke-width="6.0" fill="none" stroke="rgb(0, 0, 0)" stroke-opacity="0.9368026" stroke-linecap="round" stroke-linejoin="round"/>
    <path d="M 49.36614990234375 36.462066650390625 C 61.29213333129883 24.683500289916992 67.19605255126953 42.4990348815918 -16.996835708618164 51.108089447021484 C 61.11002731323242 41.70928192138672 62.619205474853516 64.49809265136719 77.13081359863281 102.09339141845703 C 93.58053588867188 100.66397094726562 117.81407165527344 69.90384674072266 97.30564880371094 84.53063201904297 C 80.05806732177734 111.22530364990234 63.50455856323242 100.98983001708984 80.63368225097656 79.32389068603516" stroke-width="6.0" fill="none" stroke="rgb(0, 0, 0)" stroke-opacity="0.0" stroke-linecap="round" stroke-linejoin="round"/>
    <path d="M 510.802978515625 217.58091735839844 C 586.1403198242188 240.4468994140625 554.359130859375 198.3057861328125 548.99609375 153.53683471679688 C 470.0212707519531 153.76275634765625 519.2261352539062 150.99009704589844 549.6998901367188 158.51231384277344 C 557.9635620117188 190.88475036621094 528.1652221679688 239.7177734375 489.3111877441406 180.0917510986328 C 538.6724243164062 165.32647705078125 622.4776611328125 155.5211639404297 592.8624267578125 202.0419158935547" stroke-width="6.0" fill="none" stroke="rgb(0, 0, 0)" stroke-opacity="1.0" stroke-linecap="round" stroke-linejoin="round"/>
    <path d="M 519.6622924804688 279.96942138671875 C 487.5666198730469 298.2540283203125 486.53271484375 208.43585205078125 458.29229736328125 227.76588439941406 C 503.54632568359375 207.31504821777344 505.0513610839844 155.22369384765625 488.78369140625 186.40342712402344 C 578.284912109375 152.20657348632812 578.5987548828125 158.0011444091797 473.5304870605469 146.81101989746094 C 515.3097534179688 151.94973754882812 511.63348388671875 153.5752410888672 494.08197021484375 146.74609375" stroke-width="6.0" fill="none" stroke="rgb(0, 0, 0)" stroke-opacity="0.99215025" stroke-linecap="round" stroke-linejoin="round"/>
    <path d="M 535.49365234375 279.8949279785156 C 573.9069213867188 283.9054260253906 549.8809814453125 270.49456787109375 492.0278015136719 288.7084655761719 C 538.8422241210938 274.33355712890625 536.3583984375 260.7629089355469 506.76104736328125 261.3523254394531 C 592.04345703125 249.6292266845703 575.6401977539062 277.8100280761719 541.25537109375 310.81915283203125 C 529.93310546875 323.89105224609375 511.5280456542969 316.6710205078125 520.1104736328125 332.6170349121094" stroke-width="6.0" fill="none" stroke="rgb(0, 0, 0)" stroke-opacity="0.012946777" stroke-linecap="round" stroke-linejoin="round"/>
    <path d="M 649.1607666015625 430.174072265625 C 604.2294311523438 421.8895568847656 577.3978881835938 400.1689758300781 569.295654296875 393.3289794921875 C 527.7412109375 416.52001953125 490.4217834472656 412.6728210449219 509.21795654296875 421.4933776855469 C 536.3861083984375 474.7309265136719 553.4385986328125 495.86285400390625 545.4630737304688 489.6307373046875 C 591.5947265625 458.8647155761719 619.4672241210938 451.8049011230469 621.3416137695312 446.89544677734375" stroke-width="6.0" fill="none" stroke="rgb(0, 0, 0)" stroke-opacity="0.63992083" stroke-linecap="round" stroke-linejoin="round"/>
    <path d="M 264.2118835449219 154.20108032226562 C 233.42120361328125 125.99977111816406 206.57493591308594 159.22694396972656 203.6786651611328 144.18243408203125 C 209.98391723632812 158.17507934570312 229.69305419921875 138.2465057373047 229.1824188232422 150.97854614257812 C 181.02076721191406 147.9170684814453 188.44053649902344 154.25367736816406 231.63351440429688 146.79962158203125 C 211.42250061035156 119.51692199707031 187.58065795898438 106.81095886230469 211.50303649902344 124.30677032470703" stroke-width="6.0" fill="none" stroke="rgb(0, 0, 0)" stroke-opacity="0.3959714" stroke-linecap="round" stroke-linejoin="round"/>
    <path d="M 224.97019958496094 225.88291931152344 C 244.0738067626953 216.2901153564453 191.59646606445312 243.60316467285156 121.0975341796875 218.65872192382812 C 200.969970703125 183.1222381591797 232.16268920898438 177.328369140625 302.2544250488281 195.5259552001953 C 283.5843200683594 132.3032989501953 291.18121337890625 110.71725463867188 291.8884582519531 141.0041961669922 C 302.5012512207031 152.8262481689453 299.90875244140625 150.77662658691406 294.9187316894531 141.22052001953125" stroke-width="6.0" fill="none" stroke="rgb(0, 0, 0)" stroke-opacity="0.0" stroke-linecap="round" stroke-linejoin="round"/>
    <path d="M 80.70557403564453 323.7409362792969 C 115.59751892089844 307.8831787109375 90.64956665039062 306.95062255859375 48.46417236328125 352.37066650390625 C 13.830888748168945 382.21533203125 83.89164733886719 381.6768798828125 105.2706298828125 422.24951171875 C 71.62467193603516 398.1670837402344 63.27842330932617 386.052734375 95.8143539428711 406.01568603515625 C 81.06280517578125 485.6835021972656 89.87222290039062 547.2787475585938 169.18417358398438 471.68572998046875" stroke-width="6.0" fill="none" stroke="rgb(0, 0, 0)" stroke-opacity="1.0" stroke-linecap="round" stroke-linejoin="round"/>
    <path d="M 332.0351257324219 70.89554595947266 C 323.9868469238281 31.44434356689453 326.7393798828125 55.708126068115234 339.99713134765625 67.33354949951172 C 311.5027160644531 49.85400390625 305.32342529296875 30.119586944580078 313.14453125 40.627357482910156 C 299.15301513671875 -44.07106399536133 271.351806640625 -56.1480712890625 237.65248107910156 -47.557186126708984 C 211.04322814941406 -35.783206939697266 236.63534545898438 -51.135948181152344 212.8334503173828 -80.99077606201172" stroke-width="6.0" fill="none" stroke="rgb(0, 0, 0)" stroke-opacity="0.0" stroke-linecap="round" stroke-linejoin="round"/>
    <path d="M 426.5141296386719 314.8985290527344 C 430.7846984863281 271.37969970703125 400.1112365722656 254.21395874023438 417.30010986328125 262.2263488769531 C 421.14166259765625 280.3307800292969 395.4870910644531 285.5834655761719 404.90228271484375 314.2933654785156 C 437.2778015136719 337.9134826660156 451.5909118652344 361.2876892089844 468.9488525390625 342.5990295410156 C 438.6319885253906 297.41009521484375 423.83685302734375 299.26275634765625 427.3695373535156 287.4140319824219" stroke-width="6.0" fill="none" stroke="rgb(0, 0, 0)" stroke-opacity="0.0" stroke-linecap="round" stroke-linejoin="round"/>
    <path d="M 168.00961303710938 53.73662185668945 C 144.48406982421875 71.06985473632812 155.33473205566406 65.72530364990234 169.66136169433594 43.01018524169922 C 121.11393737792969 57.01059341430664 157.3365478515625 44.35126495361328 185.0520782470703 22.304798126220703 C 194.0086669921875 37.024471282958984 219.20184326171875 78.51126098632812 231.53846740722656 80.6316909790039 C 264.9126892089844 70.07365417480469 291.3499450683594 63.157875061035156 304.7509460449219 34.7664794921875" stroke-width="6.0" fill="none" stroke="rgb(0, 0, 0)" stroke-opacity="0.0" stroke-linecap="round" stroke-linejoin="round"/>
    <path d="M 514.0370483398438 362.9869384765625 C 536.5064697265625 374.5629577636719 557.6304321289062 357.631591796875 525.5852661132812 346.220703125 C 514.1771850585938 367.1463928222656 474.2867431640625 389.5487060546875 454.98089599609375 416.8315734863281 C 443.7530212402344 431.99383544921875 452.7682189941406 458.5199890136719 416.8062438964844 470.9955139160156 C 453.6620178222656 473.30584716796875 468.7426452636719 510.1086730957031 413.2534484863281 419.13427734375" stroke-width="6.0" fill="none" stroke="rgb(0, 0, 0)" stroke-opacity="1.0" stroke-linecap="round" stroke-linejoin="round"/>
    <path d="M 564.1066284179688 482.7095947265625 C 559.8450317382812 451.27880859375 522.7325439453125 482.28253173828125 581.5422973632812 500.20538330078125 C 633.5873413085938 501.00189208984375 623.4824829101562 478.2414855957031 612.673828125 445.201171875 C 598.7147827148438 445.4495544433594 628.1279907226562 461.8622741699219 634.4055786132812 445.3616638183594 C 603.6358032226562 464.2723388671875 602.5848388671875 486.722412109375 625.3145141601562 478.7155456542969" stroke-width="6.0" fill="none" stroke="rgb(0, 0, 0)" stroke-opacity="0.00026885406" stroke-linecap="round" stroke-linejoin="round"/>
    <path d="M 210.14939880371094 55.5312614440918 C 213.04379272460938 31.04690933227539 183.3236541748047 26.250661849975586 193.40553283691406 51.157718658447266 C 176.357421875 46.9540901184082 179.464599609375 54.72701644897461 235.3292236328125 53.97605895996094 C 199.17689514160156 50.917869567871094 194.1827392578125 13.808816909790039 200.6313934326172 86.32592010498047 C 201.6468505859375 66.71720886230469 200.18748474121094 38.0127067565918 194.951904296875 58.661216735839844" stroke-width="6.0" fill="none" stroke="rgb(0, 0, 0)" stroke-opacity="0.0" stroke-linecap="round" stroke-linejoin="round"/>
    <path d="M 193.07615661621094 89.14286804199219 C 205.8882293701172 82.10063171386719 220.44248962402344 63.1272087097168 203.43411254882812 67.26997375488281 C 205.48904418945312 80.2458267211914 189.96827697753906 74.15900421142578 173.22259521484375 51.270294189453125 C 176.12303161621094 61.46034240722656 191.43882751464844 35.724979400634766 213.6372528076172 15.511348724365234 C 261.3327941894531 7.701887607574463 250.66741943359375 21.875307083129883 232.7567596435547 63.295345306396484" stroke-width="6.0" fill="none" stroke="rgb(0, 0, 0)" stroke-opacity="0.0020074965" stroke-linecap="round" stroke-linejoin="round"/>
    <path d="M 357.863525390625 355.2882080078125 C 348.3634338378906 349.1171569824219 391.68109130859375 354.5785217285156 358.95489501953125 375.3811950683594 C 324.59393310546875 314.5872497558594 297.0409851074219 305.3592224121094 279.7550048828125 316.93096923828125 C 247.54193115234375 252.06817626953125 271.43585205078125 268.01397705078125 328.8170166015625 270.24591064453125 C 213.54974365234375 257.97454833984375 214.17176818847656 278.9960021972656 271.6610107421875 258.1494445800781" stroke-width="6.0" fill="none" stroke="rgb(0, 0, 0)" stroke-opacity="0.0" stroke-linecap="round" stroke-linejoin="round"/>
    <path d="M 301.47845458984375 234.02545166015625 C 324.9326171875 237.37118530273438 236.0302734375 207.7053680419922 232.5399169921875 191.8771209716797 C 348.2358093261719 146.36839294433594 265.1007385253906 169.57008361816406 176.09458923339844 218.0957489013672 C 361.35479736328125 218.43226623535156 350.921875 244.63267517089844 276.00421142578125 254.74014282226562 C 193.4557647705078 230.86959838867188 199.72079467773438 229.3456573486328 308.8767395019531 254.62039184570312" stroke-width="6.0" fill="none" stroke="rgb(0, 0, 0)" stroke-opacity="1.0" stroke-linecap="round" stroke-linejoin="round"/>
    <path d="M 303.2601623535156 232.58189392089844 C 316.14691162109375 289.5223083496094 272.14605712890625 285.6432189941406 248.0435791015625 262.2939758300781 C 248.9219512939453 269.0748291015625 236.00155639648438 304.3332824707031 308.1901550292969 290.4749755859375 C 353.9349365234375 263.8858337402344 309.7217102050781 246.69374084472656 267.340576171875 277.4292297363281 C 271.87548828125 249.54208374023438 275.4569091796875 239.2508087158203 229.01300048828125 263.407470703125" stroke-width="6.0" fill="none" stroke="rgb(0, 0, 0)" stroke-opacity="0.0" stroke-linecap="round" stroke-linejoin="round"/>
    <path d="M 176.50025939941406 464.21270751953125 C 129.97119140625 416.9696044921875 144.033447265625 413.65106201171875 107.19402313232422 413.4078674316406 C 174.61953735351562 502.4162292480469 145.99937438964844 453.2613525390625 105.98780059814453 412.7725830078125 C 175.1248779296875 417.13568115234375 85.33396911621094 416.9512939453125 92.23344421386719 408.02288818359375 C 136.26792907714844 406.75213623046875 139.24951171875 447.7618103027344 172.6375732421875 469.3323059082031" stroke-width="6.0" fill="none" stroke="rgb(0, 0, 0)" stroke-opacity="1.0" stroke-linecap="round" stroke-linejoin="round"/>
    <path d="M 327.794189453125 59.37749481201172 C 342.4949645996094 59.388145446777344 334.1955871582031 52.2639274597168 323.2622985839844 26.679859161376953 C 338.6426696777344 -4.368951797485352 324.37677001953125 42.307960510253906 328.8349609375 17.91297149658203 C 308.9380187988281 8.742780685424805 327.29339599609375 18.705251693725586 392.15643310546875 14.554021835327148 C 351.0994873046875 11.900280952453613 362.4524841308594 10.030346870422363 346.1671142578125 38.230003356933594" stroke-width="6.0" fill="none" stroke="rgb(0, 0, 0)" stroke-opacity="0.00378487" stroke-linecap="round" stroke-linejoin="round"/>
    <path d="M -34.068599700927734 229.07229614257812 C 8.812472343444824 237.85635375976562 -11.122644424438477 230.17483520507812 -6.14874792098999 237.28623962402344 C 0.6915431022644043 171.2012176513672 -22.4700984954834 171.74203491210938 -3.0327365398406982 202.34957885742188 C -6.291350841522217 255.07308959960938 -1.6072016954421997 273.70977783203125 -30.945676803588867 265.0545349121094 C -21.186328887939453 242.65335083007812 -26.0295467376709 219.28982543945312 -41.2037239074707 220.89219665527344" stroke-width="6.0" fill="none" stroke="rgb(0, 0, 0)" stroke-opacity="0.017438939" stroke-linecap="round" stroke-linejoin="round"/>
    <path d="M 91.84884643554688 147.68556213378906 C 82.7156753540039 160.53726196289062 74.54244995117188 185.3915252685547 43.322418212890625 208.75338745117188 C 39.48752975463867 208.94418334960938 56.693809509277344 203.18161010742188 39.93633270263672 199.66738891601562 C 63.36829376220703 226.34095764160156 50.521705627441406 207.13682556152344 41.10753631591797 164.9936065673828 C 30.640350341796875 126.4296646118164 26.090396881103516 158.70205688476562 32.77158737182617 179.5580291748047" stroke-width="6.0" fill="none" stroke="rgb(0, 0, 0)" stroke-opacity="0.0053801523" stroke-linecap="round" stroke-linejoin="round"/>
    <path d="M 561.2854614257812 496.0838623046875 C 558.9049682617188 535.908203125 565.592529296875 483.2238464355469 567.3109741210938 500.225341796875 C 545.506591796875 489.0291442871094 571.8487548828125 498.23004150390625 565.7565307617188 513.103515625 C 609.539794921875 519.84619140625 649.68408203125 521.7592163085938 613.245361328125 483.385009765625 C 587.0117797851562 471.38189697265625 560.569580078125 490.16741943359375 582.27978515625 484.767578125" stroke-width="6.0" fill="none" stroke="rgb(0, 0, 0)" stroke-opacity="0.0032978202" stroke-linecap="round" stroke-linejoin="round"/>
    <path d="M 305.4052429199219 438.5001220703125 C 320.82891845703125 469.1065979003906 306.30706787109375 461.4279479980469 302.91522216796875 439.9535217285156 C 284.7767333984375 442.15606689453125 312.59332275390625 355.6038818359375 350.7964172363281 331.2181701660156 C 359.12054443359375 387.3040771484375 349.931640625 394.31695556640625 308.56036376953125 387.31640625 C 317.9299621582031 358.5208740234375 338.82110595703125 334.8302307128906 389.89422607421875 327.74432373046875" stroke-width="6.0" fill="none" stroke="rgb(0, 0, 0)" stroke-opacity="1.0" stroke-linecap="round" stroke-linejoin="round"/>
    <path d="M 409.7731628417969 319.9341125488281 C 328.478759765625 334.5312194824219 338.1945495605469 339.0721130371094 351.92987060546875 329.0927429199219 C 365.60040283203125 310.43353271484375 398.6442565917969 301.1793212890625 443.62890625 318.830078125 C 435.4731750488281 348.40679931640625 460.2619323730469 369.590087890625 445.7755432128906 407.6170654296875 C 457.98199462890625 335.4853820800781 469.7131652832031 362.62042236328125 405.5322570800781 393.331787109375" stroke-width="6.0" fill="none" stroke="rgb(0, 0, 0)" stroke-opacity="1.0" stroke-linecap="round" stroke-linejoin="round"/>
    <path d="M 385.15716552734375 433.66510009765625 C 348.020751953125 491.7767333984375 345.4222412109375 474.2824401855469 392.50323486328125 479.7416687011719 C 344.58990478515625 495.7759704589844 351.4271240234375 467.4920959472656 336.6497802734375 477.7419128417969 C 319.5246276855469 472.1826171875 322.0428161621094 486.3241271972656 327.11260986328125 462.38641357421875 C 304.5044860839844 456.5364990234375 278.2149353027344 476.5443420410156 144.09115600585938 511.52520751953125" stroke-width="6.0" fill="none" stroke="rgb(0, 0, 0)" stroke-opacity="0.9980259" stroke-linecap="round" stroke-linejoin="round"/>
    <path d="M 297.9132995605469 67.79957580566406 C 291.1261291503906 41.02260971069336 308.47186279296875 58.20419692993164 287.708251953125 83.3882064819336 C 304.11016845703125 65.33135986328125 282.52593994140625 88.28086853027344 292.5538330078125 93.58252716064453 C 314.8144226074219 92.81991577148438 323.8755798339844 73.02911376953125 270.78265380859375 48.45523452758789 C 251.32174682617188 34.596397399902344 233.01846313476562 19.180185317993164 235.26303100585938 17.62346839904785" stroke-width="6.0" fill="none" stroke="rgb(0, 0, 0)" stroke-opacity="0.0" stroke-linecap="round" stroke-linejoin="round"/>
    <path d="M 442.51556396484375 227.89324951171875 C 420.25396728515625 281.71405029296875 401.3401794433594 264.5248718261719 454.2152404785156 216.43113708496094 C 462.4466247558594 196.83831787109375 479.1205139160156 227.9648895263672 447.6657409667969 196.99595642089844 C 422.6007080078125 203.28077697753906 412.5412292480469 206.7599639892578 350.41595458984375 218.1726531982422 C 283.96734619140625 248.66717529296875 303.83197021484375 252.39463806152344 426.3417053222656 221.2852020263672" stroke-width="6.0" fill="none" stroke="rgb(0, 0, 0)" stroke-opacity="1.0" stroke-linecap="round" stroke-linejoin="round"/>
    <path d="M 510.2936706542969 234.55271911621094 C 474.9545593261719 258.6649475097656 469.0110778808594 223.98980712890625 515.2297973632812 206.82254028320312 C 456.4363708496094 197.04966735839844 435.2518615722656 159.44700622558594 524.6140747070312 133.3202362060547 C 562.6402587890625 155.74017333984375 538.5464477539062 155.61270141601562 491.8902587890625 137.95953369140625 C 463.0177917480469 126.54483795166016 460.18133544921875 130.54783630371094 476.22149658203125 136.97154235839844" stroke-width="6.0" fill="none" stroke="rgb(0, 0, 0)" stroke-opacity="0.00036971792" stroke-linecap="round" stroke-linejoin="round"/>
    <path d="M 186.28634643554688 293.04296875 C 218.9128875732422 281.7749938964844 186.44078063964844 311.20013427734375 127.6196060180664 256.4197082519531 C 104.0043716430664 277.9530944824219 41.293697357177734 303.72882080078125 123.88743591308594 241.06097412109375 C 152.04151916503906 233.27833557128906 94.67675018310547 262.10467529296875 106.97306823730469 263.20086669921875 C 86.87371826171875 288.41204833984375 67.0645523071289 285.78076171875 29.288068771362305 337.5232849121094" stroke-width="6.0" fill="none" stroke="rgb(0, 0, 0)" stroke-opacity="1.0" stroke-linecap="round" stroke-linejoin="round"/>
    <path d="M 218.42123413085938 82.60989379882812 C 192.83119201660156 70.82431030273438 199.969482421875 72.96144104003906 210.40200805664062 75.95267486572266 C 233.69725036621094 57.84489059448242 197.94186401367188 71.59233093261719 195.36036682128906 78.25047302246094 C 211.305908203125 61.356788635253906 181.62144470214844 101.95062255859375 183.11666870117188 105.5836181640625 C 221.96253967285156 65.6206283569336 218.34222412109375 34.34727096557617 203.7462158203125 77.23033142089844" stroke-width="6.0" fill="none" stroke="rgb(0, 0, 0)" stroke-opacity="0.0" stroke-linecap="round" stroke-linejoin="round"/>
    <path d="M 54.02726745605469 105.86831665039062 C 49.0842170715332 112.56287384033203 33.28076934814453 102.98809814453125 72.21891784667969 135.0718994140625 C 75.33734130859375 134.3892364501953 52.083919525146484 118.13147735595703 80.72835540771484 150.4424285888672 C 92.39201354980469 134.2809600830078 91.90803527832031 161.19883728027344 99.7309341430664 172.23751831054688 C 89.61421966552734 154.41856384277344 115.24571990966797 153.63267517089844 118.80010223388672 137.23060607910156" stroke-width="6.0" fill="none" stroke="rgb(0, 0, 0)" stroke-opacity="0.0" stroke-linecap="round" stroke-linejoin="round"/>
    <path d="M 502.1095886230469 323.2514343261719 C 507.987060546875 317.5891418457031 529.7125854492188 350.373046875 544.4749145507812 316.5656433105469 C 510.9409484863281 310.364013671875 510.62371826171875 264.076416015625 513.2222900390625 301.6185607910156 C 523.6547241210938 325.74822998046875 536.2898559570312 319.3157653808594 535.4769287109375 351.9024658203125 C 545.3526611328125 363.3242492675781 545.6984252929688 344.6960754394531 605.123046875 328.72601318359375" stroke-width="6.0" fill="none" stroke="rgb(0, 0, 0)" stroke-opacity="0.0" stroke-linecap="round" stroke-linejoin="round"/>
    <path d="M 106.3505630493164 155.4871063232422 C 72.23937225341797 143.52162170410156 63.921836853027344 149.60240173339844 50.00252914428711 201.96084594726562 C 69.17264556884766 206.67828369140625 75.6472396850586 189.56051635742188 71.98812103271484 129.58026123046875 C 52.968345642089844 150.89662170410156 101.15433502197266 134.53042602539062 59.044761657714844 156.3220977783203 C 63.0998420715332 118.52857971191406 56.47425842285156 69.44174194335938 48.58616638183594 101.1634292602539" stroke-width="6.0" fill="none" stroke="rgb(0, 0, 0)" stroke-opacity="0.0" stroke-linecap="round" stroke-linejoin="round"/>
    <path d="M 461.7981262207031 96.62226867675781 C 470.450439453125 69.7522964477539 460.5657043457031 99.85771942138672 453.6898498535156 130.37838745117188 C 468.2690734863281 115.14681243896484 464.6224670410156 120.24968719482422 443.3299865722656 172.47157287597656 C 449.3040771484375 143.82533264160156 451.6759338378906 103.89382934570312 429.1573181152344 103.888427734375 C 453.18170166015625 115.74978637695312 473.29107666015625 85.11646270751953 417.0063171386719 94.61275482177734" stroke-width="6.0" fill="none" stroke="rgb(0, 0, 0)" stroke-opacity="0.0" stroke-linecap="round" stroke-linejoin="round"/>
    <path d="M 274.7167053222656 119.1611557006836 C 266.13519287109375 119.71019744873047 252.39784240722656 110.00800323486328 315.7182312011719 100.38060760498047 C 341.44622802734375 80.35006713867188 342.4147033691406 70.43437957763672 397.69110107421875 116.8708724975586 C 322.01849365234375 119.1881332397461 266.7286071777344 117.78888702392578 263.2347106933594 122.77088165283203 C 264.2528381347656 172.7367401123047 294.777587890625 169.2485809326172 196.02215576171875 169.38670349121094" stroke-width="6.0" fill="none" stroke="rgb(0, 0, 0)" stroke-opacity="0.54862875" stroke-linecap="round" stroke-linejoin="round"/>
    <path d="M 54.66576385498047 309.0165710449219 C 65.96002960205078 290.751953125 78.73287963867188 242.0099334716797 160.98355102539062 210.0375518798828 C 187.53712463378906 252.78773498535156 99.68753051757812 257.2881164550781 132.2611083984375 258.85919189453125 C 154.56704711914062 282.5146179199219 151.22467041015625 270.83294677734375 104.61195373535156 290.6480407714844 C 63.28816223144531 303.153564453125 48.01993179321289 314.83343505859375 124.26227569580078 346.3282165527344" stroke-width="6.0" fill="none" stroke="rgb(0, 0, 0)" stroke-opacity="1.0" stroke-linecap="round" stroke-linejoin="round"/>
    <path d="M 146.65231323242188 104.38050842285156 C 183.8683319091797 102.32421875 170.21792602539062 104.6811294555664 136.11679077148438 120.51756286621094 C 92.20421600341797 121.49259948730469 137.79652404785156 99.91156768798828 112.44733428955078 107.25064849853516 C 103.9417495727539 115.70191192626953 81.8575210571289 120.12602233886719 142.33485412597656 117.62012481689453 C 158.157958984375 128.34832763671875 173.89251708984375 95.58772277832031 126.70711517333984 93.63590240478516" stroke-width="6.0" fill="none" stroke="rgb(0, 0, 0)" stroke-opacity="0.47768426" stroke-linecap="round" stroke-linejoin="round"/>
    <path d="M 357.7420349121094 490.8489074707031 C 336.0115966796875 470.98004150390625 375.963134765625 494.554931640625 331.55267333984375 505.3697814941406 C 317.1241455078125 519.4889526367188 322.2163391113281 550.3370971679688 311.8572692871094 551.8423461914062 C 337.69873046875 604.9622192382812 313.2197570800781 655.6348876953125 301.1731872558594 665.2512817382812 C 399.7253723144531 601.4505615234375 391.8535461425781 610.948974609375 360.832275390625 607.5901489257812" stroke-width="6.0" fill="none" stroke="rgb(0, 0, 0)" stroke-opacity="8.685282e-05" stroke-linecap="round" stroke-linejoin="round"/>
    <path d="M 548.2277221679688 456.5888671875 C 579.8528442382812 459.5619812011719 544.082275390625 455.5794372558594 545.1461181640625 466.21478271484375 C 529.8983764648438 497.9710693359375 523.24658203125 522.3590698242188 531.139892578125 532.067626953125 C 508.9784240722656 533.68017578125 482.64483642578125 528.688720703125 489.0855712890625 531.0601806640625 C 520.2166748046875 519.1068725585938 506.71124267578125 550.1043701171875 515.3618774414062 532.7192993164062" stroke-width="6.0" fill="none" stroke="rgb(0, 0, 0)" stroke-opacity="0.0" stroke-linecap="round" stroke-linejoin="round"/>
    <path d="M 139.7146453857422 348.0345764160156 C 200.33729553222656 325.3355712890625 253.57278442382812 337.14654541015625 188.05055236816406 360.41607666015625 C 183.947509765625 356.00262451171875 214.942138671875 328.99749755859375 210.95425415039062 353.4375 C 216.5498046875 341.1596984863281 214.81884765625 378.5486145019531 193.0963592529297 351.3349609375 C 213.90908813476562 344.1663818359375 232.86288452148438 330.94903564453125 216.09605407714844 350.5120849609375" stroke-width="6.0" fill="none" stroke="rgb(0, 0, 0)" stroke-opacity="0.91658634" stroke-linecap="round" stroke-linejoin="round"/>
    <path d="M 337.9320068359375 484.79833984375 C 433.1491394042969 492.077392578125 423.0450744628906 445.5924072265625 390.7459716796875 436.2076416015625 C 340.91259765625 480.2705993652344 306.7730407714844 440.82861328125 363.2735595703125 408.9366455078125 C 413.7758483886719 446.30291748046875 393.79083251953125 463.5568542480469 324.9053955078125 453.5191650390625 C 340.1133117675781 452.2392578125 365.4747314453125 428.00262451171875 353.1641845703125 354.686767578125" stroke-width="6.0" fill="none" stroke="rgb(0, 0, 0)" stroke-opacity="1.0" stroke-linecap="round" stroke-linejoin="round"/>
    <path d="M 397.3202209472656 435.2234191894531 C 347.438720703125 415.8570556640625 357.8023376464844 371.93096923828125 349.9004821777344 379.1425476074219 C 389.64093017578125 393.2968444824219 395.8314514160156 402.1378173828125 361.7189025878906 417.0189514160156 C 320.7549133300781 405.09222412109375 309.03973388671875 406.6192626953125 343.57080078125 410.30419921875 C 361.057373046875 455.5572509765625 332.6325988769531 498.59393310546875 316.3962707519531 469.237060546875" stroke-width="6.0" fill="none" stroke="rgb(0, 0, 0)" stroke-opacity="0.25601602" stroke-linecap="round" stroke-linejoin="round"/>
    <path d="M 580.1873168945312 529.793212890625 C 630.775390625 528.0117797851562 687.577392578125 523.4260864257812 672.8545532226562 514.0579223632812 C 616.8746948242188 581.814453125 637.4735107421875 562.9619750976562 637.2918090820312 564.2250366210938 C 640.4253540039062 562.206787109375 667.8202514648438 574.1673583984375 674.3839721679688 578.0372314453125 C 682.816650390625 554.9903564453125 707.6239624023438 547.111572265625 688.3668212890625 563.6505126953125" stroke-width="6.0" fill="none" stroke="rgb(0, 0, 0)" stroke-opacity="0.0" stroke-linecap="round" stroke-linejoin="round"/>
    <path d="M -5.491534233093262 393.1142883300781 C 5.136672496795654 388.76202392578125 -21.962406158447266 404.4375305175781 -46.81160354614258 406.1211242675781 C -43.84767532348633 441.19122314453125 -55.25432205200195 411.6463317871094 -80.52745819091797 385.5015869140625 C -75.74337768554688 397.0922546386719 -64.16390991210938 393.23529052734375 -59.25114440917969 388.7199401855469 C -82.92184448242188 358.79925537109375 -92.66374969482422 345.6415100097656 -91.50072479248047 341.825439453125" stroke-width="6.0" fill="none" stroke="rgb(0, 0, 0)" stroke-opacity="0.00022764373" stroke-linecap="round" stroke-linejoin="round"/>
    <path d="M 423.99530029296875 113.4434814453125 C 379.0744934082031 112.96481323242188 399.6146240234375 114.1803970336914 489.5843811035156 113.61659240722656 C 460.66778564453125 66.49528503417969 437.44500732421875 78.03191375732422 434.6475524902344 76.3355712890625 C 420.1994323730469 86.33333587646484 415.8022155761719 82.43865203857422 401.7921142578125 100.98387145996094 C 404.4242248535156 125.66421508789062 397.14892578125 107.7938003540039 408.80438232421875 96.22073364257812" stroke-width="6.0" fill="none" stroke="rgb(0, 0, 0)" stroke-opacity="0.54307854" stroke-linecap="round" stroke-linejoin="round"/>
    <path d="M 482.2952575683594 604.2943725585938 C 499.4249572753906 598.9386596679688 484.9046630859375 615.31494140625 453.1797790527344 615.288330078125 C 460.2286376953125 626.940185546875 498.8175964355469 602.5244140625 474.1053771972656 607.78125 C 433.96807861328125 598.3034057617188 428.74151611328125 611.524658203125 425.58123779296875 622.6368408203125 C 434.3719482421875 653.0020141601562 415.719482421875 667.9691772460938 393.40771484375 656.7430419921875" stroke-width="6.0" fill="none" stroke="rgb(0, 0, 0)" stroke-opacity="0.3150599" stroke-linecap="round" stroke-linejoin="round"/>
    <path d="M 413.1851806640625 421.5009460449219 C 393.62615966796875 384.3353271484375 407.36224365234375 403.8914489746094 382.61590576171875 404.47039794921875 C 359.2392272949219 327.4736633300781 386.7244567871094 281.760498046875 338.9896545410156 335.3643798828125 C 403.7741394042969 290.1530456542969 443.8197937011719 323.7259216308594 447.1907653808594 399.8174743652344 C 442.04351806640625 460.96923828125 443.2144470214844 457.78399658203125 395.0414123535156 404.4140319824219" stroke-width="6.0" fill="none" stroke="rgb(0, 0, 0)" stroke-opacity="1.0" stroke-linecap="round" stroke-linejoin="round"/>
    <path d="M 85.25924682617188 -5.9267897605896 C 88.95068359375 -23.62407112121582 58.73941421508789 -41.54056167602539 97.90231323242188 -37.24477767944336 C 102.36907196044922 -39.556236267089844 129.66827392578125 -23.692289352416992 124.2059097290039 -7.752314567565918 C 106.66291046142578 -5.768540859222412 131.89453125 -30.99043846130371 127.99813842773438 -51.815223693847656 C 147.81961059570312 -8.885085105895996 167.12503051757812 -14.127973556518555 169.222412109375 -5.143767833709717" stroke-width="6.0" fill="none" stroke="rgb(0, 0, 0)" stroke-opacity="0.058153044" stroke-linecap="round" stroke-linejoin="round"/>
    <path d="M 106.2457504272461 180.11898803710938 C 50.9838752746582 166.84439086914062 14.715025901794434 160.1083526611328 61.77853775024414 173.5283966064453 C 33.22820281982422 191.95079040527344 52.544822692871094 177.1182403564453 46.34611892700195 184.92120361328125 C 39.18262481689453 202.4618682861328 44.61060333251953 191.81993103027344 36.45048904418945 202.09378051757812 C 108.36514282226562 197.81483459472656 135.1123504638672 189.5770721435547 96.5261001586914 197.88504028320312" stroke-width="6.0" fill="none" stroke="rgb(0, 0, 0)" stroke-opacity="0.4687811" stroke-linecap="round" stroke-linejoin="round"/>
    <path d="M 490.5688171386719 260.77532958984375 C 440.56268310546875 264.8097229003906 384.8666687011719 257.15203857421875 434.2748718261719 258.1762390136719 C 471.8352966308594 210.22323608398438 467.34527587890625 181.8072509765625 494.9878234863281 220.1124725341797 C 472.74639892578125 250.819091796875 428.6532287597656 223.90126037597656 493.7633361816406 180.58128356933594 C 470.2570495605469 200.13775634765625 455.3388671875 194.63589477539062 466.2546081542969 262.5765380859375" stroke-width="6.0" fill="none" stroke="rgb(0, 0, 0)" stroke-opacity="1.0" stroke-linecap="round" stroke-linejoin="round"/>
    <path d="M 307.9472961425781 401.2013244628906 C 288.5760498046875 429.413818359375 310.7418212890625 418.3084716796875 306.001220703125 401.8283386230469 C 292.21710205078125 423.8406677246094 322.5201110839844 467.5309753417969 315.7264099121094 476.9549255371094 C 284.265380859375 415.247802734375 302.4022216796875 449.60321044921875 312.1006164550781 455.46844482421875 C 308.75946044921875 435.6689758300781 307.5826110839844 439.1253356933594 308.6177062988281 471.7183532714844" stroke-width="6.0" fill="none" stroke="rgb(0, 0, 0)" stroke-opacity="1.0" stroke-linecap="round" stroke-linejoin="round"/>
    <path d="M 233.53407287597656 350.4214172363281 C 169.84410095214844 375.05419921875 180.92845153808594 392.8329772949219 169.60142517089844 389.8896179199219 C 187.58062744140625 365.5672912597656 228.1612091064453 339.5398254394531 257.783203125 320.8030700683594 C 148.5436248779297 320.9969177246094 118.21223449707031 350.0281066894531 188.97607421875 293.455322265625 C 220.63946533203125 283.9761047363281 239.06207275390625 278.5799865722656 274.47137451171875 276.1556396484375" stroke-width="6.0" fill="none" stroke="rgb(0, 0, 0)" stroke-opacity="1.0" stroke-linecap="round" stroke-linejoin="round"/>
    <path d="M 373.029541015625 412.5438232421875 C 343.6955871582031 503.99713134765625 327.5289611816406 474.78485107421875 424.4815673828125 456.0084533691406 C 390.3278503417969 485.056396484375 323.20806884765625 495.3262634277344 322.6271667480469 447.7386169433594 C 317.4931945800781 454.299072265625 306.7241516113281 468.24493408203125 336.476806640625 509.6754150390625 C 343.93841552734375 417.6637878417969 314.3381042480469 449.22772216796875 258.07159423828125 505.7647399902344" stroke-width="6.0" fill="none" stroke="rgb(0, 0, 0)" stroke-opacity="0.9991551" stroke-linecap="round" stroke-linejoin="round"/>
  </g>
</svg>
