<?xml version="1.0" ?>
<svg xmlns="http://www.w3.org/2000/svg" version="1.1" width="224" height="224">
  <defs/>
  <g>
    <path d="M 53.13362503051758 92.31661224365234 C 46.1294059753418 71.22176361083984 57.788307189941406 44.737972259521484 48.14768981933594 73.79637908935547" stroke-width="3.0" fill="none" stroke="rgb(0, 0, 0)" stroke-opacity="1.0" stroke-linecap="round" stroke-linejoin="round"/>
    <path d="M 127.64411926269531 162.84811401367188 C 144.01437377929688 150.95033264160156 147.44793701171875 135.42491149902344 144.19265747070312 143.85809326171875" stroke-width="3.0" fill="none" stroke="rgb(0, 0, 0)" stroke-opacity="1.0" stroke-linecap="round" stroke-linejoin="round"/>
    <path d="M 182.93800354003906 110.6458969116211 C 169.93560791015625 132.432861328125 176.38150024414062 117.1991958618164 179.2729949951172 107.03812408447266" stroke-width="3.0" fill="none" stroke="rgb(0, 0, 0)" stroke-opacity="1.0" stroke-linecap="round" stroke-linejoin="round"/>
    <path d="M 227.1322021484375 140.2184295654297 C 188.8759765625 126.57896423339844 223.8878936767578 121.76029205322266 174.61041259765625 104.3064193725586" stroke-width="3.0" fill="none" stroke="rgb(0, 0, 0)" stroke-opacity="1.0" stroke-linecap="round" stroke-linejoin="round"/>
    <path d="M 17.923912048339844 75.78803253173828 C 13.864275932312012 76.83169555664062 20.460792541503906 43.35580825805664 48.44248580932617 53.826045989990234" stroke-width="3.0" fill="none" stroke="rgb(0, 0, 0)" stroke-opacity="1.0" stroke-linecap="round" stroke-linejoin="round"/>
    <path d="M 17.85002326965332 75.32764434814453 C 27.944915771484375 59.581905364990234 10.291009902954102 62.82621765136719 14.656332969665527 74.96827697753906" stroke-width="3.0" fill="none" stroke="rgb(0, 0, 0)" stroke-opacity="1.0" stroke-linecap="round" stroke-linejoin="round"/>
    <path d="M 87.25395965576172 53.9144287109375 C 91.9553451538086 58.39155960083008 84.76070404052734 54.22496795654297 89.23123931884766 55.07747268676758" stroke-width="3.0" fill="none" stroke="rgb(0, 0, 0)" stroke-opacity="1.0" stroke-linecap="round" stroke-linejoin="round"/>
    <path d="M 133.18653869628906 127.18447875976562 C 146.2874298095703 123.0394058227539 114.55596923828125 138.5926513671875 75.24347686767578 126.93146514892578" stroke-width="3.0" fill="none" stroke="rgb(0, 0, 0)" stroke-opacity="1.0" stroke-linecap="round" stroke-linejoin="round"/>
    <path d="M 79.02017974853516 126.65270233154297 C 84.6646728515625 125.10115814208984 75.33702087402344 127.80525207519531 61.47962951660156 129.785400390625" stroke-width="3.0" fill="none" stroke="rgb(0, 0, 0)" stroke-opacity="1.0" stroke-linecap="round" stroke-linejoin="round"/>
    <path d="M 78.65958404541016 124.72096252441406 C 78.15155792236328 130.426025390625 76.6070785522461 122.5462417602539 63.61180877685547 128.08067321777344" stroke-width="3.0" fill="none" stroke="rgb(0, 0, 0)" stroke-opacity="1.0" stroke-linecap="round" stroke-linejoin="round"/>
    <path d="M 60.0614128112793 47.96173858642578 C 79.15857696533203 25.298322677612305 55.947120666503906 50.4958610534668 44.3079833984375 39.713871002197266" stroke-width="3.0" fill="none" stroke="rgb(0, 0, 0)" stroke-opacity="1.0" stroke-linecap="round" stroke-linejoin="round"/>
    <path d="M 121.00434875488281 168.75790405273438 C 137.3674774169922 157.4956817626953 151.4534454345703 149.96826171875 103.26004028320312 184.31761169433594" stroke-width="3.0" fill="none" stroke="rgb(0, 0, 0)" stroke-opacity="1.0" stroke-linecap="round" stroke-linejoin="round"/>
    <path d="M 43.7596549987793 160.5841064453125 C 15.795976638793945 154.2999725341797 87.82950592041016 110.37378692626953 62.37531280517578 129.18588256835938" stroke-width="3.0" fill="none" stroke="rgb(0, 0, 0)" stroke-opacity="1.0" stroke-linecap="round" stroke-linejoin="round"/>
    <path d="M 74.20059967041016 62.2150764465332 C 72.79772186279297 61.78630065917969 73.6731185913086 62.32686996459961 74.43482208251953 62.133506774902344" stroke-width="3.0" fill="none" stroke="rgb(0, 0, 0)" stroke-opacity="1.0" stroke-linecap="round" stroke-linejoin="round"/>
    <path d="M 81.11371612548828 47.568565368652344 C 63.640037536621094 47.11472702026367 42.776397705078125 25.595516204833984 26.930564880371094 57.2453498840332" stroke-width="3.0" fill="none" stroke="rgb(0, 0, 0)" stroke-opacity="1.0" stroke-linecap="round" stroke-linejoin="round"/>
    <path d="M 73.41936492919922 62.75010681152344 C 72.07084655761719 62.66303253173828 74.81683349609375 61.38117599487305 74.69772338867188 64.40705871582031" stroke-width="3.0" fill="none" stroke="rgb(0, 0, 0)" stroke-opacity="1.0" stroke-linecap="round" stroke-linejoin="round"/>
    <path d="M 86.52983856201172 66.33539581298828 C 86.61001586914062 64.65171813964844 92.12388610839844 63.41598129272461 95.57565307617188 64.06893157958984" stroke-width="3.0" fill="none" stroke="rgb(0, 0, 0)" stroke-opacity="1.0" stroke-linecap="round" stroke-linejoin="round"/>
    <path d="M 95.80425262451172 78.8094711303711 C 95.76441955566406 77.8922119140625 96.68090057373047 78.18101501464844 96.31329345703125 78.3480224609375" stroke-width="3.0" fill="none" stroke="rgb(0, 0, 0)" stroke-opacity="1.0" stroke-linecap="round" stroke-linejoin="round"/>
    <path d="M 40.59260177612305 66.0541000366211 C 53.47649002075195 58.648193359375 55.39459228515625 45.832157135009766 49.94519805908203 78.85266876220703" stroke-width="3.0" fill="none" stroke="rgb(0, 0, 0)" stroke-opacity="1.0" stroke-linecap="round" stroke-linejoin="round"/>
    <path d="M 48.397151947021484 72.26519775390625 C 48.72000503540039 42.61040496826172 60.747825622558594 21.524791717529297 38.55225372314453 64.60514068603516" stroke-width="3.0" fill="none" stroke="rgb(0, 0, 0)" stroke-opacity="1.0" stroke-linecap="round" stroke-linejoin="round"/>
    <path d="M 222.26705932617188 142.13876342773438 C 165.25711059570312 91.24686431884766 170.6527557373047 104.39905548095703 211.56051635742188 144.28077697753906" stroke-width="3.0" fill="none" stroke="rgb(0, 0, 0)" stroke-opacity="1.0" stroke-linecap="round" stroke-linejoin="round"/>
    <path d="M 51.726600646972656 86.15100860595703 C 36.48955535888672 48.0754508972168 58.913246154785156 38.174034118652344 49.569580078125 78.23161315917969" stroke-width="3.0" fill="none" stroke="rgb(0, 0, 0)" stroke-opacity="1.0" stroke-linecap="round" stroke-linejoin="round"/>
    <path d="M 43.79572296142578 63.30476760864258 C 46.76869583129883 37.165138244628906 82.7042007446289 35.5703239440918 41.50263214111328 51.488704681396484" stroke-width="3.0" fill="none" stroke="rgb(0, 0, 0)" stroke-opacity="1.0" stroke-linecap="round" stroke-linejoin="round"/>
    <path d="M 34.561737060546875 38.040645599365234 C 48.90713882446289 67.16544342041016 42.4727783203125 58.518680572509766 49.31028747558594 52.25971984863281" stroke-width="3.0" fill="none" stroke="rgb(0, 0, 0)" stroke-opacity="1.0" stroke-linecap="round" stroke-linejoin="round"/>
    <path d="M 219.4291229248047 143.68621826171875 C 151.14483642578125 81.54706573486328 195.11439514160156 124.69149017333984 179.0594482421875 117.36905670166016" stroke-width="3.0" fill="none" stroke="rgb(0, 0, 0)" stroke-opacity="1.0" stroke-linecap="round" stroke-linejoin="round"/>
    <path d="M 160.10789489746094 189.47061157226562 C 182.05157470703125 135.68797302246094 143.79238891601562 155.46621704101562 174.5011444091797 119.43711853027344" stroke-width="3.0" fill="none" stroke="rgb(0, 0, 0)" stroke-opacity="1.0" stroke-linecap="round" stroke-linejoin="round"/>
    <path d="M 46.79243469238281 60.899234771728516 C 23.433353424072266 77.2615737915039 33.2890625 65.66564178466797 16.26065444946289 76.18424224853516" stroke-width="3.0" fill="none" stroke="rgb(0, 0, 0)" stroke-opacity="1.0" stroke-linecap="round" stroke-linejoin="round"/>
    <path d="M 94.05264282226562 76.99300384521484 C 99.21708679199219 79.9637222290039 94.80664825439453 76.84555053710938 97.1417236328125 79.34526062011719" stroke-width="3.0" fill="none" stroke="rgb(0, 0, 0)" stroke-opacity="1.0" stroke-linecap="round" stroke-linejoin="round"/>
    <path d="M 216.09693908691406 144.27247619628906 C 158.04197692871094 93.86283874511719 182.63340759277344 102.03558349609375 209.875 129.19683837890625" stroke-width="3.0" fill="none" stroke="rgb(0, 0, 0)" stroke-opacity="1.0" stroke-linecap="round" stroke-linejoin="round"/>
    <path d="M 30.584360122680664 49.450740814208984 C 97.02340698242188 46.527523040771484 51.595272064208984 59.38997268676758 38.764286041259766 39.14311981201172" stroke-width="3.0" fill="none" stroke="rgb(0, 0, 0)" stroke-opacity="1.0" stroke-linecap="round" stroke-linejoin="round"/>
    <path d="M 39.24899673461914 144.1879119873047 C 53.531219482421875 118.45288848876953 75.29014587402344 145.7825469970703 80.34700775146484 115.78500366210938" stroke-width="3.0" fill="none" stroke="rgb(0, 0, 0)" stroke-opacity="1.0" stroke-linecap="round" stroke-linejoin="round"/>
    <path d="M 75.55335998535156 49.32164001464844 C 7.325297832489014 34.21309280395508 44.43809127807617 63.75262451171875 71.7579574584961 38.51811981201172" stroke-width="3.0" fill="none" stroke="rgb(0, 0, 0)" stroke-opacity="1.0" stroke-linecap="round" stroke-linejoin="round"/>
  </g>
</svg>
