<?xml version="1.0" ?>
<svg xmlns="http://www.w3.org/2000/svg" version="1.1" width="224" height="224">
  <defs/>
  <g>
    <path d="M 146.05880737304688 123.171875 C 135.83482360839844 85.13664245605469 158.8870391845703 89.98360443115234 134.38531494140625 90.02899932861328" stroke-width="3.0" fill="none" stroke="rgb(0, 0, 0)" stroke-opacity="1.0" stroke-linecap="round" stroke-linejoin="round"/>
    <path d="M 193.01869201660156 122.50727844238281 C 200.6303253173828 162.5937042236328 261.7927551269531 137.35299682617188 209.77134704589844 138.9078369140625" stroke-width="3.0" fill="none" stroke="rgb(0, 0, 0)" stroke-opacity="1.0" stroke-linecap="round" stroke-linejoin="round"/>
    <path d="M 108.7436294555664 179.82872009277344 C 174.71563720703125 112.82627868652344 125.15715026855469 176.35472106933594 179.83804321289062 110.48171997070312" stroke-width="3.0" fill="none" stroke="rgb(0, 0, 0)" stroke-opacity="1.0" stroke-linecap="round" stroke-linejoin="round"/>
    <path d="M 72.17620086669922 90.45073699951172 C 61.26732635498047 115.06377410888672 96.5263900756836 98.83956146240234 30.62723731994629 155.39852905273438" stroke-width="3.0" fill="none" stroke="rgb(0, 0, 0)" stroke-opacity="1.0" stroke-linecap="round" stroke-linejoin="round"/>
    <path d="M 152.71107482910156 128.33950805664062 C 215.07559204101562 108.5067138671875 209.543701171875 130.77757263183594 191.5845947265625 114.99518585205078" stroke-width="3.0" fill="none" stroke="rgb(0, 0, 0)" stroke-opacity="1.0" stroke-linecap="round" stroke-linejoin="round"/>
    <path d="M 11.159452438354492 73.73153686523438 C 31.446367263793945 89.09956359863281 29.564239501953125 20.713451385498047 83.38585662841797 48.77596664428711" stroke-width="3.0" fill="none" stroke="rgb(0, 0, 0)" stroke-opacity="1.0" stroke-linecap="round" stroke-linejoin="round"/>
    <path d="M 43.635826110839844 41.544921875 C 99.56097412109375 61.52398681640625 25.67363739013672 22.184167861938477 95.94644165039062 66.67095184326172" stroke-width="3.0" fill="none" stroke="rgb(0, 0, 0)" stroke-opacity="1.0" stroke-linecap="round" stroke-linejoin="round"/>
    <path d="M 149.49636840820312 114.94466400146484 C 132.4963836669922 163.6185760498047 143.11668395996094 120.81573486328125 120.60641479492188 171.00682067871094" stroke-width="3.0" fill="none" stroke="rgb(0, 0, 0)" stroke-opacity="1.0" stroke-linecap="round" stroke-linejoin="round"/>
    <path d="M 90.01246643066406 57.74272537231445 C 24.80494499206543 10.719453811645508 23.654155731201172 78.93878173828125 43.2099609375 55.120296478271484" stroke-width="3.0" fill="none" stroke="rgb(0, 0, 0)" stroke-opacity="1.0" stroke-linecap="round" stroke-linejoin="round"/>
    <path d="M 60.14255905151367 42.6906852722168 C 132.4481201171875 97.09722137451172 79.4112548828125 76.18093872070312 109.7007064819336 87.40682220458984" stroke-width="3.0" fill="none" stroke="rgb(0, 0, 0)" stroke-opacity="1.0" stroke-linecap="round" stroke-linejoin="round"/>
    <path d="M 47.04408645629883 38.01001739501953 C 92.45142364501953 91.9974594116211 66.67362976074219 63.827762603759766 100.42689514160156 83.1905288696289" stroke-width="3.0" fill="none" stroke="rgb(0, 0, 0)" stroke-opacity="1.0" stroke-linecap="round" stroke-linejoin="round"/>
    <path d="M 69.98921966552734 37.77394485473633 C 1.9924898147583008 57.43077850341797 42.70485305786133 44.006690979003906 11.7084321975708 69.65935516357422" stroke-width="3.0" fill="none" stroke="rgb(0, 0, 0)" stroke-opacity="1.0" stroke-linecap="round" stroke-linejoin="round"/>
    <path d="M 245.58474731445312 137.31887817382812 C 178.47634887695312 133.99945068359375 226.0895233154297 114.21155548095703 171.4749298095703 103.53280639648438" stroke-width="3.0" fill="none" stroke="rgb(0, 0, 0)" stroke-opacity="1.0" stroke-linecap="round" stroke-linejoin="round"/>
    <path d="M 210.6879425048828 147.8942108154297 C 191.0349578857422 144.11349487304688 182.23516845703125 84.96334838867188 195.84170532226562 131.5792694091797" stroke-width="3.0" fill="none" stroke="rgb(0, 0, 0)" stroke-opacity="1.0" stroke-linecap="round" stroke-linejoin="round"/>
    <path d="M 15.229135513305664 71.14350128173828 C 74.72782135009766 45.87929916381836 46.36602020263672 56.45109558105469 36.176876068115234 35.38411331176758" stroke-width="3.0" fill="none" stroke="rgb(0, 0, 0)" stroke-opacity="1.0" stroke-linecap="round" stroke-linejoin="round"/>
    <path d="M 138.48443603515625 122.90623474121094 C 63.37539291381836 145.68666076660156 94.62049102783203 106.33573913574219 57.947784423828125 133.7360076904297" stroke-width="3.0" fill="none" stroke="rgb(0, 0, 0)" stroke-opacity="1.0" stroke-linecap="round" stroke-linejoin="round"/>
    <path d="M 109.80770874023438 88.15157318115234 C 169.10092163085938 92.85953521728516 150.26382446289062 81.48208618164062 220.97705078125 143.0747528076172" stroke-width="3.0" fill="none" stroke="rgb(0, 0, 0)" stroke-opacity="1.0" stroke-linecap="round" stroke-linejoin="round"/>
    <path d="M 61.12533187866211 117.57443237304688 C 54.372013092041016 67.79119873046875 60.70258331298828 29.26431655883789 17.60429573059082 72.85933685302734" stroke-width="3.0" fill="none" stroke="rgb(0, 0, 0)" stroke-opacity="1.0" stroke-linecap="round" stroke-linejoin="round"/>
    <path d="M 15.10594654083252 168.92684936523438 C 59.097293853759766 128.7584991455078 45.79297637939453 191.71969604492188 39.417118072509766 148.57899475097656" stroke-width="3.0" fill="none" stroke="rgb(0, 0, 0)" stroke-opacity="1.0" stroke-linecap="round" stroke-linejoin="round"/>
    <path d="M 182.90359497070312 105.66328430175781 C 235.93875122070312 151.1490020751953 223.52020263671875 150.0203094482422 173.5300750732422 108.67198181152344" stroke-width="3.0" fill="none" stroke="rgb(0, 0, 0)" stroke-opacity="1.0" stroke-linecap="round" stroke-linejoin="round"/>
    <path d="M 104.63854217529297 188.24786376953125 C 117.95072174072266 155.71571350097656 68.25621032714844 220.4305877685547 137.99545288085938 155.05328369140625" stroke-width="3.0" fill="none" stroke="rgb(0, 0, 0)" stroke-opacity="1.0" stroke-linecap="round" stroke-linejoin="round"/>
    <path d="M 21.765705108642578 168.2607879638672 C 60.013240814208984 94.15660858154297 46.789955139160156 164.85386657714844 62.840511322021484 90.17893981933594" stroke-width="3.0" fill="none" stroke="rgb(0, 0, 0)" stroke-opacity="1.0" stroke-linecap="round" stroke-linejoin="round"/>
    <path d="M 81.07707977294922 112.86186981201172 C 74.77593231201172 122.22470092773438 64.84954071044922 131.3007354736328 111.53763580322266 129.16636657714844" stroke-width="3.0" fill="none" stroke="rgb(0, 0, 0)" stroke-opacity="1.0" stroke-linecap="round" stroke-linejoin="round"/>
    <path d="M 152.16539001464844 141.2157440185547 C 155.03665161132812 120.58917236328125 226.49937438964844 104.14966583251953 171.76377868652344 117.96662139892578" stroke-width="3.0" fill="none" stroke="rgb(0, 0, 0)" stroke-opacity="1.0" stroke-linecap="round" stroke-linejoin="round"/>
  </g>
</svg>
