<?xml version="1.0" ?>
<svg xmlns="http://www.w3.org/2000/svg" version="1.1" width="224" height="224">
  <defs/>
  <g>
    <path d="M 145.4220428466797 139.1141357421875 C 148.01632690429688 118.65340423583984 188.28358459472656 77.76021575927734 113.6346664428711 86.56379699707031" stroke-width="3.0" fill="none" stroke="rgb(0, 0, 0)" stroke-opacity="1.0" stroke-linecap="round" stroke-linejoin="round"/>
    <path d="M 212.96978759765625 143.725830078125 C 189.45301818847656 131.61492919921875 222.9237518310547 116.11815643310547 163.9844207763672 100.737548828125" stroke-width="3.0" fill="none" stroke="rgb(0, 0, 0)" stroke-opacity="1.0" stroke-linecap="round" stroke-linejoin="round"/>
    <path d="M 163.1689453125 190.94476318359375 C 194.1381072998047 12.730384826660156 142.49632263183594 175.20053100585938 99.1066665649414 184.34251403808594" stroke-width="3.0" fill="none" stroke="rgb(0, 0, 0)" stroke-opacity="1.0" stroke-linecap="round" stroke-linejoin="round"/>
    <path d="M 53.63529968261719 125.88192749023438 C -48.46717071533203 242.53997802734375 95.04544067382812 113.54828643798828 95.37016296386719 78.83689880371094" stroke-width="3.0" fill="none" stroke="rgb(0, 0, 0)" stroke-opacity="1.0" stroke-linecap="round" stroke-linejoin="round"/>
    <path d="M 153.07608032226562 89.1224365234375 C 205.43878173828125 120.5928955078125 146.34388732910156 119.57223510742188 170.6636199951172 170.69943237304688" stroke-width="3.0" fill="none" stroke="rgb(0, 0, 0)" stroke-opacity="1.0" stroke-linecap="round" stroke-linejoin="round"/>
    <path d="M 14.59765338897705 77.07823181152344 C 81.59486389160156 7.830472946166992 -14.233617782592773 74.228271484375 69.40364837646484 38.71573257446289" stroke-width="3.0" fill="none" stroke="rgb(0, 0, 0)" stroke-opacity="1.0" stroke-linecap="round" stroke-linejoin="round"/>
    <path d="M 37.403018951416016 37.35690689086914 C 88.70655822753906 46.925567626953125 54.79612350463867 92.710693359375 121.58141326904297 85.88143920898438" stroke-width="3.0" fill="none" stroke="rgb(0, 0, 0)" stroke-opacity="1.0" stroke-linecap="round" stroke-linejoin="round"/>
    <path d="M 136.11122131347656 110.36909484863281 C 118.6807632446289 204.01475524902344 108.09031677246094 152.39808654785156 109.05306243896484 183.4853515625" stroke-width="3.0" fill="none" stroke="rgb(0, 0, 0)" stroke-opacity="1.0" stroke-linecap="round" stroke-linejoin="round"/>
  </g>
</svg>
