<?xml version="1.0" ?>
<svg xmlns="http://www.w3.org/2000/svg" version="1.1" width="224" height="224">
  <defs/>
  <g>
    <path d="M 219.49887084960938 145.50474548339844 C 157.69308471679688 74.41857147216797 150.26194763183594 93.86172485351562 104.38912963867188 87.14185333251953" stroke-width="3.0" fill="none" stroke="rgb(0, 0, 0)" stroke-opacity="1.0" stroke-linecap="round" stroke-linejoin="round"/>
    <path d="M 259.68121337890625 133.1341552734375 C 181.91244506835938 146.18507385253906 223.19607543945312 106.31291198730469 174.54295349121094 118.66202545166016" stroke-width="3.0" fill="none" stroke="rgb(0, 0, 0)" stroke-opacity="1.0" stroke-linecap="round" stroke-linejoin="round"/>
    <path d="M 100.80876159667969 186.63658142089844 C 95.78536224365234 168.1326141357422 92.30095672607422 204.81565856933594 182.14254760742188 112.2509994506836" stroke-width="3.0" fill="none" stroke="rgb(0, 0, 0)" stroke-opacity="1.0" stroke-linecap="round" stroke-linejoin="round"/>
    <path d="M 51.98015594482422 73.5335693359375 C 42.631202697753906 158.3283233642578 74.68999481201172 80.89332580566406 18.502840042114258 169.80636596679688" stroke-width="3.0" fill="none" stroke="rgb(0, 0, 0)" stroke-opacity="1.0" stroke-linecap="round" stroke-linejoin="round"/>
    <path d="M 172.32156372070312 118.93521881103516 C 171.35650634765625 77.5359878540039 240.53460693359375 152.98451232910156 172.2671356201172 102.69386291503906" stroke-width="3.0" fill="none" stroke="rgb(0, 0, 0)" stroke-opacity="1.0" stroke-linecap="round" stroke-linejoin="round"/>
    <path d="M 31.86077308654785 37.919559478759766 C 66.41792297363281 70.81165313720703 32.77082824707031 0.7653341293334961 51.98261260986328 73.54031372070312" stroke-width="3.0" fill="none" stroke="rgb(0, 0, 0)" stroke-opacity="1.0" stroke-linecap="round" stroke-linejoin="round"/>
    <path d="M 25.806447982788086 53.717655181884766 C 60.02874755859375 43.89179611206055 -14.043609619140625 42.897064208984375 80.11089324951172 49.15364456176758" stroke-width="3.0" fill="none" stroke="rgb(0, 0, 0)" stroke-opacity="1.0" stroke-linecap="round" stroke-linejoin="round"/>
    <path d="M 74.08287048339844 124.8251953125 C 132.8317108154297 158.75433349609375 190.7620391845703 53.65940475463867 157.27313232421875 194.23992919921875" stroke-width="3.0" fill="none" stroke="rgb(0, 0, 0)" stroke-opacity="1.0" stroke-linecap="round" stroke-linejoin="round"/>
    <path d="M 45.62663650512695 36.9195442199707 C 31.913793563842773 55.856441497802734 92.67147064208984 35.50800323486328 60.65315246582031 44.73876953125" stroke-width="3.0" fill="none" stroke="rgb(0, 0, 0)" stroke-opacity="1.0" stroke-linecap="round" stroke-linejoin="round"/>
    <path d="M 130.6002960205078 92.27595520019531 C 61.046653747558594 85.86399841308594 115.12366485595703 72.46456909179688 41.791709899902344 42.607479095458984" stroke-width="3.0" fill="none" stroke="rgb(0, 0, 0)" stroke-opacity="1.0" stroke-linecap="round" stroke-linejoin="round"/>
    <path d="M 91.860107421875 73.75320434570312 C 53.248634338378906 44.70542526245117 121.59571075439453 76.55238342285156 52.10147476196289 38.230133056640625" stroke-width="3.0" fill="none" stroke="rgb(0, 0, 0)" stroke-opacity="1.0" stroke-linecap="round" stroke-linejoin="round"/>
    <path d="M 37.63833999633789 58.841060638427734 C 45.200313568115234 79.35950469970703 65.87104797363281 -1.6452831029891968 12.667753219604492 70.38801574707031" stroke-width="3.0" fill="none" stroke="rgb(0, 0, 0)" stroke-opacity="1.0" stroke-linecap="round" stroke-linejoin="round"/>
    <path d="M 174.53125 108.07366180419922 C 208.26315307617188 117.88221740722656 233.0770721435547 163.11526489257812 180.71473693847656 113.28239440917969" stroke-width="3.0" fill="none" stroke="rgb(0, 0, 0)" stroke-opacity="1.0" stroke-linecap="round" stroke-linejoin="round"/>
    <path d="M 228.3417510986328 139.1759796142578 C 187.43887329101562 149.4380645751953 198.86984252929688 110.32034301757812 174.47732543945312 104.20721435546875" stroke-width="3.0" fill="none" stroke="rgb(0, 0, 0)" stroke-opacity="1.0" stroke-linecap="round" stroke-linejoin="round"/>
    <path d="M 23.26549530029297 69.40375518798828 C 17.294204711914062 67.63980102539062 -2.4724507331848145 95.9327392578125 47.295345306396484 57.616817474365234" stroke-width="3.0" fill="none" stroke="rgb(0, 0, 0)" stroke-opacity="1.0" stroke-linecap="round" stroke-linejoin="round"/>
    <path d="M 36.86854934692383 163.2945556640625 C 49.67625427246094 124.67167663574219 41.46334457397461 150.42318725585938 78.81582641601562 114.77381134033203" stroke-width="3.0" fill="none" stroke="rgb(0, 0, 0)" stroke-opacity="1.0" stroke-linecap="round" stroke-linejoin="round"/>
  </g>
</svg>
