<?xml version="1.0" encoding="utf-8"?>
<!-- Generator: Adobe Illustrator 25.0.1, SVG Export Plug-In . SVG Version: 6.00 Build 0)  -->
<svg version="1.1" id="图层_1" xmlns="http://www.w3.org/2000/svg" xmlns:xlink="http://www.w3.org/1999/xlink" x="0px" y="0px"
	 viewBox="0 0 512 512" style="enable-background:new 0 0 512 512;" xml:space="preserve">
<style type="text/css">
	.st0{fill:#FFFFFF;}
	.st1{fill:#644890;}
	.st2{fill:#583285;}
	.st3{fill:#935D9B;}
	.st4{fill:#79B7C9;}
	.st5{fill:#2B2E5D;}
	.st6{fill:#6989B2;}
	.st7{fill:#3B2D74;}
</style>
<g>
	<g>
		<path class="st0" d="M0,0c170.7,0,341.3,0,512,0c0,170.7,0,341.3,0,512c-170.7,0-341.3,0-512,0C0,341.3,0,170.7,0,0z M201.1,415.9
			L201.1,415.9c0.1,2-0.2,4,0.2,5.9c1.7,7.7,10.7,11.7,15.9,6.9c4.2-3.9,6-9.1,4.8-15c1-1.6,2-3.1,3-4.7c1.6-7.1,3.2-14.2,4.8-21.2
			c0.1-0.2,0.1-0.5,0.1-0.7c0.4-1.4,0.8-2.8,1.2-4.2c0.5-3.1,1-6.2,1.6-9.2c1.4-7.3,3-14.5,4.3-21.8c0.6-3.3-1.2-6-4.4-5.9
			c-2.3,0.1-4.8,1.9-6.9,3.3c-0.9,0.6-1.2,2.3-1.5,3.6c-2.5,11.7-4.9,23.4-7.4,35.1c-1.1,5.1-2.7,10.1-3.9,14.8
			c-2.1-4.1-4-7.9-5.9-11.7c0.7-2.4,2-4.8,1.8-7.1c-0.6-5.7-1.8-11.4-2.8-17c-0.6-5.2-1-10.5-1.9-15.7c-0.8-5.2-5-4.3-8.6-4
			c-3.7,0.3-5.2,2.5-4.6,6.1c1.1,6.8,2.1,13.7,3.2,20.5c0.4,3.4,0.8,6.7,1.2,10.1c0,0.1-0.1,0.3-0.1,0.4c0.1,0.3,0.2,0.5,0.3,0.7
			c1.5,7.3,2.9,14.6,4.4,21.9c0,1.3,0,2.6,0,3.9c0.1,0.9,0.2,1.9,0.3,2.8C200.5,414.5,200.8,415.2,201.1,415.9z M166.2,399
			c-1.4,4.3-2.8,8.6-4.2,12.9c-1.7,1-3.4,2-5.1,3c-4,0.3-6-1.9-6.9-5.5c-0.7-2.5-1.5-5-2.3-7.5c0-0.6,0-1.1,0-1.7c0-2.1,0-4.2,0-6.3
			c0.4-4.3,0.8-8.5,1.1-12.8c0-5.7,0-11.4,0-17.1c-0.3-4.3-0.4-8.6-0.9-12.8c-0.4-3.8-3.1-5.3-6.7-5.1c-6.2,0.3-9,3.8-8.4,10
			c0.2,2,0.2,4,0.2,6c0,6.7,0,13.3,0,20c0,3,0.1,6,0.1,8.9c0.6,7.5,0.4,15.2,1.9,22.5c2.5,11.9,15.4,18.6,26.2,14.4
			c10-1.7,14.2-8.6,15.7-17.8c1-8.3,2-16.6,2.9-24.9c0-10.5,0-20.9-0.1-31.4c0-4.3-2-6.9-6.7-6.7c-5.4,0.1-8.5,2.4-8.3,7
			c0.4,9.7,1.2,19.5,1.8,29.2c0,0.5,0.1,0.9,0.1,1.4C166.5,389.4,166.4,394.2,166.2,399z M223,157c1.4-2,2.8-3.9,4.1-5.9
			c1.3-7.7,2.7-15.4,4-23.1c0-0.5,0.1-1,0.1-1.5c0-0.9,0-1.9,0-2.8c-0.1-0.5-0.1-1-0.2-1.5c0.1-0.1,0.2-0.3,0.2-0.3
			c-0.1-0.2-0.2-0.5-0.3-0.7c-0.4-2-0.7-4-1.1-6c-1.2-13-6.8-23-19.4-28.2c-1-0.5-2-1-3.1-1.5c-7.9-3.1-11.5-0.6-11.5,8
			c0,3.6-0.3,7.2-0.3,10.8c0,9,0.1,18.1,0.2,27.1c0,0.5,0,1,0,1.5c-0.2,2.7-0.3,5.4-0.5,8.1c-0.1,5.7-0.4,11.4-0.1,17
			c0.2,3.3,0.1,7.9,5.9,6.9c4-0.6,8-1.2,12.1-1.9c1.8-0.6,3.6-1.2,5.5-1.9C220,159.7,221.5,158.3,223,157z M355.9,287.8
			c0.1-3.4,0.2-6.7,0.3-10.1c0.2-1.6,0.8-3.3,0.5-4.8c-1-4.9,0.7-8.2,5.3-10c3.3-1.9,6.6-3.8,9.8-5.8c9.7-6,11.6-26.6,2.7-33.7
			c-6.8-5.4-14.8-8.8-23.5-10.2c-3.8-0.6-6.2,1.2-6.2,5.2c-0.1,11.9-0.1,23.8-0.2,35.7c0,2-0.1,4-0.1,6c0.2,9.6,0.5,19.3,0.7,28.9
			c0.4,4.8,4.7,7.6,8.1,4.9C354.7,292.6,355,289.9,355.9,287.8z M453.4,288.8c-0.1-0.8-0.1-1.6-0.2-2.5c0-0.7,0-1.5,0-2.2
			c0.5-4.3,1-8.7,1.4-13c0.8,0.4,1.8,0.6,2.2,1.2c2.7,3.6,5.3,7.2,7.9,10.8c1,2.2,2.3,4.4,3,6.7c1.2,3.6,2.7,6.1,7,4.1
			c5.6-2.5,7.3-5.5,5.3-9.7c-0.9-1.9-2.1-3.6-3.2-5.4c-2-3.6-4-7.2-6-10.8c-2.5-4.3-3.6-8.2,0.8-12.2c1.9-1.7,4-3.9,4.7-6.3
			c1.4-4.4,1.9-9.1,2.7-13.7c0-0.2-1.3-0.7-2-1c1.7-3.3,1.3-6.2-1.2-8.9c-1.7-1.9-3.3-4-5-6c-4.8-2.6-9.5-5.8-14.6-7.7
			c-3.7-1.4-8.1-1.3-11.3,2.2c-0.8,1.6-2.1,3.1-2.2,4.8c-0.3,4.3-0.1,8.6-0.1,12.9c-0.2,7.2-0.4,14.4-0.6,21.7
			c-0.1,3.5-0.1,7-0.2,10.5c-0.5,5.6-1.1,11.1-1.6,16.7c0.3,3.3-0.4,7.2,1.2,9.8c1.2,1.9,5.1,2.9,7.9,2.9
			C450.8,293.6,452.1,290.5,453.4,288.8z M335.9,365.1L335.9,365.1c3.3,7,6.6,14,10,21c0,0.3-0.1,0.6,0,0.8
			c-0.9,2.1-1.8,4.2-2.6,6.2c-1.3,3.2-2.5,6.5-3.8,9.7c-3.2,5.7-6.5,11.4-9.7,17c-0.4,1.8-1.8,4.2-1.1,5.2c4.4,6.3,8.7,5.7,12.2-1.1
			c2.7-5.3,5.4-10.6,8-15.9c0.7-1,1.5-2.1,2.2-3.1c1.6,1.8,3.2,3.5,4.8,5.3c1.9,4.8,3.5,9.6,5.6,14.3c2.5,5.4,4.1,5.7,9.1,2.7
			c3.2-1.9,4.4-4.5,2.8-7.9c-1.6-3.6-3.5-7-5.3-10.5c-0.8-2.9-1.3-6-2.6-8.7c-0.9-2-2.9-3.5-4.4-5.2c-0.4-2.3-0.8-4.6-1.2-6.9
			c2-6.6,4-13.3,6-19.9c1.7-4.1,3.4-8.2,5.1-12.2c1.3-3,1.2-5.5-2.4-6.8c-3.3-1.2-6.2-1.2-7.8,2.6c-1.6,3.8-3.2,7.6-4.8,11.3
			c-1,3-2,6-3.1,9c-1-0.7-2.4-1.2-2.8-2.1c-2.2-5.3-4.2-10.6-6.3-15.9c-0.9-3.7-1.8-7.4-7.1-5.9c-4.9,1.4-6.3,4.4-4.5,9.7
			c0.6,1.8,1.8,3.5,2.7,5.2C335.4,363.7,335.7,364.4,335.9,365.1z M149.2,151.6c-0.5,9.3,6.8,16.4,16.9,16.3c5.8-0.3,9.5-4,12.9-8.1
			c1.4-3.2,2.7-6.4,4.1-9.7c0.3-1.6,0.5-3.2,1-4.7c1.5-4.7-1.5-6.4-5.1-7.4c-4-1.1-6.3,1-7.1,4.9c-0.3,1.6-0.4,3.3-0.8,4.9
			c-1,4.2-2.9,7.5-8,7.1c-0.7-1.6-1.4-3.3-2.1-4.9c-0.6-4.9-2-9.9-1.6-14.7c1-11.8,2.9-23.5,4.4-35.3c0.2-0.3,0.3-0.6,0.3-0.9
			c4.8,1.5,5.7,5.5,6,9.7c0.3,3.9,1.8,6.7,6.1,7c3.9,0.2,7-3,7.4-7.2c0.8-9-5.1-18.6-13.6-22.1c-8.1-3.7-11.1-2.3-16.9,7.5
			c-1,1.8-2.8,3.6-2.9,5.5c-0.9,9.8-1.5,19.7-2.1,29.5c-1.3,5.5-1.6,10.7,3,15C150.4,146.6,149.8,149.1,149.2,151.6z M305.1,101.2
			c4.9-0.3,9.8-0.6,14.7-1.1c4.3-0.5,4.4-3.7,4.3-7c-0.2-3.2-1.2-5.6-5.1-4.9c-8.7,0-17.4,0.1-26,0.1c-1.5,0.5-3.1,1-4.6,1.5
			c-0.5,2.7-1.5,5.4-1.5,8.1c0.3,19,0.8,38,1.3,56.9c-0.1,2.1-0.3,4.3-0.2,6.4c0.1,2.9,0.9,5.4,4.6,4.9c3.4-0.4,7.8,0.7,7.8-4.9
			c0-5.5-0.3-10.9-0.5-16.4c0.3-3.7,0.6-7.3,1-11c0.1-2.2,0.2-4.5,0.2-6.7c1.5-0.5,3.1-0.9,4.6-1.4c3.2-1.1,6.9-2.3,6.4-6.4
			c-0.5-4.2-4.6-2.9-7.3-3.4c-5.9-0.6-3.7-5-4.1-8.3C300.7,104.5,301,101.6,305.1,101.2z M390.9,353.1c-1.5-4.3-4.4-5.2-8.2-3.1
			c-4.4,2.4-5,4.7-2.5,9.2c0.7,1.3,1.1,2.7,1.6,4c0.3,1,0.6,1.9,0.8,2.9c3.1,8.7,6.2,17.4,9.4,26.1c0.7,8.6,1.4,17.2,2.2,25.9
			c0.1,1.6,0.2,3.3,0.2,4.9c0.1,3.3,0.6,5.9,5,5.6c7.1-0.5,8.9-1.7,8.7-6.6c-0.3-7.2-0.8-14.4-1.2-21.6c1.8-5.4,3.7-10.8,5.5-16.2
			c4-9.3,7.8-18.6,12-27.7c1.9-4.2,0.1-6.1-3.3-7.7c-3.5-1.6-6.8-2.5-8.4,2.3c-2.5,7.3-5,14.7-7.5,22.1c-1.4,2.6-2.9,5.1-4.3,7.7
			c-0.5-0.2-0.9-0.5-1.4-0.7c-1.8-6.7-3.6-13.3-5.5-20C392.9,357.7,391.9,355.4,390.9,353.1z M35.6,280.8c-0.2-0.1-0.4-0.1-0.6,0.1
			c-0.7,0-1.3,0-2,0.1c-0.5-3.4-0.7-6.9-1.5-10.3c-0.8-3.4-2.8-5.5-6.8-4c-4.4,0.5-6.3,2.9-5.8,7.4c0.3,2.6,0,5.3,0.4,7.9
			c0.9,7.5,5.2,11.7,12.7,12.8c8.6,0.9,13.4-3.8,16.8-10.9c0.7-3.7,1.3-7.3,2-11c0.3-3.7,0.5-7.4,0.8-11c-0.2-14.5-0.4-29-0.8-43.5
			c-0.1-3.8-1.8-6.7-6.4-6.5c-4.2,0.2-6.5,2.2-6.5,6.4c0.1,10.8,0.3,21.7,0.4,32.5c-0.2,8.5-0.3,17.1-0.5,25.6
			C37.1,278.1,36.4,279.4,35.6,280.8z M184.1,255c-0.4-1.3-0.8-2.6-1.3-3.8c-1.1-3.5-2.1-6.9-3.2-10.4c-2.8-8.5-5.5-16.9-8.4-25.4
			c-1.3-3.6-4.2-5.7-7.8-4.1c-2.2,1-4.9,3.9-5.1,6.1c-0.6,9.2-0.2,18.4-0.2,27.7c-0.1,2.6-0.2,5.2-0.3,7.8
			c-0.2,7.4-0.4,14.8-0.6,22.2c0.2,4.6,0.4,9.1,0.5,13.7c0.1,3.8,2.5,5,5.7,4.2c2.3-0.6,5.3-1.7,6.3-3.5c1.7-3.2,3.1-7.2-0.5-10.4
			c2-6.3,2.9-12.6,1-19.1c0-0.3,0-0.5,0-0.8c0.5-1.2,1.1-2.4,1.8-3.9c1.8,3.8,3.5,7.3,5.2,10.8c1.3,4.1,2.6,8.1,3.8,12.2
			c1.1,3.8,2.2,7.6,3.3,11.3c1.2,3.9,5.8,5.4,8.4,2.3c2.6-3.1,4.7-6.7,6.3-10.4c1.7-3.9,2.4-8.2,3.6-12.3c1.3-3.2,2.6-6.5,3.9-9.7
			c0.7,1.8,0.7,3.4,0.7,5c0.1,7.1-0.3,14.3,0.5,21.3c0.2,2.2,3.1,5.2,5.4,5.9c1.6,0.5,4.2-2.2,6.4-3.5c0.4-4.8,0.8-9.6,1.2-14.4
			c0.2-12.3,0.6-24.6,0.4-36.9c-0.1-6.8-1.1-13.5-1.9-20.3c-0.4-3.5-3.3-5.4-6.3-5.2c-2.2,0.2-5.6,2-6.2,3.9
			c-2.9,8.1-5,16.4-7.4,24.6c-1.6,5.1-3.2,10.1-4.8,15.2c-0.9,3.3-1.9,6.6-2.8,9.8c-1.1,0.9-2.2,1.9-3.4,2.8
			C186.7,263.5,185.4,259.2,184.1,255L184.1,255z M434.9,404.8c-0.3,0.4-0.6,0.8-0.9,1.2c-1,2.7-1.9,5.4-2.9,8.1
			c-0.7,1.6-2.1,3.3-2,4.9c0.1,2.4,1.2,4.7,1.9,7c11.2,0.6,22.4,1.4,33.6,1.7c3.6,0.1,6.1-2.8,5.6-6.2c-0.6-3.2-1.1-7.6-6.3-7.4
			c-4.6,0.2-9.3,0.1-13.9,0.1c-0.4-1.7-0.7-3.4-1.1-5.1c1.4-3.3,2.9-6.5,4.3-9.8c1.9-4.1,3.8-8.1,5.7-12.2
			c4.2-9.8,8.5-19.7,12.8-29.5c1.8-4.2,0.6-7.1-3.9-9.3c-10.3-0.4-20.5-0.9-30.8-1c-1.2,0-3.3,2-3.6,3.4c-1.5,7.2,0.3,9.8,7,9.5
			c4.9-0.3,9.7-0.1,16.4-0.1c-5.4,11-10.2,20.8-15,30.7C439.4,395.4,437.1,400.1,434.9,404.8L434.9,404.8z M267,154.2
			c-1.3,0-2.6,0-3.9,0c-2.4-0.2-4.7-0.4-6.9-0.5c-0.4-2.1-0.8-3.9-1.2-5.6c0-1,0-2,0-2.9c-0.1-4.7-0.2-9.3-0.3-14
			c0.1-1.3,0.1-2.7,0.2-4l0.1-0.1c3.5-0.4,7-0.3,10.3-1.3c1.8-0.5,3.7-2.5,4.4-4.3c1-2.5,0-4.8-3-5.7c-3.6-1.1-7.2-2.4-10.8-3.7
			c0-3.6,0.1-7.3,0.1-10.9c1.3-0.6,2.7-1.7,4.1-1.9c3-0.3,6-0.1,9-0.2c6.5-0.1,9.5-2,9.8-6.1c0.3-3.9-3.1-6.7-9-7.4
			c-2.1-0.2-4.3-0.2-6.5-0.1c-4.5,0.2-9,0.4-13.4,0.7c-4-0.4-6.8,1.4-6.8,5.4c-0.2,14.5-0.1,29.1-0.1,43.6c0,8.9,0,17.9,0,26.8
			c2.5,5.5,7.1,4.8,11.7,3.9c4.4-0.3,8.8-0.6,13.1-0.9c7.5,0.7,10.1-1.2,9-6.9C276.2,153.9,273.8,153,267,154.2z M125,118
			c1.4-2.3,2.7-4.5,4.1-6.8c2.3-7.5,1.6-14.6-3.9-20.2c-5.2-5.2-11.9-6.6-19.2-4.9c-3.3,0.1-6.6,0.1-5.7,5
			c-0.2,5.2-0.3,10.3-0.5,15.5c-0.1,14.2-0.2,28.4-0.2,42.6c-0.3,4.6-0.7,9.1-0.8,13.7c-0.1,3.4,1.7,5.1,5.2,5
			c3.3-0.1,6.6-0.1,9.9-0.2c3.1-0.4,6.5-0.2,9.1-1.5c9.4-4.8,17-14.5,10.3-29.4c0.6-7.3-4.8-10.9-9.4-15
			C124.2,120.7,124.6,119.4,125,118z M141.9,293.7c6.8,1.1,8.9-0.3,9.6-6.3c0.6-4.6-2.4-7.6-8.1-7.6c-3.1,0-6.2,0.5-9.3,0.8
			c-1.7-0.3-3.3-0.5-5-0.8c0-0.3-0.1-0.6-0.3-0.8c-0.3-11.4-0.5-22.9-0.7-34.3c-0.1-5.2-0.1-10.4-0.1-15.7c0-3.8-0.2-7.6,0.1-11.4
			c0.3-3.9-2-5.2-5.1-5c-3.2,0.2-7.7-0.5-7.7,4.8c0,6.6,0.3,13.2,0.5,19.8c0,4.1,0.1,8.2,0.1,12.3c-0.1,12.4-0.4,24.9-0.5,37.3
			c0,6.5,1.4,7.6,7.6,7.1c1.3,0,2.6,0,3.9,0C131.9,293.8,136.9,293.7,141.9,293.7z M57.6,415.2c-3.2,0.3-6.3,0.5-9.5,0.8
			c-4.1-2.2-4.3-6-4.1-9.9c1.7-4.8,1-6.3-3.6-7.4c-5.8-1.4-9.3,1.3-9.4,7.3c0,1.8,0.3,3.6,0.4,5.4c1,10,7.2,17.2,15.8,18.3
			c3.8-0.2,7.7-0.3,11.5-0.5c8.1,0.3,12.3-4.7,15.3-11.2c4-9.3,2.5-19.1-3.6-23.9c-1.7-2.4-2.9-5.5-5.2-6.9
			c-7.8-4.7-13.5-11.4-19.1-18.2c-0.2-7.1,1-8.6,7.7-9.1c1.1,1.4,2.1,2.7,3.2,4.1c0,1,0.1,2,0,3c-0.2,3.8-0.1,7.1,5.1,6.9
			c5.8-0.2,9.3-3.4,8.6-8.4c-0.3-2.2-1.3-4.3-1.9-6.5c-0.8-7-6.2-9.3-11.8-11.1c-5.6-1.7-11.1-2.2-15.4,3
			c-8.7,4.9-11.4,13.5-6.9,22.2c0.5,1,0.7,2.2,1.4,3c7.9,9,15.9,17.9,23.8,26.8c-0.4,3.7-0.9,7.4-1.3,11
			C58.4,414.4,58,414.8,57.6,415.2z M354.1,130.5c-8-0.8-8.6-0.3-7.7,6.6c3,4.1,7.2,7.7,5.5,13.7c-3.2,1.5-6.5,3.3-9.8,0.2
			c-3.4-15.9-2.8-31.8,0-47.7c2.2-1.4,4.3-2.7,7.3-4.7c1,3.3,2,6,2.5,8.8c0.5,3.3,1.6,6.2,5.3,5.8c3.4-0.3,6.6-2.3,5.7-6.6
			c-1.1-5.1-2.2-10.3-4.4-15c-1.8-4.1-5.6-6.5-10.5-5.6c-5.9-0.6-10.3,1.6-13,6.9c-1.1,2.6-2.3,5.2-3.4,7.8
			c-0.6,3.4-1.3,6.8-1.9,10.2c-2.8,6-2,12.1-0.6,18.3c0.1,6.3,0.2,12.6,0.3,18.8c-1.2,6.8,1.3,12.1,6.9,15.9
			c12.1,6.7,23.1,2,25.8-11.3c1.2-5.6,1.5-11.4,1.9-17.1c0.1-1.2-1.1-2.6-1.7-3.8C359.5,131.3,356.8,130.9,354.1,130.5z
			 M298.9,394.3c-1-2.5-2.3-5-2.8-7.6c-0.9-4.7-1.4-9.4-2.1-14.1c-0.4-1.9-0.8-3.8-1.2-5.7c-0.2-2.4-0.1-4.9-0.9-7.2
			c-0.6-1.7-2.2-3.1-3.4-4.6c-0.7-1.4-1.5-3.9-2.1-3.9c-1.7,0.1-4.3,0.8-4.9,2.1c-1.6,3.3-2.3,7-3.4,10.6c-0.7,1.6-1.5,3.2-2,4.8
			c-2.4,8.5-4.7,16.9-7,25.4c-0.8-2.4-1.6-4.7-2.4-7.1c-2-11.8-4-23.7-6.1-35.5c-0.2-0.9-0.9-2.4-1.4-2.4c-2.9-0.1-6-0.3-8.7,0.5
			c-3,1-3.7,3.7-3,6.9c4.5,22.3,8.8,44.7,13.2,67c0.7,3.6,3.3,5.1,6.6,4.6c3.3-0.5,6.7-1.8,5.9-6.4c2.3-7.3,4.6-14.6,6.9-21.9
			c1.4-4.1,2.8-8.2,4.3-12.6c1,1.5,1.7,2.6,2.4,3.6c0.3,1.9,0.7,3.9,1,5.8c1.7,7,3.4,14,5.1,21c0.1,2.1-0.1,4.3,0.4,6.4
			c1.3,5.1,6.8,7.4,10.7,4.3c2.2-1.7,4.1-4.5,4.8-7.1c1.5-5.4,2-11,3-16.5c0.7-2.7,1.6-5.4,2.2-8.1c2.7-13.6,5.3-27.2,7.9-40.9
			c0-2.2,0.9-5.4-0.1-6.2c-1.7-1.4-4.8-2.1-7.2-1.8c-5.5,0.8-6.6,5.2-6.8,9.9c-2.7,12-5.4,23.9-8.2,35.9
			C299.5,394,299.2,394.2,298.9,394.3z M294.9,279c1.7,10.8,4.4,14.2,12,15c7.6,3.1,14.5,1,19.3-6c1.3-2.3,2.5-4.7,3.8-7
			c0.6-4,1.3-8,1.9-12c0.1-2.1,0.2-4.3,0.3-6.4c0.9-13.4,1.4-26.7-3.4-39.6c-2.9-7.9-8.6-12.2-16.7-11.9c-7.3,0.3-13.5,6.1-15.2,14
			c-0.9,5-1.7,10-2.6,15c-0.1,11.4-0.2,22.7-0.2,34.1C294.3,275.7,294.6,277.4,294.9,279z M388.9,155.2c0.4-4.7,0.8-9.4,1.2-14.1
			c5.2,0,10.5,0,16.2,0c0,7.5,0.3,14.4-0.1,21.3c-0.3,5.8,3.2,5.6,7.1,6c4.6,0.5,6-2.1,6-5.8c0-5.4-0.5-10.9-0.7-16.3
			c0.4-4.8,0.7-9.5,1.1-14.3c0.4-13.6,1-27.3,1.1-40.9c0-1.4-1.9-3.5-3.4-4c-6.7-2.2-9.5-0.3-10.1,6.7c-0.2,2.1-0.2,4.2-0.2,6.4
			c0,6.9,0,13.9,0,20.8c0,2.4,0,4.8,0,7.6c-4.7,0.7-9.1,1.4-13.4,2.1c-2.8-0.1-3.7-1.3-3.7-4.3c0.2-8.4-0.1-16.9-0.2-25.3
			c0-3.3-0.1-6.6-0.1-10c0.5-5.2-3.2-6.1-6.9-6.1c-3.7,0-6.4,1.6-5.8,6.1c-0.3,4.8-0.8,9.5-0.8,14.3c-0.2,14.5-0.2,29.1-0.3,43.6
			c0,0.5,0,0.9-0.1,1.4c0,0.6,0,1.1,0,1.7c-0.1,3.7-0.2,7.4-0.2,11.1c0,0.7,0.3,2,0.6,2c3.3,0.6,6.9,1.9,9.9,1.2
			c1.6-0.4,2.5-4.4,3.2-6.9C389.8,158.2,389.1,156.6,388.9,155.2z M104.1,279.9c-3.4-5-6.9-10-10.3-15c-1.3-2.3-2.5-4.7-3.8-7
			c-1.3-2-2.5-4-3.8-6.1c-0.1-0.9-0.1-1.8-0.2-2.7c2-3.4,4.1-6.7,6.1-10.1c3.3-5.7,6.7-11.2,9.8-17c2.1-3.8-0.7-5.8-3.4-7.5
			c-2.6-1.6-5.2-1.5-6.7,1.5c-3.4,6.6-6.6,13.2-9.9,19.8c-1,1.2-2,2.3-2.9,3.5c-0.4-1.5-1-2.9-1.1-4.4c-0.4-5.9-0.3-11.9-1.1-17.8
			c-0.2-1.7-2.6-3.9-4.5-4.5c-1.7-0.5-4,0.9-6,1.5c-0.8,1.6-2.2,3.2-2.2,4.8c-0.1,10.7,0.1,21.5,0.3,32.2c0,4.6-0.1,9.3-0.1,13.9
			c0.3,7,0.6,14,0.9,21c-0.8,4.3,0.6,7.5,5,8.6c3.4,0.9,5.7-0.2,6.6-3.8c0.5-9.4,1.1-18.9,1.7-28.8c2.9,3.2,5.6,6.2,8.4,9.2
			c3.3,6.3,6.7,12.6,10,18.9c0.8,3.1,2.8,4.6,5.8,3.3c3.1-1.4,6.6-3.2,4.9-7.7C106.8,283.6,105.3,281.8,104.1,279.9z M435.1,136.1
			c0.2,7.4,0.6,14.8,0.6,22.2c0,3.9,0.7,6.9,4.9,7.9c4.1,1,6.6-1,7.9-4.8c0.2-0.8,0.6-1.6,0.6-2.4c0-16.3-0.1-32.6-0.2-48.9
			c0-6.5,0.3-12.9,0-19.4c-0.1-1.6-1.5-4-2.9-4.6c-1.4-0.6-4.4,0-5.2,1.1c-2.1,2.9-4.6,6.4-4.8,9.8
			C435.2,109.9,435.3,123,435.1,136.1z M390.9,282c0.5,6.4,3.7,10.7,9.8,12.9c6,2.2,11.6,2,16.5-2.8c1.3,0.2,2.8-0.1,3.8,0.6
			c4.5,3.2,6.4-0.9,9-3c2.8-2.3,1.6-4.2-0.2-6.6c-1.2-1.6-1.3-4-1.9-6c0-4.3,0.1-8.6,0.1-13c0-8.9,0.8-17.9-0.3-26.6
			c-1-7.7-1.2-16.5-9.3-21.4c-5.8-4.7-10.5-5.1-16.3-1.5c-4.9,0.9-7.1,4.6-8.7,8.6c-4.7,11.5-2.9,23.8-3.9,35.7
			C389.8,266.6,390.4,274.3,390.9,282z M54.7,156.1c2.2-8.9,8.6-10.8,16.7-9.8c0.8,6.5,1.5,13,2.2,19.4c1.9,0.1,3,0.2,4.2,0.3
			c8.6,0.3,10.2-1.3,8.9-9.6c-1.5-9.4-3.3-18.8-4.9-28.3c-2.3-11.8-4.6-23.7-6.9-35.5c-0.6-3.1-1.7-6.6-5.2-6.2
			c-2.7,0.2-6.3,2.1-7.6,4.3c-2.5,4.4-3.6,9.5-5.3,14.4c-1.3,4.3-2.6,8.7-3.8,13c-0.8,3.9-1.5,7.9-2.3,11.8
			c-7.9,9.3-6.4,21.5-9.6,32.3c-1.1,3.7,1.6,6,5.3,6.8c3.5,0.7,6-0.8,7-4C54.2,162,54.3,159,54.7,156.1z M123,356.1
			c0.6-1.7,2.3-4.4,1.8-4.8c-1.6-1.5-4-3.1-6.1-3.1c-6.6,0-13.1,0.7-19.7,1.1c-4.4-0.1-8.8-0.6-13.1-0.1c-2.7,0.3-5.2,2.1-7.7,3.2
			c-2.9,5.8-1.4,8.6,4.6,8.6c3.3,0,6.5,0,10.5,0c0,5.7,0,11,0,16.3c0.2,6.3,0.4,12.5,0.6,18.8c-0.3,8.8-0.8,17.5-0.8,26.3
			c-0.1,5.4,2.1,7,7.8,6.9c4.9-0.1,6.8-2.3,6.7-7.7c-0.1-4.5-0.3-8.9-0.4-13.4c0.4-12.3,0.8-24.7,1.2-37c0.3-3.2,0.6-6.5,0.9-9.7
			c3.3-0.3,6.5-0.7,9.8-0.9C121.8,360.2,123.2,359,123,356.1z M250.1,223.9c-2.4-3.6-4.7-7.2-7.1-10.7c-5.2-1.6-8.8,0-8.8,4.6
			c0,7.9,0.5,15.7,0.7,23.6c0,0.4,0,0.8,0,1.2c-0.2,4.1-0.4,8.3-0.6,12.4c-0.4,10.7-0.9,21.5-1.1,32.2c-0.1,3.9,3.3,7.1,6.9,7
			c4.9-0.2,9-3.3,8.8-6.9c-0.3-5.8-0.6-11.5-0.9-17.3c0-5.8-0.1-11.6,0.2-17.4c0.1-1.5,1.2-3,1.9-4.6c2.7,7,5.5,13.9,8.2,20.9
			c2.3,5.7,4.6,11.5,7,17.2c1.3,5.8,4.1,8.3,8.9,7.9c5-0.5,7.4-3.3,7.4-9.2c-0.1-7.9-0.3-15.8-0.5-23.7c-0.2-9.6-0.3-19.2-0.5-28.9
			c-0.4-5.1-1.1-10.1-1.3-15.2c-0.2-4.3-3.8-5.5-6.4-5.4c-1.9,0.1-3.9,3.2-5.3,5.3c-0.6,1,0.1,2.8,0.3,4.3c0.5,12.6,1,25.2,1.5,37.8
			c0,2.4,0,4.8,0,7.1c-0.3,0.1-0.7,0.1-1,0.2c-3.6-8.3-7.3-16.6-10.9-25C254.8,235.6,252.5,229.8,250.1,223.9z"/>
		<path class="st1" d="M296.8,225c1.7-7.9,8-13.7,15.2-14c8.1-0.3,13.8,4,16.7,11.9c4.9,12.9,4.3,26.2,3.4,39.6
			c-0.1,2.1-0.2,4.3-0.3,6.4c-2.1-0.2-4.1-0.3-5.3-0.4c-0.3,4.3-0.4,7.5-0.7,11.1c1,0.3,2.5,0.8,4.1,1.3c-1.3,2.3-2.5,4.7-3.8,7
			c-8.9-0.3-8.9-0.3-7.2-9.1c0.1-0.3,0-0.7,0-1c0.4-13.1,1-26.2,1.3-39.4c0.1-3.4-0.7-6.9-1.8-10.1c-0.6-1.6-3.4-4.1-4-3.9
			c-2.1,1.1-3.8,3.1-5.4,5c-0.4,0.5-0.2,1.6-0.3,2.4c-0.9,10.3-1.9,20.7-2.8,31c-3.5-4-7.1-1-10.2,0.3c-1.1,0.5-1.3,3.8-1.6,5.9
			c-0.3,1.6-0.1,3.3-0.2,4.9c0.1-11.4,0.2-22.7,0.2-34.1c0.4-0.5,0.8-1.1,1.3-1.4C301.3,235.3,301.8,229.8,296.8,225z"/>
		<path class="st2" d="M258.2,268.9c-2.7-7-5.5-13.9-8.2-20.9c-0.7-1-1.4-1.9-2.1-2.9c-1.3,1.8-1.4,3.3-1.5,4.8
			c-0.2,3.9-0.3,7.8-5.1,9.1c-2.1,0.5-4.2,0.8-6.3,1.1c0.3-1.6,0.6-3.2,0.8-4.8c2.2-1.7,2.7-3.7,1.3-6.3c-1.1-2-1.5-4.2-2.2-6.4
			c0-0.4,0-0.8,0-1.2c1.4-2.5,2.8-5,4.3-7.6c1.7,1.4,2.8,3.1,3.8,3c3.5-0.1,4.6,1.5,5.7,4.6c0.6,1.7,4,2.5,6.2,3.3
			c0.4,0.1,1.6-2.2,2.4-3.3c3.6,8.3,7.3,16.6,10.9,25c0.3-0.1,0.7-0.1,1-0.2c0-2.4,0-4.8,0-7.1c5.8-3.1,8.5-2.6,11.7,2
			c0.2,7.9,0.5,15.8,0.5,23.7c0.1,5.9-2.4,8.7-7.4,9.2c-4.7,0.4-7.6-2.1-8.9-7.9c0.9-1,2.5-1.9,2.6-3c0.5-4.4,0.5-8.8,0.8-14.2
			C265.1,268.9,261.6,268.9,258.2,268.9z"/>
		<path class="st1" d="M344.5,254c0-11.9,0-23.8,0.2-35.7c0-3.9,2.5-5.8,6.2-5.2c8.7,1.4,16.7,4.8,23.5,10.2
			c8.9,7.1,7.1,27.7-2.7,33.7c-3.2,2-6.5,3.9-9.8,5.8c0.7-3.9,1.4-7.9,2-11.8c0.8-1.3,1.4-2.6,2.3-3.8c5.8-7.5,2.4-18-6.7-20.7
			c-0.7-0.2-1.7,0.8-2.5,1.3c-0.7,4.7-1.5,9.4-2.2,14.1c-1.3-0.3-2.9-1.1-3.8-0.7c-1.8,0.9-3.7,2.4-4.7,4.1
			c-1.2,2.2-0.4,4.2,2.6,4.5C347.5,251.4,346,252.7,344.5,254z"/>
		<path class="st3" d="M177,266c-1.7-3.5-3.3-7-5.2-10.8c-0.7,1.6-1.2,2.8-1.8,3.9c-0.9-2.7-1.4-5.8-2.9-8.1c-1.5-2.2-2-3.6-0.8-6.1
			c1.4-3,1.4-6.1-3-7.9c-0.7,2.3-1.1,4.4-2.1,6.2c-0.5,0.9-2.1,1.2-3.2,1.8c0-9.2-0.3-18.5,0.2-27.7c0.1-2.2,2.8-5.1,5.1-6.1
			c3.5-1.6,6.5,0.6,7.8,4.1c2.9,8.4,5.7,16.9,8.4,25.4c1.1,3.4,2.1,6.9,3.2,10.4c0.4,1.3,0.8,2.6,1.3,3.8c0,0,0,0,0,0
			C184.1,264.9,184.1,264.9,177,266z"/>
		<path class="st1" d="M225,409.1c-1,1.6-2,3.1-3,4.7c-3.9-0.9-6.8,0.4-9.5,3.3c-2,2.1-4.9,4.6-7.4,0.1c3.3,0,5.2-2.1,3.8-4.7
			c-3.3-6-2.1-12.2-1.8-18.3c0-1,0-1.9,0-2.9c1.9,3.8,3.8,7.5,5.9,11.7c1.3-4.7,2.8-9.7,3.9-14.8c2.6-11.7,4.9-23.4,7.4-35.1
			c0.3-1.3,0.6-3,1.5-3.6c2.1-1.5,4.5-3.3,6.9-3.3c3.2-0.1,5,2.6,4.4,5.9c-1.3,7.3-2.9,14.5-4.3,21.8c-0.6,3.1-1.1,6.2-1.6,9.2
			c-4.5,0.6-8.1,2.4-10,6.8c-0.9,2.2-1.2,4.9-2.6,6.7c-2.4,3.2-1.2,5.4,1,7.7C221.2,405.9,223.2,407.4,225,409.1z"/>
		<path class="st1" d="M81.9,128.1c1.6,9.4,3.4,18.8,4.9,28.3c1.3,8.3-0.3,9.9-8.9,9.6c-1.2,0-2.3-0.1-4.2-0.3
			c-0.7-6.4-1.5-12.9-2.2-19.4c3-4-0.5-7-1.5-10.4c-0.8-5.6-1.6-11.3-2.6-16.9c-0.2-1-1.4-1.9-2.2-2.8c0.3-2.9,0.7-5.8,1-8.7
			c-0.7-0.3-1.4-0.5-2.1-0.8c-1,1.7-2.3,3.3-3,5.2c-1.4,3.7-3.7,6.1-7.9,6.2c1.3-4.3,2.6-8.7,3.8-13c4.4,0.9,6.6-1.5,7.5-5.6
			c5,3.8,8.9,7.5,7.6,14c-1.3,6.4,3.4,10.2,6.8,14.5C79.2,128.5,80.8,128,81.9,128.1z"/>
		<path class="st1" d="M123,293.9c-6.2,0.5-7.6-0.6-7.6-7.1c0-12.4,0.3-24.9,0.5-37.3c0-4.1-0.1-8.2-0.1-12.3c1.7-0.9,5-2,4.9-2.8
			c-0.3-5.8,3.4-5.4,7.2-5.3c0,5.2,0,10.4,0.1,15.7c0.2,11.4,0.5,22.9,0.7,34.3c-3.6,2.7-7.2,5.5-10.8,8.2
			C119.9,289.8,121.5,291.8,123,293.9z"/>
		<path class="st2" d="M273.2,421.9c0.7,4.6-2.6,5.9-5.9,6.4c-3.2,0.5-5.9-1-6.6-4.6c-4.4-22.3-8.7-44.7-13.2-67
			c-0.6-3.2,0.1-6,3-6.9c2.7-0.9,5.8-0.6,8.7-0.5c0.5,0,1.2,1.5,1.4,2.4c2.1,11.8,4.1,23.7,6.1,35.5c-0.7,0.5-1.3,1.1-2,1.4
			c-6,2.6-6.3,3.5-2.8,7.4c0,5.9-0.3,11.1,0.1,16.2C262.6,420.1,265.1,422.1,273.2,421.9z M261.4,365.4c-0.3-0.4-0.5-0.8-0.8-1.2
			c-2.5,3.3-6.8,6.4-7.2,10c-0.6,4.9,1.7,10.1,2.7,15.2c0.7,0,1.3,0.1,2,0.1C259.2,381.4,260.3,373.4,261.4,365.4z"/>
		<path class="st4" d="M199.1,240c2.4-8.2,4.5-16.6,7.4-24.6c0.7-1.9,4-3.7,6.2-3.9c3-0.3,5.9,1.6,6.3,5.2
			c0.8,6.7,1.8,13.5,1.9,20.3c0.2,12.3-0.2,24.6-0.4,36.9c-2.4-2.6-4.8-5.2-7.2-7.8c-0.1-2-0.2-3.9-0.3-5.9
			c-0.6-10.3-0.1-20.8-3.2-31.1c-1.6,1.8-2.2,3.7-3,5.5C205.3,238,203.9,241.4,199.1,240z"/>
		<path class="st2" d="M299.8,393.9c2.7-12,5.4-23.9,8.2-35.9c5.1,2.3,9.6,0.5,14.1-1.9c-2.6,13.6-5.2,27.3-7.9,40.9
			c-0.5,2.7-1.4,5.4-2.2,8.1c-1-1.2-2-2.4-3.2-3.8c-0.3,0.6-0.6,1.2-0.9,1.7c-4,5.6-7,12.2-14,15c1.2-3.7,0.8-8.3,5.5-10.1
			c0.6-0.2,1.2-2.1,0.9-2.7c-3.1-4.9,1.3-6.6,3.7-9.1c8.1,3.5,6.6-5.6,11.1-7.5c-1.8-1.7-3.1-2.8-4.5-4.2c-2.4,3.5-4.5,6.6-6.6,9.8
			C302.5,394,301.2,393.9,299.8,393.9z"/>
		<path class="st5" d="M393.7,130.6c4.3-0.7,8.7-1.3,13.4-2.1c0-2.7,0-5.2,0-7.6c3.3,2.1,6.6,4.2,10.2,6.4c0-7.4-0.2-13.7,0.1-20
			c0.2-4.4,1.2-8.8,1.1-13.2c0-1.6-1.4-4-2.9-4.7c-2.8-1.4-3.9,1.1-4.9,3.4c-1.1,2.5-2.4,4.9-3.5,7.4c0.1-2.1,0.1-4.2,0.2-6.4
			c0.7-7,3.4-8.9,10.1-6.7c1.5,0.5,3.4,2.6,3.4,4c-0.2,13.6-0.7,27.3-1.1,40.9c-1.3-1-2.6-1.9-3.5-2.7c-3.4,1.7-6.3,3.3-9.3,4.5
			c-3,1.1-3.4,2.3-1.6,5.1c1.9,3,4.4,6.6,4.3,9.8c-0.2,5-0.3,9.6,1.6,14.2c-0.6,3.5,0.1,3.8,7.6,2.2c-0.9-4.4-1.8-8.8-2.7-13.2
			c0.9-1.9,1.7-3.8,2.6-5.7c0.3,5.4,0.7,10.9,0.7,16.3c0,3.8-1.4,6.3-6,5.8c-3.9-0.4-7.5-0.3-7.1-6c0.4-6.9,0.1-13.7,0.1-21.3
			c-5.8,0-11,0-16.2,0c-0.7-2.4-1.4-4.9-2.1-7.3C389.9,132.7,391.8,131.7,393.7,130.6z"/>
		<path class="st3" d="M441.7,390.7c4.8-9.8,9.6-19.7,15-30.7c-6.7,0-11.5-0.2-16.4,0.1c-6.7,0.4-8.5-2.2-7-9.5
			c0.3-1.4,2.4-3.4,3.6-3.4c10.3,0.1,20.5,0.6,30.8,1c-0.4,6.9-4.2,12.2-7.6,17.8c-3.6,5.8-6.8,11.9-10.2,17.9
			C447.2,386.2,444.4,388.5,441.7,390.7z"/>
		<path class="st3" d="M38.3,251c-0.1-10.8-0.3-21.7-0.4-32.5c0-4.2,2.3-6.3,6.5-6.4c4.6-0.2,6.3,2.6,6.4,6.5
			c0.4,14.5,0.6,29,0.8,43.5c-1.5-1.2-3.9-2.3-4.2-3.7C46.4,253,42.6,251.8,38.3,251z"/>
		<path class="st6" d="M477.2,234.9c0.7,0.3,2,0.8,2,1c-0.8,4.6-1.3,9.3-2.7,13.7c-0.8,2.4-2.8,4.5-4.7,6.3
			c-4.4,3.9-3.3,7.9-0.8,12.2c2.1,3.5,4,7.2,6,10.8c-4,1.4-8.1,2.9-12.1,4.3c-2.6-3.6-5.2-7.3-7.9-10.8c-0.5-0.6-1.5-0.8-2.2-1.2
			c-0.5-0.7-1-1.4-1.5-2c-0.3-3.1-0.7-6.2-1-9.2c0.4-0.5,0.7-1.1,1.1-1.6c1.6-1.1,3.2-2.2,4.8-3.3c4.4-0.8,8.9-1.7,13.3-2.5
			c0-0.4,0-0.7,0-1.1c-1.6-0.3-3.1-0.5-4.4-0.7C466.6,242.6,472.7,239.3,477.2,234.9z"/>
		<path class="st5" d="M147.7,401.8c0.8,2.5,1.6,5,2.3,7.5c1,3.6,3,5.7,6.9,5.5c1.3,1.4,2.7,2.8,4,4.1c4.1,2.8-0.4,5.9,0.3,8.8
			c-10.8,4.3-23.7-2.4-26.2-14.4c-1.5-7.3-1.3-15-1.9-22.5c2.6,2.2,5.3,4.3,7.8,6.6c2.1,2,3.7,1.8,5-0.7c0.5-1,1.1-2,1.7-3
			c0,2.1,0,4.2,0,6.3c-1.3,0.3-2.5,0.6-3.8,0.9c-4.1,0.7-4.1,0.8-3.3,5c1-0.5,2.4-1.8,3.1-1.5C146.8,405.9,146.8,403.2,147.7,401.8z
			"/>
		<path class="st5" d="M300.7,107.7c0.3,3.3-1.8,7.7,4.1,8.3c-3.1,1.2-4.9,6.9-3.6,11.2c-0.1,2.2-0.2,4.5-0.2,6.7
			c-1.6,1-3.1,2.1-4.7,3.1c-0.2-1.6-0.4-3.1-0.5-4.7c-0.5-0.2-1-0.4-1.5-0.6c-1.3,2.4-2.7,4.8-4,7.1c1.3,0.7,2.7,1.3,4,2
			c-0.6,1.4-1.3,2.8-2,4.5c1.6,0.2,2.7,0.4,3.8,0.6c0.7,5.8-3.1,7.7-7.8,8.9c-0.5-19-1-38-1.3-56.9c0-2.7,1-5.4,1.5-8.1
			c0.6,2,1.1,4.1,1.7,6.1c0,3.4,0,6.8,0,10.8c3.6-1.3,6.8-2.5,9.9-3.6C300.2,104.7,300.5,106.2,300.7,107.7z"/>
		<path class="st1" d="M365.9,368c-2,6.6-4,13.3-6,19.9c-1.7,0.9-3.7,1.5-5,2.8c-0.9,0.9-1.6,3.7-1.2,4c1.4,1,3.3,1.5,5,1.7
			c0.7,0.1,1.6-1,2.4-1.6c1.5,1.7,3.4,3.2,4.4,5.2c1.3,2.7,1.8,5.8,2.6,8.7c-1.8,0.7-3.6,1.5-5.3,2.2c-0.1-0.3-0.2-0.6-0.4-0.9
			c-0.5,0.9-1,1.8-1.7,3.1c-1.3-2.7-2.3-4.8-3.4-6.9c-0.3,0.1-0.6,0.2-1,0.3c-0.2,1.2-0.3,2.5-0.5,3.7c-1.6-1.8-3.2-3.5-4.8-5.3
			c-2.6-3.9-5.2-7.9-7.9-11.8c0.9-2.1,1.8-4.2,2.6-6.3c1.3,0.1,3.5,0.7,3.7,0.3c2-3.6,3.8-7.4,5.3-11.3c0.2-0.6-1.4-2-2.1-3
			c0-0.3,0.1-0.6,0.2-0.9c1-3,2-6,3.1-9c3-0.3,5.7,0.1,7.3,3.3C363.7,367.1,365,367.5,365.9,368z"/>
		<path class="st6" d="M166.5,383.2c-0.6-9.7-1.4-19.4-1.8-29.2c-0.2-4.6,2.9-6.9,8.3-7c4.7-0.1,6.7,2.5,6.7,6.7
			c0.1,10.5,0.1,20.9,0.1,31.4C175.5,384.5,171,383.8,166.5,383.2z"/>
		<path class="st1" d="M212.9,260.1c0.1,2,0.2,3.9,0.3,5.9c-2.8,1.3-2.8,2.9-0.5,4.9c1.2,1,3.1,3,2.8,3.5c-3.4,5.9,0.9,9.6,3.7,13.8
			c-2.2,1.3-4.8,4-6.4,3.5c-2.3-0.7-5.1-3.7-5.4-5.9c-0.8-7-0.4-14.2-0.5-21.3c0-1.6,0-3.2-0.7-5c-1.3,3.2-2.6,6.5-3.9,9.7
			c-1.4-0.5-3.5-0.6-3.9-1.5c-1.6-3.6-4.5-2.5-7.1-2.6c0.9-3.3,1.9-6.6,2.8-9.8c1.2-1.6,2.3-3.4,3.7-4.9c2.1-2.2,4.5-4.2,6.7-6.3
			c1.1,1.9,2.4,3.8,3.4,5.8C209.7,253.2,211.3,256.7,212.9,260.1z"/>
		<path class="st5" d="M336.1,164c-5.6-3.9-8.1-9.1-6.9-15.9c3,0.6,6.2,4.5,8.9-0.4c2-3.7,1-6.6-3.2-8c-3.2-1.1-5.6-2-3.6-6.2
			c0.4-0.8-1.5-2.8-2.4-4.2c-1.4-6.1-2.2-12.3,0.6-18.3c0.4,0.8,0.8,1.6,1.3,2.5c0.7-0.8,1.8-1.4,2.2-2.3c0.5-1.2,0.5-2.6,0.7-4
			c1.8,0.3,3.2,0.5,4.9,0.8c0.6-2,1.1-3.9,1.6-5.7c0.6,0.4,1.3,0.7,1.9,1.1c-2.7,15.9-3.3,31.8,0,47.7c-0.4,2.4-0.7,4.8-1.1,7.2
			C339.4,160.1,337.8,162.1,336.1,164z"/>
		<path class="st2" d="M46.2,368.9c5.6,6.8,11.3,13.5,19.1,18.2c2.3,1.4,3.5,4.6,5.2,6.9c-4.2,0.8-7.7,2.4-8.1,7.5
			c0,0.5-1.5,0.9-2.3,1.4c-7.9-8.9-15.9-17.8-23.8-26.8c-0.7-0.8-1-2-1.4-3c2.9-0.1,5.7,0.1,7.3-3.3
			C42.5,369.1,44.8,369.2,46.2,368.9z"/>
		<path class="st6" d="M448.9,110c0.1,16.3,0.1,32.6,0.2,48.9c0,0.8-0.4,1.6-0.6,2.4c-0.1-1.3-0.4-2.6-0.3-3.9
			c0.3-6.8,0.9-13.6-7.8-16.1c-0.3-0.1-0.4-0.9-0.5-1.3c-0.3-3.3-0.8-6.5-1-9.8c-0.4-7-0.2-13.9-0.9-20.9c-0.7-7.3,1-12.9,8.5-16
			c3.8,6.7-0.6,13.6,0.7,20.5C447.8,112.5,448.4,111.3,448.9,110z"/>
		<path class="st2" d="M375.9,148.9c0.1-14.5,0.1-29.1,0.3-43.6c0.1-4.8,0.5-9.5,0.8-14.3c1.6,3.2,1,8.3,6,8.2
			c2.4-3,4.6-5.6,6.7-8.2c0,3.3,0.1,6.6,0.1,10c-0.6,1.7-1.6,3.4-1.8,5.2c-0.6,6.9-1.4,13.7-6.7,19c-0.7,0.7-0.4,2.5-0.5,3.7
			c0.4,2,0.8,4,1.2,6c0,1,0,2.1,0.1,3.1c0,1.9,0,3.8,0,5.7c0,0.4,0,0.9,0,1.3c0,0,0,0,0,0c-0.2,0.1-0.4,0.3-0.7,0.4
			c0.2,0.1,0.4,0.3,0.7,0.4c0.1,0.4,0.1,0.7,0.2,1.1c-0.8,1.1-2,2-2.3,3.2c-0.7,2.8-2.1,2.9-4.2,1.7c0-0.6,0-1.1,0-1.7
			C375.9,149.8,375.9,149.4,375.9,148.9z"/>
		<path class="st1" d="M133.2,137c6.7,14.9-0.9,24.6-10.3,29.4c-2.6,1.3-6,1-9.1,1.5c-2.3-1-4.7-2-7-2.9c-0.2-4.3,3.1-4.4,6-5
			c1.7-0.5,3.4-1,5-1.5c-0.7-0.9-1.4-1.7-2.1-2.6c1.6-2.2,4.1-4.3,4.6-6.7c0.9-3.9,0.5-8.1,0.7-12.2c2.2,1,4.4,2.1,6.7,3.1
			C129.4,139.2,131.3,138.1,133.2,137z"/>
		<path class="st2" d="M86.1,249.2c0.1,0.9,0.1,1.8,0.2,2.7c-2.2,1.2-4.4,2.3-6.7,3.5c1,1.6,1.8,3.6,3.2,4.7c3,2.2,5.5,1,7.2-2.1
			c1.3,2.3,2.5,4.7,3.8,7c-2.3,2.1-4.6,4.2-6.9,6.3c-2.7-3-5.4-6-8.4-9.2c-0.6,9.9-1.1,19.3-1.7,28.8c-3.9-1.2-5.5-3.9-4.9-7.9
			c0.2-1.3,0.1-2.6,0-4c-0.2-3.6-2.2-4.3-4.4-3.5c-0.9,4-1.6,7.2-2.4,10.5c-0.3-7-0.6-14-0.9-21c1.1,1.3,2.2,2.6,3.6,4.3
			c2.4-2.9,4.6-5.5,7-8.4c-3.4-7.5-2.4-12.1,4.9-16.1C84.3,242.4,84.1,247.6,86.1,249.2z"/>
		<path class="st2" d="M427.7,277c0.6,2,0.7,4.4,1.9,6c1.9,2.4,3,4.3,0.2,6.6c-2.6,2.2-4.5,6.3-9,3c-0.9-0.7-2.5-0.4-3.8-0.6
			c-2.4-0.7-4.7-1.5-7.1-2c-5-1.1-5.4-1.7-3.2-6.5c1.2-1,2.4-2,3.6-3c-5.3-9.7-4.6-11.2,5-11.5c0.2-2,0.5-4.1,0.7-6.2
			c1.1-0.8,2.2-1.6,3.9-2.8c0,2,0,3.4,0,4.8c-0.2,1.3-0.9,2.7-0.5,3.8c0.4,1.5,1.9,2.7,2.4,4.3C422.7,276.2,424.7,277.3,427.7,277z"
			/>
		<path class="st2" d="M445.1,214.4c3.3-3.5,7.6-3.6,11.3-2.2c5.1,1.9,9.7,5.1,14.6,7.7c-1.3,3.6-1.2,8-6.1,9.1
			c-2.5-1-5.1-2-8.2-3.2c-0.7,3.3-1.3,6.2-2,9.1c-1.3,0.8-2.5,1.8-3.9,2.5c-1.3,0.7-2.8,1.2-4.2,1.4c-0.7,0.1-1.5-0.9-2.3-1.4
			c2.8-2.7-0.7-3.7-1.5-5.4C443.7,226.2,447,220.6,445.1,214.4z"/>
		<path class="st7" d="M195.7,132.8c0-0.5,0-1,0-1.5c0.1-2,0.3-3.9,0.4-5.9c0.2-4.5,3.1-6.5,7.3-5c1.2,0.4,2.3,1.2,3.5,1.7
			c0.1,10.6,0.2,21.2,0.3,31.8L207,154c-4.2,2.4-7.2,5.4-6,10.8c-5.8,1-5.7-3.6-5.9-6.9c-0.4-5.7,0-11.4,0.1-17
			C195.4,138.2,195.6,135.5,195.7,132.8z"/>
		<path class="st1" d="M206.9,122.1c-1.2-0.6-2.3-1.3-3.5-1.7c-4.2-1.5-7.1,0.4-7.3,5c-0.1,2-0.2,3.9-0.4,5.9
			c-0.1-9-0.2-18.1-0.2-27.1c0-3.6,0.3-7.2,0.3-10.8c0-8.6,3.6-11.1,11.5-8c1.1,0.4,2,1,3.1,1.5c-0.7,0.4-1.5,0.6-2.1,1.1
			c-4.1,3.5-1.5,7.3-0.3,11C207.6,106.6,207.2,114.4,206.9,122.1z"/>
		<path class="st3" d="M81.9,128.1c-1,0-2.6,0.4-3-0.1c-3.4-4.3-8.1-8.1-6.8-14.5c1.3-6.5-2.5-10.2-7.6-14c-0.9,4.1-3.1,6.5-7.5,5.6
			c1.7-4.8,2.8-10,5.3-14.4c1.3-2.2,4.9-4.1,7.6-4.3c3.5-0.3,4.6,3.2,5.2,6.2C77.3,104.4,79.6,116.2,81.9,128.1z"/>
		<path class="st7" d="M273.2,421.9c-8.1,0.1-10.6-1.9-11.2-9.8c-0.4-5.1-0.1-10.2-0.1-16.2c-3.5-3.9-3.2-4.8,2.8-7.4
			c0.7-0.3,1.3-1,2-1.4c0.8,2.4,1.6,4.7,2.4,7.1c0,1.2,0,2.5,0,3.7c-1.3,5.2,3.6,4.1,5.2,5.7c2.2-1.4,4-2.4,5.8-3.5
			C277.9,407.4,275.5,414.6,273.2,421.9z"/>
		<path class="st2" d="M392,392.1c-3.1-8.7-6.2-17.4-9.4-26.1c2.1,2.9,4.2,5.7,6.7,9.2c1.6-5.4,3.1-10.3,4.6-15.2
			c1.8,6.7,3.6,13.3,5.5,20c0.5,0.2,0.9,0.5,1.4,0.7c1.4-2.6,2.9-5.1,4.3-7.7c3.5-0.1,3.3,2.4,4,4.8c0.6,2.2,2.1,4.1,3.2,6.2
			c-1.8,5.4-3.7,10.8-5.5,16.2c-1.1,1.2-2.1,2.4-3.6,4c-0.9-2-1.7-3.6-2.4-5.2c1.3-1.8,3-3.5,3.8-5.5c0.8-1.9,1.3-4.6,0.5-6.3
			c-0.7-1.5-3.2-2.9-5-3C395.7,384,392.5,387.4,392,392.1z"/>
		<path class="st3" d="M412.3,384.1c-1.1-2.1-2.6-4-3.2-6.2c-0.7-2.4-0.5-5-4-4.8c2.5-7.4,5-14.7,7.5-22.1c1.7-4.8,5-3.9,8.4-2.3
			c3.4,1.6,5.2,3.5,3.3,7.7C420.2,365.5,416.3,374.8,412.3,384.1z"/>
		<path class="st3" d="M420,265c0-1.4,0-2.8,0-4.8c-1.7,1.2-2.8,2-3.9,2.8c0.1-4.2,0.2-8.5,0.3-12.7c4.3-4.9,5.7-10.3,4-16.9
			c-1.4-5.6-1.5-11.5-2.2-17.3c8.2,4.9,8.4,13.7,9.3,21.4c1.1,8.7,0.3,17.7,0.3,26.6C425.2,264.4,422.6,264.7,420,265z"/>
		<path class="st1" d="M450,414.2c4.6,0,9.3,0.1,13.9-0.1c5.3-0.2,5.8,4.2,6.3,7.4c0.6,3.4-1.9,6.3-5.6,6.2
			c-11.2-0.3-22.4-1.1-33.6-1.7c0.4-5,3.2-7.4,6.9-6C444.8,422.6,448.1,421,450,414.2z"/>
		<path class="st5" d="M107,408c0.1,4.5,0.3,8.9,0.4,13.4c0.2,5.4-1.7,7.5-6.7,7.7c-5.7,0.2-7.9-1.5-7.8-6.9
			c0.1-8.8,0.5-17.5,0.9-26.3c0.8-1.7,1.7-3.3,3-5.9C102.7,404.6,102.7,404.6,107,408z"/>
		<path class="st2" d="M208,98.9c-1.2-3.7-3.8-7.5,0.3-11c0.6-0.5,1.4-0.7,2.1-1.1C223,92,228.6,102,229.8,115
			c-1.7,1.1-3.3,2.1-5,3.2c-1.5,0.2-3,0.4-4.6,0.7c-1.4-3.7-2.8-7.4-4.4-11C214.2,104.1,213.3,99.5,208,98.9z"/>
		<path class="st2" d="M342.1,103.3c-0.6-0.4-1.3-0.7-1.9-1.1c-2.9-0.5-5.8-0.9-8.7-1.4c1.1-2.6,2.3-5.2,3.4-7.8
			c0.3,0.1,0.7,0,0.9,0.2c3.8,3.7,8.2,4.9,10.6,2.2c2.2-2.5,3.8-5.8,1.5-9.4c5-0.9,8.7,1.5,10.5,5.6c2.1,4.7,3.3,9.9,4.4,15
			c0.9,4.2-2.3,6.2-5.7,6.6c-3.6,0.4-4.7-2.5-5.3-5.8c-0.4-2.8-1.5-5.5-2.5-8.8C346.4,100.5,344.3,101.9,342.1,103.3z"/>
		<path class="st2" d="M191.4,265.1c2.6,0.1,5.5-1,7.1,2.6c0.4,0.9,2.6,1,3.9,1.5c-1.2,4.1-1.9,8.4-3.6,12.3
			c-1.6,3.7-3.7,7.3-6.3,10.4c-2.6,3.1-7.2,1.6-8.4-2.3c-1.1-3.8-2.2-7.6-3.3-11.3c4.8-1.8,7.1-5.3,7.2-10.4
			C189.2,266.9,190.3,266,191.4,265.1z"/>
		<path class="st1" d="M389.2,258.9c1-11.9-0.8-24.2,3.9-35.7c1.6-4,3.9-7.7,8.7-8.6c0,2.5,0,4.9,0,7.7c2.1,1.1,4.6,2.4,7,3.7
			c-5,1.3-7,4.6-7,9.7c0,3.1-0.7,6.1-1.1,9.2c-1-1.8-1.7-3.9-3.1-5.4c-0.8-0.9-2.5-0.8-3.9-1.2c-0.3,1-0.9,2.1-0.8,3
			c0.5,3.7,1.1,7.3,1.8,11c0.2,1.1,1.2,2,1.8,2.9c0.1,0.7,0.2,1.4,0.3,2.1c-1,1.6-2,3.2-3.1,4.8c-0.4-0.5-0.8-1-1.3-1.4
			C391.6,260.1,390.4,259.5,389.2,258.9z"/>
		<path class="st3" d="M109.1,361.2c-0.3,3.2-0.6,6.5-0.9,9.7c-0.6,1.2-1.6,2.3-1.6,3.5c-0.1,5.7-2,7-7.4,4.7
			c-1.9-0.8-3.9-1.3-5.9-2c0-5.3,0-10.5,0-16.3c-4,0-7.2,0-10.5,0c-6,0-7.5-2.8-4.6-8.6c3.8,5.2,8.5,7.3,14.8,4.8
			c0.6-0.2,1.4,0,1.9-0.2c3.9-1.6,6.5-0.9,6.5,2.2C104.6,359.9,106.9,360.6,109.1,361.2z"/>
		<path class="st6" d="M235.8,255.2c-0.3,1.6-0.6,3.2-0.8,4.8c0,1.5-0.3,3,0,4.4c0.3,1.6,1.2,3,1.8,4.5c1.5-0.9,3-1.7,4.4-2.7
			c0.7-0.5,1.3-1.1,2.5-2.1c0.1,1.9,0.1,3.2,0.3,4.5c0.2,1.3,0.5,2.7,0.9,5c1.5-1.8,2.3-2.8,3.1-3.7c0.3,5.8,0.6,11.5,0.9,17.3
			c0.2,3.6-3.9,6.7-8.8,6.9c-3.5,0.1-6.9-3.1-6.9-7c0.2-10.7,0.7-21.5,1.1-32.2C234.7,255,235.3,255.1,235.8,255.2z"/>
		<path class="st6" d="M280.8,261.1c-3.2-4.6-5.9-5.1-11.7-2c-0.5-12.6-1-25.2-1.5-37.8c1.2,1.6,2.8,3.1,3.7,4.9
			c1.9,3.8,4.7,6.1,9.1,6.1C280.5,241.8,280.7,251.4,280.8,261.1z"/>
		<path class="st5" d="M151,144c-4.7-4.3-4.3-9.5-3-15c0.1,2.6-1.2,5.8,2.6,7.2c1.3-3.9-1.9-9.4,4.1-11.4c0.2-0.1,0.1-0.6,0.2-0.9
			c1.4-6.2,2.7-12.5,4.1-18.7c1.6-1.7,3.1-3.4,4.7-5.1c-1.5,11.7-3.4,23.5-4.4,35.3c-0.4,4.8,1,9.8,1.6,14.7
			c-1.6,0.3-3.4,0.2-4.8,0.9c-3.4,1.7-4.5-0.1-5.1-2.9C150.9,146.7,151,145.4,151,144z"/>
		<path class="st1" d="M170,86.5c8.5,3.5,14.4,13.1,13.6,22.1c-0.4,4.2-3.5,7.4-7.4,7.2c-4.3-0.3-5.8-3-6.1-7
			c-0.3-4.2-1.2-8.2-6-9.7C166,94.9,168,90.7,170,86.5z"/>
		<path class="st1" d="M250,86.1c4.5-0.2,9-0.5,13.4-0.7c2.2-0.1,4.3-0.1,6.5,0.1c5.9,0.7,9.3,3.5,9,7.4c-0.3,4.1-3.3,6-9.8,6.1
			c-3,0-6-0.1-9,0.2c-1.4,0.1-2.7,1.2-4.1,1.9c-0.4-1.3-0.8-2.6-1.2-4c0.4-1,0.7-2,1.1-3c0.1,0.1,0.3,0.1,0.4,0.2
			c-0.1-0.1-0.3-0.2-0.4-0.2c-2.7,0-5.4,0-8.1,0C248.6,91.3,249.3,88.7,250,86.1z"/>
		<path class="st1" d="M257.2,241.4c-0.8,1.2-2,3.5-2.4,3.3c-2.3-0.7-5.6-1.6-6.2-3.3c-1.1-3.1-2.2-4.8-5.7-4.6c-1,0-2.1-1.6-3.8-3
			c-1.5,2.6-2.9,5.1-4.3,7.6c-0.3-7.9-0.8-15.7-0.7-23.6c0-4.6,3.6-6.2,8.8-4.6c-0.4,0.3-0.8,0.6-1.2,0.8c-3.3,1.3-5.4,3.5-4,7.2
			c1.4,3.6,3.7,5.9,8.1,3.9c1.3-0.6,2.9-0.8,4.3-1.2C252.5,229.8,254.8,235.6,257.2,241.4z"/>
		<path class="st5" d="M99.6,149.3c0.1-14.2,0.2-28.4,0.2-42.6c0.4-2.9,0.8-5.7,1.2-8.6c2.3,6.7,4.6,13.4,6.9,20.1
			c0.4,1.7,0.9,3.3,1.3,5c-0.3,1.6-1.1,3.4-0.7,4.8c0.9,2.8,2.5,5.4,3.8,8.1c-1.1,2.1-2.1,4.2-3.2,6.2c-3.3,2.2-8.1,2.8-8.5,8.1
			C100.2,150,99.9,149.6,99.6,149.3z"/>
		<path class="st4" d="M269.2,397.9c0-1.2,0-2.5,0-3.7c2.3-8.5,4.6-16.9,7-25.4c0.5-1.7,1.3-3.2,2-4.8c1.8,1.5,3.1,2,5.4,0.2
			c3.1-2.4,4.7-5.2,4.9-8.9c1.2,1.5,2.8,2.9,3.4,4.6c0.7,2.2,0.6,4.8,0.9,7.2c-3.2,4.1-5.7,9.3-9.8,11.9c-5.7,3.6-5.5,9-6.8,14
			C275.1,396.9,273.1,398.4,269.2,397.9z"/>
		<path class="st4" d="M60.1,402.9c0.8-0.5,2.2-0.9,2.3-1.4c0.4-5.1,3.9-6.7,8.1-7.5c6.1,4.8,7.6,14.5,3.6,23.9
			c-3.1-3.3-5.9-2.6-9.6,2c-0.8,1-2.6,1.2-3.9,1.8c-0.4-1.3-0.8-2.5-1-3.8c-0.3-1.3-0.5-2.6-0.7-3.9
			C59.2,410.3,59.7,406.6,60.1,402.9z"/>
		<path class="st5" d="M400.8,399.1c0.7,1.6,1.5,3.1,2.4,5.2c1.5-1.7,2.5-2.8,3.6-4c0.4,7.2,0.8,14.4,1.2,21.6
			c0.2,5-1.6,6.1-8.7,6.6c-4.4,0.3-4.9-2.3-5-5.6c0-1.7-0.1-3.3-0.2-4.9c2.5-3.8,4.9-7.8,2.5-12.5
			C393.9,400.2,394.6,399.1,400.8,399.1z"/>
		<path class="st7" d="M93.2,377.2c2,0.6,4,1.2,5.9,2c5.4,2.3,7.4,1.1,7.4-4.7c0-1.2,1.1-2.3,1.6-3.5c-0.4,12.3-0.8,24.7-1.2,37
			c-4.3-3.3-4.3-3.3-10.2-17.9c-1.3,2.6-2.2,4.2-3,5.9C93.6,389.7,93.4,383.4,93.2,377.2z"/>
		<path class="st2" d="M194.1,373.9c-1.1-6.8-2.1-13.7-3.2-20.5c-0.6-3.6,0.9-5.8,4.6-6.1c3.6-0.3,7.8-1.2,8.6,4
			c0.8,5.2,1.3,10.5,1.9,15.7c-2.8,2.7-5.7,5.3-8.7,8.1C196.4,374.8,195.3,374.4,194.1,373.9z"/>
		<path class="st1" d="M109.1,361.2c-2.3-0.6-4.5-1.3-7.7-2.2c-0.1-3.1-2.7-3.8-6.5-2.2c-0.6,0.2-1.4,0-1.9,0.2
			c-6.3,2.4-11,0.4-14.8-4.8c2.6-1.1,5.1-2.9,7.7-3.2c4.3-0.5,8.8,0,13.1,0.1c1.1,1.2,2.1,3.5,3.3,3.5c3.9,0.3,8,0.4,11.8-0.5
			c4.4-1.1,7.4-0.7,8.9,3.9c0.1,2.9-1.3,4.1-4.1,4.2C115.7,360.5,112.4,360.9,109.1,361.2z"/>
		<path class="st6" d="M163.1,154.9c5.1,0.4,7-2.9,8-7.1c0.4-1.6,0.5-3.3,0.8-4.9c0.8-3.9,3.1-5.9,7.1-4.9c3.5,0.9,6.6,2.7,5.1,7.4
			c-0.5,1.5-0.6,3.1-1,4.7c-2-2.7-3.9-5.4-5.9-8.1c-0.3,6.3-5.8,12.9,1.8,17.8c-3.4,4.1-7.1,7.8-12.9,8.1c0.3-2.1,0.7-4.3,1.1-6.8
			c-5.7-0.2-12.5,1.6-14.3-6.8C156.3,154.5,159.7,154.7,163.1,154.9z"/>
		<path class="st1" d="M86.1,249.2c-2-1.6-1.8-6.8-6.2-4.4c-7.3,4-8.3,8.5-4.9,16.1c-2.4,2.9-4.6,5.5-7,8.4c-1.4-1.7-2.5-3-3.6-4.3
			c0-4.6,0.1-9.3,0.1-13.9c1.7-1.1,4.4,3.2,5.4-1.1c0.4-4.3,0.9-8.5,1.2-11.6c3.2,0.4,5.6,0.6,7.9,0.9c1-1.2,2-2.3,2.9-3.5
			c2.4,4.5,6.6,2.8,10.3,3.2C90.2,242.4,88.1,245.8,86.1,249.2z"/>
		<path class="st2" d="M407.2,100.1c1.2-2.5,2.5-4.9,3.5-7.4c1-2.3,2.1-4.7,4.9-3.4c1.4,0.7,2.9,3.1,2.9,4.7c0,4.4-1,8.8-1.1,13.2
			c-0.2,6.3-0.1,12.5-0.1,20c-3.5-2.2-6.8-4.3-10.2-6.4C407.2,114,407.2,107.1,407.2,100.1z"/>
		<path class="st6" d="M408.9,226c-2.5-1.3-4.9-2.6-7-3.7c0-2.7,0-5.2,0-7.7c5.9-3.7,10.5-3.2,16.3,1.5c0.7,5.8,0.7,11.7,2.2,17.3
			c1.7,6.6,0.3,11.9-4,16.9c-0.5-5.6-0.8-11.2-1.7-16.7C414.2,230.2,413.4,226.5,408.9,226z"/>
		<path class="st6" d="M336.1,164c1.6-2,3.3-3.9,4.9-5.9c4-1.4,8.1-2.7,12.1-4.1c1.3-1.8,3.2-3.4,3.9-5.4c2-5.5,3.4-11.2,5.1-16.9
			c0.6,1.3,1.7,2.6,1.7,3.8c-0.4,5.7-0.7,11.5-1.9,17.1C359.2,166,348.2,170.7,336.1,164z"/>
		<path class="st6" d="M269.2,397.9c3.9,0.5,6-1,7-5.1c1.3-5,1.1-10.4,6.8-14c4.1-2.6,6.6-7.8,9.8-11.9c0.4,1.9,0.8,3.8,1.2,5.7
			c-0.4,1.1-0.5,2.9-1.2,3.2c-4.3,1.6-3,4-1.2,6.6c1.3,1.8,2.4,3.6,3.8,5.8c-3.3,1.1-5.9,2-8.5,2.9c-0.7-1.1-1.4-2.1-2.4-3.6
			c-1.5,4.4-2.9,8.5-4.3,12.6c-1.8,1.1-3.6,2.2-5.8,3.5C272.8,402,267.9,403.1,269.2,397.9z"/>
		<path class="st6" d="M250,86.1c-0.7,2.6-1.4,5.2-2.1,7.8c-0.2,0.7-0.5,1.4-0.7,2.1c0.2,2.7-0.1,5.6,0.7,8.1
			c1.3,4.1,3.2,7.9,4.9,11.8c1,2.4-0.2,3.9-2.1,5.1c-1.2,0.6-3.2,0.9-3.4,1.7c-1,4.2-1.5,8.5-2.2,12.7c-0.7-0.1-1.4-0.2-2.1-0.3
			c0-14.5-0.1-29.1,0.1-43.6C243.2,87.5,246,85.7,250,86.1z"/>
		<path class="st7" d="M194.1,373.9c1.2,0.5,2.4,0.9,3.2,1.3c3-2.8,5.8-5.5,8.7-8.1c1,5.7,2.3,11.3,2.8,17c0.2,2.3-1.2,4.7-1.8,7.1
			c0,1,0,1.9,0,2.9c-2.3,4.3-4.7,8.7-7,13c-1.5-7.3-2.9-14.6-4.4-21.9c0.5,0.4,1.2,0.7,1.3,1.2c2,5.7,2.2,5.8,7.6,1.8
			c-2-3.7-5.4-4.3-9.2-4.2C194.9,380.6,194.5,377.3,194.1,373.9z"/>
		<path class="st6" d="M54.7,156.1c-0.4,2.9-0.5,5.9-1.3,8.7c-1,3.3-3.5,4.7-7,4c-3.7-0.7-6.4-3.1-5.3-6.8
			c3.2-10.8,1.8-22.9,9.6-32.3c2.7,1.8,5.5,3.7,8.2,5.5c-1.1,0.8-2.2,1.9-3.4,2.3c-4.4,1.6-7.7,5.6-7.5,10.3
			C48.3,152.2,50.3,155.2,54.7,156.1z"/>
		<path class="st3" d="M92.2,239.1c-3.6-0.4-7.9,1.2-10.3-3.2c3.3-6.6,6.5-13.2,9.9-19.8c1.6-3,4.1-3.1,6.7-1.5
			c2.7,1.7,5.5,3.7,3.4,7.5C98.9,227.8,95.5,233.4,92.2,239.1z"/>
		<path class="st1" d="M406.8,283.6c-2.2,4.7-1.8,5.4,3.2,6.5c2.4,0.5,4.8,1.3,7.1,2c-4.8,4.8-10.4,5-16.5,2.8
			c-6-2.2-9.3-6.5-9.8-12.9c4.2-5,8.4-10.1,8.2-17.2c0.6,0.1,1.2,0.1,1.8,0.2C401.5,271.7,401,278.6,406.8,283.6z"/>
		<path class="st4" d="M450,384c3.4-6,6.6-12.1,10.2-17.9c3.4-5.6,7.3-10.9,7.6-17.8c4.5,2.2,5.7,5.1,3.9,9.3
			c-4.3,9.8-8.5,19.7-12.8,29.5C455.9,386,452.9,385,450,384z"/>
		<path class="st2" d="M170.1,259.9c1.9,6.5,1,12.8-1,19.1c-0.6,0.2-1.3,0.2-1.8,0.6c-4.8,3.6-6.7,3.1-9.1-2.5
			c-0.3-0.7-0.7-1.4-1.1-2.1c0.2-7.4,0.4-14.8,0.6-22.2c1.4,0.9,3.1,1.6,4,2.9c2,2.5,3.5,5.4,5.6,8.6
			C168.6,262.3,169.3,261.1,170.1,259.9z"/>
		<path class="st1" d="M293.9,417.9c7-2.8,10-9.4,14-15c0.3-0.5,0.6-1,0.9-1.7c1.2,1.4,2.2,2.6,3.2,3.8c-0.9,5.5-1.5,11.1-3,16.5
			c-0.7,2.6-2.7,5.4-4.8,7.1c-4,3.1-9.4,0.8-10.7-4.3c-0.5-2-0.3-4.2-0.4-6.4C293.3,417.9,293.6,417.9,293.9,417.9z"/>
		<path class="st2" d="M439.9,140c0.2,0.5,0.2,1.3,0.5,1.3c8.7,2.4,8.1,9.3,7.8,16.1c-0.1,1.3,0.2,2.6,0.3,3.9
			c-1.3,3.8-3.8,5.8-7.9,4.8c-4.1-1-4.9-3.9-4.9-7.9c0.1-7.4-0.3-14.8-0.6-22.2C436.7,137.4,438.3,138.7,439.9,140z"/>
		<path class="st6" d="M148.9,364c0,5.7,0,11.4,0,17.1c-1,0.3-1.9,0.7-2.9,1c-3,0-6,0-8.9-0.1c-1.3-1.9-2.6-1.8-4,0
			c0-6.7,0-13.3,0-20C138.4,362.7,143.6,363.3,148.9,364z"/>
		<path class="st2" d="M418.7,146.3c-0.9,1.9-1.7,3.8-2.6,5.7c-3.5,1.1-1.8,3.5-1.4,5.6c0.5,2.8,1.2,6-3.6,5.3
			c-1.9-4.6-1.8-9.3-1.6-14.2c0.1-3.2-2.4-6.7-4.3-9.8c-1.8-2.8-1.4-4,1.6-5.1c3.1-1.1,5.9-2.8,9.3-4.5c1,0.7,2.2,1.7,3.5,2.7
			C419.4,136.8,419,141.5,418.7,146.3z"/>
		<path class="st4" d="M54.7,156.1c-4.4-0.9-6.4-3.9-6.6-8.1c-0.2-4.8,3-8.8,7.5-10.3c1.3-0.4,2.3-1.5,3.4-2.3
			c0.4-0.1,0.8-0.2,1.2-0.3c0.3,0,0.6,0.1,0.9,0.1c2.9,0.2,5.9,0.5,8.8,0.7c1,3.4,4.5,6.4,1.5,10.4
			C63.4,145.4,56.9,147.2,54.7,156.1z"/>
		<path class="st1" d="M439.9,140c-1.6-1.3-3.2-2.6-4.8-3.9c0.2-13.1,0.1-26.1,0.8-39.2c0.2-3.4,2.7-6.8,4.8-9.8
			c0.8-1.1,3.8-1.7,5.2-1.1c1.4,0.6,2.8,2.9,2.9,4.6c0.3,6.4,0.1,12.9,0,19.4c-0.5,1.3-1.1,2.5-1.6,3.8c-1.3-6.8,3-13.7-0.7-20.5
			c-7.6,3.1-9.3,8.7-8.5,16c0.7,6.9,0.6,13.9,0.9,20.9C439.1,133.4,439.6,136.7,439.9,140z"/>
		<path class="st6" d="M106,86.1c7.2-1.7,14-0.3,19.2,4.9c5.6,5.6,6.3,12.8,3.9,20.2c-0.5-1.8-0.5-4.5-1.6-5.1
			c-3-1.6-6.4-2.2-9.7-3.2c-1.6-1.8-3.3-3.5-4.9-5.3c-1.6-2.6-3.2-5.2-4.7-7.7C107.4,88.6,106.7,87.4,106,86.1z"/>
		<path class="st2" d="M41.8,350.9c4.3-5.2,9.8-4.7,15.4-3c5.7,1.7,11,4.1,11.8,11.1c-1.7,0.8-3.4,1.8-5.2,2.5
			c-2.2,0.9-4.5,1.7-6.7,2.5c-1.1-1.4-2.1-2.7-3.2-4.1c-3.4-1.6-6.7-3.2-10.1-4.8c0.3-0.2,0.6-0.5,1-0.7
			C43.8,353.2,42.8,352.1,41.8,350.9z"/>
		<path class="st1" d="M38.3,251c4.3,0.8,8.1,1.9,9.1,7.2c0.3,1.5,2.7,2.5,4.2,3.7c-0.3,3.7-0.5,7.4-0.8,11
			c-2.4-1.1-4.8-2.1-8.2-3.7c1.5,4.8,4.5,8.5-1.2,10.4c-2.8,0.9-3.5-0.6-3.6-3C38,268.1,38.2,259.6,38.3,251z"/>
		<path class="st7" d="M159,105.2c-1.4,6.2-2.7,12.5-4.1,18.7c-0.1,0.3-0.1,0.9-0.2,0.9c-6,2-2.8,7.5-4.1,11.4
			c-3.8-1.5-2.5-4.6-2.6-7.2c0.7-9.8,1.2-19.7,2.1-29.5c0.2-1.9,1.9-3.7,2.9-5.5C155,97.7,157,101.5,159,105.2z"/>
		<path class="st6" d="M79,239.3c-2.3-0.3-4.7-0.5-7.9-0.9c-0.3,3-0.8,7.3-1.2,11.6c-0.6-1.6-1.7-3.2-1.8-4.9
			c-0.2-6.2-0.2-12.5,0-18.8c0.1-1.9,0.8-3.8,1.7-5.5c2-4,1.4-5.5-3.4-6.7c2-0.6,4.3-2,6-1.5c1.8,0.5,4.2,2.7,4.5,4.5
			c0.8,5.9,0.7,11.9,1.1,17.8C78,236.4,78.6,237.8,79,239.3z"/>
		<path class="st7" d="M452.2,259.8c0.3,3.1,0.7,6.2,1,9.2c-3.2,3.2-5.5,6.4-1.9,10.9c0.9,1.1,1,2.7,1.4,4.1c-0.6,1.7-1,3.5-1.9,5
			c-0.7,1.1-2,2.5-3.2,2.5c-1.4,0.1-3.5-0.6-4.3-1.7c-0.9-1.3-0.6-3.5-1.2-5.2c-0.4-1.3-1.2-2.5-1.8-3.7c0.5-5.6,1.1-11.1,1.6-16.7
			c0.6,1.3,1.3,2.5,1.9,3.8c0.9-0.9,1.9-1.7,2.8-2.6C448.6,263.5,450.4,261.7,452.2,259.8z"/>
		<path class="st7" d="M345.1,289c-0.2-9.6-0.5-19.3-0.7-28.9c2.4-0.9,4.7-1.7,8-2.9c0.2,3.1,0.5,5.9,0.7,8.7
			c0.7,7.3,1.4,14.7,2.2,22C351.8,288.2,348.4,288.6,345.1,289z"/>
		<path class="st3" d="M127.9,229c-3.8-0.1-7.5-0.5-7.2,5.3c0,0.9-3.2,1.9-4.9,2.8c-0.2-6.6-0.5-13.2-0.5-19.8
			c0-5.3,4.5-4.6,7.7-4.8c3.1-0.2,5.4,1.2,5.1,5C127.8,221.4,128,225.2,127.9,229z"/>
		<path class="st4" d="M148.9,364c-5.3-0.6-10.5-1.3-15.8-1.9c-0.1-2,0-4-0.2-6c-0.6-6.3,2.2-9.7,8.4-10c3.6-0.2,6.3,1.3,6.7,5.1
			C148.5,355.4,148.6,359.7,148.9,364z"/>
		<path class="st7" d="M41.8,350.9c1,1.2,2,2.3,3,3.5c-0.3,0.2-0.6,0.5-1,0.7c3.4,1.6,6.7,3.2,10.1,4.8c-6.7,0.5-8,2-7.7,9.1
			c-1.4,0.3-3.7,0.1-4,0.9c-1.6,3.4-4.4,3.2-7.3,3.3C30.4,364.4,33.1,355.8,41.8,350.9z"/>
		<path class="st6" d="M205,417.1c2.5,4.6,5.4,2,7.4-0.1c2.8-2.9,5.7-4.2,9.5-3.3c1.2,5.9-0.6,11.1-4.8,15
			c-5.2,4.8-14.2,0.8-15.9-6.9c-0.4-1.9-0.1-3.9-0.2-5.9c1.3,0.4,2.5,0.7,3.8,1.1L205,417.1z"/>
		<path class="st3" d="M355.9,410.3c0.2-1.2,0.3-2.5,0.5-3.7c0.3-0.1,0.6-0.2,1-0.3c1,2.1,2.1,4.2,3.4,6.9c0.7-1.3,1.2-2.2,1.7-3.1
			c0.1,0.3,0.2,0.6,0.4,0.9c1.8-0.7,3.6-1.5,5.3-2.2c1.8,3.5,3.7,7,5.3,10.5c1.6,3.4,0.4,6-2.8,7.9c-5,3-6.6,2.8-9.1-2.7
			C359.3,419.9,357.7,415,355.9,410.3z"/>
		<path class="st6" d="M450,384c3,1,5.9,2.1,8.9,3.1c-1.9,4.1-3.8,8.1-5.7,12.2c-1.5-3.2-3-1.9-4.8-0.2c-3.8,3.6-7.9,6.4-13.5,5.8
			c2.3-4.7,4.6-9.4,6.9-14.1C444.4,388.5,447.2,386.2,450,384z"/>
		<path class="st2" d="M353,265.9c-0.2-2.8-0.5-5.6-0.7-8.7c-3.2,1.2-5.6,2-8,2.9c0-2,0.1-4,0.1-6c1.5-1.3,3-2.7,4.6-4
			c2-1.7,4-3.3,6-5c0.5,0,1.1,0,1.6-0.1c0.1,1,0.2,1.9,0.2,2.9c-0.3,4.4,0.8,5.3,4.9,3.9c0.8-0.2,1.5-0.5,2.3-0.7
			c-0.7,3.9-1.4,7.9-2,11.8c-4.6,1.8-6.3,5.1-5.3,10c0.3,1.5-0.3,3.2-0.5,4.8c-0.1-3,0.1-6-0.4-8.9C355.6,267.7,354,266.8,353,265.9
			z"/>
		<path class="st1" d="M464.9,229.1c5-1.1,4.9-5.5,6.1-9.1c1.7,2,3.3,4.1,5,6c2.4,2.7,2.9,5.7,1.2,8.9c-4.5,4.4-10.6,7.8-10.3,15.7
			c1.3,0.2,2.9,0.5,4.4,0.7c0,0.4,0,0.7,0,1.1c-4.4,0.8-8.9,1.7-13.3,2.5c-0.3-1.2-0.7-2.3-1-3.5
			C466.1,248.4,469.5,238.7,464.9,229.1z"/>
		<path class="st2" d="M348.9,408.1c-2.7,5.3-5.4,10.6-8,15.9c-3.7-1.4-7.4-2.7-11.1-4.1c3.2-5.7,6.5-11.4,9.7-17
			c1.2,0.5,2.4,1,3.5,1.6c0.8,0.4,1.4,0.9,2.2,1.4C346.4,406.6,347.6,407.3,348.9,408.1z"/>
		<path class="st2" d="M60.2,135.1c-0.4,0.1-0.8,0.2-1.2,0.3c-2.7-1.8-5.5-3.7-8.2-5.5c0.8-3.9,1.5-7.9,2.3-11.8
			c4.2-0.1,6.5-2.4,7.9-6.2c0.7-1.8,2-3.5,3-5.2c0.7,0.3,1.4,0.5,2.1,0.8c-0.3,2.9-0.7,5.8-1,8.7c-1.4,5.6-2.8,11.2-4.2,16.9
			C60.7,133.7,60.5,134.4,60.2,135.1z"/>
		<path class="st7" d="M86.9,271.2c2.3-2.1,4.6-4.2,6.9-6.3c3.4,5,6.9,10,10.3,15c-0.4,4.8-1.1,9.4-7.3,10.2
			C93.6,283.8,90.2,277.5,86.9,271.2z"/>
		<path class="st7" d="M400.8,399.1c-6.3-0.1-6.9,1-4.2,6.3c2.5,4.7,0,8.7-2.5,12.5c-0.7-8.6-1.4-17.2-2.2-25.9
			c0.5-4.6,3.7-8.1,8.2-7.9c1.8,0.1,4.4,1.5,5,3c0.8,1.7,0.2,4.4-0.5,6.3C403.9,395.6,402.1,397.3,400.8,399.1z"/>
		<path class="st5" d="M44,406c-0.2,3.9,0,7.7,4.1,9.9c0.3,1.9,0.6,3.8,0.8,5.2c-0.6,3-1.1,5.8-1.6,8.5c-8.7-1.2-14.8-8.3-15.8-18.3
			c0.5,0.2,1,0.5,1.6,0.7c0.9,0.6,2.4,1.8,2.7,1.6c2.8-2.3,5.3-4.9,8-7.3c0,0,0.3,0,0.3,0L44,406z"/>
		<path class="st6" d="M319,278c0,0.3,0.1,0.7,0,1c-1.7,8.8-1.7,8.8,7.2,9.1c-4.8,7-11.7,9.1-19.3,6c-0.2-0.8-0.5-1.7-0.7-2.5
			c-0.4-1.5-1.2-3-1-4.5c0.4-3.1,1.2-6.1,1.9-9.1C312.1,282.4,312.7,282.4,319,278z"/>
		<path class="st2" d="M450,414.2c-1.9,6.8-5.1,8.4-12,5.8c-3.7-1.4-6.5,1-6.9,6c-0.7-2.3-1.8-4.7-1.9-7c-0.1-1.6,1.3-3.2,2-4.9
			c0.9-0.1,2.7-0.3,2.7-0.4c-0.3-4.6,3.3-5.2,6.6-6.5c1.8,5.6,5.2,3.5,8.5,1.9C449.2,410.7,449.6,412.4,450,414.2z"/>
		<path class="st1" d="M375.9,152c2.1,1.1,3.5,1,4.2-1.7c0.3-1.2,1.5-2.1,2.3-3.2c1,3.7,1.6,7.6,6.5,8.2c0.2,1.4,0.9,3,0.5,4.3
			c-0.7,2.5-1.7,6.5-3.2,6.9c-3.1,0.7-6.6-0.6-9.9-1.2c-0.3-0.1-0.6-1.3-0.6-2C375.7,159.4,375.8,155.7,375.9,152z"/>
		<path class="st2" d="M161.3,427.8c-0.7-2.9,3.8-6-0.3-8.8c0.9-0.8,1.6-1.8,2.6-2.3c2.9-1.4,3.2-3.3,1.3-5.7c1-2,2-3.9,3-5.9
			c1.4-0.4,2.7-0.7,4.1-1.1c-0.5,3.8,0.8,6.1,5,6C175.5,419.2,171.2,426,161.3,427.8z"/>
		<path class="st6" d="M212.9,260.1c-1.6-3.4-3.2-6.9-4.9-10.3c-1-2-2.2-3.9-3.4-5.8c-2.3,2.1-4.6,4.1-6.7,6.3
			c-1.4,1.5-2.5,3.3-3.7,4.9c1.6-5.1,3.2-10.1,4.8-15.2c4.8,1.3,6.2-2.1,7.6-5.5c0.8-1.8,1.3-3.8,3-5.5
			C212.8,239.3,212.3,249.7,212.9,260.1z"/>
		<path class="st1" d="M307.1,277.9c-0.7,3-1.5,6-1.9,9.1c-0.2,1.4,0.6,3,1,4.5c0.2,0.9,0.5,1.7,0.7,2.5c-7.6-0.9-10.3-4.3-12-15
			c5,0.8,6.6-1.9,6-6.3c-0.5-4,0.8-6.3,4.9-6.7C306.3,269.9,306.7,273.9,307.1,277.9z"/>
		<path class="st4" d="M280.3,232.2c-4.4-0.1-7.1-2.3-9.1-6.1c-0.9-1.8-2.4-3.3-3.7-4.9c-0.1-1.5-0.9-3.3-0.3-4.3
			c1.4-2.1,3.5-5.2,5.3-5.3c2.7-0.1,6.2,1.1,6.4,5.4C279.3,222.1,279.9,227.1,280.3,232.2z"/>
		<path class="st6" d="M225,409.1c-1.8-1.6-3.8-3.2-5.5-4.9c-2.2-2.2-3.3-4.5-1-7.7c1.4-1.8,1.7-4.5,2.6-6.7c1.9-4.4,5.5-6.2,10-6.8
			c-0.4,1.4-0.8,2.8-1.2,4.2c-0.1,0.1-0.2,0.1-0.4,0.2c0.1,0.2,0.2,0.4,0.3,0.6C228.2,394.9,226.6,402,225,409.1z"/>
		<path class="st3" d="M365.9,368c-0.9-0.6-2.3-0.9-2.7-1.7c-1.6-3.2-4.2-3.6-7.3-3.3c1.6-3.8,3.2-7.6,4.8-11.3
			c1.6-3.8,4.5-3.8,7.8-2.6c3.6,1.3,3.7,3.7,2.4,6.8C369.3,359.9,367.6,364,365.9,368z"/>
		<path class="st2" d="M159,105.2c-2-3.7-4-7.4-6-11.1c5.8-9.8,8.9-11.2,16.9-7.5c-2,4.2-3.9,8.4-5.9,12.6c0,0.3-0.1,0.6-0.3,0.9
			C162.2,101.7,160.6,103.4,159,105.2z"/>
		<path class="st1" d="M442.8,232c0.8,1.7,4.3,2.7,1.5,5.4c0.8,0.5,1.6,1.5,2.3,1.4c1.4-0.1,2.9-0.7,4.2-1.4
			c1.4-0.7,2.6-1.7,3.9-2.5c0.2,5.3,0.5,10.5,0.7,15.8c-1.9-0.2-3.7-0.4-5.6-0.7c-2.5,1.2-5.1,2.4-7.6,3.7
			C442.4,246.5,442.6,239.3,442.8,232C442.8,232.1,442.8,232,442.8,232z"/>
		<path class="st7" d="M293.9,417.9c-0.3,0-0.5,0.1-0.8,0.1c-1.7-7-3.4-14-5.1-21c1.5-0.4,3.5-1.5,4.3-1c3.1,2.2,4.8,0,6.7-1.6
			c0.3-0.2,0.6-0.3,0.9-0.5c1.4,0.1,2.7,0.1,4.1,0.2c0,0.6,0,1.3,0.1,1.9c-2.4,2.5-6.8,4.2-3.7,9.1c0.3,0.5-0.3,2.4-0.9,2.7
			C294.6,409.6,295.1,414.2,293.9,417.9z"/>
		<path class="st1" d="M177,410c-4.1,0.1-5.5-2.2-5-6c0.9-0.8,2.6-1.6,2.5-2.4c-0.1-4-0.6-7.9-0.9-11.9c-2.2,0.4-3.9,0.8-5.6,1.2
			c-0.5-2.1-0.9-4.2-1.4-6.3c0-0.5-0.1-0.9-0.1-1.4c4.5,0.6,8.9,1.3,13.4,1.9C178.9,393.4,178,401.7,177,410z"/>
		<path class="st5" d="M243.1,135.1c0.7,0.1,1.4,0.2,2.1,0.3c3.2-1.4,6.4-2.9,9.6-4.3c0.1,4.7,0.2,9.3,0.3,14
			c-1.2,0.4-2.4,0.7-2.8,0.8c-1.5-1.5-2.6-2.7-3.8-3.8c-0.8,1-2.1,2-2.4,3.1c-1.2,5.5-2,11.1-3,16.7
			C243.1,153,243.1,144.1,243.1,135.1z"/>
		<path class="st6" d="M32.1,294.9c-7.6-1.1-11.8-5.3-12.7-12.8c-0.3-2.6-0.1-5.3-0.4-7.9c-0.5-4.5,1.4-6.9,5.8-7.4
			c1.8,3.9,3,7.6-0.6,11.3c-1.2,1.3-2.1,4-1.6,5.5c0.6,2,2.7,4.7,4.4,4.8c1.8,0.2,4.1-2,5.8-3.6c0.7-0.7,0.3-2.5,0.4-3.8
			c0.7,0,1.3,0,2-0.1C37.7,286.4,33,290.2,32.1,294.9z"/>
		<path class="st2" d="M288.1,154.9c4.7-1.1,8.4-3.1,7.8-8.9c1.3-0.4,2.7-0.7,4-1.1c0.2,5.5,0.5,10.9,0.5,16.4
			c0,5.6-4.4,4.5-7.8,4.9c-3.7,0.4-4.5-2-4.6-4.9C287.9,159.2,288.1,157,288.1,154.9z"/>
		<path class="st7" d="M464.9,283.1c4-1.4,8.1-2.9,12.1-4.3c1.1,1.8,2.3,3.5,3.2,5.4c2,4.3,0.3,7.2-5.3,9.7c-4.3,1.9-5.9-0.5-7-4.1
			C467.2,287.5,465.9,285.3,464.9,283.1z"/>
		<path class="st7" d="M157.1,275c0.4,0.7,0.8,1.4,1.1,2.1c2.4,5.5,4.3,6,9.1,2.5c0.5-0.4,1.2-0.4,1.8-0.6c3.6,3.3,2.3,7.2,0.5,10.4
			c-1,1.8-4,2.9-6.3,3.5c-3.1,0.8-5.5-0.3-5.7-4.2C157.5,284.2,157.3,279.6,157.1,275z"/>
		<path class="st1" d="M170.1,259.9c-0.8,1.2-1.5,2.4-2.8,4.5c-2.1-3.2-3.6-6.1-5.6-8.6c-1-1.3-2.7-1.9-4-2.9
			c0.1-2.6,0.2-5.2,0.3-7.8c1.1-0.6,2.7-0.9,3.2-1.8c1-1.8,1.4-3.9,2.1-6.2c4.4,1.8,4.3,4.9,3,7.9c-1.2,2.5-0.7,4,0.8,6.1
			c1.6,2.3,2,5.4,2.9,8.1C170.1,259.4,170.1,259.7,170.1,259.9z"/>
		<path class="st1" d="M256,112c3.6,1.2,7.2,2.5,10.8,3.7c3,0.9,4,3.2,3,5.7c-0.7,1.8-2.6,3.8-4.4,4.3c-3.3,1-6.9,0.9-10.3,1.3
			c0.3-2.5,0.8-5.1,1-7.6C256.2,116.9,256,114.4,256,112z"/>
		<path class="st4" d="M33.1,281c-0.1,1.3,0.3,3.2-0.4,3.8c-1.6,1.6-3.9,3.7-5.8,3.6c-1.7-0.2-3.8-2.8-4.4-4.8
			c-0.5-1.5,0.4-4.2,1.6-5.5c3.7-3.8,2.4-7.5,0.6-11.3c3.9-1.5,6,0.6,6.8,4C32.4,274.1,32.6,277.6,33.1,281z"/>
		<path class="st7" d="M133.2,137c-1.9,1.1-3.9,2.2-5.4,3.1c-2.3-1.1-4.5-2.1-6.7-3.1c-1.3-2-2.7-4-4-6c1.3-1.4,2.8-2.7,3.9-4.2
			c1.1-1.5,1.9-3.1,2.8-4.7C128.4,126,133.8,129.7,133.2,137z"/>
		<path class="st3" d="M66.4,214.1c4.8,1.2,5.4,2.6,3.4,6.7c-0.8,1.7-1.6,3.7-1.7,5.5c-0.2,6.2-0.2,12.5,0,18.8
			c0.1,1.6,1.2,3.3,1.8,4.9c-1,4.3-3.8,0-5.4,1.1c-0.1-10.7-0.3-21.5-0.3-32.2C64.2,217.3,65.6,215.7,66.4,214.1z"/>
		<path class="st6" d="M399.1,264.8c0.3,7.1-3.9,12.2-8.2,17.2c-0.6-7.7-1.1-15.4-1.7-23.1c1.2,0.6,2.3,1.2,3.5,1.7
			c0.4,0.5,0.8,1,1.3,1.4c1-1.6,2-3.2,3.1-4.8C397.7,259.8,398.4,262.3,399.1,264.8z"/>
		<path class="st2" d="M362.2,131.7c-1.7,5.6-3.2,11.4-5.1,16.9c-0.7,2-2.6,3.6-3.9,5.4c-0.4-1.1-0.8-2.2-1.2-3.2
			c1.7-6-2.5-9.6-5.5-13.7c4.6,0.2,6.3-3.1,7.7-6.6C356.8,130.9,359.5,131.3,362.2,131.7z"/>
		<path class="st6" d="M58.8,414c0.2,1.3,0.4,2.6,0.7,3.9c0.3,1.3,0.7,2.5,1,3.8c1.3-0.6,3.1-0.8,3.9-1.8c3.7-4.6,6.5-5.3,9.6-2
			c-3,6.6-7.2,11.6-15.3,11.2c0.1-0.1,0.2-0.2,0.3-0.4c0-0.1,0-0.4,0-0.4c-2.1-0.5-4.8-0.5-4-3.9c0.7-3.1,1.7-6.2,2.5-9.2
			C58,414.8,58.4,414.4,58.8,414z"/>
		<path class="st7" d="M243.1,161.9c1-5.6,1.9-11.2,3-16.7c0.2-1.2,1.5-2.1,2.4-3.1c1.1,1.2,2.3,2.3,3.8,3.8
			c0.3-0.1,1.6-0.5,2.8-0.8c0,1,0,2,0,2.9c-1.1,1.5-2.4,3-3.4,4.7c-1.1,1.7-2,3.6-3.3,5.9c2.7-0.3,4.2-0.5,5.6-0.7
			c-1.6,2-3.3,4-5.2,6.4c2.4,0.6,4.2,1.1,6.1,1.5C250.2,166.7,245.6,167.4,243.1,161.9z"/>
		<path class="st1" d="M129.1,279.8c1.7,0.3,3.3,0.5,5,0.8c1.5,1.3,3.6,2.3,4.5,3.9c1.5,2.9,2.2,6.1,3.3,9.2c-5,0-10,0.1-15,0.1
			c-1.1-1.4-2.2-2.7-3.4-4.2c6.8-1.5,6.8-1.5,5.5-8.4C129,280.8,129.1,280.3,129.1,279.8z"/>
		<path class="st2" d="M292.9,88.4c8.7,0,17.4-0.1,26-0.1c-3,8.1-6,10-13,8.6c-1.1-1.4-2.3-2.8-3.1-4.3c-1.8-3.7-3.8-2.7-6-0.4
			C295.6,90.8,294.3,89.6,292.9,88.4z"/>
		<path class="st1" d="M247.9,270c-0.8,0.9-1.6,1.9-3.1,3.7c-0.4-2.3-0.8-3.6-0.9-5c-0.2-1.2-0.2-2.5-0.3-4.5
			c-1.1,1-1.8,1.6-2.5,2.1c-1.4,0.9-2.9,1.8-4.4,2.7c-0.6-1.5-1.5-2.9-1.8-4.5c-0.3-1.4,0-3,0-4.4c2.1-0.4,4.3-0.6,6.3-1.1
			c4.8-1.2,4.9-5.2,5.1-9.1c0.1-1.5,0.2-3,1.5-4.8c0.7,1,1.4,1.9,2.1,2.9c-0.7,1.5-1.8,3-1.9,4.6C247.9,258.3,248,264.2,247.9,270z"
			/>
		<path class="st3" d="M141.9,293.7c-1.1-3.1-1.8-6.3-3.3-9.2c-0.9-1.6-2.9-2.6-4.5-3.9c3.1-0.3,6.2-0.9,9.3-0.8
			c5.7,0.1,8.7,3,8.1,7.6C150.8,293.4,148.7,294.8,141.9,293.7z"/>
		<path class="st3" d="M57.1,364c2.2-0.8,4.5-1.6,6.7-2.5c1.8-0.7,3.4-1.6,5.2-2.5c0.7,2.2,1.6,4.3,1.9,6.5c0.6,5-2.9,8.2-8.6,8.4
			c-5.2,0.2-5.4-3.2-5.1-6.9C57.2,365.9,57.1,364.9,57.1,364z"/>
		<path class="st7" d="M256,112c0,2.5,0.2,4.9,0,7.4c-0.2,2.6-0.6,5.1-1,7.6c0,0-0.1,0.1-0.1,0.1c-1.4-2-2.8-4-4.2-6.1
			c1.9-1.2,3.1-2.6,2.1-5.1c-1.7-3.9-3.6-7.8-4.9-11.8c-0.8-2.5-0.5-5.4-0.7-8.1c2.6,0.4,5.2,0.7,7.8,1.1c0.4,1.3,0.8,2.6,1.2,4
			C256.1,104.7,256,108.3,256,112z"/>
		<path class="st2" d="M146,382.1c1-0.3,1.9-0.7,2.9-1c-0.4,4.3-0.8,8.5-1.1,12.8c-0.6,1-1.2,2-1.7,3c-1.3,2.6-2.9,2.7-5,0.7
			c-2.5-2.3-5.2-4.4-7.8-6.6c0-3-0.1-6-0.1-8.9c1.3-1.8,2.6-1.9,4,0c1.1,3.4,2.1,6.9,3.2,10.3c0.8,0,1.6,0,2.4,0
			C143.7,388.9,144.9,385.5,146,382.1z"/>
		<path class="st2" d="M108.1,89.9c1.6,2.6,3.2,5.2,4.7,7.7c-0.6,5.8-1.3,11.6-1.9,17.4c-1.6-4.3-3.8-8.5-4.7-12.9
			c-0.7-3.5-2.3-4.3-5.3-4.1c-0.4,2.9-0.8,5.7-1.2,8.6c0.2-5.2,0.3-10.3,0.5-15.5C103.6,95.5,105.5,90.1,108.1,89.9z"/>
		<path class="st2" d="M123.8,122c-0.9,1.6-1.7,3.3-2.8,4.7c-1.2,1.5-2.6,2.8-3.9,4.2c-0.7-0.3-1.3-0.7-2-1c1-2.3,2-4.6,3.5-7.8
			c-3.7,0.4-6.5,0.7-9.3,1c-0.4-1.7-0.9-3.3-1.3-5c1.1-0.4,2.2-0.8,3.3-1.2c3.7-0.2,5.2-2.7,6-5.9c1,1.1,2,2.3,3.1,3.3
			c1.5,1.3,3.2,2.5,4.7,3.7C124.6,119.4,124.2,120.7,123.8,122z"/>
		<path class="st2" d="M254.9,165.8c-1.8-0.5-3.7-0.9-6.1-1.5c1.9-2.4,3.6-4.4,5.2-6.4c3.5-0.2,7.7,1.4,9.1-3.8c1.3,0,2.6,0,3.9,0
			c0.3,3.6,0.7,7.1,1,10.7C263.6,165.2,259.2,165.5,254.9,165.8z"/>
		<path class="st7" d="M224.8,118.2c1.7-1.1,3.3-2.1,5-3.2c0.4,2,0.7,4,1.1,6c0.1,0.4,0.1,0.7,0.2,1.1c0.1,0.5,0.1,1,0.2,1.5
			c0,0.9,0,1.9,0,2.8c0,0.5-0.1,1-0.1,1.5c-1.4,0.5-3.5,0.6-4.1,1.6c-3.8,5.7-4,11.9-2.1,18.4c-1,0-1.9,0.1-2.9,0.1
			c-0.3-3-0.6-6.1-0.9-9.1c0.2-1.5,0.5-2.9,0.7-4.4c0.3-2.4,1.5-5.1,0.8-7.2C221.5,123.6,222.8,120.9,224.8,118.2z"/>
		<path class="st1" d="M335.1,363c-0.9-1.7-2.1-3.4-2.7-5.2c-1.8-5.3-0.4-8.3,4.5-9.7c5.2-1.5,6.1,2.2,7.1,5.9
			c-0.4,0.4-0.7,0.8-1.1,1.1c-4.1,3.3-2.4,7.8-2.5,12c-1.5-0.7-2.9-1.4-4.4-2.1c0,0,0,0,0,0C335.7,364.4,335.4,363.7,335.1,363z"/>
		<path class="st7" d="M99.6,149.3c0.3,0.4,0.7,0.7,1,1.1c0.4-5.3,5.2-5.9,8.5-8.1c-0.4,1.6-0.9,3.3-1.3,4.9
			c-0.9,2.6-1.8,5.2-2.7,7.8c-5.4,0.8-0.5,5.3-3,7.1c1.8,1.1,3.3,2,4.8,2.9c2.3,1,4.7,2,7,2.9c-3.3,0.1-6.6,0.1-9.9,0.2
			c-3.5,0.1-5.3-1.6-5.2-5C98.9,158.4,99.3,153.8,99.6,149.3z"/>
		<path class="st2" d="M305.8,266c-4.1,0.5-5.4,2.8-4.9,6.7c0.5,4.3-1,7.1-6,6.3c-0.3-1.6-0.7-3.3-1-4.9c0-1.6-0.1-3.3,0.2-4.9
			c0.3-2.1,0.4-5.4,1.6-5.9c3.1-1.3,6.8-4.3,10.2-0.3C305.9,264,305.9,265,305.8,266z"/>
		<path class="st1" d="M322.1,356.1c-4.5,2.4-9,4.2-14.1,1.9c0.2-4.7,1.3-9.2,6.8-9.9c2.3-0.3,5.4,0.3,7.2,1.8
			C323,350.7,322.1,353.9,322.1,356.1z"/>
		<path class="st1" d="M380.8,129c0.2-1.3-0.2-3,0.5-3.7c5.4-5.3,6.1-12.1,6.7-19c0.2-1.8,1.2-3.5,1.8-5.2
			c0.1,8.4,0.4,16.9,0.2,25.3c-0.1,3.1,0.8,4.2,3.7,4.3c-1.9,1.1-3.8,2.1-5.7,3.2c0,0-0.1,0.4-0.1,0.4c-1.3-2.5-2.5-4.9-3.8-7.3
			C383,127.6,381.9,128.3,380.8,129z"/>
		<path class="st1" d="M448.9,409c-3.3,1.6-6.7,3.7-8.5-1.9c-3.3,1.3-6.9,1.9-6.6,6.5c0,0.1-1.8,0.3-2.7,0.4c1-2.7,1.9-5.4,2.9-8.1
			c0.3-0.4,0.6-0.8,0.9-1.2c0,0,0,0,0,0c5.6,0.7,9.7-2.2,13.5-5.8c1.8-1.7,3.4-3,4.8,0.2C451.7,402.5,450.3,405.8,448.9,409z"/>
		<path class="st1" d="M188,267.8c-0.1,5-2.4,8.6-7.2,10.4c-1.3-4.1-2.6-8.1-3.8-12.2c7.1-1.1,7.1-1.1,7-11.1
			C185.4,259.2,186.7,263.5,188,267.8z"/>
		<path class="st1" d="M32.1,294.9c1-4.6,5.6-8.5,3-13.9c0.2-0.2,0.3-0.2,0.6-0.1c3.1,2.7,6.3,4.4,10.6,2.4c0.7-0.3,1.8,0.5,2.7,0.7
			C45.5,291,40.7,295.8,32.1,294.9z"/>
		<path class="st1" d="M65.2,285.9c0.7-3.2,1.5-6.5,2.4-10.5c2.2-0.9,4.1-0.2,4.4,3.5c0.1,1.3,0.2,2.7,0,4c-0.6,4,1,6.7,4.9,7.9
			c-0.9,3.5-3.3,4.7-6.6,3.8C65.8,293.4,64.5,290.2,65.2,285.9z"/>
		<path class="st1" d="M389.8,91c-2.1,2.6-4.3,5.2-6.7,8.2c-5,0-4.4-5-6-8.2c-0.7-4.5,2.1-6.1,5.8-6.1C386.6,85,390.2,85.9,389.8,91
			z"/>
		<path class="st1" d="M393.9,360c-1.5,4.9-3,9.8-4.6,15.2c-2.5-3.4-4.6-6.3-6.7-9.2c-0.3-1-0.6-1.9-0.8-2.9
			c0.3-0.6,0.4-1.6,0.9-1.7c4.2-1.4,7.5-3.6,8.3-8.4C391.9,355.4,392.9,357.7,393.9,360z"/>
		<path class="st5" d="M442.2,253.7c2.5-1.2,5.1-2.4,7.6-3.7c-1.4,3.8,0.1,6.3,3.4,8.1c-0.4,0.5-0.7,1.1-1.1,1.6
			c-1.8,1.9-3.6,3.7-5.4,5.6c-0.9,0.9-1.9,1.8-2.8,2.6c-0.6-1.3-1.3-2.5-1.9-3.8C442.1,260.7,442.2,257.2,442.2,253.7z"/>
		<path class="st3" d="M306,96.8c7,1.4,10-0.5,13-8.6c3.9-0.7,5,1.6,5.1,4.9c0.2,3.3,0,6.6-4.3,7c-4.9,0.5-9.8,0.7-14.7,1.1
			C305.4,99.8,305.7,98.3,306,96.8z"/>
		<path class="st1" d="M57.6,415.2c-0.9,3.1-1.8,6.1-2.5,9.2c-0.8,3.3,1.9,3.4,4,3.9c0,0,0.1,0.3,0,0.4c0,0.1-0.2,0.3-0.3,0.4
			c-3.9,0.2-7.7,0.3-11.5,0.5c0.5-2.7,1-5.5,1.6-8.5c-0.2-1.4-0.5-3.3-0.8-5.2C51.2,415.7,54.4,415.4,57.6,415.2z"/>
		<path class="st1" d="M125,118c-1.6-1.2-3.2-2.3-4.7-3.7c-1.1-1-2.1-2.2-3.1-3.3c0.2-2.7,0.4-5.4,0.6-8.1c3.3,1,6.7,1.7,9.7,3.2
			c1.1,0.6,1.1,3.3,1.6,5.1C127.7,113.5,126.3,115.8,125,118z"/>
		<path class="st7" d="M123,356.1c-1.5-4.6-4.5-5-8.9-3.9c-3.8,0.9-7.9,0.8-11.8,0.5c-1.2-0.1-2.2-2.3-3.3-3.5
			c6.6-0.4,13.1-1.1,19.7-1.1c2.1,0,4.5,1.6,6.1,3.1C125.3,351.8,123.7,354.5,123,356.1z"/>
		<path class="st2" d="M329,129.2c0.9,1.4,2.8,3.4,2.4,4.2c-2,4.2,0.4,5.1,3.6,6.2c4.1,1.5,5.2,4.4,3.2,8c-2.7,5-5.9,1-8.9,0.4
			C329.2,141.8,329.1,135.5,329,129.2z"/>
		<path class="st6" d="M258.2,268.9c3.4,0,6.9,0,10.4,0c-0.3,5.4-0.3,9.8-0.8,14.2c-0.1,1.1-1.7,2-2.6,3
			C262.8,280.4,260.5,274.6,258.2,268.9z"/>
		<path class="st1" d="M298.9,394.3c-1.9,1.6-3.6,3.8-6.7,1.6c-0.8-0.6-2.8,0.6-4.3,1c-0.3-2-0.7-3.9-1-5.8c2.6-0.9,5.2-1.8,8.5-2.9
			c-1.4-2.1-2.6-4-3.8-5.8c-1.8-2.6-3.1-5,1.2-6.6c0.7-0.3,0.8-2.1,1.2-3.2c0.7,4.7,1.1,9.5,2.1,14.1
			C296.6,389.4,298,391.8,298.9,394.3z"/>
		<path class="st1" d="M33,412c-0.5-0.2-1-0.5-1.6-0.7c-0.2-1.8-0.5-3.6-0.4-5.4c0.1-6,3.6-8.7,9.4-7.3c4.6,1.1,5.3,2.7,3.6,7.4
			c0,0-0.1,0.2-0.1,0.2s-0.3,0-0.3,0c-1.8-0.2-4.3-1.2-5.4-0.4C36,407.3,34.7,409.9,33,412z"/>
		<path class="st1" d="M225,147.9c-1.9-6.4-1.8-12.7,2.1-18.4c0.7-1,2.7-1.1,4.1-1.6c-1.3,7.7-2.7,15.4-4,23.1
			C226.4,150,225.7,149,225,147.9z"/>
		<path class="st5" d="M221.2,138.9c0.3,3,0.6,6.1,0.9,9.1c-0.7,1.3-1.3,2.6-2,3.9c-2.2,0.9-4.5,1.9-7.2,3c1.6,1.1,2.6,1.9,3.7,2.6
			c-1.2,1-2.1,1.8-3.5,3.1c2.4,0.1,4,0.2,5.6,0.3c-1.8,0.6-3.6,1.2-5.5,1.9c-3-2.3-6.6-4.2-6.1-8.9c0,0,0.2-0.2,0.2-0.2
			c2.5-0.9,6-1,7.3-2.8C217.3,147.5,219,143,221.2,138.9z"/>
		<path class="st3" d="M250.1,223.9c-1.4,0.4-3,0.6-4.3,1.2c-4.3,1.9-6.7-0.3-8.1-3.9c-1.4-3.7,0.7-5.9,4-7.2
			c0.4-0.2,0.8-0.5,1.2-0.8C245.3,216.8,247.7,220.3,250.1,223.9z"/>
		<path class="st6" d="M390.9,353.1c-0.8,4.7-4.1,7-8.3,8.4c-0.4,0.1-0.6,1.1-0.9,1.7c-0.5-1.3-0.9-2.7-1.6-4
			c-2.4-4.5-1.9-6.8,2.5-9.2C386.6,347.9,389.4,348.8,390.9,353.1z"/>
		<path class="st4" d="M152.9,154.3c1.8,8.4,8.6,6.6,14.3,6.8c-0.4,2.5-0.8,4.6-1.1,6.8c-10,0.1-17.3-6.9-16.9-16.3
			C150.4,152.5,151.7,153.4,152.9,154.3z"/>
		<path class="st2" d="M200,407c2.3-4.3,4.7-8.7,7-13c-0.3,6.2-1.5,12.3,1.8,18.4c1.4,2.6-0.5,4.8-3.8,4.7c0,0-0.1-0.1-0.1-0.1
			c-1.7-2-3.3-4-5-6C199.9,409.6,199.9,408.3,200,407z"/>
		<path class="st1" d="M348,86c2.3,3.6,0.7,6.9-1.5,9.4c-2.5,2.8-6.8,1.5-10.6-2.2c-0.2-0.2-0.6-0.2-0.9-0.2
			C337.7,87.7,342.1,85.4,348,86z"/>
		<path class="st2" d="M48.9,284c-0.9-0.3-2.1-1-2.7-0.7c-4.2,2-7.5,0.3-10.6-2.4c0.8-1.4,1.5-2.8,2.3-4.2c0,2.4,0.7,3.9,3.6,3
			c5.8-1.9,2.7-5.6,1.2-10.4c3.5,1.6,5.8,2.6,8.2,3.7C50.2,276.6,49.6,280.3,48.9,284z"/>
		<path class="st6" d="M288.5,355.2c-0.2,3.8-1.8,6.5-4.9,8.9c-2.4,1.8-3.7,1.4-5.4-0.2c1.1-3.6,1.8-7.3,3.4-10.6
			c0.6-1.3,3.2-2,4.9-2.1C287,351.3,287.8,353.8,288.5,355.2z"/>
		<path class="st6" d="M219.2,288.2c-2.8-4.2-7.1-7.9-3.7-13.8c0.3-0.5-1.7-2.5-2.8-3.5c-2.3-2-2.3-3.5,0.5-4.9
			c2.4,2.6,4.8,5.2,7.2,7.8C220,278.6,219.6,283.4,219.2,288.2z"/>
		<path class="st6" d="M388.9,155.2c-4.9-0.5-5.6-4.5-6.5-8.2c-0.1-0.4-0.1-0.7-0.2-1.1c0-0.3,0-0.6,0-0.8c0,0,0,0,0,0
			c0.3-0.4,0.6-0.7,0.8-1.1c1.6-0.9,3.3-1.7,4.9-2.6c-0.9-1.2-1.7-2.5-2.9-3.4c-0.6-0.5-1.9,0-2.9,0c0-1,0-2.1-0.1-3.1
			c1.9-0.3,3.8-0.5,5.8-0.8c0,0,0.1-0.4,0.1-0.4c0.7,2.4,1.4,4.9,2.1,7.3C389.7,145.8,389.3,150.5,388.9,155.2z"/>
		<path class="st1" d="M268,164.9c-0.3-3.6-0.7-7.1-1-10.7c6.8-1.2,9.2-0.3,10,3.8C278.1,163.7,275.5,165.6,268,164.9z"/>
		<path class="st2" d="M129.1,279.8c0,0.5-0.1,1,0,1.5c1.3,6.9,1.3,6.9-5.5,8.4c1.2,1.5,2.3,2.8,3.4,4.2c-1.3,0-2.6,0-3.9,0
			c-1.5-2-3.1-4.1-5-6.6c3.6-2.7,7.2-5.5,10.8-8.2C129,279.2,129.1,279.5,129.1,279.8z"/>
		<path class="st7" d="M301.1,127.2c-1.3-4.3,0.5-10,3.6-11.2c2.8,0.5,6.8-0.7,7.3,3.4c0.5,4.1-3.2,5.3-6.4,6.4
			C304.2,126.3,302.7,126.8,301.1,127.2z"/>
		<path class="st1" d="M179,159.8c-7.5-4.9-2.1-11.5-1.8-17.8c2,2.7,3.9,5.4,5.9,8.1C181.7,153.3,180.3,156.6,179,159.8z"/>
		<path class="st1" d="M420,265c2.6-0.3,5.2-0.6,7.9-1c0,4.3-0.1,8.6-0.1,13c-3,0.3-5-0.8-5.9-4c-0.4-1.5-2-2.7-2.4-4.3
			C419.1,267.7,419.8,266.3,420,265z"/>
		<path class="st1" d="M306,96.8c-0.3,1.5-0.6,2.9-0.9,4.4c-4.1,0.3-4.4,3.3-4.4,6.4c-0.3-1.5-0.5-3-0.8-4.5c-1-3.1-2-6.2-3-9.3
			c0-0.6,0-1.2,0-1.9c2.2-2.3,4.1-3.3,6,0.4C303.6,94.1,304.9,95.4,306,96.8z"/>
		<path class="st1" d="M250.7,121c1.4,2,2.8,4,4.2,6.1c-0.1,1.3-0.1,2.7-0.2,4c-3.2,1.4-6.4,2.9-9.6,4.3c0.7-4.2,1.2-8.5,2.2-12.7
			C247.5,121.9,249.5,121.5,250.7,121z"/>
		<path class="st7" d="M348.9,408.1c-1.2-0.7-2.5-1.5-3.7-2.2c-0.7-0.4-1.4-1-2.2-1.4c-1.2-0.6-2.4-1.1-3.5-1.6
			c1.3-3.2,2.5-6.5,3.8-9.7c2.6,3.9,5.2,7.9,7.9,11.8C350.3,406,349.6,407,348.9,408.1z"/>
		<path class="st6" d="M329.7,419.9c3.7,1.4,7.4,2.7,11.1,4.1c-3.5,6.9-7.8,7.4-12.2,1.1C327.9,424.1,329.3,421.7,329.7,419.9z"/>
		<path class="st7" d="M331.5,100.8c2.9,0.5,5.8,0.9,8.7,1.4c-0.5,1.9-1,3.7-1.6,5.7c-1.7-0.3-3.1-0.5-4.9-0.8
			c-0.2,1.3-0.2,2.8-0.7,4c-0.4,0.9-1.4,1.5-2.2,2.3c-0.4-0.8-0.8-1.6-1.3-2.5C330.2,107.6,330.9,104.2,331.5,100.8z"/>
		<path class="st2" d="M207,154c-0.5,4.7,3.1,6.6,6.1,8.9c-4,0.6-8,1.2-12.1,1.9C199.8,159.4,202.8,156.4,207,154z"/>
		<path class="st6" d="M96.9,290.1c6.1-0.8,6.8-5.4,7.3-10.2c1.2,1.9,2.7,3.7,3.4,5.8c1.7,4.5-1.8,6.3-4.9,7.7
			C99.7,294.7,97.7,293.2,96.9,290.1z"/>
		<path class="st5" d="M263.1,154.1c-1.4,5.2-5.6,3.6-9.1,3.8c-1.4,0.2-2.9,0.3-5.6,0.7c1.3-2.3,2.2-4.2,3.3-5.9
			c1-1.6,2.2-3.1,3.4-4.7c0.4,1.7,0.7,3.5,1.2,5.6C258.4,153.8,260.8,154,263.1,154.1z"/>
		<path class="st7" d="M90,257.9c-1.7,3-4.3,4.3-7.2,2.1c-1.4-1.1-2.1-3.1-3.2-4.7c2.2-1.2,4.4-2.3,6.7-3.5
			C87.5,253.9,88.8,255.9,90,257.9z"/>
		<path class="st5" d="M335.9,365.1c1.5,0.7,2.9,1.4,4.4,2.1c0.9,1.5,1.8,3,2.7,4.4c1.3,4.2,2.6,8.3,4,12.5c-0.4,0.7-0.7,1.4-1.1,2
			C342.6,379.1,339.2,372.1,335.9,365.1z"/>
		<path class="st5" d="M440.4,280.9c0.6,1.2,1.4,2.4,1.8,3.7c0.5,1.7,0.2,3.8,1.2,5.2c0.8,1.1,2.8,1.8,4.3,1.7
			c1.1-0.1,2.5-1.4,3.2-2.5c0.9-1.5,1.3-3.3,1.9-5c0,0,0.3,0.1,0.3,0.1l0.3-0.1c0,0.7,0,1.5,0,2.2c0.1,0.8,0.1,1.6,0.2,2.5
			c-1.3,1.7-2.7,4.9-4,4.9c-2.7,0-6.7-1-7.9-2.9C440.1,288.1,440.7,284.2,440.4,280.9z"/>
		<path class="st7" d="M330,281c-1.5-0.5-3.1-1-4.1-1.3c0.2-3.6,0.4-6.9,0.7-11.1c1.2,0.1,3.2,0.2,5.3,0.4
			C331.2,273,330.6,277,330,281z"/>
		<path class="st5" d="M342.8,355.1c0.4-0.4,0.7-0.8,1.1-1.1c2.1,5.3,4,10.7,6.3,15.9c0.4,0.9,1.8,1.4,2.8,2.1
			c-0.1,0.3-0.2,0.6-0.2,0.9c-0.3,0.6-0.5,1.3-0.8,1.9c-1.5-1.1-3.4-2-4.5-3.4c-1.2-1.6-1.7-3.8-2.5-5.7
			C344.2,362.2,343.5,358.7,342.8,355.1z"/>
		<path class="st6" d="M299.9,144.9c-1.3,0.4-2.7,0.7-4,1.1c-1.1-0.2-2.2-0.3-3.8-0.6c0.8-1.7,1.4-3.1,2-4.5c0.7-1.3,1.3-2.6,2-3.8
			c1.6-1,3.1-2.1,4.7-3.1C300.6,137.6,300.2,141.3,299.9,144.9z"/>
		<path class="st3" d="M296.8,225c5,4.8,4.5,10.3-1.3,13.5c-0.5,0.3-0.9,1-1.3,1.4C295.1,235,295.9,230,296.8,225z"/>
		<path class="st1" d="M345.1,289c3.4-0.4,6.7-0.7,10.1-1.1c0,0,0.4,0,0.4,0l0.4-0.1c-0.9,2.1-1.2,4.8-2.7,6
			C349.8,296.6,345.5,293.8,345.1,289z"/>
		<path class="st7" d="M218.6,161.1c-1.6-0.1-3.2-0.2-5.6-0.3c1.5-1.3,2.4-2.1,3.5-3.1c-1.1-0.8-2.1-1.5-3.7-2.6
			c2.7-1.1,5-2.1,7.2-3c1,1.7,2,3.3,2.9,5C221.5,158.3,220,159.7,218.6,161.1z"/>
		<path class="st7" d="M152.9,154.3c-1.2-0.9-2.5-1.8-3.7-2.7c0.6-2.5,1.2-5.1,1.8-7.6c0,1.3-0.1,2.7,0.1,4c0.5,2.8,1.7,4.7,5.1,2.9
			c1.4-0.7,3.2-0.6,4.8-0.9c0.7,1.6,1.4,3.3,2.1,4.9C159.7,154.7,156.3,154.5,152.9,154.3z"/>
		<path class="st7" d="M351.9,374.9c0.3-0.6,0.5-1.3,0.8-1.9c0.8,1,2.4,2.3,2.1,3c-1.5,3.9-3.3,7.6-5.3,11.3
			c-0.2,0.4-2.4-0.2-3.7-0.3c0-0.3,0-0.6,0-0.8c0.4-0.7,0.7-1.4,1.1-2c1.8-2,3.7-3.8,5.2-5.9C352.6,377.4,352,376,351.9,374.9z"/>
		<path class="st7" d="M351.9,150.8c0.4,1.1,0.8,2.2,1.2,3.2c-4,1.4-8.1,2.7-12.1,4.1c0.4-2.4,0.7-4.8,1.1-7.2
			C345.5,154.1,348.7,152.3,351.9,150.8z"/>
		<path class="st5" d="M355.9,287.8l-0.4,0.1c0,0-0.4,0-0.4,0c-0.7-7.3-1.4-14.7-2.2-22c1,1,2.6,1.8,2.8,2.9c0.5,2.9,0.3,6,0.4,8.9
			C356.1,281.1,356,284.5,355.9,287.8z"/>
		<path class="st3" d="M361.2,394.9c-0.8,0.6-1.7,1.7-2.4,1.6c-1.8-0.2-3.6-0.7-5-1.7c-0.4-0.3,0.3-3.1,1.2-4c1.3-1.3,3.3-1.9,5-2.8
			C360.4,390.3,360.8,392.6,361.2,394.9z"/>
		<path class="st1" d="M453.3,284.1l-0.3,0.1c0,0-0.3-0.1-0.3-0.1c-0.5-1.4-0.6-3.1-1.4-4.1c-3.6-4.5-1.3-7.7,1.9-10.9
			c0.5,0.7,1,1.4,1.5,2C454.2,275.4,453.7,279.7,453.3,284.1z"/>
		<path class="st1" d="M354.1,130.5c-1.4,3.5-3.1,6.8-7.7,6.6C345.5,130.2,346.1,129.7,354.1,130.5z"/>
		<path class="st7" d="M296.9,92.1c0,0.6,0,1.2,0,1.9c-2.3,0.7-4.6,1.4-6.8,2.1c-0.6-2-1.1-4.1-1.7-6.1c1.5-0.5,3.1-1,4.6-1.5
			C294.3,89.6,295.6,90.8,296.9,92.1z"/>
		<path class="st2" d="M195.3,384c3.8-0.2,7.1,0.5,9.2,4.2c-5.4,4-5.6,3.9-7.6-1.8c-0.2-0.5-0.9-0.8-1.3-1.2
			c-0.1-0.2-0.3-0.5-0.3-0.7C195.2,384.3,195.2,384.1,195.3,384z"/>
		<path class="st7" d="M442.8,232C442.8,232,442.8,232.1,442.8,232c0-4.2-0.2-8.5,0.1-12.8c0.1-1.6,1.4-3.2,2.2-4.8
			C447,220.6,443.7,226.2,442.8,232z"/>
		<path class="st7" d="M164.9,411c1.9,2.5,1.5,4.3-1.3,5.7c-1,0.5-1.8,1.5-2.6,2.3c-1.3-1.4-2.7-2.8-4-4.1c1.7-1,3.4-2,5.1-3
			C163,411.6,164,411.3,164.9,411z"/>
		<path class="st2" d="M223,157c-1-1.7-2-3.3-2.9-5c0.7-1.3,1.3-2.6,2-3.9c1,0,1.9-0.1,2.9-0.1c0.7,1,1.4,2.1,2.2,3.1
			C225.8,153,224.4,155,223,157z"/>
		<path class="st1" d="M108.1,89.9c-2.6,0.2-4.5,5.6-7.8,1.3c-0.9-4.9,2.4-5,5.7-5C106.7,87.4,107.4,88.6,108.1,89.9z"/>
		<path class="st5" d="M164.9,411c-1,0.3-1.9,0.6-2.9,0.9c1.4-4.3,2.8-8.6,4.2-12.9c0,0,0.4,0,0.4,0l0.4,0c0.3,2,0.7,4,1,6.1
			C166.9,407,165.9,409,164.9,411z"/>
		<path class="st1" d="M235.8,255.2c-0.5-0.1-1-0.2-1.5-0.3c0.2-4.1,0.4-8.3,0.6-12.4c0.7,2.1,1.2,4.4,2.2,6.4
			C238.5,251.6,238,253.5,235.8,255.2z"/>
		<path class="st7" d="M147.7,401.8c-1,1.4-0.9,4.1-4,2.7c-0.7-0.3-2,1-3.1,1.5c-0.8-4.3-0.8-4.3,3.3-5c1.3-0.2,2.5-0.6,3.8-0.9
			C147.7,400.7,147.7,401.3,147.7,401.8z"/>
		<path class="st6" d="M167,399l-0.4,0c0,0-0.4,0-0.4,0c0.1-4.8,0.3-9.6,0.4-14.4c0.5,2.1,0.9,4.2,1.4,6.3
			C167.7,393.6,167.3,396.3,167,399z"/>
		<path class="st1" d="M199.9,410.9c1.7,2,3.3,4,5,6c-1.3-0.4-2.5-0.7-3.8-1.1c0,0-0.1,0-0.1,0c-0.3-0.7-0.6-1.4-0.8-2.1
			C200.1,412.8,200,411.9,199.9,410.9z"/>
		<path class="st1" d="M195.7,132.8c-0.2,2.7-0.4,5.4-0.5,8.1C195.4,138.2,195.6,135.5,195.7,132.8z"/>
		<path class="st1" d="M184.1,255c-0.4-1.3-0.8-2.6-1.3-3.8C183.2,252.4,183.6,253.7,184.1,255z"/>
		<path class="st1" d="M453.4,288.8c-0.1-0.8-0.1-1.6-0.2-2.5C453.3,287.1,453.4,287.9,453.4,288.8z"/>
		<path class="st1" d="M231.1,122c-0.1-0.4-0.1-0.7-0.2-1.1c0.1,0.2,0.3,0.5,0.3,0.7C231.3,121.8,231.1,121.9,231.1,122z"/>
		<path class="st1" d="M231.3,126.4c0-0.9,0-1.9,0-2.8C231.3,124.5,231.3,125.5,231.3,126.4z"/>
		<path class="st6" d="M200.2,413.8c0.3,0.7,0.6,1.4,0.8,2.1C200.8,415.2,200.5,414.5,200.2,413.8z"/>
		<path class="st5" d="M335.1,363c0.3,0.7,0.5,1.4,0.8,2.1C335.7,364.4,335.4,363.7,335.1,363z"/>
		<path class="st6" d="M434.9,404.8c-0.3,0.4-0.6,0.8-0.9,1.2C434.2,405.6,434.5,405.2,434.9,404.8z"/>
		<path class="st1" d="M229.8,387.8c-0.1-0.2-0.2-0.4-0.3-0.6c0.1-0.1,0.2-0.1,0.4-0.2C230,387.4,229.9,387.6,229.8,387.8z"/>
		<path class="st1" d="M375.9,148.9c0,0.5,0,0.9-0.1,1.4C375.9,149.8,375.9,149.4,375.9,148.9z"/>
		<path class="st0" d="M305.8,266c0-1,0.1-2,0.1-3c0.9-10.3,1.9-20.7,2.8-31c0.1-0.8-0.2-1.9,0.3-2.4c1.6-1.9,3.3-3.9,5.4-5
			c0.5-0.3,3.4,2.2,4,3.9c1.1,3.2,1.9,6.8,1.8,10.1c-0.2,13.1-0.8,26.3-1.3,39.4c-6.3,4.4-6.8,4.4-11.9-0.1
			C306.7,273.9,306.3,269.9,305.8,266z"/>
		<path class="st0" d="M364,251.1c-0.8,0.2-1.5,0.5-2.3,0.7c-4.1,1.4-5.2,0.5-4.9-3.9c0.1-1-0.1-1.9-0.2-2.9
			c0.1-5.7,0.3-11.3,0.4-17c0.9-0.5,1.9-1.5,2.5-1.3c9.1,2.6,12.4,13.2,6.7,20.7C365.4,248.5,364.8,249.8,364,251.1z"/>
		<path class="st3" d="M355,245c-2,1.7-4,3.3-6,5c-3-0.3-3.8-2.4-2.6-4.5c0.9-1.7,2.9-3.1,4.7-4.1c0.9-0.5,2.5,0.4,3.8,0.7
			C354.9,243.1,355,244,355,245z"/>
		<path class="st7" d="M355,245c-0.1-1-0.1-2-0.2-2.9c0.7-4.7,1.5-9.4,2.2-14.1c-0.1,5.7-0.3,11.3-0.4,17
			C356.1,245,355.6,245,355,245z"/>
		<path class="st0" d="M61,133c1.4-5.6,2.8-11.2,4.2-16.9c0.8,0.9,2,1.8,2.2,2.8c1,5.6,1.8,11.3,2.6,16.9c-2.9-0.2-5.9-0.5-8.8-0.7
			C61,134.5,61,133.8,61,133z"/>
		<path class="st1" d="M261.4,365.4c-1.1,8-2.2,16-3.3,24.1c-0.7,0-1.3-0.1-2-0.1c-1-5.1-3.3-10.3-2.7-15.2c0.4-3.6,4.7-6.7,7.2-10
			C260.9,364.6,261.2,365,261.4,365.4z"/>
		<path class="st1" d="M304,396c0-0.6,0-1.3-0.1-1.9c2.1-3.1,4.3-6.3,6.6-9.8c1.4,1.3,2.7,2.5,4.5,4.2
			C310.6,390.4,312,399.5,304,396z"/>
		<path class="st7" d="M411.1,162.9c4.8,0.6,4-2.5,3.6-5.3c-0.4-2.1-2.1-4.5,1.4-5.6c0.9,4.4,1.8,8.8,2.7,13.2
			C411.2,166.7,410.5,166.4,411.1,162.9z"/>
		<path class="st2" d="M453.2,258.2c-3.3-1.8-4.8-4.3-3.4-8.1c1.9,0.2,3.7,0.4,5.6,0.7c0.5,0.2,1,0.4,1.5,0.6c0.3,1.2,0.7,2.4,1,3.5
			C456.4,256,454.8,257.1,453.2,258.2z"/>
		<path class="st2" d="M290.1,96c2.3-0.7,4.6-1.4,6.8-2.1c1,3.1,2,6.2,3,9.3c-3.1,1.1-6.3,2.3-9.9,3.6
			C290.1,102.9,290.1,99.5,290.1,96z"/>
		<path class="st7" d="M296.2,137.1c-0.7,1.3-1.3,2.6-2,3.8c-1.3-0.7-2.7-1.3-4-2c1.3-2.4,2.7-4.8,4-7.1c0.5,0.2,1,0.4,1.5,0.6
			C295.8,134,296,135.5,296.2,137.1z"/>
		<path class="st4" d="M387.8,134.2c-1.9,0.3-3.8,0.5-5.8,0.8c-0.4-2-0.8-4-1.2-6c1.1-0.7,2.2-1.4,3.2-2.1
			C385.3,129.3,386.6,131.8,387.8,134.2z"/>
		<path class="st4" d="M382.1,138.1c1,0,2.2-0.4,2.9,0c1.2,0.9,1.9,2.2,2.9,3.4c-1.6,0.9-3.3,1.7-4.9,2.6c-0.2-0.2-0.5-0.3-0.8-0.3
			C382.1,141.9,382.1,140,382.1,138.1z"/>
		<path class="st1" d="M382.1,143.8c0.3,0,0.6,0.1,0.8,0.3c-0.3,0.4-0.6,0.7-0.8,1.1C382.1,144.6,382.1,144.2,382.1,143.8z"/>
		<path class="st1" d="M382.1,145.1c0,0.3,0,0.6,0,0.8c-0.2-0.1-0.4-0.3-0.7-0.4C381.7,145.4,381.9,145.2,382.1,145.1z"/>
		<path class="st0" d="M115,129.9c0.7,0.3,1.3,0.7,2,1c1.3,2,2.7,4,4,6c-0.2,4.1,0.2,8.3-0.7,12.2c-0.6,2.5-3,4.5-4.6,6.7
			c-0.6-0.2-1.2-0.4-1.8-0.6c0-7.5,0-14.9,0-22.4C114.3,131.9,114.7,130.9,115,129.9z"/>
		<path class="st2" d="M113.9,155.3c0.6,0.2,1.2,0.4,1.8,0.6c0.7,0.9,1.4,1.7,2.1,2.6c-1.7,0.5-3.4,1-5,1.5c-2.3-1.3-4.6-2.7-6.8-4
			c-0.3-0.3-0.6-0.6-0.9-0.9l-0.1-0.1c0.9-2.6,1.8-5.2,2.7-7.8C107.1,151.9,109.1,154.6,113.9,155.3z"/>
		<path class="st5" d="M106,155.9c2.3,1.3,4.6,2.7,6.8,4c-2.9,0.6-6.2,0.7-6,5c-1.5-0.9-3-1.8-4.8-2.9c2.5-1.8-2.4-6.3,3-7.1
			c0,0,0.1,0.1,0.1,0.1C105.4,155.3,105.7,155.6,106,155.9z"/>
		<path class="st0" d="M406.8,283.6c-5.8-5-5.4-11.9-5.9-18.5c0-5.7,0-11.4,0-17.1c0-1,0-2,0-3.1c0.4-3.1,1.1-6.1,1.1-9.2
			c0-5.1,2-8.4,7-9.7c4.5,0.6,5.3,4.3,5.8,7.6c0.9,5.5,1.1,11.1,1.7,16.7c-0.1,4.2-0.2,8.5-0.3,12.7c-0.2,2.1-0.5,4.1-0.7,6.2
			c-9.6,0.3-10.3,1.8-5,11.5C409.3,281.6,408,282.6,406.8,283.6z"/>
		<path class="st0" d="M457,251.3c-0.5-0.2-1-0.4-1.5-0.6c-0.2-5.3-0.5-10.5-0.7-15.8c0.6-2.9,1.2-5.8,2-9.1
			c3.1,1.2,5.6,2.2,8.2,3.2C469.5,238.7,466.1,248.4,457,251.3z"/>
		<path class="st0" d="M221.2,138.9c-2.2,4.1-3.9,8.6-6.7,12.1c-1.4,1.8-4.8,1.9-7.3,2.8c-0.1-10.6-0.2-21.2-0.3-31.8
			c0.4-7.7,0.7-15.5,1.1-23.2c5.3,0.6,6.2,5.2,7.9,9c1.6,3.6,2.9,7.3,4.4,11c0.5,5.2,1.1,10.5,1.6,15.7
			C221.6,136,221.4,137.5,221.2,138.9z"/>
		<path class="st5" d="M221.9,134.6c-0.5-5.2-1.1-10.5-1.6-15.7c1.5-0.2,3-0.4,4.6-0.7c-2,2.8-3.3,5.4-2.1,9.2
			C223.3,129.4,222.2,132.1,221.9,134.6z"/>
		<path class="st7" d="M400.9,244.9c0,1,0,2,0,3.1c-1.4,2.4-2.7,4.8-4.1,7.2c-0.6-1-1.6-1.9-1.8-2.9c-0.8-3.6-1.4-7.3-1.8-11
			c-0.1-1,0.5-2,0.8-3c1.3,0.4,3.1,0.4,3.9,1.2C399.2,241,399.9,243,400.9,244.9z"/>
		<path class="st5" d="M396.8,255.1c1.4-2.4,2.7-4.8,4.1-7.2c0,5.7,0,11.4,0,17.1c-0.6-0.1-1.2-0.1-1.8-0.2c-0.7-2.5-1.3-5-2-7.6
			C397,256.6,396.9,255.8,396.8,255.1z"/>
		<path class="st2" d="M254.9,97.1c-2.6-0.4-5.2-0.7-7.8-1.1c0.2-0.7,0.5-1.4,0.7-2.1c2.7,0,5.4,0,8.1,0l0,0
			C255.6,95,255.3,96.1,254.9,97.1z"/>
		<path class="st2" d="M256,94c0.1,0.1,0.3,0.2,0.4,0.2C256.3,94.2,256.1,94.1,256,94C256,94,256,94,256,94z"/>
		<path class="st6" d="M113.9,155.3c-4.8-0.6-6.9-3.4-6.2-8.2c0.4-1.6,0.9-3.3,1.3-4.9c1.1-2.1,2.1-4.2,3.2-6.2
			c0.6-1,1.1-2.1,1.7-3.1C114,140.4,114,147.8,113.9,155.3z"/>
		<path class="st7" d="M111.1,116.9c-1.1,0.4-2.2,0.8-3.3,1.2c-2.3-6.7-4.6-13.4-6.9-20.1c3-0.3,4.6,0.5,5.3,4.1
			c0.9,4.4,3.1,8.6,4.7,12.9C111,115.7,111.1,116.3,111.1,116.9z"/>
		<path class="st1" d="M114,132.9c-0.6,1-1.1,2.1-1.7,3.1c-1.3-2.7-2.9-5.3-3.8-8.1c-0.4-1.4,0.4-3.2,0.7-4.8c2.8-0.3,5.6-0.6,9.3-1
			c-1.4,3.2-2.4,5.5-3.5,7.8C114.7,130.9,114.3,131.9,114,132.9z"/>
		<path class="st1" d="M146,382.1c-1.1,3.4-2.3,6.8-3.4,10.2c-0.8,0-1.6,0-2.4,0c-1.1-3.4-2.1-6.9-3.2-10.3
			C140,382,143,382,146,382.1z"/>
		<path class="st6" d="M61,133c0,0.7,0.1,1.4,0.1,2.2c-0.3,0-0.6,0-0.9-0.1C60.5,134.4,60.7,133.7,61,133z"/>
		<path class="st0" d="M111.1,116.9c-0.1-0.6-0.1-1.3-0.2-1.9c0.6-5.8,1.3-11.6,1.9-17.4c1.6,1.8,3.3,3.5,4.9,5.3
			c-0.2,2.7-0.4,5.4-0.6,8.1C116.4,114.2,114.9,116.7,111.1,116.9z"/>
		<path class="st7" d="M33,412c1.7-2.1,3.1-4.7,5.2-6.2c1.1-0.8,3.6,0.2,5.4,0.4c-2.6,2.5-5.2,5-8,7.3C35.3,413.8,33.9,412.6,33,412
			z"/>
		<path class="st7" d="M167,399c0.4-2.7,0.7-5.4,1.1-8.1c1.7-0.4,3.5-0.7,5.6-1.2c0.3,3.9,0.8,7.9,0.9,11.9c0,0.8-1.7,1.6-2.5,2.4
			c-1.4,0.4-2.7,0.7-4.1,1.1C167.6,403,167.3,401,167,399z"/>
		<path class="st6" d="M342.8,355.1c0.7,3.5,1.4,7.1,2.1,10.6c-0.6,1.9-1.3,3.9-1.9,5.8c-0.9-1.5-1.8-3-2.7-4.4
			C340.4,363,338.7,358.4,342.8,355.1z"/>
		<path class="st2" d="M343,371.6c0.6-1.9,1.3-3.9,1.9-5.8c0.8,1.9,1.3,4.1,2.5,5.7c1.1,1.5,3,2.3,4.5,3.4c0.1,1.1,0.7,2.6,0.3,3.2
			c-1.5,2.1-3.4,4-5.2,5.9C345.6,379.9,344.3,375.7,343,371.6z"/>
		<path class="st7" d="M106,155.9c-0.3-0.3-0.6-0.6-0.9-0.9C105.4,155.3,105.7,155.6,106,155.9z"/>
	</g>
</g>
</svg>
