<?xml version="1.0" ?>
<svg xmlns="http://www.w3.org/2000/svg" version="1.1" width="600" height="600">
  <defs/>
  <g>
    <path d="M 139.6600341796875 79.85956573486328 C 137.88412475585938 57.373634338378906 144.2146759033203 76.83250427246094 134.0725860595703 63.69525909423828 C 115.27702331542969 49.50221633911133 99.10798645019531 68.69577026367188 84.77122497558594 81.22017669677734 C 91.73963928222656 85.00732421875 77.60681915283203 76.93989562988281 94.77030181884766 72.69652557373047 C 103.8631591796875 96.40058898925781 97.08777618408203 112.48648071289062 71.73603820800781 120.96597290039062" stroke-width="6.0" fill="none" stroke="rgb(0, 0, 0)" stroke-opacity="0.115067184" stroke-linecap="round" stroke-linejoin="round"/>
    <path d="M 573.1631469726562 452.4616394042969 C 530.7257690429688 424.5352783203125 457.0923156738281 430.888427734375 449.50634765625 442.17938232421875 C 574.6809692382812 423.4977722167969 535.1110229492188 443.71270751953125 551.640869140625 395.5707092285156 C 486.79736328125 417.5547790527344 485.20281982421875 425.26666259765625 539.8675537109375 455.1972961425781 C 589.3355102539062 449.2924499511719 527.3778686523438 396.4179382324219 464.02838134765625 435.2816162109375" stroke-width="6.0" fill="none" stroke="rgb(0, 0, 0)" stroke-opacity="1.0" stroke-linecap="round" stroke-linejoin="round"/>
    <path d="M 454.6894836425781 100.76504516601562 C 435.9292297363281 111.21988677978516 463.567138671875 100.11776733398438 452.81597900390625 135.3006591796875 C 432.12274169921875 145.5168914794922 425.5943603515625 123.02571868896484 428.7331848144531 98.16243743896484 C 424.94927978515625 118.62456512451172 430.9958801269531 105.54070281982422 451.0533447265625 114.51651763916016 C 432.92523193359375 113.88819122314453 460.8441162109375 97.43860626220703 437.0694580078125 119.26034545898438" stroke-width="6.0" fill="none" stroke="rgb(0, 0, 0)" stroke-opacity="0.0" stroke-linecap="round" stroke-linejoin="round"/>
    <path d="M 216.3546142578125 473.26123046875 C 191.29786682128906 331.6496887207031 210.68533325195312 366.9407043457031 215.521728515625 445.076171875 C 189.7002716064453 379.5541687011719 177.066162109375 429.06121826171875 202.89874267578125 498.01324462890625 C 171.7266387939453 488.45587158203125 174.54762268066406 476.0057373046875 188.1781463623047 495.0503845214844 C 214.19863891601562 451.9726257324219 175.78961181640625 496.8362731933594 259.342041015625 491.0076599121094" stroke-width="6.0" fill="none" stroke="rgb(0, 0, 0)" stroke-opacity="0.9795508" stroke-linecap="round" stroke-linejoin="round"/>
    <path d="M 160.76348876953125 306.27813720703125 C 139.04296875 315.92108154296875 75.48158264160156 280.85552978515625 128.66220092773438 305.6070251464844 C 134.59580993652344 240.6131591796875 220.5821533203125 256.28570556640625 171.62725830078125 340.50067138671875 C 164.55604553222656 317.2447814941406 76.27886962890625 321.54168701171875 74.53882598876953 277.76806640625 C 73.37751770019531 280.7377014160156 82.37769317626953 323.23358154296875 162.1755828857422 320.3252868652344" stroke-width="6.0" fill="none" stroke="rgb(0, 0, 0)" stroke-opacity="1.0" stroke-linecap="round" stroke-linejoin="round"/>
    <path d="M 1.6845391988754272 517.7919921875 C 28.380069732666016 494.34271240234375 48.25715637207031 481.1935729980469 43.598575592041016 486.9123840332031 C 58.108829498291016 500.6659851074219 42.07966995239258 504.8314208984375 42.49540710449219 505.7308654785156 C 68.28501892089844 481.5843200683594 40.92070007324219 507.1095886230469 29.798173904418945 517.0465698242188 C 5.786131381988525 535.397216796875 -8.287132263183594 551.3802490234375 -20.61754035949707 564.59765625" stroke-width="6.0" fill="none" stroke="rgb(0, 0, 0)" stroke-opacity="0.9888012" stroke-linecap="round" stroke-linejoin="round"/>
    <path d="M 428.3633117675781 311.48040771484375 C 432.8103942871094 341.1534118652344 406.5118103027344 318.71124267578125 375.24395751953125 286.5478820800781 C 451.29803466796875 306.9128112792969 465.771484375 291.5988464355469 468.00091552734375 303.3271179199219 C 399.10028076171875 318.7348937988281 428.36761474609375 261.64910888671875 473.883544921875 300.3241882324219 C 491.40057373046875 310.2978210449219 493.96697998046875 279.71356201171875 536.5130615234375 333.3164367675781" stroke-width="6.0" fill="none" stroke="rgb(0, 0, 0)" stroke-opacity="1.0" stroke-linecap="round" stroke-linejoin="round"/>
    <path d="M 342.93536376953125 8.602248191833496 C 343.9168701171875 45.50988006591797 371.9324035644531 49.95527648925781 367.510986328125 22.80837059020996 C 415.47064208984375 54.923919677734375 391.175537109375 53.73041534423828 360.76904296875 27.582046508789062 C 343.7078857421875 29.57757568359375 317.77886962890625 -8.078187942504883 328.9522399902344 -27.533164978027344 C 341.9617614746094 -20.68351936340332 320.10906982421875 -32.0594367980957 321.5186767578125 -27.032129287719727" stroke-width="6.0" fill="none" stroke="rgb(0, 0, 0)" stroke-opacity="0.0" stroke-linecap="round" stroke-linejoin="round"/>
    <path d="M 465.134033203125 61.4287223815918 C 472.9358215332031 81.56260681152344 455.0673522949219 76.26081085205078 467.46490478515625 37.19924545288086 C 468.8095703125 81.81373596191406 476.72833251953125 104.0593490600586 486.6761779785156 116.06737518310547 C 483.2958984375 83.01959991455078 459.7496337890625 68.72928619384766 465.5726013183594 75.10555267333984 C 493.3229064941406 75.24449157714844 501.9501647949219 77.14761352539062 468.0712890625 80.83119201660156" stroke-width="6.0" fill="none" stroke="rgb(0, 0, 0)" stroke-opacity="0.026496625" stroke-linecap="round" stroke-linejoin="round"/>
    <path d="M 110.27904510498047 51.224552154541016 C 128.11505126953125 31.031526565551758 125.16747283935547 65.58256530761719 94.8237533569336 69.47431945800781 C 65.00827026367188 34.988380432128906 46.184356689453125 26.627092361450195 41.7804069519043 17.106657028198242 C 98.00212860107422 20.474693298339844 83.97889709472656 -5.071600914001465 40.683170318603516 45.740291595458984 C 33.72773361206055 15.419292449951172 33.469051361083984 19.498517990112305 40.06744384765625 51.254859924316406" stroke-width="6.0" fill="none" stroke="rgb(0, 0, 0)" stroke-opacity="0.0" stroke-linecap="round" stroke-linejoin="round"/>
    <path d="M 509.2743835449219 46.528587341308594 C 525.6094970703125 19.60375213623047 494.26324462890625 54.382328033447266 494.2643127441406 72.25765228271484 C 481.3159484863281 74.99365997314453 417.9742431640625 96.19071960449219 423.1746520996094 76.35977172851562 C 437.1076354980469 82.45791625976562 433.1805725097656 84.39509582519531 412.394775390625 88.56989288330078 C 447.539306640625 71.47038269042969 424.0688781738281 79.18367767333984 433.7542724609375 80.57392883300781" stroke-width="6.0" fill="none" stroke="rgb(0, 0, 0)" stroke-opacity="0.0" stroke-linecap="round" stroke-linejoin="round"/>
    <path d="M 508.8322448730469 235.8919677734375 C 511.7052917480469 225.9340362548828 545.5420532226562 206.5229034423828 550.7743530273438 211.7998504638672 C 521.2386474609375 215.29080200195312 513.803466796875 252.33026123046875 521.9296264648438 247.23321533203125 C 524.0698852539062 227.14862060546875 524.9598999023438 259.6257019042969 476.9886474609375 259.423583984375 C 464.7206115722656 284.0570068359375 521.5742797851562 282.6654357910156 515.1251220703125 308.2930603027344" stroke-width="6.0" fill="none" stroke="rgb(0, 0, 0)" stroke-opacity="0.0" stroke-linecap="round" stroke-linejoin="round"/>
    <path d="M 407.29669189453125 397.2761535644531 C 492.6829528808594 375.26263427734375 497.6530456542969 391.8728332519531 467.09771728515625 457.6263122558594 C 445.7594909667969 446.7696533203125 476.7074279785156 435.90545654296875 419.00933837890625 444.944091796875 C 453.8385009765625 557.7947387695312 491.8035888671875 531.4925537109375 444.9839782714844 464.36688232421875 C 427.03326416015625 483.45233154296875 451.238037109375 500.026123046875 451.714599609375 461.2124328613281" stroke-width="6.0" fill="none" stroke="rgb(0, 0, 0)" stroke-opacity="0.0" stroke-linecap="round" stroke-linejoin="round"/>
    <path d="M 565.9832153320312 43.362613677978516 C 523.1500854492188 67.91895294189453 548.9492797851562 87.5124282836914 576.4199829101562 100.58483123779297 C 580.38330078125 56.786197662353516 558.4749755859375 57.961734771728516 565.7565307617188 55.194400787353516 C 562.3605346679688 8.646285057067871 596.9322509765625 18.344928741455078 628.3785400390625 7.125287055969238 C 624.0643310546875 20.361085891723633 622.574462890625 9.277920722961426 618.8889770507812 -16.943105697631836" stroke-width="6.0" fill="none" stroke="rgb(0, 0, 0)" stroke-opacity="0.0991715" stroke-linecap="round" stroke-linejoin="round"/>
    <path d="M 548.154052734375 487.05120849609375 C 540.86962890625 541.5210571289062 526.2433471679688 523.4775390625 475.4134826660156 519.2656860351562 C 490.4883117675781 504.0719909667969 523.9303588867188 518.19677734375 530.4713134765625 541.5866088867188 C 549.239013671875 483.2898254394531 553.6822509765625 506.2316589355469 565.1168212890625 504.64215087890625 C 591.5347900390625 528.6019897460938 575.4141235351562 499.53179931640625 587.1915893554688 509.7982482910156" stroke-width="6.0" fill="none" stroke="rgb(0, 0, 0)" stroke-opacity="0.0" stroke-linecap="round" stroke-linejoin="round"/>
    <path d="M 35.08546447753906 305.20166015625 C 9.136504173278809 316.93792724609375 -9.0082368850708 329.8046569824219 7.029649257659912 332.1545715332031 C -62.806217193603516 333.65716552734375 -85.29889678955078 346.4208984375 -97.88749694824219 348.08721923828125 C -48.08766174316406 338.8980712890625 -67.5051040649414 349.6314392089844 -69.9781723022461 354.15338134765625 C -83.85137939453125 371.330810546875 -97.44124603271484 347.5850830078125 -69.26449584960938 354.5498352050781" stroke-width="6.0" fill="none" stroke="rgb(0, 0, 0)" stroke-opacity="1.0" stroke-linecap="round" stroke-linejoin="round"/>
    <path d="M 161.268310546875 366.2056884765625 C 152.29360961914062 393.2655334472656 184.85194396972656 461.888916015625 141.64605712890625 429.2964782714844 C 89.86494445800781 412.0831298828125 118.12812805175781 322.5504455566406 68.34134674072266 328.050048828125 C 45.829708099365234 336.4156799316406 -1.9966609477996826 333.797119140625 22.47106170654297 371.8426818847656 C 50.37815475463867 353.335693359375 14.093706130981445 410.34552001953125 14.930252075195312 437.8723449707031" stroke-width="6.0" fill="none" stroke="rgb(0, 0, 0)" stroke-opacity="1.0" stroke-linecap="round" stroke-linejoin="round"/>
    <path d="M 312.2674560546875 542.045166015625 C 364.7917785644531 530.4111328125 338.22802734375 523.0526733398438 332.0970153808594 525.6078491210938 C 344.9760437011719 572.027587890625 362.654052734375 562.1100463867188 357.59283447265625 570.1200561523438 C 334.8992614746094 552.5022583007812 335.3295593261719 613.587890625 310.0135498046875 612.7880859375 C 345.2764892578125 554.5888671875 327.7528076171875 522.6969604492188 340.635009765625 507.1524658203125" stroke-width="6.0" fill="none" stroke="rgb(0, 0, 0)" stroke-opacity="0.0" stroke-linecap="round" stroke-linejoin="round"/>
    <path d="M 421.58795166015625 434.875732421875 C 550.595947265625 412.35662841796875 516.9815673828125 451.6903991699219 407.58428955078125 443.47344970703125 C 391.2486267089844 412.0845031738281 406.45977783203125 461.3702392578125 388.5276794433594 463.4188232421875 C 367.33197021484375 494.5583801269531 399.90411376953125 483.79559326171875 447.6067810058594 480.27685546875 C 459.60015869140625 491.3398132324219 473.21173095703125 510.0100402832031 513.5792846679688 568.6873168945312" stroke-width="6.0" fill="none" stroke="rgb(0, 0, 0)" stroke-opacity="0.9938169" stroke-linecap="round" stroke-linejoin="round"/>
    <path d="M 40.2364501953125 302.9510192871094 C 31.83860206604004 265.97900390625 27.847328186035156 274.8705749511719 29.8625545501709 274.49578857421875 C 120.01893615722656 256.022216796875 89.8659439086914 288.931640625 63.45302963256836 257.139404296875 C -9.33340072631836 280.5555419921875 -11.51476001739502 228.8087615966797 17.542911529541016 314.4554138183594 C 28.734895706176758 313.6127014160156 28.466110229492188 294.15496826171875 107.56944274902344 298.118896484375" stroke-width="6.0" fill="none" stroke="rgb(0, 0, 0)" stroke-opacity="1.0" stroke-linecap="round" stroke-linejoin="round"/>
    <path d="M 245.55528259277344 328.8562316894531 C 268.6079406738281 328.8079528808594 228.705810546875 293.2681884765625 208.9012451171875 302.1692199707031 C 225.76307678222656 356.2424621582031 260.3813171386719 344.27130126953125 279.002685546875 375.9471740722656 C 249.05813598632812 421.40252685546875 252.198486328125 398.0723876953125 190.59323120117188 387.34271240234375 C 184.04757690429688 363.2522888183594 216.9472198486328 365.0116882324219 176.15957641601562 370.37567138671875" stroke-width="6.0" fill="none" stroke="rgb(0, 0, 0)" stroke-opacity="0.96893704" stroke-linecap="round" stroke-linejoin="round"/>
    <path d="M 537.5259399414062 390.599853515625 C 563.0769653320312 380.547607421875 565.9669799804688 368.1225280761719 557.2304077148438 381.80084228515625 C 615.7899169921875 398.19451904296875 638.5325317382812 414.1507873535156 683.83203125 395.8267517089844 C 599.6820068359375 418.3247985839844 614.7465209960938 407.5998840332031 614.6867065429688 419.8687438964844 C 600.56494140625 404.5864562988281 619.743896484375 432.08416748046875 605.7191772460938 435.978515625" stroke-width="6.0" fill="none" stroke="rgb(0, 0, 0)" stroke-opacity="1.0" stroke-linecap="round" stroke-linejoin="round"/>
    <path d="M 317.8561096191406 568.5481567382812 C 332.48577880859375 582.45947265625 348.8372802734375 583.6380615234375 365.6866760253906 573.6740112304688 C 352.9972229003906 627.3856811523438 371.99700927734375 592.6966552734375 352.8636169433594 575.0894775390625 C 383.3856201171875 577.7493286132812 399.5514831542969 583.1665649414062 388.64959716796875 545.3775634765625 C 386.52734375 590.7689208984375 372.15673828125 577.5913696289062 352.54638671875 579.8360595703125" stroke-width="6.0" fill="none" stroke="rgb(0, 0, 0)" stroke-opacity="0.0" stroke-linecap="round" stroke-linejoin="round"/>
    <path d="M 282.2479248046875 461.3410949707031 C 397.0934753417969 472.38671875 423.4153747558594 464.85308837890625 290.53173828125 452.5359191894531 C 311.18304443359375 437.7507629394531 388.7926025390625 453.0581970214844 373.9297180175781 477.4543762207031 C 330.15875244140625 462.6041564941406 388.6568908691406 423.8247985839844 449.9414367675781 445.4515075683594 C 505.8610534667969 406.2479248046875 461.5577697753906 377.0881042480469 376.9417724609375 313.3167419433594" stroke-width="6.0" fill="none" stroke="rgb(0, 0, 0)" stroke-opacity="0.9793214" stroke-linecap="round" stroke-linejoin="round"/>
    <path d="M 20.507762908935547 127.728515625 C 35.927162170410156 123.42432403564453 -16.114540100097656 111.87065887451172 -18.603578567504883 99.26754760742188 C -17.312110900878906 148.48106384277344 -5.282142162322998 153.5257568359375 -13.996969223022461 173.23626708984375 C -12.664999008178711 189.47303771972656 -0.5143411159515381 193.47239685058594 -14.886712074279785 198.3839569091797 C -40.34105682373047 213.2001190185547 -18.79763412475586 194.9854278564453 -9.292640686035156 209.2595672607422" stroke-width="6.0" fill="none" stroke="rgb(0, 0, 0)" stroke-opacity="0.12262443" stroke-linecap="round" stroke-linejoin="round"/>
    <path d="M 175.10916137695312 405.9400634765625 C 228.08201599121094 471.91595458984375 183.0260009765625 486.9359436035156 214.72732543945312 498.27032470703125 C 244.44451904296875 426.3580627441406 166.61363220214844 481.7326965332031 232.18148803710938 496.0086364746094 C 209.7772979736328 435.2705078125 215.59022521972656 362.92266845703125 193.08056640625 418.68353271484375 C 166.13189697265625 399.7317199707031 186.54135131835938 304.09088134765625 190.66500854492188 395.30560302734375" stroke-width="6.0" fill="none" stroke="rgb(0, 0, 0)" stroke-opacity="0.97898084" stroke-linecap="round" stroke-linejoin="round"/>
    <path d="M 460.6048889160156 196.0792999267578 C 436.3087463378906 218.20286560058594 481.0185546875 218.3321990966797 487.8409423828125 195.71351623535156 C 502.3272399902344 169.977783203125 475.42816162109375 151.70718383789062 470.2745666503906 125.4195327758789 C 509.5744934082031 151.42013549804688 503.2762451171875 179.49334716796875 495.7992858886719 191.8890838623047 C 493.803466796875 140.81378173828125 519.223388671875 159.26942443847656 534.3779907226562 135.15689086914062" stroke-width="6.0" fill="none" stroke="rgb(0, 0, 0)" stroke-opacity="0.008732326" stroke-linecap="round" stroke-linejoin="round"/>
    <path d="M 94.60070037841797 462.6289978027344 C 56.62884521484375 506.34808349609375 66.13676452636719 490.70892333984375 170.6702117919922 535.7303466796875 C 218.23582458496094 492.8340148925781 195.20545959472656 495.94366455078125 182.801513671875 498.03717041015625 C 164.20928955078125 476.5599365234375 196.6181640625 509.95318603515625 185.50289916992188 484.73504638671875 C 198.90023803710938 408.6568298339844 213.86329650878906 403.1032409667969 219.74172973632812 435.5627746582031" stroke-width="6.0" fill="none" stroke="rgb(0, 0, 0)" stroke-opacity="0.0" stroke-linecap="round" stroke-linejoin="round"/>
    <path d="M 100.22402954101562 304.3151550292969 C 8.441383361816406 291.109130859375 63.45622253417969 313.9091491699219 155.1459503173828 358.85540771484375 C 172.64340209960938 369.7728576660156 145.177734375 349.91217041015625 170.80418395996094 378.6283874511719 C 167.3235321044922 347.36676025390625 201.64865112304688 329.02069091796875 201.10482788085938 384.80328369140625 C 193.6808624267578 393.633056640625 218.33560180664062 362.6984558105469 170.84925842285156 364.67474365234375" stroke-width="6.0" fill="none" stroke="rgb(0, 0, 0)" stroke-opacity="1.0" stroke-linecap="round" stroke-linejoin="round"/>
    <path d="M 85.96581268310547 189.5635986328125 C 88.56226348876953 188.36386108398438 83.73289489746094 213.1161346435547 76.03744506835938 175.94290161132812 C 77.83195495605469 190.255859375 102.0346450805664 196.79579162597656 149.18511962890625 219.1162872314453 C 131.2239532470703 218.74029541015625 134.9011993408203 202.20999145507812 102.16094207763672 197.87890625 C 140.32908630371094 218.85040283203125 137.41888427734375 219.664794921875 129.68572998046875 250.0758056640625" stroke-width="6.0" fill="none" stroke="rgb(0, 0, 0)" stroke-opacity="0.0" stroke-linecap="round" stroke-linejoin="round"/>
    <path d="M 555.6237182617188 462.01605224609375 C 605.1597900390625 489.7279968261719 598.0069580078125 490.17950439453125 622.3577880859375 513.8869018554688 C 605.073486328125 511.8230285644531 624.5103759765625 485.6993408203125 639.2041625976562 498.47613525390625 C 636.932373046875 495.36798095703125 647.6408081054688 487.12579345703125 670.5255126953125 512.3255004882812 C 656.263427734375 502.10369873046875 634.6793823242188 482.8717956542969 639.0194091796875 468.6380310058594" stroke-width="6.0" fill="none" stroke="rgb(0, 0, 0)" stroke-opacity="1.0" stroke-linecap="round" stroke-linejoin="round"/>
    <path d="M 301.7529602050781 496.2544860839844 C 295.2013244628906 498.853271484375 364.6549072265625 487.00262451171875 355.6689758300781 483.1701965332031 C 307.8691101074219 526.305908203125 326.41497802734375 547.3278198242188 321.8407897949219 564.9583129882812 C 325.13836669921875 560.5271606445312 327.158447265625 632.3577270507812 330.22467041015625 638.8140258789062 C 272.1280517578125 602.437744140625 278.5623779296875 606.42138671875 286.46661376953125 628.8910522460938" stroke-width="6.0" fill="none" stroke="rgb(0, 0, 0)" stroke-opacity="0.0" stroke-linecap="round" stroke-linejoin="round"/>
    <path d="M 393.69805908203125 -6.459819316864014 C 402.81207275390625 -21.439851760864258 406.44354248046875 -19.48240852355957 368.41680908203125 -45.17912292480469 C 323.74139404296875 -0.3774220645427704 321.0522766113281 0.4086788594722748 334.9627685546875 -18.77422332763672 C 351.2452392578125 -21.225444793701172 369.21649169921875 -49.23957061767578 402.2681579589844 -69.1650619506836 C 419.9353942871094 -54.38713836669922 447.0030517578125 -47.22697830200195 422.85150146484375 -18.731088638305664" stroke-width="6.0" fill="none" stroke="rgb(0, 0, 0)" stroke-opacity="0.0" stroke-linecap="round" stroke-linejoin="round"/>
    <path d="M 425.1466369628906 167.85153198242188 C 413.6149597167969 144.26524353027344 420.3242492675781 118.0164794921875 452.95892333984375 87.55118560791016 C 490.7385559082031 103.69544982910156 466.7891540527344 157.33349609375 497.59490966796875 176.31349182128906 C 464.9645690917969 190.67298889160156 480.6842956542969 206.44540405273438 480.09014892578125 145.28909301757812 C 481.96441650390625 146.86727905273438 479.37945556640625 169.66616821289062 479.1134338378906 178.3123321533203" stroke-width="6.0" fill="none" stroke="rgb(0, 0, 0)" stroke-opacity="0.5036159" stroke-linecap="round" stroke-linejoin="round"/>
    <path d="M 57.94688415527344 306.3447570800781 C 23.270296096801758 310.232421875 1.7985774278640747 303.8694152832031 8.613822937011719 304.8311462402344 C 28.278226852416992 324.796142578125 51.24129867553711 363.61639404296875 48.621700286865234 419.7502746582031 C 67.60450744628906 405.06298828125 86.95140075683594 391.6496887207031 87.81459045410156 447.9078063964844 C 60.94584274291992 396.5950622558594 -1.780523419380188 407.59185791015625 34.72464370727539 461.94049072265625" stroke-width="6.0" fill="none" stroke="rgb(0, 0, 0)" stroke-opacity="0.0" stroke-linecap="round" stroke-linejoin="round"/>
    <path d="M 202.89776611328125 475.021240234375 C 238.65554809570312 487.8885803222656 301.63470458984375 504.9762878417969 311.2478942871094 478.5299987792969 C 282.19073486328125 444.1191711425781 381.41912841796875 474.6604309082031 417.85467529296875 452.4031066894531 C 370.6993408203125 409.9864807128906 328.6199645996094 400.4847106933594 310.0382080078125 446.17083740234375 C 374.5776672363281 433.0467224121094 383.0279846191406 428.100341796875 312.7967224121094 446.7816162109375" stroke-width="6.0" fill="none" stroke="rgb(0, 0, 0)" stroke-opacity="0.99358916" stroke-linecap="round" stroke-linejoin="round"/>
    <path d="M 448.0184326171875 435.48388671875 C 350.6781921386719 412.04766845703125 344.602294921875 440.45477294921875 414.76409912109375 451.1717224121094 C 449.1212158203125 424.34100341796875 356.1524353027344 426.69549560546875 323.3701477050781 425.23541259765625 C 393.4351501464844 407.41485595703125 435.92987060546875 440.09356689453125 508.48773193359375 419.3873291015625 C 566.851806640625 391.6207275390625 552.97314453125 372.91046142578125 450.96417236328125 323.52044677734375" stroke-width="6.0" fill="none" stroke="rgb(0, 0, 0)" stroke-opacity="1.0" stroke-linecap="round" stroke-linejoin="round"/>
    <path d="M 559.690673828125 390.6777038574219 C 532.5473022460938 402.4795227050781 513.2305297851562 452.025390625 448.2685241699219 432.2513427734375 C 394.1575012207031 443.7099609375 440.5711364746094 410.6982421875 472.28582763671875 431.6992492675781 C 514.7780151367188 401.09124755859375 513.69287109375 415.3561096191406 592.794921875 451.7254333496094 C 558.762451171875 468.7788391113281 554.9273681640625 469.7109375 465.2770080566406 479.9112854003906" stroke-width="6.0" fill="none" stroke="rgb(0, 0, 0)" stroke-opacity="1.0" stroke-linecap="round" stroke-linejoin="round"/>
    <path d="M 447.9469299316406 477.3715515136719 C 469.73736572265625 495.64019775390625 457.006103515625 515.3932495117188 463.5356750488281 509.42926025390625 C 417.6456604003906 499.7314147949219 423.6147155761719 484.6359558105469 420.536376953125 518.419189453125 C 407.153076171875 473.8802795410156 407.137939453125 465.4951171875 424.3848571777344 496.1355285644531 C 442.1820983886719 533.6204223632812 428.7782897949219 533.439697265625 410.60968017578125 489.1446228027344" stroke-width="6.0" fill="none" stroke="rgb(0, 0, 0)" stroke-opacity="0.0" stroke-linecap="round" stroke-linejoin="round"/>
    <path d="M 329.6513977050781 300.0179138183594 C 179.75169372558594 260.3946228027344 220.80404663085938 321.65399169921875 311.3883056640625 337.8762512207031 C 386.841552734375 345.2955017089844 260.0172119140625 326.9659118652344 209.57781982421875 330.56671142578125 C 225.19813537597656 309.2862243652344 273.896240234375 338.20849609375 442.4152526855469 319.7970275878906 C 379.7414245605469 292.73956298828125 309.2325439453125 316.2370910644531 220.16668701171875 271.9300842285156" stroke-width="6.0" fill="none" stroke="rgb(0, 0, 0)" stroke-opacity="1.0" stroke-linecap="round" stroke-linejoin="round"/>
    <path d="M 534.0689086914062 455.357666015625 C 460.94769287109375 412.0348815917969 417.9754638671875 460.61285400390625 352.5320129394531 451.7476501464844 C 408.8781433105469 432.2121887207031 374.688232421875 400.85546875 358.5014953613281 444.275634765625 C 393.14801025390625 464.2554016113281 425.7869873046875 402.5016784667969 390.932861328125 421.2883605957031 C 348.46405029296875 407.7578430175781 370.6251220703125 399.5807800292969 360.9267272949219 403.5108642578125" stroke-width="6.0" fill="none" stroke="rgb(0, 0, 0)" stroke-opacity="0.00387412" stroke-linecap="round" stroke-linejoin="round"/>
    <path d="M 376.8528747558594 505.7926025390625 C 392.8454895019531 551.16162109375 405.4488830566406 574.1342163085938 415.1199035644531 610.7366333007812 C 284.7410888671875 617.6161499023438 291.81463623046875 629.6930541992188 275.8131408691406 643.2276000976562 C 295.7767333984375 643.7078247070312 307.560791015625 652.2080688476562 334.6780700683594 662.8092041015625 C 337.0037536621094 636.046630859375 325.95355224609375 630.6719970703125 345.08184814453125 616.2357177734375" stroke-width="6.0" fill="none" stroke="rgb(0, 0, 0)" stroke-opacity="0.11446201" stroke-linecap="round" stroke-linejoin="round"/>
    <path d="M 351.7070007324219 53.18586349487305 C 347.04791259765625 39.61286163330078 324.2000427246094 78.58921813964844 356.44073486328125 37.920875549316406 C 343.52410888671875 33.01210403442383 378.159912109375 51.08846664428711 394.5648498535156 55.70228958129883 C 378.82757568359375 41.84147262573242 350.65557861328125 61.66791915893555 369.8917236328125 55.021629333496094 C 378.060791015625 38.510616302490234 419.3131408691406 14.550437927246094 391.9898986816406 -5.096619129180908" stroke-width="6.0" fill="none" stroke="rgb(0, 0, 0)" stroke-opacity="0.0023146686" stroke-linecap="round" stroke-linejoin="round"/>
    <path d="M 120.02294158935547 356.52392578125 C 171.46124267578125 349.3794860839844 193.9015350341797 352.1945495605469 208.30615234375 423.55938720703125 C 146.8877410888672 405.9257507324219 170.0895233154297 397.4947204589844 152.20912170410156 387.1595458984375 C 141.06459045410156 401.3638000488281 151.5741424560547 410.6865539550781 163.44908142089844 405.7071838378906 C 151.56759643554688 314.74920654296875 139.15126037597656 296.022216796875 158.1174774169922 358.8066101074219" stroke-width="6.0" fill="none" stroke="rgb(0, 0, 0)" stroke-opacity="0.0" stroke-linecap="round" stroke-linejoin="round"/>
    <path d="M 446.2228088378906 326.1175842285156 C 336.60528564453125 346.9701232910156 318.2752990722656 286.96453857421875 369.2608642578125 310.29931640625 C 406.84197998046875 308.1832580566406 448.0694580078125 320.80511474609375 501.12957763671875 279.1042785644531 C 426.1706237792969 268.2150573730469 466.7986145019531 315.00018310546875 385.58392333984375 257.32177734375 C 322.0093078613281 255.56329345703125 336.9974060058594 265.5302734375 432.3416442871094 280.58099365234375" stroke-width="6.0" fill="none" stroke="rgb(0, 0, 0)" stroke-opacity="1.0" stroke-linecap="round" stroke-linejoin="round"/>
    <path d="M 531.3854370117188 442.537841796875 C 569.1199340820312 324.5140075683594 492.7100830078125 303.337158203125 544.6678466796875 388.7965087890625 C 476.4404602050781 414.5581359863281 467.07940673828125 430.0998840332031 475.7070617675781 395.239501953125 C 461.38043212890625 383.3233337402344 454.7593688964844 401.60955810546875 467.95367431640625 404.37139892578125 C 446.3538818359375 388.189453125 454.6018371582031 393.88861083984375 460.0713806152344 389.8062744140625" stroke-width="6.0" fill="none" stroke="rgb(0, 0, 0)" stroke-opacity="1.0" stroke-linecap="round" stroke-linejoin="round"/>
    <path d="M 286.4054260253906 609.0487060546875 C 285.97674560546875 617.232666015625 281.15472412109375 643.1376953125 287.07586669921875 619.7229614257812 C 259.4035339355469 615.7972412109375 282.498779296875 597.7794189453125 322.0936584472656 611.4876708984375 C 330.5596923828125 612.8203125 343.1798400878906 594.3287353515625 309.24029541015625 624.3425903320312 C 305.7771301269531 592.076904296875 306.4545593261719 618.8157958984375 297.2840270996094 623.8229370117188" stroke-width="6.0" fill="none" stroke="rgb(0, 0, 0)" stroke-opacity="0.0" stroke-linecap="round" stroke-linejoin="round"/>
    <path d="M 317.4278869628906 282.2431335449219 C 357.7395935058594 275.93353271484375 417.88037109375 308.8556823730469 424.4256591796875 273.8509826660156 C 400.09332275390625 262.0939025878906 394.4623718261719 254.1370391845703 301.69854736328125 259.5283508300781 C 321.87249755859375 281.6134948730469 347.9718933105469 307.8049621582031 350.7974548339844 324.90863037109375 C 386.3286437988281 328.5843505859375 362.78179931640625 353.2126159667969 298.260498046875 293.0517578125" stroke-width="6.0" fill="none" stroke="rgb(0, 0, 0)" stroke-opacity="1.0" stroke-linecap="round" stroke-linejoin="round"/>
    <path d="M 62.1387825012207 471.1458740234375 C 104.7514877319336 469.856689453125 99.56085205078125 511.56231689453125 111.01585388183594 533.6162719726562 C 153.24441528320312 497.6197814941406 160.04356384277344 481.2514953613281 56.04607009887695 474.662353515625 C 70.53160095214844 496.7162170410156 77.87140655517578 488.7716064453125 78.20427703857422 471.892333984375 C 110.56317138671875 482.4864196777344 118.47663879394531 468.2965393066406 129.88986206054688 511.33380126953125" stroke-width="6.0" fill="none" stroke="rgb(0, 0, 0)" stroke-opacity="0.0" stroke-linecap="round" stroke-linejoin="round"/>
    <path d="M 327.1297912597656 487.5657043457031 C 500.60614013671875 479.0519714355469 498.8427734375 487.7097473144531 457.1686096191406 442.9801025390625 C 451.77880859375 431.1264953613281 430.3768615722656 452.3743591308594 355.1803894042969 439.024658203125 C 320.548828125 420.9244079589844 397.2083740234375 435.28741455078125 402.41162109375 440.27557373046875 C 365.32916259765625 415.701904296875 425.9736022949219 427.6026306152344 535.9984130859375 437.2655334472656" stroke-width="6.0" fill="none" stroke="rgb(0, 0, 0)" stroke-opacity="1.0" stroke-linecap="round" stroke-linejoin="round"/>
    <path d="M 114.54600524902344 514.1710815429688 C 73.03083801269531 499.2992248535156 86.42951965332031 489.45196533203125 122.78237915039062 499.8090515136719 C 132.29042053222656 475.9480895996094 102.2187271118164 510.6875915527344 107.60186767578125 495.00927734375 C 111.84235382080078 493.9969787597656 76.32418060302734 454.04620361328125 103.96308898925781 423.74591064453125 C 126.07779693603516 496.2939147949219 132.77587890625 480.1568603515625 91.30733489990234 468.6748046875" stroke-width="6.0" fill="none" stroke="rgb(0, 0, 0)" stroke-opacity="0.0" stroke-linecap="round" stroke-linejoin="round"/>
    <path d="M 181.32522583007812 357.3783264160156 C 158.91415405273438 367.98541259765625 140.8392333984375 320.9395751953125 179.1612091064453 306.83837890625 C 218.4131317138672 304.0451965332031 188.7482147216797 268.5754699707031 174.9884796142578 259.01116943359375 C 117.87545776367188 264.40020751953125 145.24453735351562 282.6986389160156 138.94219970703125 284.0625 C 158.6244659423828 216.18191528320312 153.4591064453125 192.00094604492188 144.9423065185547 179.16136169433594" stroke-width="6.0" fill="none" stroke="rgb(0, 0, 0)" stroke-opacity="0.016754739" stroke-linecap="round" stroke-linejoin="round"/>
    <path d="M 68.70114135742188 358.9799499511719 C 85.72272491455078 384.85205078125 107.59410095214844 315.10394287109375 67.89582824707031 329.9521484375 C 71.49239349365234 383.71551513671875 105.7730484008789 384.9674072265625 111.78411865234375 360.33001708984375 C 18.185943603515625 314.5089416503906 16.37594985961914 330.57769775390625 39.55439376831055 466.2433776855469 C 130.8466033935547 417.6398010253906 119.1154556274414 434.8088684082031 188.31863403320312 428.1172790527344" stroke-width="6.0" fill="none" stroke="rgb(0, 0, 0)" stroke-opacity="0.0" stroke-linecap="round" stroke-linejoin="round"/>
    <path d="M 317.73785400390625 483.9742431640625 C 321.9803771972656 555.2380981445312 330.03131103515625 599.7188720703125 328.3994140625 621.163818359375 C 281.39544677734375 613.6381225585938 273.301513671875 636.0908203125 253.8522491455078 653.6599731445312 C 232.02102661132812 601.4696044921875 207.3948974609375 610.7334594726562 194.0109405517578 627.0769653320312 C 231.28475952148438 624.723388671875 206.3195343017578 645.8588256835938 203.89605712890625 656.3984985351562" stroke-width="6.0" fill="none" stroke="rgb(0, 0, 0)" stroke-opacity="0.99994403" stroke-linecap="round" stroke-linejoin="round"/>
    <path d="M 485.72705078125 51.72727584838867 C 462.85198974609375 59.832000732421875 456.36187744140625 103.93160247802734 392.6084899902344 52.328372955322266 C 377.3966369628906 22.402429580688477 383.35894775390625 38.92351150512695 396.506591796875 52.02231979370117 C 404.58349609375 74.51986694335938 412.6144104003906 56.58603286743164 448.9538879394531 28.490070343017578 C 485.50946044921875 99.86560821533203 521.5760498046875 115.90167236328125 469.67950439453125 142.22662353515625" stroke-width="6.0" fill="none" stroke="rgb(0, 0, 0)" stroke-opacity="0.0" stroke-linecap="round" stroke-linejoin="round"/>
    <path d="M 428.90618896484375 299.0213317871094 C 447.6897277832031 322.203857421875 420.93475341796875 336.9611511230469 414.9736022949219 277.08428955078125 C 463.461181640625 298.9985656738281 430.15032958984375 270.24755859375 484.8094787597656 275.6408996582031 C 490.6167297363281 295.9143981933594 467.7153015136719 257.1580810546875 503.4579772949219 246.46910095214844 C 488.79254150390625 263.69366455078125 512.829833984375 223.28294372558594 493.6016845703125 269.1457824707031" stroke-width="6.0" fill="none" stroke="rgb(0, 0, 0)" stroke-opacity="0.0" stroke-linecap="round" stroke-linejoin="round"/>
    <path d="M 260.0303955078125 251.80491638183594 C 240.81512451171875 260.2596435546875 247.7005157470703 238.22947692871094 257.358154296875 220.7338409423828 C 270.86517333984375 223.5428466796875 302.96002197265625 208.18801879882812 351.4248352050781 246.29522705078125 C 310.8432922363281 290.4497375488281 233.8616485595703 288.5282287597656 196.94772338867188 321.4528503417969 C 293.57861328125 326.64434814453125 289.3876037597656 337.5152587890625 296.18109130859375 292.840087890625" stroke-width="6.0" fill="none" stroke="rgb(0, 0, 0)" stroke-opacity="0.0" stroke-linecap="round" stroke-linejoin="round"/>
    <path d="M 412.53546142578125 151.45021057128906 C 392.1288757324219 157.5732879638672 373.38348388671875 181.6930694580078 414.0054016113281 228.16795349121094 C 374.3018493652344 216.5956268310547 414.15069580078125 249.83509826660156 407.2815246582031 263.7855224609375 C 423.8428955078125 239.06712341308594 480.2862243652344 235.89404296875 468.555419921875 242.14561462402344 C 478.00604248046875 210.36090087890625 462.7947998046875 180.7220916748047 454.26702880859375 232.34178161621094" stroke-width="6.0" fill="none" stroke="rgb(0, 0, 0)" stroke-opacity="0.31054455" stroke-linecap="round" stroke-linejoin="round"/>
    <path d="M 416.85906982421875 552.5975341796875 C 408.4881591796875 565.457275390625 441.1218566894531 554.3562622070312 460.7876892089844 566.074951171875 C 472.806640625 552.525390625 482.29266357421875 547.7206420898438 460.0137023925781 548.3939208984375 C 463.11328125 522.1388549804688 471.4801025390625 497.9530944824219 463.5783996582031 497.32684326171875 C 429.1770935058594 502.30059814453125 390.27593994140625 484.98077392578125 414.08099365234375 515.125732421875" stroke-width="6.0" fill="none" stroke="rgb(0, 0, 0)" stroke-opacity="0.010721535" stroke-linecap="round" stroke-linejoin="round"/>
    <path d="M 69.46958923339844 475.9102478027344 C 95.47419738769531 480.6119079589844 69.05340576171875 474.7386169433594 34.577476501464844 515.201416015625 C 103.67333984375 501.40850830078125 108.54125213623047 516.1615600585938 114.62065887451172 501.3668212890625 C 152.64755249023438 461.3249816894531 150.73684692382812 476.50335693359375 81.58817291259766 471.4095458984375 C 128.91282653808594 454.5181884765625 101.99369049072266 438.3767395019531 62.396766662597656 467.3050537109375" stroke-width="6.0" fill="none" stroke="rgb(0, 0, 0)" stroke-opacity="0.13949995" stroke-linecap="round" stroke-linejoin="round"/>
    <path d="M 338.1526794433594 390.0534362792969 C 252.38888549804688 366.7452087402344 290.0654602050781 407.9703369140625 280.602783203125 295.9530334472656 C 288.4515380859375 309.7201232910156 350.36138916015625 354.8364562988281 328.0395202636719 333.3116760253906 C 294.43896484375 285.1660461425781 256.4690246582031 272.4029846191406 281.69683837890625 245.2144775390625 C 373.7225646972656 240.9727020263672 407.6207580566406 257.5326232910156 383.4413146972656 272.9668884277344" stroke-width="6.0" fill="none" stroke="rgb(0, 0, 0)" stroke-opacity="1.0" stroke-linecap="round" stroke-linejoin="round"/>
    <path d="M 529.2789306640625 77.03589630126953 C 548.44189453125 41.41908645629883 532.1969604492188 35.62226486206055 493.5506591796875 34.44713592529297 C 509.7253112792969 20.260868072509766 511.9253234863281 9.046053886413574 502.76849365234375 34.17552947998047 C 501.69769287109375 47.38827133178711 513.0224609375 61.33537292480469 538.5908813476562 86.06912994384766 C 503.335693359375 79.77806854248047 555.9254150390625 57.579261779785156 524.5955200195312 57.175601959228516" stroke-width="6.0" fill="none" stroke="rgb(0, 0, 0)" stroke-opacity="0.057682075" stroke-linecap="round" stroke-linejoin="round"/>
    <path d="M 317.0448913574219 282.59271240234375 C 265.4248046875 270.6623840332031 254.6291046142578 277.9512939453125 291.6740417480469 231.47506713867188 C 338.3425598144531 300.7877502441406 298.4399719238281 273.0321960449219 275.7488098144531 251.1886749267578 C 281.35882568359375 236.92262268066406 319.1797790527344 198.80393981933594 333.1965637207031 246.48876953125 C 356.6460876464844 238.47567749023438 373.73150634765625 210.7624969482422 340.90594482421875 217.69061279296875" stroke-width="6.0" fill="none" stroke="rgb(0, 0, 0)" stroke-opacity="0.0" stroke-linecap="round" stroke-linejoin="round"/>
    <path d="M 503.1087951660156 550.765869140625 C 499.1218566894531 545.0906372070312 458.80999755859375 556.118408203125 441.04608154296875 510.31768798828125 C 493.912109375 508.80877685546875 516.3521728515625 510.485595703125 475.7326965332031 567.13818359375 C 456.7664794921875 596.5716552734375 463.8710632324219 602.2846069335938 438.94122314453125 536.2136840820312 C 446.5753173828125 589.7896118164062 431.8321533203125 583.9781494140625 446.8505554199219 544.2172241210938" stroke-width="6.0" fill="none" stroke="rgb(0, 0, 0)" stroke-opacity="0.0" stroke-linecap="round" stroke-linejoin="round"/>
    <path d="M 393.7966613769531 315.969970703125 C 437.2584533691406 326.4394836425781 380.3206481933594 343.8216857910156 283.53704833984375 328.25958251953125 C 269.0199279785156 404.80731201171875 331.0597229003906 400.7574768066406 314.0633544921875 381.223876953125 C 124.02058410644531 363.2669982910156 195.990478515625 380.1776428222656 291.28436279296875 400.9227600097656 C 340.47625732421875 414.0364990234375 341.3763427734375 395.4364318847656 265.7986755371094 461.011962890625" stroke-width="6.0" fill="none" stroke="rgb(0, 0, 0)" stroke-opacity="1.0" stroke-linecap="round" stroke-linejoin="round"/>
    <path d="M 355.6364440917969 482.414306640625 C 351.40631103515625 447.4441833496094 375.5957336425781 490.0730285644531 318.3992919921875 482.4477233886719 C 361.07861328125 480.80487060546875 383.17462158203125 494.0623779296875 360.8537292480469 485.9765930175781 C 311.2305603027344 491.2612609863281 292.4586486816406 505.6550598144531 337.9023742675781 472.93463134765625 C 305.1622009277344 437.5759582519531 286.8191833496094 433.07379150390625 339.16351318359375 458.038330078125" stroke-width="6.0" fill="none" stroke="rgb(0, 0, 0)" stroke-opacity="0.04325787" stroke-linecap="round" stroke-linejoin="round"/>
    <path d="M 240.8282470703125 485.5146789550781 C 208.3197784423828 486.1741943359375 206.3651885986328 472.9211730957031 217.4202880859375 455.6002197265625 C 203.7762451171875 441.96771240234375 231.5029754638672 446.8474426269531 298.326171875 482.08782958984375 C 314.6506042480469 486.21539306640625 308.1891174316406 470.9057312011719 351.0140686035156 440.470703125 C 338.3083801269531 497.0002746582031 318.6180725097656 492.1966857910156 221.18373107910156 481.88531494140625" stroke-width="6.0" fill="none" stroke="rgb(0, 0, 0)" stroke-opacity="0.9808056" stroke-linecap="round" stroke-linejoin="round"/>
    <path d="M 433.6747741699219 291.8516540527344 C 449.18182373046875 332.9372863769531 399.71783447265625 325.80303955078125 438.4793395996094 323.1415100097656 C 410.8847351074219 340.656494140625 446.9805908203125 317.7437744140625 450.0188293457031 286.6464538574219 C 381.8321838378906 247.2781524658203 384.8606872558594 280.8168640136719 450.5287780761719 290.0654296875 C 407.9674072265625 273.6355895996094 348.8385009765625 275.6136169433594 350.2181396484375 265.0528259277344" stroke-width="6.0" fill="none" stroke="rgb(0, 0, 0)" stroke-opacity="0.9636883" stroke-linecap="round" stroke-linejoin="round"/>
    <path d="M 516.432373046875 439.35137939453125 C 555.9091796875 456.52459716796875 570.4278564453125 400.1611633300781 520.9119873046875 424.4381103515625 C 569.142578125 489.8308410644531 533.0455932617188 466.3624267578125 490.6561279296875 434.0052795410156 C 642.4610595703125 461.837890625 573.6078491210938 460.8600158691406 432.8320007324219 478.6225891113281 C 402.50701904296875 472.5243835449219 406.0218505859375 498.9840087890625 430.9826965332031 441.53570556640625" stroke-width="6.0" fill="none" stroke="rgb(0, 0, 0)" stroke-opacity="1.0" stroke-linecap="round" stroke-linejoin="round"/>
    <path d="M 515.09130859375 164.32284545898438 C 515.639404296875 147.5944061279297 508.0567626953125 135.48480224609375 541.0555419921875 144.83409118652344 C 546.4326782226562 146.466064453125 567.432373046875 163.4838409423828 649.8045654296875 154.26846313476562 C 656.7012329101562 222.67701721191406 617.1386108398438 245.38897705078125 582.8904418945312 236.89964294433594 C 577.372314453125 249.6772918701172 569.7318725585938 226.02999877929688 594.28857421875 235.5959930419922" stroke-width="6.0" fill="none" stroke="rgb(0, 0, 0)" stroke-opacity="0.001774986" stroke-linecap="round" stroke-linejoin="round"/>
    <path d="M 252.91781616210938 -6.743590831756592 C 196.02626037597656 -11.736644744873047 205.47171020507812 -33.16796875 212.98219299316406 -20.9558162689209 C 207.05242919921875 -44.042266845703125 198.4195098876953 -72.42703247070312 191.015625 -95.77579498291016 C 193.04421997070312 -110.97388458251953 193.8953857421875 -123.93446350097656 185.1571044921875 -132.94198608398438 C 201.32313537597656 -139.11387634277344 213.44219970703125 -153.28543090820312 207.27037048339844 -159.5114288330078" stroke-width="6.0" fill="none" stroke="rgb(0, 0, 0)" stroke-opacity="0.0" stroke-linecap="round" stroke-linejoin="round"/>
    <path d="M 556.7334594726562 393.0513916015625 C 556.4993286132812 375.9281005859375 557.79345703125 413.2668151855469 569.92724609375 407.0609436035156 C 580.0669555664062 395.4435119628906 535.9497680664062 388.37744140625 463.2642822265625 351.5020751953125 C 574.978271484375 310.3723449707031 568.1038208007812 315.8359375 526.5703125 323.2866516113281 C 619.2816772460938 318.739501953125 663.8953857421875 325.74993896484375 656.1799926757812 288.1173400878906" stroke-width="6.0" fill="none" stroke="rgb(0, 0, 0)" stroke-opacity="0.0" stroke-linecap="round" stroke-linejoin="round"/>
    <path d="M 479.8446960449219 188.6473388671875 C 489.5970458984375 172.80638122558594 462.3117370605469 151.84912109375 458.2593688964844 144.53952026367188 C 479.2392272949219 209.23098754882812 477.19708251953125 219.037353515625 475.89984130859375 157.21023559570312 C 508.15582275390625 147.68601989746094 493.648681640625 154.67539978027344 496.6678161621094 129.37168884277344 C 465.06927490234375 124.1847152709961 463.71954345703125 108.35932922363281 472.8781433105469 118.3753662109375" stroke-width="6.0" fill="none" stroke="rgb(0, 0, 0)" stroke-opacity="0.0071477303" stroke-linecap="round" stroke-linejoin="round"/>
    <path d="M 354.35626220703125 98.70809936523438 C 354.4248352050781 80.36161041259766 351.8955078125 102.79293060302734 349.57562255859375 127.17134857177734 C 382.985107421875 147.5056915283203 427.6034851074219 118.1761703491211 421.1012878417969 92.17374420166016 C 414.5137939453125 51.3826789855957 390.07318115234375 82.22000122070312 389.88568115234375 82.2295150756836 C 354.10003662109375 121.470947265625 411.5158386230469 99.74512481689453 402.2339782714844 63.04314041137695" stroke-width="6.0" fill="none" stroke="rgb(0, 0, 0)" stroke-opacity="0.089283645" stroke-linecap="round" stroke-linejoin="round"/>
    <path d="M 181.758544921875 191.73934936523438 C 206.3767852783203 170.6666259765625 200.98025512695312 167.18655395507812 188.10598754882812 188.6432647705078 C 203.77711486816406 167.77748107910156 201.43057250976562 184.05511474609375 200.7033233642578 207.4493408203125 C 196.2106475830078 143.2277374267578 201.50416564941406 157.7125244140625 186.7751922607422 139.4945526123047 C 153.9082794189453 160.09193420410156 180.94349670410156 143.7029571533203 154.4420166015625 124.64571380615234" stroke-width="6.0" fill="none" stroke="rgb(0, 0, 0)" stroke-opacity="0.14224175" stroke-linecap="round" stroke-linejoin="round"/>
    <path d="M 309.42236328125 265.2132263183594 C 400.47210693359375 279.2641906738281 393.79925537109375 306.0271911621094 474.9824523925781 291.98541259765625 C 464.00921630859375 330.0877685546875 356.7701110839844 291.51470947265625 335.7247619628906 340.79534912109375 C 407.6449279785156 313.664794921875 449.84637451171875 327.9714050292969 458.57421875 314.61944580078125 C 403.3526916503906 345.2882385253906 443.2335205078125 321.2750549316406 480.7672424316406 304.8941650390625" stroke-width="6.0" fill="none" stroke="rgb(0, 0, 0)" stroke-opacity="1.0" stroke-linecap="round" stroke-linejoin="round"/>
    <path d="M -6.108063697814941 262.1489562988281 C -7.280148029327393 256.5584716796875 -34.903175354003906 255.1116485595703 -40.641876220703125 267.17169189453125 C -8.200920104980469 307.4000549316406 1.6180049180984497 299.8561096191406 -9.064265251159668 301.3296203613281 C -25.9536075592041 275.0090637207031 -34.77583694458008 284.5603942871094 -31.802623748779297 281.11920166015625 C -18.488985061645508 279.9691467285156 -26.483076095581055 300.6884460449219 -41.1578369140625 279.60595703125" stroke-width="6.0" fill="none" stroke="rgb(0, 0, 0)" stroke-opacity="0.0" stroke-linecap="round" stroke-linejoin="round"/>
    <path d="M 329.7200012207031 260.1524658203125 C 244.25820922851562 262.9167175292969 174.83323669433594 268.4485778808594 198.3270721435547 280.3919677734375 C 274.4894714355469 282.8830871582031 285.7868957519531 294.747802734375 289.0887451171875 307.2008361816406 C 190.64242553710938 299.83856201171875 186.25497436523438 272.5091857910156 227.9559326171875 340.0028076171875 C 374.142578125 397.3194885253906 362.16619873046875 368.5904541015625 245.31797790527344 290.9434509277344" stroke-width="6.0" fill="none" stroke="rgb(0, 0, 0)" stroke-opacity="1.0" stroke-linecap="round" stroke-linejoin="round"/>
    <path d="M 354.72052001953125 56.04434585571289 C 370.8320007324219 42.11312484741211 373.7401428222656 39.22092056274414 363.1405029296875 35.57067108154297 C 380.5356750488281 47.77848815917969 370.7564392089844 24.871654510498047 372.48468017578125 55.23072052001953 C 334.4781799316406 49.212764739990234 331.20013427734375 51.83356475830078 342.76556396484375 26.32892417907715 C 319.8726501464844 -36.38040542602539 346.3861389160156 -26.388330459594727 377.4988708496094 -14.85600471496582" stroke-width="6.0" fill="none" stroke="rgb(0, 0, 0)" stroke-opacity="0.0" stroke-linecap="round" stroke-linejoin="round"/>
    <path d="M 500.49676513671875 122.19174194335938 C 517.0834350585938 94.1563720703125 520.26953125 108.9485092163086 517.5730590820312 125.10161590576172 C 486.9692077636719 135.22573852539062 536.9065551757812 95.63555908203125 522.34033203125 118.7206802368164 C 501.4842224121094 146.7005157470703 492.4033203125 168.0150146484375 484.0541687011719 176.3550567626953 C 491.4104919433594 158.27674865722656 477.3096618652344 134.29916381835938 482.2980041503906 131.86793518066406" stroke-width="6.0" fill="none" stroke="rgb(0, 0, 0)" stroke-opacity="5.67151e-05" stroke-linecap="round" stroke-linejoin="round"/>
    <path d="M 408.6445007324219 473.8791809082031 C 306.6994934082031 481.6857604980469 248.36846923828125 464.8958740234375 319.1759948730469 453.5985107421875 C 317.9736633300781 504.274169921875 327.9200439453125 491.0638122558594 313.3199768066406 488.9039611816406 C 308.13397216796875 463.5148010253906 295.3548583984375 472.14788818359375 340.81903076171875 476.30938720703125 C 254.0800323486328 500.3056640625 295.9129638671875 490.40350341796875 413.59600830078125 488.6307373046875" stroke-width="6.0" fill="none" stroke="rgb(0, 0, 0)" stroke-opacity="0.9888752" stroke-linecap="round" stroke-linejoin="round"/>
    <path d="M 26.71175765991211 10.4827880859375 C -17.54547691345215 22.077770233154297 3.9842007160186768 27.764442443847656 1.1619558334350586 110.1954116821289 C -12.525784492492676 158.65753173828125 -16.007020950317383 155.0629425048828 -38.18288803100586 40.09804153442383 C -20.876880645751953 45.27678298950195 -12.382735252380371 46.65789794921875 3.9499261379241943 54.62980651855469 C 61.550010681152344 12.318704605102539 53.647789001464844 3.23014235496521 64.64270782470703 -38.86017608642578" stroke-width="6.0" fill="none" stroke="rgb(0, 0, 0)" stroke-opacity="0.00030892962" stroke-linecap="round" stroke-linejoin="round"/>
    <path d="M 305.4129333496094 74.50729370117188 C 321.55731201171875 84.11125183105469 310.2989807128906 98.54927062988281 311.8182678222656 75.79456329345703 C 300.7177429199219 115.12432098388672 295.4751281738281 75.77906799316406 323.6842346191406 80.19072723388672 C 321.8309326171875 102.46295928955078 314.199951171875 97.53641510009766 307.57122802734375 72.06121826171875 C 325.91583251953125 77.60801696777344 304.7528991699219 106.39042663574219 305.5276184082031 97.71672821044922" stroke-width="6.0" fill="none" stroke="rgb(0, 0, 0)" stroke-opacity="0.0" stroke-linecap="round" stroke-linejoin="round"/>
    <path d="M 24.25396156311035 45.86433410644531 C 33.40340805053711 39.08332061767578 54.06694030761719 11.14881706237793 21.329906463623047 30.331636428833008 C 19.972137451171875 28.848369598388672 44.62859344482422 20.068771362304688 14.36287784576416 -11.96664810180664 C 53.13241195678711 -34.917625427246094 52.011653900146484 -1.5513252019882202 58.050052642822266 -9.7704439163208 C 75.43445587158203 -20.24851417541504 74.0675048828125 -11.512992858886719 94.4046859741211 13.375581741333008" stroke-width="6.0" fill="none" stroke="rgb(0, 0, 0)" stroke-opacity="0.004015968" stroke-linecap="round" stroke-linejoin="round"/>
    <path d="M 123.55297088623047 19.56754493713379 C 135.2207794189453 25.58431625366211 134.49594116210938 36.0815544128418 147.0220489501953 50.66054153442383 C 136.86293029785156 74.64319610595703 107.89232635498047 123.826904296875 124.35932922363281 97.57380676269531 C 141.3385009765625 64.75506591796875 153.40736389160156 22.803499221801758 129.17144775390625 0.9478890299797058 C 137.96595764160156 -7.111064910888672 123.54486083984375 -32.797752380371094 115.7716064453125 -22.68907356262207" stroke-width="6.0" fill="none" stroke="rgb(0, 0, 0)" stroke-opacity="0.0" stroke-linecap="round" stroke-linejoin="round"/>
    <path d="M 323.5059814453125 464.9303894042969 C 328.75286865234375 449.4566345214844 330.5871887207031 442.345458984375 340.1064758300781 420.9237060546875 C 296.47021484375 372.9203186035156 269.13140869140625 341.5104675292969 276.3387451171875 370.2912902832031 C 205.6493682861328 324.4601745605469 163.23643493652344 283.3205261230469 291.07379150390625 310.4042053222656 C 204.92633056640625 232.5753936767578 275.91839599609375 258.8941955566406 334.4860534667969 323.56787109375" stroke-width="6.0" fill="none" stroke="rgb(0, 0, 0)" stroke-opacity="1.0" stroke-linecap="round" stroke-linejoin="round"/>
    <path d="M 193.2049102783203 363.93585205078125 C 175.39895629882812 332.74957275390625 148.9808349609375 412.81646728515625 187.8108367919922 408.928955078125 C 165.5985107421875 421.57659912109375 167.07167053222656 381.2025146484375 172.28878784179688 374.78302001953125 C 117.9583740234375 355.77874755859375 100.8913803100586 336.9299621582031 88.87383270263672 342.39990234375 C 41.0197868347168 368.4660949707031 -3.220104455947876 378.5086975097656 17.300020217895508 331.9374694824219" stroke-width="6.0" fill="none" stroke="rgb(0, 0, 0)" stroke-opacity="1.0" stroke-linecap="round" stroke-linejoin="round"/>
    <path d="M 453.11187744140625 444.5736389160156 C 417.9964904785156 436.34075927734375 392.5782470703125 455.393798828125 420.66571044921875 500.51947021484375 C 449.6467590332031 535.8699340820312 408.83892822265625 528.6898803710938 435.9618225097656 526.1063232421875 C 450.8346862792969 548.8406372070312 469.6789245605469 586.7510375976562 455.5202331542969 566.1605224609375 C 433.6367492675781 569.14404296875 423.62017822265625 570.1133422851562 428.55303955078125 571.5540771484375" stroke-width="6.0" fill="none" stroke="rgb(0, 0, 0)" stroke-opacity="0.15999274" stroke-linecap="round" stroke-linejoin="round"/>
    <path d="M 45.67966842651367 116.70549011230469 C 45.342647552490234 92.33073425292969 66.24144744873047 129.91038513183594 41.7303352355957 95.68325805664062 C 56.49659729003906 100.80689239501953 22.93303108215332 112.15805053710938 24.095815658569336 111.75993347167969 C 22.940731048583984 131.5245819091797 -15.152115821838379 121.9944839477539 -50.66288375854492 145.7997283935547 C -21.211336135864258 178.43495178222656 -25.68903923034668 191.9407958984375 -14.478419303894043 208.79359436035156" stroke-width="6.0" fill="none" stroke="rgb(0, 0, 0)" stroke-opacity="0.0" stroke-linecap="round" stroke-linejoin="round"/>
    <path d="M 550.57177734375 273.24822998046875 C 576.1895141601562 267.4662780761719 635.1361083984375 259.7476501464844 624.8331909179688 252.80282592773438 C 620.5799560546875 273.02264404296875 640.5394897460938 278.9197692871094 624.5573120117188 247.814697265625 C 598.6424560546875 227.39779663085938 619.4818725585938 251.5626678466797 622.2171630859375 242.1852569580078 C 648.6570434570312 244.3264923095703 642.2698364257812 225.60610961914062 635.27783203125 253.0638885498047" stroke-width="6.0" fill="none" stroke="rgb(0, 0, 0)" stroke-opacity="1.0" stroke-linecap="round" stroke-linejoin="round"/>
    <path d="M 555.494384765625 126.31315612792969 C 550.0086669921875 116.51179504394531 568.4876098632812 140.11476135253906 581.9722290039062 192.04177856445312 C 555.0550537109375 209.71029663085938 504.23834228515625 213.84457397460938 480.8780822753906 183.1553955078125 C 501.1274719238281 213.5836639404297 541.7174072265625 196.6150360107422 534.0869140625 211.74513244628906 C 522.7210083007812 251.80381774902344 542.0984497070312 231.50413513183594 614.0354614257812 214.1434326171875" stroke-width="6.0" fill="none" stroke="rgb(0, 0, 0)" stroke-opacity="0.09359438" stroke-linecap="round" stroke-linejoin="round"/>
    <path d="M 356.13543701171875 214.5233154296875 C 356.21136474609375 220.8059844970703 353.59356689453125 197.1250457763672 381.8777770996094 186.8805389404297 C 403.12884521484375 184.58474731445312 385.1515197753906 216.1263427734375 377.9130859375 251.8769073486328 C 390.7660217285156 222.08717346191406 419.2827453613281 211.19540405273438 395.27496337890625 218.6444549560547 C 387.3930969238281 185.2589569091797 369.85296630859375 216.51071166992188 370.30340576171875 239.7768096923828" stroke-width="6.0" fill="none" stroke="rgb(0, 0, 0)" stroke-opacity="0.12664206" stroke-linecap="round" stroke-linejoin="round"/>
    <path d="M 286.3612976074219 523.54443359375 C 283.34918212890625 506.43084716796875 302.4662780761719 517.2529907226562 291.5791931152344 515.3054809570312 C 350.55596923828125 494.1545104980469 320.1163024902344 450.4031982421875 302.2699279785156 412.47198486328125 C 326.2244567871094 424.0812683105469 349.5870361328125 429.778076171875 370.72259521484375 376.0633544921875 C 364.8493347167969 285.7595520019531 344.220458984375 269.2469177246094 369.38140869140625 272.4864196777344" stroke-width="6.0" fill="none" stroke="rgb(0, 0, 0)" stroke-opacity="0.0" stroke-linecap="round" stroke-linejoin="round"/>
    <path d="M 80.59347534179688 457.5243225097656 C 65.35031127929688 461.1114501953125 15.51292896270752 460.4837951660156 45.463680267333984 432.37152099609375 C 9.44460678100586 379.88818359375 40.957733154296875 394.7934875488281 34.27903366088867 447.96209716796875 C 74.451904296875 459.99560546875 95.5937271118164 454.0996398925781 91.59825134277344 446.46527099609375 C 37.84593200683594 391.4950256347656 124.43389129638672 400.93560791015625 166.17037963867188 437.15716552734375" stroke-width="6.0" fill="none" stroke="rgb(0, 0, 0)" stroke-opacity="1.0" stroke-linecap="round" stroke-linejoin="round"/>
    <path d="M 28.72491455078125 538.4463500976562 C 32.47682189941406 544.05859375 61.94407272338867 537.8560791015625 53.84964370727539 513.4312133789062 C 104.64493560791016 484.46929931640625 111.6882553100586 454.49383544921875 41.74251937866211 413.9795227050781 C 65.1973648071289 433.1636047363281 131.1947479248047 445.18865966796875 77.63488006591797 468.62548828125 C 39.24277877807617 483.2931213378906 13.871355056762695 516.930908203125 19.772388458251953 528.9415893554688" stroke-width="6.0" fill="none" stroke="rgb(0, 0, 0)" stroke-opacity="0.0013999615" stroke-linecap="round" stroke-linejoin="round"/>
    <path d="M 529.3348999023438 356.4771728515625 C 499.2439880371094 345.2057189941406 544.9829711914062 329.06622314453125 551.9293212890625 356.7131042480469 C 518.6483764648438 306.47186279296875 527.95556640625 337.50555419921875 553.914306640625 425.8368225097656 C 547.5042114257812 362.5679016113281 571.251220703125 370.9146728515625 557.9979248046875 461.3160705566406 C 536.0525512695312 416.51165771484375 556.7083740234375 366.51568603515625 514.3145751953125 351.24951171875" stroke-width="6.0" fill="none" stroke="rgb(0, 0, 0)" stroke-opacity="0.9965868" stroke-linecap="round" stroke-linejoin="round"/>
    <path d="M 372.88458251953125 530.9862670898438 C 383.39202880859375 535.125732421875 379.05059814453125 492.2737731933594 410.6204528808594 549.1465454101562 C 392.3360900878906 548.113037109375 406.13555908203125 536.5271606445312 427.4023132324219 525.0145874023438 C 459.1052551269531 507.8664855957031 474.62249755859375 498.56561279296875 443.07269287109375 527.0132446289062 C 407.3868408203125 532.1957397460938 424.3595275878906 507.5675354003906 433.8376159667969 507.94256591796875" stroke-width="6.0" fill="none" stroke="rgb(0, 0, 0)" stroke-opacity="0.0" stroke-linecap="round" stroke-linejoin="round"/>
    <path d="M 607.21044921875 559.772705078125 C 616.0846557617188 520.27490234375 601.5029296875 501.5661926269531 619.1452026367188 483.8916320800781 C 617.1326904296875 486.79571533203125 627.8121337890625 496.9554748535156 602.6632080078125 477.0577697753906 C 569.4628295898438 503.6162414550781 540.6824340820312 493.8415832519531 570.7807006835938 495.3679504394531 C 563.3329467773438 525.7665405273438 540.0580444335938 546.6511840820312 517.0822143554688 555.0303955078125" stroke-width="6.0" fill="none" stroke="rgb(0, 0, 0)" stroke-opacity="0.0" stroke-linecap="round" stroke-linejoin="round"/>
    <path d="M 224.31710815429688 569.30517578125 C 240.142333984375 501.6955871582031 259.1081848144531 521.3978271484375 188.8656005859375 434.4723205566406 C 176.85855102539062 453.1192321777344 180.6895751953125 522.6356811523438 164.40322875976562 442.6261901855469 C 144.75857543945312 439.2250061035156 133.30630493164062 430.8504333496094 70.18353271484375 418.1211242675781 C 141.8279571533203 414.4089660644531 95.27743530273438 412.8719787597656 24.27545166015625 415.2421875" stroke-width="6.0" fill="none" stroke="rgb(0, 0, 0)" stroke-opacity="1.0" stroke-linecap="round" stroke-linejoin="round"/>
    <path d="M 221.2855987548828 -7.602075576782227 C 205.4677276611328 -14.613643646240234 197.2572479248047 -43.946441650390625 158.8544921875 -60.3320198059082 C 129.18763732910156 -24.964868545532227 133.20748901367188 -36.15663146972656 146.31988525390625 -24.143281936645508 C 155.86094665527344 20.324934005737305 145.99130249023438 19.269018173217773 149.67718505859375 27.227577209472656 C 132.6949005126953 16.30619239807129 133.27008056640625 8.242592811584473 132.61936950683594 8.362652778625488" stroke-width="6.0" fill="none" stroke="rgb(0, 0, 0)" stroke-opacity="0.0" stroke-linecap="round" stroke-linejoin="round"/>
    <path d="M 27.165990829467773 353.5884704589844 C 52.36036682128906 448.0133361816406 51.690982818603516 494.9750061035156 25.152204513549805 440.5981140136719 C 17.428152084350586 444.1327819824219 72.6718978881836 447.6522521972656 175.963623046875 466.2398376464844 C 209.3592987060547 408.5673828125 155.0907745361328 379.6200866699219 166.0338897705078 431.89898681640625 C 206.10049438476562 425.4591064453125 202.81344604492188 406.2518005371094 176.68008422851562 459.8128662109375" stroke-width="6.0" fill="none" stroke="rgb(0, 0, 0)" stroke-opacity="1.0" stroke-linecap="round" stroke-linejoin="round"/>
    <path d="M 84.84573364257812 330.91400146484375 C 104.79222106933594 421.22796630859375 108.0331039428711 437.8567810058594 213.79042053222656 426.00640869140625 C 153.36790466308594 432.415283203125 165.3498992919922 453.9520568847656 168.37210083007812 374.0811767578125 C 146.89520263671875 361.9407653808594 161.0003662109375 367.8890380859375 161.37405395507812 367.5152282714844 C 154.53427124023438 354.68218994140625 144.72618103027344 356.12744140625 153.3345947265625 356.7317199707031" stroke-width="6.0" fill="none" stroke="rgb(0, 0, 0)" stroke-opacity="0.9984011" stroke-linecap="round" stroke-linejoin="round"/>
    <path d="M 282.3230895996094 461.253173828125 C 320.5357666015625 433.0429992675781 298.9745178222656 431.0052185058594 398.2626953125 424.14141845703125 C 363.2332763671875 414.1551208496094 304.6457824707031 423.2123107910156 321.489501953125 373.2049255371094 C 266.1531066894531 382.7223815917969 257.8968811035156 367.3553771972656 324.28369140625 370.83331298828125 C 348.50958251953125 405.4206237792969 359.7195739746094 422.53546142578125 324.8878173828125 355.1042785644531" stroke-width="6.0" fill="none" stroke="rgb(0, 0, 0)" stroke-opacity="1.0" stroke-linecap="round" stroke-linejoin="round"/>
    <path d="M 521.6866455078125 471.3443908691406 C 551.106689453125 488.41326904296875 580.21044921875 521.5780029296875 587.736572265625 525.1270751953125 C 582.80615234375 527.5684814453125 576.7470092773438 509.4381103515625 617.1992797851562 550.8955688476562 C 629.652099609375 582.3263549804688 666.9920654296875 582.1062622070312 641.8065795898438 594.9982299804688 C 635.482177734375 587.6571655273438 625.0155639648438 588.7263793945312 607.2862548828125 558.9957275390625" stroke-width="6.0" fill="none" stroke="rgb(0, 0, 0)" stroke-opacity="0.9999875" stroke-linecap="round" stroke-linejoin="round"/>
    <path d="M 457.2108459472656 535.0069580078125 C 460.0136413574219 531.1112060546875 470.04595947265625 527.2197265625 452.17230224609375 532.9851684570312 C 487.7110900878906 555.9591674804688 526.3047485351562 554.061767578125 515.5101928710938 598.0589599609375 C 496.397216796875 639.8154907226562 505.3819580078125 652.0492553710938 486.5975341796875 652.2053833007812 C 486.8401794433594 645.7498168945312 469.0123596191406 635.3147583007812 483.046142578125 627.4451904296875" stroke-width="6.0" fill="none" stroke="rgb(0, 0, 0)" stroke-opacity="0.0" stroke-linecap="round" stroke-linejoin="round"/>
    <path d="M 22.207361221313477 459.18377685546875 C -10.74866008758545 436.749755859375 5.9954376220703125 313.6326599121094 29.91761016845703 360.740478515625 C -5.036984920501709 352.5931701660156 0.6490135788917542 386.0696716308594 8.42696762084961 405.38232421875 C -4.696718215942383 326.71527099609375 29.526561737060547 301.1701965332031 6.6217546463012695 361.6488037109375 C 27.667449951171875 401.473388671875 29.753618240356445 486.75537109375 24.512771606445312 457.5775451660156" stroke-width="6.0" fill="none" stroke="rgb(0, 0, 0)" stroke-opacity="1.0" stroke-linecap="round" stroke-linejoin="round"/>
    <path d="M 513.99462890625 259.7940979003906 C 531.658935546875 261.0133972167969 515.6695556640625 265.07110595703125 462.75299072265625 255.2750244140625 C 490.2724609375 258.1375732421875 500.9500427246094 255.31663513183594 522.891845703125 260.70526123046875 C 536.0233154296875 212.6898956298828 566.1959228515625 183.39523315429688 468.79205322265625 198.58078002929688 C 458.6742248535156 223.60198974609375 462.5647277832031 234.30857849121094 462.0390930175781 235.63308715820312" stroke-width="6.0" fill="none" stroke="rgb(0, 0, 0)" stroke-opacity="0.12242703" stroke-linecap="round" stroke-linejoin="round"/>
    <path d="M -4.794765472412109 162.35704040527344 C -5.684635639190674 142.1781005859375 -0.963528037071228 121.25218200683594 -8.018088340759277 112.40633392333984 C -16.546852111816406 132.36085510253906 -58.670127868652344 105.87030792236328 -19.0366268157959 141.22109985351562 C 46.527244567871094 134.7269287109375 1.6936794519424438 111.23497009277344 41.9063720703125 133.9346466064453 C 35.27277755737305 88.16166687011719 8.037653923034668 115.09716796875 3.711632013320923 152.41397094726562" stroke-width="6.0" fill="none" stroke="rgb(0, 0, 0)" stroke-opacity="0.31772935" stroke-linecap="round" stroke-linejoin="round"/>
    <path d="M 608.4712524414062 346.0189208984375 C 610.8778076171875 338.4931945800781 603.8895263671875 339.6264343261719 616.7137451171875 357.33746337890625 C 624.8544921875 359.2933654785156 617.940673828125 338.3804931640625 603.0932006835938 338.3178405761719 C 611.51171875 333.8535461425781 632.3345336914062 351.2781066894531 615.2278442382812 372.2778015136719 C 600.1712036132812 394.8819274902344 617.2557373046875 390.25823974609375 606.1992797851562 385.8853759765625" stroke-width="6.0" fill="none" stroke="rgb(0, 0, 0)" stroke-opacity="0.46290874" stroke-linecap="round" stroke-linejoin="round"/>
    <path d="M 512.1853637695312 158.56138610839844 C 501.3043212890625 162.385498046875 528.9312133789062 167.86163330078125 523.98291015625 214.5860137939453 C 514.5125732421875 219.35552978515625 558.4141235351562 182.41835021972656 527.3184204101562 142.70068359375 C 509.3350830078125 162.0194854736328 483.0642395019531 191.4124298095703 479.3309326171875 143.90455627441406 C 492.2929992675781 113.96377563476562 516.2117919921875 106.14286804199219 519.89697265625 134.22967529296875" stroke-width="6.0" fill="none" stroke="rgb(0, 0, 0)" stroke-opacity="0.3001519" stroke-linecap="round" stroke-linejoin="round"/>
    <path d="M 325.65057373046875 501.7693786621094 C 312.4953308105469 485.064697265625 366.5184020996094 488.5259704589844 344.81378173828125 449.76580810546875 C 379.7733459472656 462.10235595703125 448.88970947265625 479.0539855957031 380.7342529296875 482.29302978515625 C 415.69732666015625 456.94244384765625 410.2068786621094 433.6145935058594 399.0986633300781 403.4775085449219 C 456.9411315917969 388.75787353515625 470.3977966308594 431.4942321777344 450.3616027832031 419.5068054199219" stroke-width="6.0" fill="none" stroke="rgb(0, 0, 0)" stroke-opacity="0.0" stroke-linecap="round" stroke-linejoin="round"/>
    <path d="M 34.66883087158203 446.5903625488281 C 20.618831634521484 490.2516174316406 122.8448486328125 460.9012145996094 90.47503662109375 472.3988037109375 C 78.2046890258789 464.8903503417969 96.01062774658203 425.71844482421875 81.58895111083984 442.7615051269531 C 61.800235748291016 409.9705505371094 101.37359619140625 441.230712890625 96.173583984375 431.72137451171875 C 111.69061279296875 435.788330078125 57.12649154663086 430.7377624511719 56.5781364440918 416.6954345703125" stroke-width="6.0" fill="none" stroke="rgb(0, 0, 0)" stroke-opacity="0.0" stroke-linecap="round" stroke-linejoin="round"/>
    <path d="M 66.747314453125 235.66200256347656 C 35.76285171508789 188.80825805664062 64.46025848388672 148.91371154785156 87.88986206054688 145.35403442382812 C 80.33106231689453 170.51699829101562 80.94761657714844 185.8888702392578 81.96147918701172 174.4199676513672 C 114.38444519042969 188.41944885253906 130.3990936279297 191.80050659179688 98.40724182128906 182.2702178955078 C 103.48817443847656 163.4261016845703 178.42352294921875 172.78616333007812 181.68772888183594 176.9976806640625" stroke-width="6.0" fill="none" stroke="rgb(0, 0, 0)" stroke-opacity="0.087984495" stroke-linecap="round" stroke-linejoin="round"/>
    <path d="M 243.6095733642578 545.10009765625 C 253.60073852539062 547.2149658203125 211.56784057617188 556.5845947265625 246.80999755859375 536.5374145507812 C 241.2241668701172 527.520263671875 289.4234619140625 543.1065063476562 322.0716857910156 530.523681640625 C 342.8163757324219 523.4078979492188 303.60308837890625 587.1430053710938 325.6330871582031 456.3047790527344 C 350.44171142578125 479.3946838378906 381.34478759765625 494.0614929199219 411.5691833496094 477.0439453125" stroke-width="6.0" fill="none" stroke="rgb(0, 0, 0)" stroke-opacity="0.0" stroke-linecap="round" stroke-linejoin="round"/>
    <path d="M 468.2970886230469 416.4231262207031 C 310.6550598144531 407.2633361816406 309.558349609375 402.5154724121094 310.6702575683594 387.7948303222656 C 335.17486572265625 423.2485656738281 374.3895568847656 436.00634765625 351.9460144042969 421.77838134765625 C 274.5784606933594 444.9145202636719 373.4875793457031 424.36724853515625 424.0535888671875 478.24981689453125 C 334.5735778808594 443.1819152832031 309.44488525390625 476.53131103515625 443.14532470703125 444.3993225097656" stroke-width="6.0" fill="none" stroke="rgb(0, 0, 0)" stroke-opacity="0.9343145" stroke-linecap="round" stroke-linejoin="round"/>
    <path d="M 515.4994506835938 527.5346069335938 C 483.6401062011719 522.5513305664062 466.00433349609375 524.439453125 480.84149169921875 520.8936157226562 C 446.6571960449219 540.0803833007812 489.2074279785156 529.8763427734375 486.6277770996094 528.3676147460938 C 489.50482177734375 549.0365600585938 472.0800476074219 536.706298828125 474.7693786621094 531.4090576171875 C 488.7759094238281 533.5364379882812 507.1386413574219 540.4442749023438 513.1731567382812 527.5421752929688" stroke-width="6.0" fill="none" stroke="rgb(0, 0, 0)" stroke-opacity="0.0" stroke-linecap="round" stroke-linejoin="round"/>
    <path d="M 444.9305725097656 140.14102172851562 C 469.6561584472656 140.42015075683594 442.138427734375 186.22962951660156 457.2416076660156 136.38392639160156 C 440.482421875 105.66838073730469 443.447265625 167.71534729003906 458.3876037597656 184.43734741210938 C 458.1687927246094 192.29476928710938 486.7837219238281 189.4316864013672 472.1221618652344 129.23825073242188 C 490.32073974609375 171.56341552734375 491.794189453125 156.5765380859375 479.22711181640625 149.8496856689453" stroke-width="6.0" fill="none" stroke="rgb(0, 0, 0)" stroke-opacity="0.0" stroke-linecap="round" stroke-linejoin="round"/>
    <path d="M 327.4300842285156 172.38003540039062 C 338.3341064453125 173.2610626220703 326.8758850097656 185.97999572753906 320.6605529785156 187.12127685546875 C 310.1685791015625 165.5933380126953 290.940673828125 168.94921875 310.5766906738281 175.3094024658203 C 290.6208190917969 164.0118865966797 309.66107177734375 184.0636749267578 313.7083435058594 161.67327880859375 C 354.4830322265625 181.20071411132812 319.3963317871094 181.35403442382812 328.49688720703125 183.30039978027344" stroke-width="6.0" fill="none" stroke="rgb(0, 0, 0)" stroke-opacity="0.0" stroke-linecap="round" stroke-linejoin="round"/>
    <path d="M 219.3555908203125 422.252197265625 C 247.61355590820312 434.663330078125 220.716552734375 407.698974609375 245.98623657226562 409.9480285644531 C 260.5413513183594 358.3497009277344 236.6361846923828 353.5843200683594 214.66543579101562 298.06005859375 C 193.70663452148438 327.4896545410156 224.41383361816406 358.6427307128906 232.03182983398438 338.263427734375 C 230.88992309570312 317.9548645019531 280.0624694824219 335.4162292480469 193.5714874267578 342.3584899902344" stroke-width="6.0" fill="none" stroke="rgb(0, 0, 0)" stroke-opacity="0.0" stroke-linecap="round" stroke-linejoin="round"/>
    <path d="M 115.17817687988281 305.94879150390625 C 101.06354522705078 307.1934814453125 129.1362762451172 354.43170166015625 199.18878173828125 333.03265380859375 C 188.6453399658203 273.0027160644531 150.29568481445312 246.01287841796875 79.57123565673828 296.6240539550781 C 117.92666625976562 299.8613586425781 135.64724731445312 257.34814453125 134.53500366210938 262.2657165527344 C 182.86337280273438 256.6023254394531 180.93893432617188 243.73362731933594 278.12310791015625 252.3691864013672" stroke-width="6.0" fill="none" stroke="rgb(0, 0, 0)" stroke-opacity="1.0" stroke-linecap="round" stroke-linejoin="round"/>
    <path d="M 177.17323303222656 237.94442749023438 C 104.24409484863281 213.71055603027344 79.37725067138672 175.1901397705078 103.0672836303711 226.71722412109375 C 62.318363189697266 207.3211669921875 81.3009262084961 179.05726623535156 83.93573760986328 174.1167755126953 C 110.48689270019531 195.90745544433594 90.63312530517578 180.00686645507812 102.58643341064453 147.542724609375 C 113.7974853515625 114.67549896240234 137.85623168945312 136.62649536132812 137.6901397705078 163.8268585205078" stroke-width="6.0" fill="none" stroke="rgb(0, 0, 0)" stroke-opacity="0.17675543" stroke-linecap="round" stroke-linejoin="round"/>
    <path d="M 64.63038635253906 254.97894287109375 C 154.86593627929688 273.2980651855469 148.5363311767578 265.1375427246094 133.42007446289062 285.8205261230469 C 103.36650085449219 320.3677673339844 109.26943969726562 317.5228576660156 126.08796691894531 318.76812744140625 C 87.24784851074219 310.45684814453125 108.79680633544922 299.954833984375 107.97958374023438 308.1688232421875 C 195.6964569091797 306.8661804199219 184.24795532226562 312.2108459472656 160.57229614257812 363.3313293457031" stroke-width="6.0" fill="none" stroke="rgb(0, 0, 0)" stroke-opacity="1.0" stroke-linecap="round" stroke-linejoin="round"/>
    <path d="M 39.22250747680664 609.8106689453125 C 71.38155364990234 581.1956787109375 67.25547790527344 567.17578125 58.19709014892578 594.322509765625 C 54.72080993652344 592.8001708984375 53.39505386352539 593.068115234375 69.01783752441406 575.4318237304688 C 69.34146881103516 567.1943359375 105.25806427001953 544.2599487304688 62.19390106201172 554.0560302734375 C 64.07227325439453 551.639892578125 70.26481628417969 544.4263305664062 98.08090209960938 516.4419555664062" stroke-width="6.0" fill="none" stroke="rgb(0, 0, 0)" stroke-opacity="1.0" stroke-linecap="round" stroke-linejoin="round"/>
    <path d="M 541.7827758789062 545.9649658203125 C 561.9873657226562 555.4840087890625 547.0267944335938 572.2512817382812 568.346923828125 525.390380859375 C 532.78125 539.6343994140625 569.9744873046875 534.3433227539062 541.6891479492188 545.3915405273438 C 558.8236083984375 569.0528564453125 575.7091064453125 580.6053466796875 564.3230590820312 573.9512329101562 C 585.7195434570312 577.5740356445312 659.2539672851562 573.8215942382812 693.618896484375 560.07666015625" stroke-width="6.0" fill="none" stroke="rgb(0, 0, 0)" stroke-opacity="0.0" stroke-linecap="round" stroke-linejoin="round"/>
    <path d="M 253.25674438476562 518.5973510742188 C 263.1317138671875 512.6295166015625 233.51817321777344 503.9615478515625 254.44374084472656 504.5364990234375 C 268.8284912109375 527.4327392578125 255.5256805419922 524.7418823242188 225.65658569335938 482.1138610839844 C 245.38226318359375 511.2357482910156 251.61602783203125 525.520263671875 262.56219482421875 513.1253662109375 C 240.8009490966797 519.1153564453125 246.54286193847656 536.9844360351562 245.2098388671875 537.9378662109375" stroke-width="6.0" fill="none" stroke="rgb(0, 0, 0)" stroke-opacity="0.00030289966" stroke-linecap="round" stroke-linejoin="round"/>
    <path d="M 467.6616516113281 246.76864624023438 C 464.918701171875 207.2311248779297 454.9404602050781 184.34388732910156 462.16937255859375 194.1739501953125 C 441.9797668457031 235.135986328125 473.4316711425781 217.8702392578125 462.4944763183594 228.22976684570312 C 450.59979248046875 214.6398468017578 457.9207458496094 189.8748016357422 463.88861083984375 196.57601928710938 C 486.7372131347656 150.47091674804688 485.8763122558594 135.63511657714844 452.4687194824219 169.4254913330078" stroke-width="6.0" fill="none" stroke="rgb(0, 0, 0)" stroke-opacity="0.0" stroke-linecap="round" stroke-linejoin="round"/>
    <path d="M 69.31179809570312 -7.402349472045898 C 70.60427856445312 13.45549201965332 79.82725524902344 52.3749885559082 62.75958251953125 -10.154117584228516 C 28.444316864013672 0.026927148923277855 29.758766174316406 17.435697555541992 58.7114143371582 13.163714408874512 C 42.30515670776367 21.71160125732422 30.7347354888916 -20.070663452148438 -24.1434383392334 10.631072998046875 C -12.363576889038086 1.1588119268417358 2.507577657699585 -1.7109581232070923 37.91088104248047 16.78954315185547" stroke-width="6.0" fill="none" stroke="rgb(0, 0, 0)" stroke-opacity="0.0" stroke-linecap="round" stroke-linejoin="round"/>
    <path d="M 507.2753601074219 5.090762138366699 C 527.741943359375 9.230620384216309 522.430908203125 51.280250549316406 524.5731811523438 4.087220191955566 C 547.537109375 4.234624862670898 553.4265747070312 -1.4945006370544434 565.5732421875 14.901727676391602 C 518.6250610351562 -6.283422470092773 497.3620910644531 -14.07505989074707 547.8323974609375 -36.599090576171875 C 539.7008666992188 19.348691940307617 532.5906372070312 35.99943161010742 506.9681091308594 -5.474087238311768" stroke-width="6.0" fill="none" stroke="rgb(0, 0, 0)" stroke-opacity="0.0" stroke-linecap="round" stroke-linejoin="round"/>
  </g>
</svg>
