<?xml version="1.0" ?>
<svg xmlns="http://www.w3.org/2000/svg" version="1.1" width="600" height="600">
  <defs/>
  <g>
    <path d="M 146.30438232421875 403.89764404296875 C 143.33192443847656 490.46856689453125 159.78614807128906 436.6495056152344 158.37062072753906 400.8910217285156 C 191.73175048828125 448.1940002441406 187.1367950439453 495.0006103515625 182.3650360107422 465.2127685546875 C 138.24899291992188 516.8677978515625 132.68930053710938 498.95867919921875 151.5393829345703 506.88494873046875 C 156.6462860107422 450.1743469238281 115.75123596191406 498.4428405761719 92.97393798828125 375.2877502441406" stroke-width="6.0" fill="none" stroke="rgb(0, 0, 0)" stroke-opacity="0.99983704" stroke-linecap="round" stroke-linejoin="round"/>
    <path d="M 271.3440856933594 221.7815704345703 C 289.609619140625 222.0247039794922 276.9165344238281 208.4083709716797 273.01025390625 149.07406616210938 C 211.11854553222656 174.40296936035156 204.73085021972656 173.1453399658203 189.1893310546875 150.46514892578125 C 205.3212890625 140.76588439941406 179.39328002929688 120.00566864013672 180.89852905273438 95.41608428955078 C 150.66845703125 154.1118621826172 152.11526489257812 169.91204833984375 205.0817108154297 136.31637573242188" stroke-width="6.0" fill="none" stroke="rgb(0, 0, 0)" stroke-opacity="0.23473164" stroke-linecap="round" stroke-linejoin="round"/>
    <path d="M 277.9115905761719 514.4222412109375 C 335.23895263671875 503.44110107421875 344.0827941894531 436.6719970703125 301.1258850097656 476.1095886230469 C 270.2611999511719 497.5755615234375 374.8323974609375 466.4489440917969 347.40106201171875 507.0819091796875 C 292.2843017578125 457.458740234375 252.93560791015625 445.9775390625 307.4719543457031 448.0748291015625 C 336.4103088378906 430.4111633300781 324.08038330078125 437.5078430175781 239.7913818359375 418.9371643066406" stroke-width="6.0" fill="none" stroke="rgb(0, 0, 0)" stroke-opacity="0.9688589" stroke-linecap="round" stroke-linejoin="round"/>
    <path d="M 146.23382568359375 221.41616821289062 C 155.9626007080078 217.04493713378906 207.97055053710938 200.8285675048828 160.7535858154297 204.51695251464844 C 155.1038360595703 245.80075073242188 166.886962890625 211.864990234375 127.19207000732422 190.007568359375 C 143.01443481445312 180.2926025390625 146.20021057128906 212.7654571533203 142.5146942138672 235.667724609375 C 139.2449951171875 239.4771728515625 145.53512573242188 221.17613220214844 125.65629577636719 216.02066040039062" stroke-width="6.0" fill="none" stroke="rgb(0, 0, 0)" stroke-opacity="0.0" stroke-linecap="round" stroke-linejoin="round"/>
    <path d="M 220.99761962890625 622.2850341796875 C 194.070556640625 614.2691650390625 209.92868041992188 608.9848022460938 252.38357543945312 610.7085571289062 C 193.59780883789062 625.1062622070312 189.96182250976562 650.01220703125 165.01145935058594 663.0940551757812 C 176.95521545410156 646.5899047851562 162.29962158203125 653.6427612304688 170.31661987304688 640.2078247070312 C 174.02708435058594 656.6448974609375 175.57321166992188 679.3338623046875 183.02981567382812 671.1359252929688" stroke-width="6.0" fill="none" stroke="rgb(0, 0, 0)" stroke-opacity="0.4577234" stroke-linecap="round" stroke-linejoin="round"/>
    <path d="M 261.9129333496094 270.00244140625 C 254.2645263671875 258.23797607421875 260.13665771484375 244.7206573486328 262.72161865234375 283.1490478515625 C 252.64688110351562 219.05796813964844 265.52252197265625 237.97650146484375 277.78729248046875 291.6504821777344 C 240.8146514892578 302.0526123046875 231.76458740234375 285.2676696777344 275.0549621582031 305.08636474609375 C 290.4544982910156 309.8432922363281 291.9357604980469 316.7911376953125 233.7570037841797 339.5938720703125" stroke-width="6.0" fill="none" stroke="rgb(0, 0, 0)" stroke-opacity="1.0" stroke-linecap="round" stroke-linejoin="round"/>
    <path d="M 454.2235107421875 271.6802673339844 C 437.5970764160156 278.96429443359375 437.4435119628906 289.9010314941406 443.5302429199219 272.3996276855469 C 455.0479736328125 281.6745910644531 490.40643310546875 274.3238830566406 466.4233093261719 274.6650085449219 C 447.9219055175781 280.1647644042969 419.6295471191406 313.6636657714844 477.8947448730469 295.3612976074219 C 490.1800231933594 293.1607360839844 507.06744384765625 294.0686950683594 519.2447509765625 268.9502258300781" stroke-width="6.0" fill="none" stroke="rgb(0, 0, 0)" stroke-opacity="0.0" stroke-linecap="round" stroke-linejoin="round"/>
    <path d="M 61.615699768066406 415.9549560546875 C 78.00057220458984 471.1802978515625 70.10674285888672 496.7646484375 63.226558685302734 477.31964111328125 C 43.85390090942383 421.1462097167969 94.96802520751953 436.35052490234375 100.12456512451172 415.3746643066406 C 36.483497619628906 376.6468200683594 99.84756469726562 353.41943359375 78.45375061035156 377.33087158203125 C 133.4750518798828 343.45758056640625 142.06016540527344 297.4796142578125 175.84268188476562 336.6985778808594" stroke-width="6.0" fill="none" stroke="rgb(0, 0, 0)" stroke-opacity="1.0" stroke-linecap="round" stroke-linejoin="round"/>
    <path d="M 264.33154296875 456.654052734375 C 386.6266784667969 470.46783447265625 330.8157653808594 471.5518798828125 263.80487060546875 473.9742431640625 C 236.09429931640625 516.1492919921875 296.64361572265625 525.0716552734375 330.9049377441406 460.60455322265625 C 327.8600158691406 484.87347412109375 292.49310302734375 474.41021728515625 260.0958251953125 478.253662109375 C 289.2712707519531 446.29840087890625 291.32720947265625 430.79779052734375 278.0646667480469 421.7946472167969" stroke-width="6.0" fill="none" stroke="rgb(0, 0, 0)" stroke-opacity="0.99942195" stroke-linecap="round" stroke-linejoin="round"/>
    <path d="M 504.6280212402344 579.689453125 C 504.23370361328125 576.7003784179688 493.3067932128906 602.8733520507812 496.64337158203125 617.3740844726562 C 548.75927734375 607.0657348632812 545.0285034179688 618.4877319335938 571.0300903320312 610.768798828125 C 581.9423217773438 623.873046875 557.1536865234375 627.2021484375 538.1336059570312 642.5525512695312 C 556.8187255859375 627.5077514648438 561.5221557617188 619.8238525390625 571.443603515625 605.497314453125" stroke-width="6.0" fill="none" stroke="rgb(0, 0, 0)" stroke-opacity="0.0" stroke-linecap="round" stroke-linejoin="round"/>
    <path d="M 257.4034729003906 512.9684448242188 C 297.1900939941406 532.7892456054688 349.8615417480469 493.29150390625 374.2987060546875 536.270263671875 C 402.8164978027344 550.5552368164062 326.0185546875 546.5038452148438 270.0699462890625 562.1390991210938 C 270.13165283203125 524.3267822265625 253.19451904296875 543.6404418945312 357.0740966796875 528.597412109375 C 346.26104736328125 450.6299133300781 350.9406433105469 451.1724853515625 256.7637634277344 491.0520324707031" stroke-width="6.0" fill="none" stroke="rgb(0, 0, 0)" stroke-opacity="1.0" stroke-linecap="round" stroke-linejoin="round"/>
    <path d="M 515.633056640625 271.1969299316406 C 516.2305908203125 268.0585632324219 523.806884765625 270.82330322265625 533.2584838867188 247.49803161621094 C 518.7553100585938 187.44705200195312 466.2892150878906 264.16009521484375 498.0157775878906 227.62435913085938 C 492.51171875 182.67481994628906 418.5152587890625 212.326904296875 443.4911804199219 247.03396606445312 C 401.947509765625 288.92547607421875 474.23101806640625 281.1046447753906 431.922119140625 298.7709045410156" stroke-width="6.0" fill="none" stroke="rgb(0, 0, 0)" stroke-opacity="1.0" stroke-linecap="round" stroke-linejoin="round"/>
    <path d="M 390.1355895996094 513.7877197265625 C 428.5538635253906 571.784912109375 482.7029724121094 544.0750122070312 402.6980285644531 506.6107177734375 C 419.87384033203125 453.5187683105469 485.5991516113281 460.0762023925781 524.9921875 456.1520080566406 C 511.4561462402344 368.9909973144531 513.3263549804688 394.5977783203125 608.5570068359375 374.2071533203125 C 595.8209228515625 465.0416259765625 610.9190063476562 433.9599914550781 632.0708618164062 444.5562438964844" stroke-width="6.0" fill="none" stroke="rgb(0, 0, 0)" stroke-opacity="1.0" stroke-linecap="round" stroke-linejoin="round"/>
    <path d="M 294.44189453125 204.25721740722656 C 325.57757568359375 186.28749084472656 304.942138671875 184.0240478515625 250.55169677734375 171.73910522460938 C 225.84413146972656 179.11399841308594 256.6318054199219 218.25155639648438 272.74609375 219.34706115722656 C 267.0148620605469 184.69760131835938 264.0423583984375 128.05690002441406 243.71084594726562 168.34962463378906 C 216.66571044921875 187.50332641601562 237.637939453125 129.64930725097656 255.58804321289062 130.6987762451172" stroke-width="6.0" fill="none" stroke="rgb(0, 0, 0)" stroke-opacity="0.2227478" stroke-linecap="round" stroke-linejoin="round"/>
    <path d="M 184.32081604003906 523.7562866210938 C 154.56431579589844 587.9305419921875 179.33177185058594 586.5171508789062 176.92825317382812 609.4175415039062 C 150.64564514160156 646.541748046875 137.84153747558594 605.7940673828125 185.20106506347656 547.4502563476562 C 191.20082092285156 507.26092529296875 143.20452880859375 505.71466064453125 89.75737762451172 505.20947265625 C 122.72895050048828 551.9881591796875 104.97138214111328 526.9920654296875 118.55701446533203 536.916259765625" stroke-width="6.0" fill="none" stroke="rgb(0, 0, 0)" stroke-opacity="0.0" stroke-linecap="round" stroke-linejoin="round"/>
    <path d="M 303.71148681640625 324.99798583984375 C 296.3870849609375 363.9452819824219 347.2638854980469 378.09112548828125 363.8046569824219 372.18853759765625 C 443.2755432128906 346.88995361328125 416.8043518066406 348.341064453125 319.4586181640625 341.2463684082031 C 286.65411376953125 374.24755859375 371.0323791503906 363.9752502441406 432.4127197265625 359.4133605957031 C 388.9336853027344 379.64385986328125 374.91900634765625 369.6096496582031 437.4911804199219 389.3128662109375" stroke-width="6.0" fill="none" stroke="rgb(0, 0, 0)" stroke-opacity="1.0" stroke-linecap="round" stroke-linejoin="round"/>
    <path d="M 219.9278564453125 323.4059143066406 C 212.30238342285156 338.9382019042969 218.41026306152344 328.1275634765625 205.50746154785156 320.7420654296875 C 231.5831298828125 328.3095703125 251.02212524414062 318.56280517578125 224.32150268554688 307.79632568359375 C 197.91258239746094 301.7181091308594 218.60220336914062 295.57269287109375 144.62632751464844 315.8717956542969 C 147.00143432617188 340.451416015625 127.29582214355469 353.083984375 79.778564453125 367.5456237792969" stroke-width="6.0" fill="none" stroke="rgb(0, 0, 0)" stroke-opacity="1.0" stroke-linecap="round" stroke-linejoin="round"/>
    <path d="M 232.30235290527344 336.566650390625 C 199.1070556640625 376.6360778808594 205.090576171875 315.39556884765625 254.68385314941406 336.9512634277344 C 146.78038024902344 323.6557922363281 136.07949829101562 298.0810241699219 175.21969604492188 322.5706481933594 C 207.40406799316406 358.9880676269531 206.04966735839844 318.45751953125 208.87977600097656 291.58905029296875 C 194.56813049316406 312.89044189453125 198.8013916015625 349.9696044921875 188.94766235351562 389.74993896484375" stroke-width="6.0" fill="none" stroke="rgb(0, 0, 0)" stroke-opacity="0.0" stroke-linecap="round" stroke-linejoin="round"/>
    <path d="M 265.5771484375 325.6864013671875 C 320.4741516113281 332.23272705078125 324.62530517578125 312.3793640136719 347.4707946777344 308.66009521484375 C 345.1854248046875 295.0231628417969 345.8640441894531 289.352294921875 361.70233154296875 317.5813903808594 C 273.93121337890625 314.7536926269531 222.46603393554688 333.8207092285156 209.2484893798828 361.13470458984375 C 221.75039672851562 388.5590515136719 245.9149932861328 358.1971740722656 234.56341552734375 367.6112976074219" stroke-width="6.0" fill="none" stroke="rgb(0, 0, 0)" stroke-opacity="1.0" stroke-linecap="round" stroke-linejoin="round"/>
    <path d="M 199.56369018554688 375.5352478027344 C 180.21795654296875 384.5380554199219 304.6212158203125 387.4825134277344 311.37042236328125 378.86151123046875 C 222.75469970703125 385.51300048828125 170.5810546875 332.31292724609375 204.15118408203125 325.2706604003906 C 176.84678649902344 331.9547119140625 204.86529541015625 317.5909118652344 354.094482421875 305.7190856933594 C 322.9009094238281 285.19769287109375 296.0729064941406 288.91900634765625 201.497802734375 301.1073303222656" stroke-width="6.0" fill="none" stroke="rgb(0, 0, 0)" stroke-opacity="1.0" stroke-linecap="round" stroke-linejoin="round"/>
    <path d="M 447.54736328125 468.5636291503906 C 320.4993896484375 465.5805969238281 344.9683532714844 481.36181640625 359.0924377441406 531.4365844726562 C 391.93341064453125 488.0121765136719 385.42144775390625 471.06011962890625 385.75128173828125 491.9289855957031 C 355.87078857421875 550.826171875 368.89178466796875 532.2366943359375 334.58050537109375 477.8907775878906 C 418.4119567871094 475.7614440917969 365.8371887207031 474.757080078125 311.9444885253906 505.36370849609375" stroke-width="6.0" fill="none" stroke="rgb(0, 0, 0)" stroke-opacity="0.9633449" stroke-linecap="round" stroke-linejoin="round"/>
    <path d="M 342.94891357421875 147.6126251220703 C 328.0209045410156 118.9356689453125 323.84295654296875 108.3292236328125 339.4496154785156 109.12870025634766 C 312.5905456542969 125.0686264038086 312.3350524902344 144.47906494140625 265.632080078125 144.9241180419922 C 247.14817810058594 149.95350646972656 292.8476257324219 138.1016845703125 319.99951171875 139.29940795898438 C 264.0149841308594 142.34771728515625 261.4762268066406 128.25442504882812 237.38735961914062 145.03753662109375" stroke-width="6.0" fill="none" stroke="rgb(0, 0, 0)" stroke-opacity="0.0" stroke-linecap="round" stroke-linejoin="round"/>
    <path d="M 320.9551696777344 467.9322814941406 C 431.4275817871094 481.0079650878906 449.7469482421875 478.90704345703125 475.5335388183594 450.0611267089844 C 465.7649230957031 526.1560668945312 445.0923767089844 482.6329345703125 476.0836181640625 500.66302490234375 C 447.57275390625 486.8226623535156 483.1896057128906 502.11773681640625 464.4067687988281 473.9779357910156 C 502.0027160644531 423.3716735839844 517.5203247070312 427.5080871582031 501.7281188964844 511.14849853515625" stroke-width="6.0" fill="none" stroke="rgb(0, 0, 0)" stroke-opacity="1.0" stroke-linecap="round" stroke-linejoin="round"/>
    <path d="M 274.00030517578125 537.1085205078125 C 262.9519958496094 535.210693359375 249.74246215820312 534.1190185546875 254.9927978515625 535.7651977539062 C 213.49078369140625 525.3834838867188 250.3719024658203 541.6675415039062 185.8222198486328 548.587158203125 C 184.48875427246094 520.7545166015625 159.65391540527344 457.10772705078125 188.98072814941406 493.9505920410156 C 217.76707458496094 560.6659545898438 164.84072875976562 575.3051147460938 152.81080627441406 494.4308166503906" stroke-width="6.0" fill="none" stroke="rgb(0, 0, 0)" stroke-opacity="1.0" stroke-linecap="round" stroke-linejoin="round"/>
    <path d="M 183.1742401123047 134.82061767578125 C 153.679443359375 142.8656463623047 177.0830078125 126.98429870605469 235.67588806152344 117.4636459350586 C 195.23416137695312 127.01508331298828 176.4017333984375 120.28810119628906 157.04656982421875 135.74032592773438 C 186.75669860839844 112.69097900390625 126.22657012939453 106.68299102783203 154.43069458007812 134.13308715820312 C 164.0709228515625 169.4027557373047 187.61331176757812 202.97044372558594 169.01539611816406 139.40780639648438" stroke-width="6.0" fill="none" stroke="rgb(0, 0, 0)" stroke-opacity="0.31413838" stroke-linecap="round" stroke-linejoin="round"/>
    <path d="M 2.560081720352173 120.53962707519531 C 66.52159118652344 189.23712158203125 65.7726821899414 223.06101989746094 81.17237854003906 168.9362335205078 C 46.82160568237305 117.75914001464844 47.52192306518555 120.52373504638672 80.1049575805664 167.4952392578125 C 142.7657928466797 153.18658447265625 95.11907196044922 140.88653564453125 59.32185745239258 44.79200744628906 C 72.6976547241211 78.61908721923828 66.14852905273438 71.29925537109375 58.02607345581055 47.31654357910156" stroke-width="6.0" fill="none" stroke="rgb(0, 0, 0)" stroke-opacity="0.9999895" stroke-linecap="round" stroke-linejoin="round"/>
    <path d="M 47.41630935668945 392.5054626464844 C 61.950843811035156 375.8802490234375 63.00822830200195 347.54144287109375 53.20904541015625 423.02484130859375 C 1.2643262147903442 393.8970642089844 34.48521423339844 368.15771484375 68.07173156738281 346.7892150878906 C 112.07432556152344 364.8908996582031 133.55441284179688 356.3066101074219 113.03728485107422 318.8912048339844 C 59.72303771972656 335.8747253417969 70.85609436035156 305.01708984375 72.7028579711914 317.6251220703125" stroke-width="6.0" fill="none" stroke="rgb(0, 0, 0)" stroke-opacity="0.0" stroke-linecap="round" stroke-linejoin="round"/>
    <path d="M 148.06686401367188 118.20701599121094 C 153.3569793701172 129.04864501953125 142.64463806152344 102.03291320800781 139.14694213867188 106.39498138427734 C 126.41300964355469 66.52802276611328 103.6489028930664 28.58906364440918 120.15035247802734 49.039764404296875 C 138.84326171875 40.878807067871094 136.4325408935547 77.05946350097656 135.5499267578125 57.37721633911133 C 196.37574768066406 67.83589172363281 191.8688507080078 76.33250427246094 138.13710021972656 101.344482421875" stroke-width="6.0" fill="none" stroke="rgb(0, 0, 0)" stroke-opacity="0.37110204" stroke-linecap="round" stroke-linejoin="round"/>
    <path d="M 196.94224548339844 502.793212890625 C 168.73008728027344 501.2409973144531 172.33071899414062 508.8177490234375 235.2438201904297 496.40423583984375 C 261.93731689453125 556.1611938476562 244.647216796875 542.521240234375 226.22698974609375 482.459716796875 C 206.5859832763672 472.4579162597656 195.4469451904297 459.7181701660156 220.97645568847656 494.3614501953125 C 189.50222778320312 521.1077270507812 185.73667907714844 523.884765625 165.54115295410156 560.6414184570312" stroke-width="6.0" fill="none" stroke="rgb(0, 0, 0)" stroke-opacity="0.00032744417" stroke-linecap="round" stroke-linejoin="round"/>
    <path d="M 387.192138671875 479.05548095703125 C 479.2919006347656 448.8233642578125 504.6224060058594 471.6429443359375 378.5244140625 486.243896484375 C 408.6114501953125 511.91204833984375 477.1242980957031 450.7983703613281 504.3214416503906 501.3625793457031 C 523.306884765625 484.4927062988281 577.7382202148438 464.4402160644531 519.9625854492188 459.82452392578125 C 523.2913818359375 442.6492004394531 482.6060791015625 436.1172790527344 427.0111083984375 477.4172058105469" stroke-width="6.0" fill="none" stroke="rgb(0, 0, 0)" stroke-opacity="1.0" stroke-linecap="round" stroke-linejoin="round"/>
    <path d="M 549.2738647460938 497.425537109375 C 557.7859497070312 518.7026977539062 559.4618530273438 508.5001220703125 553.6444702148438 478.3110046386719 C 550.1189575195312 469.7396240234375 576.044189453125 457.62689208984375 594.9359741210938 437.6108703613281 C 566.62158203125 454.6846923828125 557.0888061523438 467.4117126464844 609.2684326171875 487.5043640136719 C 593.8978881835938 496.3669738769531 535.6997680664062 521.91064453125 535.9310302734375 506.4324645996094" stroke-width="6.0" fill="none" stroke="rgb(0, 0, 0)" stroke-opacity="0.011690295" stroke-linecap="round" stroke-linejoin="round"/>
    <path d="M 83.34266662597656 249.60665893554688 C 112.15199279785156 270.245361328125 88.47496032714844 262.0804748535156 105.26422119140625 262.3409118652344 C 98.42747497558594 290.9653015136719 120.90522003173828 283.5736389160156 160.64833068847656 290.34521484375 C 148.420166015625 287.25506591796875 106.00662231445312 288.77532958984375 100.40858459472656 282.981201171875 C 92.65967559814453 276.802490234375 23.69215202331543 281.6452331542969 98.63383483886719 294.6539611816406" stroke-width="6.0" fill="none" stroke="rgb(0, 0, 0)" stroke-opacity="0.0" stroke-linecap="round" stroke-linejoin="round"/>
    <path d="M 249.13775634765625 28.24986457824707 C 243.03515625 42.238006591796875 232.7475128173828 64.64805603027344 283.55291748046875 22.589553833007812 C 276.7100830078125 30.602405548095703 246.97528076171875 30.36447525024414 267.8709411621094 48.72068405151367 C 249.49095153808594 13.776269912719727 238.19981384277344 44.061614990234375 241.9946746826172 52.340721130371094 C 276.68994140625 16.33599853515625 268.6856384277344 38.16561508178711 250.59764099121094 63.176849365234375" stroke-width="6.0" fill="none" stroke="rgb(0, 0, 0)" stroke-opacity="0.0" stroke-linecap="round" stroke-linejoin="round"/>
    <path d="M 25.353622436523438 357.89862060546875 C 32.60616683959961 365.9647216796875 55.62495040893555 371.0440673828125 -9.157042503356934 381.5826110839844 C -7.475196361541748 393.5280456542969 13.082016944885254 378.6285705566406 24.35064697265625 369.60601806640625 C 28.20053482055664 355.58892822265625 -34.740272521972656 392.6784973144531 -59.23042297363281 370.65673828125 C -25.189714431762695 378.2244873046875 2.091284990310669 374.8980407714844 -12.871992111206055 379.51788330078125" stroke-width="6.0" fill="none" stroke="rgb(0, 0, 0)" stroke-opacity="0.0" stroke-linecap="round" stroke-linejoin="round"/>
    <path d="M 419.0672302246094 108.48228454589844 C 355.61053466796875 115.42369079589844 357.60882568359375 87.5246810913086 353.7353820800781 127.3538589477539 C 358.4004821777344 126.1773452758789 300.4198913574219 120.53661346435547 306.48077392578125 118.13936614990234 C 310.438720703125 211.84622192382812 303.59722900390625 208.5380096435547 333.1228942871094 157.56414794921875 C 381.6077880859375 182.98056030273438 395.2308044433594 191.56187438964844 392.4845275878906 158.22650146484375" stroke-width="6.0" fill="none" stroke="rgb(0, 0, 0)" stroke-opacity="0.27797833" stroke-linecap="round" stroke-linejoin="round"/>
    <path d="M 334.0750427246094 223.35244750976562 C 320.6638488769531 206.3230438232422 309.5151062011719 160.37350463867188 303.911376953125 128.17430114746094 C 292.5813903808594 159.09010314941406 297.03045654296875 196.00473022460938 297.99578857421875 127.67794799804688 C 261.6355895996094 109.92891693115234 250.13343811035156 144.23306274414062 252.4132537841797 83.23399353027344 C 279.7398681640625 98.72025299072266 267.9165954589844 86.41090393066406 269.8944396972656 51.48268508911133" stroke-width="6.0" fill="none" stroke="rgb(0, 0, 0)" stroke-opacity="0.3003135" stroke-linecap="round" stroke-linejoin="round"/>
    <path d="M 298.9060974121094 201.6123809814453 C 232.58993530273438 271.33367919921875 243.8194122314453 301.39556884765625 285.0465087890625 273.4140625 C 278.6730041503906 258.47979736328125 310.5276184082031 264.3779602050781 309.2403259277344 234.59242248535156 C 297.6327209472656 205.55857849121094 265.4425354003906 233.25376892089844 277.52484130859375 256.25677490234375 C 342.8503112792969 237.4801788330078 369.5913391113281 233.77854919433594 387.9090881347656 219.21136474609375" stroke-width="6.0" fill="none" stroke="rgb(0, 0, 0)" stroke-opacity="0.010825919" stroke-linecap="round" stroke-linejoin="round"/>
    <path d="M 369.1468505859375 446.6808166503906 C 403.4073791503906 471.6082763671875 402.171875 465.4884033203125 384.7228698730469 483.4207763671875 C 413.9998474121094 466.47003173828125 425.776611328125 446.517822265625 475.33392333984375 444.09991455078125 C 439.06475830078125 448.8217468261719 427.2194519042969 438.815673828125 447.51605224609375 471.69232177734375 C 465.48248291015625 387.7281799316406 440.4529113769531 372.42376708984375 406.06903076171875 377.3862609863281" stroke-width="6.0" fill="none" stroke="rgb(0, 0, 0)" stroke-opacity="0.0" stroke-linecap="round" stroke-linejoin="round"/>
    <path d="M 366.3004150390625 369.7464294433594 C 416.799560546875 343.43572998046875 416.0164794921875 363.71319580078125 310.1054382324219 348.4468688964844 C 317.625 369.4687194824219 349.7674865722656 360.56756591796875 364.5707702636719 347.20245361328125 C 303.0062255859375 383.5654296875 312.9795227050781 391.6989440917969 351.1702575683594 357.7801208496094 C 376.7809143066406 333.8020935058594 482.4990234375 335.8468933105469 467.5360412597656 315.2290954589844" stroke-width="6.0" fill="none" stroke="rgb(0, 0, 0)" stroke-opacity="1.0" stroke-linecap="round" stroke-linejoin="round"/>
    <path d="M 363.549560546875 359.7897644042969 C 384.6437072753906 346.16094970703125 380.9992980957031 294.2963562011719 369.2782897949219 305.06707763671875 C 390.2872009277344 300.5090637207031 378.45758056640625 303.1534118652344 341.1773986816406 361.64788818359375 C 349.69287109375 373.1429748535156 379.60101318359375 399.2409973144531 505.6854248046875 402.51922607421875 C 494.2124938964844 291.5761413574219 488.40521240234375 324.84130859375 497.2194519042969 313.5965270996094" stroke-width="6.0" fill="none" stroke="rgb(0, 0, 0)" stroke-opacity="0.0" stroke-linecap="round" stroke-linejoin="round"/>
    <path d="M 146.84405517578125 38.750892639160156 C 150.74810791015625 44.998477935791016 146.53030395507812 31.500835418701172 154.30609130859375 30.297183990478516 C 151.46873474121094 -8.502381324768066 141.95724487304688 -25.899370193481445 143.1244354248047 16.829500198364258 C 139.32522583007812 43.18634796142578 106.16445922851562 42.24028396606445 129.18316650390625 67.70243835449219 C 134.89498901367188 26.400617599487305 115.64915466308594 45.385948181152344 120.75296020507812 81.19918060302734" stroke-width="6.0" fill="none" stroke="rgb(0, 0, 0)" stroke-opacity="0.0" stroke-linecap="round" stroke-linejoin="round"/>
    <path d="M 612.1895751953125 506.1933898925781 C 545.5869750976562 475.7568664550781 514.7230834960938 491.9945983886719 506.97869873046875 475.5118103027344 C 493.47552490234375 525.8718872070312 543.7255249023438 484.5205993652344 460.72589111328125 487.84295654296875 C 486.8793640136719 490.0475769042969 502.93072509765625 512.4461669921875 541.5967407226562 470.5268249511719 C 509.9735107421875 434.83868408203125 510.6676025390625 522.7671508789062 488.7989196777344 444.1928405761719" stroke-width="6.0" fill="none" stroke="rgb(0, 0, 0)" stroke-opacity="1.0" stroke-linecap="round" stroke-linejoin="round"/>
    <path d="M 310.7507629394531 482.0921936035156 C 377.3001708984375 468.0583801269531 370.4556884765625 497.3821105957031 346.8755187988281 476.7091064453125 C 393.39788818359375 468.4717712402344 366.3251953125 482.5553283691406 322.4870300292969 518.852294921875 C 321.2991638183594 449.2626953125 374.2740783691406 471.2226867675781 337.8013916015625 504.9347839355469 C 371.5356750488281 520.56884765625 354.8709716796875 546.60400390625 389.0939025878906 492.3180236816406" stroke-width="6.0" fill="none" stroke="rgb(0, 0, 0)" stroke-opacity="0.86479115" stroke-linecap="round" stroke-linejoin="round"/>
    <path d="M 518.5341186523438 344.2436218261719 C 520.0458374023438 315.6016540527344 500.38092041015625 347.56939697265625 490.9534606933594 351.21868896484375 C 509.7142333984375 340.8367614746094 486.57855224609375 321.4075012207031 509.42266845703125 345.9388122558594 C 464.6337585449219 341.8614196777344 400.79388427734375 349.4798278808594 453.3241271972656 343.75469970703125 C 440.79998779296875 296.66204833984375 440.59320068359375 286.6494140625 476.7113037109375 287.70843505859375" stroke-width="6.0" fill="none" stroke="rgb(0, 0, 0)" stroke-opacity="0.0" stroke-linecap="round" stroke-linejoin="round"/>
    <path d="M 99.41523742675781 47.61431121826172 C 111.83075714111328 72.70711517333984 125.22379302978516 99.53929138183594 132.20208740234375 113.90216064453125 C 128.1837615966797 111.42662048339844 114.1907958984375 86.40819549560547 131.3717803955078 114.29837036132812 C 123.96087646484375 99.46920776367188 131.80197143554688 113.09918975830078 166.51280212402344 189.08892822265625 C 181.79940795898438 208.08961486816406 122.35315704345703 215.2982635498047 141.46395874023438 231.87486267089844" stroke-width="6.0" fill="none" stroke="rgb(0, 0, 0)" stroke-opacity="1.0" stroke-linecap="round" stroke-linejoin="round"/>
    <path d="M 251.58816528320312 329.29241943359375 C 217.0045928955078 338.1166076660156 207.96240234375 336.84991455078125 262.170654296875 300.1117248535156 C 281.5254821777344 275.72100830078125 308.9695129394531 282.12017822265625 297.90789794921875 282.9601745605469 C 276.0182800292969 298.9760437011719 224.00132751464844 292.5118103027344 261.9110107421875 283.74072265625 C 293.1225891113281 285.6247253417969 265.4949951171875 267.88043212890625 265.26947021484375 257.6571960449219" stroke-width="6.0" fill="none" stroke="rgb(0, 0, 0)" stroke-opacity="0.0" stroke-linecap="round" stroke-linejoin="round"/>
    <path d="M 324.9995422363281 234.3700408935547 C 333.20709228515625 249.52655029296875 350.78814697265625 209.56175231933594 347.911376953125 185.69833374023438 C 352.8660583496094 218.1959686279297 372.83892822265625 241.1593475341797 378.8853759765625 202.3297576904297 C 380.662109375 223.45974731445312 392.01129150390625 200.27085876464844 351.4596862792969 217.58782958984375 C 374.02545166015625 219.9766082763672 381.37994384765625 184.44190979003906 379.8191223144531 204.92320251464844" stroke-width="6.0" fill="none" stroke="rgb(0, 0, 0)" stroke-opacity="0.0" stroke-linecap="round" stroke-linejoin="round"/>
    <path d="M 451.1719055175781 543.4998779296875 C 463.7268371582031 546.6082153320312 468.02825927734375 559.6290893554688 474.8988952636719 570.6543579101562 C 487.74169921875 581.66943359375 504.16162109375 611.8829345703125 560.561279296875 606.4866333007812 C 558.1909790039062 580.19287109375 529.8973999023438 571.23291015625 510.0146484375 532.8040161132812 C 491.822998046875 565.6594848632812 489.4954833984375 567.6414184570312 493.0729675292969 569.4430541992188" stroke-width="6.0" fill="none" stroke="rgb(0, 0, 0)" stroke-opacity="0.0027785392" stroke-linecap="round" stroke-linejoin="round"/>
    <path d="M 540.571533203125 -15.36234188079834 C 527.7329711914062 24.294130325317383 530.0366821289062 -17.1085262298584 556.3932495117188 -27.98530387878418 C 591.2142944335938 39.8703498840332 559.938720703125 47.25783157348633 583.0270385742188 34.7115592956543 C 566.970703125 3.7892158031463623 546.3921508789062 -4.862630844116211 533.9938354492188 -15.438872337341309 C 512.0661010742188 15.664499282836914 511.2033996582031 -27.553375244140625 524.0917358398438 -49.548583984375" stroke-width="6.0" fill="none" stroke="rgb(0, 0, 0)" stroke-opacity="0.0" stroke-linecap="round" stroke-linejoin="round"/>
    <path d="M 338.813232421875 276.5350036621094 C 355.8753662109375 290.47833251953125 356.6732482910156 281.7419738769531 349.0335693359375 226.93162536621094 C 329.78973388671875 188.3045196533203 366.497314453125 203.47824096679688 360.93890380859375 225.59629821777344 C 320.08258056640625 217.41079711914062 268.4974060058594 228.42813110351562 301.4831237792969 215.62742614746094 C 349.4046325683594 237.78810119628906 367.55780029296875 239.9957275390625 351.4800109863281 240.1432342529297" stroke-width="6.0" fill="none" stroke="rgb(0, 0, 0)" stroke-opacity="0.0" stroke-linecap="round" stroke-linejoin="round"/>
    <path d="M 269.591552734375 337.8505554199219 C 257.3257141113281 346.2315979003906 265.2262268066406 386.58245849609375 238.97860717773438 421.8005065917969 C 246.37966918945312 426.26531982421875 226.0333251953125 420.3473205566406 307.1250915527344 405.804931640625 C 366.5054016113281 425.3675537109375 304.1759033203125 423.7132263183594 294.1910400390625 364.4481506347656 C 296.6915588378906 423.0819091796875 292.3391418457031 396.13623046875 324.9832763671875 316.1085205078125" stroke-width="6.0" fill="none" stroke="rgb(0, 0, 0)" stroke-opacity="0.008763779" stroke-linecap="round" stroke-linejoin="round"/>
    <path d="M 143.3096923828125 85.41035461425781 C 146.83644104003906 53.94285202026367 166.04922485351562 52.654273986816406 134.97015380859375 64.92237091064453 C 127.3631820678711 43.65506362915039 155.15675354003906 14.61915111541748 125.22461700439453 -4.188131332397461 C 116.62848663330078 23.162303924560547 119.37113189697266 50.41621398925781 146.1544952392578 11.938902854919434 C 111.51828002929688 -19.623058319091797 111.5169677734375 0.6932586431503296 106.11544036865234 -0.623967170715332" stroke-width="6.0" fill="none" stroke="rgb(0, 0, 0)" stroke-opacity="0.0" stroke-linecap="round" stroke-linejoin="round"/>
    <path d="M 450.2302551269531 47.89897918701172 C 438.1289367675781 85.8817138671875 443.4764099121094 77.54349517822266 482.5751647949219 59.19129943847656 C 476.4907531738281 124.7217788696289 477.1737976074219 113.7428970336914 429.9342956542969 115.375244140625 C 425.499755859375 107.40916442871094 404.9373779296875 124.20184326171875 436.7794189453125 62.81433868408203 C 472.0124206542969 96.22574615478516 403.68182373046875 126.29476165771484 433.21514892578125 117.33941650390625" stroke-width="6.0" fill="none" stroke="rgb(0, 0, 0)" stroke-opacity="0.4467392" stroke-linecap="round" stroke-linejoin="round"/>
    <path d="M 215.24209594726562 323.3180236816406 C 154.9646453857422 337.60595703125 180.19879150390625 323.59478759765625 195.7868194580078 370.3031311035156 C 181.77235412597656 333.1254577636719 180.12818908691406 350.51513671875 175.07037353515625 380.1614685058594 C 154.38232421875 401.2760314941406 200.91847229003906 357.4333801269531 174.61270141601562 334.07049560546875 C 195.71214294433594 320.3099060058594 192.55581665039062 348.4549560546875 284.9873046875 315.4875793457031" stroke-width="6.0" fill="none" stroke="rgb(0, 0, 0)" stroke-opacity="0.97663224" stroke-linecap="round" stroke-linejoin="round"/>
    <path d="M 61.28474044799805 416.0190734863281 C 30.490591049194336 334.47705078125 25.777605056762695 389.0780029296875 44.555572509765625 429.04083251953125 C 50.70771408081055 457.197509765625 62.35007095336914 458.490478515625 37.271888732910156 367.0207824707031 C 38.58335876464844 389.22698974609375 31.891586303710938 485.8844909667969 63.74678039550781 497.33599853515625 C 28.845043182373047 427.36285400390625 79.72035217285156 460.9757995605469 35.1976432800293 392.2275695800781" stroke-width="6.0" fill="none" stroke="rgb(0, 0, 0)" stroke-opacity="1.0" stroke-linecap="round" stroke-linejoin="round"/>
    <path d="M 148.1202392578125 425.8085632324219 C 152.70358276367188 401.7154235839844 145.22158813476562 448.6369323730469 168.41940307617188 422.5180969238281 C 173.9014129638672 445.0599670410156 171.86553955078125 425.8289794921875 176.21556091308594 486.848388671875 C 153.92034912109375 441.8646545410156 93.92582702636719 418.8086853027344 226.92970275878906 457.9764404296875 C 117.52703094482422 474.9556884765625 121.02644348144531 466.3647766113281 180.71287536621094 467.2666320800781" stroke-width="6.0" fill="none" stroke="rgb(0, 0, 0)" stroke-opacity="0.9795298" stroke-linecap="round" stroke-linejoin="round"/>
    <path d="M 351.0755615234375 376.00994873046875 C 289.67010498046875 344.81195068359375 291.9071044921875 353.8479919433594 313.68408203125 383.6894226074219 C 264.1021423339844 374.94903564453125 229.98788452148438 352.0846862792969 313.87786865234375 328.70721435546875 C 366.7763366699219 344.087646484375 377.2634582519531 320.3487854003906 430.335693359375 354.8922424316406 C 448.41973876953125 352.30474853515625 394.5245361328125 310.21722412109375 342.3601379394531 329.48468017578125" stroke-width="6.0" fill="none" stroke="rgb(0, 0, 0)" stroke-opacity="1.0" stroke-linecap="round" stroke-linejoin="round"/>
    <path d="M 238.0994110107422 184.13369750976562 C 219.63746643066406 194.6609649658203 270.91802978515625 182.28390502929688 264.9221496582031 188.95974731445312 C 250.91259765625 142.91470336914062 284.87109375 188.69662475585938 268.5050048828125 132.87356567382812 C 239.39236450195312 137.03036499023438 239.5781707763672 126.36968231201172 221.50657653808594 164.6315460205078 C 274.503662109375 153.70184326171875 277.41387939453125 172.47398376464844 238.76837158203125 182.10267639160156" stroke-width="6.0" fill="none" stroke="rgb(0, 0, 0)" stroke-opacity="0.14290328" stroke-linecap="round" stroke-linejoin="round"/>
    <path d="M 145.9347686767578 413.9347839355469 C 158.7418670654297 420.7204284667969 135.56948852539062 454.6777648925781 167.6248779296875 536.7880249023438 C 176.46200561523438 561.7797241210938 188.49037170410156 481.630859375 185.28988647460938 526.4070434570312 C 178.76177978515625 517.8524780273438 185.9755096435547 530.6804809570312 292.0584716796875 539.6488037109375 C 245.62583923339844 498.9935607910156 231.20884704589844 487.0199890136719 285.4819641113281 473.0906677246094" stroke-width="6.0" fill="none" stroke="rgb(0, 0, 0)" stroke-opacity="1.0" stroke-linecap="round" stroke-linejoin="round"/>
    <path d="M 547.7914428710938 -5.2581706047058105 C 541.845703125 -6.530178070068359 590.1417236328125 -9.090653419494629 597.61279296875 -15.407033920288086 C 543.876953125 -55.26674270629883 572.1033935546875 -51.0111083984375 569.6888427734375 -63.573246002197266 C 552.6900634765625 -48.812503814697266 539.1861572265625 -67.35143280029297 506.6578063964844 -71.7552490234375 C 506.949462890625 -53.89228057861328 483.2383117675781 -24.861780166625977 485.4339904785156 -4.408115386962891" stroke-width="6.0" fill="none" stroke="rgb(0, 0, 0)" stroke-opacity="0.0" stroke-linecap="round" stroke-linejoin="round"/>
    <path d="M 88.23954772949219 483.55572509765625 C 40.350887298583984 509.94683837890625 128.8782196044922 491.7734680175781 124.18084716796875 461.6859436035156 C 63.73322296142578 371.9423522949219 81.21407318115234 353.6280212402344 133.77928161621094 357.5582275390625 C 141.27149963378906 355.3160705566406 152.00917053222656 390.6963806152344 103.91751098632812 376.6069030761719 C 102.56957244873047 378.53448486328125 131.33810424804688 400.29010009765625 168.73904418945312 419.0680236816406" stroke-width="6.0" fill="none" stroke="rgb(0, 0, 0)" stroke-opacity="1.0" stroke-linecap="round" stroke-linejoin="round"/>
    <path d="M 119.92900848388672 348.1866149902344 C 133.96690368652344 329.4104309082031 136.155029296875 375.42645263671875 107.77182006835938 320.78485107421875 C 113.87442016601562 356.740966796875 124.16292572021484 352.3290100097656 128.6894073486328 357.0379333496094 C 121.88648223876953 340.7909851074219 122.48363494873047 370.20037841796875 160.0643310546875 301.95709228515625 C 144.63095092773438 310.95416259765625 40.97613525390625 307.988525390625 45.467411041259766 357.42822265625" stroke-width="6.0" fill="none" stroke="rgb(0, 0, 0)" stroke-opacity="1.0" stroke-linecap="round" stroke-linejoin="round"/>
    <path d="M 258.2690734863281 195.7703857421875 C 240.2755584716797 142.50851440429688 290.0860900878906 144.8638458251953 298.2314147949219 136.7252197265625 C 302.6119384765625 146.95846557617188 269.22491455078125 131.06983947753906 260.69061279296875 131.2747344970703 C 272.2933654785156 125.52323150634766 230.98626708984375 144.03619384765625 193.08856201171875 131.30751037597656 C 218.1256103515625 126.76124572753906 170.7950439453125 135.3352508544922 201.80752563476562 159.5613555908203" stroke-width="6.0" fill="none" stroke="rgb(0, 0, 0)" stroke-opacity="0.22216524" stroke-linecap="round" stroke-linejoin="round"/>
    <path d="M 284.2288818359375 355.3886413574219 C 397.2115783691406 379.5246887207031 310.0392150878906 377.7020568847656 294.65374755859375 376.0882568359375 C 288.9637451171875 330.35546875 230.45947265625 330.3848876953125 326.7577819824219 340.7773132324219 C 286.0264892578125 367.7576599121094 256.15081787109375 387.53411865234375 323.15216064453125 378.51202392578125 C 259.43695068359375 385.14739990234375 278.26165771484375 384.8853759765625 261.7830505371094 346.00787353515625" stroke-width="6.0" fill="none" stroke="rgb(0, 0, 0)" stroke-opacity="1.0" stroke-linecap="round" stroke-linejoin="round"/>
    <path d="M 257.7999267578125 258.990966796875 C 251.59129333496094 272.74468994140625 275.9543151855469 273.1216735839844 314.5499267578125 252.41831970214844 C 223.03231811523438 250.1571502685547 272.15667724609375 253.01368713378906 267.5546875 248.54933166503906 C 286.6316833496094 208.19015502929688 260.0155944824219 189.4672393798828 283.329345703125 232.10147094726562 C 277.107177734375 212.18299865722656 276.13995361328125 188.92689514160156 268.1015930175781 234.97166442871094" stroke-width="6.0" fill="none" stroke="rgb(0, 0, 0)" stroke-opacity="0.26199296" stroke-linecap="round" stroke-linejoin="round"/>
    <path d="M 213.5251007080078 366.7921142578125 C 218.2141571044922 395.96337890625 274.5818176269531 371.5521545410156 224.00424194335938 373.6484375 C 232.82431030273438 377.22686767578125 233.47232055664062 347.4671325683594 275.1277770996094 372.2962646484375 C 349.2877197265625 347.6641845703125 326.6767883300781 355.103515625 199.1806640625 338.3831787109375 C 182.15513610839844 337.3216857910156 197.9925537109375 337.40643310546875 302.65960693359375 349.71917724609375" stroke-width="6.0" fill="none" stroke="rgb(0, 0, 0)" stroke-opacity="1.0" stroke-linecap="round" stroke-linejoin="round"/>
    <path d="M 515.7058715820312 392.8553466796875 C 523.156982421875 388.4290466308594 523.9856567382812 362.7862548828125 553.4729614257812 339.5592956542969 C 532.0462036132812 360.06475830078125 522.3927612304688 370.0523681640625 513.5349731445312 389.0775451660156 C 558.9342651367188 380.6975402832031 542.7562866210938 391.7315673828125 506.5565185546875 369.9132385253906 C 498.0412902832031 330.7459716796875 514.1807250976562 323.7030334472656 501.5300598144531 327.1605224609375" stroke-width="6.0" fill="none" stroke="rgb(0, 0, 0)" stroke-opacity="0.014664138" stroke-linecap="round" stroke-linejoin="round"/>
    <path d="M 322.5909118652344 574.6039428710938 C 327.6058654785156 562.6705322265625 299.7315979003906 586.7299194335938 270.218994140625 571.3969116210938 C 260.2379455566406 589.0283203125 235.2944793701172 565.5545654296875 278.5389709472656 560.3629150390625 C 276.8614501953125 569.7801513671875 302.7582092285156 551.917236328125 267.0128173828125 517.130615234375 C 282.5035095214844 532.8312377929688 281.15899658203125 536.0504150390625 268.3465270996094 515.6849365234375" stroke-width="6.0" fill="none" stroke="rgb(0, 0, 0)" stroke-opacity="0.0075899162" stroke-linecap="round" stroke-linejoin="round"/>
    <path d="M 297.1617126464844 462.8255920410156 C 407.9971618652344 467.69451904296875 449.6761474609375 480.058349609375 473.18719482421875 474.1000061035156 C 365.5206604003906 477.4271240234375 360.47943115234375 489.3669738769531 406.7454833984375 477.7716979980469 C 409.0833740234375 449.2489318847656 434.7719421386719 459.4118347167969 313.5218811035156 450.3443603515625 C 296.88861083984375 452.6089782714844 315.3237609863281 469.6943054199219 298.56787109375 491.823486328125" stroke-width="6.0" fill="none" stroke="rgb(0, 0, 0)" stroke-opacity="1.0" stroke-linecap="round" stroke-linejoin="round"/>
    <path d="M 321.3728942871094 371.83050537109375 C 174.15269470214844 364.0582275390625 153.7269287109375 337.4921569824219 334.0948181152344 364.5132141113281 C 280.7334899902344 409.6391906738281 303.87322998046875 356.8189697265625 283.9875793457031 366.8901062011719 C 308.23779296875 360.2861633300781 337.55535888671875 340.6720275878906 311.8830871582031 357.5579833984375 C 310.99072265625 344.180419921875 258.68011474609375 315.915283203125 349.0418395996094 325.1049499511719" stroke-width="6.0" fill="none" stroke="rgb(0, 0, 0)" stroke-opacity="1.0" stroke-linecap="round" stroke-linejoin="round"/>
    <path d="M 41.437408447265625 401.0165100097656 C 73.45775604248047 468.49273681640625 158.30735778808594 481.45489501953125 151.4169921875 499.408935546875 C 38.45644760131836 473.70233154296875 46.89311599731445 438.1998596191406 55.85845184326172 383.4781799316406 C 73.4104232788086 358.5819091796875 100.72669982910156 426.4044494628906 111.87217712402344 461.1513671875 C 56.59563446044922 384.19891357421875 55.424171447753906 344.62579345703125 152.14234924316406 388.9202575683594" stroke-width="6.0" fill="none" stroke="rgb(0, 0, 0)" stroke-opacity="1.0" stroke-linecap="round" stroke-linejoin="round"/>
    <path d="M 334.37115478515625 191.34779357910156 C 322.5797424316406 202.50387573242188 321.7857666015625 207.96755981445312 309.0187683105469 192.23629760742188 C 315.7252197265625 247.1144561767578 310.8863525390625 265.4089660644531 290.188720703125 268.09161376953125 C 283.4975891113281 228.8572235107422 293.6454162597656 190.4671173095703 280.3492126464844 198.50198364257812 C 285.2494201660156 225.46446228027344 237.61367797851562 270.30047607421875 256.32708740234375 266.90728759765625" stroke-width="6.0" fill="none" stroke="rgb(0, 0, 0)" stroke-opacity="0.26524785" stroke-linecap="round" stroke-linejoin="round"/>
    <path d="M 435.8998107910156 392.0460510253906 C 421.227783203125 381.8263244628906 456.43341064453125 393.18878173828125 495.6591796875 418.3254089355469 C 499.7773132324219 403.3254089355469 450.6488952636719 387.4896240234375 417.3337707519531 359.1322937011719 C 465.3435363769531 317.7952575683594 498.3169250488281 336.8072509765625 510.15704345703125 408.5335388183594 C 415.74932861328125 472.0998840332031 454.62579345703125 459.1416931152344 423.60247802734375 437.3638610839844" stroke-width="6.0" fill="none" stroke="rgb(0, 0, 0)" stroke-opacity="1.0" stroke-linecap="round" stroke-linejoin="round"/>
    <path d="M 158.35098266601562 215.0386962890625 C 154.9894256591797 239.0157012939453 155.67221069335938 240.62974548339844 122.88960266113281 213.96011352539062 C 177.9333953857422 196.96795654296875 179.51943969726562 209.76873779296875 162.1294403076172 179.64474487304688 C 180.6169891357422 201.6007080078125 143.08554077148438 235.93467712402344 116.20172119140625 197.50450134277344 C 123.45616149902344 174.8346405029297 155.29769897460938 189.7429656982422 163.5469512939453 210.0897216796875" stroke-width="6.0" fill="none" stroke="rgb(0, 0, 0)" stroke-opacity="0.0" stroke-linecap="round" stroke-linejoin="round"/>
    <path d="M 120.09806823730469 346.51788330078125 C 143.81732177734375 313.8382568359375 147.10523986816406 325.23382568359375 131.72149658203125 329.6017150878906 C 164.27442932128906 301.0193176269531 128.5845184326172 319.1121520996094 72.72718811035156 329.49853515625 C 105.3097915649414 354.11199951171875 112.08507537841797 422.7164611816406 125.43274688720703 461.4922180175781 C 58.95021057128906 394.5679931640625 81.52486419677734 354.65777587890625 112.40750122070312 354.3596496582031" stroke-width="6.0" fill="none" stroke="rgb(0, 0, 0)" stroke-opacity="1.0" stroke-linecap="round" stroke-linejoin="round"/>
    <path d="M 532.5059814453125 448.08807373046875 C 660.1328125 457.9279479980469 681.328125 465.25146484375 715.7974853515625 457.4744567871094 C 597.1405029296875 577.972900390625 617.8016967773438 550.9859008789062 659.012939453125 530.4633178710938 C 625.9879760742188 519.5557861328125 628.4442749023438 524.2891845703125 590.22412109375 514.0606079101562 C 568.025146484375 506.9877624511719 567.0352172851562 506.68780517578125 559.0450439453125 504.7146301269531" stroke-width="6.0" fill="none" stroke="rgb(0, 0, 0)" stroke-opacity="1.0" stroke-linecap="round" stroke-linejoin="round"/>
    <path d="M 430.4938659667969 195.34906005859375 C 401.2967834472656 234.6355743408203 402.4960632324219 256.61700439453125 357.7410888671875 230.87887573242188 C 331.8553771972656 276.5852966308594 336.23529052734375 296.3281555175781 364.73553466796875 258.0285339355469 C 385.96136474609375 293.736083984375 328.51348876953125 319.25115966796875 378.9924621582031 343.1525573730469 C 378.9744567871094 293.2069091796875 364.1152038574219 300.857177734375 401.0621643066406 287.97686767578125" stroke-width="6.0" fill="none" stroke="rgb(0, 0, 0)" stroke-opacity="0.31942597" stroke-linecap="round" stroke-linejoin="round"/>
    <path d="M 247.24948120117188 226.7885284423828 C 269.21368408203125 213.58810424804688 240.40701293945312 250.3690948486328 245.6379852294922 255.29244995117188 C 249.4772186279297 214.71978759765625 216.96389770507812 256.86737060546875 259.3385009765625 249.58299255371094 C 250.05984497070312 231.1117706298828 292.89288330078125 235.421875 269.093505859375 217.63214111328125 C 253.9518585205078 275.4640197753906 295.3698425292969 230.22254943847656 261.5271911621094 207.98927307128906" stroke-width="6.0" fill="none" stroke="rgb(0, 0, 0)" stroke-opacity="0.0" stroke-linecap="round" stroke-linejoin="round"/>
    <path d="M -4.725221157073975 547.2210083007812 C 9.067167282104492 561.5473022460938 18.762310028076172 554.4369506835938 -2.7730233669281006 555.6734008789062 C 36.624305725097656 556.328125 107.2868881225586 557.646728515625 70.31501770019531 559.7678833007812 C 95.68492126464844 552.6339111328125 152.35736083984375 562.9037475585938 130.3208770751953 577.7276611328125 C 140.71908569335938 547.3651733398438 140.9476318359375 556.3980712890625 143.9384307861328 556.8681640625" stroke-width="6.0" fill="none" stroke="rgb(0, 0, 0)" stroke-opacity="0.0" stroke-linecap="round" stroke-linejoin="round"/>
    <path d="M 81.87177276611328 87.7734375 C 73.16802978515625 51.8992805480957 83.6015853881836 122.66041564941406 96.78937530517578 88.56305694580078 C 116.39332580566406 47.35139465332031 145.4329376220703 68.48641204833984 105.74048614501953 43.268714904785156 C 89.74168395996094 70.89690399169922 76.79644012451172 91.89434051513672 87.20407104492188 82.27771759033203 C 127.76841735839844 88.45755767822266 144.80694580078125 66.50000762939453 138.0733184814453 50.50353240966797" stroke-width="6.0" fill="none" stroke="rgb(0, 0, 0)" stroke-opacity="0.005128064" stroke-linecap="round" stroke-linejoin="round"/>
    <path d="M 299.8295593261719 214.6892547607422 C 258.8245849609375 252.97557067871094 287.7609558105469 252.12196350097656 312.5656433105469 238.88880920410156 C 299.460693359375 241.06536865234375 283.2247009277344 237.13363647460938 293.1650085449219 241.4442901611328 C 295.9212341308594 242.25631713867188 267.4207458496094 264.8971252441406 276.7303466796875 247.52870178222656 C 300.4740295410156 187.8940887451172 284.2776794433594 222.07960510253906 288.3886413574219 156.94412231445312" stroke-width="6.0" fill="none" stroke="rgb(0, 0, 0)" stroke-opacity="0.25436884" stroke-linecap="round" stroke-linejoin="round"/>
    <path d="M 315.68487548828125 472.854736328125 C 351.8107604980469 454.145263671875 423.1341857910156 486.8681335449219 408.18487548828125 456.4778747558594 C 412.6152648925781 456.9103088378906 379.7721862792969 452.4971923828125 437.60101318359375 457.30084228515625 C 450.1968994140625 416.79571533203125 419.84490966796875 440.0251770019531 421.89312744140625 428.9822998046875 C 382.3043518066406 464.9605407714844 410.9790344238281 453.114501953125 433.88385009765625 456.9942626953125" stroke-width="6.0" fill="none" stroke="rgb(0, 0, 0)" stroke-opacity="0.9441161" stroke-linecap="round" stroke-linejoin="round"/>
    <path d="M 287.1404113769531 466.7054138183594 C 262.2331848144531 507.6439208984375 234.8871307373047 511.38446044921875 279.1505126953125 476.298095703125 C 279.56268310546875 498.2215576171875 256.42596435546875 515.8496704101562 173.1133270263672 497.2568359375 C 186.20211791992188 552.1353149414062 196.6280059814453 531.223876953125 253.852294921875 533.1680908203125 C 240.5379180908203 608.451171875 236.0323944091797 641.7440185546875 217.30447387695312 657.3998413085938" stroke-width="6.0" fill="none" stroke="rgb(0, 0, 0)" stroke-opacity="0.99954736" stroke-linecap="round" stroke-linejoin="round"/>
    <path d="M 476.7560119628906 498.9105224609375 C 527.6279296875 525.005859375 513.5678100585938 512.24609375 527.7864990234375 519.3995361328125 C 495.97332763671875 504.4942626953125 458.3468933105469 498.5511169433594 461.18023681640625 495.27679443359375 C 512.9816284179688 513.397705078125 540.2332763671875 530.40673828125 608.3999633789062 553.9771728515625 C 637.0906372070312 587.07080078125 622.1256103515625 610.8642578125 567.626220703125 619.5370483398438" stroke-width="6.0" fill="none" stroke="rgb(0, 0, 0)" stroke-opacity="1.0" stroke-linecap="round" stroke-linejoin="round"/>
    <path d="M 456.2516784667969 463.0296325683594 C 530.9697875976562 402.7350158691406 544.2748413085938 426.3398742675781 498.62322998046875 356.4020080566406 C 500.2397155761719 490.6238708496094 493.47344970703125 502.086669921875 512.2186889648438 446.9619445800781 C 506.6024169921875 399.58477783203125 529.0664672851562 423.21044921875 509.30755615234375 481.51611328125 C 548.9747314453125 451.0989990234375 529.8562622070312 476.4450378417969 528.732666015625 404.50274658203125" stroke-width="6.0" fill="none" stroke="rgb(0, 0, 0)" stroke-opacity="1.0" stroke-linecap="round" stroke-linejoin="round"/>
    <path d="M 240.3872528076172 268.1729431152344 C 274.58819580078125 259.3594055175781 281.25750732421875 187.6328125 234.50767517089844 198.83607482910156 C 227.66929626464844 225.17483520507812 258.17474365234375 121.92588806152344 180.9174041748047 157.2869873046875 C 159.7267303466797 237.55609130859375 137.06570434570312 219.62445068359375 151.78526306152344 201.7554931640625 C 152.4623260498047 168.34024047851562 130.89234924316406 146.34848022460938 95.5447769165039 158.41769409179688" stroke-width="6.0" fill="none" stroke="rgb(0, 0, 0)" stroke-opacity="1.0" stroke-linecap="round" stroke-linejoin="round"/>
    <path d="M 344.7488708496094 148.05172729492188 C 372.2714538574219 138.19276428222656 332.45330810546875 109.71743774414062 333.783203125 133.31060791015625 C 335.2992248535156 123.81537628173828 302.6802673339844 142.7016143798828 326.8821105957031 170.10427856445312 C 315.62677001953125 141.34463500976562 322.6880798339844 178.13246154785156 328.7041015625 140.17083740234375 C 326.11456298828125 163.71945190429688 290.9043884277344 176.7708282470703 295.3684997558594 138.60324096679688" stroke-width="6.0" fill="none" stroke="rgb(0, 0, 0)" stroke-opacity="0.17373921" stroke-linecap="round" stroke-linejoin="round"/>
    <path d="M 567.6256713867188 259.11138916015625 C 532.808837890625 284.84716796875 574.5804443359375 305.3538818359375 529.0437622070312 300.01776123046875 C 502.59716796875 349.1171875 531.126953125 318.5733337402344 612.63818359375 296.2273254394531 C 582.8369140625 252.64627075195312 610.8699951171875 247.86033630371094 547.9278564453125 261.5059509277344 C 568.3524780273438 245.56163024902344 598.8308715820312 227.68179321289062 613.787841796875 210.5992889404297" stroke-width="6.0" fill="none" stroke="rgb(0, 0, 0)" stroke-opacity="0.998916" stroke-linecap="round" stroke-linejoin="round"/>
    <path d="M 162.21224975585938 146.00460815429688 C 135.48495483398438 103.71591186523438 171.10009765625 121.04278564453125 160.22512817382812 116.9085922241211 C 153.66778564453125 88.30998229980469 167.2313232421875 96.69617462158203 149.67013549804688 98.35234832763672 C 178.67984008789062 126.00703430175781 141.7774200439453 118.81192016601562 145.1573028564453 100.92386627197266 C 171.47073364257812 88.50369262695312 164.00384521484375 94.50233459472656 172.57470703125 114.52581024169922" stroke-width="6.0" fill="none" stroke="rgb(0, 0, 0)" stroke-opacity="0.24847019" stroke-linecap="round" stroke-linejoin="round"/>
    <path d="M 140.88128662109375 233.97503662109375 C 129.88369750976562 209.97767639160156 165.7073516845703 210.57444763183594 170.2395782470703 209.671142578125 C 179.57342529296875 223.47439575195312 168.4165496826172 217.0880889892578 183.8109893798828 133.52186584472656 C 179.28407287597656 146.05813598632812 210.3512420654297 152.41336059570312 234.62362670898438 148.2083282470703 C 235.83502197265625 131.8016357421875 223.25172424316406 102.93948364257812 219.54312133789062 81.693115234375" stroke-width="6.0" fill="none" stroke="rgb(0, 0, 0)" stroke-opacity="0.00076310127" stroke-linecap="round" stroke-linejoin="round"/>
    <path d="M 308.2613525390625 427.9326171875 C 292.1208190917969 424.6444396972656 196.6286163330078 407.65130615234375 250.48768615722656 416.9250183105469 C 281.08245849609375 464.15863037109375 319.3748779296875 474.77783203125 284.1230773925781 477.1260986328125 C 263.1944274902344 482.49896240234375 250.1800994873047 524.016845703125 299.337646484375 535.7978515625 C 264.86395263671875 524.6173706054688 248.7547607421875 519.6723022460938 288.8468017578125 475.9551086425781" stroke-width="6.0" fill="none" stroke="rgb(0, 0, 0)" stroke-opacity="0.9853215" stroke-linecap="round" stroke-linejoin="round"/>
    <path d="M 138.2179412841797 95.69420623779297 C 149.76063537597656 112.79436492919922 142.91098022460938 147.11851501464844 214.75985717773438 146.23817443847656 C 234.1245574951172 92.22007751464844 230.33828735351562 77.16812133789062 242.4283905029297 119.97071838378906 C 251.55906677246094 188.86705017089844 265.9843444824219 178.326171875 258.9980163574219 137.06796264648438 C 242.24493408203125 132.67813110351562 244.24578857421875 147.95382690429688 238.47633361816406 111.38690948486328" stroke-width="6.0" fill="none" stroke="rgb(0, 0, 0)" stroke-opacity="0.2869239" stroke-linecap="round" stroke-linejoin="round"/>
    <path d="M 107.0052261352539 108.70928192138672 C 158.96482849121094 105.41808319091797 176.80889892578125 113.67981719970703 154.53248596191406 135.18173217773438 C 174.51556396484375 125.88677978515625 147.45021057128906 89.1753921508789 142.22616577148438 69.66665649414062 C 125.16816711425781 99.78111267089844 121.57762145996094 107.76690673828125 124.1719970703125 103.59759521484375 C 89.36426544189453 95.91265106201172 56.428279876708984 112.47972869873047 67.14356231689453 122.38428497314453" stroke-width="6.0" fill="none" stroke="rgb(0, 0, 0)" stroke-opacity="0.0" stroke-linecap="round" stroke-linejoin="round"/>
    <path d="M 272.67779541015625 443.9757385253906 C 190.572265625 390.8657531738281 175.90313720703125 356.8897399902344 143.90628051757812 406.3130798339844 C 186.37802124023438 460.0631103515625 158.70980834960938 494.64068603515625 169.5266571044922 546.875732421875 C 216.6206512451172 472.78985595703125 176.90972900390625 469.19451904296875 167.5586700439453 482.2170104980469 C 130.03460693359375 426.76727294921875 176.57594299316406 391.41156005859375 129.94435119628906 374.03271484375" stroke-width="6.0" fill="none" stroke="rgb(0, 0, 0)" stroke-opacity="1.0" stroke-linecap="round" stroke-linejoin="round"/>
    <path d="M 319.4008483886719 471.3754577636719 C 380.052978515625 464.8697509765625 409.0768127441406 488.3355407714844 388.4899597167969 498.4836120605469 C 370.44732666015625 511.2186584472656 387.3615417480469 481.4164733886719 416.1686096191406 505.5676574707031 C 399.8072814941406 494.536865234375 352.9540100097656 472.099365234375 328.39935302734375 435.29364013671875 C 268.15008544921875 445.3101501464844 303.6866149902344 465.675048828125 363.9572448730469 462.06146240234375" stroke-width="6.0" fill="none" stroke="rgb(0, 0, 0)" stroke-opacity="0.0" stroke-linecap="round" stroke-linejoin="round"/>
    <path d="M 302.0580749511719 608.4497680664062 C 300.45025634765625 600.5994873046875 292.3590087890625 614.9463500976562 279.69049072265625 616.2667236328125 C 272.82281494140625 617.3134155273438 269.4681701660156 618.0989990234375 287.4792785644531 645.757568359375 C 316.4049987792969 628.6715087890625 320.8787841796875 631.3094482421875 331.4637145996094 608.2933959960938 C 327.33050537109375 621.3294677734375 352.1268310546875 627.3825073242188 337.1332092285156 615.533203125" stroke-width="6.0" fill="none" stroke="rgb(0, 0, 0)" stroke-opacity="0.18354903" stroke-linecap="round" stroke-linejoin="round"/>
    <path d="M 169.68809509277344 476.5631408691406 C 174.14227294921875 523.855224609375 153.55152893066406 555.853515625 139.5651092529297 528.4978637695312 C 181.18190002441406 522.5146484375 172.76739501953125 507.82879638671875 230.20826721191406 496.612548828125 C 230.4808349609375 504.9558410644531 258.4609069824219 523.7183227539062 228.33206176757812 535.2298583984375 C 234.69398498535156 553.7775268554688 244.71189880371094 542.3659057617188 229.0668487548828 546.4853515625" stroke-width="6.0" fill="none" stroke="rgb(0, 0, 0)" stroke-opacity="0.0" stroke-linecap="round" stroke-linejoin="round"/>
    <path d="M 160.5019989013672 292.3641357421875 C 153.07254028320312 290.8722839355469 179.45716857910156 267.0750732421875 189.9511260986328 256.101318359375 C 176.45314025878906 252.9026336669922 172.80154418945312 243.52659606933594 189.0077362060547 259.2629089355469 C 187.29495239257812 249.01950073242188 177.1333770751953 290.6219177246094 180.95411682128906 254.13729858398438 C 215.671142578125 242.99765014648438 194.81044006347656 275.52203369140625 195.81829833984375 267.134033203125" stroke-width="6.0" fill="none" stroke="rgb(0, 0, 0)" stroke-opacity="0.0" stroke-linecap="round" stroke-linejoin="round"/>
    <path d="M 380.09130859375 103.69609069824219 C 393.1307067871094 91.0196533203125 374.5997314453125 98.63414764404297 294.6453857421875 98.74617004394531 C 300.7752685546875 134.7436065673828 301.6032409667969 144.7399444580078 307.45855712890625 106.10254669189453 C 325.6815490722656 123.11199188232422 299.27294921875 158.8505401611328 283.3647155761719 166.9661102294922 C 263.34429931640625 161.30348205566406 275.1470642089844 172.8347625732422 305.5359191894531 171.64112854003906" stroke-width="6.0" fill="none" stroke="rgb(0, 0, 0)" stroke-opacity="0.0" stroke-linecap="round" stroke-linejoin="round"/>
    <path d="M 336.719482421875 325.3139343261719 C 340.1463623046875 361.1845703125 302.6815185546875 371.1921081542969 323.5836181640625 347.4641418457031 C 320.0189514160156 338.8530578613281 312.03997802734375 355.8734130859375 249.1529541015625 341.85626220703125 C 289.4453430175781 310.974365234375 303.6029052734375 304.8592834472656 268.39990234375 292.14007568359375 C 277.8855285644531 289.7718200683594 335.0720520019531 275.78265380859375 351.2603759765625 246.06698608398438" stroke-width="6.0" fill="none" stroke="rgb(0, 0, 0)" stroke-opacity="0.08757066" stroke-linecap="round" stroke-linejoin="round"/>
    <path d="M 327.74395751953125 225.24636840820312 C 331.7742614746094 212.82444763183594 375.607177734375 215.52171325683594 297.9182434082031 227.6080322265625 C 351.7483825683594 208.33059692382812 346.18585205078125 228.6768798828125 302.5372009277344 221.34710693359375 C 361.40069580078125 223.193603515625 383.70697021484375 212.0305938720703 377.09478759765625 210.2800750732422 C 355.2208557128906 203.63629150390625 330.20465087890625 205.83544921875 337.2457275390625 203.83543395996094" stroke-width="6.0" fill="none" stroke="rgb(0, 0, 0)" stroke-opacity="0.00010577554" stroke-linecap="round" stroke-linejoin="round"/>
    <path d="M 304.634033203125 14.308666229248047 C 302.0640563964844 34.09147644042969 296.116455078125 81.34907531738281 320.6500244140625 41.36480712890625 C 330.2406005859375 58.579139709472656 356.861083984375 86.80752563476562 345.1925354003906 69.5534896850586 C 385.3216857910156 65.57903289794922 323.62457275390625 30.38345718383789 303.4217224121094 46.5859489440918 C 294.32977294921875 48.5151252746582 309.6915283203125 42.49967956542969 307.7084045410156 72.80518341064453" stroke-width="6.0" fill="none" stroke="rgb(0, 0, 0)" stroke-opacity="0.0" stroke-linecap="round" stroke-linejoin="round"/>
    <path d="M 41.45902633666992 391.55792236328125 C 75.65430450439453 383.2668762207031 55.86526870727539 374.8604736328125 5.19959831237793 399.3134765625 C -26.029558181762695 376.400634765625 -5.913293838500977 355.2098083496094 -9.101576805114746 323.8624572753906 C -6.0351433753967285 288.5126037597656 -29.454256057739258 307.77911376953125 -8.559242248535156 314.8497009277344 C -16.9350528717041 315.5857238769531 -26.80428123474121 298.7765808105469 -23.76689338684082 266.4092712402344" stroke-width="6.0" fill="none" stroke="rgb(0, 0, 0)" stroke-opacity="0.054260008" stroke-linecap="round" stroke-linejoin="round"/>
    <path d="M 364.28863525390625 83.155517578125 C 382.6344909667969 22.37445831298828 370.2113952636719 23.408727645874023 360.161865234375 106.3569107055664 C 366.67431640625 60.551876068115234 365.4424743652344 62.58196258544922 402.52252197265625 65.38801574707031 C 378.5018615722656 56.08842086791992 388.521240234375 58.14202880859375 381.776611328125 89.05603790283203 C 362.89593505859375 105.11479187011719 359.54559326171875 77.59037017822266 361.8609924316406 84.1266860961914" stroke-width="6.0" fill="none" stroke="rgb(0, 0, 0)" stroke-opacity="0.42346564" stroke-linecap="round" stroke-linejoin="round"/>
    <path d="M 260.3119812011719 418.57196044921875 C 317.8221130371094 429.421630859375 342.7615661621094 423.112548828125 274.8235778808594 445.2108459472656 C 234.52439880371094 423.619140625 286.1037292480469 412.5496520996094 283.5806884765625 463.5832214355469 C 237.654052734375 507.67120361328125 224.70645141601562 504.6281433105469 276.2061767578125 490.2174072265625 C 250.3138885498047 523.3150634765625 275.9810791015625 529.3040771484375 243.76174926757812 501.05682373046875" stroke-width="6.0" fill="none" stroke="rgb(0, 0, 0)" stroke-opacity="1.0" stroke-linecap="round" stroke-linejoin="round"/>
    <path d="M 523.03515625 254.7670135498047 C 522.0558471679688 257.579833984375 539.4229736328125 274.23321533203125 534.6558227539062 279.9271240234375 C 518.8396606445312 251.76483154296875 532.755859375 235.99951171875 541.7651977539062 228.1791229248047 C 566.5861206054688 211.817138671875 561.1060791015625 213.51988220214844 606.384033203125 178.3965606689453 C 614.2869262695312 204.17892456054688 649.9449462890625 221.3577880859375 670.9572143554688 228.94142150878906" stroke-width="6.0" fill="none" stroke="rgb(0, 0, 0)" stroke-opacity="0.99355996" stroke-linecap="round" stroke-linejoin="round"/>
    <path d="M 70.7146987915039 574.9131469726562 C 46.789066314697266 543.778076171875 73.40999603271484 548.2305908203125 59.280723571777344 554.38671875 C 68.22198486328125 579.909912109375 65.33600616455078 569.798583984375 153.95919799804688 569.9339599609375 C 146.12608337402344 581.9320068359375 148.6485137939453 619.1558227539062 155.75645446777344 660.6901245117188 C 116.68657684326172 611.8027954101562 143.6988983154297 639.1597290039062 153.94384765625 659.1185913085938" stroke-width="6.0" fill="none" stroke="rgb(0, 0, 0)" stroke-opacity="0.0" stroke-linecap="round" stroke-linejoin="round"/>
    <path d="M 299.419677734375 329.9750061035156 C 227.3776092529297 356.6216125488281 241.43417358398438 385.8035888671875 323.1212463378906 354.2788391113281 C 232.66802978515625 332.11376953125 221.73916625976562 352.239501953125 202.842041015625 346.095458984375 C 206.27919006347656 380.4234313964844 250.6175079345703 340.8033752441406 329.25030517578125 388.98138427734375 C 149.2596893310547 377.614501953125 165.90130615234375 388.8938293457031 143.99562072753906 368.9415283203125" stroke-width="6.0" fill="none" stroke="rgb(0, 0, 0)" stroke-opacity="1.0" stroke-linecap="round" stroke-linejoin="round"/>
    <path d="M 466.1082763671875 64.45940399169922 C 480.8468933105469 60.8630485534668 467.51361083984375 56.80432891845703 431.9491882324219 46.414764404296875 C 402.6755676269531 11.115859985351562 423.5341796875 57.11509323120117 416.58905029296875 29.348291397094727 C 432.80853271484375 33.25837326049805 420.808349609375 58.86935043334961 396.8197021484375 37.29697036743164 C 364.3074035644531 92.22824096679688 340.920166015625 105.07332611083984 370.0884704589844 92.63726806640625" stroke-width="6.0" fill="none" stroke="rgb(0, 0, 0)" stroke-opacity="0.0" stroke-linecap="round" stroke-linejoin="round"/>
    <path d="M 522.1751708984375 101.96598815917969 C 526.5494384765625 93.3907699584961 522.0459594726562 106.74581909179688 458.5644226074219 210.5989990234375 C 395.5694274902344 210.23255920410156 474.9881896972656 143.4542694091797 498.4944152832031 52.57247543334961 C 477.8258972167969 103.02208709716797 410.0920715332031 158.5701904296875 481.4369812011719 210.7491912841797 C 537.1088256835938 130.18948364257812 523.5134887695312 147.9656982421875 588.7644653320312 47.69954299926758" stroke-width="6.0" fill="none" stroke="rgb(0, 0, 0)" stroke-opacity="1.0" stroke-linecap="round" stroke-linejoin="round"/>
    <path d="M 276.0039978027344 164.28826904296875 C 294.3233947753906 161.48306274414062 284.1847839355469 162.33766174316406 275.92791748046875 172.21141052246094 C 269.47357177734375 115.33167266845703 255.9073028564453 104.87401580810547 262.21221923828125 130.9955291748047 C 240.36083984375 148.2528839111328 280.70758056640625 115.38336944580078 255.50270080566406 127.7750473022461 C 275.774658203125 189.59031677246094 258.26226806640625 220.15330505371094 233.75091552734375 162.28733825683594" stroke-width="6.0" fill="none" stroke="rgb(0, 0, 0)" stroke-opacity="0.108686894" stroke-linecap="round" stroke-linejoin="round"/>
    <path d="M 603.5144653320312 516.9471435546875 C 624.1956787109375 519.4833374023438 607.1148681640625 505.7198791503906 633.4654541015625 513.522216796875 C 616.0586547851562 522.4223022460938 604.6566162109375 536.0299682617188 625.7554931640625 553.5896606445312 C 644.0068969726562 553.5391845703125 634.8997802734375 564.0296020507812 627.8343505859375 566.65771484375 C 618.2827758789062 552.1234130859375 615.3341674804688 565.109375 616.5889282226562 594.0260009765625" stroke-width="6.0" fill="none" stroke="rgb(0, 0, 0)" stroke-opacity="0.024310816" stroke-linecap="round" stroke-linejoin="round"/>
    <path d="M 123.6064453125 89.02960205078125 C 122.33748626708984 85.51228332519531 60.77703094482422 94.72782135009766 29.224777221679688 85.43167114257812 C 28.462827682495117 62.66924285888672 20.17510223388672 59.364158630371094 47.49543762207031 79.06689453125 C 8.332898139953613 105.52220153808594 33.1680793762207 101.10918426513672 62.031959533691406 132.86700439453125 C 85.11925506591797 127.81763458251953 108.99686431884766 166.34719848632812 67.31829833984375 176.3993377685547" stroke-width="6.0" fill="none" stroke="rgb(0, 0, 0)" stroke-opacity="0.0" stroke-linecap="round" stroke-linejoin="round"/>
    <path d="M 502.5860900878906 570.483642578125 C 505.014892578125 591.30224609375 482.7862243652344 565.3248901367188 514.2186279296875 618.584716796875 C 531.6533203125 643.1636962890625 531.9860229492188 643.8418579101562 523.06591796875 614.3639526367188 C 503.8724060058594 582.2965087890625 480.5578918457031 602.4705810546875 513.740234375 627.1583862304688 C 523.30859375 619.1763916015625 507.17864990234375 646.0054321289062 488.17022705078125 645.7608032226562" stroke-width="6.0" fill="none" stroke="rgb(0, 0, 0)" stroke-opacity="0.0" stroke-linecap="round" stroke-linejoin="round"/>
    <path d="M 292.3941650390625 236.6215362548828 C 315.8739013671875 232.51364135742188 334.336181640625 198.39657592773438 347.67828369140625 166.9606170654297 C 333.5024108886719 186.18359375 354.1247253417969 182.87045288085938 296.40191650390625 171.1802520751953 C 304.7251281738281 236.95140075683594 290.96429443359375 213.8632049560547 317.8922424316406 255.59422302246094 C 312.7352294921875 236.9886932373047 253.0651092529297 250.0020751953125 266.2578430175781 254.3573455810547" stroke-width="6.0" fill="none" stroke="rgb(0, 0, 0)" stroke-opacity="0.301688" stroke-linecap="round" stroke-linejoin="round"/>
    <path d="M 561.5966186523438 158.25088500976562 C 561.4860229492188 170.20201110839844 560.5003051757812 164.28533935546875 560.9552001953125 164.255859375 C 558.3140869140625 153.28172302246094 584.6589965820312 116.97835540771484 604.7564697265625 146.24510192871094 C 603.1292724609375 214.5428009033203 526.1824951171875 172.77769470214844 582.216552734375 132.70655822753906 C 617.7503051757812 86.99679565429688 608.974853515625 92.86846160888672 635.0357055664062 123.60910034179688" stroke-width="6.0" fill="none" stroke="rgb(0, 0, 0)" stroke-opacity="0.99489284" stroke-linecap="round" stroke-linejoin="round"/>
    <path d="M 510.7031555175781 203.23387145996094 C 594.3636474609375 97.06719207763672 595.3906860351562 96.00672149658203 577.3304443359375 92.1661376953125 C 549.2689208984375 128.4964141845703 565.7098999023438 101.95309448242188 577.5217895507812 91.20919036865234 C 564.2533569335938 106.12782287597656 578.343505859375 88.28829193115234 615.8400268554688 34.806182861328125 C 628.7465209960938 57.12824630737305 590.54296875 98.0957260131836 556.7567138671875 142.54916381835938" stroke-width="6.0" fill="none" stroke="rgb(0, 0, 0)" stroke-opacity="1.0" stroke-linecap="round" stroke-linejoin="round"/>
    <path d="M 283.1455383300781 123.60868835449219 C 275.7297058105469 206.21591186523438 301.4174499511719 182.5972900390625 309.4193420410156 134.4759063720703 C 341.7952880859375 137.1898193359375 334.2958068847656 146.6581573486328 334.1328125 141.674560546875 C 332.9823913574219 160.72637939453125 315.8590393066406 183.00189208984375 319.3937072753906 136.2584228515625 C 295.5520935058594 130.21368408203125 322.6192321777344 137.94686889648438 332.0831604003906 139.27951049804688" stroke-width="6.0" fill="none" stroke="rgb(0, 0, 0)" stroke-opacity="0.26905185" stroke-linecap="round" stroke-linejoin="round"/>
    <path d="M 466.4192810058594 311.2054748535156 C 415.7998046875 299.1007080078125 435.8528747558594 342.6614990234375 474.0415344238281 337.3901062011719 C 468.25921630859375 337.2807922363281 499.98211669921875 349.7540588378906 500.8247985839844 376.22100830078125 C 499.2576904296875 353.3154296875 499.9979553222656 398.2948913574219 467.6600646972656 404.2093505859375 C 558.9396362304688 417.7382507324219 522.2743530273438 384.0086669921875 489.903564453125 465.0755615234375" stroke-width="6.0" fill="none" stroke="rgb(0, 0, 0)" stroke-opacity="1.0" stroke-linecap="round" stroke-linejoin="round"/>
    <path d="M 358.30609130859375 483.4254455566406 C 372.17401123046875 506.0668029785156 333.387939453125 529.9651489257812 310.52435302734375 487.77630615234375 C 383.70623779296875 517.5699462890625 360.6758728027344 497.4911193847656 313.91448974609375 489.2116394042969 C 360.3507080078125 496.3471374511719 341.17462158203125 513.2053833007812 278.41217041015625 507.7876281738281 C 359.99676513671875 459.2243347167969 404.1861877441406 460.1414489746094 337.5440368652344 511.57598876953125" stroke-width="6.0" fill="none" stroke="rgb(0, 0, 0)" stroke-opacity="0.9152269" stroke-linecap="round" stroke-linejoin="round"/>
    <path d="M 354.6261901855469 303.5029602050781 C 418.853759765625 323.2933654785156 441.07989501953125 335.8507080078125 454.0438537597656 341.4751892089844 C 366.3603210449219 372.8381042480469 266.95428466796875 403.53741455078125 367.85833740234375 378.0119323730469 C 415.716064453125 369.6969909667969 425.767822265625 347.942138671875 468.83795166015625 336.027587890625 C 502.6553955078125 357.926513671875 490.89508056640625 356.9109191894531 496.0321044921875 353.6053771972656" stroke-width="6.0" fill="none" stroke="rgb(0, 0, 0)" stroke-opacity="1.0" stroke-linecap="round" stroke-linejoin="round"/>
    <path d="M 240.1940460205078 367.0520324707031 C 218.14244079589844 371.8655700683594 263.92303466796875 387.0914001464844 306.29180908203125 423.6759033203125 C 324.2110900878906 425.193359375 300.6661376953125 473.1983947753906 270.11962890625 524.052734375 C 285.2043762207031 522.7650756835938 279.1398620605469 537.9011840820312 258.4715576171875 505.284912109375 C 243.8624725341797 481.8308410644531 261.5306701660156 490.0752868652344 314.5946044921875 508.8403015136719" stroke-width="6.0" fill="none" stroke="rgb(0, 0, 0)" stroke-opacity="0.90363115" stroke-linecap="round" stroke-linejoin="round"/>
    <path d="M 370.9658203125 557.7628784179688 C 390.2283630371094 559.5816650390625 371.83331298828125 566.649658203125 389.544189453125 545.630615234375 C 384.9187927246094 567.5968627929688 372.83734130859375 555.7265625 375.2964172363281 486.25823974609375 C 381.9516906738281 548.597900390625 382.8608093261719 531.1708984375 340.7065124511719 508.60064697265625 C 383.798583984375 529.159423828125 377.751708984375 564.30322265625 388.5634460449219 552.3309326171875" stroke-width="6.0" fill="none" stroke="rgb(0, 0, 0)" stroke-opacity="0.0" stroke-linecap="round" stroke-linejoin="round"/>
    <path d="M 258.8624267578125 512.497314453125 C 268.9013671875 454.95611572265625 297.28204345703125 428.1893310546875 325.78875732421875 427.4881286621094 C 319.40093994140625 463.3339538574219 260.799560546875 464.6238708496094 314.2860412597656 524.70068359375 C 300.11004638671875 438.92132568359375 306.172119140625 408.5378112792969 293.2709045410156 446.4643249511719 C 247.63478088378906 434.72808837890625 267.2769775390625 436.56072998046875 287.50830078125 422.2014465332031" stroke-width="6.0" fill="none" stroke="rgb(0, 0, 0)" stroke-opacity="0.9167078" stroke-linecap="round" stroke-linejoin="round"/>
    <path d="M 365.64141845703125 381.9617614746094 C 371.5689392089844 385.8329162597656 399.00640869140625 406.65936279296875 401.334716796875 410.9193420410156 C 437.3641357421875 445.5466003417969 456.0571594238281 460.5218505859375 423.1829833984375 456.1501159667969 C 445.69500732421875 459.8066711425781 474.7087707519531 447.2202453613281 462.9110412597656 399.9134521484375 C 478.1065979003906 401.0885925292969 478.0164489746094 363.71929931640625 465.5621643066406 343.8843994140625" stroke-width="6.0" fill="none" stroke="rgb(0, 0, 0)" stroke-opacity="0.97811043" stroke-linecap="round" stroke-linejoin="round"/>
    <path d="M 411.5699768066406 478.5627746582031 C 444.4111328125 464.5030517578125 336.690673828125 460.3023376464844 358.2745361328125 530.3434448242188 C 382.304931640625 494.10772705078125 417.32708740234375 509.2441101074219 477.553466796875 483.35736083984375 C 528.385009765625 513.1397094726562 493.68695068359375 514.6278076171875 487.4934387207031 504.2132873535156 C 452.55450439453125 506.40374755859375 453.17535400390625 433.22998046875 495.0169677734375 473.8231506347656" stroke-width="6.0" fill="none" stroke="rgb(0, 0, 0)" stroke-opacity="0.99384165" stroke-linecap="round" stroke-linejoin="round"/>
    <path d="M 82.05473327636719 202.3953094482422 C 75.29432678222656 179.21368408203125 106.05075073242188 154.6750030517578 121.79022979736328 166.3798828125 C 106.58184051513672 170.8989715576172 127.07012939453125 214.484375 150.8317108154297 201.3891143798828 C 112.52716064453125 206.26446533203125 149.87371826171875 214.82308959960938 169.28945922851562 190.3231964111328 C 164.16473388671875 174.94003295898438 158.42381286621094 213.07595825195312 99.7718505859375 192.2320556640625" stroke-width="6.0" fill="none" stroke="rgb(0, 0, 0)" stroke-opacity="0.0" stroke-linecap="round" stroke-linejoin="round"/>
    <path d="M 336.1005859375 136.7010955810547 C 333.29864501953125 117.0886459350586 339.5732116699219 84.62952423095703 339.0762023925781 69.1369857788086 C 348.1153564453125 89.014404296875 383.6795654296875 104.6714096069336 372.9316711425781 96.11409759521484 C 386.1000061035156 103.3369140625 431.6784362792969 114.0190200805664 414.90692138671875 159.12928771972656 C 350.1986083984375 161.34844970703125 375.6466064453125 164.55746459960938 402.19354248046875 82.15351867675781" stroke-width="6.0" fill="none" stroke="rgb(0, 0, 0)" stroke-opacity="0.26977584" stroke-linecap="round" stroke-linejoin="round"/>
  </g>
</svg>
