<?xml version="1.0" ?>
<svg xmlns="http://www.w3.org/2000/svg" version="1.1" width="240" height="240">
  <defs/>
  <g>
    <path d="M 238.4495849609375 177.4471893310547 C 232.38804626464844 217.05287170410156 115.24372863769531 237.29417419433594 37.06295394897461 208.92898559570312 C -2.582380533218384 190.41567993164062 -2.9704129695892334 185.80699157714844 6.265313148498535 123.27435302734375 C 27.16976547241211 21.125844955444336 98.43289184570312 9.600945472717285 152.66888427734375 21.68915367126465 C 221.32293701171875 40.28089904785156 238.88970947265625 117.22933959960938 238.4495849609375 177.4471893310547" stroke-width="0.0" fill="rgb(252, 186, 0)" opacity="0.8881475"/>
    <path d="M 181.03126525878906 132.5847930908203 C 207.81173706054688 121.96916198730469 178.37155151367188 189.76138305664062 112.42700958251953 184.09828186035156 C 57.371543884277344 180.01406860351562 34.878849029541016 121.27102661132812 58.94085693359375 132.8860626220703 C 73.52359771728516 174.00436401367188 120.71868896484375 178.7843780517578 145.58204650878906 168.53567504882812 C 131.94969177246094 171.3456573486328 169.50238037109375 167.8365020751953 181.03126525878906 132.5847930908203" stroke-width="0.0" fill="rgb(35, 39, 48)" opacity="0.9437331"/>
    <path d="M 215.4283447265625 171.7908935546875 C 215.80421447753906 184.65277099609375 203.05935668945312 198.14430236816406 189.9240264892578 194.67190551757812 C 177.90933227539062 191.8892822265625 169.29278564453125 176.9232177734375 156.03892517089844 176.3163299560547 C 180.53207397460938 164.42178344726562 188.40130615234375 145.11724853515625 190.7122344970703 138.79254150390625 C 202.6393585205078 141.70970153808594 216.1188507080078 157.8280487060547 215.4283447265625 171.7908935546875" stroke-width="0.0" fill="rgb(211, 78, 149)" opacity="0.9094456"/>
    <path d="M 96.9518814086914 107.13240814208984 C 83.50434112548828 92.44657135009766 85.36651611328125 94.3830337524414 90.0592269897461 99.82916259765625 C 74.7700424194336 88.96389770507812 60.423919677734375 98.43785858154297 56.31748580932617 106.46646881103516 C 35.57619857788086 108.82197570800781 59.181007385253906 76.43531799316406 87.45536804199219 86.75735473632812 C 95.81160736083984 89.11223602294922 113.43824005126953 104.79185485839844 96.9518814086914 107.13240814208984" stroke-width="0.0" fill="rgb(45, 46, 46)" opacity="0.98604876"/>
    <path d="M 184.53988647460938 106.65399169921875 C 174.11575317382812 95.70043182373047 174.9137725830078 96.96952819824219 181.76260375976562 103.04133605957031 C 169.233154296875 89.89781951904297 151.40988159179688 94.02566528320312 144.1844940185547 106.60444641113281 C 127.0384750366211 107.46202850341797 141.73681640625 87.70098876953125 157.81263732910156 85.34667205810547 C 182.22291564941406 80.15718841552734 203.106689453125 107.3087158203125 184.53988647460938 106.65399169921875" stroke-width="0.0" fill="rgb(44, 45, 47)" opacity="0.9830166"/>
  </g>
</svg>
