<?xml version="1.0" ?>
<svg xmlns="http://www.w3.org/2000/svg" version="1.1" width="240" height="240">
  <defs/>
  <g>
    <path d="M 238.439208984375 177.49412536621094 C 232.27915954589844 217.0369873046875 115.6064682006836 237.20169067382812 37.40840148925781 209.057861328125 C -2.4012625217437744 190.5691680908203 -3.1987786293029785 186.17689514160156 6.421657562255859 122.57677459716797 C 27.479642868041992 21.025646209716797 98.67619323730469 9.50812816619873 153.0655975341797 21.802520751953125 C 220.86131286621094 40.42534255981445 238.8802032470703 116.28584289550781 238.439208984375 177.49412536621094" stroke-width="0.0" fill="rgb(252, 186, 0)" opacity="0.88743675"/>
    <path d="M 181.1118927001953 132.5772247314453 C 205.47239685058594 122.77136993408203 183.5011444091797 180.42335510253906 125.38654327392578 184.28518676757812 C 59.58504104614258 188.45774841308594 33.46366500854492 120.0198974609375 59.03110885620117 133.05043029785156 C 73.44934844970703 174.7303009033203 121.43142700195312 173.65957641601562 118.75251770019531 172.78677368164062 C 123.33515930175781 174.04159545898438 167.31182861328125 172.84390258789062 181.1118927001953 132.5772247314453" stroke-width="0.0" fill="rgb(35, 38, 48)" opacity="0.9435018"/>
    <path d="M 215.41744995117188 171.07498168945312 C 216.1233367919922 184.70741271972656 202.93508911132812 198.18081665039062 189.85260009765625 194.70196533203125 C 177.76722717285156 191.85195922851562 169.49630737304688 177.10140991210938 156.0081787109375 176.38418579101562 C 181.11134338378906 164.09165954589844 188.66888427734375 144.2769775390625 190.63868713378906 138.76397705078125 C 203.0327911376953 142.03785705566406 215.7821502685547 158.02902221679688 215.41744995117188 171.07498168945312" stroke-width="0.0" fill="rgb(211, 80, 147)" opacity="0.9219339"/>
    <path d="M 184.3654022216797 106.78113555908203 C 174.16294860839844 95.05651092529297 172.51882934570312 94.41737365722656 182.31790161132812 104.10547637939453 C 170.14686584472656 89.50077056884766 151.43617248535156 93.82413482666016 144.24200439453125 106.59241485595703 C 127.07350158691406 107.41360473632812 141.48460388183594 87.72649383544922 157.8769989013672 85.34779357910156 C 182.1887969970703 80.10536193847656 203.18048095703125 107.29239654541016 184.3654022216797 106.78113555908203" stroke-width="0.0" fill="rgb(45, 45, 47)" opacity="0.9839866"/>
    <path d="M 80.99933624267578 93.00078582763672 C 78.33074951171875 95.5006103515625 76.50054931640625 97.33055877685547 75.99801635742188 98.00012969970703 C 73.49951934814453 97.33045959472656 71.6691665649414 95.50061798095703 69.00096130371094 93.00076293945312 C 69.67037963867188 90.5005874633789 71.50057983398438 88.67036437988281 75.99605560302734 88.00027465820312 C 78.49943542480469 88.67033386230469 80.32962799072266 90.5005874633789 80.99933624267578 93.00078582763672" stroke-width="0.0" fill="rgb(49, 49, 44)" opacity="0.9900002"/>
  </g>
</svg>
