<?xml version="1.0" ?>
<svg xmlns="http://www.w3.org/2000/svg" version="1.1" width="224" height="224">
  <defs/>
  <g>
    <path d="M 145.67820739746094 119.41971588134766 C 138.50164794921875 77.37046813964844 125.63067626953125 71.85445404052734 124.93275451660156 54.76020812988281" stroke-width="1.9801194667816162" fill="none" stroke="rgb(7, 9, 53)" stroke-opacity="0.95535296" stroke-linecap="round" stroke-linejoin="round"/>
    <path d="M 114.47239685058594 105.63030242919922 C 123.93647766113281 144.87127685546875 119.72891235351562 136.63412475585938 105.56591796875 78.3676986694336" stroke-width="2.255871057510376" fill="none" stroke="rgb(166, 179, 64)" stroke-opacity="0.04258052" stroke-linecap="round" stroke-linejoin="round"/>
    <path d="M 73.98648834228516 169.77809143066406 C -28.58053207397461 195.89767456054688 -23.57124137878418 181.3546142578125 -16.800912857055664 199.0988006591797" stroke-width="27.08714485168457" fill="none" stroke="rgb(45, 100, 170)" stroke-opacity="0.6893682" stroke-linecap="round" stroke-linejoin="round"/>
    <path d="M 118.28734588623047 109.33824920654297 C 107.32853698730469 101.72013854980469 111.324951171875 72.45792388916016 117.51249694824219 107.98445129394531" stroke-width="6.734427452087402" fill="none" stroke="rgb(5, 18, 11)" stroke-opacity="0.94954515" stroke-linecap="round" stroke-linejoin="round"/>
    <path d="M 91.39109802246094 150.86915588378906 C 71.54037475585938 101.05670166015625 66.38807678222656 141.38375854492188 73.45343780517578 121.44593811035156" stroke-width="10.721475601196289" fill="none" stroke="rgb(2, 36, 177)" stroke-opacity="0.94218403" stroke-linecap="round" stroke-linejoin="round"/>
    <path d="M 119.17562866210938 53.09011459350586 C 155.67295837402344 69.17274475097656 145.3423614501953 62.67974090576172 143.51162719726562 144.81761169433594" stroke-width="8.002903938293457" fill="none" stroke="rgb(249, 229, 199)" stroke-opacity="0.4254314" stroke-linecap="round" stroke-linejoin="round"/>
    <path d="M 43.67094421386719 164.0130157470703 C 65.39713287353516 137.11245727539062 127.60202026367188 162.43218994140625 89.85110473632812 181.38157653808594" stroke-width="28.83353614807129" fill="none" stroke="rgb(179, 87, 26)" stroke-opacity="0.86427075" stroke-linecap="round" stroke-linejoin="round"/>
    <path d="M 113.00965118408203 150.29507446289062 C 36.082210540771484 130.1785888671875 89.86532592773438 121.20132446289062 61.686336517333984 117.21343994140625" stroke-width="8.797066688537598" fill="none" stroke="rgb(59, 3, 16)" stroke-opacity="0.8932165" stroke-linecap="round" stroke-linejoin="round"/>
    <path d="M 110.33132934570312 152.11264038085938 C 119.03324890136719 123.33319091796875 148.9398956298828 206.1320343017578 94.0373306274414 203.08042907714844" stroke-width="18.96891212463379" fill="none" stroke="rgb(1, 0, 0)" stroke-opacity="1.0022852" stroke-linecap="round" stroke-linejoin="round"/>
    <path d="M 257.46246337890625 172.13912963867188 C 154.2978515625 168.1591033935547 112.01956939697266 182.1595001220703 151.79722595214844 148.70082092285156" stroke-width="6.350527763366699" fill="none" stroke="rgb(23, 30, 35)" stroke-opacity="0.9072123" stroke-linecap="round" stroke-linejoin="round"/>
    <path d="M 143.6804962158203 170.38539123535156 C 101.96196746826172 153.78627014160156 115.39817810058594 160.8365020751953 99.09368133544922 165.06082153320312" stroke-width="10.00898551940918" fill="none" stroke="rgb(255, 166, 19)" stroke-opacity="0.7261081" stroke-linecap="round" stroke-linejoin="round"/>
    <path d="M 112.73714447021484 158.88441467285156 C 114.4843978881836 217.76316833496094 134.36256408691406 265.1699523925781 121.43197631835938 164.7327423095703" stroke-width="5.675241947174072" fill="none" stroke="rgb(224, 197, 171)" stroke-opacity="1.0030577" stroke-linecap="round" stroke-linejoin="round"/>
    <path d="M 233.7226104736328 157.262939453125 C 214.37496948242188 155.0208282470703 231.79917907714844 156.95469665527344 233.11790466308594 156.90713500976562" stroke-width="3.9074389934539795" fill="none" stroke="rgb(99, 0, 2)" stroke-opacity="0.74003226" stroke-linecap="round" stroke-linejoin="round"/>
    <path d="M 46.2060661315918 186.3841094970703 C 202.0506591796875 196.2042999267578 143.5009765625 189.95941162109375 57.93147277832031 182.1004638671875" stroke-width="15.989248275756836" fill="none" stroke="rgb(82, 72, 29)" stroke-opacity="0.66634244" stroke-linecap="round" stroke-linejoin="round"/>
    <path d="M 134.51263427734375 159.83355712890625 C 137.60366821289062 155.41065979003906 133.98171997070312 116.15589141845703 101.22332000732422 71.79669952392578" stroke-width="4.90419340133667" fill="none" stroke="rgb(47, 20, 5)" stroke-opacity="0.852528" stroke-linecap="round" stroke-linejoin="round"/>
    <path d="M 115.31551361083984 116.66252899169922 C 110.93333435058594 101.90122985839844 128.20932006835938 136.12185668945312 106.30657196044922 86.14302062988281" stroke-width="3.613588809967041" fill="none" stroke="rgb(21, 51, 71)" stroke-opacity="0.066520035" stroke-linecap="round" stroke-linejoin="round"/>
    <path d="M 124.6289291381836 113.89118194580078 C 107.66453552246094 113.13371276855469 91.25755310058594 84.03514099121094 115.81111907958984 112.38233184814453" stroke-width="5.142192840576172" fill="none" stroke="rgb(56, 40, 21)" stroke-opacity="0.364108" stroke-linecap="round" stroke-linejoin="round"/>
    <path d="M 82.18978881835938 130.70742797851562 C 64.4693374633789 113.39634704589844 75.75141143798828 117.25228881835938 95.29776763916016 149.65335083007812" stroke-width="14.142836570739746" fill="none" stroke="rgb(9, 22, 68)" stroke-opacity="0.93574846" stroke-linecap="round" stroke-linejoin="round"/>
    <path d="M 45.912593841552734 219.8758544921875 C 122.37523651123047 223.0293731689453 89.65074157714844 226.83547973632812 2.361466407775879 217.1092529296875" stroke-width="2.2352073192596436" fill="none" stroke="rgb(151, 76, 1)" stroke-opacity="0.9685651" stroke-linecap="round" stroke-linejoin="round"/>
    <path d="M 207.29254150390625 172.78314208984375 C 205.04847717285156 121.29434204101562 236.4285125732422 136.99790954589844 169.29205322265625 171.39097595214844" stroke-width="1.9774314165115356" fill="none" stroke="rgb(101, 98, 108)" stroke-opacity="0.15424782" stroke-linecap="round" stroke-linejoin="round"/>
    <path d="M 110.04003143310547 74.01533508300781 C 133.7876739501953 106.43107604980469 99.00117492675781 185.48927307128906 122.68679809570312 136.34698486328125" stroke-width="8.520401954650879" fill="none" stroke="rgb(2, 64, 82)" stroke-opacity="0.087839894" stroke-linecap="round" stroke-linejoin="round"/>
    <path d="M 16.696130752563477 154.34495544433594 C -53.74729537963867 160.2233123779297 -128.16656494140625 179.5139617919922 68.49323272705078 173.6867218017578" stroke-width="18.562030792236328" fill="none" stroke="rgb(1, 0, 21)" stroke-opacity="0.49357408" stroke-linecap="round" stroke-linejoin="round"/>
    <path d="M 234.5379180908203 117.6956787109375 C 247.37644958496094 107.44273376464844 256.51605224609375 110.36306762695312 243.63461303710938 97.58894348144531" stroke-width="2.0" fill="none" stroke="rgb(51, 63, 84)" stroke-opacity="0.65687495" stroke-linecap="round" stroke-linejoin="round"/>
    <path d="M 13.610352516174316 164.70443725585938 C 24.111370086669922 204.49916076660156 -0.2207946926355362 160.69883728027344 65.18902587890625 129.81661987304688" stroke-width="7.764963150024414" fill="none" stroke="rgb(28, 81, 182)" stroke-opacity="0.3468651" stroke-linecap="round" stroke-linejoin="round"/>
    <path d="M -2.6867637634277344 180.45095825195312 C 53.558021545410156 167.3417205810547 75.23238372802734 158.2875213623047 35.40970993041992 178.11257934570312" stroke-width="5.488332271575928" fill="none" stroke="rgb(12, 3, 17)" stroke-opacity="0.62129205" stroke-linecap="round" stroke-linejoin="round"/>
    <path d="M 63.18321228027344 201.99932861328125 C -15.883517265319824 196.27825927734375 13.062846183776855 209.92807006835938 -4.309609413146973 157.95684814453125" stroke-width="2.937937021255493" fill="none" stroke="rgb(72, 32, 9)" stroke-opacity="0.5217247" stroke-linecap="round" stroke-linejoin="round"/>
    <path d="M 67.49061584472656 86.02665710449219 C 131.98635864257812 101.33271789550781 131.51849365234375 145.93954467773438 106.36604309082031 97.6841049194336" stroke-width="3.662229299545288" fill="none" stroke="rgb(96, 77, 97)" stroke-opacity="0.49993733" stroke-linecap="round" stroke-linejoin="round"/>
    <path d="M 71.65860748291016 134.00599670410156 C 21.932470321655273 90.86803436279297 109.97782135009766 115.90386199951172 86.4246826171875 139.04400634765625" stroke-width="15.764405250549316" fill="none" stroke="rgb(216, 188, 57)" stroke-opacity="0.08250066" stroke-linecap="round" stroke-linejoin="round"/>
    <path d="M 79.27157592773438 182.3549041748047 C 82.31208801269531 148.27125549316406 106.84757995605469 102.33078002929688 141.93667602539062 152.54690551757812" stroke-width="13.290656089782715" fill="none" stroke="rgb(257, 238, 147)" stroke-opacity="0.22395657" stroke-linecap="round" stroke-linejoin="round"/>
    <path d="M 226.58859252929688 121.72638702392578 C 196.53465270996094 99.61328125 212.8298797607422 117.57776641845703 208.49212646484375 149.84471130371094" stroke-width="1.9973630905151367" fill="none" stroke="rgb(125, 101, 65)" stroke-opacity="0.019362194" stroke-linecap="round" stroke-linejoin="round"/>
    <path d="M 126.8104019165039 126.83039855957031 C 103.04164123535156 120.90702056884766 75.60602569580078 119.687744140625 107.94174194335938 164.07012939453125" stroke-width="5.967138290405273" fill="none" stroke="rgb(189, 215, 199)" stroke-opacity="0.060785893" stroke-linecap="round" stroke-linejoin="round"/>
    <path d="M 132.17799377441406 64.03260803222656 C 137.42686462402344 77.41397857666016 157.322509765625 114.79495239257812 126.50091552734375 76.00630187988281" stroke-width="11.466347694396973" fill="none" stroke="rgb(121, 125, 128)" stroke-opacity="0.077098265" stroke-linecap="round" stroke-linejoin="round"/>
    <path d="M 237.15704345703125 179.7354736328125 C 285.6968688964844 187.02261352539062 225.22738647460938 187.1819305419922 155.50462341308594 184.2656707763672" stroke-width="16.854534149169922" fill="none" stroke="rgb(120, 67, 107)" stroke-opacity="0.0034095738" stroke-linecap="round" stroke-linejoin="round"/>
    <path d="M 56.27255630493164 178.0548553466797 C -33.90047836303711 194.69955444335938 -76.7548828125 145.96218872070312 48.595375061035156 166.9983367919922" stroke-width="7.17518949508667" fill="none" stroke="rgb(-2, -1, 28)" stroke-opacity="0.800142" stroke-linecap="round" stroke-linejoin="round"/>
    <path d="M 241.11053466796875 162.39341735839844 C 339.77099609375 166.1334686279297 313.76904296875 161.55010986328125 165.91343688964844 154.303466796875" stroke-width="10.212798118591309" fill="none" stroke="rgb(0, 0, 11)" stroke-opacity="1.0050064" stroke-linecap="round" stroke-linejoin="round"/>
    <path d="M -12.838286399841309 168.10629272460938 C 56.899200439453125 149.14064025878906 23.098670959472656 162.54959106445312 -29.362945556640625 165.59344482421875" stroke-width="19.02298927307129" fill="none" stroke="rgb(35, 52, 96)" stroke-opacity="0.43867683" stroke-linecap="round" stroke-linejoin="round"/>
    <path d="M 228.3262939453125 197.0145263671875 C 185.88121032714844 258.3278503417969 173.9412384033203 199.8129119873047 162.5262451171875 154.15480041503906" stroke-width="3.329650640487671" fill="none" stroke="rgb(211, 178, 204)" stroke-opacity="0.8507435" stroke-linecap="round" stroke-linejoin="round"/>
    <path d="M 120.02230072021484 120.7002944946289 C 81.3917236328125 81.85553741455078 104.80838775634766 91.60456848144531 119.7189712524414 116.01504516601562" stroke-width="7.555067539215088" fill="none" stroke="rgb(24, 64, 150)" stroke-opacity="0.54193795" stroke-linecap="round" stroke-linejoin="round"/>
    <path d="M 62.284576416015625 233.01846313476562 C 80.52472686767578 239.2883758544922 230.46408081054688 224.73934936523438 91.06446075439453 192.776123046875" stroke-width="5.148200511932373" fill="none" stroke="rgb(119, 93, 19)" stroke-opacity="0.9193238" stroke-linecap="round" stroke-linejoin="round"/>
    <path d="M 124.36784362792969 57.754150390625 C 180.2904815673828 93.85942840576172 120.31742858886719 35.149208068847656 140.2797088623047 108.1002197265625" stroke-width="13.90514850616455" fill="none" stroke="rgb(171, 158, 139)" stroke-opacity="0.08635926" stroke-linecap="round" stroke-linejoin="round"/>
    <path d="M 186.88485717773438 113.18081665039062 C 198.83999633789062 201.6870880126953 188.36903381347656 133.45928955078125 198.26678466796875 193.3721466064453" stroke-width="1.789038896560669" fill="none" stroke="rgb(178, 154, 138)" stroke-opacity="0.6378573" stroke-linecap="round" stroke-linejoin="round"/>
    <path d="M 130.0360870361328 177.3195343017578 C 156.72274780273438 192.65762329101562 54.7255859375 196.62762451171875 164.3683624267578 211.1736297607422" stroke-width="10.484769821166992" fill="none" stroke="rgb(-2, 83, 209)" stroke-opacity="0.48629937" stroke-linecap="round" stroke-linejoin="round"/>
    <path d="M 50.63699722290039 200.86572265625 C 221.84011840820312 177.6243896484375 265.60791015625 188.6534881591797 44.151695251464844 200.62205505371094" stroke-width="1.9714714288711548" fill="none" stroke="rgb(20, 89, 151)" stroke-opacity="1.006116" stroke-linecap="round" stroke-linejoin="round"/>
    <path d="M 93.57554626464844 151.9553680419922 C 96.8126220703125 179.1139678955078 122.56311798095703 124.14192962646484 83.86175537109375 93.34781646728516" stroke-width="1.9759637117385864" fill="none" stroke="rgb(142, 87, 52)" stroke-opacity="0.48433313" stroke-linecap="round" stroke-linejoin="round"/>
    <path d="M 231.22317504882812 110.77407836914062 C 222.04945373535156 124.75495910644531 245.4309844970703 95.3336410522461 226.913818359375 117.27125549316406" stroke-width="2.0" fill="none" stroke="rgb(140, 64, 212)" stroke-opacity="0.52826047" stroke-linecap="round" stroke-linejoin="round"/>
    <path d="M 58.543949127197266 111.38172149658203 C 63.007240295410156 165.37109375 71.4613037109375 142.27134704589844 87.20844268798828 137.79449462890625" stroke-width="10.101198196411133" fill="none" stroke="rgb(42, 10, -2)" stroke-opacity="1.0092173" stroke-linecap="round" stroke-linejoin="round"/>
    <path d="M 194.84426879882812 128.023681640625 C 231.85142517089844 104.46887969970703 237.12522888183594 98.67853546142578 242.9901123046875 96.4590835571289" stroke-width="4.276269435882568" fill="none" stroke="rgb(145, 132, 90)" stroke-opacity="-0.010484864" stroke-linecap="round" stroke-linejoin="round"/>
    <path d="M 51.219913482666016 189.67852783203125 C 47.39973449707031 133.8325653076172 -15.327500343322754 171.03695678710938 16.46748161315918 174.53782653808594" stroke-width="8.457390785217285" fill="none" stroke="rgb(9, -1, 36)" stroke-opacity="0.36874014" stroke-linecap="round" stroke-linejoin="round"/>
    <path d="M 113.00785827636719 151.3543701171875 C 102.24634552001953 215.74501037597656 111.08793640136719 167.43008422851562 49.11939239501953 145.6260986328125" stroke-width="2.1782002449035645" fill="none" stroke="rgb(94, 80, 57)" stroke-opacity="0.7646612" stroke-linecap="round" stroke-linejoin="round"/>
    <path d="M 94.97209167480469 165.70660400390625 C 104.51314544677734 115.97554016113281 48.1311149597168 100.8883285522461 74.30879211425781 107.36732482910156" stroke-width="7.335416793823242" fill="none" stroke="rgb(13, 0, 1)" stroke-opacity="1.0031528" stroke-linecap="round" stroke-linejoin="round"/>
    <path d="M 167.35394287109375 177.88865661621094 C 41.34251022338867 185.64952087402344 132.22918701171875 197.34487915039062 105.27433776855469 188.6444091796875" stroke-width="11.216635704040527" fill="none" stroke="rgb(113, 112, 94)" stroke-opacity="0.66208017" stroke-linecap="round" stroke-linejoin="round"/>
    <path d="M -42.46027374267578 201.61476135253906 C 96.60591125488281 179.70579528808594 192.6726531982422 213.5728302001953 -0.13416916131973267 221.3048858642578" stroke-width="40.64638900756836" fill="none" stroke="rgb(30, 79, 157)" stroke-opacity="0.90612227" stroke-linecap="round" stroke-linejoin="round"/>
    <path d="M 100.29154205322266 197.8831787109375 C 157.44822692871094 221.0679168701172 22.943410873413086 209.79397583007812 233.51654052734375 227.8675994873047" stroke-width="3.2048227787017822" fill="none" stroke="rgb(0, 23, 24)" stroke-opacity="0.8510375" stroke-linecap="round" stroke-linejoin="round"/>
    <path d="M 101.06646728515625 157.80270385742188 C 354.0618896484375 145.61407470703125 283.6939392089844 184.5159912109375 100.2020263671875 163.69723510742188" stroke-width="3.2223763465881348" fill="none" stroke="rgb(52, 17, 36)" stroke-opacity="0.50497836" stroke-linecap="round" stroke-linejoin="round"/>
    <path d="M 21.203819274902344 189.3430938720703 C 111.53093719482422 194.08084106445312 220.2866668701172 170.01368713378906 130.500732421875 226.0680389404297" stroke-width="3.3852484226226807" fill="none" stroke="rgb(9, 47, 86)" stroke-opacity="0.427829" stroke-linecap="round" stroke-linejoin="round"/>
    <path d="M 76.8813247680664 138.7083282470703 C 86.2949447631836 128.72325134277344 63.03996658325195 138.18197631835938 78.45299530029297 131.90013122558594" stroke-width="10.674508094787598" fill="none" stroke="rgb(0, 0, 0)" stroke-opacity="1.0027348" stroke-linecap="round" stroke-linejoin="round"/>
    <path d="M 82.1942138671875 144.70559692382812 C 102.29253387451172 150.09408569335938 119.89187622070312 199.93003845214844 48.13718032836914 148.75003051757812" stroke-width="18.080333709716797" fill="none" stroke="rgb(108, 32, 10)" stroke-opacity="0.55432785" stroke-linecap="round" stroke-linejoin="round"/>
    <path d="M 213.6385040283203 111.56991577148438 C 149.39950561523438 157.79013061523438 199.72067260742188 67.80177307128906 131.7791290283203 75.77967071533203" stroke-width="18.383146286010742" fill="none" stroke="rgb(241, 246, 163)" stroke-opacity="0.15785764" stroke-linecap="round" stroke-linejoin="round"/>
    <path d="M 220.69923400878906 216.74188232421875 C 55.465877532958984 226.29498291015625 108.30902862548828 198.37969970703125 239.25851440429688 191.04727172851562" stroke-width="28.757339477539062" fill="none" stroke="rgb(54, 103, 164)" stroke-opacity="0.77475566" stroke-linecap="round" stroke-linejoin="round"/>
    <path d="M 149.68609619140625 169.4759521484375 C 247.75982666015625 170.35162353515625 226.77676391601562 156.4552764892578 234.9535369873047 128.36825561523438" stroke-width="36.01742935180664" fill="none" stroke="rgb(194, 73, 0)" stroke-opacity="0.30645058" stroke-linecap="round" stroke-linejoin="round"/>
    <path d="M 122.33443450927734 81.10118865966797 C 155.84461975097656 73.515869140625 171.17626953125 74.56812286376953 120.67462158203125 58.56060028076172" stroke-width="15.527375221252441" fill="none" stroke="rgb(163, 179, 190)" stroke-opacity="0.20016052" stroke-linecap="round" stroke-linejoin="round"/>
    <path d="M 80.09638977050781 128.46119689941406 C 130.0209197998047 163.3863983154297 83.25340270996094 107.74150085449219 111.86126708984375 116.2514419555664" stroke-width="1.9745897054672241" fill="none" stroke="rgb(136, 171, 121)" stroke-opacity="0.1501175" stroke-linecap="round" stroke-linejoin="round"/>
    <path d="M 172.6071319580078 149.50038146972656 C 208.1822509765625 107.74556732177734 226.44961547851562 117.17193603515625 181.323974609375 144.98976135253906" stroke-width="10.888602256774902" fill="none" stroke="rgb(37, -1, 6)" stroke-opacity="0.10575949" stroke-linecap="round" stroke-linejoin="round"/>
    <path d="M 116.56700134277344 106.63911437988281 C 153.29075622558594 174.15386962890625 138.4986114501953 162.28929138183594 106.03777313232422 155.39259338378906" stroke-width="4.543898582458496" fill="none" stroke="rgb(64, 45, 43)" stroke-opacity="0.5563074" stroke-linecap="round" stroke-linejoin="round"/>
    <path d="M 145.49099731445312 189.36117553710938 C 117.01799011230469 176.74688720703125 59.612274169921875 160.96109008789062 184.27513122558594 164.64356994628906" stroke-width="20.137638092041016" fill="none" stroke="rgb(225, 114, 17)" stroke-opacity="0.11578153" stroke-linecap="round" stroke-linejoin="round"/>
    <path d="M 103.97898864746094 73.83541870117188 C 145.68284606933594 103.41835021972656 172.3315887451172 122.78641510009766 116.76496124267578 90.56907653808594" stroke-width="14.376286506652832" fill="none" stroke="rgb(221, 186, 42)" stroke-opacity="0.06378614" stroke-linecap="round" stroke-linejoin="round"/>
    <path d="M 110.78849792480469 86.31887817382812 C 103.39432525634766 69.69063568115234 100.50592041015625 82.17909240722656 112.91168212890625 96.00674438476562" stroke-width="1.9508594274520874" fill="none" stroke="rgb(88, 44, 1)" stroke-opacity="0.53333485" stroke-linecap="round" stroke-linejoin="round"/>
    <path d="M 71.70471954345703 113.05555725097656 C 63.66665267944336 149.1264190673828 77.07750701904297 119.84146881103516 58.21318435668945 105.82093048095703" stroke-width="7.857926368713379" fill="none" stroke="rgb(174, 120, 10)" stroke-opacity="0.9015971" stroke-linecap="round" stroke-linejoin="round"/>
    <path d="M 140.86322021484375 180.7187957763672 C 135.92642211914062 114.01457214355469 105.40145111083984 93.78102111816406 107.83585357666016 79.65713500976562" stroke-width="3.22757625579834" fill="none" stroke="rgb(21, 17, 20)" stroke-opacity="0.74351937" stroke-linecap="round" stroke-linejoin="round"/>
    <path d="M 113.40243530273438 157.20742797851562 C 131.8538360595703 113.44551849365234 120.45691680908203 69.06731414794922 121.72577667236328 116.74088287353516" stroke-width="4.7008185386657715" fill="none" stroke="rgb(38, 53, 76)" stroke-opacity="-0.0029222458" stroke-linecap="round" stroke-linejoin="round"/>
    <path d="M 102.07250213623047 74.8224105834961 C 106.79505157470703 116.48162078857422 122.63105010986328 93.24444580078125 105.8558578491211 89.01172637939453" stroke-width="6.424005031585693" fill="none" stroke="rgb(2, 21, 16)" stroke-opacity="0.72303474" stroke-linecap="round" stroke-linejoin="round"/>
    <path d="M 39.57833480834961 150.04879760742188 C 96.37411499023438 197.47227478027344 138.1640625 194.23324584960938 63.9367561340332 90.94111633300781" stroke-width="4.624572277069092" fill="none" stroke="rgb(-1, 6, 37)" stroke-opacity="0.5833303" stroke-linecap="round" stroke-linejoin="round"/>
    <path d="M 155.57322692871094 89.7189712524414 C 115.34076690673828 131.50645446777344 154.78662109375 84.64242553710938 172.4665069580078 195.4509735107422" stroke-width="37.24786376953125" fill="none" stroke="rgb(255, 255, 149)" stroke-opacity="0.062012374" stroke-linecap="round" stroke-linejoin="round"/>
    <path d="M 113.19223022460938 94.49768829345703 C 144.4813690185547 70.54586791992188 172.11279296875 89.2828140258789 135.0637664794922 66.6464614868164" stroke-width="28.29456329345703" fill="none" stroke="rgb(107, 93, 104)" stroke-opacity="0.09402732" stroke-linecap="round" stroke-linejoin="round"/>
    <path d="M 79.02851867675781 187.2252960205078 C 239.00445556640625 163.5597686767578 192.01206970214844 124.5531234741211 217.16896057128906 183.401123046875" stroke-width="37.775543212890625" fill="none" stroke="rgb(85, 33, -1)" stroke-opacity="0.11370359" stroke-linecap="round" stroke-linejoin="round"/>
    <path d="M 82.43278503417969 95.041015625 C 63.74519348144531 87.31372833251953 84.60505676269531 101.81107330322266 71.72674560546875 120.41571807861328" stroke-width="12.641727447509766" fill="none" stroke="rgb(257, 199, 15)" stroke-opacity="0.43069464" stroke-linecap="round" stroke-linejoin="round"/>
    <path d="M 106.90775299072266 153.50372314453125 C 93.17039489746094 131.6055145263672 157.71859741210938 173.0520477294922 95.74449920654297 152.09828186035156" stroke-width="9.071828842163086" fill="none" stroke="rgb(94, 32, 6)" stroke-opacity="0.9762152" stroke-linecap="round" stroke-linejoin="round"/>
    <path d="M 71.21549987792969 125.42344665527344 C 101.13038635253906 175.37742614746094 69.15110778808594 137.4600830078125 61.803855895996094 155.01358032226562" stroke-width="2.1034233570098877" fill="none" stroke="rgb(38, 50, 59)" stroke-opacity="-0.0028196299" stroke-linecap="round" stroke-linejoin="round"/>
    <path d="M 98.82135009765625 98.89163970947266 C 151.85316467285156 171.73590087890625 142.02999877929688 182.89559936523438 109.19501495361328 81.05980682373047" stroke-width="3.7548415660858154" fill="none" stroke="rgb(9, 57, 130)" stroke-opacity="0.14935687" stroke-linecap="round" stroke-linejoin="round"/>
    <path d="M 242.6191864013672 163.9026641845703 C 284.5150451660156 207.1414031982422 238.5758819580078 213.3355712890625 140.68397521972656 193.42347717285156" stroke-width="4.281026363372803" fill="none" stroke="rgb(51, 61, 42)" stroke-opacity="0.5175849" stroke-linecap="round" stroke-linejoin="round"/>
    <path d="M 271.2487487792969 182.7604217529297 C 125.70857238769531 176.5076446533203 121.71466064453125 175.9161376953125 58.43434524536133 174.20204162597656" stroke-width="15.735633850097656" fill="none" stroke="rgb(80, 27, 0)" stroke-opacity="0.39066547" stroke-linecap="round" stroke-linejoin="round"/>
    <path d="M 132.08314514160156 164.72201538085938 C 144.74139404296875 215.59994506835938 219.18002319335938 186.1365509033203 0.8953655958175659 185.36618041992188" stroke-width="15.662590980529785" fill="none" stroke="rgb(0, 37, 23)" stroke-opacity="0.19447778" stroke-linecap="round" stroke-linejoin="round"/>
    <path d="M -6.894176959991455 161.45877075195312 C 229.46775817871094 163.35995483398438 -33.725372314453125 180.247314453125 95.05846405029297 208.12339782714844" stroke-width="18.902406692504883" fill="none" stroke="rgb(11, 17, 2)" stroke-opacity="0.14605819" stroke-linecap="round" stroke-linejoin="round"/>
    <path d="M 124.75437927246094 61.5799446105957 C 134.4640350341797 102.10638427734375 138.55892944335938 101.68865966796875 121.1832275390625 71.91693115234375" stroke-width="8.020995140075684" fill="none" stroke="rgb(62, 52, 34)" stroke-opacity="0.10120561" stroke-linecap="round" stroke-linejoin="round"/>
    <path d="M 247.82833862304688 183.30450439453125 C 113.71920013427734 175.52273559570312 150.64089965820312 189.74603271484375 148.2478790283203 127.38238525390625" stroke-width="3.5352261066436768" fill="none" stroke="rgb(32, 4, 14)" stroke-opacity="0.72467554" stroke-linecap="round" stroke-linejoin="round"/>
    <path d="M -15.472328186035156 156.34449768066406 C 98.33920288085938 148.1696319580078 68.61489868164062 165.5386199951172 19.720590591430664 151.19479370117188" stroke-width="5.4253339767456055" fill="none" stroke="rgb(45, 60, 55)" stroke-opacity="-0.0008140733" stroke-linecap="round" stroke-linejoin="round"/>
    <path d="M 111.04566192626953 115.78397369384766 C 49.01840591430664 101.94718933105469 57.787784576416016 118.79875946044922 67.7200698852539 98.88678741455078" stroke-width="25.877470016479492" fill="none" stroke="rgb(211, 240, 148)" stroke-opacity="0.20369281" stroke-linecap="round" stroke-linejoin="round"/>
    <path d="M 135.3264923095703 163.6947479248047 C 124.39652252197266 170.49281311035156 150.88426208496094 168.70864868164062 189.5469512939453 131.06231689453125" stroke-width="8.593050003051758" fill="none" stroke="rgb(13, 24, 50)" stroke-opacity="0.13922437" stroke-linecap="round" stroke-linejoin="round"/>
    <path d="M 59.31589889526367 162.95651245117188 C 52.369571685791016 145.85565185546875 47.73566436767578 114.42782592773438 53.81895446777344 157.9696502685547" stroke-width="4.945947647094727" fill="none" stroke="rgb(69, 1, 24)" stroke-opacity="0.13743499" stroke-linecap="round" stroke-linejoin="round"/>
    <path d="M 186.26412963867188 194.92715454101562 C 158.86978149414062 235.75169372558594 217.727294921875 107.75312042236328 169.5118865966797 66.38656616210938" stroke-width="4.546031951904297" fill="none" stroke="rgb(220, 248, 257)" stroke-opacity="0.1244874" stroke-linecap="round" stroke-linejoin="round"/>
    <path d="M 97.18333435058594 178.03292846679688 C 105.27507781982422 223.97427368164062 116.98917388916016 251.7808380126953 83.11090850830078 195.56243896484375" stroke-width="16.825775146484375" fill="none" stroke="rgb(40, 82, 87)" stroke-opacity="0.38927227" stroke-linecap="round" stroke-linejoin="round"/>
    <path d="M 121.79727172851562 128.85687255859375 C 103.57329559326172 94.3335189819336 105.66405487060547 103.60347747802734 121.52698516845703 157.86199951171875" stroke-width="2.688925266265869" fill="none" stroke="rgb(228, 214, 166)" stroke-opacity="0.0060313577" stroke-linecap="round" stroke-linejoin="round"/>
    <path d="M -5.9568257331848145 199.11526489257812 C 141.57579040527344 183.0034637451172 58.11507797241211 206.78500366210938 100.7733383178711 224.92782592773438" stroke-width="20.47134780883789" fill="none" stroke="rgb(5, 46, 70)" stroke-opacity="0.20298505" stroke-linecap="round" stroke-linejoin="round"/>
    <path d="M 155.91943359375 87.8920669555664 C 163.765625 82.29902648925781 167.3064727783203 91.84477233886719 190.23629760742188 145.5199737548828" stroke-width="33.99292755126953" fill="none" stroke="rgb(252, 248, 147)" stroke-opacity="0.11820789" stroke-linecap="round" stroke-linejoin="round"/>
    <path d="M 113.81266021728516 146.7886199951172 C 123.77055358886719 173.11305236816406 98.00281524658203 152.43453979492188 88.2619857788086 164.84695434570312" stroke-width="4.446295738220215" fill="none" stroke="rgb(52, 14, 0)" stroke-opacity="0.51081353" stroke-linecap="round" stroke-linejoin="round"/>
    <path d="M 207.0581817626953 168.17745971679688 C 147.0252685546875 201.00238037109375 183.12071228027344 146.04103088378906 180.50628662109375 153.5810546875" stroke-width="2.499945878982544" fill="none" stroke="rgb(58, 2, 26)" stroke-opacity="0.04098853" stroke-linecap="round" stroke-linejoin="round"/>
    <path d="M 64.99605560302734 140.686279296875 C 55.15324401855469 133.28646850585938 20.060731887817383 154.33428955078125 58.7462043762207 133.4442596435547" stroke-width="3.3768770694732666" fill="none" stroke="rgb(101, 59, 187)" stroke-opacity="0.8176127" stroke-linecap="round" stroke-linejoin="round"/>
    <path d="M 131.0016632080078 98.51625061035156 C 143.0585479736328 103.44117736816406 138.1323699951172 210.5274658203125 106.34693145751953 184.6382293701172" stroke-width="7.4328932762146" fill="none" stroke="rgb(219, 179, 103)" stroke-opacity="0.035153415" stroke-linecap="round" stroke-linejoin="round"/>
    <path d="M 138.62945556640625 161.19908142089844 C 116.10540008544922 105.71072387695312 107.05120086669922 98.4920883178711 126.23323822021484 177.51026916503906" stroke-width="2.230902671813965" fill="none" stroke="rgb(42, 32, 86)" stroke-opacity="-0.001376299" stroke-linecap="round" stroke-linejoin="round"/>
    <path d="M 120.92047119140625 52.38297653198242 C 140.9132080078125 91.02078247070312 126.64860534667969 82.2948226928711 124.66302490234375 62.6384391784668" stroke-width="5.284069538116455" fill="none" stroke="rgb(62, 44, 0)" stroke-opacity="0.99391687" stroke-linecap="round" stroke-linejoin="round"/>
    <path d="M 119.78446960449219 160.69964599609375 C 96.85177612304688 167.04345703125 37.06956100463867 122.25297546386719 163.41416931152344 170.46189880371094" stroke-width="14.414839744567871" fill="none" stroke="rgb(226, 156, 83)" stroke-opacity="0.6428214" stroke-linecap="round" stroke-linejoin="round"/>
    <path d="M 143.72201538085938 103.68887329101562 C 128.23141479492188 65.52195739746094 118.58951568603516 46.47211456298828 123.57868957519531 65.24142456054688" stroke-width="6.299294471740723" fill="none" stroke="rgb(4, 8, 0)" stroke-opacity="0.13213415" stroke-linecap="round" stroke-linejoin="round"/>
    <path d="M 83.39994812011719 156.30174255371094 C 54.50741195678711 130.6907501220703 75.34152221679688 158.97830200195312 81.25342559814453 114.08863830566406" stroke-width="2.1530189514160156" fill="none" stroke="rgb(30, 30, 7)" stroke-opacity="0.17657074" stroke-linecap="round" stroke-linejoin="round"/>
    <path d="M 53.39859390258789 104.50054931640625 C 82.22896575927734 144.70982360839844 59.78618621826172 122.85157775878906 73.06275939941406 124.54924774169922" stroke-width="4.740762710571289" fill="none" stroke="rgb(38, 10, -3)" stroke-opacity="0.99916416" stroke-linecap="round" stroke-linejoin="round"/>
    <path d="M 131.3729248046875 82.00469207763672 C 115.06378173828125 58.872398376464844 110.64433288574219 75.10450744628906 130.12278747558594 74.30126953125" stroke-width="5.92203426361084" fill="none" stroke="rgb(0, 64, 163)" stroke-opacity="0.3491048" stroke-linecap="round" stroke-linejoin="round"/>
    <path d="M 240.74349975585938 124.46952056884766 C 239.19882202148438 124.91068267822266 167.78768920898438 121.9285659790039 233.46038818359375 105.47447204589844" stroke-width="16.366239547729492" fill="none" stroke="rgb(255, 173, 65)" stroke-opacity="0.7914563" stroke-linecap="round" stroke-linejoin="round"/>
    <path d="M 229.8463897705078 213.68589782714844 C 163.965576171875 207.86465454101562 262.2867431640625 215.730712890625 101.92420196533203 212.5102996826172" stroke-width="3.631478786468506" fill="none" stroke="rgb(30, 30, 26)" stroke-opacity="0.53841364" stroke-linecap="round" stroke-linejoin="round"/>
    <path d="M 276.7724304199219 200.8152313232422 C 233.47259521484375 196.70167541503906 181.32354736328125 185.6355743408203 118.50570678710938 204.2106475830078" stroke-width="52.97579574584961" fill="none" stroke="rgb(44, 76, 92)" stroke-opacity="0.49836782" stroke-linecap="round" stroke-linejoin="round"/>
    <path d="M 123.25220489501953 60.45477294921875 C 149.60276794433594 98.1233139038086 119.71228790283203 72.56511688232422 118.4000473022461 73.64327239990234" stroke-width="4.258257865905762" fill="none" stroke="rgb(15, -1, 4)" stroke-opacity="0.526897" stroke-linecap="round" stroke-linejoin="round"/>
    <path d="M 64.6865463256836 84.48735809326172 C 84.1658935546875 149.14906311035156 55.2980842590332 122.52494049072266 74.73883056640625 111.16957092285156" stroke-width="2.776663064956665" fill="none" stroke="rgb(90, 74, 0)" stroke-opacity="1.0019497" stroke-linecap="round" stroke-linejoin="round"/>
    <path d="M 30.039691925048828 197.23870849609375 C 35.73666763305664 106.25638580322266 89.80625915527344 178.66529846191406 38.21133041381836 152.9542236328125" stroke-width="9.717429161071777" fill="none" stroke="rgb(39, 2, 9)" stroke-opacity="0.070793435" stroke-linecap="round" stroke-linejoin="round"/>
    <path d="M 73.5991439819336 50.1058349609375 C -132.56179809570312 267.4276123046875 85.35362243652344 -180.79092407226562 235.27716064453125 87.81707763671875" stroke-width="99.87252807617188" fill="none" stroke="rgb(0, 87, 237)" stroke-opacity="0.43394205" stroke-linecap="round" stroke-linejoin="round"/>
    <path d="M 150.67971801757812 156.8052978515625 C 208.523681640625 146.73919677734375 333.16485595703125 149.48365783691406 168.86526489257812 151.5228729248047" stroke-width="4.425562381744385" fill="none" stroke="rgb(0, 0, 21)" stroke-opacity="0.64428" stroke-linecap="round" stroke-linejoin="round"/>
    <path d="M 0.7050358653068542 198.6247100830078 C 181.54273986816406 185.872802734375 114.58088684082031 203.3138427734375 50.360931396484375 222.66268920898438" stroke-width="3.0832595825195312" fill="none" stroke="rgb(17, 43, 67)" stroke-opacity="0.22231373" stroke-linecap="round" stroke-linejoin="round"/>
    <path d="M 102.79627227783203 179.6143798828125 C 94.34630584716797 118.37457275390625 113.18312072753906 143.60818481445312 108.57894134521484 93.96331024169922" stroke-width="2.5617563724517822" fill="none" stroke="rgb(24, 24, 55)" stroke-opacity="0.20770058" stroke-linecap="round" stroke-linejoin="round"/>
    <path d="M 70.00469207763672 99.90558624267578 C 95.3397445678711 132.00205993652344 101.6773681640625 141.97317504882812 35.92127227783203 145.58665466308594" stroke-width="8.189406394958496" fill="none" stroke="rgb(0, -2, 3)" stroke-opacity="1.0032976" stroke-linecap="round" stroke-linejoin="round"/>
    <path d="M 26.510774612426758 206.56515502929688 C 245.14903259277344 203.32647705078125 113.25867462158203 196.80731201171875 242.49732971191406 192.5370635986328" stroke-width="4.462764739990234" fill="none" stroke="rgb(-1, 13, 10)" stroke-opacity="0.18983346" stroke-linecap="round" stroke-linejoin="round"/>
    <path d="M 158.40721130371094 161.84364318847656 C 159.28494262695312 241.7427978515625 145.66241455078125 222.1278839111328 90.99618530273438 163.34884643554688" stroke-width="8.814002990722656" fill="none" stroke="rgb(121, 129, 132)" stroke-opacity="0.09237316" stroke-linecap="round" stroke-linejoin="round"/>
    <path d="M 42.03959274291992 174.5333709716797 C 128.45767211914062 187.54774475097656 -27.80930519104004 165.62954711914062 -28.902273178100586 185.28285217285156" stroke-width="6.850406646728516" fill="none" stroke="rgb(2, 7, 14)" stroke-opacity="0.66458005" stroke-linecap="round" stroke-linejoin="round"/>
    <path d="M 70.64810943603516 108.54621124267578 C 86.17782592773438 165.68392944335938 66.58786010742188 100.80760192871094 84.75520324707031 132.5169677734375" stroke-width="9.954380989074707" fill="none" stroke="rgb(-1, 10, 45)" stroke-opacity="0.88764393" stroke-linecap="round" stroke-linejoin="round"/>
    <path d="M 86.76287841796875 134.17776489257812 C 11.924077987670898 150.5200653076172 98.27151489257812 134.10372924804688 66.60017395019531 90.64881134033203" stroke-width="5.344686985015869" fill="none" stroke="rgb(48, 19, 0)" stroke-opacity="0.39618745" stroke-linecap="round" stroke-linejoin="round"/>
    <path d="M 71.48485565185547 111.17212677001953 C 68.16670227050781 122.8436508178711 92.30473327636719 120.08304595947266 63.669471740722656 131.25103759765625" stroke-width="10.408916473388672" fill="none" stroke="rgb(-2, 19, 82)" stroke-opacity="0.6240572" stroke-linecap="round" stroke-linejoin="round"/>
    <path d="M 134.39894104003906 182.0880126953125 C 125.4441909790039 159.42787170410156 131.7313232421875 159.0769500732422 251.19976806640625 152.43226623535156" stroke-width="9.07838249206543" fill="none" stroke="rgb(36, 19, 3)" stroke-opacity="0.13878763" stroke-linecap="round" stroke-linejoin="round"/>
    <path d="M 108.27420043945312 230.6371307373047 C 2.4238297939300537 200.0666961669922 -35.36037826538086 203.3720245361328 69.59223937988281 221.07415771484375" stroke-width="1.8463494777679443" fill="none" stroke="rgb(0, 3, 13)" stroke-opacity="0.13155776" stroke-linecap="round" stroke-linejoin="round"/>
    <path d="M 206.5318603515625 119.0835952758789 C 247.0061798095703 171.48226928710938 231.9302520751953 119.77574157714844 210.21238708496094 116.38545989990234" stroke-width="21.319686889648438" fill="none" stroke="rgb(236, 228, 215)" stroke-opacity="0.9665812" stroke-linecap="round" stroke-linejoin="round"/>
    <path d="M 48.95375061035156 215.5721435546875 C 50.968875885009766 106.29972076416016 -0.9599334001541138 140.3958282470703 -11.541662216186523 144.9143829345703" stroke-width="17.476945877075195" fill="none" stroke="rgb(82, 173, 256)" stroke-opacity="0.048320662" stroke-linecap="round" stroke-linejoin="round"/>
    <path d="M 37.926570892333984 155.81085205078125 C 91.19657897949219 184.19052124023438 65.90093231201172 170.73092651367188 3.0686275959014893 178.9320526123047" stroke-width="8.717813491821289" fill="none" stroke="rgb(17, 4, 9)" stroke-opacity="0.40469638" stroke-linecap="round" stroke-linejoin="round"/>
    <path d="M -17.67970848083496 172.9932861328125 C 118.00463104248047 174.54818725585938 108.47343444824219 174.787109375 230.35401916503906 176.2635040283203" stroke-width="7.5277276039123535" fill="none" stroke="rgb(255, 179, 110)" stroke-opacity="0.6298911" stroke-linecap="round" stroke-linejoin="round"/>
  </g>
</svg>
