<?xml version="1.0" ?>
<svg xmlns="http://www.w3.org/2000/svg" version="1.1" width="224" height="224">
  <defs/>
  <g>
    <path d="M 141.8550567626953 117.6207504272461 C 145.3634033203125 97.86184692382812 120.98597717285156 64.955322265625 122.44866180419922 52.69660568237305" stroke-width="5.532186985015869" fill="none" stroke="rgb(0, 0, 0)" stroke-opacity="0.123076186" stroke-linecap="round" stroke-linejoin="round"/>
    <path d="M 158.1022491455078 144.9040069580078 C 148.794677734375 71.23086547851562 161.58328247070312 153.46014404296875 115.27447509765625 101.86209869384766" stroke-width="15.16174030303955" fill="none" stroke="rgb(0, 1, 0)" stroke-opacity="0.029001221" stroke-linecap="round" stroke-linejoin="round"/>
    <path d="M 56.0260009765625 166.17947387695312 C -71.13639831542969 166.20091247558594 -83.36511993408203 170.93331909179688 86.7859878540039 209.35507202148438" stroke-width="25.9494571685791" fill="none" stroke="rgb(2, -2, 1)" stroke-opacity="0.123391226" stroke-linecap="round" stroke-linejoin="round"/>
    <path d="M 68.42076873779297 85.48917388916016 C 112.53915405273438 156.5194091796875 90.6582260131836 182.18838500976562 107.92339324951172 97.4144287109375" stroke-width="4.9359025955200195" fill="none" stroke="rgb(2, 5, -1)" stroke-opacity="0.46250835" stroke-linecap="round" stroke-linejoin="round"/>
    <path d="M 133.4339141845703 152.37747192382812 C 92.2102279663086 142.87698364257812 69.93363189697266 183.80360412597656 57.721805572509766 186.85800170898438" stroke-width="17.67292594909668" fill="none" stroke="rgb(2, 2, -5)" stroke-opacity="0.18094467" stroke-linecap="round" stroke-linejoin="round"/>
    <path d="M 124.33802032470703 55.729408264160156 C 146.80206298828125 64.7447738647461 168.0650634765625 79.03153991699219 127.0908432006836 68.15423583984375" stroke-width="11.92082691192627" fill="none" stroke="rgb(0, 0, 0)" stroke-opacity="0.20043856" stroke-linecap="round" stroke-linejoin="round"/>
    <path d="M 38.563804626464844 178.04718017578125 C 4.763748645782471 152.25123596191406 71.79279327392578 176.6655731201172 94.69966125488281 184.6589813232422" stroke-width="20.546815872192383" fill="none" stroke="rgb(1, 0, -1)" stroke-opacity="0.018263817" stroke-linecap="round" stroke-linejoin="round"/>
    <path d="M 32.84540939331055 140.3195343017578 C 46.00259017944336 153.66098022460938 22.465959548950195 172.330078125 72.11459350585938 130.0426483154297" stroke-width="2.9301834106445312" fill="none" stroke="rgb(0, 0, 0)" stroke-opacity="0.27360088" stroke-linecap="round" stroke-linejoin="round"/>
    <path d="M 124.52392578125 147.7392578125 C 81.33575439453125 117.37715148925781 102.89069366455078 86.2527847290039 131.56329345703125 129.7081756591797" stroke-width="7.574306964874268" fill="none" stroke="rgb(0, 0, 0)" stroke-opacity="0.12021119" stroke-linecap="round" stroke-linejoin="round"/>
    <path d="M 162.8372802734375 176.28395080566406 C 98.54590606689453 169.25074768066406 159.0238037109375 141.9552001953125 211.76551818847656 151.61819458007812" stroke-width="13.097683906555176" fill="none" stroke="rgb(1, 0, -1)" stroke-opacity="0.12510024" stroke-linecap="round" stroke-linejoin="round"/>
    <path d="M 110.70814514160156 197.4056854248047 C 144.2600860595703 200.78468322753906 100.53144073486328 125.10680389404297 161.64207458496094 164.48109436035156" stroke-width="7.463732719421387" fill="none" stroke="rgb(0, 0, -1)" stroke-opacity="0.09256026" stroke-linecap="round" stroke-linejoin="round"/>
    <path d="M 90.4206314086914 158.25645446777344 C 143.55374145507812 167.2568359375 1.0064021348953247 147.93467712402344 115.15754699707031 164.6951904296875" stroke-width="2.3203654289245605" fill="none" stroke="rgb(0, 0, 0)" stroke-opacity="-0.00011557725" stroke-linecap="round" stroke-linejoin="round"/>
    <path d="M 242.62850952148438 153.16026306152344 C 221.32089233398438 147.83721923828125 242.04379272460938 149.7226104736328 235.35134887695312 153.00851440429688" stroke-width="3.809258460998535" fill="none" stroke="rgb(0, 0, 0)" stroke-opacity="0.2970794" stroke-linecap="round" stroke-linejoin="round"/>
    <path d="M 66.40383911132812 194.25767517089844 C 180.1162872314453 204.72422790527344 97.45377349853516 181.5128936767578 88.25235748291016 191.89459228515625" stroke-width="15.863771438598633" fill="none" stroke="rgb(-1, 1, 0)" stroke-opacity="0.15176223" stroke-linecap="round" stroke-linejoin="round"/>
    <path d="M 120.74417877197266 58.869266510009766 C 113.13920593261719 93.02507781982422 116.96480560302734 98.1692886352539 106.31497192382812 97.1374740600586" stroke-width="4.8251519203186035" fill="none" stroke="rgb(0, 0, 0)" stroke-opacity="-0.003681715" stroke-linecap="round" stroke-linejoin="round"/>
    <path d="M 140.93650817871094 84.14456939697266 C 120.92860412597656 108.9164810180664 102.03889465332031 117.4870376586914 128.795166015625 75.87730407714844" stroke-width="14.203946113586426" fill="none" stroke="rgb(0, 2, -1)" stroke-opacity="0.027725022" stroke-linecap="round" stroke-linejoin="round"/>
    <path d="M 118.98475646972656 166.58314514160156 C 92.1288070678711 50.4416389465332 109.62928771972656 48.37156295776367 112.20527648925781 68.03926849365234" stroke-width="16.40561294555664" fill="none" stroke="rgb(0, 0, 0)" stroke-opacity="-0.001979987" stroke-linecap="round" stroke-linejoin="round"/>
    <path d="M 90.65069580078125 96.2206802368164 C 83.95634460449219 99.01105499267578 61.64459991455078 90.02589416503906 96.05648803710938 167.16954040527344" stroke-width="8.001355171203613" fill="none" stroke="rgb(0, 0, 0)" stroke-opacity="-5.136553e-05" stroke-linecap="round" stroke-linejoin="round"/>
    <path d="M 83.66871643066406 197.60653686523438 C 164.66217041015625 230.14744567871094 -32.72346115112305 206.8325958251953 128.9067840576172 217.0057373046875" stroke-width="7.607788562774658" fill="none" stroke="rgb(0, 0, 3)" stroke-opacity="0.14887853" stroke-linecap="round" stroke-linejoin="round"/>
    <path d="M 224.2738037109375 145.53428649902344 C 179.11570739746094 109.72144317626953 172.240478515625 121.90678405761719 216.2033233642578 103.78470611572266" stroke-width="2.6261749267578125" fill="none" stroke="rgb(0, 0, 0)" stroke-opacity="-0.00024665185" stroke-linecap="round" stroke-linejoin="round"/>
    <path d="M 88.42259216308594 86.74405670166016 C 123.74484252929688 170.05300903320312 130.7169189453125 109.41107940673828 94.96292877197266 95.01233673095703" stroke-width="2.7564830780029297" fill="none" stroke="rgb(0, 3, 0)" stroke-opacity="0.24485588" stroke-linecap="round" stroke-linejoin="round"/>
    <path d="M -17.457754135131836 169.68576049804688 C -95.4953384399414 163.6981658935547 -54.516822814941406 181.25511169433594 131.33056640625 179.99169921875" stroke-width="5.974277973175049" fill="none" stroke="rgb(0, 0, 1)" stroke-opacity="1.0008339" stroke-linecap="round" stroke-linejoin="round"/>
    <path d="M 195.5898895263672 114.69367218017578 C 258.9112854003906 92.30540466308594 278.21649169921875 111.78960418701172 266.41259765625 102.41741943359375" stroke-width="6.3122053146362305" fill="none" stroke="rgb(0, 0, 0)" stroke-opacity="0.021205142" stroke-linecap="round" stroke-linejoin="round"/>
    <path d="M 93.89952087402344 175.0535125732422 C 43.58038330078125 145.50205993652344 13.758172035217285 155.07041931152344 65.92408752441406 166.7421112060547" stroke-width="14.875728607177734" fill="none" stroke="rgb(3, -1, -3)" stroke-opacity="0.3938287" stroke-linecap="round" stroke-linejoin="round"/>
    <path d="M -22.063072204589844 191.1138916015625 C 184.1067352294922 203.48757934570312 28.37783432006836 213.093994140625 35.127479553222656 193.03529357910156" stroke-width="8.578661918640137" fill="none" stroke="rgb(0, 0, 0)" stroke-opacity="0.09300246" stroke-linecap="round" stroke-linejoin="round"/>
    <path d="M 97.21147155761719 149.2843017578125 C 18.676387786865234 171.12701416015625 59.62820053100586 150.91844177246094 57.235774993896484 142.90048217773438" stroke-width="2.0951969623565674" fill="none" stroke="rgb(0, 0, 0)" stroke-opacity="0.02881437" stroke-linecap="round" stroke-linejoin="round"/>
    <path d="M 84.41047668457031 89.02362823486328 C 116.9606704711914 113.09662628173828 130.25486755371094 156.54412841796875 99.61400604248047 78.23966979980469" stroke-width="2.4455108642578125" fill="none" stroke="rgb(-1, 0, 0)" stroke-opacity="0.32768932" stroke-linecap="round" stroke-linejoin="round"/>
    <path d="M 72.09798431396484 121.43115234375 C 68.13406372070312 154.7197723388672 110.01244354248047 159.38058471679688 98.458251953125 178.35940551757812" stroke-width="39.27428436279297" fill="none" stroke="rgb(0, 1, -2)" stroke-opacity="0.18145306" stroke-linecap="round" stroke-linejoin="round"/>
    <path d="M 124.49576568603516 133.81112670898438 C 100.54583740234375 70.66497802734375 106.70867156982422 158.34083557128906 152.2658233642578 154.48582458496094" stroke-width="1.9273097515106201" fill="none" stroke="rgb(0, 0, 0)" stroke-opacity="0.4555844" stroke-linecap="round" stroke-linejoin="round"/>
    <path d="M 177.93775939941406 153.8212127685547 C 221.91114807128906 155.69749450683594 321.271728515625 166.43292236328125 148.8270721435547 167.37037658691406" stroke-width="2.709444522857666" fill="none" stroke="rgb(1, 0, -1)" stroke-opacity="0.75769174" stroke-linecap="round" stroke-linejoin="round"/>
    <path d="M 144.21151733398438 88.68775177001953 C 162.04638671875 204.43934631347656 99.47093200683594 154.4587860107422 119.77598571777344 122.70002746582031" stroke-width="18.007766723632812" fill="none" stroke="rgb(0, 4, -4)" stroke-opacity="0.05275135" stroke-linecap="round" stroke-linejoin="round"/>
    <path d="M 132.9124755859375 66.01472473144531 C 164.26895141601562 92.30445098876953 183.36375427246094 92.28834533691406 153.72055053710938 103.49176025390625" stroke-width="19.418983459472656" fill="none" stroke="rgb(-1, 2, -4)" stroke-opacity="0.06982047" stroke-linecap="round" stroke-linejoin="round"/>
    <path d="M 316.56317138671875 183.3385772705078 C 163.98245239257812 184.5766143798828 24.93121910095215 180.8004608154297 250.7677001953125 181.3046417236328" stroke-width="5.849589824676514" fill="none" stroke="rgb(0, 0, 1)" stroke-opacity="0.6506118" stroke-linecap="round" stroke-linejoin="round"/>
    <path d="M 33.9853515625 164.9670867919922 C -97.26220703125 158.69281005859375 6.783774375915527 164.98562622070312 -22.33143424987793 189.10763549804688" stroke-width="5.579919338226318" fill="none" stroke="rgb(0, 0, 1)" stroke-opacity="0.5497876" stroke-linecap="round" stroke-linejoin="round"/>
    <path d="M 190.83128356933594 189.7104949951172 C 281.5423583984375 164.91307067871094 299.8800354003906 179.5757293701172 239.93251037597656 173.23977661132812" stroke-width="22.344833374023438" fill="none" stroke="rgb(0, -1, 0)" stroke-opacity="0.14741984" stroke-linecap="round" stroke-linejoin="round"/>
    <path d="M 154.51663208007812 173.84637451171875 C 20.577091217041016 177.97463989257812 -81.17044830322266 167.95375061035156 57.54953384399414 173.52435302734375" stroke-width="22.42591094970703" fill="none" stroke="rgb(2, 0, -3)" stroke-opacity="0.22088039" stroke-linecap="round" stroke-linejoin="round"/>
    <path d="M 182.9583740234375 146.9227294921875 C 153.8868408203125 156.4730987548828 184.2260284423828 139.40475463867188 178.23403930664062 141.60914611816406" stroke-width="8.33682918548584" fill="none" stroke="rgb(-1, -2, 1)" stroke-opacity="1.0068407" stroke-linecap="round" stroke-linejoin="round"/>
    <path d="M 116.49472045898438 104.63320922851562 C 63.799957275390625 96.73871612548828 57.227210998535156 69.43112182617188 93.52008819580078 164.00921630859375" stroke-width="13.534387588500977" fill="none" stroke="rgb(0, 2, -2)" stroke-opacity="0.2551818" stroke-linecap="round" stroke-linejoin="round"/>
    <path d="M 137.51791381835938 208.4783935546875 C 148.71408081054688 215.1405792236328 100.8366470336914 195.2608642578125 15.45317268371582 172.99789428710938" stroke-width="6.0117621421813965" fill="none" stroke="rgb(0, 0, 0)" stroke-opacity="0.15750694" stroke-linecap="round" stroke-linejoin="round"/>
    <path d="M 154.40869140625 103.34468078613281 C 140.1019287109375 47.87703323364258 127.76432800292969 68.59744262695312 135.0983428955078 97.0025634765625" stroke-width="5.378734111785889" fill="none" stroke="rgb(-1, 1, -1)" stroke-opacity="0.032290492" stroke-linecap="round" stroke-linejoin="round"/>
    <path d="M 186.65464782714844 127.49337768554688 C 182.13003540039062 172.234130859375 189.78863525390625 135.28497314453125 188.65060424804688 185.23362731933594" stroke-width="4.076155185699463" fill="none" stroke="rgb(0, 0, 0)" stroke-opacity="0.21909548" stroke-linecap="round" stroke-linejoin="round"/>
    <path d="M 126.27945709228516 202.04251098632812 C 59.47953414916992 207.0642547607422 26.572675704956055 190.62191772460938 171.8565673828125 188.41567993164062" stroke-width="13.632816314697266" fill="none" stroke="rgb(-5, 3, 1)" stroke-opacity="0.23809557" stroke-linecap="round" stroke-linejoin="round"/>
    <path d="M 81.33122253417969 187.23365783691406 C 175.73614501953125 178.77468872070312 50.405879974365234 190.71807861328125 176.53065490722656 201.66603088378906" stroke-width="10.112907409667969" fill="none" stroke="rgb(-5, 3, 1)" stroke-opacity="0.15401578" stroke-linecap="round" stroke-linejoin="round"/>
    <path d="M 68.60343170166016 87.35958862304688 C 90.00469207763672 173.8642120361328 57.86509323120117 193.48545837402344 92.87458038330078 96.92985534667969" stroke-width="8.35823917388916" fill="none" stroke="rgb(0, 0, 0)" stroke-opacity="0.09773377" stroke-linecap="round" stroke-linejoin="round"/>
    <path d="M 236.96951293945312 107.1273193359375 C 252.33409118652344 114.33309173583984 237.03512573242188 113.61915588378906 196.4068145751953 99.57565307617188" stroke-width="14.99659252166748" fill="none" stroke="rgb(0, 0, 0)" stroke-opacity="0.008573824" stroke-linecap="round" stroke-linejoin="round"/>
    <path d="M 80.47175598144531 140.70094299316406 C 48.12705612182617 127.75202941894531 26.740253448486328 166.24740600585938 50.02726745605469 160.3240203857422" stroke-width="2.862823963165283" fill="none" stroke="rgb(0, 0, 0)" stroke-opacity="0.30396107" stroke-linecap="round" stroke-linejoin="round"/>
    <path d="M 202.70945739746094 128.64576721191406 C 201.56890869140625 114.4343490600586 208.1721954345703 125.42822265625 208.6212158203125 121.39466094970703" stroke-width="3.332068920135498" fill="none" stroke="rgb(0, 0, 0)" stroke-opacity="0.0011201373" stroke-linecap="round" stroke-linejoin="round"/>
    <path d="M 42.5228271484375 152.5566864013672 C 86.37835693359375 174.61483764648438 -33.707828521728516 166.7494354248047 34.235923767089844 172.9925537109375" stroke-width="16.598989486694336" fill="none" stroke="rgb(2, 0, -1)" stroke-opacity="0.23618251" stroke-linecap="round" stroke-linejoin="round"/>
    <path d="M 90.00127410888672 137.5594482421875 C 55.330780029296875 158.21939086914062 -2.476973533630371 193.03822326660156 115.5466079711914 192.67843627929688" stroke-width="12.205183029174805" fill="none" stroke="rgb(0, 1, -1)" stroke-opacity="0.2114825" stroke-linecap="round" stroke-linejoin="round"/>
    <path d="M 40.00194549560547 156.72000122070312 C 92.18151092529297 187.34486389160156 9.871050834655762 148.8511505126953 14.361153602600098 160.87013244628906" stroke-width="3.659895181655884" fill="none" stroke="rgb(-2, -1, 2)" stroke-opacity="0.6753823" stroke-linecap="round" stroke-linejoin="round"/>
    <path d="M 165.14697265625 221.3814697265625 C 3.970878839492798 226.79481506347656 236.0920867919922 230.40826416015625 83.0359115600586 214.0994415283203" stroke-width="5.392382621765137" fill="none" stroke="rgb(0, 0, 1)" stroke-opacity="0.20730959" stroke-linecap="round" stroke-linejoin="round"/>
    <path d="M 69.42367553710938 140.1396942138672 C 88.00284576416016 124.31168365478516 64.70759582519531 132.23135375976562 37.08853530883789 143.56967163085938" stroke-width="6.319208145141602" fill="none" stroke="rgb(0, -1, 2)" stroke-opacity="0.68921745" stroke-linecap="round" stroke-linejoin="round"/>
    <path d="M 80.2025375366211 222.7823486328125 C 137.94033813476562 221.68194580078125 157.39012145996094 217.0601806640625 178.30712890625 188.85813903808594" stroke-width="7.452884674072266" fill="none" stroke="rgb(-2, 0, 3)" stroke-opacity="0.11437986" stroke-linecap="round" stroke-linejoin="round"/>
    <path d="M 210.75057983398438 150.14584350585938 C 100.67744445800781 200.01852416992188 182.7415771484375 184.26673889160156 202.6612091064453 137.52549743652344" stroke-width="9.408129692077637" fill="none" stroke="rgb(0, 0, 0)" stroke-opacity="0.016560445" stroke-linecap="round" stroke-linejoin="round"/>
    <path d="M 34.004905700683594 183.27394104003906 C 250.65171813964844 183.6990203857422 292.28411865234375 137.8470916748047 123.29814147949219 159.83749389648438" stroke-width="11.808485984802246" fill="none" stroke="rgb(0, 3, -4)" stroke-opacity="0.1674391" stroke-linecap="round" stroke-linejoin="round"/>
    <path d="M 121.74044036865234 181.75733947753906 C 115.11091613769531 105.77410125732422 117.63387298583984 112.64653778076172 60.62827682495117 147.7046661376953" stroke-width="35.956077575683594" fill="none" stroke="rgb(0, 1, -1)" stroke-opacity="0.11635866" stroke-linecap="round" stroke-linejoin="round"/>
    <path d="M 73.99227905273438 160.3828887939453 C 59.7363395690918 147.15277099609375 90.23848724365234 148.99905395507812 57.21583938598633 90.53378295898438" stroke-width="2.132941961288452" fill="none" stroke="rgb(0, 0, 0)" stroke-opacity="-0.0027060234" stroke-linecap="round" stroke-linejoin="round"/>
    <path d="M 188.0703582763672 62.76427459716797 C 192.9351806640625 96.9873275756836 208.2744140625 134.56109619140625 162.31387329101562 77.6520767211914" stroke-width="1.994431734085083" fill="none" stroke="rgb(0, 0, 0)" stroke-opacity="0.0010316017" stroke-linecap="round" stroke-linejoin="round"/>
    <path d="M 249.8616485595703 201.36688232421875 C 264.0180358886719 215.31459045410156 190.38034057617188 180.4107666015625 247.71426391601562 203.91954040527344" stroke-width="7.899931907653809" fill="none" stroke="rgb(0, 0, 0)" stroke-opacity="0.02885177" stroke-linecap="round" stroke-linejoin="round"/>
    <path d="M 153.45462036132812 152.3155059814453 C 316.63104248046875 150.62083435058594 320.9568176269531 138.1063232421875 229.6254119873047 141.4134063720703" stroke-width="6.070842742919922" fill="none" stroke="rgb(1, 0, 0)" stroke-opacity="0.9798163" stroke-linecap="round" stroke-linejoin="round"/>
    <path d="M 165.76988220214844 88.30337524414062 C 120.3837890625 41.47037124633789 138.5420379638672 78.93257141113281 113.96031188964844 144.63375854492188" stroke-width="17.54927635192871" fill="none" stroke="rgb(0, 4, -5)" stroke-opacity="0.08475756" stroke-linecap="round" stroke-linejoin="round"/>
    <path d="M 99.73838806152344 98.2443618774414 C 141.9915313720703 150.06582641601562 103.82608795166016 87.4516830444336 102.9571304321289 71.99742126464844" stroke-width="6.955748081207275" fill="none" stroke="rgb(0, 0, 0)" stroke-opacity="0.46088096" stroke-linecap="round" stroke-linejoin="round"/>
    <path d="M 237.95367431640625 136.1226806640625 C 231.19410705566406 166.24192810058594 230.45399475097656 167.40017700195312 191.326904296875 116.48237609863281" stroke-width="1.9844918251037598" fill="none" stroke="rgb(-1, 0, 1)" stroke-opacity="0.359595" stroke-linecap="round" stroke-linejoin="round"/>
    <path d="M 152.77630615234375 136.51548767089844 C 106.12994384765625 126.05058288574219 66.34960174560547 203.9940948486328 141.82801818847656 188.5641326904297" stroke-width="15.766819953918457" fill="none" stroke="rgb(0, 1, 0)" stroke-opacity="0.016523434" stroke-linecap="round" stroke-linejoin="round"/>
    <path d="M 108.57380676269531 179.76524353027344 C 122.17433166503906 160.59478759765625 45.57612991333008 158.3944549560547 172.31167602539062 162.4355926513672" stroke-width="9.062848091125488" fill="none" stroke="rgb(1, 0, -1)" stroke-opacity="0.116597585" stroke-linecap="round" stroke-linejoin="round"/>
    <path d="M 56.449928283691406 120.0516586303711 C 141.59814453125 171.7561492919922 131.87144470214844 148.9400177001953 107.61746978759766 75.78030395507812" stroke-width="6.002284526824951" fill="none" stroke="rgb(0, 1, -2)" stroke-opacity="0.24786764" stroke-linecap="round" stroke-linejoin="round"/>
    <path d="M 112.22926330566406 94.41594696044922 C 103.556640625 66.231201171875 164.05291748046875 87.52945709228516 133.16854858398438 60.73578643798828" stroke-width="4.3830389976501465" fill="none" stroke="rgb(0, 0, 0)" stroke-opacity="0.0025747889" stroke-linecap="round" stroke-linejoin="round"/>
    <path d="M 81.88912963867188 113.74854278564453 C 88.30301666259766 214.48129272460938 127.97225189208984 196.69772338867188 68.0457534790039 100.02195739746094" stroke-width="7.169290065765381" fill="none" stroke="rgb(0, 0, -1)" stroke-opacity="0.2665003" stroke-linecap="round" stroke-linejoin="round"/>
    <path d="M 135.647216796875 151.52134704589844 C 116.22552490234375 89.99992370605469 97.34555053710938 73.4018325805664 114.15177154541016 120.09620666503906" stroke-width="6.882137775421143" fill="none" stroke="rgb(0, 2, 0)" stroke-opacity="0.9859124" stroke-linecap="round" stroke-linejoin="round"/>
    <path d="M 97.93077087402344 67.67279815673828 C 114.62274169921875 104.78076171875 96.12442016601562 101.12057495117188 113.73148345947266 101.75895690917969" stroke-width="7.235679626464844" fill="none" stroke="rgb(1, 0, 0)" stroke-opacity="0.20061865" stroke-linecap="round" stroke-linejoin="round"/>
    <path d="M 110.86238098144531 73.71753692626953 C 118.44058227539062 167.2489013671875 97.85831451416016 139.86099243164062 83.66002655029297 96.29972839355469" stroke-width="2.2665905952453613" fill="none" stroke="rgb(0, 0, 0)" stroke-opacity="0.03952991" stroke-linecap="round" stroke-linejoin="round"/>
    <path d="M 89.77444458007812 138.7909698486328 C 45.6445198059082 148.62765502929688 52.07987594604492 139.96853637695312 106.21565246582031 164.3433380126953" stroke-width="1.8759965896606445" fill="none" stroke="rgb(-1, -1, 2)" stroke-opacity="0.83090806" stroke-linecap="round" stroke-linejoin="round"/>
    <path d="M 117.8221435546875 116.22126770019531 C 134.615966796875 153.8688201904297 131.65963745117188 143.01576232910156 108.55279541015625 140.82791137695312" stroke-width="6.157555103302002" fill="none" stroke="rgb(-4, 0, 3)" stroke-opacity="0.46383286" stroke-linecap="round" stroke-linejoin="round"/>
    <path d="M 124.21648406982422 85.2674331665039 C 209.73089599609375 91.32427215576172 168.1758270263672 95.99122619628906 88.36557006835938 75.9657211303711" stroke-width="20.63138771057129" fill="none" stroke="rgb(0, 0, 0)" stroke-opacity="0.0007839964" stroke-linecap="round" stroke-linejoin="round"/>
    <path d="M 176.58212280273438 136.5283203125 C 208.0108184814453 163.1119384765625 191.2240447998047 132.5039520263672 218.54568481445312 123.86675262451172" stroke-width="18.020200729370117" fill="none" stroke="rgb(0, 0, 0)" stroke-opacity="0.0018616226" stroke-linecap="round" stroke-linejoin="round"/>
    <path d="M 130.54519653320312 182.07505798339844 C 51.11396789550781 197.451171875 43.552913665771484 73.06472778320312 76.87641906738281 115.96745300292969" stroke-width="13.7478609085083" fill="none" stroke="rgb(3, 0, -4)" stroke-opacity="0.26030502" stroke-linecap="round" stroke-linejoin="round"/>
    <path d="M 69.3071517944336 186.8218994140625 C 30.360462188720703 189.287353515625 137.39669799804688 197.64450073242188 192.2987060546875 183.00367736816406" stroke-width="26.244638442993164" fill="none" stroke="rgb(-2, 1, 0)" stroke-opacity="0.15057571" stroke-linecap="round" stroke-linejoin="round"/>
    <path d="M 75.40386962890625 136.0477294921875 C 53.00971603393555 99.34280395507812 71.92158508300781 114.14616394042969 76.46522521972656 182.6380157470703" stroke-width="2.3315062522888184" fill="none" stroke="rgb(1, 0, 0)" stroke-opacity="0.3947979" stroke-linecap="round" stroke-linejoin="round"/>
    <path d="M 133.05120849609375 94.26290130615234 C 167.99305725097656 113.89500427246094 167.35508728027344 184.5515899658203 166.5567626953125 157.05828857421875" stroke-width="2.0109729766845703" fill="none" stroke="rgb(0, 0, 0)" stroke-opacity="0.012975916" stroke-linecap="round" stroke-linejoin="round"/>
    <path d="M 263.9044494628906 154.13760375976562 C 199.21388244628906 142.27207946777344 185.4789276123047 136.1378936767578 278.5150146484375 133.06814575195312" stroke-width="2.070446014404297" fill="none" stroke="rgb(0, 0, 0)" stroke-opacity="-0.0035457066" stroke-linecap="round" stroke-linejoin="round"/>
    <path d="M 234.33006286621094 213.83238220214844 C 68.61074829101562 227.9532928466797 78.26686096191406 223.84051513671875 208.42263793945312 176.75999450683594" stroke-width="9.528663635253906" fill="none" stroke="rgb(-3, -1, 5)" stroke-opacity="0.14156145" stroke-linecap="round" stroke-linejoin="round"/>
    <path d="M 79.40486145019531 211.790283203125 C 223.82257080078125 193.1717987060547 184.49998474121094 245.8572540283203 122.8750991821289 157.72418212890625" stroke-width="12.851546287536621" fill="none" stroke="rgb(0, 0, 0)" stroke-opacity="0.09793074" stroke-linecap="round" stroke-linejoin="round"/>
    <path d="M -59.581642150878906 171.77294921875 C 37.9966926574707 159.3917694091797 51.1968994140625 173.1431427001953 1.4139820337295532 173.90603637695312" stroke-width="11.446279525756836" fill="none" stroke="rgb(3, -2, 0)" stroke-opacity="0.5189276" stroke-linecap="round" stroke-linejoin="round"/>
    <path d="M 116.77842712402344 91.14306640625 C 100.21244812011719 80.59689331054688 99.80964660644531 83.47482299804688 150.27593994140625 85.78129577636719" stroke-width="16.261493682861328" fill="none" stroke="rgb(0, 2, -2)" stroke-opacity="0.07723994" stroke-linecap="round" stroke-linejoin="round"/>
    <path d="M 130.83221435546875 154.65777587890625 C 89.56784057617188 125.36709594726562 131.1980438232422 143.35708618164062 140.15968322753906 172.33641052246094" stroke-width="4.098824977874756" fill="none" stroke="rgb(-6, -4, 5)" stroke-opacity="0.43559414" stroke-linecap="round" stroke-linejoin="round"/>
    <path d="M 40.15870666503906 167.1893310546875 C 34.06113052368164 135.9347686767578 9.917715072631836 172.34388732910156 55.11038589477539 144.66098022460938" stroke-width="7.973541736602783" fill="none" stroke="rgb(2, -1, -1)" stroke-opacity="0.4308859" stroke-linecap="round" stroke-linejoin="round"/>
    <path d="M 108.68685150146484 91.12191772460938 C 64.10201263427734 96.61196899414062 61.947208404541016 121.27094268798828 108.43876647949219 161.9940948486328" stroke-width="10.3803129196167" fill="none" stroke="rgb(0, 0, 0)" stroke-opacity="0.028928129" stroke-linecap="round" stroke-linejoin="round"/>
    <path d="M 189.52610778808594 146.14511108398438 C 140.0677490234375 157.3968048095703 155.1952362060547 149.78684997558594 149.729248046875 146.0129852294922" stroke-width="8.964974403381348" fill="none" stroke="rgb(1, -1, 0)" stroke-opacity="0.44684717" stroke-linecap="round" stroke-linejoin="round"/>
    <path d="M 57.105934143066406 108.14598083496094 C 74.80343627929688 140.81298828125 56.49558639526367 136.776123046875 105.83132934570312 107.85616302490234" stroke-width="16.52901840209961" fill="none" stroke="rgb(0, 1, 0)" stroke-opacity="0.075901575" stroke-linecap="round" stroke-linejoin="round"/>
    <path d="M 188.4246826171875 207.1265869140625 C 181.58834838867188 162.8843994140625 212.98951721191406 117.21031951904297 156.3716278076172 67.99259185791016" stroke-width="2.9767613410949707" fill="none" stroke="rgb(-2, 1, 2)" stroke-opacity="0.14942342" stroke-linecap="round" stroke-linejoin="round"/>
    <path d="M 145.24192810058594 219.01995849609375 C 66.40222930908203 171.58285522460938 87.1344985961914 174.38253784179688 189.23394775390625 208.3830108642578" stroke-width="17.110183715820312" fill="none" stroke="rgb(-3, 1, 0)" stroke-opacity="0.15722182" stroke-linecap="round" stroke-linejoin="round"/>
    <path d="M 80.84382629394531 167.47705078125 C 80.43228149414062 66.44227600097656 98.5940170288086 75.95160675048828 122.66448974609375 158.90855407714844" stroke-width="4.801794528961182" fill="none" stroke="rgb(0, 0, 0)" stroke-opacity="0.03571513" stroke-linecap="round" stroke-linejoin="round"/>
    <path d="M 144.22250366210938 175.43936157226562 C 94.0968017578125 206.04251098632812 162.17909240722656 205.30982971191406 21.13945198059082 226.4639129638672" stroke-width="13.932821273803711" fill="none" stroke="rgb(1, 3, 0)" stroke-opacity="0.15954748" stroke-linecap="round" stroke-linejoin="round"/>
    <path d="M 134.12496948242188 63.74074172973633 C 170.9042510986328 88.95957946777344 158.98138427734375 123.67393493652344 136.39894104003906 87.70500183105469" stroke-width="6.136746883392334" fill="none" stroke="rgb(-3, 3, -4)" stroke-opacity="0.05343663" stroke-linecap="round" stroke-linejoin="round"/>
    <path d="M 145.21707153320312 173.7667694091797 C 149.48863220214844 82.65553283691406 98.595947265625 83.69066619873047 101.69922637939453 113.88426971435547" stroke-width="8.766684532165527" fill="none" stroke="rgb(0, 0, 0)" stroke-opacity="-0.005733032" stroke-linecap="round" stroke-linejoin="round"/>
    <path d="M 128.61419677734375 146.6746063232422 C 257.02685546875 124.61556243896484 298.9256896972656 195.85963439941406 166.43374633789062 173.41419982910156" stroke-width="2.2896006107330322" fill="none" stroke="rgb(0, 0, 0)" stroke-opacity="-0.001325937" stroke-linecap="round" stroke-linejoin="round"/>
    <path d="M 52.13353729248047 146.9355926513672 C 65.3052978515625 150.94703674316406 -3.256073474884033 134.63226318359375 53.22037124633789 165.4485626220703" stroke-width="4.805290699005127" fill="none" stroke="rgb(0, 0, 1)" stroke-opacity="0.2664375" stroke-linecap="round" stroke-linejoin="round"/>
    <path d="M 100.08464050292969 164.7863006591797 C 135.66165161132812 163.23159790039062 138.22662353515625 186.5818328857422 189.04452514648438 156.70985412597656" stroke-width="5.5211262702941895" fill="none" stroke="rgb(0, 0, 0)" stroke-opacity="0.040341184" stroke-linecap="round" stroke-linejoin="round"/>
    <path d="M 151.24392700195312 144.15853881835938 C 143.3563232421875 195.86019897460938 135.54933166503906 120.31670379638672 101.321044921875 96.393310546875" stroke-width="2.006300449371338" fill="none" stroke="rgb(0, 0, 0)" stroke-opacity="0.04533661" stroke-linecap="round" stroke-linejoin="round"/>
    <path d="M 119.99299621582031 50.84113311767578 C 134.03932189941406 74.11727905273438 153.43218994140625 100.63522338867188 142.19383239746094 159.99591064453125" stroke-width="2.6272430419921875" fill="none" stroke="rgb(0, 0, 1)" stroke-opacity="0.61601686" stroke-linecap="round" stroke-linejoin="round"/>
    <path d="M 112.30628204345703 158.5296630859375 C 66.45603942871094 147.40609741210938 74.646728515625 135.56614685058594 44.29146957397461 158.729736328125" stroke-width="15.812728881835938" fill="none" stroke="rgb(2, 0, -3)" stroke-opacity="0.25242022" stroke-linecap="round" stroke-linejoin="round"/>
    <path d="M 140.92575073242188 97.21542358398438 C 148.27304077148438 78.89925384521484 126.24812316894531 79.15043640136719 106.68434143066406 69.05221557617188" stroke-width="1.976276159286499" fill="none" stroke="rgb(-1, 0, 1)" stroke-opacity="0.15292616" stroke-linecap="round" stroke-linejoin="round"/>
    <path d="M 69.65360260009766 127.15531158447266 C 65.86715698242188 142.56655883789062 60.33204650878906 116.32340240478516 101.50569915771484 145.1569366455078" stroke-width="3.7173259258270264" fill="none" stroke="rgb(0, 0, 0)" stroke-opacity="0.9652066" stroke-linecap="round" stroke-linejoin="round"/>
    <path d="M 71.24803924560547 100.85531616210938 C 118.16358184814453 162.7640380859375 78.90099334716797 122.48233032226562 51.357391357421875 150.43502807617188" stroke-width="6.726944446563721" fill="none" stroke="rgb(0, -1, 1)" stroke-opacity="0.5632576" stroke-linecap="round" stroke-linejoin="round"/>
    <path d="M 178.87289428710938 104.04307556152344 C 140.25636291503906 48.00871658325195 118.89678955078125 56.633995056152344 133.28981018066406 57.95565414428711" stroke-width="7.861405849456787" fill="none" stroke="rgb(0, 0, -1)" stroke-opacity="0.039757438" stroke-linecap="round" stroke-linejoin="round"/>
    <path d="M 208.48667907714844 107.30636596679688 C 243.28421020507812 117.82008361816406 200.76455688476562 121.1350326538086 229.6746826171875 125.72801971435547" stroke-width="12.52032470703125" fill="none" stroke="rgb(0, 0, 0)" stroke-opacity="0.020932117" stroke-linecap="round" stroke-linejoin="round"/>
    <path d="M 228.74966430664062 199.4832763671875 C 124.47423553466797 190.2053985595703 74.18827056884766 180.3137969970703 232.43255615234375 183.77232360839844" stroke-width="8.767642974853516" fill="none" stroke="rgb(-2, 1, 0)" stroke-opacity="0.17999417" stroke-linecap="round" stroke-linejoin="round"/>
    <path d="M 134.78933715820312 196.19541931152344 C 214.98301696777344 212.69142150878906 97.96803283691406 209.59005737304688 221.28627014160156 235.52804565429688" stroke-width="15.262077331542969" fill="none" stroke="rgb(-1, 0, 0)" stroke-opacity="0.11578429" stroke-linecap="round" stroke-linejoin="round"/>
    <path d="M 106.59265899658203 74.5697021484375 C 148.50308227539062 84.63159942626953 101.63138580322266 70.62516021728516 119.01476287841797 108.5796127319336" stroke-width="7.141554832458496" fill="none" stroke="rgb(0, 0, 0)" stroke-opacity="0.0351385" stroke-linecap="round" stroke-linejoin="round"/>
    <path d="M 63.1963996887207 87.22823333740234 C 79.79023742675781 123.16093444824219 50.27865982055664 124.86811065673828 59.65681457519531 150.46815490722656" stroke-width="3.794036626815796" fill="none" stroke="rgb(1, 0, -1)" stroke-opacity="0.5448604" stroke-linecap="round" stroke-linejoin="round"/>
    <path d="M -5.406881809234619 220.18112182617188 C 181.7672882080078 218.98529052734375 57.92716979980469 196.7672119140625 97.12960052490234 228.62069702148438" stroke-width="24.420438766479492" fill="none" stroke="rgb(0, -3, 3)" stroke-opacity="0.17215382" stroke-linecap="round" stroke-linejoin="round"/>
    <path d="M 195.2247772216797 135.44302368164062 C 259.59552001953125 112.86511993408203 284.038330078125 133.19325256347656 214.85009765625 149.79400634765625" stroke-width="19.028255462646484" fill="none" stroke="rgb(0, 0, 0)" stroke-opacity="0.00026918133" stroke-linecap="round" stroke-linejoin="round"/>
    <path d="M 227.2178497314453 149.0828094482422 C 351.8725891113281 171.82711791992188 332.5331115722656 174.8408660888672 104.13169860839844 170.7483673095703" stroke-width="5.374576091766357" fill="none" stroke="rgb(1, 0, -1)" stroke-opacity="0.9123058" stroke-linecap="round" stroke-linejoin="round"/>
    <path d="M 165.1051788330078 213.68280029296875 C -31.798738479614258 232.55035400390625 51.33101272583008 230.76712036132812 87.06101989746094 231.22824096679688" stroke-width="16.713085174560547" fill="none" stroke="rgb(-1, 0, 3)" stroke-opacity="0.26411152" stroke-linecap="round" stroke-linejoin="round"/>
    <path d="M 93.71796417236328 184.41567993164062 C 94.6282958984375 108.21895599365234 107.10272216796875 100.39205932617188 96.69746398925781 99.65804290771484" stroke-width="1.8813458681106567" fill="none" stroke="rgb(0, 0, 0)" stroke-opacity="0.09199417" stroke-linecap="round" stroke-linejoin="round"/>
    <path d="M 42.666988372802734 117.5799789428711 C 68.93360900878906 178.29869079589844 127.59989166259766 184.50038146972656 106.63478088378906 84.50972747802734" stroke-width="8.472513198852539" fill="none" stroke="rgb(0, 0, 0)" stroke-opacity="0.0074752113" stroke-linecap="round" stroke-linejoin="round"/>
    <path d="M 218.09783935546875 233.8321990966797 C 44.59895324707031 173.36996459960938 118.17363739013672 251.31288146972656 134.35650634765625 232.14492797851562" stroke-width="21.706851959228516" fill="none" stroke="rgb(-3, -3, 5)" stroke-opacity="0.16727814" stroke-linecap="round" stroke-linejoin="round"/>
    <path d="M 250.8306884765625 187.9666748046875 C 142.02565002441406 197.371826171875 197.7608642578125 194.31114196777344 161.73829650878906 161.48568725585938" stroke-width="20.755083084106445" fill="none" stroke="rgb(0, 0, 0)" stroke-opacity="0.16990492" stroke-linecap="round" stroke-linejoin="round"/>
    <path d="M -27.486474990844727 200.3895263671875 C 98.16097259521484 212.83114624023438 172.41510009765625 184.4764404296875 -6.005865097045898 170.0999298095703" stroke-width="23.415557861328125" fill="none" stroke="rgb(0, 0, 0)" stroke-opacity="0.115033485" stroke-linecap="round" stroke-linejoin="round"/>
    <path d="M 67.55852508544922 134.70350646972656 C 64.50464630126953 174.30136108398438 60.06806945800781 124.78707122802734 91.39584350585938 147.34283447265625" stroke-width="4.587611675262451" fill="none" stroke="rgb(0, 0, 0)" stroke-opacity="0.031126684" stroke-linecap="round" stroke-linejoin="round"/>
    <path d="M 89.28866577148438 141.1051788330078 C 106.513916015625 140.8284149169922 88.8291015625 134.3972930908203 84.48131561279297 137.4169158935547" stroke-width="6.284635543823242" fill="none" stroke="rgb(0, 0, 0)" stroke-opacity="0.0048531606" stroke-linecap="round" stroke-linejoin="round"/>
    <path d="M 56.859554290771484 147.6848602294922 C 83.57842254638672 109.28618621826172 119.29203033447266 88.90092468261719 69.67232513427734 142.3724822998047" stroke-width="15.86268138885498" fill="none" stroke="rgb(0, 0, 0)" stroke-opacity="0.016928015" stroke-linecap="round" stroke-linejoin="round"/>
    <path d="M 189.22108459472656 127.17346954345703 C 155.7628936767578 159.23585510253906 137.85427856445312 159.90113830566406 180.60096740722656 150.6846923828125" stroke-width="8.039620399475098" fill="none" stroke="rgb(1, -1, 0)" stroke-opacity="0.4041824" stroke-linecap="round" stroke-linejoin="round"/>
    <path d="M 105.72754669189453 204.07192993164062 C 80.72602081298828 208.58860778808594 185.6703338623047 211.81040954589844 -12.963608741760254 214.1816864013672" stroke-width="26.411924362182617" fill="none" stroke="rgb(0, -3, 5)" stroke-opacity="0.16413392" stroke-linecap="round" stroke-linejoin="round"/>
    <path d="M 243.42237854003906 136.99533081054688 C 277.6717529296875 124.58901977539062 161.71522521972656 105.53279113769531 220.35482788085938 207.64761352539062" stroke-width="56.368141174316406" fill="none" stroke="rgb(2, -1, 0)" stroke-opacity="0.28826874" stroke-linecap="round" stroke-linejoin="round"/>
    <path d="M 27.910057067871094 195.23611450195312 C 48.57712936401367 144.67762756347656 35.16173553466797 111.961181640625 81.39085388183594 218.11163330078125" stroke-width="29.235698699951172" fill="none" stroke="rgb(0, 0, 0)" stroke-opacity="0.053608093" stroke-linecap="round" stroke-linejoin="round"/>
    <path d="M 43.99101638793945 147.7985382080078 C 36.22743225097656 138.1273193359375 43.28892135620117 153.96231079101562 88.06885528564453 138.1852569580078" stroke-width="7.6492414474487305" fill="none" stroke="rgb(1, -1, -1)" stroke-opacity="1.0037528" stroke-linecap="round" stroke-linejoin="round"/>
    <path d="M 104.229248046875 172.1714630126953 C 71.64098358154297 130.5679931640625 81.3243637084961 219.6593475341797 58.829830169677734 149.33883666992188" stroke-width="2.07773494720459" fill="none" stroke="rgb(1, 0, 0)" stroke-opacity="0.19314837" stroke-linecap="round" stroke-linejoin="round"/>
  </g>
</svg>
