<?xml version="1.0" ?>
<svg xmlns="http://www.w3.org/2000/svg" version="1.1" width="224" height="224">
  <defs/>
  <g>
    <path d="M 146.4224090576172 118.39990997314453 C 133.87057495117188 67.27464294433594 131.71754455566406 82.47852325439453 122.2298355102539 75.63646697998047" stroke-width="1.957889199256897" fill="none" stroke="rgb(-1, 0, 2)" stroke-opacity="0.5307392" stroke-linecap="round" stroke-linejoin="round"/>
    <path d="M 137.51611328125 152.8968963623047 C 124.74679565429688 111.326171875 129.47299194335938 120.95211029052734 110.36241912841797 87.66620635986328" stroke-width="3.983790159225464" fill="none" stroke="rgb(0, 0, 0)" stroke-opacity="0.8172853" stroke-linecap="round" stroke-linejoin="round"/>
    <path d="M 57.94113540649414 191.88134765625 C -41.98775100708008 182.3401336669922 -101.25383758544922 216.66700744628906 47.52585220336914 206.3194580078125" stroke-width="6.18541145324707" fill="none" stroke="rgb(-4, 2, 1)" stroke-opacity="0.111636795" stroke-linecap="round" stroke-linejoin="round"/>
    <path d="M 119.05776977539062 112.46345520019531 C 93.46739196777344 87.57725524902344 103.72860717773438 62.01481628417969 123.52522277832031 106.63640594482422" stroke-width="5.440166473388672" fill="none" stroke="rgb(3, -2, 1)" stroke-opacity="0.32800815" stroke-linecap="round" stroke-linejoin="round"/>
    <path d="M 95.12294006347656 139.8650665283203 C 83.42947387695312 121.26516723632812 60.239864349365234 169.06617736816406 73.69430541992188 129.40708923339844" stroke-width="1.8715828657150269" fill="none" stroke="rgb(0, -1, 0)" stroke-opacity="1.0056779" stroke-linecap="round" stroke-linejoin="round"/>
    <path d="M 142.23500061035156 94.79259490966797 C 116.34101104736328 61.44303512573242 200.86199951171875 98.11714935302734 126.77078247070312 59.36709213256836" stroke-width="16.226076126098633" fill="none" stroke="rgb(1, 3, -3)" stroke-opacity="0.05940068" stroke-linecap="round" stroke-linejoin="round"/>
    <path d="M 62.27382278442383 140.89889526367188 C 70.01387023925781 195.28163146972656 42.32351303100586 134.01373291015625 42.20551300048828 164.2647705078125" stroke-width="18.613740921020508" fill="none" stroke="rgb(2, -2, -2)" stroke-opacity="0.31007552" stroke-linecap="round" stroke-linejoin="round"/>
    <path d="M 52.657405853271484 147.47593688964844 C 52.53816604614258 137.19281005859375 32.521305084228516 162.33628845214844 73.04266357421875 139.43968200683594" stroke-width="8.935176849365234" fill="none" stroke="rgb(0, 0, -1)" stroke-opacity="0.17825124" stroke-linecap="round" stroke-linejoin="round"/>
    <path d="M 101.4744644165039 143.80606079101562 C 60.349708557128906 116.44975280761719 74.46546936035156 144.30665588378906 128.7096405029297 146.9786376953125" stroke-width="3.9683101177215576" fill="none" stroke="rgb(1, 0, -1)" stroke-opacity="0.31058198" stroke-linecap="round" stroke-linejoin="round"/>
    <path d="M 192.28900146484375 155.39942932128906 C 100.19729614257812 153.4627685546875 140.0146942138672 153.93804931640625 192.86181640625 157.59368896484375" stroke-width="1.9507380723953247" fill="none" stroke="rgb(3, -4, 0)" stroke-opacity="0.4263894" stroke-linecap="round" stroke-linejoin="round"/>
    <path d="M 144.12701416015625 161.57269287109375 C 132.45611572265625 199.60411071777344 39.06193542480469 162.43324279785156 163.79534912109375 180.66326904296875" stroke-width="9.439233779907227" fill="none" stroke="rgb(5, -1, -5)" stroke-opacity="0.12038635" stroke-linecap="round" stroke-linejoin="round"/>
    <path d="M 129.83505249023438 171.60720825195312 C 175.14393615722656 154.42303466796875 69.82693481445312 166.6910858154297 94.90863037109375 160.54420471191406" stroke-width="1.7351726293563843" fill="none" stroke="rgb(0, 0, 2)" stroke-opacity="0.22252172" stroke-linecap="round" stroke-linejoin="round"/>
    <path d="M 229.6417999267578 154.16464233398438 C 215.82131958007812 150.69532775878906 238.6907501220703 156.02297973632812 233.07110595703125 153.62008666992188" stroke-width="2.182276725769043" fill="none" stroke="rgb(0, 0, 0)" stroke-opacity="0.9421203" stroke-linecap="round" stroke-linejoin="round"/>
    <path d="M 224.9872283935547 179.65187072753906 C -0.07568903267383575 189.11387634277344 -19.41426658630371 215.56602478027344 192.05442810058594 169.7731170654297" stroke-width="5.2718424797058105" fill="none" stroke="rgb(-2, 2, 0)" stroke-opacity="0.13238424" stroke-linecap="round" stroke-linejoin="round"/>
    <path d="M 93.89238739013672 94.90914916992188 C 112.69198608398438 167.17636108398438 152.75411987304688 159.50823974609375 95.27838897705078 97.48348236083984" stroke-width="2.5850651264190674" fill="none" stroke="rgb(-1, 0, 1)" stroke-opacity="0.1829534" stroke-linecap="round" stroke-linejoin="round"/>
    <path d="M 113.05809783935547 99.59584045410156 C 135.24220275878906 129.9022979736328 109.32763671875 129.5174102783203 104.93766021728516 91.16543579101562" stroke-width="6.583950042724609" fill="none" stroke="rgb(-2, 0, 1)" stroke-opacity="0.3062022" stroke-linecap="round" stroke-linejoin="round"/>
    <path d="M 113.86802673339844 99.24126434326172 C 111.940185546875 90.8188705444336 94.7138442993164 117.32769012451172 108.33477020263672 99.03594207763672" stroke-width="7.300590515136719" fill="none" stroke="rgb(0, 0, 0)" stroke-opacity="0.13698684" stroke-linecap="round" stroke-linejoin="round"/>
    <path d="M 64.09281921386719 85.42277526855469 C 75.51271057128906 115.8824462890625 78.10981750488281 109.29200744628906 67.25102233886719 106.53755950927734" stroke-width="3.487853527069092" fill="none" stroke="rgb(0, 0, 0)" stroke-opacity="0.4817661" stroke-linecap="round" stroke-linejoin="round"/>
    <path d="M 166.54107666015625 217.64434814453125 C 7.588347911834717 187.30722045898438 219.54107666015625 200.32806396484375 35.240745544433594 210.2297821044922" stroke-width="4.074360370635986" fill="none" stroke="rgb(1, -2, 0)" stroke-opacity="0.09615593" stroke-linecap="round" stroke-linejoin="round"/>
    <path d="M 187.87823486328125 125.24786376953125 C 193.27789306640625 107.8947525024414 179.08871459960938 123.9095230102539 205.90504455566406 107.38182067871094" stroke-width="1.9764991998672485" fill="none" stroke="rgb(-2, 1, 2)" stroke-opacity="0.12097743" stroke-linecap="round" stroke-linejoin="round"/>
    <path d="M 100.78662109375 71.75374603271484 C 128.12042236328125 109.77154541015625 112.30206298828125 108.75334930419922 108.1798095703125 83.52694702148438" stroke-width="4.125860214233398" fill="none" stroke="rgb(2, 0, -2)" stroke-opacity="0.5942159" stroke-linecap="round" stroke-linejoin="round"/>
    <path d="M -32.622291564941406 176.83238220214844 C -13.080595970153809 173.33811950683594 189.78814697265625 186.99549865722656 44.2535285949707 173.3894805908203" stroke-width="7.016227722167969" fill="none" stroke="rgb(6, 2, -7)" stroke-opacity="0.25009903" stroke-linecap="round" stroke-linejoin="round"/>
    <path d="M 197.13677978515625 116.76773834228516 C 246.960205078125 86.10633087158203 290.280029296875 116.18427276611328 255.8004913330078 96.2450180053711" stroke-width="10.763545036315918" fill="none" stroke="rgb(2, -2, 2)" stroke-opacity="0.05331107" stroke-linecap="round" stroke-linejoin="round"/>
    <path d="M 48.305686950683594 155.70230102539062 C 24.610185623168945 140.63206481933594 24.244184494018555 146.2205352783203 60.151641845703125 153.09693908691406" stroke-width="9.724267959594727" fill="none" stroke="rgb(0, 0, 0)" stroke-opacity="0.013320463" stroke-linecap="round" stroke-linejoin="round"/>
    <path d="M 32.82018280029297 153.725830078125 C 39.23555374145508 151.60267639160156 56.41254425048828 164.7425537109375 69.25074005126953 169.6002960205078" stroke-width="5.878703594207764" fill="none" stroke="rgb(-1, -3, 3)" stroke-opacity="0.72773546" stroke-linecap="round" stroke-linejoin="round"/>
    <path d="M 65.39398193359375 135.70477294921875 C 56.57563018798828 131.82073974609375 51.35939407348633 139.19723510742188 37.32943344116211 143.99636840820312" stroke-width="4.393891334533691" fill="none" stroke="rgb(-2, -1, 1)" stroke-opacity="0.48506173" stroke-linecap="round" stroke-linejoin="round"/>
    <path d="M 65.82109069824219 87.09342956542969 C 116.91964721679688 95.80371856689453 109.6454086303711 144.30503845214844 108.2786636352539 79.75139617919922" stroke-width="6.48675537109375" fill="none" stroke="rgb(3, 0, -3)" stroke-opacity="0.15935478" stroke-linecap="round" stroke-linejoin="round"/>
    <path d="M 71.86168670654297 141.25967407226562 C 78.08039093017578 128.2786102294922 97.47428131103516 136.92100524902344 65.90913391113281 143.9606475830078" stroke-width="7.1323041915893555" fill="none" stroke="rgb(0, 0, 0)" stroke-opacity="0.5258455" stroke-linecap="round" stroke-linejoin="round"/>
    <path d="M 131.13262939453125 153.3515167236328 C 118.45494842529297 105.76759338378906 128.9456787109375 119.07044982910156 136.72244262695312 148.62860107421875" stroke-width="6.027120590209961" fill="none" stroke="rgb(-2, -1, 2)" stroke-opacity="0.16666384" stroke-linecap="round" stroke-linejoin="round"/>
    <path d="M 193.98135375976562 148.39747619628906 C 219.88055419921875 152.46820068359375 219.81787109375 143.19686889648438 197.04800415039062 148.68267822265625" stroke-width="6.821518898010254" fill="none" stroke="rgb(-3, 1, 2)" stroke-opacity="0.7313221" stroke-linecap="round" stroke-linejoin="round"/>
    <path d="M 102.56954956054688 144.99513244628906 C 103.5078353881836 89.70521545410156 105.7479019165039 170.5135498046875 95.19402313232422 138.9697723388672" stroke-width="1.8655720949172974" fill="none" stroke="rgb(-1, -2, 4)" stroke-opacity="0.3816963" stroke-linecap="round" stroke-linejoin="round"/>
    <path d="M 139.2986602783203 63.65399932861328 C 173.78347778320312 62.05107498168945 173.60154724121094 143.14971923828125 155.4742431640625 90.70703125" stroke-width="6.58740758895874" fill="none" stroke="rgb(0, 1, -2)" stroke-opacity="0.022361672" stroke-linecap="round" stroke-linejoin="round"/>
    <path d="M 149.2604217529297 169.70213317871094 C 342.7911682128906 169.9540252685547 277.11669921875 167.85903930664062 228.9879913330078 166.5724334716797" stroke-width="5.098978519439697" fill="none" stroke="rgb(-2, 0, 3)" stroke-opacity="0.6342842" stroke-linecap="round" stroke-linejoin="round"/>
    <path d="M 61.522518157958984 170.2151641845703 C -13.217306137084961 168.7262725830078 -53.92762756347656 175.5966339111328 52.96825408935547 169.69992065429688" stroke-width="3.5060784816741943" fill="none" stroke="rgb(-1, -1, 1)" stroke-opacity="0.4952197" stroke-linecap="round" stroke-linejoin="round"/>
    <path d="M 260.1034851074219 150.4678497314453 C 157.60818481445312 172.05043029785156 203.54537963867188 127.04429626464844 191.21714782714844 173.7442626953125" stroke-width="1.9486682415008545" fill="none" stroke="rgb(-2, -1, 2)" stroke-opacity="0.23333651" stroke-linecap="round" stroke-linejoin="round"/>
    <path d="M 11.911713600158691 158.22328186035156 C 49.30775451660156 138.11322021484375 -1.3841125965118408 225.03062438964844 9.019776344299316 153.60870361328125" stroke-width="7.6882548332214355" fill="none" stroke="rgb(-2, 0, 2)" stroke-opacity="0.14330247" stroke-linecap="round" stroke-linejoin="round"/>
    <path d="M 201.07264709472656 154.54611206054688 C 201.14247131347656 142.70553588867188 136.35626220703125 155.3856201171875 152.6604461669922 146.21743774414062" stroke-width="6.4581427574157715" fill="none" stroke="rgb(-3, 0, 4)" stroke-opacity="0.33222082" stroke-linecap="round" stroke-linejoin="round"/>
    <path d="M 120.03855895996094 122.75708770751953 C 90.57225036621094 87.56375885009766 103.01151275634766 108.96443939208984 110.04203033447266 93.87211608886719" stroke-width="9.206979751586914" fill="none" stroke="rgb(-2, -1, 2)" stroke-opacity="0.64091957" stroke-linecap="round" stroke-linejoin="round"/>
    <path d="M 203.8766632080078 210.67909240722656 C 127.07764434814453 257.39263916015625 -29.421693801879883 151.137939453125 83.2535171508789 227.1487579345703" stroke-width="6.628232479095459" fill="none" stroke="rgb(4, -2, 0)" stroke-opacity="0.075633466" stroke-linecap="round" stroke-linejoin="round"/>
    <path d="M 124.49323272705078 54.382118225097656 C 175.04681396484375 76.11799621582031 138.94146728515625 79.5636215209961 131.2029571533203 66.00817108154297" stroke-width="10.151113510131836" fill="none" stroke="rgb(0, 2, -2)" stroke-opacity="0.08963255" stroke-linecap="round" stroke-linejoin="round"/>
    <path d="M 187.21072387695312 130.76332092285156 C 135.47323608398438 176.6051788330078 167.06936645507812 146.722412109375 181.75436401367188 147.21311950683594" stroke-width="10.613197326660156" fill="none" stroke="rgb(-1, -1, 1)" stroke-opacity="0.24801843" stroke-linecap="round" stroke-linejoin="round"/>
    <path d="M 181.9931640625 180.81324768066406 C 102.08369445800781 216.88304138183594 212.42445373535156 187.6881561279297 119.61897277832031 185.2940673828125" stroke-width="13.834189414978027" fill="none" stroke="rgb(-3, 2, 0)" stroke-opacity="0.08849506" stroke-linecap="round" stroke-linejoin="round"/>
    <path d="M 179.92213439941406 207.3644256591797 C 100.35689544677734 182.35955810546875 114.36400604248047 211.04940795898438 156.93788146972656 188.337890625" stroke-width="11.114603996276855" fill="none" stroke="rgb(-2, 2, 1)" stroke-opacity="0.09311478" stroke-linecap="round" stroke-linejoin="round"/>
    <path d="M 65.81608581542969 90.29508972167969 C 106.84583282470703 141.6890106201172 93.58586120605469 164.03651428222656 105.1487808227539 123.82601165771484" stroke-width="4.895307540893555" fill="none" stroke="rgb(1, -2, 2)" stroke-opacity="0.33481228" stroke-linecap="round" stroke-linejoin="round"/>
    <path d="M 238.0362091064453 115.69925689697266 C 242.31080627441406 104.75706481933594 239.96807861328125 114.20455169677734 202.74986267089844 130.0390167236328" stroke-width="1.8703014850616455" fill="none" stroke="rgb(0, 1, -1)" stroke-opacity="0.09743769" stroke-linecap="round" stroke-linejoin="round"/>
    <path d="M 59.99310302734375 125.68353271484375 C 54.54005432128906 121.31925201416016 64.9170913696289 131.85206604003906 60.419219970703125 125.80366516113281" stroke-width="8.166648864746094" fill="none" stroke="rgb(0, 0, 0)" stroke-opacity="0.103879854" stroke-linecap="round" stroke-linejoin="round"/>
    <path d="M 201.72927856445312 118.9603500366211 C 216.0372314453125 113.67852783203125 225.87017822265625 102.41144561767578 236.31634521484375 112.7581558227539" stroke-width="19.13738441467285" fill="none" stroke="rgb(2, -2, -2)" stroke-opacity="0.19449797" stroke-linecap="round" stroke-linejoin="round"/>
    <path d="M 54.30705261230469 159.25735473632812 C 10.8785400390625 170.29617309570312 -43.460750579833984 159.66317749023438 -13.408482551574707 160.15435791015625" stroke-width="21.480472564697266" fill="none" stroke="rgb(3, -3, 2)" stroke-opacity="0.39207947" stroke-linecap="round" stroke-linejoin="round"/>
    <path d="M 76.29802703857422 132.78375244140625 C 56.50894546508789 157.40513610839844 99.99356842041016 132.71713256835938 39.94112014770508 147.52589416503906" stroke-width="7.594907283782959" fill="none" stroke="rgb(0, 0, 0)" stroke-opacity="0.81161994" stroke-linecap="round" stroke-linejoin="round"/>
    <path d="M 74.83595275878906 145.5713653564453 C 16.661306381225586 151.4839324951172 63.847843170166016 144.3093719482422 67.15979766845703 144.21807861328125" stroke-width="3.9446299076080322" fill="none" stroke="rgb(-1, 1, 0)" stroke-opacity="0.84357595" stroke-linecap="round" stroke-linejoin="round"/>
    <path d="M 43.0086784362793 215.063232421875 C 217.7224578857422 209.00942993164062 58.56476974487305 220.99673461914062 180.53424072265625 203.90830993652344" stroke-width="3.1006946563720703" fill="none" stroke="rgb(2, -1, 0)" stroke-opacity="0.12487784" stroke-linecap="round" stroke-linejoin="round"/>
    <path d="M 146.63694763183594 180.4388885498047 C -36.0970344543457 184.10084533691406 7.465575218200684 179.8610076904297 159.80902099609375 179.66229248046875" stroke-width="4.869553565979004" fill="none" stroke="rgb(0, -2, 3)" stroke-opacity="0.22912334" stroke-linecap="round" stroke-linejoin="round"/>
    <path d="M 232.94674682617188 208.20660400390625 C 119.93949127197266 194.6605224609375 108.05745697021484 210.52439880371094 232.1986541748047 220.18515014648438" stroke-width="7.835792064666748" fill="none" stroke="rgb(-3, 2, 1)" stroke-opacity="0.09270207" stroke-linecap="round" stroke-linejoin="round"/>
    <path d="M 193.035888671875 168.20777893066406 C 110.65050506591797 167.5548858642578 139.83380126953125 178.44351196289062 138.91323852539062 164.3342742919922" stroke-width="4.011717796325684" fill="none" stroke="rgb(-2, -1, 1)" stroke-opacity="0.28019252" stroke-linecap="round" stroke-linejoin="round"/>
    <path d="M 85.98974609375 179.44924926757812 C -10.04325008392334 177.7386474609375 159.03912353515625 180.45248413085938 94.75057983398438 179.77716064453125" stroke-width="1.9618502855300903" fill="none" stroke="rgb(1, -2, 1)" stroke-opacity="0.59567434" stroke-linecap="round" stroke-linejoin="round"/>
    <path d="M 84.28973388671875 136.7710418701172 C 31.796762466430664 165.08114624023438 36.82367706298828 129.30210876464844 99.6187744140625 170.1436309814453" stroke-width="1.7865030765533447" fill="none" stroke="rgb(-1, 1, 2)" stroke-opacity="0.5401037" stroke-linecap="round" stroke-linejoin="round"/>
    <path d="M 82.05438995361328 130.71754455566406 C 72.34761047363281 141.41371154785156 63.04617691040039 77.09686279296875 86.25836944580078 132.33253479003906" stroke-width="10.203181266784668" fill="none" stroke="rgb(-3, -3, 2)" stroke-opacity="0.5842793" stroke-linecap="round" stroke-linejoin="round"/>
    <path d="M 184.45896911621094 154.2683563232422 C 189.37884521484375 107.04068756103516 196.32814025878906 130.1364288330078 184.84112548828125 150.21018981933594" stroke-width="1.9745267629623413" fill="none" stroke="rgb(-1, -1, 2)" stroke-opacity="0.14896373" stroke-linecap="round" stroke-linejoin="round"/>
    <path d="M 237.63201904296875 197.27342224121094 C 211.59014892578125 205.6121826171875 227.05593872070312 201.6499481201172 249.6154327392578 194.04116821289062" stroke-width="5.208059310913086" fill="none" stroke="rgb(0, 0, 0)" stroke-opacity="0.05130339" stroke-linecap="round" stroke-linejoin="round"/>
    <path d="M 149.80010986328125 156.77410888671875 C 305.88818359375 156.747802734375 271.0665283203125 155.7018585205078 235.85203552246094 156.35113525390625" stroke-width="5.453402042388916" fill="none" stroke="rgb(4, -4, 1)" stroke-opacity="0.6851059" stroke-linecap="round" stroke-linejoin="round"/>
    <path d="M 140.4396209716797 57.59417724609375 C 156.3615264892578 66.14185333251953 176.52975463867188 78.9557113647461 186.9132843017578 106.8759536743164" stroke-width="1.7773213386535645" fill="none" stroke="rgb(-2, 1, 2)" stroke-opacity="0.08478913" stroke-linecap="round" stroke-linejoin="round"/>
    <path d="M 111.33843231201172 93.07199096679688 C 116.1224594116211 107.02880859375 139.552978515625 108.83900451660156 85.58179473876953 92.1011734008789" stroke-width="2.554743528366089" fill="none" stroke="rgb(0, -3, 2)" stroke-opacity="0.55152655" stroke-linecap="round" stroke-linejoin="round"/>
    <path d="M 232.4845428466797 130.20089721679688 C 216.11575317382812 172.8891143798828 231.3784637451172 142.97239685058594 194.3406219482422 149.6920166015625" stroke-width="7.134970664978027" fill="none" stroke="rgb(-3, 2, 2)" stroke-opacity="0.51716346" stroke-linecap="round" stroke-linejoin="round"/>
    <path d="M 99.25230407714844 145.68701171875 C 111.755859375 140.24314880371094 103.36737823486328 137.39556884765625 135.46563720703125 153.82545471191406" stroke-width="2.8437490463256836" fill="none" stroke="rgb(0, 0, 0)" stroke-opacity="0.6899397" stroke-linecap="round" stroke-linejoin="round"/>
    <path d="M 122.12966918945312 181.7687530517578 C 123.94960021972656 135.20538330078125 118.82099914550781 198.12782287597656 116.48619079589844 160.1814727783203" stroke-width="1.8409156799316406" fill="none" stroke="rgb(0, 0, 0)" stroke-opacity="0.13120928" stroke-linecap="round" stroke-linejoin="round"/>
    <path d="M 97.00741577148438 99.01673889160156 C 128.63507080078125 179.66793823242188 148.0579376220703 81.62922668457031 105.25460052490234 75.02737426757812" stroke-width="9.278082847595215" fill="none" stroke="rgb(0, 2, -2)" stroke-opacity="0.1025264" stroke-linecap="round" stroke-linejoin="round"/>
    <path d="M 80.6641616821289 98.5150375366211 C 124.98348999023438 126.37232208251953 101.35945129394531 83.53563690185547 128.67636108398438 81.163330078125" stroke-width="17.65770721435547" fill="none" stroke="rgb(0, 2, -2)" stroke-opacity="0.04472669" stroke-linecap="round" stroke-linejoin="round"/>
    <path d="M 62.03541564941406 131.20700073242188 C 49.403743743896484 99.09281921386719 72.11022186279297 134.9472198486328 65.77848815917969 129.38888549804688" stroke-width="8.357068061828613" fill="none" stroke="rgb(1, 0, -1)" stroke-opacity="0.99345416" stroke-linecap="round" stroke-linejoin="round"/>
    <path d="M 135.11318969726562 144.11917114257812 C 129.4107666015625 98.8333511352539 88.6014175415039 67.78819274902344 118.73114013671875 116.97225952148438" stroke-width="6.042234420776367" fill="none" stroke="rgb(0, 0, 0)" stroke-opacity="0.39844587" stroke-linecap="round" stroke-linejoin="round"/>
    <path d="M 114.6955337524414 99.14327239990234 C 90.68879699707031 95.5361328125 109.97573852539062 111.11631774902344 100.12332153320312 70.44112396240234" stroke-width="1.9187967777252197" fill="none" stroke="rgb(-1, 0, 1)" stroke-opacity="0.6614337" stroke-linecap="round" stroke-linejoin="round"/>
    <path d="M 89.31248474121094 93.8473129272461 C 141.28321838378906 144.23544311523438 77.07443237304688 76.83739471435547 114.4536361694336 105.03020477294922" stroke-width="5.326893329620361" fill="none" stroke="rgb(-3, -3, 3)" stroke-opacity="0.529884" stroke-linecap="round" stroke-linejoin="round"/>
    <path d="M 52.36936569213867 104.55399322509766 C 57.32490158081055 121.58937072753906 54.70488739013672 146.7554931640625 61.00581741333008 125.5055923461914" stroke-width="4.145663261413574" fill="none" stroke="rgb(-2, 2, 1)" stroke-opacity="1.0034738" stroke-linecap="round" stroke-linejoin="round"/>
    <path d="M 146.0467071533203 128.23529052734375 C 144.66246032714844 174.349365234375 146.31529235839844 109.60673522949219 143.44493103027344 152.23745727539062" stroke-width="2.001267194747925" fill="none" stroke="rgb(-1, 1, 1)" stroke-opacity="0.669204" stroke-linecap="round" stroke-linejoin="round"/>
    <path d="M 168.166259765625 84.18718719482422 C 137.84375 47.807010650634766 159.60562133789062 80.32878875732422 161.61178588867188 93.91246032714844" stroke-width="6.197504997253418" fill="none" stroke="rgb(0, 2, -2)" stroke-opacity="0.034973223" stroke-linecap="round" stroke-linejoin="round"/>
    <path d="M 170.3131866455078 150.1947784423828 C 200.06202697753906 124.0020751953125 213.6490020751953 134.1789093017578 180.91127014160156 152.73611450195312" stroke-width="12.760363578796387" fill="none" stroke="rgb(-3, -1, 5)" stroke-opacity="0.17184971" stroke-linecap="round" stroke-linejoin="round"/>
    <path d="M 70.82892608642578 96.28817749023438 C 42.18496322631836 142.2669677734375 70.28682708740234 99.25542449951172 54.772891998291016 106.3012924194336" stroke-width="6.897727012634277" fill="none" stroke="rgb(2, 0, -1)" stroke-opacity="0.258347" stroke-linecap="round" stroke-linejoin="round"/>
    <path d="M 179.86741638183594 196.67868041992188 C -25.037384033203125 182.80780029296875 195.47698974609375 181.90658569335938 126.22261810302734 189.77645874023438" stroke-width="11.81786060333252" fill="none" stroke="rgb(-2, 1, 2)" stroke-opacity="0.10826707" stroke-linecap="round" stroke-linejoin="round"/>
    <path d="M 89.97301483154297 170.68072509765625 C 40.040077209472656 157.9148406982422 106.23785400390625 93.91817474365234 94.28141784667969 175.77333068847656" stroke-width="12.31379508972168" fill="none" stroke="rgb(2, -2, 0)" stroke-opacity="0.19838321" stroke-linecap="round" stroke-linejoin="round"/>
    <path d="M 110.45409393310547 138.36207580566406 C 118.57544708251953 140.3956298828125 141.25582885742188 149.47056579589844 108.68836212158203 141.02664184570312" stroke-width="5.233672618865967" fill="none" stroke="rgb(-3, -1, 3)" stroke-opacity="0.77239364" stroke-linecap="round" stroke-linejoin="round"/>
    <path d="M 229.02796936035156 158.631591796875 C 172.12664794921875 153.1519317626953 197.1478729248047 151.23989868164062 235.47496032714844 158.9510040283203" stroke-width="2.557321786880493" fill="none" stroke="rgb(0, -1, 1)" stroke-opacity="0.2000809" stroke-linecap="round" stroke-linejoin="round"/>
    <path d="M 47.9235725402832 225.0605010986328 C 270.5390625 215.74868774414062 77.52129364013672 190.358154296875 226.38726806640625 194.87216186523438" stroke-width="7.208420276641846" fill="none" stroke="rgb(0, -2, 4)" stroke-opacity="0.097772546" stroke-linecap="round" stroke-linejoin="round"/>
    <path d="M 133.8963165283203 181.70196533203125 C 235.9521484375 183.63999938964844 77.78564453125 194.84373474121094 105.59786987304688 175.8332061767578" stroke-width="13.458301544189453" fill="none" stroke="rgb(-2, 2, 0)" stroke-opacity="0.0829657" stroke-linecap="round" stroke-linejoin="round"/>
    <path d="M -11.338393211364746 178.09425354003906 C 135.42799377441406 177.50076293945312 54.57701873779297 170.2158966064453 32.540000915527344 167.47979736328125" stroke-width="10.306436538696289" fill="none" stroke="rgb(1, 0, -2)" stroke-opacity="0.39815268" stroke-linecap="round" stroke-linejoin="round"/>
    <path d="M 120.4122085571289 52.17680358886719 C 126.02318572998047 62.407493591308594 120.50931549072266 60.16474151611328 132.85157775878906 78.51158905029297" stroke-width="5.462566375732422" fill="none" stroke="rgb(2, 1, -2)" stroke-opacity="0.5647368" stroke-linecap="round" stroke-linejoin="round"/>
    <path d="M 125.38119506835938 171.95083618164062 C 50.4542121887207 153.96261596679688 13.91082763671875 133.2671661376953 125.8195571899414 157.94944763183594" stroke-width="25.13314437866211" fill="none" stroke="rgb(3, -4, -3)" stroke-opacity="0.25520003" stroke-linecap="round" stroke-linejoin="round"/>
    <path d="M 19.132646560668945 175.99217224121094 C 34.3848991394043 118.64049530029297 58.45042037963867 244.69041442871094 10.314494132995605 152.17001342773438" stroke-width="2.010631799697876" fill="none" stroke="rgb(-1, -2, 2)" stroke-opacity="0.08608675" stroke-linecap="round" stroke-linejoin="round"/>
    <path d="M 121.31703186035156 97.99407196044922 C 114.61306762695312 62.82870101928711 106.53893280029297 101.1977310180664 131.192138671875 80.1111831665039" stroke-width="18.78855323791504" fill="none" stroke="rgb(0, 1, 0)" stroke-opacity="0.072175294" stroke-linecap="round" stroke-linejoin="round"/>
    <path d="M 152.37600708007812 148.80300903320312 C 158.47674560546875 174.32188415527344 148.086181640625 128.39340209960938 154.44456481933594 166.43588256835938" stroke-width="11.297721862792969" fill="none" stroke="rgb(0, -2, 1)" stroke-opacity="0.14227863" stroke-linecap="round" stroke-linejoin="round"/>
    <path d="M 62.14771270751953 129.52737426757812 C 65.73883056640625 135.16221618652344 77.73216247558594 141.96356201171875 54.923667907714844 106.24335479736328" stroke-width="5.289688587188721" fill="none" stroke="rgb(2, 2, 0)" stroke-opacity="0.7379885" stroke-linecap="round" stroke-linejoin="round"/>
    <path d="M 219.1910858154297 152.24427795410156 C 177.84249877929688 95.16730499267578 193.9805145263672 126.70735168457031 187.25613403320312 108.604248046875" stroke-width="1.7446606159210205" fill="none" stroke="rgb(-2, 1, 2)" stroke-opacity="0.199947" stroke-linecap="round" stroke-linejoin="round"/>
    <path d="M 189.4425811767578 209.85601806640625 C 67.95181274414062 203.20741271972656 194.3447265625 190.52899169921875 110.97272491455078 214.7175750732422" stroke-width="8.656807899475098" fill="none" stroke="rgb(-2, 0, 0)" stroke-opacity="0.092107125" stroke-linecap="round" stroke-linejoin="round"/>
    <path d="M 133.37265014648438 138.3782196044922 C 111.8023910522461 87.11419677734375 98.37648010253906 89.87237548828125 134.98155212402344 145.9593505859375" stroke-width="4.197910785675049" fill="none" stroke="rgb(2, -2, 2)" stroke-opacity="0.84303784" stroke-linecap="round" stroke-linejoin="round"/>
    <path d="M 147.66598510742188 205.0089874267578 C -12.5499906539917 194.50514221191406 108.23795318603516 198.15362548828125 26.46857452392578 202.61830139160156" stroke-width="5.937178134918213" fill="none" stroke="rgb(3, 2, -4)" stroke-opacity="0.09405824" stroke-linecap="round" stroke-linejoin="round"/>
    <path d="M 130.26773071289062 53.11829376220703 C 169.28672790527344 73.41117858886719 178.38809204101562 86.96183013916016 189.5603790283203 118.30259704589844" stroke-width="4.1927595138549805" fill="none" stroke="rgb(-1, 2, -1)" stroke-opacity="0.03959144" stroke-linecap="round" stroke-linejoin="round"/>
    <path d="M 119.533203125 119.11856842041016 C 91.52511596679688 62.36052322387695 121.10234832763672 87.7447280883789 135.40701293945312 148.2598419189453" stroke-width="4.791328430175781" fill="none" stroke="rgb(2, 0, 0)" stroke-opacity="0.68677676" stroke-linecap="round" stroke-linejoin="round"/>
    <path d="M 158.46421813964844 150.072998046875 C 182.8803253173828 133.41748046875 166.30616760253906 141.05242919921875 184.71022033691406 146.245849609375" stroke-width="4.014607906341553" fill="none" stroke="rgb(0, -1, 1)" stroke-opacity="0.56347525" stroke-linecap="round" stroke-linejoin="round"/>
  </g>
</svg>
