<?xml version="1.0" ?>
<svg xmlns="http://www.w3.org/2000/svg" version="1.1" width="224" height="224">
  <defs/>
  <g>
    <path d="M 144.9903564453125 113.46845245361328 C 143.76918029785156 100.48393249511719 131.8820343017578 67.46188354492188 121.9375228881836 53.931129455566406" stroke-width="1.9629383087158203" fill="none" stroke="rgb(69, 19, 25)" stroke-opacity="0.7835034" stroke-linecap="round" stroke-linejoin="round"/>
    <path d="M 117.09693145751953 120.9659423828125 C 113.90495300292969 138.33445739746094 116.76648712158203 147.71954345703125 98.34829711914062 106.8187026977539" stroke-width="16.10701560974121" fill="none" stroke="rgb(94, 76, 41)" stroke-opacity="0.49600852" stroke-linecap="round" stroke-linejoin="round"/>
    <path d="M 4.994086265563965 196.72833251953125 C 78.2970199584961 180.42613220214844 48.36910629272461 188.8098602294922 -8.685357093811035 183.13253784179688" stroke-width="17.15616798400879" fill="none" stroke="rgb(0, 46, 89)" stroke-opacity="0.8499343" stroke-linecap="round" stroke-linejoin="round"/>
    <path d="M 68.16434478759766 89.11943817138672 C 109.71955871582031 94.8861083984375 97.3195571899414 137.76829528808594 113.77078247070312 78.08002471923828" stroke-width="8.421089172363281" fill="none" stroke="rgb(256, 150, -3)" stroke-opacity="1.0057186" stroke-linecap="round" stroke-linejoin="round"/>
    <path d="M 97.12728881835938 159.42063903808594 C 99.13507843017578 119.12371826171875 87.3126220703125 144.4583740234375 40.9312629699707 146.13560485839844" stroke-width="8.098518371582031" fill="none" stroke="rgb(8, 14, 31)" stroke-opacity="0.99713653" stroke-linecap="round" stroke-linejoin="round"/>
    <path d="M 150.75497436523438 68.93386840820312 C 172.26028442382812 47.16010284423828 155.09788513183594 76.99008178710938 124.3996353149414 52.60126876831055" stroke-width="13.311100959777832" fill="none" stroke="rgb(105, 105, 130)" stroke-opacity="0.84725136" stroke-linecap="round" stroke-linejoin="round"/>
    <path d="M 71.7590103149414 152.6983642578125 C 40.70977783203125 154.7691650390625 -4.376092910766602 158.9634246826172 70.77204895019531 165.15721130371094" stroke-width="13.097681999206543" fill="none" stroke="rgb(113, 36, 0)" stroke-opacity="0.72104996" stroke-linecap="round" stroke-linejoin="round"/>
    <path d="M 84.85599517822266 75.89884948730469 C -67.09210968017578 133.1121368408203 -0.5471132397651672 159.05572509765625 27.88594627380371 -3.8291032314300537" stroke-width="87.95633697509766" fill="none" stroke="rgb(123, 165, 227)" stroke-opacity="0.7583488" stroke-linecap="round" stroke-linejoin="round"/>
    <path d="M 97.16085052490234 146.45346069335938 C 107.36695098876953 133.16676330566406 150.01931762695312 164.33140563964844 133.7648162841797 154.8482208251953" stroke-width="3.638356924057007" fill="none" stroke="rgb(74, 26, -1)" stroke-opacity="1.0018638" stroke-linecap="round" stroke-linejoin="round"/>
    <path d="M 229.80941772460938 158.32130432128906 C 97.70258331298828 152.5482940673828 156.8194122314453 165.66946411132812 174.50355529785156 144.13833618164062" stroke-width="6.197472095489502" fill="none" stroke="rgb(10, 7, 12)" stroke-opacity="0.93360716" stroke-linecap="round" stroke-linejoin="round"/>
    <path d="M 130.15866088867188 179.10304260253906 C 72.608642578125 197.39254760742188 53.97193908691406 168.60618591308594 203.55068969726562 176.2706298828125" stroke-width="14.2015962600708" fill="none" stroke="rgb(141, 74, 13)" stroke-opacity="0.6594123" stroke-linecap="round" stroke-linejoin="round"/>
    <path d="M 87.28422546386719 176.13177490234375 C 89.26090240478516 139.96900939941406 110.5836181640625 214.2369384765625 89.71472930908203 131.66384887695312" stroke-width="7.221749305725098" fill="none" stroke="rgb(198, 147, 106)" stroke-opacity="0.6407053" stroke-linecap="round" stroke-linejoin="round"/>
    <path d="M 237.36837768554688 168.02362060546875 C 199.48158264160156 170.51913452148438 230.2312469482422 160.77745056152344 258.61431884765625 154.01333618164062" stroke-width="6.431554317474365" fill="none" stroke="rgb(92, 56, 31)" stroke-opacity="0.5866659" stroke-linecap="round" stroke-linejoin="round"/>
    <path d="M 43.02812194824219 188.02235412597656 C 142.02175903320312 182.5032501220703 116.00660705566406 210.3313446044922 110.66710662841797 195.71395874023438" stroke-width="19.55344009399414" fill="none" stroke="rgb(41, 103, 148)" stroke-opacity="1.0048411" stroke-linecap="round" stroke-linejoin="round"/>
    <path d="M 121.92327117919922 117.53367614746094 C 133.0622100830078 132.06512451171875 118.87360382080078 107.84371185302734 87.2740478515625 98.51004791259766" stroke-width="10.286431312561035" fill="none" stroke="rgb(11, 24, 57)" stroke-opacity="0.9666028" stroke-linecap="round" stroke-linejoin="round"/>
    <path d="M 122.52420806884766 115.79454040527344 C 124.05272674560547 115.0799331665039 125.62753295898438 118.19774627685547 106.32258605957031 81.50459289550781" stroke-width="5.000913619995117" fill="none" stroke="rgb(-1, 10, 17)" stroke-opacity="1.0049359" stroke-linecap="round" stroke-linejoin="round"/>
    <path d="M 119.0023422241211 117.41002655029297 C 110.6715316772461 117.81853485107422 136.82884216308594 109.7471694946289 82.8609619140625 91.54369354248047" stroke-width="3.7462856769561768" fill="none" stroke="rgb(12, 23, 47)" stroke-opacity="1.0079604" stroke-linecap="round" stroke-linejoin="round"/>
    <path d="M 69.60134887695312 106.1540756225586 C 76.58048248291016 107.99980163574219 78.92402648925781 110.5676040649414 92.32829284667969 133.80316162109375" stroke-width="7.987401008605957" fill="none" stroke="rgb(1, 29, 82)" stroke-opacity="0.9653633" stroke-linecap="round" stroke-linejoin="round"/>
    <path d="M 23.785480499267578 224.8832244873047 C 171.45001220703125 225.64344787597656 129.73541259765625 199.08114624023438 132.2469024658203 188.81768798828125" stroke-width="4.311196327209473" fill="none" stroke="rgb(165, 82, 0)" stroke-opacity="1.0006782" stroke-linecap="round" stroke-linejoin="round"/>
    <path d="M 221.93521118164062 156.7847137451172 C 198.06622314453125 155.59754943847656 190.02487182617188 117.66220092773438 202.3450927734375 152.0272216796875" stroke-width="19.10799217224121" fill="none" stroke="rgb(123, 107, 88)" stroke-opacity="0.7426745" stroke-linecap="round" stroke-linejoin="round"/>
    <path d="M 107.9952392578125 85.70223999023438 C 111.93260955810547 109.25662994384766 80.94615936279297 137.68856811523438 105.61912536621094 103.0244369506836" stroke-width="7.871457576751709" fill="none" stroke="rgb(25, 15, 11)" stroke-opacity="0.6823028" stroke-linecap="round" stroke-linejoin="round"/>
    <path d="M -14.646354675292969 167.0158233642578 C -29.794282913208008 182.79644775390625 2.0570075511932373 171.32589721679688 64.76690673828125 174.96469116210938" stroke-width="9.557437896728516" fill="none" stroke="rgb(103, 44, 0)" stroke-opacity="0.73301035" stroke-linecap="round" stroke-linejoin="round"/>
    <path d="M 221.87832641601562 98.7704086303711 C 243.3765411376953 112.7118148803711 245.37774658203125 110.32545471191406 237.6986083984375 96.48780822753906" stroke-width="13.279605865478516" fill="none" stroke="rgb(4, 4, 223)" stroke-opacity="0.98048425" stroke-linecap="round" stroke-linejoin="round"/>
    <path d="M 66.80720520019531 168.7902374267578 C 7.077549934387207 132.18983459472656 13.016735076904297 158.87603759765625 67.5412826538086 131.35562133789062" stroke-width="6.4459381103515625" fill="none" stroke="rgb(0, 4, 20)" stroke-opacity="0.7600666" stroke-linecap="round" stroke-linejoin="round"/>
    <path d="M 27.510265350341797 168.19007873535156 C 62.47977066040039 170.3730010986328 -17.22085189819336 165.97695922851562 74.69005584716797 170.280517578125" stroke-width="3.752967119216919" fill="none" stroke="rgb(14, 12, 18)" stroke-opacity="1.0021145" stroke-linecap="round" stroke-linejoin="round"/>
    <path d="M 41.234474182128906 164.5936737060547 C 85.09349060058594 137.34925842285156 20.346111297607422 147.3784942626953 35.25095748901367 192.8090057373047" stroke-width="10.243536949157715" fill="none" stroke="rgb(12, 0, -1)" stroke-opacity="0.25613454" stroke-linecap="round" stroke-linejoin="round"/>
    <path d="M 111.4720458984375 108.85726928710938 C 98.61722564697266 97.48898315429688 110.8966064453125 119.40476989746094 109.21021270751953 89.9224853515625" stroke-width="10.176278114318848" fill="none" stroke="rgb(3, 6, 4)" stroke-opacity="0.9475193" stroke-linecap="round" stroke-linejoin="round"/>
    <path d="M 74.50072479248047 135.51466369628906 C 73.04351806640625 102.17462921142578 61.93399429321289 104.86429595947266 87.11357879638672 135.5172576904297" stroke-width="9.598539352416992" fill="none" stroke="rgb(0, 61, 151)" stroke-opacity="0.9224424" stroke-linecap="round" stroke-linejoin="round"/>
    <path d="M 128.19554138183594 152.43150329589844 C 101.83880615234375 119.89656829833984 120.50617980957031 119.01667785644531 135.17535400390625 152.1149139404297" stroke-width="9.004204750061035" fill="none" stroke="rgb(184, 174, 163)" stroke-opacity="0.75121325" stroke-linecap="round" stroke-linejoin="round"/>
    <path d="M 190.3268280029297 116.13790893554688 C 236.96595764160156 178.24081420898438 236.27899169921875 142.7180938720703 208.17250061035156 161.2471160888672" stroke-width="1.9604130983352661" fill="none" stroke="rgb(0, 12, 64)" stroke-opacity="1.0031953" stroke-linecap="round" stroke-linejoin="round"/>
    <path d="M 104.84576416015625 134.22256469726562 C 99.42098236083984 147.7215576171875 107.15524291992188 119.26638793945312 82.13341522216797 95.76817321777344" stroke-width="10.570768356323242" fill="none" stroke="rgb(252, 226, 200)" stroke-opacity="0.84207165" stroke-linecap="round" stroke-linejoin="round"/>
    <path d="M 178.3083038330078 73.79487609863281 C 139.0938720703125 74.34053039550781 157.5008087158203 79.56439208984375 187.8697967529297 93.70820617675781" stroke-width="11.409106254577637" fill="none" stroke="rgb(231, 161, 63)" stroke-opacity="0.17554425" stroke-linecap="round" stroke-linejoin="round"/>
    <path d="M 230.79824829101562 177.96896362304688 C 266.3614196777344 167.7769317626953 283.89111328125 183.43568420410156 187.88259887695312 182.78456115722656" stroke-width="6.6290507316589355" fill="none" stroke="rgb(51, 54, 75)" stroke-opacity="0.8899436" stroke-linecap="round" stroke-linejoin="round"/>
    <path d="M 22.10296630859375 146.8768310546875 C -32.9039306640625 153.6896514892578 -52.69173812866211 122.15969848632812 35.69060134887695 124.47958374023438" stroke-width="26.78563690185547" fill="none" stroke="rgb(156, 191, 231)" stroke-opacity="0.9984635" stroke-linecap="round" stroke-linejoin="round"/>
    <path d="M 199.16856384277344 170.4596710205078 C 288.90399169921875 171.448974609375 291.87811279296875 155.37106323242188 197.4569854736328 157.30416870117188" stroke-width="4.414733409881592" fill="none" stroke="rgb(20, 1, 5)" stroke-opacity="0.8914644" stroke-linecap="round" stroke-linejoin="round"/>
    <path d="M -2.574532985687256 176.4693603515625 C 156.9796905517578 191.56639099121094 163.1291046142578 168.78070068359375 -2.935532569885254 165.23011779785156" stroke-width="5.181732654571533" fill="none" stroke="rgb(8, 4, 0)" stroke-opacity="0.17996149" stroke-linecap="round" stroke-linejoin="round"/>
    <path d="M 188.67568969726562 123.57888793945312 C 156.15457153320312 176.50827026367188 202.18020629882812 243.09164428710938 191.16067504882812 151.7435760498047" stroke-width="3.4365386962890625" fill="none" stroke="rgb(79, 19, 6)" stroke-opacity="0.27119434" stroke-linecap="round" stroke-linejoin="round"/>
    <path d="M 82.76237487792969 103.46910095214844 C 72.24911499023438 85.6373062133789 83.77009582519531 92.0887451171875 101.63152313232422 133.62074279785156" stroke-width="11.816287994384766" fill="none" stroke="rgb(173, 167, 159)" stroke-opacity="0.82519776" stroke-linecap="round" stroke-linejoin="round"/>
    <path d="M 227.91477966308594 219.6659393310547 C 124.19518280029297 205.08457946777344 206.02389526367188 215.84991455078125 5.740591526031494 222.45619201660156" stroke-width="23.06519889831543" fill="none" stroke="rgb(-1, 55, 123)" stroke-opacity="0.7898609" stroke-linecap="round" stroke-linejoin="round"/>
    <path d="M 136.87953186035156 71.49110412597656 C 140.4375 80.18428039550781 175.23992919921875 68.14519500732422 144.46957397460938 88.22705078125" stroke-width="16.48767852783203" fill="none" stroke="rgb(156, 142, 136)" stroke-opacity="0.84355795" stroke-linecap="round" stroke-linejoin="round"/>
    <path d="M 186.60189819335938 130.79800415039062 C 186.8463134765625 177.427734375 158.00521850585938 138.17916870117188 179.9727020263672 148.7977752685547" stroke-width="9.283648490905762" fill="none" stroke="rgb(36, 42, 47)" stroke-opacity="0.98206365" stroke-linecap="round" stroke-linejoin="round"/>
    <path d="M 146.56886291503906 169.88768005371094 C 167.0587158203125 187.07240295410156 74.99877166748047 173.42247009277344 190.5453338623047 179.57949829101562" stroke-width="2.2757558822631836" fill="none" stroke="rgb(109, 65, 43)" stroke-opacity="0.57758176" stroke-linecap="round" stroke-linejoin="round"/>
    <path d="M 159.3856964111328 192.9526824951172 C 79.96736907958984 183.85374450683594 188.477783203125 214.02749633789062 21.998146057128906 197.7876739501953" stroke-width="15.315217971801758" fill="none" stroke="rgb(38, 81, 124)" stroke-opacity="0.94080245" stroke-linecap="round" stroke-linejoin="round"/>
    <path d="M 63.91537094116211 85.8348159790039 C 107.95056915283203 157.39114379882812 101.92994689941406 167.08705139160156 103.82550811767578 97.20051574707031" stroke-width="2.5478861331939697" fill="none" stroke="rgb(8, 3, -2)" stroke-opacity="0.5342448" stroke-linecap="round" stroke-linejoin="round"/>
    <path d="M 231.779052734375 124.10446166992188 C 234.0941619873047 151.3816375732422 220.40945434570312 105.7221450805664 207.7548370361328 115.76519012451172" stroke-width="14.293379783630371" fill="none" stroke="rgb(85, 151, 258)" stroke-opacity="0.6408988" stroke-linecap="round" stroke-linejoin="round"/>
    <path d="M 68.6179428100586 132.71885681152344 C 62.887454986572266 114.78417205810547 56.34917449951172 130.915771484375 63.725990295410156 139.67250061035156" stroke-width="7.931028842926025" fill="none" stroke="rgb(68, 80, 99)" stroke-opacity="0.8053321" stroke-linecap="round" stroke-linejoin="round"/>
    <path d="M 202.93618774414062 109.5527114868164 C 211.51499938964844 103.6897201538086 224.3536834716797 102.51427459716797 256.2286682128906 98.63460540771484" stroke-width="2.9294650554656982" fill="none" stroke="rgb(73, 2, 1)" stroke-opacity="0.98293966" stroke-linecap="round" stroke-linejoin="round"/>
    <path d="M 9.643789291381836 193.95082092285156 C 19.67249298095703 94.58839416503906 -14.50533390045166 207.46913146972656 14.751447677612305 151.09750366210938" stroke-width="1.976055383682251" fill="none" stroke="rgb(26, 54, 61)" stroke-opacity="0.38338324" stroke-linecap="round" stroke-linejoin="round"/>
    <path d="M 72.00955200195312 141.5730438232422 C 89.21836853027344 179.2139129638672 36.333221435546875 158.91270446777344 73.2402114868164 135.4883270263672" stroke-width="10.704231262207031" fill="none" stroke="rgb(202, 105, 51)" stroke-opacity="0.33348146" stroke-linecap="round" stroke-linejoin="round"/>
    <path d="M 78.29350280761719 136.34596252441406 C 67.41741180419922 149.21873474121094 35.09774398803711 145.89071655273438 76.27991485595703 146.24620056152344" stroke-width="4.564241886138916" fill="none" stroke="rgb(8, 11, 16)" stroke-opacity="1.0016419" stroke-linecap="round" stroke-linejoin="round"/>
    <path d="M 71.90772247314453 182.04190063476562 C 165.5703582763672 222.68569946289062 123.6288833618164 198.4136199951172 207.841796875 203.1768035888672" stroke-width="14.576308250427246" fill="none" stroke="rgb(37, 57, 66)" stroke-opacity="0.35615018" stroke-linecap="round" stroke-linejoin="round"/>
    <path d="M 48.594390869140625 166.2125701904297 C -116.01373291015625 171.03182983398438 -147.7142791748047 181.12425231933594 129.9493865966797 181.96746826171875" stroke-width="7.2817559242248535" fill="none" stroke="rgb(-1, 6, 25)" stroke-opacity="0.6306834" stroke-linecap="round" stroke-linejoin="round"/>
    <path d="M 108.56031799316406 226.255615234375 C 302.2900085449219 231.0459747314453 206.4833526611328 208.3699951171875 230.77874755859375 215.5229034423828" stroke-width="13.498867988586426" fill="none" stroke="rgb(42, 78, 120)" stroke-opacity="0.8606126" stroke-linecap="round" stroke-linejoin="round"/>
    <path d="M 132.78053283691406 166.44918823242188 C 294.4570007324219 157.86895751953125 266.7505798339844 163.2510528564453 139.8968505859375 162.31890869140625" stroke-width="6.629488468170166" fill="none" stroke="rgb(203, 124, 33)" stroke-opacity="0.6071815" stroke-linecap="round" stroke-linejoin="round"/>
    <path d="M 174.44859313964844 193.90524291992188 C 134.271728515625 176.4856414794922 154.9373016357422 189.2863006591797 2.2811474800109863 185.04095458984375" stroke-width="12.321354866027832" fill="none" stroke="rgb(29, 61, 94)" stroke-opacity="0.7050726" stroke-linecap="round" stroke-linejoin="round"/>
    <path d="M 80.0101547241211 159.09429931640625 C 66.31448364257812 151.66200256347656 107.66462707519531 171.6437225341797 102.99349212646484 171.46340942382812" stroke-width="1.8657310009002686" fill="none" stroke="rgb(1, 21, 64)" stroke-opacity="1.0003166" stroke-linecap="round" stroke-linejoin="round"/>
    <path d="M 88.29554748535156 136.4745635986328 C 46.20453643798828 123.14868927001953 58.14427947998047 145.32229614257812 77.82070922851562 135.42819213867188" stroke-width="6.181000232696533" fill="none" stroke="rgb(26, 26, 28)" stroke-opacity="1.0030012" stroke-linecap="round" stroke-linejoin="round"/>
    <path d="M 164.43650817871094 77.08219146728516 C 186.49734497070312 95.07785034179688 183.90943908691406 58.85363006591797 148.46517944335938 96.583984375" stroke-width="9.958311080932617" fill="none" stroke="rgb(222, 209, 207)" stroke-opacity="0.6513985" stroke-linecap="round" stroke-linejoin="round"/>
    <path d="M 230.12879943847656 193.9885711669922 C 107.24111938476562 194.34420776367188 220.68438720703125 195.51087951660156 90.82615661621094 211.32373046875" stroke-width="23.53600311279297" fill="none" stroke="rgb(48, 92, 139)" stroke-opacity="0.902339" stroke-linecap="round" stroke-linejoin="round"/>
    <path d="M 202.68475341796875 169.57618713378906 C 286.598876953125 170.2134552001953 250.2926025390625 156.7880096435547 234.84765625 136.0924072265625" stroke-width="19.346675872802734" fill="none" stroke="rgb(191, 147, 102)" stroke-opacity="0.88607264" stroke-linecap="round" stroke-linejoin="round"/>
    <path d="M 122.51131439208984 52.81947708129883 C 155.32797241210938 79.64974975585938 188.0938262939453 76.50711059570312 146.60877990722656 71.8214340209961" stroke-width="10.878165245056152" fill="none" stroke="rgb(154, 149, 137)" stroke-opacity="0.5428334" stroke-linecap="round" stroke-linejoin="round"/>
    <path d="M 119.48020935058594 118.12137603759766 C 116.15558624267578 111.59092712402344 85.43860626220703 85.16346740722656 118.61028289794922 124.00111389160156" stroke-width="6.498091220855713" fill="none" stroke="rgb(7, 40, 95)" stroke-opacity="0.9585415" stroke-linecap="round" stroke-linejoin="round"/>
    <path d="M 230.86119079589844 147.56814575195312 C 292.60479736328125 161.9549560546875 239.83558654785156 143.68972778320312 193.5671844482422 149.26019287109375" stroke-width="7.269876480102539" fill="none" stroke="rgb(-1, 0, 4)" stroke-opacity="0.99852294" stroke-linecap="round" stroke-linejoin="round"/>
    <path d="M 129.40634155273438 148.2552490234375 C 84.85773468017578 131.7513885498047 134.2903289794922 137.68540954589844 133.77967834472656 159.6356658935547" stroke-width="5.754977226257324" fill="none" stroke="rgb(-1, 0, 4)" stroke-opacity="0.9524858" stroke-linecap="round" stroke-linejoin="round"/>
    <path d="M 119.00109100341797 149.26536560058594 C 129.43484497070312 220.57211303710938 93.39738464355469 147.47833251953125 132.8161163330078 165.32376098632812" stroke-width="1.7934635877609253" fill="none" stroke="rgb(13, 55, 47)" stroke-opacity="0.32631126" stroke-linecap="round" stroke-linejoin="round"/>
    <path d="M 107.35792541503906 98.91899108886719 C 149.21730041503906 167.57716369628906 128.92398071289062 106.57868194580078 107.7012710571289 77.28792572021484" stroke-width="5.347723484039307" fill="none" stroke="rgb(18, 12, 0)" stroke-opacity="0.57735366" stroke-linecap="round" stroke-linejoin="round"/>
    <path d="M 105.31669616699219 94.51760864257812 C 107.06687927246094 70.76000213623047 99.08043670654297 72.60672760009766 108.98710632324219 77.39892578125" stroke-width="3.7743005752563477" fill="none" stroke="rgb(86, 53, 35)" stroke-opacity="1.0054026" stroke-linecap="round" stroke-linejoin="round"/>
    <path d="M 54.37635803222656 109.84050750732422 C 62.334598541259766 134.03121948242188 66.98587799072266 151.72406005859375 70.17111206054688 121.01446533203125" stroke-width="2.8669116497039795" fill="none" stroke="rgb(1, 67, 151)" stroke-opacity="0.9997228" stroke-linecap="round" stroke-linejoin="round"/>
    <path d="M 129.53024291992188 132.66647338867188 C 124.52125549316406 97.60188293457031 112.96073150634766 84.533935546875 126.60539245605469 124.49103546142578" stroke-width="5.2209296226501465" fill="none" stroke="rgb(24, 29, 66)" stroke-opacity="0.8298919" stroke-linecap="round" stroke-linejoin="round"/>
    <path d="M 116.26016235351562 112.90617370605469 C 111.20164489746094 75.76815032958984 96.98233795166016 105.16758728027344 113.71649169921875 104.38375091552734" stroke-width="6.773200511932373" fill="none" stroke="rgb(10, 4, 0)" stroke-opacity="0.37422344" stroke-linecap="round" stroke-linejoin="round"/>
    <path d="M 109.34976196289062 106.0596923828125 C 119.49430084228516 113.10723876953125 89.5431900024414 93.42890167236328 111.06813049316406 104.4981460571289" stroke-width="7.041685581207275" fill="none" stroke="rgb(12, 18, 37)" stroke-opacity="0.6705749" stroke-linecap="round" stroke-linejoin="round"/>
    <path d="M 64.7952880859375 137.0426788330078 C 49.88724136352539 113.28511047363281 83.7231216430664 150.21754455566406 52.996131896972656 107.50625610351562" stroke-width="4.512848377227783" fill="none" stroke="rgb(-1, 15, 43)" stroke-opacity="0.99065447" stroke-linecap="round" stroke-linejoin="round"/>
    <path d="M 145.73941040039062 128.05010986328125 C 146.7535858154297 144.07376098632812 138.0757293701172 173.01390075683594 150.3961639404297 144.72003173828125" stroke-width="2.014408826828003" fill="none" stroke="rgb(-1, -1, 82)" stroke-opacity="1.0080651" stroke-linecap="round" stroke-linejoin="round"/>
    <path d="M 151.84986877441406 99.43041229248047 C 169.24266052246094 88.21766662597656 203.7926025390625 103.61325073242188 160.20115661621094 128.11093139648438" stroke-width="36.62531661987305" fill="none" stroke="rgb(240, 230, 144)" stroke-opacity="0.32222015" stroke-linecap="round" stroke-linejoin="round"/>
    <path d="M 234.73207092285156 100.57341003417969 C 177.24945068359375 114.06620788574219 210.77822875976562 129.51779174804688 195.3603973388672 116.93401336669922" stroke-width="9.435935974121094" fill="none" stroke="rgb(152, 117, 27)" stroke-opacity="0.51292723" stroke-linecap="round" stroke-linejoin="round"/>
    <path d="M 63.389591217041016 85.683349609375 C 77.33206939697266 143.3628387451172 60.94010543823242 146.881103515625 53.63600540161133 106.19133758544922" stroke-width="1.9361213445663452" fill="none" stroke="rgb(17, 12, 33)" stroke-opacity="0.48440397" stroke-linecap="round" stroke-linejoin="round"/>
    <path d="M 112.82390594482422 166.1643524169922 C 50.75405502319336 165.1981658935547 70.17828369140625 186.61300659179688 91.85845184326172 165.27102661132812" stroke-width="10.018274307250977" fill="none" stroke="rgb(144, 70, 5)" stroke-opacity="0.5274404" stroke-linecap="round" stroke-linejoin="round"/>
    <path d="M 91.10331726074219 141.65367126464844 C 97.20358276367188 174.80909729003906 101.68296813964844 167.22451782226562 92.0887222290039 137.13790893554688" stroke-width="10.877701759338379" fill="none" stroke="rgb(91, 34, 52)" stroke-opacity="0.25268996" stroke-linecap="round" stroke-linejoin="round"/>
    <path d="M 113.05278015136719 110.35078430175781 C 133.912109375 147.38833618164062 140.80540466308594 148.98939514160156 130.31686401367188 127.46656799316406" stroke-width="5.252854347229004" fill="none" stroke="rgb(5, 22, 59)" stroke-opacity="0.6438302" stroke-linecap="round" stroke-linejoin="round"/>
    <path d="M 235.5946044921875 130.97763061523438 C 204.72671508789062 138.58721923828125 242.0238494873047 155.94741821289062 203.46424865722656 116.11520385742188" stroke-width="11.813448905944824" fill="none" stroke="rgb(191, 227, 246)" stroke-opacity="0.6783622" stroke-linecap="round" stroke-linejoin="round"/>
    <path d="M 164.0841522216797 191.1561737060547 C 80.47020721435547 169.13818359375 284.2029113769531 188.44741821289062 127.45609283447266 183.2040252685547" stroke-width="3.8642823696136475" fill="none" stroke="rgb(56, 75, 81)" stroke-opacity="0.648708" stroke-linecap="round" stroke-linejoin="round"/>
    <path d="M 134.3103485107422 173.65673828125 C 66.9482650756836 177.9259796142578 149.2191162109375 172.4374237060547 81.85787963867188 176.15771484375" stroke-width="9.205543518066406" fill="none" stroke="rgb(73, 21, 9)" stroke-opacity="0.35626632" stroke-linecap="round" stroke-linejoin="round"/>
    <path d="M -12.68310260772705 193.54702758789062 C 51.77971649169922 182.79237365722656 9.728878021240234 220.13821411132812 25.051631927490234 153.17514038085938" stroke-width="6.5779643058776855" fill="none" stroke="rgb(21, 55, 60)" stroke-opacity="0.3066565" stroke-linecap="round" stroke-linejoin="round"/>
    <path d="M 131.57936096191406 80.03803253173828 C 120.4865951538086 51.38139343261719 119.14067077636719 52.403228759765625 135.02243041992188 82.98758697509766" stroke-width="5.46390438079834" fill="none" stroke="rgb(60, 38, 26)" stroke-opacity="0.9825462" stroke-linecap="round" stroke-linejoin="round"/>
    <path d="M 147.25694274902344 158.57191467285156 C 78.92879486083984 153.73794555664062 87.26589965820312 153.700927734375 194.04075622558594 154.18113708496094" stroke-width="2.083329439163208" fill="none" stroke="rgb(255, 213, 166)" stroke-opacity="0.5380598" stroke-linecap="round" stroke-linejoin="round"/>
    <path d="M 6.848581790924072 167.75213623046875 C 10.243267059326172 127.8996810913086 36.396728515625 195.75457763671875 25.151819229125977 152.19638061523438" stroke-width="4.832481384277344" fill="none" stroke="rgb(58, 77, 108)" stroke-opacity="0.53275275" stroke-linecap="round" stroke-linejoin="round"/>
    <path d="M 144.90325927734375 83.32921600341797 C 124.23165130615234 83.4256820678711 93.74954986572266 69.80235290527344 121.74491882324219 78.35965728759766" stroke-width="6.4285969734191895" fill="none" stroke="rgb(176, 162, 148)" stroke-opacity="0.7737841" stroke-linecap="round" stroke-linejoin="round"/>
    <path d="M 152.98147583007812 148.84671020507812 C 136.40078735351562 140.73870849609375 169.78749084472656 148.81512451171875 148.6579132080078 149.47361755371094" stroke-width="5.861044406890869" fill="none" stroke="rgb(7, 5, 0)" stroke-opacity="0.8123175" stroke-linecap="round" stroke-linejoin="round"/>
    <path d="M 99.45732879638672 144.76278686523438 C 78.88895416259766 117.42160034179688 67.98625946044922 150.40020751953125 76.19535827636719 135.8893585205078" stroke-width="1.9079784154891968" fill="none" stroke="rgb(1, 0, 3)" stroke-opacity="0.9697843" stroke-linecap="round" stroke-linejoin="round"/>
    <path d="M 213.04490661621094 93.58540344238281 C 180.3634796142578 140.55120849609375 212.12570190429688 104.96764373779297 158.82110595703125 62.35618209838867" stroke-width="9.600752830505371" fill="none" stroke="rgb(115, 157, 235)" stroke-opacity="0.68516225" stroke-linecap="round" stroke-linejoin="round"/>
    <path d="M 152.96266174316406 209.79953002929688 C 38.3026123046875 172.7609405517578 68.95108032226562 194.78878784179688 165.18728637695312 198.36524963378906" stroke-width="2.993180274963379" fill="none" stroke="rgb(11, 22, 17)" stroke-opacity="0.14077014" stroke-linecap="round" stroke-linejoin="round"/>
    <path d="M 138.16603088378906 167.7108154296875 C 135.51239013671875 97.85462188720703 118.14142608642578 120.4673080444336 136.60263061523438 147.30332946777344" stroke-width="3.8076775074005127" fill="none" stroke="rgb(24, 12, 7)" stroke-opacity="0.8898406" stroke-linecap="round" stroke-linejoin="round"/>
    <path d="M 170.0924072265625 202.81149291992188 C -10.686639785766602 199.4033966064453 6.8529229164123535 206.83872985839844 108.8410415649414 201.14820861816406" stroke-width="3.0003225803375244" fill="none" stroke="rgb(16, 45, 47)" stroke-opacity="0.28567776" stroke-linecap="round" stroke-linejoin="round"/>
    <path d="M 149.61573791503906 97.60627746582031 C 133.51084899902344 88.36834716796875 155.39413452148438 66.81651306152344 163.98977661132812 88.51876068115234" stroke-width="15.152779579162598" fill="none" stroke="rgb(216, 186, 145)" stroke-opacity="0.19472076" stroke-linecap="round" stroke-linejoin="round"/>
    <path d="M 142.62168884277344 138.42718505859375 C 91.25090789794922 35.578643798828125 152.72979736328125 89.6180648803711 140.8148193359375 167.29617309570312" stroke-width="12.012612342834473" fill="none" stroke="rgb(227, 205, 150)" stroke-opacity="0.5861125" stroke-linecap="round" stroke-linejoin="round"/>
    <path d="M 188.93780517578125 148.75181579589844 C 153.71986389160156 142.89552307128906 154.24195861816406 160.41696166992188 188.10963439941406 127.98173522949219" stroke-width="7.970487117767334" fill="none" stroke="rgb(8, 0, 2)" stroke-opacity="0.5441449" stroke-linecap="round" stroke-linejoin="round"/>
    <path d="M 66.06869506835938 136.13345336914062 C 54.22084045410156 125.33872985839844 65.64570617675781 148.87864685058594 72.74757385253906 130.83177185058594" stroke-width="1.8726935386657715" fill="none" stroke="rgb(217, 153, 140)" stroke-opacity="0.47732437" stroke-linecap="round" stroke-linejoin="round"/>
    <path d="M 122.4044418334961 138.94650268554688 C 132.67779541015625 145.61305236816406 129.0912322998047 166.41632080078125 168.61036682128906 143.8993377685547" stroke-width="2.119671583175659" fill="none" stroke="rgb(103, 77, 24)" stroke-opacity="0.66814566" stroke-linecap="round" stroke-linejoin="round"/>
    <path d="M 137.81741333007812 150.57080078125 C 118.94036865234375 76.41698455810547 90.2307357788086 64.59518432617188 135.84559631347656 142.80221557617188" stroke-width="3.7536609172821045" fill="none" stroke="rgb(9, 8, 11)" stroke-opacity="0.9720368" stroke-linecap="round" stroke-linejoin="round"/>
    <path d="M 118.32910919189453 41.272884368896484 C 126.57317352294922 88.9273681640625 124.61753845214844 58.36281204223633 137.0474853515625 84.78675079345703" stroke-width="2.648242712020874" fill="none" stroke="rgb(11, 17, 6)" stroke-opacity="0.5795052" stroke-linecap="round" stroke-linejoin="round"/>
    <path d="M 85.81273651123047 146.922607421875 C 85.30498504638672 168.92990112304688 64.40137481689453 134.2071075439453 129.7505645751953 161.32911682128906" stroke-width="18.157211303710938" fill="none" stroke="rgb(179, 111, 53)" stroke-opacity="0.7467397" stroke-linecap="round" stroke-linejoin="round"/>
    <path d="M 146.0669403076172 114.34919738769531 C 136.895263671875 72.77702331542969 132.8156280517578 82.62483978271484 122.24640655517578 75.36532592773438" stroke-width="1.8381993770599365" fill="none" stroke="rgb(0, 0, 36)" stroke-opacity="0.54957324" stroke-linecap="round" stroke-linejoin="round"/>
    <path d="M 59.64766311645508 110.09191131591797 C 59.61138916015625 139.99085998535156 63.832218170166016 143.49383544921875 62.960323333740234 134.85528564453125" stroke-width="13.92226791381836" fill="none" stroke="rgb(64, 45, -3)" stroke-opacity="0.34924406" stroke-linecap="round" stroke-linejoin="round"/>
    <path d="M 51.8056526184082 104.5400390625 C 62.7389030456543 152.8036346435547 50.81886291503906 151.29910278320312 60.15098190307617 120.78948211669922" stroke-width="3.467121124267578" fill="none" stroke="rgb(12, 12, 16)" stroke-opacity="0.9473164" stroke-linecap="round" stroke-linejoin="round"/>
    <path d="M 124.68441772460938 70.9039306640625 C 128.35386657714844 78.84056091308594 126.70420837402344 69.40713500976562 119.96688079833984 46.23746109008789" stroke-width="2.16372013092041" fill="none" stroke="rgb(151, 120, 81)" stroke-opacity="0.6701206" stroke-linecap="round" stroke-linejoin="round"/>
    <path d="M 213.97108459472656 113.7882080078125 C 257.62188720703125 141.20603942871094 174.61293029785156 106.6537857055664 207.0121612548828 127.96226501464844" stroke-width="22.822101593017578" fill="none" stroke="rgb(180, 158, 116)" stroke-opacity="0.35873273" stroke-linecap="round" stroke-linejoin="round"/>
    <path d="M 147.03529357910156 198.37509155273438 C 164.27841186523438 173.54092407226562 228.21527099609375 186.95303344726562 155.27685546875 183.60684204101562" stroke-width="8.263106346130371" fill="none" stroke="rgb(41, 75, 90)" stroke-opacity="0.37866884" stroke-linecap="round" stroke-linejoin="round"/>
    <path d="M 238.72767639160156 197.3009033203125 C 211.5065155029297 198.0578155517578 262.1483459472656 218.10069274902344 192.51536560058594 200.6909637451172" stroke-width="7.740318298339844" fill="none" stroke="rgb(60, 101, 154)" stroke-opacity="0.87739676" stroke-linecap="round" stroke-linejoin="round"/>
    <path d="M 132.31666564941406 71.94335174560547 C 123.23521423339844 87.58802032470703 144.2922821044922 86.39107513427734 121.94435119628906 50.6638298034668" stroke-width="5.160187721252441" fill="none" stroke="rgb(18, 57, 110)" stroke-opacity="0.18158531" stroke-linecap="round" stroke-linejoin="round"/>
    <path d="M 65.28276062011719 88.56713104248047 C 95.76862335205078 128.42901611328125 66.63422393798828 108.25155639648438 66.38465881347656 90.041748046875" stroke-width="4.462768077850342" fill="none" stroke="rgb(28, 28, 28)" stroke-opacity="0.7448494" stroke-linecap="round" stroke-linejoin="round"/>
    <path d="M 51.019187927246094 169.30435180664062 C 30.562307357788086 247.01393127441406 47.07280349731445 151.61227416992188 92.8167495727539 212.2299041748047" stroke-width="8.657341003417969" fill="none" stroke="rgb(6, 32, 12)" stroke-opacity="0.09751791" stroke-linecap="round" stroke-linejoin="round"/>
    <path d="M 156.36212158203125 -3.245424509048462 C -131.3282928466797 18.541889190673828 149.7158966064453 -59.326759338378906 221.1864471435547 67.95955657958984" stroke-width="94.79452514648438" fill="none" stroke="rgb(155, 184, 236)" stroke-opacity="1.007685" stroke-linecap="round" stroke-linejoin="round"/>
    <path d="M 135.90139770507812 169.41346740722656 C 365.49114990234375 170.2113494873047 244.37582397460938 167.7607879638672 130.9063720703125 168.47145080566406" stroke-width="2.5495853424072266" fill="none" stroke="rgb(-1, 2, 0)" stroke-opacity="0.84632486" stroke-linecap="round" stroke-linejoin="round"/>
    <path d="M 207.1023406982422 217.7801971435547 C 38.0921745300293 205.91392517089844 7.9414496421813965 221.792236328125 150.0431365966797 219.85433959960938" stroke-width="3.232771635055542" fill="none" stroke="rgb(0, 3, 0)" stroke-opacity="0.18757369" stroke-linecap="round" stroke-linejoin="round"/>
    <path d="M 102.0374984741211 139.37779235839844 C 104.15243530273438 139.4684600830078 97.82767486572266 150.78245544433594 104.45692443847656 127.38526153564453" stroke-width="5.4598469734191895" fill="none" stroke="rgb(0, 38, 116)" stroke-opacity="0.31079972" stroke-linecap="round" stroke-linejoin="round"/>
    <path d="M 55.38560485839844 104.0185317993164 C 82.6252670288086 114.90985870361328 59.6041374206543 103.79716491699219 77.72472381591797 116.51526641845703" stroke-width="4.604192733764648" fill="none" stroke="rgb(95, 40, 0)" stroke-opacity="0.20174906" stroke-linecap="round" stroke-linejoin="round"/>
    <path d="M 173.32188415527344 193.7544403076172 C 109.9405517578125 201.20840454101562 89.18706512451172 179.93484497070312 139.31405639648438 189.4117889404297" stroke-width="2.9411816596984863" fill="none" stroke="rgb(8, 32, 3)" stroke-opacity="0.20977494" stroke-linecap="round" stroke-linejoin="round"/>
    <path d="M 141.19285583496094 216.10594177246094 C 273.2127685546875 213.37142944335938 304.6239929199219 183.58181762695312 166.00547790527344 184.9435272216797" stroke-width="16.04979133605957" fill="none" stroke="rgb(15, 27, 35)" stroke-opacity="0.15782073" stroke-linecap="round" stroke-linejoin="round"/>
    <path d="M 28.538448333740234 160.8902587890625 C -110.16923522949219 152.4192352294922 77.42017364501953 156.87818908691406 32.09659957885742 152.8260498046875" stroke-width="4.882653713226318" fill="none" stroke="rgb(16, 18, 25)" stroke-opacity="0.6191385" stroke-linecap="round" stroke-linejoin="round"/>
    <path d="M 61.79088592529297 141.01287841796875 C 54.885337829589844 121.96941375732422 57.59208297729492 98.36561584472656 64.98348999023438 143.4732208251953" stroke-width="6.962701320648193" fill="none" stroke="rgb(8, 3, 13)" stroke-opacity="0.50601536" stroke-linecap="round" stroke-linejoin="round"/>
    <path d="M 64.98644256591797 136.6009979248047 C 54.04129409790039 135.2166290283203 54.290035247802734 139.24099731445312 55.21061325073242 137.03305053710938" stroke-width="2.4637632369995117" fill="none" stroke="rgb(124, 46, 97)" stroke-opacity="0.7139527" stroke-linecap="round" stroke-linejoin="round"/>
    <path d="M 57.451072692871094 119.05299377441406 C 61.501625061035156 142.85304260253906 69.3185806274414 126.02751922607422 58.26203918457031 119.41101837158203" stroke-width="5.781060218811035" fill="none" stroke="rgb(11, 12, 18)" stroke-opacity="0.9381875" stroke-linecap="round" stroke-linejoin="round"/>
    <path d="M 209.70449829101562 148.2083282470703 C 182.24649047851562 154.56939697265625 183.69873046875 149.56961059570312 217.4347686767578 151.32179260253906" stroke-width="3.5819942951202393" fill="none" stroke="rgb(22, 8, 0)" stroke-opacity="0.4238002" stroke-linecap="round" stroke-linejoin="round"/>
    <path d="M -2.2548668384552 205.74200439453125 C 55.32114791870117 213.06021118164062 -38.125946044921875 198.857666015625 62.26712417602539 211.55203247070312" stroke-width="12.877126693725586" fill="none" stroke="rgb(45, 88, 138)" stroke-opacity="0.94583833" stroke-linecap="round" stroke-linejoin="round"/>
    <path d="M 221.3358154296875 118.01302337646484 C 230.25022888183594 159.4536895751953 237.40933227539062 125.05474090576172 212.56065368652344 122.04396057128906" stroke-width="34.41023635864258" fill="none" stroke="rgb(134, 118, 103)" stroke-opacity="0.74603844" stroke-linecap="round" stroke-linejoin="round"/>
    <path d="M -15.279091835021973 166.53298950195312 C -4.8588666915893555 154.79672241210938 32.75590133666992 169.62017822265625 -5.9099907875061035 156.77610778808594" stroke-width="6.791135311126709" fill="none" stroke="rgb(33, 49, 61)" stroke-opacity="0.8688422" stroke-linecap="round" stroke-linejoin="round"/>
    <path d="M 81.1710433959961 166.3976593017578 C 36.97018051147461 149.18099975585938 74.53101348876953 152.960693359375 44.937469482421875 151.41104125976562" stroke-width="14.731009483337402" fill="none" stroke="rgb(11, 0, 7)" stroke-opacity="0.3459037" stroke-linecap="round" stroke-linejoin="round"/>
    <path d="M 61.539100646972656 151.14561462402344 C 127.69800567626953 203.34483337402344 67.74453735351562 136.72872924804688 75.25231170654297 175.39068603515625" stroke-width="2.9778738021850586" fill="none" stroke="rgb(138, 84, 48)" stroke-opacity="0.85051817" stroke-linecap="round" stroke-linejoin="round"/>
  </g>
</svg>
