<?xml version="1.0" ?>
<svg xmlns="http://www.w3.org/2000/svg" version="1.1" width="224" height="224">
  <defs/>
  <g>
    <path d="M 147.80691528320312 107.354736328125 C 141.87803649902344 46.839569091796875 125.24044799804688 83.3199462890625 126.12216186523438 62.738243103027344" stroke-width="3.0" fill="none" stroke="rgb(0, 0, 0)" stroke-opacity="0.014372963" stroke-linecap="round" stroke-linejoin="round"/>
    <path d="M 117.64897155761719 123.47647094726562 C 143.57513427734375 134.20545959472656 132.06521606445312 93.0767593383789 69.0582504272461 82.2607650756836" stroke-width="3.0" fill="none" stroke="rgb(0, 0, 0)" stroke-opacity="-0.0035967072" stroke-linecap="round" stroke-linejoin="round"/>
    <path d="M 94.83394622802734 204.82020568847656 C 6.108829975128174 235.33062744140625 -78.10436248779297 228.8653564453125 15.496978759765625 217.04306030273438" stroke-width="3.0" fill="none" stroke="rgb(1, -1, 1)" stroke-opacity="0.10115056" stroke-linecap="round" stroke-linejoin="round"/>
    <path d="M 115.3381576538086 96.705810546875 C 92.59109497070312 109.30731964111328 104.03421020507812 71.71180725097656 137.09922790527344 151.01271057128906" stroke-width="3.0" fill="none" stroke="rgb(0, 0, 0)" stroke-opacity="0.7944362" stroke-linecap="round" stroke-linejoin="round"/>
    <path d="M 53.40717697143555 123.01104736328125 C 128.656494140625 137.91964721679688 35.74785232543945 141.74229431152344 81.9559555053711 138.13174438476562" stroke-width="3.0" fill="none" stroke="rgb(-1, 1, 0)" stroke-opacity="0.1844395" stroke-linecap="round" stroke-linejoin="round"/>
    <path d="M 136.55186462402344 58.14417266845703 C 165.7913360595703 67.7115707397461 164.76414489746094 178.9512481689453 134.6095733642578 68.31417846679688" stroke-width="3.0" fill="none" stroke="rgb(-1, 1, -1)" stroke-opacity="0.019967735" stroke-linecap="round" stroke-linejoin="round"/>
    <path d="M 89.39411926269531 144.0298309326172 C 19.58182716369629 124.75859069824219 65.79920959472656 152.26124572753906 50.3709602355957 107.03034210205078" stroke-width="3.0" fill="none" stroke="rgb(0, 0, 1)" stroke-opacity="0.28094974" stroke-linecap="round" stroke-linejoin="round"/>
    <path d="M 91.0778579711914 134.04530334472656 C -13.098753929138184 170.27487182617188 47.99273681640625 152.12686157226562 111.8935775756836 143.80191040039062" stroke-width="3.0" fill="none" stroke="rgb(3, -1, 0)" stroke-opacity="0.32052064" stroke-linecap="round" stroke-linejoin="round"/>
    <path d="M 147.65048217773438 186.28765869140625 C 137.9812774658203 186.35647583007812 67.1050033569336 183.7265167236328 95.14923858642578 170.8321533203125" stroke-width="3.0" fill="none" stroke="rgb(1, 0, 1)" stroke-opacity="0.17018391" stroke-linecap="round" stroke-linejoin="round"/>
    <path d="M 140.6342010498047 120.52713775634766 C 113.2597427368164 154.30247497558594 137.30491638183594 167.466064453125 153.97715759277344 125.72174072265625" stroke-width="3.0" fill="none" stroke="rgb(0, 0, 0)" stroke-opacity="-0.00017523073" stroke-linecap="round" stroke-linejoin="round"/>
    <path d="M 54.25458526611328 146.53587341308594 C 209.18304443359375 190.42135620117188 224.88633728027344 181.5599365234375 89.98800659179688 153.0631561279297" stroke-width="3.0" fill="none" stroke="rgb(0, 1, -1)" stroke-opacity="0.044787806" stroke-linecap="round" stroke-linejoin="round"/>
    <path d="M -25.831157684326172 207.87757873535156 C 104.90270233154297 205.7315673828125 125.43621826171875 204.52935791015625 113.53901672363281 164.86679077148438" stroke-width="3.0" fill="none" stroke="rgb(0, 0, 1)" stroke-opacity="0.07085982" stroke-linecap="round" stroke-linejoin="round"/>
    <path d="M 226.45770263671875 206.53070068359375 C 159.4291229248047 192.3444061279297 182.25750732421875 131.7166748046875 236.325927734375 157.904296875" stroke-width="3.0" fill="none" stroke="rgb(1, 0, 0)" stroke-opacity="0.024005694" stroke-linecap="round" stroke-linejoin="round"/>
    <path d="M 166.02764892578125 222.406005859375 C 31.16081428527832 164.91592407226562 65.66495513916016 171.8688507080078 101.82736206054688 218.5843505859375" stroke-width="3.0" fill="none" stroke="rgb(0, 0, 0)" stroke-opacity="0.05430217" stroke-linecap="round" stroke-linejoin="round"/>
    <path d="M 119.58219909667969 114.04302215576172 C 105.68087005615234 79.28767395019531 135.26116943359375 150.59402465820312 98.1285629272461 98.54935455322266" stroke-width="3.0" fill="none" stroke="rgb(-1, 0, 0)" stroke-opacity="0.25317904" stroke-linecap="round" stroke-linejoin="round"/>
    <path d="M 119.6229248046875 134.10194396972656 C 79.62529754638672 64.18656921386719 141.59251403808594 116.24028015136719 106.64282989501953 75.39456176757812" stroke-width="3.0" fill="none" stroke="rgb(0, 0, 0)" stroke-opacity="0.17102362" stroke-linecap="round" stroke-linejoin="round"/>
    <path d="M 117.35834503173828 78.65676879882812 C 121.32917022705078 71.97174072265625 116.785888671875 88.72486877441406 120.96405029296875 127.3230972290039" stroke-width="3.0" fill="none" stroke="rgb(0, 0, 0)" stroke-opacity="0.013155673" stroke-linecap="round" stroke-linejoin="round"/>
    <path d="M 64.86522674560547 87.017333984375 C 79.07493591308594 113.4895248413086 64.22218322753906 74.8766098022461 94.75784301757812 142.31942749023438" stroke-width="3.0" fill="none" stroke="rgb(0, 0, 0)" stroke-opacity="0.6670329" stroke-linecap="round" stroke-linejoin="round"/>
    <path d="M 108.63982391357422 220.49758911132812 C 71.34696197509766 215.07955932617188 191.3562469482422 168.9623260498047 -10.332377433776855 171.347900390625" stroke-width="3.0" fill="none" stroke="rgb(0, 0, -1)" stroke-opacity="0.03450989" stroke-linecap="round" stroke-linejoin="round"/>
    <path d="M 217.5361328125 149.8093719482422 C 180.8718719482422 100.88765716552734 191.24322509765625 115.1382827758789 226.21710205078125 175.7318572998047" stroke-width="3.0" fill="none" stroke="rgb(-2, 0, 1)" stroke-opacity="0.12592046" stroke-linecap="round" stroke-linejoin="round"/>
    <path d="M 104.00350189208984 74.39509582519531 C 140.6210479736328 144.26327514648438 92.75636291503906 72.65799713134766 123.43091583251953 113.38363647460938" stroke-width="3.0" fill="none" stroke="rgb(1, 0, -2)" stroke-opacity="0.618466" stroke-linecap="round" stroke-linejoin="round"/>
    <path d="M 42.758079528808594 169.15638732910156 C -40.176422119140625 171.3585968017578 -133.41946411132812 243.63421630859375 74.08018493652344 205.1284942626953" stroke-width="3.0" fill="none" stroke="rgb(0, 0, 0)" stroke-opacity="0.08702079" stroke-linecap="round" stroke-linejoin="round"/>
    <path d="M 188.95140075683594 118.48368835449219 C 267.0835266113281 91.74586486816406 293.9428405761719 153.22239685058594 274.5353698730469 126.50360107421875" stroke-width="3.0" fill="none" stroke="rgb(0, 0, 0)" stroke-opacity="0.026166452" stroke-linecap="round" stroke-linejoin="round"/>
    <path d="M 88.96292877197266 124.52313232421875 C -24.889707565307617 192.306640625 -29.438634872436523 156.12789916992188 115.86903381347656 133.45819091796875" stroke-width="3.0" fill="none" stroke="rgb(0, 0, 0)" stroke-opacity="0.0800261" stroke-linecap="round" stroke-linejoin="round"/>
    <path d="M -5.021552085876465 172.12774658203125 C 137.88844299316406 173.6865234375 106.80755615234375 197.0945281982422 16.72893524169922 181.33592224121094" stroke-width="3.0" fill="none" stroke="rgb(1, 0, 0)" stroke-opacity="0.1744055" stroke-linecap="round" stroke-linejoin="round"/>
    <path d="M 66.19166564941406 96.06472778320312 C 104.43091583251953 122.1739273071289 54.9598503112793 136.99949645996094 -5.986474990844727 165.6501922607422" stroke-width="3.0" fill="none" stroke="rgb(0, 0, 1)" stroke-opacity="0.08950781" stroke-linecap="round" stroke-linejoin="round"/>
    <path d="M 82.80270385742188 76.07439422607422 C 70.4300765991211 136.17820739746094 88.12850189208984 158.77102661132812 74.22676086425781 102.03385925292969" stroke-width="3.0" fill="none" stroke="rgb(0, 0, 0)" stroke-opacity="0.003592473" stroke-linecap="round" stroke-linejoin="round"/>
    <path d="M 123.86467742919922 141.1599578857422 C -74.7136001586914 161.67320251464844 -15.974517822265625 167.3349151611328 133.15927124023438 166.93206787109375" stroke-width="3.0" fill="none" stroke="rgb(0, 0, 0)" stroke-opacity="0.28105265" stroke-linecap="round" stroke-linejoin="round"/>
    <path d="M 113.02949523925781 153.1277313232422 C 86.96443176269531 49.68911361694336 131.93504333496094 98.05799865722656 136.7949676513672 143.94960021972656" stroke-width="3.0" fill="none" stroke="rgb(0, 0, 0)" stroke-opacity="0.13882342" stroke-linecap="round" stroke-linejoin="round"/>
    <path d="M 224.57781982421875 100.26826477050781 C 239.4228973388672 168.73622131347656 217.85194396972656 148.6673583984375 184.06211853027344 126.19623565673828" stroke-width="3.0" fill="none" stroke="rgb(0, 0, 0)" stroke-opacity="0.0062113176" stroke-linecap="round" stroke-linejoin="round"/>
    <path d="M 100.13169860839844 90.83319091796875 C 123.97674560546875 106.39453125 130.92784118652344 114.51494598388672 141.96810913085938 172.8744354248047" stroke-width="3.0" fill="none" stroke="rgb(0, 1, 0)" stroke-opacity="0.10224874" stroke-linecap="round" stroke-linejoin="round"/>
    <path d="M 190.22059631347656 120.63286590576172 C 152.20062255859375 51.14067077636719 211.3488311767578 107.64994812011719 140.72653198242188 53.295284271240234" stroke-width="3.0" fill="none" stroke="rgb(0, 0, 0)" stroke-opacity="-0.0058438643" stroke-linecap="round" stroke-linejoin="round"/>
    <path d="M 123.24628448486328 203.49549865722656 C 307.7538757324219 191.5714569091797 276.674560546875 204.34820556640625 232.60122680664062 185.20553588867188" stroke-width="3.0" fill="none" stroke="rgb(0, -1, 1)" stroke-opacity="0.113393284" stroke-linecap="round" stroke-linejoin="round"/>
    <path d="M 84.7868881225586 169.67819213867188 C -100.02630615234375 155.56759643554688 43.74102020263672 209.2290802001953 12.845990180969238 152.807373046875" stroke-width="3.0" fill="none" stroke="rgb(0, 0, 1)" stroke-opacity="0.2725813" stroke-linecap="round" stroke-linejoin="round"/>
    <path d="M 241.48094177246094 181.48561096191406 C 331.2267150878906 191.76393127441406 354.2099609375 218.04408264160156 72.96477508544922 205.9139862060547" stroke-width="3.0" fill="none" stroke="rgb(4, -1, -1)" stroke-opacity="0.12394981" stroke-linecap="round" stroke-linejoin="round"/>
    <path d="M -35.18794631958008 175.57879638671875 C 104.48474884033203 184.13856506347656 88.99935913085938 192.66285705566406 90.03829193115234 126.23775482177734" stroke-width="3.0" fill="none" stroke="rgb(1, 0, 0)" stroke-opacity="0.19671758" stroke-linecap="round" stroke-linejoin="round"/>
    <path d="M 221.77000427246094 159.30018615722656 C 183.0946807861328 118.3134765625 181.7239227294922 159.47525024414062 185.0342559814453 109.57758331298828" stroke-width="3.0" fill="none" stroke="rgb(0, 0, 0)" stroke-opacity="0.012966005" stroke-linecap="round" stroke-linejoin="round"/>
    <path d="M 133.7061004638672 138.55828857421875 C 114.61284637451172 91.61868286132812 91.93579864501953 55.665306091308594 107.22494506835938 104.0224838256836" stroke-width="3.0" fill="none" stroke="rgb(0, 0, -1)" stroke-opacity="0.78540623" stroke-linecap="round" stroke-linejoin="round"/>
    <path d="M 202.61720275878906 231.40487670898438 C 89.89112091064453 233.637451171875 187.062744140625 225.73248291015625 100.52297973632812 238.03916931152344" stroke-width="3.0" fill="none" stroke="rgb(0, 0, 0)" stroke-opacity="0.12893023" stroke-linecap="round" stroke-linejoin="round"/>
    <path d="M 111.51268005371094 73.70408630371094 C 136.97166442871094 82.16537475585938 122.70157623291016 131.11827087402344 153.5748291015625 110.61923217773438" stroke-width="3.0" fill="none" stroke="rgb(0, 0, 0)" stroke-opacity="0.011976857" stroke-linecap="round" stroke-linejoin="round"/>
    <path d="M 188.58798217773438 156.69541931152344 C 174.75588989257812 149.54806518554688 121.19410705566406 173.8611602783203 207.94815063476562 150.1007537841797" stroke-width="3.0" fill="none" stroke="rgb(1, -1, 1)" stroke-opacity="0.41106004" stroke-linecap="round" stroke-linejoin="round"/>
    <path d="M 110.36644744873047 208.80831909179688 C 139.66700744628906 197.29637145996094 -34.786407470703125 186.92935180664062 162.68479919433594 184.3308868408203" stroke-width="3.0" fill="none" stroke="rgb(-1, 1, 0)" stroke-opacity="0.05888891" stroke-linecap="round" stroke-linejoin="round"/>
    <path d="M 46.31714630126953 206.7425079345703 C 166.46946716308594 241.13882446289062 66.1318359375 189.98692321777344 172.50711059570312 187.67041015625" stroke-width="3.0" fill="none" stroke="rgb(0, -1, 0)" stroke-opacity="0.06153393" stroke-linecap="round" stroke-linejoin="round"/>
    <path d="M 119.83450317382812 190.151123046875 C 85.57713317871094 182.51182556152344 121.79969787597656 103.76720428466797 69.16761016845703 87.44662475585938" stroke-width="3.0" fill="none" stroke="rgb(0, 1, -3)" stroke-opacity="0.0936487" stroke-linecap="round" stroke-linejoin="round"/>
    <path d="M 238.95751953125 104.4424819946289 C 243.94065856933594 87.04325866699219 223.40054321289062 91.72650909423828 183.96829223632812 109.60861206054688" stroke-width="3.0" fill="none" stroke="rgb(0, 0, 0)" stroke-opacity="-0.0061956984" stroke-linecap="round" stroke-linejoin="round"/>
    <path d="M 85.86943817138672 116.92167663574219 C 60.99625015258789 71.78589630126953 73.29933166503906 85.72355651855469 70.98654174804688 151.13340759277344" stroke-width="3.0" fill="none" stroke="rgb(0, 0, 1)" stroke-opacity="0.13034081" stroke-linecap="round" stroke-linejoin="round"/>
    <path d="M 199.3540496826172 115.09215545654297 C 240.56930541992188 86.29883575439453 240.1646728515625 127.1556167602539 232.10084533691406 105.0583267211914" stroke-width="3.0" fill="none" stroke="rgb(0, -1, 0)" stroke-opacity="0.068822846" stroke-linecap="round" stroke-linejoin="round"/>
    <path d="M -39.744544982910156 177.9403076171875 C 291.6640930175781 180.34996032714844 113.19598388671875 180.64251708984375 -50.89334487915039 179.6059112548828" stroke-width="3.0" fill="none" stroke="rgb(-2, -3, 3)" stroke-opacity="0.6638373" stroke-linecap="round" stroke-linejoin="round"/>
    <path d="M 125.51429748535156 150.26931762695312 C 13.314929008483887 103.80612182617188 37.6149787902832 167.4893035888672 138.1166534423828 176.08522033691406" stroke-width="3.0" fill="none" stroke="rgb(1, 0, 0)" stroke-opacity="0.18110128" stroke-linecap="round" stroke-linejoin="round"/>
    <path d="M 34.85294723510742 140.35394287109375 C 107.50569152832031 141.4984588623047 35.448509216308594 104.82099914550781 70.55059814453125 133.75758361816406" stroke-width="3.0" fill="none" stroke="rgb(0, 0, 1)" stroke-opacity="0.6723936" stroke-linecap="round" stroke-linejoin="round"/>
    <path d="M 79.69872283935547 234.12448120117188 C 130.82777404785156 245.93411254882812 145.1748809814453 231.63336181640625 113.61771392822266 230.12818908691406" stroke-width="3.0" fill="none" stroke="rgb(0, 0, 0)" stroke-opacity="0.11476743" stroke-linecap="round" stroke-linejoin="round"/>
    <path d="M 92.99896240234375 183.95559692382812 C -107.67414855957031 180.39869689941406 -193.47726440429688 212.88990783691406 155.66522216796875 197.25689697265625" stroke-width="3.0" fill="none" stroke="rgb(0, 0, 0)" stroke-opacity="0.12882628" stroke-linecap="round" stroke-linejoin="round"/>
    <path d="M 246.33450317382812 219.4243927001953 C 133.8004913330078 224.10696411132812 191.2509002685547 227.9221954345703 52.69672775268555 221.21165466308594" stroke-width="3.0" fill="none" stroke="rgb(0, 0, 0)" stroke-opacity="0.101613715" stroke-linecap="round" stroke-linejoin="round"/>
    <path d="M 190.38853454589844 117.97782897949219 C 194.9101104736328 159.5897674560547 152.9098663330078 179.2523651123047 242.82754516601562 167.8568572998047" stroke-width="3.0" fill="none" stroke="rgb(-2, 0, 2)" stroke-opacity="0.12743595" stroke-linecap="round" stroke-linejoin="round"/>
    <path d="M -16.46039581298828 189.5174102783203 C 222.05160522460938 193.1917266845703 251.93624877929688 195.44326782226562 169.27708435058594 188.48434448242188" stroke-width="3.0" fill="none" stroke="rgb(-3, 0, 2)" stroke-opacity="0.10648674" stroke-linecap="round" stroke-linejoin="round"/>
    <path d="M 80.09745025634766 207.3431854248047 C -60.06005096435547 158.0872344970703 63.46864700317383 175.15966796875 127.5514144897461 197.42205810546875" stroke-width="3.0" fill="none" stroke="rgb(0, 0, 0)" stroke-opacity="0.036574736" stroke-linecap="round" stroke-linejoin="round"/>
    <path d="M 75.98512268066406 129.51840209960938 C 26.45064926147461 144.10568237304688 -9.141878128051758 176.993408203125 87.27849578857422 137.46751403808594" stroke-width="3.0" fill="none" stroke="rgb(0, -1, 1)" stroke-opacity="0.24747147" stroke-linecap="round" stroke-linejoin="round"/>
    <path d="M 195.08172607421875 107.68697357177734 C 195.06192016601562 104.08113861083984 183.41700744628906 96.90740203857422 199.58126831054688 118.94800567626953" stroke-width="3.0" fill="none" stroke="rgb(0, 0, 0)" stroke-opacity="0.003274398" stroke-linecap="round" stroke-linejoin="round"/>
    <path d="M 178.23489379882812 168.9366912841797 C 380.9088134765625 169.77430725097656 256.4036560058594 172.09214782714844 228.99757385253906 176.4040069580078" stroke-width="3.0" fill="none" stroke="rgb(-1, 0, 0)" stroke-opacity="0.6885801" stroke-linecap="round" stroke-linejoin="round"/>
    <path d="M 197.64488220214844 167.11996459960938 C 177.43902587890625 122.87696075439453 234.15538024902344 154.79176330566406 259.1051025390625 132.20372009277344" stroke-width="3.0" fill="none" stroke="rgb(0, 0, 0)" stroke-opacity="0.0045192074" stroke-linecap="round" stroke-linejoin="round"/>
    <path d="M 119.34846496582031 50.11841583251953 C 142.39927673339844 53.389930725097656 179.00689697265625 76.26964569091797 189.28627014160156 116.97290802001953" stroke-width="3.0" fill="none" stroke="rgb(-2, 2, 0)" stroke-opacity="0.079780065" stroke-linecap="round" stroke-linejoin="round"/>
    <path d="M 118.47162628173828 114.93690490722656 C 109.9918441772461 98.4364242553711 74.0303955078125 73.57862091064453 88.18679809570312 171.50149536132812" stroke-width="3.0" fill="none" stroke="rgb(0, 0, 0)" stroke-opacity="0.049029153" stroke-linecap="round" stroke-linejoin="round"/>
    <path d="M 244.26617431640625 144.8029327392578 C 255.45518493652344 173.30282592773438 282.8697204589844 166.39410400390625 180.3347625732422 158.8290252685547" stroke-width="3.0" fill="none" stroke="rgb(0, 0, 0)" stroke-opacity="0.060069617" stroke-linecap="round" stroke-linejoin="round"/>
    <path d="M 130.1263885498047 150.70541381835938 C 115.14955139160156 136.9937286376953 85.70488739013672 132.05429077148438 131.51416015625 152.74989318847656" stroke-width="3.0" fill="none" stroke="rgb(1, 0, 1)" stroke-opacity="0.9643558" stroke-linecap="round" stroke-linejoin="round"/>
    <path d="M 155.3081817626953 186.1532440185547 C 21.846240997314453 202.81903076171875 -15.382201194763184 135.27183532714844 89.91584777832031 174.5149688720703" stroke-width="3.0" fill="none" stroke="rgb(0, 0, 0)" stroke-opacity="0.15384763" stroke-linecap="round" stroke-linejoin="round"/>
    <path d="M 84.5995101928711 91.18930053710938 C 143.6364288330078 126.91596221923828 114.12503051757812 148.1200408935547 101.82782745361328 70.3349380493164" stroke-width="3.0" fill="none" stroke="rgb(-2, 2, 1)" stroke-opacity="0.4829927" stroke-linecap="round" stroke-linejoin="round"/>
    <path d="M 121.42239379882812 110.31835174560547 C 106.95477294921875 80.84593963623047 106.99524688720703 72.01380157470703 99.6586685180664 140.16758728027344" stroke-width="3.0" fill="none" stroke="rgb(-1, 0, 0)" stroke-opacity="0.2888766" stroke-linecap="round" stroke-linejoin="round"/>
    <path d="M 57.82905197143555 110.59286499023438 C 81.055419921875 89.50586700439453 63.97561264038086 146.89854431152344 51.02665710449219 77.48163604736328" stroke-width="3.0" fill="none" stroke="rgb(0, 0, 0)" stroke-opacity="0.0016822172" stroke-linecap="round" stroke-linejoin="round"/>
    <path d="M 137.09095764160156 149.00477600097656 C 88.00985717773438 68.52706909179688 98.71929931640625 92.71155548095703 134.43716430664062 149.2758026123047" stroke-width="3.0" fill="none" stroke="rgb(-1, 0, 1)" stroke-opacity="0.5039455" stroke-linecap="round" stroke-linejoin="round"/>
    <path d="M 132.90664672851562 129.82127380371094 C 102.39958190917969 94.87146759033203 80.75301361083984 80.08849334716797 105.44387817382812 118.86702728271484" stroke-width="3.0" fill="none" stroke="rgb(0, 0, 1)" stroke-opacity="0.33130583" stroke-linecap="round" stroke-linejoin="round"/>
    <path d="M 106.55059814453125 86.8185806274414 C 125.67990112304688 142.4467315673828 87.61296844482422 70.95685577392578 105.0447998046875 117.0173568725586" stroke-width="3.0" fill="none" stroke="rgb(0, 1, 0)" stroke-opacity="0.3941486" stroke-linecap="round" stroke-linejoin="round"/>
    <path d="M 72.29736328125 99.37507629394531 C 55.11332702636719 134.8804473876953 60.88241958618164 135.05023193359375 39.78464126586914 139.98114013671875" stroke-width="3.0" fill="none" stroke="rgb(-1, 0, 1)" stroke-opacity="0.15848133" stroke-linecap="round" stroke-linejoin="round"/>
    <path d="M 121.940185546875 121.12227630615234 C 120.83489227294922 230.9236602783203 134.07241821289062 182.09896850585938 143.01687622070312 173.12042236328125" stroke-width="3.0" fill="none" stroke="rgb(-2, 0, 1)" stroke-opacity="0.11327427" stroke-linecap="round" stroke-linejoin="round"/>
    <path d="M 173.3369598388672 95.72982788085938 C 137.51077270507812 26.493953704833984 166.89134216308594 93.32261657714844 165.47964477539062 102.54696655273438" stroke-width="3.0" fill="none" stroke="rgb(-1, 1, -2)" stroke-opacity="0.029356152" stroke-linecap="round" stroke-linejoin="round"/>
    <path d="M 189.69775390625 116.57284545898438 C 237.82598876953125 102.61738586425781 172.79283142089844 124.50948333740234 209.61749267578125 126.23949432373047" stroke-width="3.0" fill="none" stroke="rgb(0, 0, 0)" stroke-opacity="0.02037261" stroke-linecap="round" stroke-linejoin="round"/>
    <path d="M 62.34086608886719 173.83023071289062 C 45.907588958740234 139.9144744873047 45.41233825683594 110.02659606933594 48.88622283935547 176.4447784423828" stroke-width="3.0" fill="none" stroke="rgb(-1, 0, 1)" stroke-opacity="0.10906007" stroke-linecap="round" stroke-linejoin="round"/>
    <path d="M 138.3801727294922 195.7465057373047 C -9.111114501953125 193.5859832763672 160.29237365722656 212.60719299316406 80.377197265625 196.6385040283203" stroke-width="3.0" fill="none" stroke="rgb(0, 1, -2)" stroke-opacity="0.11921689" stroke-linecap="round" stroke-linejoin="round"/>
    <path d="M 70.02351379394531 92.79072570800781 C 119.85633850097656 147.9081573486328 95.83926391601562 238.30429077148438 72.15042877197266 136.5783233642578" stroke-width="3.0" fill="none" stroke="rgb(-2, 0, 2)" stroke-opacity="0.16430451" stroke-linecap="round" stroke-linejoin="round"/>
    <path d="M 132.36451721191406 144.64540100097656 C 125.3056869506836 128.08169555664062 119.23992919921875 112.38855743408203 125.87588500976562 125.25934600830078" stroke-width="3.0" fill="none" stroke="rgb(0, 1, 1)" stroke-opacity="0.34846592" stroke-linecap="round" stroke-linejoin="round"/>
    <path d="M 245.0458526611328 174.45652770996094 C 5.017611026763916 149.3751678466797 38.05475616455078 146.734130859375 237.23907470703125 137.23828125" stroke-width="3.0" fill="none" stroke="rgb(0, 0, 0)" stroke-opacity="0.04303103" stroke-linecap="round" stroke-linejoin="round"/>
    <path d="M 236.48712158203125 184.58755493164062 C 90.66831970214844 194.7357940673828 147.8712158203125 241.50051879882812 149.6060791015625 210.11195373535156" stroke-width="3.0" fill="none" stroke="rgb(0, 0, 0)" stroke-opacity="0.029445523" stroke-linecap="round" stroke-linejoin="round"/>
    <path d="M 60.58047103881836 204.9575653076172 C 177.488037109375 211.32485961914062 174.6674346923828 198.44752502441406 188.72840881347656 153.32330322265625" stroke-width="3.0" fill="none" stroke="rgb(0, 0, 0)" stroke-opacity="-0.0047993646" stroke-linecap="round" stroke-linejoin="round"/>
    <path d="M 73.54363250732422 168.0146484375 C 14.326419830322266 154.18980407714844 -162.6724090576172 210.87246704101562 66.46100616455078 213.90272521972656" stroke-width="3.0" fill="none" stroke="rgb(0, 0, 0)" stroke-opacity="0.14657925" stroke-linecap="round" stroke-linejoin="round"/>
    <path d="M 103.21949005126953 69.36911010742188 C 151.87847900390625 94.0312728881836 115.8252182006836 55.40777587890625 140.82322692871094 98.50303649902344" stroke-width="3.0" fill="none" stroke="rgb(0, 0, 1)" stroke-opacity="0.11642505" stroke-linecap="round" stroke-linejoin="round"/>
    <path d="M 198.65594482421875 183.6167755126953 C 433.38739013671875 154.248291015625 134.64356994628906 151.84915161132812 139.48341369628906 154.77186584472656" stroke-width="3.0" fill="none" stroke="rgb(0, 0, 1)" stroke-opacity="0.5008929" stroke-linecap="round" stroke-linejoin="round"/>
    <path d="M 95.01158142089844 195.52426147460938 C -56.76124954223633 196.6673583984375 31.559541702270508 196.21981811523438 69.82595825195312 131.62998962402344" stroke-width="3.0" fill="none" stroke="rgb(0, 0, 0)" stroke-opacity="0.090175755" stroke-linecap="round" stroke-linejoin="round"/>
    <path d="M 131.68838500976562 146.66021728515625 C 101.12472534179688 58.6778450012207 96.5915298461914 102.34542846679688 117.18649291992188 130.73837280273438" stroke-width="3.0" fill="none" stroke="rgb(0, 0, 0)" stroke-opacity="0.10013601" stroke-linecap="round" stroke-linejoin="round"/>
    <path d="M 154.1095733642578 130.53778076171875 C 186.62388610839844 148.74240112304688 144.8329620361328 139.59693908691406 192.15057373046875 155.9337158203125" stroke-width="3.0" fill="none" stroke="rgb(5, 2, 0)" stroke-opacity="0.4699821" stroke-linecap="round" stroke-linejoin="round"/>
    <path d="M 42.08714294433594 95.90239715576172 C 75.63511657714844 62.388397216796875 48.8565559387207 94.64954376220703 83.13552856445312 142.3148956298828" stroke-width="3.0" fill="none" stroke="rgb(0, 0, 0)" stroke-opacity="0.0056858705" stroke-linecap="round" stroke-linejoin="round"/>
    <path d="M 206.4534912109375 111.1761703491211 C 137.26419067382812 140.90843200683594 189.54005432128906 150.3529815673828 160.7957305908203 75.4737319946289" stroke-width="3.0" fill="none" stroke="rgb(0, 0, 0)" stroke-opacity="0.012032888" stroke-linecap="round" stroke-linejoin="round"/>
    <path d="M 41.894962310791016 168.37945556640625 C 160.675537109375 161.7701873779297 22.10643768310547 218.74342346191406 120.02193450927734 213.0795135498047" stroke-width="3.0" fill="none" stroke="rgb(0, 1, 0)" stroke-opacity="0.034897413" stroke-linecap="round" stroke-linejoin="round"/>
    <path d="M 112.08708190917969 80.33976745605469 C 101.82460021972656 155.10845947265625 95.12107849121094 118.70453643798828 140.99681091308594 155.2462615966797" stroke-width="3.0" fill="none" stroke="rgb(0, 0, 0)" stroke-opacity="0.13395835" stroke-linecap="round" stroke-linejoin="round"/>
    <path d="M 168.28396606445312 217.0248260498047 C 10.092307090759277 256.8686218261719 111.10955047607422 203.1596221923828 119.24967193603516 209.77975463867188" stroke-width="3.0" fill="none" stroke="rgb(-1, 0, 0)" stroke-opacity="0.06756433" stroke-linecap="round" stroke-linejoin="round"/>
    <path d="M 181.47027587890625 109.6524887084961 C 180.93475341796875 91.651123046875 170.34503173828125 83.93199920654297 180.27928161621094 116.05178833007812" stroke-width="3.0" fill="none" stroke="rgb(0, 0, 0)" stroke-opacity="-0.0011530666" stroke-linecap="round" stroke-linejoin="round"/>
    <path d="M 108.6711196899414 164.4512939453125 C 123.4279556274414 116.84231567382812 133.2509002685547 148.2430877685547 121.3084945678711 194.20225524902344" stroke-width="3.0" fill="none" stroke="rgb(0, 0, 0)" stroke-opacity="0.030617058" stroke-linecap="round" stroke-linejoin="round"/>
    <path d="M 189.8578338623047 125.81436157226562 C 143.30087280273438 184.7066650390625 48.96823501586914 160.7937774658203 224.8512420654297 169.34738159179688" stroke-width="3.0" fill="none" stroke="rgb(-2, 0, 3)" stroke-opacity="0.40577406" stroke-linecap="round" stroke-linejoin="round"/>
    <path d="M 68.5783920288086 130.0484161376953 C 12.100578308105469 114.30017852783203 123.4640884399414 121.72853088378906 57.837894439697266 103.43041229248047" stroke-width="3.0" fill="none" stroke="rgb(-1, 0, 0)" stroke-opacity="0.10259781" stroke-linecap="round" stroke-linejoin="round"/>
    <path d="M 133.53013610839844 131.05653381347656 C 105.85344696044922 114.2225341796875 118.79679107666016 126.45405578613281 147.14698791503906 136.55337524414062" stroke-width="3.0" fill="none" stroke="rgb(0, 0, 0)" stroke-opacity="0.0015576503" stroke-linecap="round" stroke-linejoin="round"/>
    <path d="M 137.18145751953125 155.33726501464844 C 122.95660400390625 78.4105453491211 82.79070281982422 50.902862548828125 130.57785034179688 128.4114990234375" stroke-width="3.0" fill="none" stroke="rgb(0, 1, 0)" stroke-opacity="0.7944983" stroke-linecap="round" stroke-linejoin="round"/>
    <path d="M 120.50181579589844 50.491451263427734 C 131.25918579101562 62.03239440917969 134.99929809570312 85.9636001586914 127.84599304199219 65.47734832763672" stroke-width="3.0" fill="none" stroke="rgb(2, 0, -1)" stroke-opacity="0.36063972" stroke-linecap="round" stroke-linejoin="round"/>
    <path d="M 116.76103973388672 106.12532806396484 C 105.86197662353516 174.99354553222656 105.10079956054688 128.11083984375 102.00833892822266 79.91014099121094" stroke-width="3.0" fill="none" stroke="rgb(0, 0, 0)" stroke-opacity="0.0028024472" stroke-linecap="round" stroke-linejoin="round"/>
    <path d="M 145.306396484375 155.15951538085938 C 151.30227661132812 88.94808959960938 128.12603759765625 78.61103820800781 119.53685760498047 56.708473205566406" stroke-width="3.0" fill="none" stroke="rgb(-1, 0, 1)" stroke-opacity="0.5378987" stroke-linecap="round" stroke-linejoin="round"/>
    <path d="M 57.27031707763672 139.28549194335938 C 39.2333984375 228.32821655273438 44.185523986816406 215.8916473388672 69.8622817993164 123.93212127685547" stroke-width="3.0" fill="none" stroke="rgb(0, 0, 0)" stroke-opacity="0.04827211" stroke-linecap="round" stroke-linejoin="round"/>
    <path d="M 54.11235809326172 144.38563537597656 C 81.78209686279297 141.52040100097656 89.28522491455078 156.06378173828125 56.84696578979492 108.26567077636719" stroke-width="3.0" fill="none" stroke="rgb(0, 0, 0)" stroke-opacity="0.6251804" stroke-linecap="round" stroke-linejoin="round"/>
    <path d="M 143.21218872070312 100.63243103027344 C 144.4281005859375 66.44137573242188 117.32747650146484 63.582454681396484 100.95425415039062 67.56068420410156" stroke-width="3.0" fill="none" stroke="rgb(0, 0, 0)" stroke-opacity="-0.0013330423" stroke-linecap="round" stroke-linejoin="round"/>
    <path d="M 229.2379913330078 101.14555358886719 C 220.27191162109375 108.86421203613281 221.0287322998047 104.06844329833984 233.5587921142578 107.6365737915039" stroke-width="3.0" fill="none" stroke="rgb(0, 0, 0)" stroke-opacity="0.025687998" stroke-linecap="round" stroke-linejoin="round"/>
    <path d="M 191.7895965576172 178.68435668945312 C 190.71719360351562 126.18978881835938 200.17286682128906 150.29786682128906 257.8935546875 158.24203491210938" stroke-width="3.0" fill="none" stroke="rgb(-1, 0, 1)" stroke-opacity="0.08985302" stroke-linecap="round" stroke-linejoin="round"/>
    <path d="M 121.23358917236328 212.31179809570312 C 219.46018981933594 147.34715270996094 41.129356384277344 201.70814514160156 249.77630615234375 205.30625915527344" stroke-width="3.0" fill="none" stroke="rgb(0, 0, 0)" stroke-opacity="0.06880192" stroke-linecap="round" stroke-linejoin="round"/>
    <path d="M 130.76724243164062 131.76870727539062 C 106.00687408447266 72.09577941894531 114.7623291015625 63.10802459716797 143.5508270263672 120.94740295410156" stroke-width="3.0" fill="none" stroke="rgb(0, 0, 0)" stroke-opacity="0.0016478178" stroke-linecap="round" stroke-linejoin="round"/>
    <path d="M 66.93509674072266 87.09036254882812 C 80.39535522460938 143.09481811523438 80.22516632080078 113.96309661865234 67.32835388183594 89.73236846923828" stroke-width="3.0" fill="none" stroke="rgb(0, 0, 1)" stroke-opacity="0.39281124" stroke-linecap="round" stroke-linejoin="round"/>
    <path d="M 78.83737182617188 109.38306427001953 C 83.20439910888672 183.64059448242188 97.25628662109375 185.8518829345703 -12.076375961303711 202.84393310546875" stroke-width="3.0" fill="none" stroke="rgb(-1, 0, 0)" stroke-opacity="0.06847857" stroke-linecap="round" stroke-linejoin="round"/>
    <path d="M 226.68833923339844 118.91423034667969 C 254.99009704589844 102.82759094238281 245.32980346679688 89.16168212890625 194.93702697753906 112.72261047363281" stroke-width="3.0" fill="none" stroke="rgb(0, 0, 1)" stroke-opacity="0.17561273" stroke-linecap="round" stroke-linejoin="round"/>
    <path d="M 146.3368682861328 189.97109985351562 C 300.72882080078125 226.26272583007812 176.59381103515625 227.9996337890625 142.72402954101562 197.11753845214844" stroke-width="3.0" fill="none" stroke="rgb(0, 0, 0)" stroke-opacity="0.041569375" stroke-linecap="round" stroke-linejoin="round"/>
    <path d="M 67.77854919433594 223.11431884765625 C 128.859375 210.2816925048828 199.1072235107422 212.7622833251953 113.00527954101562 223.9133758544922" stroke-width="3.0" fill="none" stroke="rgb(2, -2, 0)" stroke-opacity="0.117739245" stroke-linecap="round" stroke-linejoin="round"/>
    <path d="M 164.729248046875 98.672119140625 C 172.1826629638672 200.91429138183594 143.9320831298828 174.69467163085938 157.80081176757812 132.13551330566406" stroke-width="3.0" fill="none" stroke="rgb(0, 0, 0)" stroke-opacity="0.0055153314" stroke-linecap="round" stroke-linejoin="round"/>
    <path d="M 54.210655212402344 105.3482666015625 C 60.85225296020508 145.65611267089844 75.2098388671875 140.80882263183594 53.54639434814453 106.4596176147461" stroke-width="3.0" fill="none" stroke="rgb(0, 0, 0)" stroke-opacity="0.5565769" stroke-linecap="round" stroke-linejoin="round"/>
    <path d="M 51.549896240234375 203.24075317382812 C 192.38864135742188 183.1485595703125 -33.10769271850586 177.49960327148438 228.36282348632812 169.30555725097656" stroke-width="3.0" fill="none" stroke="rgb(0, 0, -2)" stroke-opacity="0.07516632" stroke-linecap="round" stroke-linejoin="round"/>
    <path d="M -28.970056533813477 181.76724243164062 C 309.7490234375 185.096435546875 250.06451416015625 180.9438018798828 237.55393981933594 184.26409912109375" stroke-width="3.0" fill="none" stroke="rgb(-4, 0, 4)" stroke-opacity="0.40911868" stroke-linecap="round" stroke-linejoin="round"/>
    <path d="M 56.16059875488281 205.33558654785156 C 61.49873733520508 189.47857666015625 77.43385314941406 192.90670776367188 66.73191833496094 204.82896423339844" stroke-width="3.0" fill="none" stroke="rgb(2, 1, -1)" stroke-opacity="0.06278673" stroke-linecap="round" stroke-linejoin="round"/>
    <path d="M 68.3685531616211 91.50877380371094 C 98.03301239013672 140.2367706298828 90.38494873046875 121.93842315673828 68.60826110839844 98.5566635131836" stroke-width="3.0" fill="none" stroke="rgb(0, -1, 1)" stroke-opacity="0.43885818" stroke-linecap="round" stroke-linejoin="round"/>
    <path d="M 92.67813873291016 138.33502197265625 C 1.690987229347229 148.2872314453125 37.92536163330078 160.71751403808594 78.4415283203125 131.33128356933594" stroke-width="3.0" fill="none" stroke="rgb(1, 0, 0)" stroke-opacity="0.5776307" stroke-linecap="round" stroke-linejoin="round"/>
    <path d="M 14.58993911743164 177.39138793945312 C 106.93029022216797 166.71482849121094 54.76070022583008 118.990966796875 95.8795166015625 141.16049194335938" stroke-width="3.0" fill="none" stroke="rgb(0, 0, 0)" stroke-opacity="0.15822259" stroke-linecap="round" stroke-linejoin="round"/>
    <path d="M 240.70875549316406 157.65533447265625 C 88.10795593261719 163.0950164794922 150.39874267578125 148.82289123535156 181.0230712890625 148.03697204589844" stroke-width="3.0" fill="none" stroke="rgb(3, -2, 0)" stroke-opacity="0.5816129" stroke-linecap="round" stroke-linejoin="round"/>
    <path d="M 146.2365264892578 221.7266845703125 C 46.41468811035156 206.12008666992188 45.98709487915039 202.59719848632812 99.8766098022461 207.22662353515625" stroke-width="3.0" fill="none" stroke="rgb(6, -3, 0)" stroke-opacity="0.110783696" stroke-linecap="round" stroke-linejoin="round"/>
    <path d="M 206.43797302246094 103.31515502929688 C 178.46617126464844 135.5435333251953 172.9932861328125 107.8685073852539 221.06068420410156 98.03753662109375" stroke-width="3.0" fill="none" stroke="rgb(0, 0, 0)" stroke-opacity="-0.004237568" stroke-linecap="round" stroke-linejoin="round"/>
    <path d="M -27.912994384765625 174.85943603515625 C -92.82759857177734 179.1255645751953 69.74813079833984 193.44281005859375 -34.24672317504883 185.39376831054688" stroke-width="3.0" fill="none" stroke="rgb(0, 0, 0)" stroke-opacity="0.13833322" stroke-linecap="round" stroke-linejoin="round"/>
    <path d="M 92.50749206542969 176.7989501953125 C 25.98118782043457 191.85096740722656 59.023250579833984 129.9114532470703 87.40892028808594 143.07904052734375" stroke-width="3.0" fill="none" stroke="rgb(1, 0, 0)" stroke-opacity="0.11663831" stroke-linecap="round" stroke-linejoin="round"/>
    <path d="M 74.8592300415039 158.66920471191406 C 90.49581146240234 209.26988220214844 87.72000885009766 136.54559326171875 77.17996978759766 177.69586181640625" stroke-width="3.0" fill="none" stroke="rgb(3, -3, 4)" stroke-opacity="0.3661437" stroke-linecap="round" stroke-linejoin="round"/>
  </g>
</svg>
