<?xml version="1.0" ?>
<svg xmlns="http://www.w3.org/2000/svg" version="1.1" width="224" height="224">
  <defs/>
  <g>
    <path d="M 146.63673400878906 120.20063781738281 C 140.47152709960938 88.26771545410156 137.11183166503906 87.19590759277344 121.50531005859375 51.825870513916016" stroke-width="3.0" fill="none" stroke="rgb(1, -2, 1)" stroke-opacity="0.3548703" stroke-linecap="round" stroke-linejoin="round"/>
    <path d="M 131.43679809570312 148.84605407714844 C 100.62188720703125 120.54558563232422 96.9900894165039 103.92578125 135.37811279296875 152.6808319091797" stroke-width="3.0" fill="none" stroke="rgb(0, 0, 0)" stroke-opacity="0.07451461" stroke-linecap="round" stroke-linejoin="round"/>
    <path d="M 12.103994369506836 211.59170532226562 C 161.18923950195312 214.19268798828125 -6.872200012207031 182.51820373535156 75.78369140625 211.64552307128906" stroke-width="3.0" fill="none" stroke="rgb(1, -1, 0)" stroke-opacity="0.02387628" stroke-linecap="round" stroke-linejoin="round"/>
    <path d="M 106.92890167236328 81.61035919189453 C 105.00465393066406 131.5860595703125 140.8629608154297 117.51031494140625 109.77921295166016 90.69340515136719" stroke-width="3.0" fill="none" stroke="rgb(0, -1, 0)" stroke-opacity="0.57906926" stroke-linecap="round" stroke-linejoin="round"/>
    <path d="M 91.88391876220703 136.58074951171875 C 91.12274169921875 123.5873794555664 47.949623107910156 152.37374877929688 92.03425598144531 135.7444305419922" stroke-width="3.0" fill="none" stroke="rgb(1, 0, 0)" stroke-opacity="0.3277635" stroke-linecap="round" stroke-linejoin="round"/>
    <path d="M 123.73600006103516 50.99179458618164 C 198.71421813964844 85.6518783569336 132.08981323242188 77.1395263671875 157.37396240234375 74.60835266113281" stroke-width="3.0" fill="none" stroke="rgb(2, 0, -1)" stroke-opacity="0.09789546" stroke-linecap="round" stroke-linejoin="round"/>
    <path d="M 78.02320861816406 159.5064697265625 C -11.22118854522705 165.2515869140625 13.686928749084473 156.279296875 74.47773742675781 147.42141723632812" stroke-width="3.0" fill="none" stroke="rgb(0, 0, -1)" stroke-opacity="0.043526426" stroke-linecap="round" stroke-linejoin="round"/>
    <path d="M 97.72777557373047 161.570068359375 C -20.079721450805664 162.69049072265625 19.767833709716797 159.2782440185547 73.58379364013672 157.1266326904297" stroke-width="3.0" fill="none" stroke="rgb(1, -1, 0)" stroke-opacity="0.04754264" stroke-linecap="round" stroke-linejoin="round"/>
    <path d="M 108.45851135253906 143.24549865722656 C 112.13299560546875 135.2642822265625 120.25069427490234 142.7259521484375 130.70285034179688 151.0709991455078" stroke-width="3.0" fill="none" stroke="rgb(-1, 1, 1)" stroke-opacity="0.6468325" stroke-linecap="round" stroke-linejoin="round"/>
    <path d="M 169.2643585205078 166.67234802246094 C 70.8569564819336 164.42478942871094 94.2271499633789 166.72183227539062 186.13153076171875 150.5867156982422" stroke-width="3.0" fill="none" stroke="rgb(0, 0, -1)" stroke-opacity="0.028155962" stroke-linecap="round" stroke-linejoin="round"/>
    <path d="M 107.07982635498047 177.0708770751953 C 222.28675842285156 162.60816955566406 81.86466979980469 181.5200653076172 138.00917053222656 163.1743927001953" stroke-width="3.0" fill="none" stroke="rgb(4, -2, 0)" stroke-opacity="0.20843123" stroke-linecap="round" stroke-linejoin="round"/>
    <path d="M 62.99598693847656 149.99771118164062 C 115.3946304321289 174.93435668945312 96.5421371459961 172.8562469482422 98.41932678222656 142.65261840820312" stroke-width="3.0" fill="none" stroke="rgb(0, -1, 2)" stroke-opacity="0.21570456" stroke-linecap="round" stroke-linejoin="round"/>
    <path d="M 228.6920623779297 144.86196899414062 C 221.0859832763672 160.02462768554688 253.8166961669922 162.4644775390625 233.8767852783203 156.4386749267578" stroke-width="3.0" fill="none" stroke="rgb(0, 0, 0)" stroke-opacity="0.25721037" stroke-linecap="round" stroke-linejoin="round"/>
    <path d="M 96.44978332519531 162.44216918945312 C 182.58616638183594 156.54660034179688 95.74152374267578 182.09332275390625 166.68592834472656 183.3281707763672" stroke-width="3.0" fill="none" stroke="rgb(0, -1, 0)" stroke-opacity="0.1675259" stroke-linecap="round" stroke-linejoin="round"/>
    <path d="M 99.41990661621094 100.81616973876953 C 119.24742126464844 134.83004760742188 89.29151916503906 76.22224426269531 131.7088165283203 141.66323852539062" stroke-width="3.0" fill="none" stroke="rgb(-3, -2, 3)" stroke-opacity="0.6445815" stroke-linecap="round" stroke-linejoin="round"/>
    <path d="M 110.48091125488281 89.86254119873047 C 129.71961975097656 137.8414306640625 142.45870971679688 146.37611389160156 112.4124755859375 92.57235717773438" stroke-width="3.0" fill="none" stroke="rgb(-1, -2, 5)" stroke-opacity="0.92693925" stroke-linecap="round" stroke-linejoin="round"/>
    <path d="M 113.2689437866211 109.60772705078125 C 112.14141082763672 73.90153503417969 104.25521087646484 101.28653717041016 116.44157409667969 112.49803924560547" stroke-width="3.0" fill="none" stroke="rgb(0, 0, 0)" stroke-opacity="1.0012746" stroke-linecap="round" stroke-linejoin="round"/>
    <path d="M 64.8707504272461 84.19235229492188 C 117.18431854248047 88.90009307861328 126.67405700683594 207.0016326904297 62.65910339355469 84.30180358886719" stroke-width="3.0" fill="none" stroke="rgb(-1, 0, 2)" stroke-opacity="0.14570923" stroke-linecap="round" stroke-linejoin="round"/>
    <path d="M 104.13916015625 195.4492645263672 C 228.3388214111328 207.13739013671875 62.85344314575195 196.9301300048828 229.67144775390625 205.8665008544922" stroke-width="3.0" fill="none" stroke="rgb(0, -1, 2)" stroke-opacity="0.07008473" stroke-linecap="round" stroke-linejoin="round"/>
    <path d="M 203.0560302734375 129.4560089111328 C 168.88983154296875 103.69651794433594 276.5213928222656 108.21485137939453 210.94775390625 113.7992172241211" stroke-width="3.0" fill="none" stroke="rgb(0, 0, 0)" stroke-opacity="0.050486844" stroke-linecap="round" stroke-linejoin="round"/>
    <path d="M 100.32691955566406 71.05447387695312 C 112.52567291259766 88.36764526367188 91.85151672363281 110.38831329345703 111.9811782836914 101.56416320800781" stroke-width="3.0" fill="none" stroke="rgb(0, 0, 1)" stroke-opacity="0.6984072" stroke-linecap="round" stroke-linejoin="round"/>
    <path d="M -16.129655838012695 174.99960327148438 C 182.3268585205078 179.99720764160156 -141.58438110351562 183.65187072753906 38.162330627441406 183.9071807861328" stroke-width="3.0" fill="none" stroke="rgb(0, 0, 1)" stroke-opacity="0.07769564" stroke-linecap="round" stroke-linejoin="round"/>
    <path d="M 209.8825225830078 105.69515991210938 C 252.72044372558594 90.88338470458984 267.6866760253906 110.78736877441406 250.76463317871094 98.35668182373047" stroke-width="3.0" fill="none" stroke="rgb(-2, 0, 1)" stroke-opacity="0.063871086" stroke-linecap="round" stroke-linejoin="round"/>
    <path d="M 69.20903778076172 138.2467498779297 C 42.726375579833984 140.84890747070312 -0.27674466371536255 154.9814910888672 68.81937408447266 140.42086791992188" stroke-width="3.0" fill="none" stroke="rgb(1, -2, 2)" stroke-opacity="0.4342326" stroke-linecap="round" stroke-linejoin="round"/>
    <path d="M 42.92877197265625 158.60255432128906 C 17.172515869140625 137.4160919189453 77.48118591308594 178.32662963867188 72.39186096191406 165.1861114501953" stroke-width="3.0" fill="none" stroke="rgb(-1, -1, 2)" stroke-opacity="0.27393076" stroke-linecap="round" stroke-linejoin="round"/>
    <path d="M 54.72438049316406 117.7633056640625 C 77.06292724609375 129.7089080810547 36.063232421875 152.35842895507812 32.16099548339844 146.6602020263672" stroke-width="3.0" fill="none" stroke="rgb(0, -2, 0)" stroke-opacity="0.16492476" stroke-linecap="round" stroke-linejoin="round"/>
    <path d="M 103.73161315917969 122.46630096435547 C 88.64563751220703 69.95275115966797 88.87223815917969 95.89253997802734 116.6355972290039 125.92816162109375" stroke-width="3.0" fill="none" stroke="rgb(-1, -1, 4)" stroke-opacity="0.30092674" stroke-linecap="round" stroke-linejoin="round"/>
    <path d="M 65.32315063476562 89.91734313964844 C 75.40589141845703 169.12051391601562 44.778385162353516 115.8917236328125 87.38291931152344 135.57102966308594" stroke-width="3.0" fill="none" stroke="rgb(-1, 1, 1)" stroke-opacity="0.20901196" stroke-linecap="round" stroke-linejoin="round"/>
    <path d="M 141.93739318847656 166.23519897460938 C 113.51947021484375 95.36394500732422 104.2075424194336 117.92366790771484 139.22361755371094 148.5421142578125" stroke-width="3.0" fill="none" stroke="rgb(-2, -2, 2)" stroke-opacity="0.36758074" stroke-linecap="round" stroke-linejoin="round"/>
    <path d="M 203.94635009765625 133.3782958984375 C 234.08761596679688 168.5906219482422 234.7452850341797 155.87539672851562 171.854248046875 156.26797485351562" stroke-width="3.0" fill="none" stroke="rgb(-2, -3, 2)" stroke-opacity="0.31133392" stroke-linecap="round" stroke-linejoin="round"/>
    <path d="M 103.07396697998047 127.37776947021484 C 102.20195770263672 135.45733642578125 100.50936126708984 162.3417510986328 98.50283813476562 143.20761108398438" stroke-width="3.0" fill="none" stroke="rgb(0, -2, 1)" stroke-opacity="0.333729" stroke-linecap="round" stroke-linejoin="round"/>
    <path d="M 172.86756896972656 101.27349090576172 C 132.75643920898438 -0.19136866927146912 178.77392578125 184.8102569580078 161.5900115966797 73.87018585205078" stroke-width="3.0" fill="none" stroke="rgb(-1, 2, -2)" stroke-opacity="0.018649342" stroke-linecap="round" stroke-linejoin="round"/>
    <path d="M 229.56947326660156 181.76678466796875 C 233.07943725585938 176.517333984375 221.29580688476562 179.78314208984375 227.06565856933594 178.56539916992188" stroke-width="3.0" fill="none" stroke="rgb(0, 0, 0)" stroke-opacity="0.05893161" stroke-linecap="round" stroke-linejoin="round"/>
    <path d="M 27.420400619506836 159.56700134277344 C 3.3014440536499023 166.4051513671875 -83.409912109375 163.3556365966797 62.190895080566406 167.05087280273438" stroke-width="3.0" fill="none" stroke="rgb(-1, -1, 2)" stroke-opacity="0.33169937" stroke-linecap="round" stroke-linejoin="round"/>
    <path d="M 209.65562438964844 145.4868927001953 C 148.5023193359375 160.12255859375 249.5937042236328 153.8150177001953 242.59652709960938 155.87725830078125" stroke-width="3.0" fill="none" stroke="rgb(-1, 0, 1)" stroke-opacity="0.45515102" stroke-linecap="round" stroke-linejoin="round"/>
    <path d="M 26.890071868896484 172.95269775390625 C 35.331085205078125 147.76129150390625 12.756614685058594 137.9396209716797 17.697011947631836 177.6698455810547" stroke-width="3.0" fill="none" stroke="rgb(-2, 1, 3)" stroke-opacity="0.13314086" stroke-linecap="round" stroke-linejoin="round"/>
    <path d="M 190.24923706054688 125.42913818359375 C 169.6592559814453 229.98422241210938 217.10675048828125 165.18055725097656 180.69798278808594 135.45870971679688" stroke-width="3.0" fill="none" stroke="rgb(-2, 0, 2)" stroke-opacity="0.07968558" stroke-linecap="round" stroke-linejoin="round"/>
    <path d="M 114.38139343261719 101.90975189208984 C 94.2384033203125 97.71754455566406 95.1544418334961 93.37828826904297 116.94938659667969 109.92115783691406" stroke-width="3.0" fill="none" stroke="rgb(-1, -1, 0)" stroke-opacity="0.906681" stroke-linecap="round" stroke-linejoin="round"/>
    <path d="M 59.11752700805664 228.72975158691406 C -1.7819253206253052 219.44273376464844 96.23143768310547 225.458251953125 229.35195922851562 220.24266052246094" stroke-width="3.0" fill="none" stroke="rgb(-1, 0, 0)" stroke-opacity="0.12929696" stroke-linecap="round" stroke-linejoin="round"/>
    <path d="M 164.45489501953125 75.68528747558594 C 137.56492614746094 100.46434020996094 141.0286102294922 25.565786361694336 149.18955993652344 82.39851379394531" stroke-width="3.0" fill="none" stroke="rgb(0, 2, -3)" stroke-opacity="0.060568467" stroke-linecap="round" stroke-linejoin="round"/>
    <path d="M 157.88499450683594 149.8283233642578 C 193.4794921875 124.71431732177734 193.51608276367188 117.7357177734375 185.67672729492188 132.3968505859375" stroke-width="3.0" fill="none" stroke="rgb(-2, 0, 1)" stroke-opacity="0.35899743" stroke-linecap="round" stroke-linejoin="round"/>
    <path d="M 169.78733825683594 187.47080993652344 C -16.433181762695312 182.16456604003906 185.56396484375 195.88778686523438 131.98876953125 155.34442138671875" stroke-width="3.0" fill="none" stroke="rgb(-2, 1, 3)" stroke-opacity="0.11870993" stroke-linecap="round" stroke-linejoin="round"/>
    <path d="M 117.3189468383789 205.8880615234375 C 228.4949188232422 186.88829040527344 132.86312866210938 186.72817993164062 167.58047485351562 201.17324829101562" stroke-width="3.0" fill="none" stroke="rgb(0, 0, -1)" stroke-opacity="0.07130995" stroke-linecap="round" stroke-linejoin="round"/>
    <path d="M 130.7830352783203 149.0499267578125 C 73.60425567626953 131.8479766845703 122.85796356201172 169.21861267089844 62.42055892944336 83.87947082519531" stroke-width="3.0" fill="none" stroke="rgb(2, -1, -2)" stroke-opacity="0.39063033" stroke-linecap="round" stroke-linejoin="round"/>
    <path d="M 232.2046356201172 110.51455688476562 C 238.10511779785156 115.23479461669922 227.11891174316406 115.72576141357422 228.05718994140625 111.64334106445312" stroke-width="3.0" fill="none" stroke="rgb(0, 0, 0)" stroke-opacity="0.46149144" stroke-linecap="round" stroke-linejoin="round"/>
    <path d="M 66.5687484741211 130.6959228515625 C 55.240604400634766 128.5299835205078 51.179317474365234 98.03787994384766 56.36044692993164 135.96881103515625" stroke-width="3.0" fill="none" stroke="rgb(-1, 2, 0)" stroke-opacity="0.6464877" stroke-linecap="round" stroke-linejoin="round"/>
    <path d="M 195.0504913330078 118.16397857666016 C 186.8663787841797 113.3930892944336 199.5853271484375 114.0455093383789 210.060791015625 104.86495971679688" stroke-width="3.0" fill="none" stroke="rgb(-2, 0, 1)" stroke-opacity="0.110997625" stroke-linecap="round" stroke-linejoin="round"/>
    <path d="M 34.16531753540039 151.47840881347656 C 25.712114334106445 170.56451416015625 -97.56306457519531 151.20404052734375 44.20077896118164 155.26536560058594" stroke-width="3.0" fill="none" stroke="rgb(-2, 1, 2)" stroke-opacity="0.2734023" stroke-linecap="round" stroke-linejoin="round"/>
    <path d="M 69.69795989990234 138.5886688232422 C 73.71044158935547 130.35643005371094 75.38166046142578 134.62965393066406 94.04747009277344 139.75265502929688" stroke-width="3.0" fill="none" stroke="rgb(1, -1, 0)" stroke-opacity="0.28767744" stroke-linecap="round" stroke-linejoin="round"/>
    <path d="M 76.43685913085938 146.23843383789062 C -8.48012924194336 157.17120361328125 57.157501220703125 144.0043182373047 76.79003143310547 143.7240447998047" stroke-width="3.0" fill="none" stroke="rgb(1, 0, 0)" stroke-opacity="0.4510169" stroke-linecap="round" stroke-linejoin="round"/>
    <path d="M 93.33403778076172 215.6199951171875 C 284.2351379394531 243.68496704101562 5.265077590942383 183.0291748046875 199.45858764648438 211.98699951171875" stroke-width="3.0" fill="none" stroke="rgb(0, -1, 0)" stroke-opacity="0.06804711" stroke-linecap="round" stroke-linejoin="round"/>
    <path d="M -32.48744583129883 178.173828125 C 69.2220458984375 179.44593811035156 261.2834777832031 177.17935180664062 94.23326110839844 181.94296264648438" stroke-width="3.0" fill="none" stroke="rgb(-3, 2, 1)" stroke-opacity="0.34894246" stroke-linecap="round" stroke-linejoin="round"/>
    <path d="M 232.732666015625 207.19483947753906 C 110.09738159179688 228.83087158203125 93.20672607421875 225.0279541015625 210.6564178466797 198.28225708007812" stroke-width="3.0" fill="none" stroke="rgb(-2, -1, 3)" stroke-opacity="0.075452715" stroke-linecap="round" stroke-linejoin="round"/>
    <path d="M 243.02352905273438 181.4645233154297 C 71.2177963256836 178.8170166015625 139.82144165039062 190.9759979248047 125.11608123779297 173.37416076660156" stroke-width="3.0" fill="none" stroke="rgb(-3, 1, 2)" stroke-opacity="0.25104487" stroke-linecap="round" stroke-linejoin="round"/>
    <path d="M 45.86701583862305 181.85780334472656 C 194.7195587158203 180.2418670654297 188.84515380859375 194.7889404296875 72.22694396972656 165.9973602294922" stroke-width="3.0" fill="none" stroke="rgb(0, 0, 0)" stroke-opacity="0.13581426" stroke-linecap="round" stroke-linejoin="round"/>
    <path d="M 83.54764556884766 159.1854248046875 C 82.67969512939453 102.16020202636719 50.59503936767578 169.31858825683594 64.04319763183594 125.20221710205078" stroke-width="3.0" fill="none" stroke="rgb(1, 0, -1)" stroke-opacity="0.05745382" stroke-linecap="round" stroke-linejoin="round"/>
    <path d="M 97.22752380371094 142.88861083984375 C 73.00424194335938 119.90130615234375 78.74449157714844 148.34161376953125 57.400733947753906 147.32809448242188" stroke-width="3.0" fill="none" stroke="rgb(-1, -1, 1)" stroke-opacity="0.21520427" stroke-linecap="round" stroke-linejoin="round"/>
    <path d="M 162.3237762451172 146.00729370117188 C 207.90968322753906 134.63648986816406 187.0778350830078 98.749755859375 166.3436279296875 76.24427032470703" stroke-width="3.0" fill="none" stroke="rgb(-2, 1, 2)" stroke-opacity="0.07731585" stroke-linecap="round" stroke-linejoin="round"/>
    <path d="M 239.31663513183594 198.46533203125 C 56.2027702331543 195.57887268066406 196.7755584716797 192.06956481933594 113.59288787841797 185.53099060058594" stroke-width="3.0" fill="none" stroke="rgb(0, 2, -1)" stroke-opacity="0.10116891" stroke-linecap="round" stroke-linejoin="round"/>
    <path d="M 190.53379821777344 150.86907958984375 C 278.0498352050781 152.16184997558594 250.11077880859375 164.49659729003906 227.70059204101562 152.80450439453125" stroke-width="3.0" fill="none" stroke="rgb(-3, 2, 1)" stroke-opacity="0.6150491" stroke-linecap="round" stroke-linejoin="round"/>
    <path d="M 120.0014877319336 50.516441345214844 C 173.5207977294922 80.3769302368164 167.1798858642578 83.42424011230469 118.64987182617188 52.75545883178711" stroke-width="3.0" fill="none" stroke="rgb(0, 2, -3)" stroke-opacity="0.07851837" stroke-linecap="round" stroke-linejoin="round"/>
    <path d="M 121.99043273925781 124.59494018554688 C 91.350341796875 99.48929595947266 83.19996643066406 76.73644256591797 117.27657318115234 123.71861267089844" stroke-width="3.0" fill="none" stroke="rgb(-4, 2, 3)" stroke-opacity="0.8368785" stroke-linecap="round" stroke-linejoin="round"/>
    <path d="M 248.70263671875 153.41128540039062 C 194.97760009765625 167.91514587402344 246.9976806640625 136.76400756835938 196.51719665527344 148.43618774414062" stroke-width="3.0" fill="none" stroke="rgb(-1, 1, 1)" stroke-opacity="0.44953087" stroke-linecap="round" stroke-linejoin="round"/>
    <path d="M 172.2595977783203 155.2971954345703 C 109.33930206298828 156.3551483154297 144.1990203857422 144.34974670410156 110.99251556396484 137.81015014648438" stroke-width="3.0" fill="none" stroke="rgb(-2, 0, 2)" stroke-opacity="0.60962564" stroke-linecap="round" stroke-linejoin="round"/>
    <path d="M 115.73160552978516 180.20741271972656 C 123.22405242919922 85.65606689453125 97.76145935058594 206.84681701660156 224.10182189941406 184.3907470703125" stroke-width="3.0" fill="none" stroke="rgb(-2, 2, 0)" stroke-opacity="0.073934086" stroke-linecap="round" stroke-linejoin="round"/>
    <path d="M 99.23419189453125 98.1855239868164 C 130.9723358154297 127.0890121459961 130.61367797851562 137.21096801757812 106.55429077148438 102.4569320678711" stroke-width="3.0" fill="none" stroke="rgb(0, 2, 1)" stroke-opacity="0.91419405" stroke-linecap="round" stroke-linejoin="round"/>
    <path d="M 120.85356140136719 119.85254669189453 C 104.67747497558594 77.20459747314453 102.38907623291016 74.78434753417969 123.1826171875 108.99811553955078" stroke-width="3.0" fill="none" stroke="rgb(1, -1, 0)" stroke-opacity="0.7553906" stroke-linecap="round" stroke-linejoin="round"/>
    <path d="M 51.41936492919922 103.57322692871094 C 55.20857620239258 132.39732360839844 63.082054138183594 132.03285217285156 65.87655639648438 132.45619201660156" stroke-width="3.0" fill="none" stroke="rgb(-1, 1, 0)" stroke-opacity="0.56903285" stroke-linecap="round" stroke-linejoin="round"/>
    <path d="M 138.00656127929688 149.04916381835938 C 97.42955017089844 72.13082885742188 105.22402954101562 95.11680603027344 128.11190795898438 132.77053833007812" stroke-width="3.0" fill="none" stroke="rgb(0, -3, 1)" stroke-opacity="0.86225855" stroke-linecap="round" stroke-linejoin="round"/>
    <path d="M 128.85096740722656 125.05670166015625 C 112.02696228027344 62.10132598876953 72.96051025390625 63.04865646362305 131.5313262939453 80.42237091064453" stroke-width="3.0" fill="none" stroke="rgb(0, 0, 0)" stroke-opacity="0.22611381" stroke-linecap="round" stroke-linejoin="round"/>
    <path d="M 106.88743591308594 93.05025482177734 C 103.6559829711914 144.7049560546875 103.39060974121094 55.38285827636719 116.84056091308594 99.137939453125" stroke-width="3.0" fill="none" stroke="rgb(2, 3, 1)" stroke-opacity="0.844789" stroke-linecap="round" stroke-linejoin="round"/>
    <path d="M 52.81717300415039 102.22254180908203 C 83.8421401977539 103.40585327148438 65.57902526855469 146.7136688232422 58.02234649658203 109.40032196044922" stroke-width="3.0" fill="none" stroke="rgb(-1, 1, 0)" stroke-opacity="0.12843363" stroke-linecap="round" stroke-linejoin="round"/>
    <path d="M 146.65606689453125 126.04596710205078 C 147.12551879882812 192.36024475097656 141.40945434570312 322.6405944824219 151.86642456054688 139.66859436035156" stroke-width="3.0" fill="none" stroke="rgb(0, 1, 0)" stroke-opacity="0.061084993" stroke-linecap="round" stroke-linejoin="round"/>
    <path d="M 151.3903350830078 101.36981201171875 C 136.27772521972656 68.51973724365234 201.03172302246094 95.76155090332031 135.42823791503906 55.79215621948242" stroke-width="3.0" fill="none" stroke="rgb(0, 0, 0)" stroke-opacity="0.038618594" stroke-linecap="round" stroke-linejoin="round"/>
    <path d="M 193.1253204345703 116.14520263671875 C 251.37123107910156 92.2761001586914 214.5773162841797 101.66498565673828 192.28741455078125 115.33554077148438" stroke-width="3.0" fill="none" stroke="rgb(0, -1, 2)" stroke-opacity="0.14478526" stroke-linecap="round" stroke-linejoin="round"/>
    <path d="M 66.05547332763672 135.2381134033203 C 50.06673049926758 134.28977966308594 63.77154541015625 119.38038635253906 57.01680374145508 113.9930191040039" stroke-width="3.0" fill="none" stroke="rgb(0, 1, 0)" stroke-opacity="0.4353635" stroke-linecap="round" stroke-linejoin="round"/>
    <path d="M 93.08586120605469 138.58726501464844 C 81.62403106689453 203.6296844482422 106.3651123046875 184.90518188476562 33.786834716796875 190.63961791992188" stroke-width="3.0" fill="none" stroke="rgb(-2, 0, 2)" stroke-opacity="0.045022625" stroke-linecap="round" stroke-linejoin="round"/>
    <path d="M 37.75539016723633 139.81964111328125 C 114.13040161132812 117.39588165283203 88.13384246826172 143.97816467285156 97.04839324951172 171.49436950683594" stroke-width="3.0" fill="none" stroke="rgb(-1, -3, 5)" stroke-opacity="0.15134251" stroke-linecap="round" stroke-linejoin="round"/>
    <path d="M 128.4330291748047 154.52867126464844 C 229.50473022460938 142.23992919921875 161.16082763671875 166.615966796875 110.06487274169922 141.8509063720703" stroke-width="3.0" fill="none" stroke="rgb(0, 0, 0)" stroke-opacity="0.15633453" stroke-linecap="round" stroke-linejoin="round"/>
    <path d="M 156.3033905029297 148.37864685058594 C 314.3235168457031 144.96783447265625 241.77857971191406 162.1963348388672 142.86328125 157.59002685546875" stroke-width="3.0" fill="none" stroke="rgb(-1, 2, 0)" stroke-opacity="0.41466632" stroke-linecap="round" stroke-linejoin="round"/>
    <path d="M 105.56494140625 192.9081268310547 C 211.03770446777344 187.7746124267578 208.74082946777344 189.3966827392578 82.6714096069336 222.27859497070312" stroke-width="3.0" fill="none" stroke="rgb(-2, 0, 2)" stroke-opacity="0.06213451" stroke-linecap="round" stroke-linejoin="round"/>
    <path d="M 110.9052734375 173.50540161132812 C 87.7480697631836 184.5333251953125 106.75096893310547 193.75039672851562 99.44759368896484 168.11988830566406" stroke-width="3.0" fill="none" stroke="rgb(0, 0, 0)" stroke-opacity="0.12020695" stroke-linecap="round" stroke-linejoin="round"/>
    <path d="M 29.870071411132812 177.2235107421875 C -80.56206512451172 180.64553833007812 -125.9926986694336 163.2720184326172 80.56311798095703 170.58082580566406" stroke-width="3.0" fill="none" stroke="rgb(-2, 0, 2)" stroke-opacity="0.36642012" stroke-linecap="round" stroke-linejoin="round"/>
    <path d="M 119.48693084716797 51.32960891723633 C 126.42208099365234 80.36652374267578 129.50181579589844 66.09210968017578 129.66497802734375 77.06742095947266" stroke-width="3.0" fill="none" stroke="rgb(2, 0, -1)" stroke-opacity="0.5667895" stroke-linecap="round" stroke-linejoin="round"/>
    <path d="M 192.94595336914062 155.45567321777344 C 135.04855346679688 155.02810668945312 60.33197784423828 174.27146911621094 249.47933959960938 167.29795837402344" stroke-width="3.0" fill="none" stroke="rgb(-2, 1, 1)" stroke-opacity="0.48406708" stroke-linecap="round" stroke-linejoin="round"/>
    <path d="M -9.018194198608398 158.84315490722656 C 128.20523071289062 139.17218017578125 20.529396057128906 166.37704467773438 9.805366516113281 152.410888671875" stroke-width="3.0" fill="none" stroke="rgb(1, 0, 0)" stroke-opacity="0.22326832" stroke-linecap="round" stroke-linejoin="round"/>
    <path d="M 139.37631225585938 146.36688232421875 C 121.836181640625 75.27305603027344 84.47502136230469 54.76483917236328 116.87322235107422 91.75936126708984" stroke-width="3.0" fill="none" stroke="rgb(2, 1, -2)" stroke-opacity="0.32293922" stroke-linecap="round" stroke-linejoin="round"/>
    <path d="M 146.45321655273438 149.99171447753906 C 282.1528015136719 155.70509338378906 250.8693084716797 157.29515075683594 151.78250122070312 141.1232147216797" stroke-width="3.0" fill="none" stroke="rgb(-1, 1, 0)" stroke-opacity="0.18082498" stroke-linecap="round" stroke-linejoin="round"/>
    <path d="M 51.310115814208984 106.3637924194336 C 66.42985534667969 133.91050720214844 78.23027038574219 138.4505157470703 52.031070709228516 105.06670379638672" stroke-width="3.0" fill="none" stroke="rgb(1, 1, -2)" stroke-opacity="0.6157072" stroke-linecap="round" stroke-linejoin="round"/>
    <path d="M 190.85130310058594 115.88074493408203 C 211.98223876953125 115.04287719726562 180.66847229003906 125.15673828125 227.63555908203125 104.54511260986328" stroke-width="3.0" fill="none" stroke="rgb(1, 0, 0)" stroke-opacity="0.04476739" stroke-linecap="round" stroke-linejoin="round"/>
    <path d="M 151.625 205.7743377685547 C 82.723388671875 202.7820587158203 258.7488098144531 222.46775817871094 82.9917984008789 210.7171630859375" stroke-width="3.0" fill="none" stroke="rgb(0, 0, 0)" stroke-opacity="0.07724964" stroke-linecap="round" stroke-linejoin="round"/>
    <path d="M 138.62100219726562 149.14511108398438 C 121.06595611572266 80.0882568359375 89.95519256591797 65.4178466796875 133.40985107421875 138.91355895996094" stroke-width="3.0" fill="none" stroke="rgb(4, -4, -3)" stroke-opacity="0.9675821" stroke-linecap="round" stroke-linejoin="round"/>
    <path d="M 69.15373992919922 206.86753845214844 C 49.56464767456055 194.68728637695312 97.64208984375 206.38169860839844 7.701755046844482 199.9392852783203" stroke-width="3.0" fill="none" stroke="rgb(1, 0, -1)" stroke-opacity="0.030679256" stroke-linecap="round" stroke-linejoin="round"/>
    <path d="M 153.31561279296875 91.0992202758789 C 190.06089782714844 101.41138458251953 151.4894561767578 68.2856674194336 164.6001739501953 74.84185028076172" stroke-width="3.0" fill="none" stroke="rgb(0, 0, 0)" stroke-opacity="0.013868042" stroke-linecap="round" stroke-linejoin="round"/>
    <path d="M 138.72903442382812 153.77548217773438 C 124.03608703613281 110.21482849121094 126.08837127685547 119.01685333251953 135.1943359375 148.32179260253906" stroke-width="3.0" fill="none" stroke="rgb(-1, 5, 0)" stroke-opacity="0.8851318" stroke-linecap="round" stroke-linejoin="round"/>
    <path d="M 156.37673950195312 144.8064727783203 C 108.47932434082031 136.6389617919922 220.35853576660156 152.51441955566406 173.4720001220703 139.10438537597656" stroke-width="3.0" fill="none" stroke="rgb(-1, 0, 2)" stroke-opacity="0.25096112" stroke-linecap="round" stroke-linejoin="round"/>
  </g>
</svg>
