<?xml version="1.0" ?>
<svg xmlns="http://www.w3.org/2000/svg" version="1.1" width="224" height="224">
  <defs/>
  <g>
    <path d="M 122.19355010986328 180.7102508544922 C -12.894206047058105 180.3335723876953 -33.41127395629883 205.3586883544922 77.90857696533203 199.15858459472656" stroke-width="3.6973140239715576" fill="none" stroke="rgb(187, 112, 12)" stroke-opacity="0.9402269" stroke-linecap="round" stroke-linejoin="round"/>
    <path d="M 122.3497085571289 163.84518432617188 C 90.42388916015625 78.44992065429688 106.40714263916016 88.69202423095703 100.6283187866211 172.47357177734375" stroke-width="2.235935688018799" fill="none" stroke="rgb(13, 34, 101)" stroke-opacity="0.83161086" stroke-linecap="round" stroke-linejoin="round"/>
    <path d="M 164.55718994140625 201.5900115966797 C 215.9731903076172 167.2930450439453 157.73355102539062 77.66859436035156 211.63372802734375 150.11456298828125" stroke-width="22.803598403930664" fill="none" stroke="rgb(14, 109, 253)" stroke-opacity="0.41587698" stroke-linecap="round" stroke-linejoin="round"/>
    <path d="M 192.051513671875 211.02093505859375 C 207.61590576171875 255.91146850585938 210.8579864501953 139.38400268554688 221.8138427734375 135.5224151611328" stroke-width="3.1939456462860107" fill="none" stroke="rgb(49, 0, 239)" stroke-opacity="0.27524439" stroke-linecap="round" stroke-linejoin="round"/>
    <path d="M 173.6894073486328 96.21054077148438 C 199.9534454345703 157.0566864013672 166.53076171875 108.51937866210938 154.04066467285156 90.97901153564453" stroke-width="11.838216781616211" fill="none" stroke="rgb(72, 90, 98)" stroke-opacity="0.9092345" stroke-linecap="round" stroke-linejoin="round"/>
    <path d="M 174.7318115234375 213.53536987304688 C 185.33428955078125 86.36361694335938 157.2484588623047 71.86499786376953 178.33551025390625 135.70741271972656" stroke-width="3.1168229579925537" fill="none" stroke="rgb(20, 0, 58)" stroke-opacity="0.9466675" stroke-linecap="round" stroke-linejoin="round"/>
    <path d="M 76.9453125 163.1526336669922 C 101.83123779296875 300.1426696777344 69.97944641113281 159.26596069335938 131.2012176513672 209.0020294189453" stroke-width="2.2473957538604736" fill="none" stroke="rgb(93, 95, 102)" stroke-opacity="0.6977674" stroke-linecap="round" stroke-linejoin="round"/>
    <path d="M 40.1036491394043 191.8172149658203 C 134.99319458007812 171.02603149414062 53.06789016723633 166.67457580566406 -20.348461151123047 172.23733520507812" stroke-width="44.2809944152832" fill="none" stroke="rgb(1, 129, 225)" stroke-opacity="0.3965884" stroke-linecap="round" stroke-linejoin="round"/>
    <path d="M 242.449951171875 25.329458236694336 C 52.086891174316406 21.501052856445312 166.6858367919922 27.99530029296875 110.57170104980469 16.998947143554688" stroke-width="50.167747497558594" fill="none" stroke="rgb(0, 123, 217)" stroke-opacity="0.41896212" stroke-linecap="round" stroke-linejoin="round"/>
    <path d="M 90.02515411376953 72.10762023925781 C 158.8842010498047 14.062044143676758 171.52012634277344 57.45563507080078 73.3747787475586 83.85028839111328" stroke-width="2.886234998703003" fill="none" stroke="rgb(0, 4, 175)" stroke-opacity="0.99763167" stroke-linecap="round" stroke-linejoin="round"/>
    <path d="M 48.30767059326172 200.70608520507812 C -33.5003776550293 225.57846069335938 -41.78436279296875 128.20274353027344 92.67405700683594 191.7437286376953" stroke-width="25.08511734008789" fill="none" stroke="rgb(-1, 68, 158)" stroke-opacity="0.33873934" stroke-linecap="round" stroke-linejoin="round"/>
    <path d="M 224.0948028564453 79.30007934570312 C 128.9007568359375 110.05298614501953 141.55308532714844 80.80416870117188 241.57603454589844 80.3355712890625" stroke-width="19.029735565185547" fill="none" stroke="rgb(162, 121, 73)" stroke-opacity="0.56133384" stroke-linecap="round" stroke-linejoin="round"/>
    <path d="M 214.78506469726562 207.99000549316406 C 285.81201171875 123.25314331054688 246.16836547851562 120.34917449951172 155.62506103515625 195.58856201171875" stroke-width="35.344932556152344" fill="none" stroke="rgb(65, 118, 6)" stroke-opacity="0.2939851" stroke-linecap="round" stroke-linejoin="round"/>
    <path d="M 6.96648645401001 -7.559248924255371 C -0.3489817678928375 -7.011897087097168 5.33585786819458 -7.412112712860107 10.458207130432129 -6.190302848815918" stroke-width="2.0" fill="none" stroke="rgb(34, 29, 0)" stroke-opacity="0.87243116" stroke-linecap="round" stroke-linejoin="round"/>
    <path d="M 113.43550109863281 55.60499572753906 C 98.4542007446289 139.33447265625 52.09160614013672 128.20016479492188 75.69134521484375 86.1739273071289" stroke-width="14.581223487854004" fill="none" stroke="rgb(2, 118, 171)" stroke-opacity="0.51908547" stroke-linecap="round" stroke-linejoin="round"/>
    <path d="M 229.2506103515625 -18.087900161743164 C 241.3675079345703 23.76934242248535 226.32080078125 54.139793395996094 230.79360961914062 -4.836730003356934" stroke-width="4.27013635635376" fill="none" stroke="rgb(129, 173, 248)" stroke-opacity="0.9114263" stroke-linecap="round" stroke-linejoin="round"/>
    <path d="M 124.86229705810547 144.1836395263672 C 177.84506225585938 142.13905334472656 150.9712371826172 181.1210479736328 55.90250778198242 108.64418029785156" stroke-width="3.1458494663238525" fill="none" stroke="rgb(155, 59, 6)" stroke-opacity="0.73636913" stroke-linecap="round" stroke-linejoin="round"/>
    <path d="M 54.78880310058594 13.082677841186523 C 140.09774780273438 24.78363037109375 153.43252563476562 36.42817306518555 130.71510314941406 7.00975227355957" stroke-width="18.1668701171875" fill="none" stroke="rgb(104, 0, 38)" stroke-opacity="0.083315276" stroke-linecap="round" stroke-linejoin="round"/>
    <path d="M 106.57829284667969 40.35978317260742 C 96.30781555175781 185.07656860351562 85.64373779296875 166.1671142578125 44.450382232666016 100.74800109863281" stroke-width="15.340316772460938" fill="none" stroke="rgb(0, 44, 15)" stroke-opacity="0.24122638" stroke-linecap="round" stroke-linejoin="round"/>
    <path d="M 219.6855926513672 122.26840209960938 C 207.37513732910156 91.37479400634766 212.9811553955078 234.73654174804688 204.1151580810547 119.69769287109375" stroke-width="2.658064603805542" fill="none" stroke="rgb(142, 85, 0)" stroke-opacity="0.48285127" stroke-linecap="round" stroke-linejoin="round"/>
    <path d="M 80.86681365966797 140.53587341308594 C -26.857906341552734 158.44248962402344 35.58445739746094 149.35572814941406 -10.223356246948242 140.9639434814453" stroke-width="26.158447265625" fill="none" stroke="rgb(0, 74, 158)" stroke-opacity="0.5175699" stroke-linecap="round" stroke-linejoin="round"/>
    <path d="M 99.00922393798828 187.1730194091797 C 21.019306182861328 199.28787231445312 11.116868019104004 191.39459228515625 43.75469970703125 177.8994598388672" stroke-width="4.5820722579956055" fill="none" stroke="rgb(43, 30, 7)" stroke-opacity="0.5014832" stroke-linecap="round" stroke-linejoin="round"/>
    <path d="M 20.958967208862305 197.07180786132812 C 175.35968017578125 136.9419708251953 176.8548583984375 191.93185424804688 5.495055675506592 228.0038299560547" stroke-width="31.039447784423828" fill="none" stroke="rgb(3, 85, 53)" stroke-opacity="0.25261286" stroke-linecap="round" stroke-linejoin="round"/>
    <path d="M 117.40169525146484 131.4666290283203 C 147.36709594726562 107.62774658203125 152.6373291015625 67.3258285522461 160.1060791015625 128.25758361816406" stroke-width="1.9819713830947876" fill="none" stroke="rgb(15, 67, 86)" stroke-opacity="0.5992774" stroke-linecap="round" stroke-linejoin="round"/>
    <path d="M 131.80137634277344 234.56459045410156 C 135.9737548828125 218.54737854003906 155.2869415283203 199.63629150390625 67.0437240600586 235.42308044433594" stroke-width="18.926973342895508" fill="none" stroke="rgb(130, 178, 11)" stroke-opacity="0.49001577" stroke-linecap="round" stroke-linejoin="round"/>
    <path d="M 161.29986572265625 60.01968002319336 C 111.97413635253906 155.8047637939453 147.0872344970703 164.54991149902344 94.2419662475586 105.60427856445312" stroke-width="29.325834274291992" fill="none" stroke="rgb(0, 31, 77)" stroke-opacity="0.32742396" stroke-linecap="round" stroke-linejoin="round"/>
    <path d="M 211.8759765625 48.896602630615234 C 150.90907287597656 31.978450775146484 149.04139709472656 25.78019142150879 170.41302490234375 26.22180938720703" stroke-width="3.004596710205078" fill="none" stroke="rgb(121, 141, 168)" stroke-opacity="0.24852608" stroke-linecap="round" stroke-linejoin="round"/>
    <path d="M 217.2422637939453 72.5170669555664 C 218.69467163085938 133.47532653808594 176.98583984375 68.32319641113281 179.90003967285156 142.24786376953125" stroke-width="13.99039077758789" fill="none" stroke="rgb(165, 35, 13)" stroke-opacity="0.59289086" stroke-linecap="round" stroke-linejoin="round"/>
    <path d="M 209.47091674804688 90.029541015625 C 199.9303436279297 62.24413299560547 181.1146697998047 139.13414001464844 167.88116455078125 46.28770446777344" stroke-width="2.7086751461029053" fill="none" stroke="rgb(40, -1, 14)" stroke-opacity="0.9595267" stroke-linecap="round" stroke-linejoin="round"/>
    <path d="M 101.75733184814453 184.38023376464844 C 76.91874694824219 221.85968017578125 71.88896942138672 133.05990600585938 175.7701416015625 128.5333709716797" stroke-width="7.015212535858154" fill="none" stroke="rgb(4, 0, 0)" stroke-opacity="0.34557235" stroke-linecap="round" stroke-linejoin="round"/>
    <path d="M 244.19715881347656 47.767215728759766 C 181.35755920410156 72.10379791259766 188.97592163085938 43.96971130371094 214.6338653564453 91.26619720458984" stroke-width="26.285388946533203" fill="none" stroke="rgb(112, 31, 0)" stroke-opacity="0.66408694" stroke-linecap="round" stroke-linejoin="round"/>
    <path d="M 2.3242685794830322 151.07635498046875 C 113.2682876586914 157.84800720214844 92.61568450927734 159.62123107910156 -6.11782169342041 180.26246643066406" stroke-width="2.2418463230133057" fill="none" stroke="rgb(2, 71, 167)" stroke-opacity="0.5977738" stroke-linecap="round" stroke-linejoin="round"/>
    <path d="M 140.85511779785156 105.86768341064453 C 92.04263305664062 112.14066314697266 131.25344848632812 64.10419464111328 128.4915771484375 96.77638244628906" stroke-width="9.900297164916992" fill="none" stroke="rgb(72, 0, 43)" stroke-opacity="0.46825314" stroke-linecap="round" stroke-linejoin="round"/>
    <path d="M 74.51937866210938 221.06541442871094 C 20.591384887695312 192.32012939453125 18.935556411743164 200.41615295410156 139.64102172851562 218.19187927246094" stroke-width="3.150786876678467" fill="none" stroke="rgb(83, 30, 0)" stroke-opacity="0.30828124" stroke-linecap="round" stroke-linejoin="round"/>
    <path d="M 125.34309387207031 210.10922241210938 C 81.3904037475586 265.194580078125 53.875762939453125 196.987548828125 35.255977630615234 222.75112915039062" stroke-width="2.630206823348999" fill="none" stroke="rgb(118, 81, 54)" stroke-opacity="0.54665595" stroke-linecap="round" stroke-linejoin="round"/>
    <path d="M 182.05825805664062 88.9437255859375 C 104.3191909790039 64.90399169921875 164.9879608154297 80.05311584472656 168.80490112304688 59.55991744995117" stroke-width="39.76039505004883" fill="none" stroke="rgb(141, 61, 0)" stroke-opacity="0.70504165" stroke-linecap="round" stroke-linejoin="round"/>
    <path d="M 24.71558380126953 205.26597595214844 C 104.86133575439453 228.29776000976562 112.00724029541016 166.7262420654297 18.34409523010254 205.28903198242188" stroke-width="7.1284871101379395" fill="none" stroke="rgb(0, 44, 201)" stroke-opacity="0.4088007" stroke-linecap="round" stroke-linejoin="round"/>
    <path d="M 93.85227966308594 93.77513122558594 C 79.81852722167969 221.44322204589844 130.5570068359375 169.90257263183594 95.37133026123047 105.4962158203125" stroke-width="15.9962158203125" fill="none" stroke="rgb(29, 22, 0)" stroke-opacity="0.6998905" stroke-linecap="round" stroke-linejoin="round"/>
    <path d="M 162.90982055664062 56.01422119140625 C 142.88365173339844 42.85224533081055 153.50181579589844 79.12139129638672 182.65371704101562 146.8256378173828" stroke-width="7.906770706176758" fill="none" stroke="rgb(14, 0, 32)" stroke-opacity="0.33392918" stroke-linecap="round" stroke-linejoin="round"/>
    <path d="M 92.01897430419922 89.5618667602539 C 129.1993408203125 214.35525512695312 101.53485107421875 190.98291015625 103.6257553100586 86.5181884765625" stroke-width="3.6627633571624756" fill="none" stroke="rgb(210, 170, 154)" stroke-opacity="0.3449101" stroke-linecap="round" stroke-linejoin="round"/>
    <path d="M 22.207599639892578 167.42762756347656 C -34.40091323852539 197.84446716308594 38.97197341918945 251.67041015625 3.399629592895508 170.88275146484375" stroke-width="7.620418071746826" fill="none" stroke="rgb(-2, 9, 66)" stroke-opacity="0.26034686" stroke-linecap="round" stroke-linejoin="round"/>
    <path d="M 196.7796630859375 59.17148208618164 C 208.51747131347656 90.09147644042969 230.25772094726562 60.66425704956055 214.39906311035156 53.433128356933594" stroke-width="13.91633415222168" fill="none" stroke="rgb(123, 40, 7)" stroke-opacity="0.67316973" stroke-linecap="round" stroke-linejoin="round"/>
    <path d="M 181.2246856689453 252.50779724121094 C 174.11386108398438 240.0380859375 172.78646850585938 220.56942749023438 220.3610382080078 170.63763427734375" stroke-width="34.121307373046875" fill="none" stroke="rgb(220, 228, 146)" stroke-opacity="0.47870436" stroke-linecap="round" stroke-linejoin="round"/>
    <path d="M 135.42356872558594 154.4835205078125 C 85.70641326904297 215.48052978515625 159.0554962158203 189.2291717529297 153.5702667236328 126.13349914550781" stroke-width="18.23134422302246" fill="none" stroke="rgb(14, 41, 113)" stroke-opacity="0.34055316" stroke-linecap="round" stroke-linejoin="round"/>
    <path d="M 99.94534301757812 142.72157287597656 C 132.3343048095703 157.4364776611328 80.44120025634766 219.7051544189453 92.59568786621094 95.90611267089844" stroke-width="4.484499454498291" fill="none" stroke="rgb(5, 9, 9)" stroke-opacity="0.6849207" stroke-linecap="round" stroke-linejoin="round"/>
    <path d="M 129.61495971679688 178.29331970214844 C 97.01764678955078 137.29603576660156 70.70053100585938 244.191162109375 119.89191436767578 163.08673095703125" stroke-width="2.776832103729248" fill="none" stroke="rgb(22, 0, 0)" stroke-opacity="0.58616596" stroke-linecap="round" stroke-linejoin="round"/>
    <path d="M 139.82077026367188 55.6269416809082 C 101.32192993164062 88.5155258178711 84.48324584960938 132.20155334472656 144.53436279296875 73.59639739990234" stroke-width="31.852081298828125" fill="none" stroke="rgb(4, 6, 12)" stroke-opacity="0.419278" stroke-linecap="round" stroke-linejoin="round"/>
    <path d="M 119.73015594482422 217.8916473388672 C -51.70217514038086 240.50051879882812 -29.877588272094727 221.01126098632812 151.9247283935547 171.5323944091797" stroke-width="11.209936141967773" fill="none" stroke="rgb(-1, 7, 112)" stroke-opacity="0.23769934" stroke-linecap="round" stroke-linejoin="round"/>
    <path d="M 107.32276153564453 231.2972869873047 C 117.2938003540039 229.21221923828125 118.57992553710938 228.80247497558594 132.22991943359375 227.5725860595703" stroke-width="2.674243211746216" fill="none" stroke="rgb(34, 35, 0)" stroke-opacity="0.8580032" stroke-linecap="round" stroke-linejoin="round"/>
    <path d="M 48.56125259399414 147.48281860351562 C 171.68263244628906 147.76133728027344 150.47019958496094 97.47319030761719 2.8243911266326904 137.1772003173828" stroke-width="3.951446533203125" fill="none" stroke="rgb(36, 37, 62)" stroke-opacity="0.41164166" stroke-linecap="round" stroke-linejoin="round"/>
    <path d="M 216.75686645507812 92.94242858886719 C 239.47088623046875 121.2399673461914 181.91302490234375 106.27011108398438 203.37049865722656 77.55486297607422" stroke-width="12.689413070678711" fill="none" stroke="rgb(75, 7, 0)" stroke-opacity="0.31500113" stroke-linecap="round" stroke-linejoin="round"/>
    <path d="M 203.8232879638672 177.51766967773438 C 147.28125 214.53189086914062 234.02392578125 276.2799987792969 251.4618682861328 225.61895751953125" stroke-width="30.164878845214844" fill="none" stroke="rgb(81, 118, 0)" stroke-opacity="0.25320917" stroke-linecap="round" stroke-linejoin="round"/>
    <path d="M 81.90323638916016 158.9335479736328 C 0.5116738080978394 163.06182861328125 15.03414535522461 176.42408752441406 1.1962499618530273 172.13868713378906" stroke-width="6.627564430236816" fill="none" stroke="rgb(2, 32, 64)" stroke-opacity="0.23028706" stroke-linecap="round" stroke-linejoin="round"/>
    <path d="M 73.92942810058594 222.08322143554688 C 158.49876403808594 159.21694946289062 78.40377044677734 212.79258728027344 179.11935424804688 220.0594024658203" stroke-width="15.022822380065918" fill="none" stroke="rgb(0, 4, 82)" stroke-opacity="0.22119412" stroke-linecap="round" stroke-linejoin="round"/>
    <path d="M 134.0950927734375 7.762994766235352 C 182.19119262695312 26.054847717285156 134.73757934570312 -18.745960235595703 233.98617553710938 1.6383007764816284" stroke-width="3.5411665439605713" fill="none" stroke="rgb(44, 76, 255)" stroke-opacity="0.67768645" stroke-linecap="round" stroke-linejoin="round"/>
    <path d="M 138.78662109375 103.3743667602539 C 186.81224060058594 151.0270233154297 150.30958557128906 140.32872009277344 228.6419219970703 172.13133239746094" stroke-width="9.579560279846191" fill="none" stroke="rgb(0, 105, 235)" stroke-opacity="0.23147254" stroke-linecap="round" stroke-linejoin="round"/>
    <path d="M 89.10679626464844 97.06222534179688 C 136.20181274414062 30.751693725585938 160.05435180664062 51.60494613647461 161.72520446777344 44.42589569091797" stroke-width="3.346604347229004" fill="none" stroke="rgb(14, -1, -1)" stroke-opacity="1.0027881" stroke-linecap="round" stroke-linejoin="round"/>
    <path d="M 163.24952697753906 154.41270446777344 C 219.1740264892578 172.24305725097656 158.76416015625 164.41119384765625 147.54286193847656 226.47335815429688" stroke-width="15.438279151916504" fill="none" stroke="rgb(2, 29, 100)" stroke-opacity="0.22431868" stroke-linecap="round" stroke-linejoin="round"/>
    <path d="M 220.0379180908203 103.2918472290039 C 200.18148803710938 182.16650390625 229.0266571044922 116.85515594482422 171.4435577392578 145.74334716796875" stroke-width="13.311923027038574" fill="none" stroke="rgb(-1, 76, 78)" stroke-opacity="0.30444053" stroke-linecap="round" stroke-linejoin="round"/>
    <path d="M 9.230829238891602 226.6470184326172 C 73.34708404541016 149.33160400390625 80.57927703857422 154.6647186279297 11.677692413330078 229.96347045898438" stroke-width="2.400306463241577" fill="none" stroke="rgb(-1, 0, 84)" stroke-opacity="0.24560371" stroke-linecap="round" stroke-linejoin="round"/>
    <path d="M 142.4783477783203 114.41035461425781 C 92.00281524658203 51.374237060546875 201.95870971679688 116.6269760131836 165.77093505859375 145.46908569335938" stroke-width="25.316896438598633" fill="none" stroke="rgb(-1, 24, 21)" stroke-opacity="0.26975235" stroke-linecap="round" stroke-linejoin="round"/>
    <path d="M 174.63084411621094 111.16365051269531 C 138.60997009277344 65.2299575805664 89.52429962158203 109.92172241210938 147.17356872558594 77.97086334228516" stroke-width="2.7800066471099854" fill="none" stroke="rgb(229, 120, 1)" stroke-opacity="0.44597405" stroke-linecap="round" stroke-linejoin="round"/>
    <path d="M 52.05136489868164 94.04856872558594 C -39.32276916503906 125.46694946289062 4.827353477478027 121.5597915649414 57.29743576049805 118.98397064208984" stroke-width="34.22227096557617" fill="none" stroke="rgb(64, 131, 191)" stroke-opacity="0.70031744" stroke-linecap="round" stroke-linejoin="round"/>
    <path d="M 131.71017456054688 15.46861743927002 C 45.33411407470703 99.6855239868164 242.02670288085938 8.457016944885254 198.71827697753906 -3.1516976356506348" stroke-width="3.307391405105591" fill="none" stroke="rgb(38, 94, 185)" stroke-opacity="0.07165599" stroke-linecap="round" stroke-linejoin="round"/>
    <path d="M 100.91569519042969 171.9418487548828 C 99.02760314941406 215.72076416015625 94.05509185791016 175.259765625 127.55238342285156 198.64100646972656" stroke-width="2.475675582885742" fill="none" stroke="rgb(5, 82, 168)" stroke-opacity="1.0017271" stroke-linecap="round" stroke-linejoin="round"/>
    <path d="M 166.5464630126953 165.42144775390625 C 85.89844512939453 241.80535888671875 124.73898315429688 226.12698364257812 202.8590850830078 185.89620971679688" stroke-width="10.186322212219238" fill="none" stroke="rgb(0, 77, 156)" stroke-opacity="0.22612227" stroke-linecap="round" stroke-linejoin="round"/>
    <path d="M 187.0376739501953 199.85809326171875 C 160.7687530517578 43.03177261352539 218.10104370117188 152.18450927734375 195.943603515625 61.272247314453125" stroke-width="9.98509693145752" fill="none" stroke="rgb(62, 23, 0)" stroke-opacity="0.4513114" stroke-linecap="round" stroke-linejoin="round"/>
    <path d="M 152.19361877441406 142.03956604003906 C 105.7767562866211 131.83111572265625 179.7766571044922 162.30337524414062 134.55577087402344 117.58529663085938" stroke-width="40.97418975830078" fill="none" stroke="rgb(54, 176, 250)" stroke-opacity="0.52083427" stroke-linecap="round" stroke-linejoin="round"/>
    <path d="M 5.668618679046631 182.67417907714844 C -43.98289108276367 153.92604064941406 -12.639070510864258 212.53089904785156 -12.15676212310791 218.40113830566406" stroke-width="3.3542282581329346" fill="none" stroke="rgb(45, 50, 94)" stroke-opacity="0.42188284" stroke-linecap="round" stroke-linejoin="round"/>
    <path d="M 207.2423095703125 86.00138854980469 C 209.44764709472656 183.6731414794922 247.58656311035156 121.25143432617188 195.67178344726562 116.52130126953125" stroke-width="23.015438079833984" fill="none" stroke="rgb(0, 19, 69)" stroke-opacity="0.2714313" stroke-linecap="round" stroke-linejoin="round"/>
    <path d="M 12.36780834197998 90.62055206298828 C 147.92239379882812 31.869199752807617 128.74269104003906 61.729427337646484 45.91166687011719 100.44282531738281" stroke-width="13.41756820678711" fill="none" stroke="rgb(182, 208, 175)" stroke-opacity="0.56679964" stroke-linecap="round" stroke-linejoin="round"/>
    <path d="M 106.08500671386719 208.5067596435547 C 114.68023681640625 228.17140197753906 108.4936294555664 225.17152404785156 158.6488037109375 223.58230590820312" stroke-width="5.220916271209717" fill="none" stroke="rgb(122, 91, -1)" stroke-opacity="0.52424985" stroke-linecap="round" stroke-linejoin="round"/>
    <path d="M 212.8137969970703 51.1902961730957 C 110.50633239746094 45.479942321777344 158.7453155517578 39.20895767211914 218.6058349609375 70.88875579833984" stroke-width="8.13233470916748" fill="none" stroke="rgb(174, 86, 80)" stroke-opacity="0.41041896" stroke-linecap="round" stroke-linejoin="round"/>
    <path d="M 134.24908447265625 24.72572898864746 C 82.69107818603516 91.77259826660156 77.61735534667969 69.0527572631836 85.28939056396484 74.13916778564453" stroke-width="10.407240867614746" fill="none" stroke="rgb(9, 73, 205)" stroke-opacity="0.28219277" stroke-linecap="round" stroke-linejoin="round"/>
    <path d="M 178.74859619140625 215.6839599609375 C 59.78652572631836 185.161865234375 105.86280059814453 183.021240234375 161.49769592285156 181.6403350830078" stroke-width="12.547704696655273" fill="none" stroke="rgb(257, 255, 13)" stroke-opacity="0.2689448" stroke-linecap="round" stroke-linejoin="round"/>
    <path d="M 160.82815551757812 103.29955291748047 C 183.33290100097656 131.01785278320312 146.8699493408203 61.85441589355469 109.48091888427734 100.38018798828125" stroke-width="9.677153587341309" fill="none" stroke="rgb(-1, 5, 17)" stroke-opacity="0.597359" stroke-linecap="round" stroke-linejoin="round"/>
    <path d="M 24.67426300048828 224.96566772460938 C 100.50850677490234 132.1264190673828 107.0463638305664 160.00572204589844 134.26669311523438 238.24969482421875" stroke-width="3.0407025814056396" fill="none" stroke="rgb(-1, 0, 79)" stroke-opacity="0.25491133" stroke-linecap="round" stroke-linejoin="round"/>
    <path d="M -9.038639068603516 139.9020538330078 C -32.796905517578125 92.87071228027344 5.412117004394531 117.38429260253906 9.665630340576172 77.69647216796875" stroke-width="17.626859664916992" fill="none" stroke="rgb(126, 160, 198)" stroke-opacity="0.58513206" stroke-linecap="round" stroke-linejoin="round"/>
    <path d="M 83.8293228149414 118.20904541015625 C 103.76184844970703 215.44921875 46.727012634277344 206.35736083984375 84.44395446777344 135.9879913330078" stroke-width="3.5148391723632812" fill="none" stroke="rgb(0, 9, 33)" stroke-opacity="0.44599733" stroke-linecap="round" stroke-linejoin="round"/>
    <path d="M -2.0126850605010986 222.71121215820312 C 29.490032196044922 186.19540405273438 33.71533966064453 149.10719299316406 91.44129180908203 174.99851989746094" stroke-width="10.885505676269531" fill="none" stroke="rgb(-2, 24, 129)" stroke-opacity="0.26220438" stroke-linecap="round" stroke-linejoin="round"/>
    <path d="M 238.3563690185547 45.47365951538086 C 192.76966857910156 74.3619155883789 161.0242919921875 37.273773193359375 224.57420349121094 90.28858947753906" stroke-width="25.669172286987305" fill="none" stroke="rgb(96, 23, 3)" stroke-opacity="0.3647854" stroke-linecap="round" stroke-linejoin="round"/>
    <path d="M 94.92172241210938 177.57223510742188 C 109.95568084716797 172.84873962402344 99.37313842773438 135.130615234375 112.29869079589844 89.14619445800781" stroke-width="20.061861038208008" fill="none" stroke="rgb(250, 91, 22)" stroke-opacity="0.30663925" stroke-linecap="round" stroke-linejoin="round"/>
    <path d="M 177.53253173828125 182.40640258789062 C 210.52841186523438 194.43333435058594 139.4111328125 99.89762115478516 227.92837524414062 152.92770385742188" stroke-width="2.996440887451172" fill="none" stroke="rgb(9, 7, 0)" stroke-opacity="0.33562514" stroke-linecap="round" stroke-linejoin="round"/>
    <path d="M 103.8454360961914 212.98004150390625 C 98.89193725585938 208.54991149902344 252.07675170898438 199.60108947753906 135.75869750976562 169.00326538085938" stroke-width="8.399017333984375" fill="none" stroke="rgb(255, 253, 76)" stroke-opacity="0.3076425" stroke-linecap="round" stroke-linejoin="round"/>
    <path d="M -17.015695571899414 141.25320434570312 C 117.72737121582031 144.7059326171875 109.67942810058594 141.2716522216797 27.58090591430664 106.46260070800781" stroke-width="4.06505012512207" fill="none" stroke="rgb(6, 55, 153)" stroke-opacity="0.36414915" stroke-linecap="round" stroke-linejoin="round"/>
    <path d="M 174.40322875976562 132.3559112548828 C 187.9279022216797 201.54519653320312 164.0846405029297 185.0270538330078 167.69873046875 193.3959503173828" stroke-width="3.3945770263671875" fill="none" stroke="rgb(3, 0, 87)" stroke-opacity="0.78144306" stroke-linecap="round" stroke-linejoin="round"/>
    <path d="M 101.67924499511719 210.91268920898438 C 114.55592346191406 243.21127319335938 120.16331481933594 199.66632080078125 91.52246856689453 211.0849151611328" stroke-width="18.7712459564209" fill="none" stroke="rgb(255, 228, -1)" stroke-opacity="0.47568983" stroke-linecap="round" stroke-linejoin="round"/>
    <path d="M 82.00971221923828 104.89407348632812 C 147.69642639160156 46.97239685058594 107.33817291259766 48.09181594848633 145.56375122070312 44.884681701660156" stroke-width="17.09482192993164" fill="none" stroke="rgb(0, 40, 81)" stroke-opacity="0.33215016" stroke-linecap="round" stroke-linejoin="round"/>
    <path d="M 141.70510864257812 42.54652786254883 C 157.26834106445312 85.59264373779297 164.2046356201172 162.43055725097656 163.47909545898438 53.57505416870117" stroke-width="9.359785079956055" fill="none" stroke="rgb(1, -1, 17)" stroke-opacity="0.35827065" stroke-linecap="round" stroke-linejoin="round"/>
    <path d="M 118.0820083618164 103.8265380859375 C 134.86097717285156 43.58372116088867 177.70257568359375 47.996681213378906 159.20248413085938 94.2507095336914" stroke-width="3.1669411659240723" fill="none" stroke="rgb(56, 33, 28)" stroke-opacity="0.9049076" stroke-linecap="round" stroke-linejoin="round"/>
    <path d="M 53.35346603393555 160.87501525878906 C -26.577842712402344 132.33050537109375 66.84408569335938 93.20521545410156 171.89794921875 162.57098388671875" stroke-width="16.697219848632812" fill="none" stroke="rgb(9, 27, 21)" stroke-opacity="0.12851581" stroke-linecap="round" stroke-linejoin="round"/>
    <path d="M 128.40716552734375 110.44529724121094 C 131.54286193847656 207.54078674316406 81.89540100097656 172.36111450195312 174.28575134277344 158.747314453125" stroke-width="10.134305000305176" fill="none" stroke="rgb(0, 121, 216)" stroke-opacity="0.39379916" stroke-linecap="round" stroke-linejoin="round"/>
    <path d="M 52.77347183227539 183.35365295410156 C -73.21490478515625 190.29611206054688 -61.4412841796875 168.048583984375 93.98284912109375 153.75128173828125" stroke-width="7.108679294586182" fill="none" stroke="rgb(-2, 11, 0)" stroke-opacity="0.30419204" stroke-linecap="round" stroke-linejoin="round"/>
    <path d="M 53.879364013671875 122.23796844482422 C 108.75129699707031 27.846494674682617 17.116188049316406 68.09618377685547 75.38489532470703 131.44419860839844" stroke-width="12.258638381958008" fill="none" stroke="rgb(94, 159, 204)" stroke-opacity="0.6120352" stroke-linecap="round" stroke-linejoin="round"/>
    <path d="M 94.97339630126953 131.3328857421875 C 91.92031860351562 137.6800537109375 111.61382293701172 53.591365814208984 144.4480743408203 77.28596496582031" stroke-width="11.303579330444336" fill="none" stroke="rgb(0, 0, 10)" stroke-opacity="0.48156267" stroke-linecap="round" stroke-linejoin="round"/>
    <path d="M -9.32593059539795 214.13876342773438 C -1.0470441579818726 142.04347229003906 -15.464405059814453 180.4181671142578 -7.102806091308594 236.6665496826172" stroke-width="7.125070571899414" fill="none" stroke="rgb(146, 189, 186)" stroke-opacity="0.8361317" stroke-linecap="round" stroke-linejoin="round"/>
    <path d="M 229.76028442382812 -2.5786287784576416 C 90.19281005859375 10.912152290344238 169.37730407714844 3.870709180831909 261.74749755859375 3.908668279647827" stroke-width="13.380419731140137" fill="none" stroke="rgb(93, 112, 0)" stroke-opacity="0.38834608" stroke-linecap="round" stroke-linejoin="round"/>
    <path d="M 144.17405700683594 60.9288444519043 C 147.0850830078125 33.45567321777344 198.8241729736328 62.71318817138672 176.38278198242188 44.40810012817383" stroke-width="3.032029628753662" fill="none" stroke="rgb(139, 57, 58)" stroke-opacity="0.564943" stroke-linecap="round" stroke-linejoin="round"/>
    <path d="M 177.26109313964844 96.20431518554688 C 164.7421417236328 161.23953247070312 188.8958740234375 144.83084106445312 112.31395721435547 111.49954986572266" stroke-width="12.45140266418457" fill="none" stroke="rgb(0, 0, 22)" stroke-opacity="0.14437339" stroke-linecap="round" stroke-linejoin="round"/>
    <path d="M 110.3843002319336 89.65693664550781 C 104.5094985961914 113.71741485595703 109.35538482666016 125.1201171875 158.03990173339844 76.23189544677734" stroke-width="2.331611394882202" fill="none" stroke="rgb(47, 17, 0)" stroke-opacity="0.5033983" stroke-linecap="round" stroke-linejoin="round"/>
    <path d="M 124.24601745605469 94.40716552734375 C 119.97171783447266 151.36244201660156 97.3023910522461 98.68754577636719 125.73403930664062 76.06878662109375" stroke-width="14.036320686340332" fill="none" stroke="rgb(124, 55, 39)" stroke-opacity="0.49586332" stroke-linecap="round" stroke-linejoin="round"/>
    <path d="M 31.323078155517578 93.96728515625 C 67.69750213623047 8.47127628326416 77.61521911621094 95.3003158569336 108.37881469726562 24.95254898071289" stroke-width="9.243350982666016" fill="none" stroke="rgb(15, 34, 184)" stroke-opacity="0.27405182" stroke-linecap="round" stroke-linejoin="round"/>
    <path d="M 157.0642852783203 135.1738739013672 C 163.96531677246094 151.532470703125 158.85946655273438 139.9522247314453 133.55938720703125 133.29150390625" stroke-width="11.897673606872559" fill="none" stroke="rgb(-1, 71, 184)" stroke-opacity="0.28099844" stroke-linecap="round" stroke-linejoin="round"/>
    <path d="M 116.42095184326172 110.66683197021484 C 175.64730834960938 31.629566192626953 139.20375061035156 58.31150436401367 101.25384521484375 134.36187744140625" stroke-width="17.34013557434082" fill="none" stroke="rgb(130, 37, 3)" stroke-opacity="0.34017077" stroke-linecap="round" stroke-linejoin="round"/>
    <path d="M 186.43551635742188 72.87650299072266 C 175.8645477294922 1.9967752695083618 161.80770874023438 75.32975006103516 187.44139099121094 83.2035140991211" stroke-width="4.896904468536377" fill="none" stroke="rgb(30, 0, 21)" stroke-opacity="0.32756922" stroke-linecap="round" stroke-linejoin="round"/>
    <path d="M 129.95616149902344 223.4630584716797 C 143.5311737060547 245.3619842529297 230.29905700683594 163.37876892089844 115.52686309814453 180.0450897216797" stroke-width="25.440523147583008" fill="none" stroke="rgb(255, 255, 125)" stroke-opacity="0.25388926" stroke-linecap="round" stroke-linejoin="round"/>
    <path d="M 183.37353515625 145.3502197265625 C 177.58041381835938 95.95121002197266 184.50991821289062 168.3199462890625 209.71533203125 99.81076049804688" stroke-width="17.321596145629883" fill="none" stroke="rgb(5, 14, 5)" stroke-opacity="0.22288981" stroke-linecap="round" stroke-linejoin="round"/>
    <path d="M 148.68626403808594 67.03471374511719 C 82.26849365234375 132.15228271484375 83.2816162109375 176.64154052734375 127.65900421142578 98.59622192382812" stroke-width="2.264676332473755" fill="none" stroke="rgb(218, 134, 60)" stroke-opacity="0.14655478" stroke-linecap="round" stroke-linejoin="round"/>
    <path d="M 14.593049049377441 134.310791015625 C 6.033102989196777 130.3328094482422 28.67807960510254 168.61363220214844 51.22792434692383 119.74494171142578" stroke-width="17.309490203857422" fill="none" stroke="rgb(0, 54, 132)" stroke-opacity="0.15675631" stroke-linecap="round" stroke-linejoin="round"/>
    <path d="M -28.77229118347168 164.88165283203125 C 48.900848388671875 177.43304443359375 107.65804290771484 154.8578643798828 39.634037017822266 142.02593994140625" stroke-width="22.10856056213379" fill="none" stroke="rgb(0, 78, 204)" stroke-opacity="0.28804463" stroke-linecap="round" stroke-linejoin="round"/>
    <path d="M 146.36654663085938 26.917865753173828 C 86.62541961669922 76.02847290039062 46.045143127441406 -29.434600830078125 158.95425415039062 6.932645320892334" stroke-width="27.5531005859375" fill="none" stroke="rgb(153, 203, 203)" stroke-opacity="0.50732803" stroke-linecap="round" stroke-linejoin="round"/>
    <path d="M 99.19761657714844 -21.38332748413086 C 26.081621170043945 -5.074075698852539 -68.94286346435547 -1.3943231105804443 62.11856460571289 -0.5613342523574829" stroke-width="20.3741455078125" fill="none" stroke="rgb(17, 70, 33)" stroke-opacity="0.8759885" stroke-linecap="round" stroke-linejoin="round"/>
    <path d="M 76.73150634765625 -7.368370056152344 C 72.7104263305664 -4.70121955871582 76.80517578125 -7.759607791900635 81.4366455078125 -12.019247055053711" stroke-width="2.0" fill="none" stroke="rgb(26, 26, 0)" stroke-opacity="0.8968534" stroke-linecap="round" stroke-linejoin="round"/>
    <path d="M 170.23550415039062 174.57969665527344 C 157.63006591796875 164.70436096191406 149.06143188476562 222.19403076171875 107.41175842285156 163.73020935058594" stroke-width="23.90932846069336" fill="none" stroke="rgb(-2, 59, 54)" stroke-opacity="0.16902356" stroke-linecap="round" stroke-linejoin="round"/>
    <path d="M 83.53192138671875 185.9427947998047 C 61.32594299316406 246.55015563964844 162.9378662109375 236.78857421875 105.04145050048828 186.17127990722656" stroke-width="13.720266342163086" fill="none" stroke="rgb(0, 46, 196)" stroke-opacity="0.2307164" stroke-linecap="round" stroke-linejoin="round"/>
    <path d="M 194.3541259765625 104.13180541992188 C 219.00311279296875 20.95718002319336 229.89154052734375 139.1046142578125 237.39083862304688 102.69640350341797" stroke-width="28.116920471191406" fill="none" stroke="rgb(25, 20, 0)" stroke-opacity="0.1739553" stroke-linecap="round" stroke-linejoin="round"/>
    <path d="M -6.595465183258057 71.17477416992188 C 94.01888275146484 82.91480255126953 158.36997985839844 -4.489505290985107 13.105550765991211 28.950519561767578" stroke-width="56.610469818115234" fill="none" stroke="rgb(113, 158, 200)" stroke-opacity="0.64628184" stroke-linecap="round" stroke-linejoin="round"/>
    <path d="M 132.76156616210938 -17.290424346923828 C 86.2253189086914 20.611177444458008 119.86257934570312 13.549365997314453 217.82989501953125 9.193387031555176" stroke-width="7.757744789123535" fill="none" stroke="rgb(55, 22, 159)" stroke-opacity="0.079944916" stroke-linecap="round" stroke-linejoin="round"/>
    <path d="M 187.02236938476562 73.24739074707031 C 178.80862426757812 25.216541290283203 265.42718505859375 36.159847259521484 241.03135681152344 52.5959587097168" stroke-width="15.862250328063965" fill="none" stroke="rgb(12, 0, 4)" stroke-opacity="0.054224607" stroke-linecap="round" stroke-linejoin="round"/>
    <path d="M 109.21102142333984 78.8714599609375 C 196.07237243652344 -1.2258886098861694 148.99400329589844 75.00309753417969 192.56146240234375 99.68788146972656" stroke-width="9.827879905700684" fill="none" stroke="rgb(0, 2, 10)" stroke-opacity="0.28300378" stroke-linecap="round" stroke-linejoin="round"/>
    <path d="M 16.31458854675293 215.45401000976562 C 38.151981353759766 227.7989959716797 84.64704132080078 210.01576232910156 91.13978576660156 246.94979858398438" stroke-width="26.767784118652344" fill="none" stroke="rgb(63, 60, 0)" stroke-opacity="0.2899205" stroke-linecap="round" stroke-linejoin="round"/>
    <path d="M 136.94119262695312 114.68660736083984 C 102.36190032958984 161.9812774658203 71.35739135742188 23.913896560668945 95.13053131103516 118.1976089477539" stroke-width="14.018414497375488" fill="none" stroke="rgb(1, 3, 8)" stroke-opacity="0.090445116" stroke-linecap="round" stroke-linejoin="round"/>
    <path d="M 213.24005126953125 160.07464599609375 C 119.28289794921875 122.12593078613281 177.08128356933594 165.90090942382812 139.76361083984375 223.8501739501953" stroke-width="11.201329231262207" fill="none" stroke="rgb(-1, 36, 87)" stroke-opacity="0.12070638" stroke-linecap="round" stroke-linejoin="round"/>
    <path d="M 216.21397399902344 219.8888397216797 C 181.44265747070312 200.65341186523438 280.7850036621094 155.35780334472656 181.572509765625 201.13821411132812" stroke-width="2.778181552886963" fill="none" stroke="rgb(1, 87, 214)" stroke-opacity="0.1984473" stroke-linecap="round" stroke-linejoin="round"/>
    <path d="M 107.66766357421875 171.6890869140625 C 116.2842788696289 200.20748901367188 31.099037170410156 234.6890869140625 91.15080261230469 191.64303588867188" stroke-width="5.631117820739746" fill="none" stroke="rgb(0, 46, 110)" stroke-opacity="0.28731453" stroke-linecap="round" stroke-linejoin="round"/>
    <path d="M 89.4104232788086 2.4500088691711426 C -18.204559326171875 -25.24658966064453 124.71019744873047 82.47139739990234 7.915315628051758 69.5381851196289" stroke-width="26.02225112915039" fill="none" stroke="rgb(153, 184, 206)" stroke-opacity="0.32413137" stroke-linecap="round" stroke-linejoin="round"/>
    <path d="M 173.5274658203125 58.88849639892578 C 160.50479125976562 93.0076675415039 173.00735473632812 108.91520690917969 227.36058044433594 107.62281036376953" stroke-width="2.931718349456787" fill="none" stroke="rgb(0, 11, 50)" stroke-opacity="0.40225497" stroke-linecap="round" stroke-linejoin="round"/>
    <path d="M 92.5604248046875 191.2047119140625 C 75.76407623291016 212.1682586669922 89.75879669189453 153.1670379638672 25.3681583404541 152.37953186035156" stroke-width="3.572481155395508" fill="none" stroke="rgb(0, 15, 58)" stroke-opacity="0.16764237" stroke-linecap="round" stroke-linejoin="round"/>
  </g>
</svg>
