<?xml version="1.0" ?>
<svg xmlns="http://www.w3.org/2000/svg" version="1.1" width="224" height="224">
  <defs/>
  <g>
    <path d="M 227.85597229003906 182.31521606445312 C 221.64913940429688 190.4756317138672 222.3366241455078 115.99833679199219 229.64976501464844 103.39013671875" stroke-width="3.0" fill="none" stroke="rgb(0, 0, 0)" stroke-opacity="1" stroke-linecap="round" stroke-linejoin="round"/>
    <path d="M 95.61854553222656 227.16526794433594 C 147.91758728027344 226.68505859375 111.5899429321289 230.31869506835938 84.94473266601562 230.24676513671875" stroke-width="3.0" fill="none" stroke="rgb(0, 0, 0)" stroke-opacity="1" stroke-linecap="round" stroke-linejoin="round"/>
    <path d="M 227.90248107910156 51.203643798828125 C 225.05291748046875 52.6731071472168 228.10708618164062 54.48902130126953 231.65625 53.17023849487305" stroke-width="3.0" fill="none" stroke="rgb(0, 0, 0)" stroke-opacity="1" stroke-linecap="round" stroke-linejoin="round"/>
    <path d="M 37.77593231201172 201.49952697753906 C 86.58558654785156 222.9300994873047 -14.427906036376953 201.0396728515625 39.24163055419922 208.35543823242188" stroke-width="3.0" fill="none" stroke="rgb(0, 0, 0)" stroke-opacity="1" stroke-linecap="round" stroke-linejoin="round"/>
    <path d="M 207.52528381347656 179.07534790039062 C 228.57870483398438 143.7819061279297 219.17462158203125 149.0637664794922 229.77943420410156 187.31166076660156" stroke-width="3.0" fill="none" stroke="rgb(0, 0, 0)" stroke-opacity="1" stroke-linecap="round" stroke-linejoin="round"/>
    <path d="M 16.909751892089844 197.41322326660156 C 12.799417495727539 204.21066284179688 49.13972854614258 209.8086700439453 47.05492401123047 195.18130493164062" stroke-width="3.0" fill="none" stroke="rgb(0, 0, 0)" stroke-opacity="1" stroke-linecap="round" stroke-linejoin="round"/>
    <path d="M 201.79783630371094 230.10806274414062 C 207.08570861816406 226.02545166015625 197.92172241210938 226.49502563476562 203.75637817382812 235.72360229492188" stroke-width="3.0" fill="none" stroke="rgb(0, 0, 0)" stroke-opacity="1" stroke-linecap="round" stroke-linejoin="round"/>
    <path d="M 226.94142150878906 37.30413055419922 C 224.29232788085938 36.75852966308594 230.58790588378906 31.606887817382812 235.4811248779297 31.727783203125" stroke-width="3.0" fill="none" stroke="rgb(0, 0, 0)" stroke-opacity="1" stroke-linecap="round" stroke-linejoin="round"/>
    <path d="M 194.56996154785156 178.23849487304688 C 192.7506866455078 126.19001007080078 216.3338623046875 218.9896240234375 213.0350341796875 150.61843872070312" stroke-width="3.0" fill="none" stroke="rgb(0, 0, 0)" stroke-opacity="1" stroke-linecap="round" stroke-linejoin="round"/>
    <path d="M 200.07025146484375 20.835845947265625 C 166.17681884765625 17.63806915283203 154.2543182373047 51.5369758605957 184.81678771972656 21.276561737060547" stroke-width="3.0" fill="none" stroke="rgb(0, 0, 0)" stroke-opacity="1" stroke-linecap="round" stroke-linejoin="round"/>
    <path d="M 116.35542297363281 56.731101989746094 C 168.8929443359375 60.27425765991211 159.9171142578125 55.3810920715332 170.73480224609375 26.8778133392334" stroke-width="3.0" fill="none" stroke="rgb(0, 0, 0)" stroke-opacity="1" stroke-linecap="round" stroke-linejoin="round"/>
    <path d="M 87.60569763183594 22.22126579284668 C 44.10905075073242 31.196577072143555 82.92774200439453 41.1577033996582 68.51581573486328 37.101165771484375" stroke-width="3.0" fill="none" stroke="rgb(0, 0, 0)" stroke-opacity="1" stroke-linecap="round" stroke-linejoin="round"/>
    <path d="M 49.18516159057617 84.18281555175781 C 48.72832489013672 81.42927551269531 48.620269775390625 87.88468933105469 47.8258171081543 85.88145446777344" stroke-width="3.0" fill="none" stroke="rgb(0, 0, 0)" stroke-opacity="1" stroke-linecap="round" stroke-linejoin="round"/>
    <path d="M 15.11278247833252 177.22242736816406 C 40.025569915771484 134.9966583251953 36.86210632324219 178.46339416503906 11.017415046691895 171.94664001464844" stroke-width="3.0" fill="none" stroke="rgb(0, 0, 0)" stroke-opacity="1" stroke-linecap="round" stroke-linejoin="round"/>
    <path d="M 191.8616180419922 156.33218383789062 C 188.49981689453125 217.63172912597656 187.6114501953125 132.98036193847656 177.44024658203125 166.5994415283203" stroke-width="3.0" fill="none" stroke="rgb(0, 0, 0)" stroke-opacity="1" stroke-linecap="round" stroke-linejoin="round"/>
    <path d="M 28.11709976196289 201.16221618652344 C 1.6531579494476318 241.00205993652344 23.030994415283203 210.4676513671875 12.041053771972656 198.0927734375" stroke-width="3.0" fill="none" stroke="rgb(0, 0, 0)" stroke-opacity="1" stroke-linecap="round" stroke-linejoin="round"/>
    <path d="M 49.136722564697266 88.37809753417969 C 44.87710952758789 86.93721008300781 47.64690017700195 84.7181625366211 48.188934326171875 87.48834228515625" stroke-width="3.0" fill="none" stroke="rgb(0, 0, 0)" stroke-opacity="1" stroke-linecap="round" stroke-linejoin="round"/>
    <path d="M 125.2237777709961 232.14132690429688 C 159.8205108642578 222.0367889404297 119.39136505126953 233.63694763183594 115.02863311767578 227.32101440429688" stroke-width="3.0" fill="none" stroke="rgb(0, 0, 0)" stroke-opacity="1" stroke-linecap="round" stroke-linejoin="round"/>
    <path d="M 49.0970573425293 87.41595458984375 C 51.921539306640625 78.12461853027344 50.70956039428711 81.7641830444336 49.683502197265625 84.2249984741211" stroke-width="3.0" fill="none" stroke="rgb(0, 0, 0)" stroke-opacity="1" stroke-linecap="round" stroke-linejoin="round"/>
    <path d="M 140.92071533203125 -3.829200506210327 C 144.02645874023438 -4.786897659301758 139.63668823242188 -4.275723457336426 146.25013732910156 -10.915785789489746" stroke-width="3.0" fill="none" stroke="rgb(0, 0, 0)" stroke-opacity="1" stroke-linecap="round" stroke-linejoin="round"/>
    <path d="M 16.60223960876465 165.5790557861328 C 264.51702880859375 162.11569213867188 278.16790771484375 164.32070922851562 14.413431167602539 174.03427124023438" stroke-width="3.0" fill="none" stroke="rgb(0, 0, 0)" stroke-opacity="1" stroke-linecap="round" stroke-linejoin="round"/>
    <path d="M 229.73927307128906 20.077165603637695 C 225.37376403808594 34.22450256347656 223.2509765625 25.27191925048828 230.08236694335938 23.765817642211914" stroke-width="3.0" fill="none" stroke="rgb(0, 0, 0)" stroke-opacity="1" stroke-linecap="round" stroke-linejoin="round"/>
    <path d="M 227.69044494628906 43.59429931640625 C 231.98069763183594 59.1161994934082 238.5875244140625 54.76264953613281 230.5489959716797 46.027042388916016" stroke-width="3.0" fill="none" stroke="rgb(0, 0, 0)" stroke-opacity="1" stroke-linecap="round" stroke-linejoin="round"/>
    <path d="M 209.43772888183594 23.6732234954834 C 218.47198486328125 36.35977554321289 213.919189453125 20.717510223388672 188.619384765625 19.62577247619629" stroke-width="3.0" fill="none" stroke="rgb(0, 0, 0)" stroke-opacity="1" stroke-linecap="round" stroke-linejoin="round"/>
    <path d="M 18.949748992919922 184.81356811523438 C 20.511789321899414 133.76126098632812 3.0565879344940186 218.1767578125 4.277580738067627 167.8219451904297" stroke-width="3.0" fill="none" stroke="rgb(0, 0, 0)" stroke-opacity="1" stroke-linecap="round" stroke-linejoin="round"/>
    <path d="M 191.63848876953125 19.564321517944336 C 147.80397033691406 22.54683494567871 190.7473602294922 8.317183494567871 226.9259796142578 29.986326217651367" stroke-width="3.0" fill="none" stroke="rgb(0, 0, 0)" stroke-opacity="1" stroke-linecap="round" stroke-linejoin="round"/>
    <path d="M 48.367061614990234 87.36983489990234 C 47.642860412597656 80.50330352783203 53.92710876464844 79.41726684570312 49.65200424194336 83.3193588256836" stroke-width="3.0" fill="none" stroke="rgb(0, 0, 0)" stroke-opacity="1" stroke-linecap="round" stroke-linejoin="round"/>
    <path d="M 75.74952697753906 229.45567321777344 C 125.86497497558594 224.19773864746094 109.26873016357422 244.25025939941406 70.1766586303711 227.95724487304688" stroke-width="3.0" fill="none" stroke="rgb(0, 0, 0)" stroke-opacity="1" stroke-linecap="round" stroke-linejoin="round"/>
    <path d="M 81.95526885986328 28.789581298828125 C 163.10983276367188 39.66120910644531 140.3206329345703 31.204967498779297 86.90604400634766 37.61227035522461" stroke-width="3.0" fill="none" stroke="rgb(0, 0, 0)" stroke-opacity="1" stroke-linecap="round" stroke-linejoin="round"/>
    <path d="M 23.242225646972656 199.0858612060547 C 21.703405380249023 265.48828125 -0.41050219535827637 216.81378173828125 13.498414039611816 203.5277099609375" stroke-width="3.0" fill="none" stroke="rgb(0, 0, 0)" stroke-opacity="1" stroke-linecap="round" stroke-linejoin="round"/>
    <path d="M 204.02333068847656 19.384742736816406 C 135.8098907470703 13.525497436523438 102.936279296875 20.84625816345215 157.65731811523438 17.6610164642334" stroke-width="3.0" fill="none" stroke="rgb(0, 0, 0)" stroke-opacity="1" stroke-linecap="round" stroke-linejoin="round"/>
    <path d="M 227.6988983154297 33.318111419677734 C 233.50546264648438 26.94404411315918 216.7071990966797 24.122241973876953 230.54672241210938 27.37818145751953" stroke-width="3.0" fill="none" stroke="rgb(0, 0, 0)" stroke-opacity="1" stroke-linecap="round" stroke-linejoin="round"/>
    <path d="M -2.100083589553833 203.49029541015625 C 28.084688186645508 210.08360290527344 -6.49772834777832 203.61976623535156 11.52592945098877 167.25225830078125" stroke-width="3.0" fill="none" stroke="rgb(0, 0, 0)" stroke-opacity="1" stroke-linecap="round" stroke-linejoin="round"/>
    <path d="M 39.82101058959961 161.20411682128906 C 40.6027946472168 193.84738159179688 -38.33732223510742 165.09840393066406 135.35694885253906 166.94793701171875" stroke-width="3.0" fill="none" stroke="rgb(0, 0, 0)" stroke-opacity="1" stroke-linecap="round" stroke-linejoin="round"/>
    <path d="M 68.23291015625 27.20220375061035 C 66.63177490234375 32.92116165161133 84.89488983154297 18.24920082092285 39.1102294921875 27.835412979125977" stroke-width="3.0" fill="none" stroke="rgb(0, 0, 0)" stroke-opacity="1" stroke-linecap="round" stroke-linejoin="round"/>
    <path d="M 25.0806884765625 224.26710510253906 C -27.67840576171875 198.98928833007812 41.74615478515625 209.92247009277344 3.196258783340454 213.4945068359375" stroke-width="3.0" fill="none" stroke="rgb(0, 0, 0)" stroke-opacity="1" stroke-linecap="round" stroke-linejoin="round"/>
    <path d="M 22.64594268798828 227.29148864746094 C 33.233882904052734 233.57786560058594 31.94667625427246 223.53163146972656 32.925025939941406 239.2758026123047" stroke-width="3.0" fill="none" stroke="rgb(0, 0, 0)" stroke-opacity="1" stroke-linecap="round" stroke-linejoin="round"/>
    <path d="M 186.80145263671875 157.74229431152344 C 214.67889404296875 197.99462890625 218.3504180908203 118.2164535522461 197.7222900390625 182.0703887939453" stroke-width="3.0" fill="none" stroke="rgb(0, 0, 0)" stroke-opacity="1" stroke-linecap="round" stroke-linejoin="round"/>
    <path d="M 138.6477508544922 36.34675979614258 C 116.5348129272461 41.34823226928711 144.69094848632812 32.33211898803711 99.81696319580078 28.66419792175293" stroke-width="3.0" fill="none" stroke="rgb(0, 0, 0)" stroke-opacity="1" stroke-linecap="round" stroke-linejoin="round"/>
    <path d="M -3.3844141960144043 99.93368530273438 C -6.9143524169921875 95.32909393310547 -4.294496059417725 102.49211120605469 -5.2465901374816895 98.52102661132812" stroke-width="3.0" fill="none" stroke="rgb(0, 0, 0)" stroke-opacity="1" stroke-linecap="round" stroke-linejoin="round"/>
    <path d="M 65.33381652832031 30.60107421875 C 96.98358917236328 47.50593566894531 70.87835693359375 45.255165100097656 107.14539337158203 36.944236755371094" stroke-width="3.0" fill="none" stroke="rgb(0, 0, 0)" stroke-opacity="1" stroke-linecap="round" stroke-linejoin="round"/>
    <path d="M 79.75898742675781 26.97660255432129 C 53.88313674926758 19.298927307128906 61.6566162109375 32.564247131347656 89.30937957763672 23.993040084838867" stroke-width="3.0" fill="none" stroke="rgb(0, 0, 0)" stroke-opacity="1" stroke-linecap="round" stroke-linejoin="round"/>
    <path d="M 35.05645751953125 216.0064239501953 C 14.194199562072754 188.22348022460938 -47.087459564208984 212.5358428955078 54.348941802978516 214.02703857421875" stroke-width="3.0" fill="none" stroke="rgb(0, 0, 0)" stroke-opacity="1" stroke-linecap="round" stroke-linejoin="round"/>
    <path d="M 68.54239654541016 169.25811767578125 C 264.02642822265625 177.71058654785156 257.6543273925781 165.65211486816406 85.51004791259766 161.08116149902344" stroke-width="3.0" fill="none" stroke="rgb(0, 0, 0)" stroke-opacity="1" stroke-linecap="round" stroke-linejoin="round"/>
    <path d="M 18.159807205200195 43.86029052734375 C 11.8804292678833 60.04085922241211 12.247475624084473 56.46728515625 15.783319473266602 46.13737106323242" stroke-width="3.0" fill="none" stroke="rgb(0, 0, 0)" stroke-opacity="1" stroke-linecap="round" stroke-linejoin="round"/>
    <path d="M 185.25669860839844 21.193090438842773 C 185.8685302734375 14.814279556274414 203.4140167236328 25.425518035888672 125.97118377685547 19.42363166809082" stroke-width="3.0" fill="none" stroke="rgb(0, 0, 0)" stroke-opacity="1" stroke-linecap="round" stroke-linejoin="round"/>
    <path d="M 235.0559844970703 25.648296356201172 C 200.79269409179688 27.669288635253906 199.4396209716797 18.946521759033203 234.2680206298828 28.765018463134766" stroke-width="3.0" fill="none" stroke="rgb(0, 0, 0)" stroke-opacity="1" stroke-linecap="round" stroke-linejoin="round"/>
    <path d="M -17.672996520996094 101.37295532226562 C -9.023812294006348 101.71719360351562 -8.664929389953613 106.19237518310547 -4.211734294891357 101.67911529541016" stroke-width="3.0" fill="none" stroke="rgb(0, 0, 0)" stroke-opacity="1" stroke-linecap="round" stroke-linejoin="round"/>
    <path d="M 145.2694854736328 165.83139038085938 C 193.36129760742188 184.3325958251953 231.09100341796875 134.65707397460938 170.6186065673828 175.41253662109375" stroke-width="3.0" fill="none" stroke="rgb(0, 0, 0)" stroke-opacity="1" stroke-linecap="round" stroke-linejoin="round"/>
    <path d="M 142.52139282226562 57.5997200012207 C 169.3678741455078 53.47187805175781 165.93646240234375 37.874053955078125 179.2963409423828 16.638368606567383" stroke-width="3.0" fill="none" stroke="rgb(0, 0, 0)" stroke-opacity="1" stroke-linecap="round" stroke-linejoin="round"/>
    <path d="M 47.117759704589844 89.3119888305664 C 44.91340637207031 85.5145034790039 43.973838806152344 90.00601196289062 49.556339263916016 86.81668090820312" stroke-width="3.0" fill="none" stroke="rgb(0, 0, 0)" stroke-opacity="1" stroke-linecap="round" stroke-linejoin="round"/>
    <path d="M 15.003090858459473 53.576541900634766 C 13.29108715057373 55.23981857299805 13.720643043518066 52.820404052734375 15.76030158996582 49.9630126953125" stroke-width="3.0" fill="none" stroke="rgb(0, 0, 0)" stroke-opacity="1" stroke-linecap="round" stroke-linejoin="round"/>
    <path d="M 35.415042877197266 19.09543800354004 C 113.65740203857422 9.041546821594238 106.47469329833984 19.546918869018555 185.6032257080078 18.481117248535156" stroke-width="3.0" fill="none" stroke="rgb(0, 0, 0)" stroke-opacity="1" stroke-linecap="round" stroke-linejoin="round"/>
    <path d="M 119.65811920166016 24.701566696166992 C 42.07078552246094 63.10630798339844 110.0240249633789 18.19585418701172 26.282419204711914 19.00371742248535" stroke-width="3.0" fill="none" stroke="rgb(0, 0, 0)" stroke-opacity="1" stroke-linecap="round" stroke-linejoin="round"/>
    <path d="M 20.80592918395996 158.9438018798828 C 19.8904972076416 171.4173583984375 41.926483154296875 175.06385803222656 57.06084060668945 161.13819885253906" stroke-width="3.0" fill="none" stroke="rgb(0, 0, 0)" stroke-opacity="1" stroke-linecap="round" stroke-linejoin="round"/>
    <path d="M 13.335872650146484 52.263912200927734 C 12.366374969482422 52.35176086425781 13.30746841430664 58.08491134643555 14.220890998840332 49.87437057495117" stroke-width="3.0" fill="none" stroke="rgb(0, 0, 0)" stroke-opacity="1" stroke-linecap="round" stroke-linejoin="round"/>
    <path d="M 48.67631149291992 84.95097351074219 C 54.5797004699707 76.10295104980469 48.863494873046875 84.37616729736328 49.1839714050293 89.39071655273438" stroke-width="3.0" fill="none" stroke="rgb(0, 0, 0)" stroke-opacity="1" stroke-linecap="round" stroke-linejoin="round"/>
    <path d="M 215.47866821289062 182.9654541015625 C 220.71409606933594 158.7019805908203 218.27072143554688 148.05160522460938 232.8490753173828 140.32273864746094" stroke-width="3.0" fill="none" stroke="rgb(0, 0, 0)" stroke-opacity="1" stroke-linecap="round" stroke-linejoin="round"/>
    <path d="M 46.86555099487305 86.42494201660156 C 48.74168395996094 83.0227279663086 47.541603088378906 80.5588150024414 47.995296478271484 83.52554321289062" stroke-width="3.0" fill="none" stroke="rgb(0, 0, 0)" stroke-opacity="1" stroke-linecap="round" stroke-linejoin="round"/>
    <path d="M 3.8216392993927 209.2825164794922 C 7.729787349700928 174.1096954345703 -2.7903218269348145 231.38143920898438 14.375123023986816 249.3937530517578" stroke-width="3.0" fill="none" stroke="rgb(0, 0, 0)" stroke-opacity="1" stroke-linecap="round" stroke-linejoin="round"/>
    <path d="M 205.84800720214844 25.295122146606445 C 238.20579528808594 35.763790130615234 230.40415954589844 23.37166976928711 238.59156799316406 28.263832092285156" stroke-width="3.0" fill="none" stroke="rgb(0, 0, 0)" stroke-opacity="1" stroke-linecap="round" stroke-linejoin="round"/>
    <path d="M 49.354576110839844 83.67597961425781 C 49.266170501708984 84.93234252929688 48.9744873046875 86.0650634765625 48.276947021484375 85.78189086914062" stroke-width="3.0" fill="none" stroke="rgb(0, 0, 0)" stroke-opacity="1" stroke-linecap="round" stroke-linejoin="round"/>
    <path d="M 88.32833862304688 230.0940704345703 C 60.8421745300293 239.8153533935547 57.20209884643555 228.42694091796875 58.20460510253906 230.85574340820312" stroke-width="3.0" fill="none" stroke="rgb(0, 0, 0)" stroke-opacity="1" stroke-linecap="round" stroke-linejoin="round"/>
    <path d="M 70.73954010009766 -6.5328688621521 C 63.00978088378906 -3.143411874771118 61.14653778076172 -2.452913522720337 56.25834274291992 -6.605719566345215" stroke-width="3.0" fill="none" stroke="rgb(0, 0, 0)" stroke-opacity="1" stroke-linecap="round" stroke-linejoin="round"/>
  </g>
</svg>
