<?xml version="1.0" ?>
<svg xmlns="http://www.w3.org/2000/svg" xmlns:ev="http://www.w3.org/2001/xml-events" xmlns:xlink="http://www.w3.org/1999/xlink" baseProfile="full" height="224" version="1.1" viewBox="0 0 224 224" width="224">
	<defs/>
	<path d="M 165.2010955810547,125.7099838256836 C 140.29095458984375,113.07292175292969 151.86618041992188,108.10680389404297 149.99826049804688,129.94778442382812" fill="none" stroke="rgb(0, 0, 0)" stroke-linecap="round" stroke-linejoin="round" stroke-opacity="1" stroke-width="3.0"/>
	<path d="M 41.63729476928711,61.87828063964844 C 40.0464973449707,48.001220703125 38.29319763183594,48.7480354309082 39.66751480102539,46.990272521972656" fill="none" stroke="rgb(0, 0, 0)" stroke-linecap="round" stroke-linejoin="round" stroke-opacity="1" stroke-width="3.0"/>
	<path d="M 136.2772979736328,138.3023681640625 C 120.09918212890625,84.70821380615234 140.98402404785156,120.38520050048828 137.169189453125,137.6565399169922" fill="none" stroke="rgb(0, 0, 0)" stroke-linecap="round" stroke-linejoin="round" stroke-opacity="1" stroke-width="3.0"/>
	<path d="M 76.05497741699219,85.8223876953125 C 85.5140380859375,123.53934478759766 72.9747314453125,55.42639923095703 93.19168853759766,97.1267318725586" fill="none" stroke="rgb(0, 0, 0)" stroke-linecap="round" stroke-linejoin="round" stroke-opacity="1" stroke-width="3.0"/>
	<path d="M 79.3418197631836,53.7982292175293 C 89.50690460205078,77.4669189453125 94.04569244384766,51.276187896728516 113.20479583740234,69.31441497802734" fill="none" stroke="rgb(0, 0, 0)" stroke-linecap="round" stroke-linejoin="round" stroke-opacity="1" stroke-width="3.0"/>
	<path d="M 97.04834747314453,189.39852905273438 C 96.1049575805664,177.37835693359375 96.09637451171875,165.276123046875 90.3333511352539,182.5519561767578" fill="none" stroke="rgb(0, 0, 0)" stroke-linecap="round" stroke-linejoin="round" stroke-opacity="1" stroke-width="3.0"/>
	<path d="M 40.01189422607422,64.31050872802734 C 37.794097900390625,77.22335815429688 74.34944152832031,71.22127532958984 64.86801147460938,78.689208984375" fill="none" stroke="rgb(0, 0, 0)" stroke-linecap="round" stroke-linejoin="round" stroke-opacity="1" stroke-width="3.0"/>
	<path d="M 132.49754333496094,91.87733459472656 C 134.44281005859375,107.89584350585938 149.49530029296875,124.87950897216797 132.7144012451172,81.35671997070312" fill="none" stroke="rgb(0, 0, 0)" stroke-linecap="round" stroke-linejoin="round" stroke-opacity="1" stroke-width="3.0"/>
	<path d="M 52.67313003540039,178.7657012939453 C 42.184967041015625,175.4198760986328 57.93819808959961,141.10203552246094 52.75799560546875,175.33059692382812" fill="none" stroke="rgb(0, 0, 0)" stroke-linecap="round" stroke-linejoin="round" stroke-opacity="1" stroke-width="3.0"/>
	<path d="M 52.71415710449219,117.42102813720703 C 56.10525131225586,139.65716552734375 50.26721954345703,166.43597412109375 45.85185241699219,131.9047088623047" fill="none" stroke="rgb(0, 0, 0)" stroke-linecap="round" stroke-linejoin="round" stroke-opacity="1" stroke-width="3.0"/>
	<path d="M 58.593955993652344,97.80839538574219 C 50.888999938964844,138.5137481689453 64.91851806640625,128.2963104248047 61.82115173339844,173.7113037109375" fill="none" stroke="rgb(0, 0, 0)" stroke-linecap="round" stroke-linejoin="round" stroke-opacity="1" stroke-width="3.0"/>
	<path d="M 75.49434661865234,152.69601440429688 C 79.29025268554688,111.10536193847656 76.97306823730469,137.69996643066406 83.54364013671875,91.06473541259766" fill="none" stroke="rgb(0, 0, 0)" stroke-linecap="round" stroke-linejoin="round" stroke-opacity="1" stroke-width="3.0"/>
	<path d="M 61.255802154541016,110.48613739013672 C 69.45475006103516,163.0108184814453 69.58065032958984,175.7467498779297 65.85295104980469,102.99800109863281" fill="none" stroke="rgb(0, 0, 0)" stroke-linecap="round" stroke-linejoin="round" stroke-opacity="1" stroke-width="3.0"/>
	<path d="M 99.54656219482422,86.69242095947266 C 93.35704040527344,54.76591110229492 99.3282241821289,61.380104064941406 96.61767578125,62.502620697021484" fill="none" stroke="rgb(0, 0, 0)" stroke-linecap="round" stroke-linejoin="round" stroke-opacity="1" stroke-width="3.0"/>
	<path d="M 39.02079772949219,62.80501937866211 C 36.40264129638672,84.07361602783203 60.06261444091797,64.928466796875 62.456939697265625,88.05236053466797" fill="none" stroke="rgb(0, 0, 0)" stroke-linecap="round" stroke-linejoin="round" stroke-opacity="1" stroke-width="3.0"/>
	<path d="M 76.49015045166016,173.82835388183594 C 90.4404067993164,136.68341064453125 68.33573150634766,139.95225524902344 59.406009674072266,103.45829772949219" fill="none" stroke="rgb(0, 0, 0)" stroke-linecap="round" stroke-linejoin="round" stroke-opacity="1" stroke-width="3.0"/>
	<path d="M 150.6837615966797,59.83545684814453 C 142.95343017578125,84.73224639892578 159.49703979492188,79.06109619140625 145.82298278808594,38.836936950683594" fill="none" stroke="rgb(0, 0, 0)" stroke-linecap="round" stroke-linejoin="round" stroke-opacity="1" stroke-width="3.0"/>
	<path d="M 97.32770538330078,97.8299331665039 C 87.72956848144531,112.66085815429688 120.40170288085938,92.66969299316406 105.8437271118164,122.47894287109375" fill="none" stroke="rgb(0, 0, 0)" stroke-linecap="round" stroke-linejoin="round" stroke-opacity="1" stroke-width="3.0"/>
	<path d="M 65.3841323852539,185.76791381835938 C 78.9384536743164,116.27490234375 73.95668029785156,144.8347930908203 56.77899932861328,181.585205078125" fill="none" stroke="rgb(0, 0, 0)" stroke-linecap="round" stroke-linejoin="round" stroke-opacity="1" stroke-width="3.0"/>
	<path d="M 161.64988708496094,89.55657958984375 C 166.75286865234375,178.7710418701172 180.45977783203125,145.78622436523438 172.43292236328125,90.05908203125" fill="none" stroke="rgb(0, 0, 0)" stroke-linecap="round" stroke-linejoin="round" stroke-opacity="1" stroke-width="3.0"/>
	<path d="M 122.04336547851562,84.06401824951172 C 176.934326171875,71.08307647705078 128.60850524902344,78.59030151367188 117.34645080566406,69.59891510009766" fill="none" stroke="rgb(0, 0, 0)" stroke-linecap="round" stroke-linejoin="round" stroke-opacity="1" stroke-width="3.0"/>
	<path d="M 46.33460998535156,126.46316528320312 C 48.77674865722656,147.01844787597656 60.62812423706055,158.97998046875 55.16188049316406,182.69886779785156" fill="none" stroke="rgb(0, 0, 0)" stroke-linecap="round" stroke-linejoin="round" stroke-opacity="1" stroke-width="3.0"/>
	<path d="M 48.26213836669922,127.00201416015625 C 61.443336486816406,95.79254913330078 56.35821533203125,78.95427703857422 44.21697998046875,118.19461822509766" fill="none" stroke="rgb(0, 0, 0)" stroke-linecap="round" stroke-linejoin="round" stroke-opacity="1" stroke-width="3.0"/>
	<path d="M 55.75342559814453,79.5233154296875 C 78.19390106201172,114.30414581298828 56.29288101196289,73.32423400878906 78.66593170166016,137.71986389160156" fill="none" stroke="rgb(0, 0, 0)" stroke-linecap="round" stroke-linejoin="round" stroke-opacity="1" stroke-width="3.0"/>
	<path d="M 151.24000549316406,60.67273712158203 C 148.83522033691406,63.80729293823242 141.80108642578125,44.45638656616211 148.1441650390625,33.48794937133789" fill="none" stroke="rgb(0, 0, 0)" stroke-linecap="round" stroke-linejoin="round" stroke-opacity="1" stroke-width="3.0"/>
	<path d="M 111.2754898071289,100.06893920898438 C 110.20235443115234,82.78968048095703 116.54044342041016,107.61714935302734 107.8176498413086,72.94050598144531" fill="none" stroke="rgb(0, 0, 0)" stroke-linecap="round" stroke-linejoin="round" stroke-opacity="1" stroke-width="3.0"/>
	<path d="M 58.780181884765625,63.003562927246094 C 114.2984619140625,60.08028030395508 89.83824920654297,54.30474853515625 88.12578582763672,67.0134048461914" fill="none" stroke="rgb(0, 0, 0)" stroke-linecap="round" stroke-linejoin="round" stroke-opacity="1" stroke-width="3.0"/>
	<path d="M 117.60690307617188,79.05974578857422 C 133.55978393554688,114.76692199707031 124.27046203613281,69.17491912841797 121.05619049072266,94.3172836303711" fill="none" stroke="rgb(0, 0, 0)" stroke-linecap="round" stroke-linejoin="round" stroke-opacity="1" stroke-width="3.0"/>
	<path d="M 52.23731994628906,82.50763702392578 C 53.192779541015625,105.70217895507812 39.68569564819336,109.3761978149414 52.30543518066406,78.5470199584961" fill="none" stroke="rgb(0, 0, 0)" stroke-linecap="round" stroke-linejoin="round" stroke-opacity="1" stroke-width="3.0"/>
	<path d="M 53.563629150390625,86.0129165649414 C 59.96601867675781,104.05780029296875 43.332969665527344,110.43724060058594 53.2100830078125,132.07135009765625" fill="none" stroke="rgb(0, 0, 0)" stroke-linecap="round" stroke-linejoin="round" stroke-opacity="1" stroke-width="3.0"/>
	<path d="M 32.741539001464844,29.543519973754883 C 39.05939483642578,36.718482971191406 42.987937927246094,35.85431671142578 43.996620178222656,73.4581298828125" fill="none" stroke="rgb(0, 0, 0)" stroke-linecap="round" stroke-linejoin="round" stroke-opacity="1" stroke-width="3.0"/>
	<path d="M 147.2774200439453,52.68335723876953 C 141.58377075195312,46.74888610839844 163.54075622558594,83.51433563232422 117.97933197021484,79.30259704589844" fill="none" stroke="rgb(0, 0, 0)" stroke-linecap="round" stroke-linejoin="round" stroke-opacity="1" stroke-width="3.0"/>
	<path d="M 131.0029296875,112.5748291015625 C 127.24457550048828,99.40388488769531 111.62017059326172,104.04615783691406 129.19244384765625,117.38043212890625" fill="none" stroke="rgb(0, 0, 0)" stroke-linecap="round" stroke-linejoin="round" stroke-opacity="1" stroke-width="3.0"/>
	<path d="M 151.33251953125,77.60078430175781 C 180.00283813476562,78.68820190429688 181.82130432128906,108.16716766357422 173.84591674804688,125.5948257446289" fill="none" stroke="rgb(0, 0, 0)" stroke-linecap="round" stroke-linejoin="round" stroke-opacity="1" stroke-width="3.0"/>
	<path d="M 80.6600341796875,113.60829162597656 C 73.0506820678711,79.75973510742188 71.61685943603516,86.73136138916016 74.2557601928711,65.84520721435547" fill="none" stroke="rgb(0, 0, 0)" stroke-linecap="round" stroke-linejoin="round" stroke-opacity="1" stroke-width="3.0"/>
	<path d="M 53.16056442260742,144.00022888183594 C 54.18718719482422,122.08282470703125 43.50539016723633,128.2372589111328 48.27141189575195,101.7844467163086" fill="none" stroke="rgb(0, 0, 0)" stroke-linecap="round" stroke-linejoin="round" stroke-opacity="1" stroke-width="3.0"/>
	<path d="M 124.5345458984375,103.05121612548828 C 120.59367370605469,124.71465301513672 129.12913513183594,118.41062927246094 125.78177642822266,104.01921081542969" fill="none" stroke="rgb(0, 0, 0)" stroke-linecap="round" stroke-linejoin="round" stroke-opacity="1" stroke-width="3.0"/>
	<path d="M 162.89199829101562,137.386474609375 C 145.2284393310547,104.7651138305664 157.5665283203125,108.33238983154297 134.4643096923828,81.76342010498047" fill="none" stroke="rgb(0, 0, 0)" stroke-linecap="round" stroke-linejoin="round" stroke-opacity="1" stroke-width="3.0"/>
	<path d="M 39.685237884521484,39.57843780517578 C 34.11387634277344,74.98851776123047 45.93169021606445,81.558349609375 40.799591064453125,45.38673782348633" fill="none" stroke="rgb(0, 0, 0)" stroke-linecap="round" stroke-linejoin="round" stroke-opacity="1" stroke-width="3.0"/>
	<path d="M 59.4005126953125,186.0668487548828 C 68.76834106445312,159.64193725585938 54.249534606933594,196.10601806640625 84.4147720336914,155.35232543945312" fill="none" stroke="rgb(0, 0, 0)" stroke-linecap="round" stroke-linejoin="round" stroke-opacity="1" stroke-width="3.0"/>
	<path d="M 84.7913818359375,175.50877380371094 C 75.36872100830078,97.9190444946289 88.40084075927734,128.8690185546875 84.87300872802734,92.39160919189453" fill="none" stroke="rgb(0, 0, 0)" stroke-linecap="round" stroke-linejoin="round" stroke-opacity="1" stroke-width="3.0"/>
	<path d="M 169.9351043701172,169.23500061035156 C 166.8427734375,71.1651840209961 165.27174377441406,102.00537109375 151.2154998779297,81.40901184082031" fill="none" stroke="rgb(0, 0, 0)" stroke-linecap="round" stroke-linejoin="round" stroke-opacity="1" stroke-width="3.0"/>
	<path d="M 94.34025573730469,124.85614013671875 C 78.12468719482422,102.80622100830078 67.2353286743164,96.67411804199219 90.61994171142578,124.12895202636719" fill="none" stroke="rgb(0, 0, 0)" stroke-linecap="round" stroke-linejoin="round" stroke-opacity="1" stroke-width="3.0"/>
	<path d="M 116.52839660644531,71.73403930664062 C 132.2623291015625,98.94679260253906 138.6277313232422,90.24494934082031 116.5000991821289,70.73794555664062" fill="none" stroke="rgb(0, 0, 0)" stroke-linecap="round" stroke-linejoin="round" stroke-opacity="1" stroke-width="3.0"/>
	<path d="M 64.80363464355469,158.1015167236328 C 60.15467071533203,121.14450073242188 59.85688781738281,130.22528076171875 58.36387252807617,100.79862976074219" fill="none" stroke="rgb(0, 0, 0)" stroke-linecap="round" stroke-linejoin="round" stroke-opacity="1" stroke-width="3.0"/>
	<path d="M 62.99237060546875,56.12727355957031 C 102.3067398071289,54.88758850097656 74.53228759765625,61.024681091308594 62.35112380981445,59.60531234741211" fill="none" stroke="rgb(0, 0, 0)" stroke-linecap="round" stroke-linejoin="round" stroke-opacity="1" stroke-width="3.0"/>
	<path d="M 117.21223449707031,125.0549087524414 C 118.46969604492188,139.20140075683594 116.68143463134766,136.56166076660156 119.00596618652344,113.2231216430664" fill="none" stroke="rgb(0, 0, 0)" stroke-linecap="round" stroke-linejoin="round" stroke-opacity="1" stroke-width="3.0"/>
	<path d="M 104.64128875732422,194.41868591308594 C 104.89823150634766,181.04815673828125 133.64947509765625,173.09010314941406 115.35193634033203,122.91234588623047" fill="none" stroke="rgb(0, 0, 0)" stroke-linecap="round" stroke-linejoin="round" stroke-opacity="1" stroke-width="3.0"/>
	<path d="M 140.9408416748047,105.82872772216797 C 157.6646728515625,153.74896240234375 136.8966064453125,111.08538055419922 150.0912628173828,131.861083984375" fill="none" stroke="rgb(0, 0, 0)" stroke-linecap="round" stroke-linejoin="round" stroke-opacity="1" stroke-width="3.0"/>
	<path d="M 81.65040588378906,69.18706512451172 C 87.41387176513672,123.71904754638672 103.34074401855469,107.13676452636719 78.10137176513672,81.76500701904297" fill="none" stroke="rgb(0, 0, 0)" stroke-linecap="round" stroke-linejoin="round" stroke-opacity="1" stroke-width="3.0"/>
	<path d="M 75.19103240966797,178.69775390625 C 73.13689422607422,97.19136810302734 64.5916748046875,74.17256927490234 72.67586517333984,181.40396118164062" fill="none" stroke="rgb(0, 0, 0)" stroke-linecap="round" stroke-linejoin="round" stroke-opacity="1" stroke-width="3.0"/>
	<path d="M 94.60176849365234,80.85763549804688 C 86.61305236816406,54.047157287597656 108.50035095214844,52.786136627197266 107.75517272949219,98.76229858398438" fill="none" stroke="rgb(0, 0, 0)" stroke-linecap="round" stroke-linejoin="round" stroke-opacity="1" stroke-width="3.0"/>
	<path d="M 52.478515625,74.21614074707031 C 81.8378677368164,65.86708068847656 70.18390655517578,55.03023910522461 64.7745361328125,93.95233154296875" fill="none" stroke="rgb(0, 0, 0)" stroke-linecap="round" stroke-linejoin="round" stroke-opacity="1" stroke-width="3.0"/>
	<path d="M 59.717254638671875,138.23568725585938 C 57.73036575317383,194.4036865234375 52.3167724609375,202.47312927246094 50.490909576416016,144.40457153320312" fill="none" stroke="rgb(0, 0, 0)" stroke-linecap="round" stroke-linejoin="round" stroke-opacity="1" stroke-width="3.0"/>
	<path d="M 49.79118347167969,139.0095672607422 C 38.7404670715332,90.54349517822266 45.924522399902344,111.28461456298828 51.85375213623047,85.10965728759766" fill="none" stroke="rgb(0, 0, 0)" stroke-linecap="round" stroke-linejoin="round" stroke-opacity="1" stroke-width="3.0"/>
	<path d="M 27.14876365661621,27.317230224609375 C 48.51727294921875,35.19691848754883 27.938737869262695,69.67742919921875 49.776702880859375,69.35325622558594" fill="none" stroke="rgb(0, 0, 0)" stroke-linecap="round" stroke-linejoin="round" stroke-opacity="1" stroke-width="3.0"/>
	<path d="M 158.33766174316406,101.35832977294922 C 169.4164581298828,197.0255126953125 174.84405517578125,206.29701232910156 173.14952087402344,106.5322036743164" fill="none" stroke="rgb(0, 0, 0)" stroke-linecap="round" stroke-linejoin="round" stroke-opacity="1" stroke-width="3.0"/>
	<path d="M 68.04521179199219,74.41856384277344 C 45.04697036743164,60.51905822753906 87.7856216430664,122.4148941040039 62.41453552246094,75.00502014160156" fill="none" stroke="rgb(0, 0, 0)" stroke-linecap="round" stroke-linejoin="round" stroke-opacity="1" stroke-width="3.0"/>
	<path d="M 93.31619262695312,108.82500457763672 C 77.37853240966797,107.57614135742188 105.05029296875,129.77215576171875 105.83792877197266,111.35610961914062" fill="none" stroke="rgb(0, 0, 0)" stroke-linecap="round" stroke-linejoin="round" stroke-opacity="1" stroke-width="3.0"/>
	<path d="M 172.8389129638672,125.94398498535156 C 147.8875274658203,163.74940490722656 172.72714233398438,144.30453491210938 159.08843994140625,182.78253173828125" fill="none" stroke="rgb(0, 0, 0)" stroke-linecap="round" stroke-linejoin="round" stroke-opacity="1" stroke-width="3.0"/>
	<path d="M 113.18671417236328,187.56358337402344 C 148.5955352783203,109.57093048095703 109.08573150634766,109.806884765625 127.7416000366211,127.83899688720703" fill="none" stroke="rgb(0, 0, 0)" stroke-linecap="round" stroke-linejoin="round" stroke-opacity="1" stroke-width="3.0"/>
	<path d="M 105.53730773925781,103.5640869140625 C 93.34268951416016,82.08448791503906 109.72880554199219,94.94441223144531 97.32730865478516,60.2952766418457" fill="none" stroke="rgb(0, 0, 0)" stroke-linecap="round" stroke-linejoin="round" stroke-opacity="1" stroke-width="3.0"/>
	<path d="M 98.17469024658203,123.22171783447266 C 65.21221923828125,116.36446380615234 97.18756866455078,136.444091796875 107.34382629394531,116.47758483886719" fill="none" stroke="rgb(0, 0, 0)" stroke-linecap="round" stroke-linejoin="round" stroke-opacity="1" stroke-width="3.0"/>
	<path d="M 81.32725524902344,178.01255798339844 C 94.53506469726562,156.11318969726562 75.72309875488281,200.92495727539062 91.98988342285156,132.90609741210938" fill="none" stroke="rgb(0, 0, 0)" stroke-linecap="round" stroke-linejoin="round" stroke-opacity="1" stroke-width="3.0"/>
	<path d="M 227.85597229003906,182.31521606445312 C 221.64913940429688,190.4756317138672 222.3366241455078,115.99833679199219 229.64976501464844,103.39013671875" fill="none" stroke="rgb(0, 0, 0)" stroke-linecap="round" stroke-linejoin="round" stroke-opacity="1" stroke-width="3.0"/>
	<path d="M 95.61854553222656,227.16526794433594 C 147.91758728027344,226.68505859375 111.5899429321289,230.31869506835938 84.94473266601562,230.24676513671875" fill="none" stroke="rgb(0, 0, 0)" stroke-linecap="round" stroke-linejoin="round" stroke-opacity="1" stroke-width="3.0"/>
	<path d="M 227.90248107910156,51.203643798828125 C 225.05291748046875,52.6731071472168 228.10708618164062,54.48902130126953 231.65625,53.17023849487305" fill="none" stroke="rgb(0, 0, 0)" stroke-linecap="round" stroke-linejoin="round" stroke-opacity="1" stroke-width="3.0"/>
	<path d="M 37.77593231201172,201.49952697753906 C 86.58558654785156,222.9300994873047 -14.427906036376953,201.0396728515625 39.24163055419922,208.35543823242188" fill="none" stroke="rgb(0, 0, 0)" stroke-linecap="round" stroke-linejoin="round" stroke-opacity="1" stroke-width="3.0"/>
	<path d="M 207.52528381347656,179.07534790039062 C 228.57870483398438,143.7819061279297 219.17462158203125,149.0637664794922 229.77943420410156,187.31166076660156" fill="none" stroke="rgb(0, 0, 0)" stroke-linecap="round" stroke-linejoin="round" stroke-opacity="1" stroke-width="3.0"/>
	<path d="M 16.909751892089844,197.41322326660156 C 12.799417495727539,204.21066284179688 49.13972854614258,209.8086700439453 47.05492401123047,195.18130493164062" fill="none" stroke="rgb(0, 0, 0)" stroke-linecap="round" stroke-linejoin="round" stroke-opacity="1" stroke-width="3.0"/>
	<path d="M 201.79783630371094,230.10806274414062 C 207.08570861816406,226.02545166015625 197.92172241210938,226.49502563476562 203.75637817382812,235.72360229492188" fill="none" stroke="rgb(0, 0, 0)" stroke-linecap="round" stroke-linejoin="round" stroke-opacity="1" stroke-width="3.0"/>
	<path d="M 226.94142150878906,37.30413055419922 C 224.29232788085938,36.75852966308594 230.58790588378906,31.606887817382812 235.4811248779297,31.727783203125" fill="none" stroke="rgb(0, 0, 0)" stroke-linecap="round" stroke-linejoin="round" stroke-opacity="1" stroke-width="3.0"/>
	<path d="M 194.56996154785156,178.23849487304688 C 192.7506866455078,126.19001007080078 216.3338623046875,218.9896240234375 213.0350341796875,150.61843872070312" fill="none" stroke="rgb(0, 0, 0)" stroke-linecap="round" stroke-linejoin="round" stroke-opacity="1" stroke-width="3.0"/>
	<path d="M 200.07025146484375,20.835845947265625 C 166.17681884765625,17.63806915283203 154.2543182373047,51.5369758605957 184.81678771972656,21.276561737060547" fill="none" stroke="rgb(0, 0, 0)" stroke-linecap="round" stroke-linejoin="round" stroke-opacity="1" stroke-width="3.0"/>
	<path d="M 116.35542297363281,56.731101989746094 C 168.8929443359375,60.27425765991211 159.9171142578125,55.3810920715332 170.73480224609375,26.8778133392334" fill="none" stroke="rgb(0, 0, 0)" stroke-linecap="round" stroke-linejoin="round" stroke-opacity="1" stroke-width="3.0"/>
	<path d="M 87.60569763183594,22.22126579284668 C 44.10905075073242,31.196577072143555 82.92774200439453,41.1577033996582 68.51581573486328,37.101165771484375" fill="none" stroke="rgb(0, 0, 0)" stroke-linecap="round" stroke-linejoin="round" stroke-opacity="1" stroke-width="3.0"/>
	<path d="M 49.18516159057617,84.18281555175781 C 48.72832489013672,81.42927551269531 48.620269775390625,87.88468933105469 47.8258171081543,85.88145446777344" fill="none" stroke="rgb(0, 0, 0)" stroke-linecap="round" stroke-linejoin="round" stroke-opacity="1" stroke-width="3.0"/>
	<path d="M 15.11278247833252,177.22242736816406 C 40.025569915771484,134.9966583251953 36.86210632324219,178.46339416503906 11.017415046691895,171.94664001464844" fill="none" stroke="rgb(0, 0, 0)" stroke-linecap="round" stroke-linejoin="round" stroke-opacity="1" stroke-width="3.0"/>
	<path d="M 191.8616180419922,156.33218383789062 C 188.49981689453125,217.63172912597656 187.6114501953125,132.98036193847656 177.44024658203125,166.5994415283203" fill="none" stroke="rgb(0, 0, 0)" stroke-linecap="round" stroke-linejoin="round" stroke-opacity="1" stroke-width="3.0"/>
	<path d="M 28.11709976196289,201.16221618652344 C 1.6531579494476318,241.00205993652344 23.030994415283203,210.4676513671875 12.041053771972656,198.0927734375" fill="none" stroke="rgb(0, 0, 0)" stroke-linecap="round" stroke-linejoin="round" stroke-opacity="1" stroke-width="3.0"/>
	<path d="M 49.136722564697266,88.37809753417969 C 44.87710952758789,86.93721008300781 47.64690017700195,84.7181625366211 48.188934326171875,87.48834228515625" fill="none" stroke="rgb(0, 0, 0)" stroke-linecap="round" stroke-linejoin="round" stroke-opacity="1" stroke-width="3.0"/>
	<path d="M 125.2237777709961,232.14132690429688 C 159.8205108642578,222.0367889404297 119.39136505126953,233.63694763183594 115.02863311767578,227.32101440429688" fill="none" stroke="rgb(0, 0, 0)" stroke-linecap="round" stroke-linejoin="round" stroke-opacity="1" stroke-width="3.0"/>
	<path d="M 49.0970573425293,87.41595458984375 C 51.921539306640625,78.12461853027344 50.70956039428711,81.7641830444336 49.683502197265625,84.2249984741211" fill="none" stroke="rgb(0, 0, 0)" stroke-linecap="round" stroke-linejoin="round" stroke-opacity="1" stroke-width="3.0"/>
	<path d="M 140.92071533203125,-3.829200506210327 C 144.02645874023438,-4.786897659301758 139.63668823242188,-4.275723457336426 146.25013732910156,-10.915785789489746" fill="none" stroke="rgb(0, 0, 0)" stroke-linecap="round" stroke-linejoin="round" stroke-opacity="1" stroke-width="3.0"/>
	<path d="M 16.60223960876465,165.5790557861328 C 264.51702880859375,162.11569213867188 278.16790771484375,164.32070922851562 14.413431167602539,174.03427124023438" fill="none" stroke="rgb(0, 0, 0)" stroke-linecap="round" stroke-linejoin="round" stroke-opacity="1" stroke-width="3.0"/>
	<path d="M 229.73927307128906,20.077165603637695 C 225.37376403808594,34.22450256347656 223.2509765625,25.27191925048828 230.08236694335938,23.765817642211914" fill="none" stroke="rgb(0, 0, 0)" stroke-linecap="round" stroke-linejoin="round" stroke-opacity="1" stroke-width="3.0"/>
	<path d="M 227.69044494628906,43.59429931640625 C 231.98069763183594,59.1161994934082 238.5875244140625,54.76264953613281 230.5489959716797,46.027042388916016" fill="none" stroke="rgb(0, 0, 0)" stroke-linecap="round" stroke-linejoin="round" stroke-opacity="1" stroke-width="3.0"/>
	<path d="M 209.43772888183594,23.6732234954834 C 218.47198486328125,36.35977554321289 213.919189453125,20.717510223388672 188.619384765625,19.62577247619629" fill="none" stroke="rgb(0, 0, 0)" stroke-linecap="round" stroke-linejoin="round" stroke-opacity="1" stroke-width="3.0"/>
	<path d="M 18.949748992919922,184.81356811523438 C 20.511789321899414,133.76126098632812 3.0565879344940186,218.1767578125 4.277580738067627,167.8219451904297" fill="none" stroke="rgb(0, 0, 0)" stroke-linecap="round" stroke-linejoin="round" stroke-opacity="1" stroke-width="3.0"/>
	<path d="M 191.63848876953125,19.564321517944336 C 147.80397033691406,22.54683494567871 190.7473602294922,8.317183494567871 226.9259796142578,29.986326217651367" fill="none" stroke="rgb(0, 0, 0)" stroke-linecap="round" stroke-linejoin="round" stroke-opacity="1" stroke-width="3.0"/>
	<path d="M 48.367061614990234,87.36983489990234 C 47.642860412597656,80.50330352783203 53.92710876464844,79.41726684570312 49.65200424194336,83.3193588256836" fill="none" stroke="rgb(0, 0, 0)" stroke-linecap="round" stroke-linejoin="round" stroke-opacity="1" stroke-width="3.0"/>
	<path d="M 75.74952697753906,229.45567321777344 C 125.86497497558594,224.19773864746094 109.26873016357422,244.25025939941406 70.1766586303711,227.95724487304688" fill="none" stroke="rgb(0, 0, 0)" stroke-linecap="round" stroke-linejoin="round" stroke-opacity="1" stroke-width="3.0"/>
	<path d="M 81.95526885986328,28.789581298828125 C 163.10983276367188,39.66120910644531 140.3206329345703,31.204967498779297 86.90604400634766,37.61227035522461" fill="none" stroke="rgb(0, 0, 0)" stroke-linecap="round" stroke-linejoin="round" stroke-opacity="1" stroke-width="3.0"/>
	<path d="M 23.242225646972656,199.0858612060547 C 21.703405380249023,265.48828125 -0.41050219535827637,216.81378173828125 13.498414039611816,203.5277099609375" fill="none" stroke="rgb(0, 0, 0)" stroke-linecap="round" stroke-linejoin="round" stroke-opacity="1" stroke-width="3.0"/>
	<path d="M 204.02333068847656,19.384742736816406 C 135.8098907470703,13.525497436523438 102.936279296875,20.84625816345215 157.65731811523438,17.6610164642334" fill="none" stroke="rgb(0, 0, 0)" stroke-linecap="round" stroke-linejoin="round" stroke-opacity="1" stroke-width="3.0"/>
	<path d="M 227.6988983154297,33.318111419677734 C 233.50546264648438,26.94404411315918 216.7071990966797,24.122241973876953 230.54672241210938,27.37818145751953" fill="none" stroke="rgb(0, 0, 0)" stroke-linecap="round" stroke-linejoin="round" stroke-opacity="1" stroke-width="3.0"/>
	<path d="M -2.100083589553833,203.49029541015625 C 28.084688186645508,210.08360290527344 -6.49772834777832,203.61976623535156 11.52592945098877,167.25225830078125" fill="none" stroke="rgb(0, 0, 0)" stroke-linecap="round" stroke-linejoin="round" stroke-opacity="1" stroke-width="3.0"/>
	<path d="M 39.82101058959961,161.20411682128906 C 40.6027946472168,193.84738159179688 -38.33732223510742,165.09840393066406 135.35694885253906,166.94793701171875" fill="none" stroke="rgb(0, 0, 0)" stroke-linecap="round" stroke-linejoin="round" stroke-opacity="1" stroke-width="3.0"/>
	<path d="M 68.23291015625,27.20220375061035 C 66.63177490234375,32.92116165161133 84.89488983154297,18.24920082092285 39.1102294921875,27.835412979125977" fill="none" stroke="rgb(0, 0, 0)" stroke-linecap="round" stroke-linejoin="round" stroke-opacity="1" stroke-width="3.0"/>
	<path d="M 25.0806884765625,224.26710510253906 C -27.67840576171875,198.98928833007812 41.74615478515625,209.92247009277344 3.196258783340454,213.4945068359375" fill="none" stroke="rgb(0, 0, 0)" stroke-linecap="round" stroke-linejoin="round" stroke-opacity="1" stroke-width="3.0"/>
	<path d="M 22.64594268798828,227.29148864746094 C 33.233882904052734,233.57786560058594 31.94667625427246,223.53163146972656 32.925025939941406,239.2758026123047" fill="none" stroke="rgb(0, 0, 0)" stroke-linecap="round" stroke-linejoin="round" stroke-opacity="1" stroke-width="3.0"/>
	<path d="M 186.80145263671875,157.74229431152344 C 214.67889404296875,197.99462890625 218.3504180908203,118.2164535522461 197.7222900390625,182.0703887939453" fill="none" stroke="rgb(0, 0, 0)" stroke-linecap="round" stroke-linejoin="round" stroke-opacity="1" stroke-width="3.0"/>
	<path d="M 138.6477508544922,36.34675979614258 C 116.5348129272461,41.34823226928711 144.69094848632812,32.33211898803711 99.81696319580078,28.66419792175293" fill="none" stroke="rgb(0, 0, 0)" stroke-linecap="round" stroke-linejoin="round" stroke-opacity="1" stroke-width="3.0"/>
	<path d="M -3.3844141960144043,99.93368530273438 C -6.9143524169921875,95.32909393310547 -4.294496059417725,102.49211120605469 -5.2465901374816895,98.52102661132812" fill="none" stroke="rgb(0, 0, 0)" stroke-linecap="round" stroke-linejoin="round" stroke-opacity="1" stroke-width="3.0"/>
	<path d="M 65.33381652832031,30.60107421875 C 96.98358917236328,47.50593566894531 70.87835693359375,45.255165100097656 107.14539337158203,36.944236755371094" fill="none" stroke="rgb(0, 0, 0)" stroke-linecap="round" stroke-linejoin="round" stroke-opacity="1" stroke-width="3.0"/>
	<path d="M 79.75898742675781,26.97660255432129 C 53.88313674926758,19.298927307128906 61.6566162109375,32.564247131347656 89.30937957763672,23.993040084838867" fill="none" stroke="rgb(0, 0, 0)" stroke-linecap="round" stroke-linejoin="round" stroke-opacity="1" stroke-width="3.0"/>
	<path d="M 35.05645751953125,216.0064239501953 C 14.194199562072754,188.22348022460938 -47.087459564208984,212.5358428955078 54.348941802978516,214.02703857421875" fill="none" stroke="rgb(0, 0, 0)" stroke-linecap="round" stroke-linejoin="round" stroke-opacity="1" stroke-width="3.0"/>
	<path d="M 68.54239654541016,169.25811767578125 C 264.02642822265625,177.71058654785156 257.6543273925781,165.65211486816406 85.51004791259766,161.08116149902344" fill="none" stroke="rgb(0, 0, 0)" stroke-linecap="round" stroke-linejoin="round" stroke-opacity="1" stroke-width="3.0"/>
	<path d="M 18.159807205200195,43.86029052734375 C 11.8804292678833,60.04085922241211 12.247475624084473,56.46728515625 15.783319473266602,46.13737106323242" fill="none" stroke="rgb(0, 0, 0)" stroke-linecap="round" stroke-linejoin="round" stroke-opacity="1" stroke-width="3.0"/>
	<path d="M 185.25669860839844,21.193090438842773 C 185.8685302734375,14.814279556274414 203.4140167236328,25.425518035888672 125.97118377685547,19.42363166809082" fill="none" stroke="rgb(0, 0, 0)" stroke-linecap="round" stroke-linejoin="round" stroke-opacity="1" stroke-width="3.0"/>
	<path d="M 235.0559844970703,25.648296356201172 C 200.79269409179688,27.669288635253906 199.4396209716797,18.946521759033203 234.2680206298828,28.765018463134766" fill="none" stroke="rgb(0, 0, 0)" stroke-linecap="round" stroke-linejoin="round" stroke-opacity="1" stroke-width="3.0"/>
	<path d="M -17.672996520996094,101.37295532226562 C -9.023812294006348,101.71719360351562 -8.664929389953613,106.19237518310547 -4.211734294891357,101.67911529541016" fill="none" stroke="rgb(0, 0, 0)" stroke-linecap="round" stroke-linejoin="round" stroke-opacity="1" stroke-width="3.0"/>
	<path d="M 145.2694854736328,165.83139038085938 C 193.36129760742188,184.3325958251953 231.09100341796875,134.65707397460938 170.6186065673828,175.41253662109375" fill="none" stroke="rgb(0, 0, 0)" stroke-linecap="round" stroke-linejoin="round" stroke-opacity="1" stroke-width="3.0"/>
	<path d="M 142.52139282226562,57.5997200012207 C 169.3678741455078,53.47187805175781 165.93646240234375,37.874053955078125 179.2963409423828,16.638368606567383" fill="none" stroke="rgb(0, 0, 0)" stroke-linecap="round" stroke-linejoin="round" stroke-opacity="1" stroke-width="3.0"/>
	<path d="M 47.117759704589844,89.3119888305664 C 44.91340637207031,85.5145034790039 43.973838806152344,90.00601196289062 49.556339263916016,86.81668090820312" fill="none" stroke="rgb(0, 0, 0)" stroke-linecap="round" stroke-linejoin="round" stroke-opacity="1" stroke-width="3.0"/>
	<path d="M 15.003090858459473,53.576541900634766 C 13.29108715057373,55.23981857299805 13.720643043518066,52.820404052734375 15.76030158996582,49.9630126953125" fill="none" stroke="rgb(0, 0, 0)" stroke-linecap="round" stroke-linejoin="round" stroke-opacity="1" stroke-width="3.0"/>
	<path d="M 35.415042877197266,19.09543800354004 C 113.65740203857422,9.041546821594238 106.47469329833984,19.546918869018555 185.6032257080078,18.481117248535156" fill="none" stroke="rgb(0, 0, 0)" stroke-linecap="round" stroke-linejoin="round" stroke-opacity="1" stroke-width="3.0"/>
	<path d="M 119.65811920166016,24.701566696166992 C 42.07078552246094,63.10630798339844 110.0240249633789,18.19585418701172 26.282419204711914,19.00371742248535" fill="none" stroke="rgb(0, 0, 0)" stroke-linecap="round" stroke-linejoin="round" stroke-opacity="1" stroke-width="3.0"/>
	<path d="M 20.80592918395996,158.9438018798828 C 19.8904972076416,171.4173583984375 41.926483154296875,175.06385803222656 57.06084060668945,161.13819885253906" fill="none" stroke="rgb(0, 0, 0)" stroke-linecap="round" stroke-linejoin="round" stroke-opacity="1" stroke-width="3.0"/>
	<path d="M 13.335872650146484,52.263912200927734 C 12.366374969482422,52.35176086425781 13.30746841430664,58.08491134643555 14.220890998840332,49.87437057495117" fill="none" stroke="rgb(0, 0, 0)" stroke-linecap="round" stroke-linejoin="round" stroke-opacity="1" stroke-width="3.0"/>
	<path d="M 48.67631149291992,84.95097351074219 C 54.5797004699707,76.10295104980469 48.863494873046875,84.37616729736328 49.1839714050293,89.39071655273438" fill="none" stroke="rgb(0, 0, 0)" stroke-linecap="round" stroke-linejoin="round" stroke-opacity="1" stroke-width="3.0"/>
	<path d="M 215.47866821289062,182.9654541015625 C 220.71409606933594,158.7019805908203 218.27072143554688,148.05160522460938 232.8490753173828,140.32273864746094" fill="none" stroke="rgb(0, 0, 0)" stroke-linecap="round" stroke-linejoin="round" stroke-opacity="1" stroke-width="3.0"/>
	<path d="M 46.86555099487305,86.42494201660156 C 48.74168395996094,83.0227279663086 47.541603088378906,80.5588150024414 47.995296478271484,83.52554321289062" fill="none" stroke="rgb(0, 0, 0)" stroke-linecap="round" stroke-linejoin="round" stroke-opacity="1" stroke-width="3.0"/>
	<path d="M 3.8216392993927,209.2825164794922 C 7.729787349700928,174.1096954345703 -2.7903218269348145,231.38143920898438 14.375123023986816,249.3937530517578" fill="none" stroke="rgb(0, 0, 0)" stroke-linecap="round" stroke-linejoin="round" stroke-opacity="1" stroke-width="3.0"/>
	<path d="M 205.84800720214844,25.295122146606445 C 238.20579528808594,35.763790130615234 230.40415954589844,23.37166976928711 238.59156799316406,28.263832092285156" fill="none" stroke="rgb(0, 0, 0)" stroke-linecap="round" stroke-linejoin="round" stroke-opacity="1" stroke-width="3.0"/>
	<path d="M 49.354576110839844,83.67597961425781 C 49.266170501708984,84.93234252929688 48.9744873046875,86.0650634765625 48.276947021484375,85.78189086914062" fill="none" stroke="rgb(0, 0, 0)" stroke-linecap="round" stroke-linejoin="round" stroke-opacity="1" stroke-width="3.0"/>
	<path d="M 88.32833862304688,230.0940704345703 C 60.8421745300293,239.8153533935547 57.20209884643555,228.42694091796875 58.20460510253906,230.85574340820312" fill="none" stroke="rgb(0, 0, 0)" stroke-linecap="round" stroke-linejoin="round" stroke-opacity="1" stroke-width="3.0"/>
	<path d="M 70.73954010009766,-6.5328688621521 C 63.00978088378906,-3.143411874771118 61.14653778076172,-2.452913522720337 56.25834274291992,-6.605719566345215" fill="none" stroke="rgb(0, 0, 0)" stroke-linecap="round" stroke-linejoin="round" stroke-opacity="1" stroke-width="3.0"/>
</svg>
