<?xml version="1.0" ?>
<svg xmlns="http://www.w3.org/2000/svg" version="1.1" width="224" height="224">
  <defs/>
  <g>
    <path d="M 165.2010955810547 125.7099838256836 C 140.29095458984375 113.07292175292969 151.86618041992188 108.10680389404297 149.99826049804688 129.94778442382812" stroke-width="3.0" fill="none" stroke="rgb(0, 0, 0)" stroke-opacity="1" stroke-linecap="round" stroke-linejoin="round"/>
    <path d="M 41.63729476928711 61.87828063964844 C 40.0464973449707 48.001220703125 38.29319763183594 48.7480354309082 39.66751480102539 46.990272521972656" stroke-width="3.0" fill="none" stroke="rgb(0, 0, 0)" stroke-opacity="1" stroke-linecap="round" stroke-linejoin="round"/>
    <path d="M 136.2772979736328 138.3023681640625 C 120.09918212890625 84.70821380615234 140.98402404785156 120.38520050048828 137.169189453125 137.6565399169922" stroke-width="3.0" fill="none" stroke="rgb(0, 0, 0)" stroke-opacity="1" stroke-linecap="round" stroke-linejoin="round"/>
    <path d="M 76.05497741699219 85.8223876953125 C 85.5140380859375 123.53934478759766 72.9747314453125 55.42639923095703 93.19168853759766 97.1267318725586" stroke-width="3.0" fill="none" stroke="rgb(0, 0, 0)" stroke-opacity="1" stroke-linecap="round" stroke-linejoin="round"/>
    <path d="M 79.3418197631836 53.7982292175293 C 89.50690460205078 77.4669189453125 94.04569244384766 51.276187896728516 113.20479583740234 69.31441497802734" stroke-width="3.0" fill="none" stroke="rgb(0, 0, 0)" stroke-opacity="1" stroke-linecap="round" stroke-linejoin="round"/>
    <path d="M 97.04834747314453 189.39852905273438 C 96.1049575805664 177.37835693359375 96.09637451171875 165.276123046875 90.3333511352539 182.5519561767578" stroke-width="3.0" fill="none" stroke="rgb(0, 0, 0)" stroke-opacity="1" stroke-linecap="round" stroke-linejoin="round"/>
    <path d="M 40.01189422607422 64.31050872802734 C 37.794097900390625 77.22335815429688 74.34944152832031 71.22127532958984 64.86801147460938 78.689208984375" stroke-width="3.0" fill="none" stroke="rgb(0, 0, 0)" stroke-opacity="1" stroke-linecap="round" stroke-linejoin="round"/>
    <path d="M 132.49754333496094 91.87733459472656 C 134.44281005859375 107.89584350585938 149.49530029296875 124.87950897216797 132.7144012451172 81.35671997070312" stroke-width="3.0" fill="none" stroke="rgb(0, 0, 0)" stroke-opacity="1" stroke-linecap="round" stroke-linejoin="round"/>
    <path d="M 52.67313003540039 178.7657012939453 C 42.184967041015625 175.4198760986328 57.93819808959961 141.10203552246094 52.75799560546875 175.33059692382812" stroke-width="3.0" fill="none" stroke="rgb(0, 0, 0)" stroke-opacity="1" stroke-linecap="round" stroke-linejoin="round"/>
    <path d="M 52.71415710449219 117.42102813720703 C 56.10525131225586 139.65716552734375 50.26721954345703 166.43597412109375 45.85185241699219 131.9047088623047" stroke-width="3.0" fill="none" stroke="rgb(0, 0, 0)" stroke-opacity="1" stroke-linecap="round" stroke-linejoin="round"/>
    <path d="M 58.593955993652344 97.80839538574219 C 50.888999938964844 138.5137481689453 64.91851806640625 128.2963104248047 61.82115173339844 173.7113037109375" stroke-width="3.0" fill="none" stroke="rgb(0, 0, 0)" stroke-opacity="1" stroke-linecap="round" stroke-linejoin="round"/>
    <path d="M 75.49434661865234 152.69601440429688 C 79.29025268554688 111.10536193847656 76.97306823730469 137.69996643066406 83.54364013671875 91.06473541259766" stroke-width="3.0" fill="none" stroke="rgb(0, 0, 0)" stroke-opacity="1" stroke-linecap="round" stroke-linejoin="round"/>
    <path d="M 61.255802154541016 110.48613739013672 C 69.45475006103516 163.0108184814453 69.58065032958984 175.7467498779297 65.85295104980469 102.99800109863281" stroke-width="3.0" fill="none" stroke="rgb(0, 0, 0)" stroke-opacity="1" stroke-linecap="round" stroke-linejoin="round"/>
    <path d="M 99.54656219482422 86.69242095947266 C 93.35704040527344 54.76591110229492 99.3282241821289 61.380104064941406 96.61767578125 62.502620697021484" stroke-width="3.0" fill="none" stroke="rgb(0, 0, 0)" stroke-opacity="1" stroke-linecap="round" stroke-linejoin="round"/>
    <path d="M 39.02079772949219 62.80501937866211 C 36.40264129638672 84.07361602783203 60.06261444091797 64.928466796875 62.456939697265625 88.05236053466797" stroke-width="3.0" fill="none" stroke="rgb(0, 0, 0)" stroke-opacity="1" stroke-linecap="round" stroke-linejoin="round"/>
    <path d="M 76.49015045166016 173.82835388183594 C 90.4404067993164 136.68341064453125 68.33573150634766 139.95225524902344 59.406009674072266 103.45829772949219" stroke-width="3.0" fill="none" stroke="rgb(0, 0, 0)" stroke-opacity="1" stroke-linecap="round" stroke-linejoin="round"/>
    <path d="M 150.6837615966797 59.83545684814453 C 142.95343017578125 84.73224639892578 159.49703979492188 79.06109619140625 145.82298278808594 38.836936950683594" stroke-width="3.0" fill="none" stroke="rgb(0, 0, 0)" stroke-opacity="1" stroke-linecap="round" stroke-linejoin="round"/>
    <path d="M 97.32770538330078 97.8299331665039 C 87.72956848144531 112.66085815429688 120.40170288085938 92.66969299316406 105.8437271118164 122.47894287109375" stroke-width="3.0" fill="none" stroke="rgb(0, 0, 0)" stroke-opacity="1" stroke-linecap="round" stroke-linejoin="round"/>
    <path d="M 65.3841323852539 185.76791381835938 C 78.9384536743164 116.27490234375 73.95668029785156 144.8347930908203 56.77899932861328 181.585205078125" stroke-width="3.0" fill="none" stroke="rgb(0, 0, 0)" stroke-opacity="1" stroke-linecap="round" stroke-linejoin="round"/>
    <path d="M 161.64988708496094 89.55657958984375 C 166.75286865234375 178.7710418701172 180.45977783203125 145.78622436523438 172.43292236328125 90.05908203125" stroke-width="3.0" fill="none" stroke="rgb(0, 0, 0)" stroke-opacity="1" stroke-linecap="round" stroke-linejoin="round"/>
    <path d="M 122.04336547851562 84.06401824951172 C 176.934326171875 71.08307647705078 128.60850524902344 78.59030151367188 117.34645080566406 69.59891510009766" stroke-width="3.0" fill="none" stroke="rgb(0, 0, 0)" stroke-opacity="1" stroke-linecap="round" stroke-linejoin="round"/>
    <path d="M 46.33460998535156 126.46316528320312 C 48.77674865722656 147.01844787597656 60.62812423706055 158.97998046875 55.16188049316406 182.69886779785156" stroke-width="3.0" fill="none" stroke="rgb(0, 0, 0)" stroke-opacity="1" stroke-linecap="round" stroke-linejoin="round"/>
    <path d="M 48.26213836669922 127.00201416015625 C 61.443336486816406 95.79254913330078 56.35821533203125 78.95427703857422 44.21697998046875 118.19461822509766" stroke-width="3.0" fill="none" stroke="rgb(0, 0, 0)" stroke-opacity="1" stroke-linecap="round" stroke-linejoin="round"/>
    <path d="M 55.75342559814453 79.5233154296875 C 78.19390106201172 114.30414581298828 56.29288101196289 73.32423400878906 78.66593170166016 137.71986389160156" stroke-width="3.0" fill="none" stroke="rgb(0, 0, 0)" stroke-opacity="1" stroke-linecap="round" stroke-linejoin="round"/>
    <path d="M 151.24000549316406 60.67273712158203 C 148.83522033691406 63.80729293823242 141.80108642578125 44.45638656616211 148.1441650390625 33.48794937133789" stroke-width="3.0" fill="none" stroke="rgb(0, 0, 0)" stroke-opacity="1" stroke-linecap="round" stroke-linejoin="round"/>
    <path d="M 111.2754898071289 100.06893920898438 C 110.20235443115234 82.78968048095703 116.54044342041016 107.61714935302734 107.8176498413086 72.94050598144531" stroke-width="3.0" fill="none" stroke="rgb(0, 0, 0)" stroke-opacity="1" stroke-linecap="round" stroke-linejoin="round"/>
    <path d="M 58.780181884765625 63.003562927246094 C 114.2984619140625 60.08028030395508 89.83824920654297 54.30474853515625 88.12578582763672 67.0134048461914" stroke-width="3.0" fill="none" stroke="rgb(0, 0, 0)" stroke-opacity="1" stroke-linecap="round" stroke-linejoin="round"/>
    <path d="M 117.60690307617188 79.05974578857422 C 133.55978393554688 114.76692199707031 124.27046203613281 69.17491912841797 121.05619049072266 94.3172836303711" stroke-width="3.0" fill="none" stroke="rgb(0, 0, 0)" stroke-opacity="1" stroke-linecap="round" stroke-linejoin="round"/>
    <path d="M 52.23731994628906 82.50763702392578 C 53.192779541015625 105.70217895507812 39.68569564819336 109.3761978149414 52.30543518066406 78.5470199584961" stroke-width="3.0" fill="none" stroke="rgb(0, 0, 0)" stroke-opacity="1" stroke-linecap="round" stroke-linejoin="round"/>
    <path d="M 53.563629150390625 86.0129165649414 C 59.96601867675781 104.05780029296875 43.332969665527344 110.43724060058594 53.2100830078125 132.07135009765625" stroke-width="3.0" fill="none" stroke="rgb(0, 0, 0)" stroke-opacity="1" stroke-linecap="round" stroke-linejoin="round"/>
    <path d="M 32.741539001464844 29.543519973754883 C 39.05939483642578 36.718482971191406 42.987937927246094 35.85431671142578 43.996620178222656 73.4581298828125" stroke-width="3.0" fill="none" stroke="rgb(0, 0, 0)" stroke-opacity="1" stroke-linecap="round" stroke-linejoin="round"/>
    <path d="M 147.2774200439453 52.68335723876953 C 141.58377075195312 46.74888610839844 163.54075622558594 83.51433563232422 117.97933197021484 79.30259704589844" stroke-width="3.0" fill="none" stroke="rgb(0, 0, 0)" stroke-opacity="1" stroke-linecap="round" stroke-linejoin="round"/>
    <path d="M 131.0029296875 112.5748291015625 C 127.24457550048828 99.40388488769531 111.62017059326172 104.04615783691406 129.19244384765625 117.38043212890625" stroke-width="3.0" fill="none" stroke="rgb(0, 0, 0)" stroke-opacity="1" stroke-linecap="round" stroke-linejoin="round"/>
    <path d="M 151.33251953125 77.60078430175781 C 180.00283813476562 78.68820190429688 181.82130432128906 108.16716766357422 173.84591674804688 125.5948257446289" stroke-width="3.0" fill="none" stroke="rgb(0, 0, 0)" stroke-opacity="1" stroke-linecap="round" stroke-linejoin="round"/>
    <path d="M 80.6600341796875 113.60829162597656 C 73.0506820678711 79.75973510742188 71.61685943603516 86.73136138916016 74.2557601928711 65.84520721435547" stroke-width="3.0" fill="none" stroke="rgb(0, 0, 0)" stroke-opacity="1" stroke-linecap="round" stroke-linejoin="round"/>
    <path d="M 53.16056442260742 144.00022888183594 C 54.18718719482422 122.08282470703125 43.50539016723633 128.2372589111328 48.27141189575195 101.7844467163086" stroke-width="3.0" fill="none" stroke="rgb(0, 0, 0)" stroke-opacity="1" stroke-linecap="round" stroke-linejoin="round"/>
    <path d="M 124.5345458984375 103.05121612548828 C 120.59367370605469 124.71465301513672 129.12913513183594 118.41062927246094 125.78177642822266 104.01921081542969" stroke-width="3.0" fill="none" stroke="rgb(0, 0, 0)" stroke-opacity="1" stroke-linecap="round" stroke-linejoin="round"/>
    <path d="M 162.89199829101562 137.386474609375 C 145.2284393310547 104.7651138305664 157.5665283203125 108.33238983154297 134.4643096923828 81.76342010498047" stroke-width="3.0" fill="none" stroke="rgb(0, 0, 0)" stroke-opacity="1" stroke-linecap="round" stroke-linejoin="round"/>
    <path d="M 39.685237884521484 39.57843780517578 C 34.11387634277344 74.98851776123047 45.93169021606445 81.558349609375 40.799591064453125 45.38673782348633" stroke-width="3.0" fill="none" stroke="rgb(0, 0, 0)" stroke-opacity="1" stroke-linecap="round" stroke-linejoin="round"/>
    <path d="M 59.4005126953125 186.0668487548828 C 68.76834106445312 159.64193725585938 54.249534606933594 196.10601806640625 84.4147720336914 155.35232543945312" stroke-width="3.0" fill="none" stroke="rgb(0, 0, 0)" stroke-opacity="1" stroke-linecap="round" stroke-linejoin="round"/>
    <path d="M 84.7913818359375 175.50877380371094 C 75.36872100830078 97.9190444946289 88.40084075927734 128.8690185546875 84.87300872802734 92.39160919189453" stroke-width="3.0" fill="none" stroke="rgb(0, 0, 0)" stroke-opacity="1" stroke-linecap="round" stroke-linejoin="round"/>
    <path d="M 169.9351043701172 169.23500061035156 C 166.8427734375 71.1651840209961 165.27174377441406 102.00537109375 151.2154998779297 81.40901184082031" stroke-width="3.0" fill="none" stroke="rgb(0, 0, 0)" stroke-opacity="1" stroke-linecap="round" stroke-linejoin="round"/>
    <path d="M 94.34025573730469 124.85614013671875 C 78.12468719482422 102.80622100830078 67.2353286743164 96.67411804199219 90.61994171142578 124.12895202636719" stroke-width="3.0" fill="none" stroke="rgb(0, 0, 0)" stroke-opacity="1" stroke-linecap="round" stroke-linejoin="round"/>
    <path d="M 116.52839660644531 71.73403930664062 C 132.2623291015625 98.94679260253906 138.6277313232422 90.24494934082031 116.5000991821289 70.73794555664062" stroke-width="3.0" fill="none" stroke="rgb(0, 0, 0)" stroke-opacity="1" stroke-linecap="round" stroke-linejoin="round"/>
    <path d="M 64.80363464355469 158.1015167236328 C 60.15467071533203 121.14450073242188 59.85688781738281 130.22528076171875 58.36387252807617 100.79862976074219" stroke-width="3.0" fill="none" stroke="rgb(0, 0, 0)" stroke-opacity="1" stroke-linecap="round" stroke-linejoin="round"/>
    <path d="M 62.99237060546875 56.12727355957031 C 102.3067398071289 54.88758850097656 74.53228759765625 61.024681091308594 62.35112380981445 59.60531234741211" stroke-width="3.0" fill="none" stroke="rgb(0, 0, 0)" stroke-opacity="1" stroke-linecap="round" stroke-linejoin="round"/>
    <path d="M 117.21223449707031 125.0549087524414 C 118.46969604492188 139.20140075683594 116.68143463134766 136.56166076660156 119.00596618652344 113.2231216430664" stroke-width="3.0" fill="none" stroke="rgb(0, 0, 0)" stroke-opacity="1" stroke-linecap="round" stroke-linejoin="round"/>
    <path d="M 104.64128875732422 194.41868591308594 C 104.89823150634766 181.04815673828125 133.64947509765625 173.09010314941406 115.35193634033203 122.91234588623047" stroke-width="3.0" fill="none" stroke="rgb(0, 0, 0)" stroke-opacity="1" stroke-linecap="round" stroke-linejoin="round"/>
    <path d="M 140.9408416748047 105.82872772216797 C 157.6646728515625 153.74896240234375 136.8966064453125 111.08538055419922 150.0912628173828 131.861083984375" stroke-width="3.0" fill="none" stroke="rgb(0, 0, 0)" stroke-opacity="1" stroke-linecap="round" stroke-linejoin="round"/>
    <path d="M 81.65040588378906 69.18706512451172 C 87.41387176513672 123.71904754638672 103.34074401855469 107.13676452636719 78.10137176513672 81.76500701904297" stroke-width="3.0" fill="none" stroke="rgb(0, 0, 0)" stroke-opacity="1" stroke-linecap="round" stroke-linejoin="round"/>
    <path d="M 75.19103240966797 178.69775390625 C 73.13689422607422 97.19136810302734 64.5916748046875 74.17256927490234 72.67586517333984 181.40396118164062" stroke-width="3.0" fill="none" stroke="rgb(0, 0, 0)" stroke-opacity="1" stroke-linecap="round" stroke-linejoin="round"/>
    <path d="M 94.60176849365234 80.85763549804688 C 86.61305236816406 54.047157287597656 108.50035095214844 52.786136627197266 107.75517272949219 98.76229858398438" stroke-width="3.0" fill="none" stroke="rgb(0, 0, 0)" stroke-opacity="1" stroke-linecap="round" stroke-linejoin="round"/>
    <path d="M 52.478515625 74.21614074707031 C 81.8378677368164 65.86708068847656 70.18390655517578 55.03023910522461 64.7745361328125 93.95233154296875" stroke-width="3.0" fill="none" stroke="rgb(0, 0, 0)" stroke-opacity="1" stroke-linecap="round" stroke-linejoin="round"/>
    <path d="M 59.717254638671875 138.23568725585938 C 57.73036575317383 194.4036865234375 52.3167724609375 202.47312927246094 50.490909576416016 144.40457153320312" stroke-width="3.0" fill="none" stroke="rgb(0, 0, 0)" stroke-opacity="1" stroke-linecap="round" stroke-linejoin="round"/>
    <path d="M 49.79118347167969 139.0095672607422 C 38.7404670715332 90.54349517822266 45.924522399902344 111.28461456298828 51.85375213623047 85.10965728759766" stroke-width="3.0" fill="none" stroke="rgb(0, 0, 0)" stroke-opacity="1" stroke-linecap="round" stroke-linejoin="round"/>
    <path d="M 27.14876365661621 27.317230224609375 C 48.51727294921875 35.19691848754883 27.938737869262695 69.67742919921875 49.776702880859375 69.35325622558594" stroke-width="3.0" fill="none" stroke="rgb(0, 0, 0)" stroke-opacity="1" stroke-linecap="round" stroke-linejoin="round"/>
    <path d="M 158.33766174316406 101.35832977294922 C 169.4164581298828 197.0255126953125 174.84405517578125 206.29701232910156 173.14952087402344 106.5322036743164" stroke-width="3.0" fill="none" stroke="rgb(0, 0, 0)" stroke-opacity="1" stroke-linecap="round" stroke-linejoin="round"/>
    <path d="M 68.04521179199219 74.41856384277344 C 45.04697036743164 60.51905822753906 87.7856216430664 122.4148941040039 62.41453552246094 75.00502014160156" stroke-width="3.0" fill="none" stroke="rgb(0, 0, 0)" stroke-opacity="1" stroke-linecap="round" stroke-linejoin="round"/>
    <path d="M 93.31619262695312 108.82500457763672 C 77.37853240966797 107.57614135742188 105.05029296875 129.77215576171875 105.83792877197266 111.35610961914062" stroke-width="3.0" fill="none" stroke="rgb(0, 0, 0)" stroke-opacity="1" stroke-linecap="round" stroke-linejoin="round"/>
    <path d="M 172.8389129638672 125.94398498535156 C 147.8875274658203 163.74940490722656 172.72714233398438 144.30453491210938 159.08843994140625 182.78253173828125" stroke-width="3.0" fill="none" stroke="rgb(0, 0, 0)" stroke-opacity="1" stroke-linecap="round" stroke-linejoin="round"/>
    <path d="M 113.18671417236328 187.56358337402344 C 148.5955352783203 109.57093048095703 109.08573150634766 109.806884765625 127.7416000366211 127.83899688720703" stroke-width="3.0" fill="none" stroke="rgb(0, 0, 0)" stroke-opacity="1" stroke-linecap="round" stroke-linejoin="round"/>
    <path d="M 105.53730773925781 103.5640869140625 C 93.34268951416016 82.08448791503906 109.72880554199219 94.94441223144531 97.32730865478516 60.2952766418457" stroke-width="3.0" fill="none" stroke="rgb(0, 0, 0)" stroke-opacity="1" stroke-linecap="round" stroke-linejoin="round"/>
    <path d="M 98.17469024658203 123.22171783447266 C 65.21221923828125 116.36446380615234 97.18756866455078 136.444091796875 107.34382629394531 116.47758483886719" stroke-width="3.0" fill="none" stroke="rgb(0, 0, 0)" stroke-opacity="1" stroke-linecap="round" stroke-linejoin="round"/>
    <path d="M 81.32725524902344 178.01255798339844 C 94.53506469726562 156.11318969726562 75.72309875488281 200.92495727539062 91.98988342285156 132.90609741210938" stroke-width="3.0" fill="none" stroke="rgb(0, 0, 0)" stroke-opacity="1" stroke-linecap="round" stroke-linejoin="round"/>
  </g>
</svg>
