<?xml version="1.0" ?>
<svg xmlns="http://www.w3.org/2000/svg" version="1.1" width="600" height="600">
  <defs/>
  <g>
    <path d="M 471.8371887207031 506.8796081542969 C 439.19622802734375 495.5045166015625 425.2826232910156 464.2525329589844 386.8029479980469 455.6999816894531 C 405.0455322265625 486.82403564453125 456.7557678222656 439.6700439453125 435.7491455078125 496.99981689453125 C 420.2018737792969 549.2340698242188 405.0610656738281 564.7438354492188 406.3332214355469 534.4551391601562 C 377.2334899902344 541.214599609375 345.4908752441406 546.1715698242188 241.3780059814453 550.2266845703125" stroke-width="22.21844482421875" fill="none" stroke="rgb(0, 0, 0)" stroke-opacity="1.0" stroke-linecap="round" stroke-linejoin="round"/>
    <path d="M 471.8371887207031 506.8796081542969 C 439.19622802734375 495.5045166015625 425.2826232910156 464.2525329589844 386.8029479980469 455.6999816894531 C 405.0455322265625 486.82403564453125 456.7557678222656 439.6700439453125 435.7491455078125 496.99981689453125 C 420.2018737792969 549.2340698242188 405.0610656738281 564.7438354492188 406.3332214355469 534.4551391601562 C 377.2334899902344 541.214599609375 345.4908752441406 546.1715698242188 241.3780059814453 550.2266845703125" stroke-width="22.21844482421875" fill="none" stroke="rgb(0, 0, 0)" stroke-opacity="1.0" stroke-linecap="round" stroke-linejoin="round"/>
    <path d="M 471.8371887207031 506.8796081542969 C 439.19622802734375 495.5045166015625 425.2826232910156 464.2525329589844 386.8029479980469 455.6999816894531 C 405.0455322265625 486.82403564453125 456.7557678222656 439.6700439453125 435.7491455078125 496.99981689453125 C 420.2018737792969 549.2340698242188 405.0610656738281 564.7438354492188 406.3332214355469 534.4551391601562 C 377.2334899902344 541.214599609375 345.4908752441406 546.1715698242188 241.3780059814453 550.2266845703125" stroke-width="22.21844482421875" fill="none" stroke="rgb(0, 0, 0)" stroke-opacity="1.0" stroke-linecap="round" stroke-linejoin="round"/>
    <path d="M 471.8371887207031 506.8796081542969 C 439.19622802734375 495.5045166015625 425.2826232910156 464.2525329589844 386.8029479980469 455.6999816894531 C 405.0455322265625 486.82403564453125 456.7557678222656 439.6700439453125 435.7491455078125 496.99981689453125 C 420.2018737792969 549.2340698242188 405.0610656738281 564.7438354492188 406.3332214355469 534.4551391601562 C 377.2334899902344 541.214599609375 345.4908752441406 546.1715698242188 241.3780059814453 550.2266845703125" stroke-width="22.21844482421875" fill="none" stroke="rgb(0, 0, 0)" stroke-opacity="1.0" stroke-linecap="round" stroke-linejoin="round"/>
    <path d="M 471.8371887207031 506.8796081542969 C 439.19622802734375 495.5045166015625 425.2826232910156 464.2525329589844 386.8029479980469 455.6999816894531 C 405.0455322265625 486.82403564453125 456.7557678222656 439.6700439453125 435.7491455078125 496.99981689453125 C 420.2018737792969 549.2340698242188 405.0610656738281 564.7438354492188 406.3332214355469 534.4551391601562 C 377.2334899902344 541.214599609375 345.4908752441406 546.1715698242188 241.3780059814453 550.2266845703125" stroke-width="22.21844482421875" fill="none" stroke="rgb(0, 0, 0)" stroke-opacity="1.0" stroke-linecap="round" stroke-linejoin="round"/>
    <path d="M 471.8371887207031 506.8796081542969 C 439.19622802734375 495.5045166015625 425.2826232910156 464.2525329589844 386.8029479980469 455.6999816894531 C 405.0455322265625 486.82403564453125 456.7557678222656 439.6700439453125 435.7491455078125 496.99981689453125 C 420.2018737792969 549.2340698242188 405.0610656738281 564.7438354492188 406.3332214355469 534.4551391601562 C 377.2334899902344 541.214599609375 345.4908752441406 546.1715698242188 241.3780059814453 550.2266845703125" stroke-width="22.21844482421875" fill="none" stroke="rgb(0, 0, 0)" stroke-opacity="1.0" stroke-linecap="round" stroke-linejoin="round"/>
    <path d="M 610.9401245117188 41.861358642578125 C 625.5847778320312 23.961307525634766 636.7479858398438 4.319275856018066 620.4644165039062 9.976323127746582 C 603.3612670898438 -0.5595995783805847 623.301513671875 -5.267077922821045 599.3779907226562 -12.832789421081543 C 617.6410522460938 -3.393343448638916 597.5830078125 -28.057470321655273 602.2377319335938 -21.376543045043945 C 587.10888671875 -4.250150680541992 601.8131713867188 -15.508639335632324 607.7951049804688 -18.185985565185547" stroke-width="6.391068458557129" fill="none" stroke="rgb(0, 0, 0)" stroke-opacity="0.3608142" stroke-linecap="round" stroke-linejoin="round"/>
    <path d="M 75.98495483398438 169.43418884277344 C 25.03469467163086 168.4693603515625 74.87126922607422 177.64776611328125 49.173583984375 166.3033905029297 C 11.007838249206543 195.65098571777344 42.4283447265625 233.18218994140625 11.83265495300293 193.386962890625 C -51.77218246459961 221.05612182617188 -25.251569747924805 212.28504943847656 2.1816771030426025 197.99896240234375 C -20.426116943359375 203.24888610839844 -23.528039932250977 226.94705200195312 -31.648841857910156 202.67869567871094" stroke-width="29.359560012817383" fill="none" stroke="rgb(0, 0, 0)" stroke-opacity="0.0" stroke-linecap="round" stroke-linejoin="round"/>
    <path d="M 379.8171081542969 401.31976318359375 C 434.4854431152344 386.06982421875 390.9419250488281 401.9973449707031 469.9246520996094 392.76776123046875 C 447.88922119140625 379.20599365234375 438.42327880859375 383.3506164550781 433.4107666015625 338.5564880371094 C 426.6062316894531 341.0941467285156 434.9748840332031 352.8374328613281 412.3321228027344 370.8681335449219 C 436.2337646484375 444.13006591796875 404.8924560546875 443.1340026855469 412.59368896484375 369.90625" stroke-width="13.1327543258667" fill="none" stroke="rgb(0, 0, 0)" stroke-opacity="0.9996858" stroke-linecap="round" stroke-linejoin="round"/>
    <path d="M 239.52174377441406 460.2306213378906 C 235.0900115966797 400.6673278808594 243.06654357910156 407.88824462890625 206.308349609375 418.3780822753906 C 197.2120361328125 419.90472412109375 149.28823852539062 408.3207092285156 98.4459228515625 394.3355407714844 C 200.7924346923828 393.23834228515625 177.86550903320312 400.8900451660156 245.10382080078125 401.112548828125 C 188.9710235595703 427.4989929199219 175.91262817382812 400.0899353027344 194.4185791015625 415.23687744140625" stroke-width="8.507137298583984" fill="none" stroke="rgb(0, 0, 0)" stroke-opacity="0.34093064" stroke-linecap="round" stroke-linejoin="round"/>
    <path d="M 248.07781982421875 462.9609680175781 C 311.4656677246094 457.16693115234375 274.7980041503906 465.7897644042969 213.88015747070312 464.57318115234375 C 231.89881896972656 452.8569641113281 266.2059020996094 434.0379333496094 227.92343139648438 458.64666748046875 C 256.77618408203125 451.4234924316406 291.0855407714844 453.9187316894531 343.38671875 442.4448547363281 C 208.6457977294922 444.8933410644531 196.5735321044922 474.7356872558594 361.65972900390625 453.75836181640625" stroke-width="13.017149925231934" fill="none" stroke="rgb(0, 0, 0)" stroke-opacity="1.0" stroke-linecap="round" stroke-linejoin="round"/>
    <path d="M 308.4936828613281 543.410888671875 C 344.7447814941406 566.1788940429688 385.45294189453125 588.4514770507812 295.86383056640625 569.745849609375 C 280.50189208984375 525.4984741210938 279.073974609375 471.7486267089844 261.1304016113281 523.7406005859375 C 268.16986083984375 497.97442626953125 253.30882263183594 556.00048828125 281.1788330078125 559.0909423828125 C 355.50201416015625 581.7765502929688 361.9375915527344 595.885986328125 362.5425720214844 573.5589599609375" stroke-width="-2.061276912689209" fill="none" stroke="rgb(0, 0, 0)" stroke-opacity="0.0" stroke-linecap="round" stroke-linejoin="round"/>
    <path d="M 471.8371887207031 506.8796081542969 C 439.19622802734375 495.5045166015625 425.2826232910156 464.2525329589844 386.8029479980469 455.6999816894531 C 405.0455322265625 486.82403564453125 456.7557678222656 439.6700439453125 435.7491455078125 496.99981689453125 C 420.2018737792969 549.2340698242188 405.0610656738281 564.7438354492188 406.3332214355469 534.4551391601562 C 377.2334899902344 541.214599609375 345.4908752441406 546.1715698242188 241.3780059814453 550.2266845703125" stroke-width="22.21844482421875" fill="none" stroke="rgb(0, 0, 0)" stroke-opacity="1.0" stroke-linecap="round" stroke-linejoin="round"/>
    <path d="M 398.8628845214844 319.8600769042969 C 362.4613342285156 347.0211181640625 362.15997314453125 318.01605224609375 362.5340576171875 285.8927001953125 C 375.13140869140625 327.5368957519531 382.0386047363281 337.72412109375 361.7900695800781 326.5806579589844 C 424.57958984375 337.6058044433594 429.52459716796875 329.4391784667969 427.2901611328125 335.4886169433594 C 401.4008483886719 327.66961669921875 407.2452087402344 349.1218566894531 397.926025390625 348.70440673828125" stroke-width="-9.190240859985352" fill="none" stroke="rgb(0, 0, 0)" stroke-opacity="0.91199666" stroke-linecap="round" stroke-linejoin="round"/>
    <path d="M 471.8371887207031 506.8796081542969 C 439.19622802734375 495.5045166015625 425.2826232910156 464.2525329589844 386.8029479980469 455.6999816894531 C 405.0455322265625 486.82403564453125 456.7557678222656 439.6700439453125 435.7491455078125 496.99981689453125 C 420.2018737792969 549.2340698242188 405.0610656738281 564.7438354492188 406.3332214355469 534.4551391601562 C 377.2334899902344 541.214599609375 345.4908752441406 546.1715698242188 241.3780059814453 550.2266845703125" stroke-width="22.21844482421875" fill="none" stroke="rgb(0, 0, 0)" stroke-opacity="1.0" stroke-linecap="round" stroke-linejoin="round"/>
    <path d="M 172.8533935546875 550.6980590820312 C 189.85594177246094 574.0203247070312 203.21295166015625 534.2010498046875 192.97801208496094 596.33642578125 C 204.09976196289062 636.1419677734375 160.85826110839844 633.9757080078125 191.10003662109375 609.6483764648438 C 224.95767211914062 574.5873413085938 225.15003967285156 608.6565551757812 192.31307983398438 620.0750122070312 C 201.1904296875 603.6439208984375 164.51483154296875 623.1322021484375 215.89450073242188 600.208251953125" stroke-width="26.33624839782715" fill="none" stroke="rgb(0, 0, 0)" stroke-opacity="1.0" stroke-linecap="round" stroke-linejoin="round"/>
    <path d="M 471.8371887207031 506.8796081542969 C 439.19622802734375 495.5045166015625 425.2826232910156 464.2525329589844 386.8029479980469 455.6999816894531 C 405.0455322265625 486.82403564453125 456.7557678222656 439.6700439453125 435.7491455078125 496.99981689453125 C 420.2018737792969 549.2340698242188 405.0610656738281 564.7438354492188 406.3332214355469 534.4551391601562 C 377.2334899902344 541.214599609375 345.4908752441406 546.1715698242188 241.3780059814453 550.2266845703125" stroke-width="22.21844482421875" fill="none" stroke="rgb(0, 0, 0)" stroke-opacity="1.0" stroke-linecap="round" stroke-linejoin="round"/>
    <path d="M 437.6131286621094 573.200927734375 C 474.8743591308594 513.8296508789062 414.67742919921875 541.5957641601562 436.1272277832031 513.7217407226562 C 421.943115234375 477.8002014160156 457.3096008300781 499.07470703125 519.5399169921875 525.4775390625 C 497.98773193359375 544.4202270507812 453.9649963378906 500.15673828125 430.42364501953125 477.89495849609375 C 429.8975830078125 478.9114990234375 429.1413879394531 460.3526611328125 409.49627685546875 484.1036376953125" stroke-width="18.140932083129883" fill="none" stroke="rgb(0, 0, 0)" stroke-opacity="0.9579451" stroke-linecap="round" stroke-linejoin="round"/>
    <path d="M 471.8371887207031 506.8796081542969 C 439.19622802734375 495.5045166015625 425.2826232910156 464.2525329589844 386.8029479980469 455.6999816894531 C 405.0455322265625 486.82403564453125 456.7557678222656 439.6700439453125 435.7491455078125 496.99981689453125 C 420.2018737792969 549.2340698242188 405.0610656738281 564.7438354492188 406.3332214355469 534.4551391601562 C 377.2334899902344 541.214599609375 345.4908752441406 546.1715698242188 241.3780059814453 550.2266845703125" stroke-width="22.21844482421875" fill="none" stroke="rgb(0, 0, 0)" stroke-opacity="1.0" stroke-linecap="round" stroke-linejoin="round"/>
    <path d="M 471.8371887207031 506.8796081542969 C 439.19622802734375 495.5045166015625 425.2826232910156 464.2525329589844 386.8029479980469 455.6999816894531 C 405.0455322265625 486.82403564453125 456.7557678222656 439.6700439453125 435.7491455078125 496.99981689453125 C 420.2018737792969 549.2340698242188 405.0610656738281 564.7438354492188 406.3332214355469 534.4551391601562 C 377.2334899902344 541.214599609375 345.4908752441406 546.1715698242188 241.3780059814453 550.2266845703125" stroke-width="22.21844482421875" fill="none" stroke="rgb(0, 0, 0)" stroke-opacity="1.0" stroke-linecap="round" stroke-linejoin="round"/>
    <path d="M 553.2031860351562 481.7088623046875 C 556.0838623046875 477.20245361328125 576.5220336914062 491.79010009765625 607.1724243164062 491.4766845703125 C 611.9392700195312 469.2759094238281 595.9208984375 482.5242004394531 595.9028930664062 500.1808776855469 C 598.771484375 547.383544921875 564.4727172851562 509.2012939453125 611.22314453125 499.0548400878906 C 589.8296508789062 497.5137939453125 557.4080810546875 471.1494140625 562.9286499023438 491.67523193359375" stroke-width="-6.074740409851074" fill="none" stroke="rgb(0, 0, 0)" stroke-opacity="0.01519688" stroke-linecap="round" stroke-linejoin="round"/>
    <path d="M 471.8371887207031 506.8796081542969 C 439.19622802734375 495.5045166015625 425.2826232910156 464.2525329589844 386.8029479980469 455.6999816894531 C 405.0455322265625 486.82403564453125 456.7557678222656 439.6700439453125 435.7491455078125 496.99981689453125 C 420.2018737792969 549.2340698242188 405.0610656738281 564.7438354492188 406.3332214355469 534.4551391601562 C 377.2334899902344 541.214599609375 345.4908752441406 546.1715698242188 241.3780059814453 550.2266845703125" stroke-width="22.21844482421875" fill="none" stroke="rgb(0, 0, 0)" stroke-opacity="1.0" stroke-linecap="round" stroke-linejoin="round"/>
    <path d="M 421.2148742675781 340.02227783203125 C 326.9398193359375 325.0525817871094 336.08673095703125 294.0567321777344 412.12762451171875 340.1602783203125 C 451.47320556640625 338.0682067871094 432.86297607421875 317.8110046386719 418.5709533691406 317.0721740722656 C 505.73968505859375 304.90936279296875 534.9923706054688 298.2393798828125 453.0718994140625 291.1142578125 C 372.0144958496094 241.8380889892578 400.9234924316406 227.35792541503906 389.1874084472656 154.44444274902344" stroke-width="19.66521644592285" fill="none" stroke="rgb(0, 0, 0)" stroke-opacity="1.0" stroke-linecap="round" stroke-linejoin="round"/>
    <path d="M 350.541259765625 67.5162582397461 C 345.0811462402344 -39.22013473510742 345.1628112792969 -109.74705505371094 360.28399658203125 -160.40939331054688 C 284.7423095703125 -21.800058364868164 260.1658935546875 -51.208953857421875 233.7300567626953 -70.59819030761719 C 254.22044372558594 -100.43121337890625 240.93304443359375 -86.97090148925781 217.50445556640625 -89.64899444580078 C 216.97940063476562 -76.67654418945312 189.22703552246094 -56.490299224853516 183.28182983398438 -66.48121643066406" stroke-width="30.65204429626465" fill="none" stroke="rgb(0, 0, 0)" stroke-opacity="1.0" stroke-linecap="round" stroke-linejoin="round"/>
    <path d="M 471.8371887207031 506.8796081542969 C 439.19622802734375 495.5045166015625 425.2826232910156 464.2525329589844 386.8029479980469 455.6999816894531 C 405.0455322265625 486.82403564453125 456.7557678222656 439.6700439453125 435.7491455078125 496.99981689453125 C 420.2018737792969 549.2340698242188 405.0610656738281 564.7438354492188 406.3332214355469 534.4551391601562 C 377.2334899902344 541.214599609375 345.4908752441406 546.1715698242188 241.3780059814453 550.2266845703125" stroke-width="22.21844482421875" fill="none" stroke="rgb(0, 0, 0)" stroke-opacity="1.0" stroke-linecap="round" stroke-linejoin="round"/>
    <path d="M 471.8371887207031 506.8796081542969 C 439.19622802734375 495.5045166015625 425.2826232910156 464.2525329589844 386.8029479980469 455.6999816894531 C 405.0455322265625 486.82403564453125 456.7557678222656 439.6700439453125 435.7491455078125 496.99981689453125 C 420.2018737792969 549.2340698242188 405.0610656738281 564.7438354492188 406.3332214355469 534.4551391601562 C 377.2334899902344 541.214599609375 345.4908752441406 546.1715698242188 241.3780059814453 550.2266845703125" stroke-width="22.21844482421875" fill="none" stroke="rgb(0, 0, 0)" stroke-opacity="1.0" stroke-linecap="round" stroke-linejoin="round"/>
    <path d="M 392.81048583984375 244.0075225830078 C 381.156005859375 269.71234130859375 390.48406982421875 306.1047668457031 432.3480224609375 306.9624328613281 C 366.66552734375 237.07545471191406 354.8040771484375 250.91981506347656 381.4960632324219 292.8986511230469 C 356.75128173828125 236.3351593017578 349.8533020019531 277.32958984375 360.0650939941406 287.7061462402344 C 363.43218994140625 321.64990234375 401.66448974609375 354.28466796875 406.4632263183594 340.75347900390625" stroke-width="24.080778121948242" fill="none" stroke="rgb(0, 0, 0)" stroke-opacity="1.0" stroke-linecap="round" stroke-linejoin="round"/>
    <path d="M 586.8732299804688 606.9183349609375 C 587.60107421875 636.7478637695312 589.8704223632812 657.4840698242188 558.7380981445312 624.387939453125 C 535.771484375 616.7913208007812 518.4332885742188 630.5279541015625 543.0198364257812 631.3165283203125 C 572.498291015625 624.2711181640625 553.9682006835938 627.5032348632812 537.2577514648438 617.2852172851562 C 566.528564453125 617.9467163085938 546.4266357421875 641.1104736328125 542.3344116210938 642.4563598632812" stroke-width="8.716192245483398" fill="none" stroke="rgb(0, 0, 0)" stroke-opacity="0.16897707" stroke-linecap="round" stroke-linejoin="round"/>
    <path d="M 471.8371887207031 506.8796081542969 C 439.19622802734375 495.5045166015625 425.2826232910156 464.2525329589844 386.8029479980469 455.6999816894531 C 405.0455322265625 486.82403564453125 456.7557678222656 439.6700439453125 435.7491455078125 496.99981689453125 C 420.2018737792969 549.2340698242188 405.0610656738281 564.7438354492188 406.3332214355469 534.4551391601562 C 377.2334899902344 541.214599609375 345.4908752441406 546.1715698242188 241.3780059814453 550.2266845703125" stroke-width="22.21844482421875" fill="none" stroke="rgb(0, 0, 0)" stroke-opacity="1.0" stroke-linecap="round" stroke-linejoin="round"/>
    <path d="M 229.0993194580078 433.65936279296875 C 232.91586303710938 392.8013916015625 260.669189453125 411.9327087402344 322.99334716796875 403.3489074707031 C 371.4824523925781 396.9433288574219 344.7594909667969 399.51434326171875 394.0643310546875 387.109375 C 433.04022216796875 368.40716552734375 401.3827819824219 380.55615234375 398.1273193359375 404.724853515625 C 435.52923583984375 419.17633056640625 463.6656799316406 445.15728759765625 424.6759948730469 368.4184265136719" stroke-width="33.50356674194336" fill="none" stroke="rgb(0, 0, 0)" stroke-opacity="1.0" stroke-linecap="round" stroke-linejoin="round"/>
    <path d="M 471.8371887207031 506.8796081542969 C 439.19622802734375 495.5045166015625 425.2826232910156 464.2525329589844 386.8029479980469 455.6999816894531 C 405.0455322265625 486.82403564453125 456.7557678222656 439.6700439453125 435.7491455078125 496.99981689453125 C 420.2018737792969 549.2340698242188 405.0610656738281 564.7438354492188 406.3332214355469 534.4551391601562 C 377.2334899902344 541.214599609375 345.4908752441406 546.1715698242188 241.3780059814453 550.2266845703125" stroke-width="22.21844482421875" fill="none" stroke="rgb(0, 0, 0)" stroke-opacity="1.0" stroke-linecap="round" stroke-linejoin="round"/>
    <path d="M 34.78047561645508 506.6126708984375 C 35.6532096862793 523.3907470703125 95.08985137939453 515.34619140625 88.24695587158203 524.7828979492188 C 7.714493274688721 520.2943115234375 47.30647659301758 519.6038208007812 68.83976745605469 518.31591796875 C 24.95125961303711 521.2998046875 52.033050537109375 526.7205810546875 95.7395248413086 543.034423828125 C 47.79138946533203 563.4871215820312 47.36015701293945 504.63189697265625 59.95490264892578 518.5418090820312" stroke-width="9.403231620788574" fill="none" stroke="rgb(0, 0, 0)" stroke-opacity="1.0" stroke-linecap="round" stroke-linejoin="round"/>
    <path d="M 471.8371887207031 506.8796081542969 C 439.19622802734375 495.5045166015625 425.2826232910156 464.2525329589844 386.8029479980469 455.6999816894531 C 405.0455322265625 486.82403564453125 456.7557678222656 439.6700439453125 435.7491455078125 496.99981689453125 C 420.2018737792969 549.2340698242188 405.0610656738281 564.7438354492188 406.3332214355469 534.4551391601562 C 377.2334899902344 541.214599609375 345.4908752441406 546.1715698242188 241.3780059814453 550.2266845703125" stroke-width="22.21844482421875" fill="none" stroke="rgb(0, 0, 0)" stroke-opacity="1.0" stroke-linecap="round" stroke-linejoin="round"/>
    <path d="M 471.8371887207031 506.8796081542969 C 439.19622802734375 495.5045166015625 425.2826232910156 464.2525329589844 386.8029479980469 455.6999816894531 C 405.0455322265625 486.82403564453125 456.7557678222656 439.6700439453125 435.7491455078125 496.99981689453125 C 420.2018737792969 549.2340698242188 405.0610656738281 564.7438354492188 406.3332214355469 534.4551391601562 C 377.2334899902344 541.214599609375 345.4908752441406 546.1715698242188 241.3780059814453 550.2266845703125" stroke-width="22.21844482421875" fill="none" stroke="rgb(0, 0, 0)" stroke-opacity="1.0" stroke-linecap="round" stroke-linejoin="round"/>
    <path d="M 471.8371887207031 506.8796081542969 C 439.19622802734375 495.5045166015625 425.2826232910156 464.2525329589844 386.8029479980469 455.6999816894531 C 405.0455322265625 486.82403564453125 456.7557678222656 439.6700439453125 435.7491455078125 496.99981689453125 C 420.2018737792969 549.2340698242188 405.0610656738281 564.7438354492188 406.3332214355469 534.4551391601562 C 377.2334899902344 541.214599609375 345.4908752441406 546.1715698242188 241.3780059814453 550.2266845703125" stroke-width="22.21844482421875" fill="none" stroke="rgb(0, 0, 0)" stroke-opacity="1.0" stroke-linecap="round" stroke-linejoin="round"/>
    <path d="M 366.46319580078125 602.4093627929688 C 354.34033203125 527.2636108398438 374.385986328125 536.5505981445312 392.1752014160156 592.1585693359375 C 407.55230712890625 541.900390625 391.17071533203125 553.78662109375 353.49261474609375 556.4481201171875 C 441.0578308105469 541.5059814453125 483.77880859375 510.43084716796875 467.834716796875 596.4374389648438 C 467.7977294921875 604.8670043945312 441.3171691894531 586.5439453125 359.1756591796875 589.4971923828125" stroke-width="21.30921173095703" fill="none" stroke="rgb(0, 0, 0)" stroke-opacity="1.0" stroke-linecap="round" stroke-linejoin="round"/>
    <path d="M 471.8371887207031 506.8796081542969 C 439.19622802734375 495.5045166015625 425.2826232910156 464.2525329589844 386.8029479980469 455.6999816894531 C 405.0455322265625 486.82403564453125 456.7557678222656 439.6700439453125 435.7491455078125 496.99981689453125 C 420.2018737792969 549.2340698242188 405.0610656738281 564.7438354492188 406.3332214355469 534.4551391601562 C 377.2334899902344 541.214599609375 345.4908752441406 546.1715698242188 241.3780059814453 550.2266845703125" stroke-width="22.21844482421875" fill="none" stroke="rgb(0, 0, 0)" stroke-opacity="1.0" stroke-linecap="round" stroke-linejoin="round"/>
    <path d="M 471.8371887207031 506.8796081542969 C 439.19622802734375 495.5045166015625 425.2826232910156 464.2525329589844 386.8029479980469 455.6999816894531 C 405.0455322265625 486.82403564453125 456.7557678222656 439.6700439453125 435.7491455078125 496.99981689453125 C 420.2018737792969 549.2340698242188 405.0610656738281 564.7438354492188 406.3332214355469 534.4551391601562 C 377.2334899902344 541.214599609375 345.4908752441406 546.1715698242188 241.3780059814453 550.2266845703125" stroke-width="22.21844482421875" fill="none" stroke="rgb(0, 0, 0)" stroke-opacity="1.0" stroke-linecap="round" stroke-linejoin="round"/>
    <path d="M 471.8371887207031 506.8796081542969 C 439.19622802734375 495.5045166015625 425.2826232910156 464.2525329589844 386.8029479980469 455.6999816894531 C 405.0455322265625 486.82403564453125 456.7557678222656 439.6700439453125 435.7491455078125 496.99981689453125 C 420.2018737792969 549.2340698242188 405.0610656738281 564.7438354492188 406.3332214355469 534.4551391601562 C 377.2334899902344 541.214599609375 345.4908752441406 546.1715698242188 241.3780059814453 550.2266845703125" stroke-width="22.21844482421875" fill="none" stroke="rgb(0, 0, 0)" stroke-opacity="1.0" stroke-linecap="round" stroke-linejoin="round"/>
    <path d="M 471.8371887207031 506.8796081542969 C 439.19622802734375 495.5045166015625 425.2826232910156 464.2525329589844 386.8029479980469 455.6999816894531 C 405.0455322265625 486.82403564453125 456.7557678222656 439.6700439453125 435.7491455078125 496.99981689453125 C 420.2018737792969 549.2340698242188 405.0610656738281 564.7438354492188 406.3332214355469 534.4551391601562 C 377.2334899902344 541.214599609375 345.4908752441406 546.1715698242188 241.3780059814453 550.2266845703125" stroke-width="22.21844482421875" fill="none" stroke="rgb(0, 0, 0)" stroke-opacity="1.0" stroke-linecap="round" stroke-linejoin="round"/>
    <path d="M 471.8371887207031 506.8796081542969 C 439.19622802734375 495.5045166015625 425.2826232910156 464.2525329589844 386.8029479980469 455.6999816894531 C 405.0455322265625 486.82403564453125 456.7557678222656 439.6700439453125 435.7491455078125 496.99981689453125 C 420.2018737792969 549.2340698242188 405.0610656738281 564.7438354492188 406.3332214355469 534.4551391601562 C 377.2334899902344 541.214599609375 345.4908752441406 546.1715698242188 241.3780059814453 550.2266845703125" stroke-width="22.21844482421875" fill="none" stroke="rgb(0, 0, 0)" stroke-opacity="1.0" stroke-linecap="round" stroke-linejoin="round"/>
    <path d="M 471.8371887207031 506.8796081542969 C 439.19622802734375 495.5045166015625 425.2826232910156 464.2525329589844 386.8029479980469 455.6999816894531 C 405.0455322265625 486.82403564453125 456.7557678222656 439.6700439453125 435.7491455078125 496.99981689453125 C 420.2018737792969 549.2340698242188 405.0610656738281 564.7438354492188 406.3332214355469 534.4551391601562 C 377.2334899902344 541.214599609375 345.4908752441406 546.1715698242188 241.3780059814453 550.2266845703125" stroke-width="22.21844482421875" fill="none" stroke="rgb(0, 0, 0)" stroke-opacity="1.0" stroke-linecap="round" stroke-linejoin="round"/>
    <path d="M 471.8371887207031 506.8796081542969 C 439.19622802734375 495.5045166015625 425.2826232910156 464.2525329589844 386.8029479980469 455.6999816894531 C 405.0455322265625 486.82403564453125 456.7557678222656 439.6700439453125 435.7491455078125 496.99981689453125 C 420.2018737792969 549.2340698242188 405.0610656738281 564.7438354492188 406.3332214355469 534.4551391601562 C 377.2334899902344 541.214599609375 345.4908752441406 546.1715698242188 241.3780059814453 550.2266845703125" stroke-width="22.21844482421875" fill="none" stroke="rgb(0, 0, 0)" stroke-opacity="1.0" stroke-linecap="round" stroke-linejoin="round"/>
    <path d="M 183.34347534179688 619.24169921875 C 155.2843475341797 547.8733520507812 166.33547973632812 612.5152587890625 173.07113647460938 647.58447265625 C 171.45681762695312 579.0289306640625 171.23362731933594 538.9713134765625 199.1523895263672 545.8483276367188 C 179.8675079345703 558.3648681640625 186.0602264404297 518.4454956054688 221.9718475341797 475.5481872558594 C 255.65721130371094 487.1963195800781 223.912109375 451.4626770019531 228.68856811523438 444.37921142578125" stroke-width="-12.692644119262695" fill="none" stroke="rgb(0, 0, 0)" stroke-opacity="0.042422887" stroke-linecap="round" stroke-linejoin="round"/>
    <path d="M 251.8274688720703 560.2080078125 C 248.74209594726562 650.5867919921875 252.82728576660156 577.9673461914062 241.87326049804688 556.357666015625 C 100.14716339111328 533.0963745117188 31.120243072509766 549.1943969726562 176.04652404785156 556.611572265625 C 155.656494140625 483.2690734863281 155.25601196289062 503.4761962890625 159.85906982421875 502.2442626953125 C 179.38363647460938 487.9984130859375 143.9608154296875 509.18585205078125 89.72296142578125 521.0634765625" stroke-width="10.344005584716797" fill="none" stroke="rgb(0, 0, 0)" stroke-opacity="1.0" stroke-linecap="round" stroke-linejoin="round"/>
    <path d="M 292.2997131347656 531.7271728515625 C 292.4585876464844 556.8920288085938 285.5745849609375 573.3909301757812 286.4582824707031 557.2794799804688 C 296.7657775878906 548.2052612304688 324.791259765625 555.102783203125 308.5813903808594 542.0475463867188 C 302.00408935546875 556.41064453125 355.4263610839844 544.3508911132812 391.30548095703125 544.3212890625 C 399.7919921875 590.7615356445312 400.27850341796875 532.1209106445312 341.8872375488281 535.7997436523438" stroke-width="-1.2327390909194946" fill="none" stroke="rgb(0, 0, 0)" stroke-opacity="0.114270926" stroke-linecap="round" stroke-linejoin="round"/>
    <path d="M 471.8371887207031 506.8796081542969 C 439.19622802734375 495.5045166015625 425.2826232910156 464.2525329589844 386.8029479980469 455.6999816894531 C 405.0455322265625 486.82403564453125 456.7557678222656 439.6700439453125 435.7491455078125 496.99981689453125 C 420.2018737792969 549.2340698242188 405.0610656738281 564.7438354492188 406.3332214355469 534.4551391601562 C 377.2334899902344 541.214599609375 345.4908752441406 546.1715698242188 241.3780059814453 550.2266845703125" stroke-width="22.21844482421875" fill="none" stroke="rgb(0, 0, 0)" stroke-opacity="1.0" stroke-linecap="round" stroke-linejoin="round"/>
    <path d="M 223.48455810546875 593.7879638671875 C 329.8574523925781 594.1505737304688 408.7367248535156 585.3912353515625 357.5162048339844 588.1436767578125 C 345.80987548828125 599.4484252929688 324.9150695800781 623.7335815429688 317.4214782714844 653.4851684570312 C 270.4976806640625 651.3745727539062 283.5810241699219 647.1633911132812 303.529296875 640.25732421875 C 298.2016296386719 611.8336181640625 316.9532470703125 602.7442016601562 293.7959289550781 622.9487915039062" stroke-width="23.962223052978516" fill="none" stroke="rgb(0, 0, 0)" stroke-opacity="1.0" stroke-linecap="round" stroke-linejoin="round"/>
    <path d="M 471.8371887207031 506.8796081542969 C 439.19622802734375 495.5045166015625 425.2826232910156 464.2525329589844 386.8029479980469 455.6999816894531 C 405.0455322265625 486.82403564453125 456.7557678222656 439.6700439453125 435.7491455078125 496.99981689453125 C 420.2018737792969 549.2340698242188 405.0610656738281 564.7438354492188 406.3332214355469 534.4551391601562 C 377.2334899902344 541.214599609375 345.4908752441406 546.1715698242188 241.3780059814453 550.2266845703125" stroke-width="22.21844482421875" fill="none" stroke="rgb(0, 0, 0)" stroke-opacity="1.0" stroke-linecap="round" stroke-linejoin="round"/>
    <path d="M 471.8371887207031 506.8796081542969 C 439.19622802734375 495.5045166015625 425.2826232910156 464.2525329589844 386.8029479980469 455.6999816894531 C 405.0455322265625 486.82403564453125 456.7557678222656 439.6700439453125 435.7491455078125 496.99981689453125 C 420.2018737792969 549.2340698242188 405.0610656738281 564.7438354492188 406.3332214355469 534.4551391601562 C 377.2334899902344 541.214599609375 345.4908752441406 546.1715698242188 241.3780059814453 550.2266845703125" stroke-width="22.21844482421875" fill="none" stroke="rgb(0, 0, 0)" stroke-opacity="1.0" stroke-linecap="round" stroke-linejoin="round"/>
    <path d="M 596.3062133789062 537.3843994140625 C 563.3981323242188 561.0177001953125 484.7651672363281 503.026123046875 542.8880004882812 552.1463623046875 C 514.8568115234375 565.4095458984375 465.3065185546875 555.7775268554688 413.8922424316406 546.1436157226562 C 457.8155517578125 508.02801513671875 441.2345886230469 547.9722290039062 413.9777526855469 537.3416748046875 C 342.9639892578125 554.2041015625 390.0083312988281 548.2874145507812 432.6519470214844 515.9319458007812" stroke-width="27.544160842895508" fill="none" stroke="rgb(0, 0, 0)" stroke-opacity="1.0" stroke-linecap="round" stroke-linejoin="round"/>
    <path d="M 471.8371887207031 506.8796081542969 C 439.19622802734375 495.5045166015625 425.2826232910156 464.2525329589844 386.8029479980469 455.6999816894531 C 405.0455322265625 486.82403564453125 456.7557678222656 439.6700439453125 435.7491455078125 496.99981689453125 C 420.2018737792969 549.2340698242188 405.0610656738281 564.7438354492188 406.3332214355469 534.4551391601562 C 377.2334899902344 541.214599609375 345.4908752441406 546.1715698242188 241.3780059814453 550.2266845703125" stroke-width="22.21844482421875" fill="none" stroke="rgb(0, 0, 0)" stroke-opacity="1.0" stroke-linecap="round" stroke-linejoin="round"/>
    <path d="M 241.53878784179688 271.68048095703125 C 292.3799743652344 262.9227294921875 275.3294677734375 271.82464599609375 278.8236083984375 348.2809143066406 C 242.0804901123047 325.6182556152344 251.9148712158203 359.0888671875 256.1844482421875 325.8309631347656 C 271.828125 312.53607177734375 228.97586059570312 321.814453125 263.9604187011719 302.27557373046875 C 205.5814971923828 225.46157836914062 211.29490661621094 270.9127502441406 280.2682189941406 227.94154357910156" stroke-width="1.1419981718063354" fill="none" stroke="rgb(0, 0, 0)" stroke-opacity="0.85345864" stroke-linecap="round" stroke-linejoin="round"/>
    <path d="M 471.8371887207031 506.8796081542969 C 439.19622802734375 495.5045166015625 425.2826232910156 464.2525329589844 386.8029479980469 455.6999816894531 C 405.0455322265625 486.82403564453125 456.7557678222656 439.6700439453125 435.7491455078125 496.99981689453125 C 420.2018737792969 549.2340698242188 405.0610656738281 564.7438354492188 406.3332214355469 534.4551391601562 C 377.2334899902344 541.214599609375 345.4908752441406 546.1715698242188 241.3780059814453 550.2266845703125" stroke-width="22.21844482421875" fill="none" stroke="rgb(0, 0, 0)" stroke-opacity="1.0" stroke-linecap="round" stroke-linejoin="round"/>
    <path d="M 471.8371887207031 506.8796081542969 C 439.19622802734375 495.5045166015625 425.2826232910156 464.2525329589844 386.8029479980469 455.6999816894531 C 405.0455322265625 486.82403564453125 456.7557678222656 439.6700439453125 435.7491455078125 496.99981689453125 C 420.2018737792969 549.2340698242188 405.0610656738281 564.7438354492188 406.3332214355469 534.4551391601562 C 377.2334899902344 541.214599609375 345.4908752441406 546.1715698242188 241.3780059814453 550.2266845703125" stroke-width="22.21844482421875" fill="none" stroke="rgb(0, 0, 0)" stroke-opacity="1.0" stroke-linecap="round" stroke-linejoin="round"/>
    <path d="M 471.8371887207031 506.8796081542969 C 439.19622802734375 495.5045166015625 425.2826232910156 464.2525329589844 386.8029479980469 455.6999816894531 C 405.0455322265625 486.82403564453125 456.7557678222656 439.6700439453125 435.7491455078125 496.99981689453125 C 420.2018737792969 549.2340698242188 405.0610656738281 564.7438354492188 406.3332214355469 534.4551391601562 C 377.2334899902344 541.214599609375 345.4908752441406 546.1715698242188 241.3780059814453 550.2266845703125" stroke-width="22.21844482421875" fill="none" stroke="rgb(0, 0, 0)" stroke-opacity="1.0" stroke-linecap="round" stroke-linejoin="round"/>
    <path d="M 234.6529541015625 144.24908447265625 C 234.3545684814453 155.3975372314453 188.62643432617188 129.20089721679688 262.7453308105469 146.72914123535156 C 321.8044128417969 127.604736328125 284.0572509765625 138.43605041503906 296.5240478515625 134.51950073242188 C 279.7105712890625 139.4195556640625 324.7964782714844 124.91156005859375 295.0245666503906 135.81509399414062 C 252.84104919433594 151.2067413330078 267.2676086425781 135.3366241455078 254.7151336669922 144.13978576660156" stroke-width="6.237066745758057" fill="none" stroke="rgb(0, 0, 0)" stroke-opacity="1.0" stroke-linecap="round" stroke-linejoin="round"/>
    <path d="M 471.8371887207031 506.8796081542969 C 439.19622802734375 495.5045166015625 425.2826232910156 464.2525329589844 386.8029479980469 455.6999816894531 C 405.0455322265625 486.82403564453125 456.7557678222656 439.6700439453125 435.7491455078125 496.99981689453125 C 420.2018737792969 549.2340698242188 405.0610656738281 564.7438354492188 406.3332214355469 534.4551391601562 C 377.2334899902344 541.214599609375 345.4908752441406 546.1715698242188 241.3780059814453 550.2266845703125" stroke-width="22.21844482421875" fill="none" stroke="rgb(0, 0, 0)" stroke-opacity="1.0" stroke-linecap="round" stroke-linejoin="round"/>
    <path d="M 471.8371887207031 506.8796081542969 C 439.19622802734375 495.5045166015625 425.2826232910156 464.2525329589844 386.8029479980469 455.6999816894531 C 405.0455322265625 486.82403564453125 456.7557678222656 439.6700439453125 435.7491455078125 496.99981689453125 C 420.2018737792969 549.2340698242188 405.0610656738281 564.7438354492188 406.3332214355469 534.4551391601562 C 377.2334899902344 541.214599609375 345.4908752441406 546.1715698242188 241.3780059814453 550.2266845703125" stroke-width="22.21844482421875" fill="none" stroke="rgb(0, 0, 0)" stroke-opacity="1.0" stroke-linecap="round" stroke-linejoin="round"/>
    <path d="M 471.8371887207031 506.8796081542969 C 439.19622802734375 495.5045166015625 425.2826232910156 464.2525329589844 386.8029479980469 455.6999816894531 C 405.0455322265625 486.82403564453125 456.7557678222656 439.6700439453125 435.7491455078125 496.99981689453125 C 420.2018737792969 549.2340698242188 405.0610656738281 564.7438354492188 406.3332214355469 534.4551391601562 C 377.2334899902344 541.214599609375 345.4908752441406 546.1715698242188 241.3780059814453 550.2266845703125" stroke-width="22.21844482421875" fill="none" stroke="rgb(0, 0, 0)" stroke-opacity="1.0" stroke-linecap="round" stroke-linejoin="round"/>
    <path d="M 221.20156860351562 411.8055114746094 C 306.864013671875 407.106201171875 330.5476989746094 403.6541442871094 355.3136901855469 408.7984313964844 C 447.1065368652344 399.7190856933594 450.4424133300781 390.13427734375 450.9979248046875 464.6245422363281 C 373.2790222167969 476.6479797363281 373.2966003417969 420.8267517089844 415.6313781738281 393.0481262207031 C 395.0315246582031 394.009765625 389.1441650390625 403.37030029296875 374.48193359375 414.12823486328125" stroke-width="7.044563293457031" fill="none" stroke="rgb(0, 0, 0)" stroke-opacity="1.0" stroke-linecap="round" stroke-linejoin="round"/>
    <path d="M 471.8371887207031 506.8796081542969 C 439.19622802734375 495.5045166015625 425.2826232910156 464.2525329589844 386.8029479980469 455.6999816894531 C 405.0455322265625 486.82403564453125 456.7557678222656 439.6700439453125 435.7491455078125 496.99981689453125 C 420.2018737792969 549.2340698242188 405.0610656738281 564.7438354492188 406.3332214355469 534.4551391601562 C 377.2334899902344 541.214599609375 345.4908752441406 546.1715698242188 241.3780059814453 550.2266845703125" stroke-width="22.21844482421875" fill="none" stroke="rgb(0, 0, 0)" stroke-opacity="1.0" stroke-linecap="round" stroke-linejoin="round"/>
    <path d="M 506.61480712890625 263.41632080078125 C 503.7021484375 259.98248291015625 519.4642944335938 241.62521362304688 500.2693176269531 272.76959228515625 C 512.7692260742188 288.4843444824219 509.4728088378906 268.50274658203125 501.3342590332031 269.683349609375 C 519.7423095703125 252.2255096435547 505.19781494140625 254.54165649414062 505.405029296875 272.01422119140625 C 526.1427612304688 275.3656005859375 504.95489501953125 290.6040344238281 435.7249450683594 291.2144470214844" stroke-width="23.837915420532227" fill="none" stroke="rgb(0, 0, 0)" stroke-opacity="0.26164716" stroke-linecap="round" stroke-linejoin="round"/>
    <path d="M 562.193603515625 419.4454040527344 C 524.9573974609375 454.417236328125 462.94384765625 398.06378173828125 505.2376708984375 420.7083435058594 C 551.9232177734375 429.7826843261719 555.533447265625 423.2148742675781 488.3046875 433.8564453125 C 477.1652526855469 411.7814025878906 493.1709289550781 394.3197326660156 402.7374267578125 412.1036376953125 C 492.45196533203125 445.2427673339844 529.7615356445312 433.3506164550781 458.1519775390625 445.8833923339844" stroke-width="27.3349552154541" fill="none" stroke="rgb(0, 0, 0)" stroke-opacity="1.0" stroke-linecap="round" stroke-linejoin="round"/>
    <path d="M 471.8371887207031 506.8796081542969 C 439.19622802734375 495.5045166015625 425.2826232910156 464.2525329589844 386.8029479980469 455.6999816894531 C 405.0455322265625 486.82403564453125 456.7557678222656 439.6700439453125 435.7491455078125 496.99981689453125 C 420.2018737792969 549.2340698242188 405.0610656738281 564.7438354492188 406.3332214355469 534.4551391601562 C 377.2334899902344 541.214599609375 345.4908752441406 546.1715698242188 241.3780059814453 550.2266845703125" stroke-width="22.21844482421875" fill="none" stroke="rgb(0, 0, 0)" stroke-opacity="1.0" stroke-linecap="round" stroke-linejoin="round"/>
    <path d="M 471.8371887207031 506.8796081542969 C 439.19622802734375 495.5045166015625 425.2826232910156 464.2525329589844 386.8029479980469 455.6999816894531 C 405.0455322265625 486.82403564453125 456.7557678222656 439.6700439453125 435.7491455078125 496.99981689453125 C 420.2018737792969 549.2340698242188 405.0610656738281 564.7438354492188 406.3332214355469 534.4551391601562 C 377.2334899902344 541.214599609375 345.4908752441406 546.1715698242188 241.3780059814453 550.2266845703125" stroke-width="22.21844482421875" fill="none" stroke="rgb(0, 0, 0)" stroke-opacity="1.0" stroke-linecap="round" stroke-linejoin="round"/>
    <path d="M 471.8371887207031 506.8796081542969 C 439.19622802734375 495.5045166015625 425.2826232910156 464.2525329589844 386.8029479980469 455.6999816894531 C 405.0455322265625 486.82403564453125 456.7557678222656 439.6700439453125 435.7491455078125 496.99981689453125 C 420.2018737792969 549.2340698242188 405.0610656738281 564.7438354492188 406.3332214355469 534.4551391601562 C 377.2334899902344 541.214599609375 345.4908752441406 546.1715698242188 241.3780059814453 550.2266845703125" stroke-width="22.21844482421875" fill="none" stroke="rgb(0, 0, 0)" stroke-opacity="1.0" stroke-linecap="round" stroke-linejoin="round"/>
    <path d="M 391.89697265625 391.05413818359375 C 468.970458984375 376.1244201660156 462.8951110839844 391.7626647949219 404.4645080566406 391.01531982421875 C 435.5829162597656 371.9847412109375 446.9241943359375 405.1393737792969 375.4811706542969 377.9422302246094 C 408.48468017578125 363.0210876464844 418.95111083984375 383.8412780761719 439.808837890625 413.1027526855469 C 418.6159362792969 423.9969787597656 393.549072265625 388.04376220703125 394.4667053222656 403.7129821777344" stroke-width="11.868236541748047" fill="none" stroke="rgb(0, 0, 0)" stroke-opacity="0.116787136" stroke-linecap="round" stroke-linejoin="round"/>
    <path d="M 471.8371887207031 506.8796081542969 C 439.19622802734375 495.5045166015625 425.2826232910156 464.2525329589844 386.8029479980469 455.6999816894531 C 405.0455322265625 486.82403564453125 456.7557678222656 439.6700439453125 435.7491455078125 496.99981689453125 C 420.2018737792969 549.2340698242188 405.0610656738281 564.7438354492188 406.3332214355469 534.4551391601562 C 377.2334899902344 541.214599609375 345.4908752441406 546.1715698242188 241.3780059814453 550.2266845703125" stroke-width="22.21844482421875" fill="none" stroke="rgb(0, 0, 0)" stroke-opacity="1.0" stroke-linecap="round" stroke-linejoin="round"/>
    <path d="M 471.8371887207031 506.8796081542969 C 439.19622802734375 495.5045166015625 425.2826232910156 464.2525329589844 386.8029479980469 455.6999816894531 C 405.0455322265625 486.82403564453125 456.7557678222656 439.6700439453125 435.7491455078125 496.99981689453125 C 420.2018737792969 549.2340698242188 405.0610656738281 564.7438354492188 406.3332214355469 534.4551391601562 C 377.2334899902344 541.214599609375 345.4908752441406 546.1715698242188 241.3780059814453 550.2266845703125" stroke-width="22.21844482421875" fill="none" stroke="rgb(0, 0, 0)" stroke-opacity="1.0" stroke-linecap="round" stroke-linejoin="round"/>
    <path d="M 471.8371887207031 506.8796081542969 C 439.19622802734375 495.5045166015625 425.2826232910156 464.2525329589844 386.8029479980469 455.6999816894531 C 405.0455322265625 486.82403564453125 456.7557678222656 439.6700439453125 435.7491455078125 496.99981689453125 C 420.2018737792969 549.2340698242188 405.0610656738281 564.7438354492188 406.3332214355469 534.4551391601562 C 377.2334899902344 541.214599609375 345.4908752441406 546.1715698242188 241.3780059814453 550.2266845703125" stroke-width="22.21844482421875" fill="none" stroke="rgb(0, 0, 0)" stroke-opacity="1.0" stroke-linecap="round" stroke-linejoin="round"/>
    <path d="M 471.8371887207031 506.8796081542969 C 439.19622802734375 495.5045166015625 425.2826232910156 464.2525329589844 386.8029479980469 455.6999816894531 C 405.0455322265625 486.82403564453125 456.7557678222656 439.6700439453125 435.7491455078125 496.99981689453125 C 420.2018737792969 549.2340698242188 405.0610656738281 564.7438354492188 406.3332214355469 534.4551391601562 C 377.2334899902344 541.214599609375 345.4908752441406 546.1715698242188 241.3780059814453 550.2266845703125" stroke-width="22.21844482421875" fill="none" stroke="rgb(0, 0, 0)" stroke-opacity="1.0" stroke-linecap="round" stroke-linejoin="round"/>
    <path d="M 404.0635681152344 452.3745422363281 C 370.7440490722656 472.021728515625 373.8378601074219 425.4904479980469 381.34515380859375 409.793701171875 C 385.000732421875 399.5379333496094 334.9060363769531 428.5491027832031 369.12335205078125 430.7633972167969 C 356.15399169921875 433.25860595703125 354.9056701660156 463.324462890625 308.88397216796875 447.3006286621094 C 307.9165344238281 451.4848327636719 303.845458984375 446.5884704589844 274.6328125 450.314697265625" stroke-width="18.876136779785156" fill="none" stroke="rgb(0, 0, 0)" stroke-opacity="0.9990567" stroke-linecap="round" stroke-linejoin="round"/>
    <path d="M 471.8371887207031 506.8796081542969 C 439.19622802734375 495.5045166015625 425.2826232910156 464.2525329589844 386.8029479980469 455.6999816894531 C 405.0455322265625 486.82403564453125 456.7557678222656 439.6700439453125 435.7491455078125 496.99981689453125 C 420.2018737792969 549.2340698242188 405.0610656738281 564.7438354492188 406.3332214355469 534.4551391601562 C 377.2334899902344 541.214599609375 345.4908752441406 546.1715698242188 241.3780059814453 550.2266845703125" stroke-width="22.21844482421875" fill="none" stroke="rgb(0, 0, 0)" stroke-opacity="1.0" stroke-linecap="round" stroke-linejoin="round"/>
    <path d="M 274.4154357910156 340.335693359375 C 199.3618927001953 376.0052795410156 176.28338623046875 374.1410827636719 152.6841278076172 375.9456481933594 C 188.80674743652344 375.4239807128906 186.11618041992188 380.1047668457031 197.2412567138672 371.6174011230469 C 189.88328552246094 359.58795166015625 210.45785522460938 382.783935546875 129.13043212890625 379.9647521972656 C 164.68377685546875 373.8614807128906 146.58546447753906 394.2245788574219 96.01814270019531 377.66180419921875" stroke-width="6.015326023101807" fill="none" stroke="rgb(0, 0, 0)" stroke-opacity="1.0" stroke-linecap="round" stroke-linejoin="round"/>
    <path d="M 496.40399169921875 336.9912109375 C 536.4454956054688 350.39617919921875 537.8392944335938 355.7514343261719 507.6982116699219 301.6537780761719 C 480.31201171875 293.7030334472656 452.1651611328125 298.027099609375 457.03704833984375 405.71978759765625 C 549.0270385742188 385.5320739746094 557.9810180664062 375.2248229980469 592.0543823242188 325.95703125 C 552.8635864257812 290.3570861816406 601.1544189453125 284.4546203613281 577.713623046875 255.5756072998047" stroke-width="-40.612342834472656" fill="none" stroke="rgb(0, 0, 0)" stroke-opacity="0.0" stroke-linecap="round" stroke-linejoin="round"/>
    <path d="M 471.8371887207031 506.8796081542969 C 439.19622802734375 495.5045166015625 425.2826232910156 464.2525329589844 386.8029479980469 455.6999816894531 C 405.0455322265625 486.82403564453125 456.7557678222656 439.6700439453125 435.7491455078125 496.99981689453125 C 420.2018737792969 549.2340698242188 405.0610656738281 564.7438354492188 406.3332214355469 534.4551391601562 C 377.2334899902344 541.214599609375 345.4908752441406 546.1715698242188 241.3780059814453 550.2266845703125" stroke-width="22.21844482421875" fill="none" stroke="rgb(0, 0, 0)" stroke-opacity="1.0" stroke-linecap="round" stroke-linejoin="round"/>
    <path d="M 471.8371887207031 506.8796081542969 C 439.19622802734375 495.5045166015625 425.2826232910156 464.2525329589844 386.8029479980469 455.6999816894531 C 405.0455322265625 486.82403564453125 456.7557678222656 439.6700439453125 435.7491455078125 496.99981689453125 C 420.2018737792969 549.2340698242188 405.0610656738281 564.7438354492188 406.3332214355469 534.4551391601562 C 377.2334899902344 541.214599609375 345.4908752441406 546.1715698242188 241.3780059814453 550.2266845703125" stroke-width="22.21844482421875" fill="none" stroke="rgb(0, 0, 0)" stroke-opacity="1.0" stroke-linecap="round" stroke-linejoin="round"/>
    <path d="M 471.8371887207031 506.8796081542969 C 439.19622802734375 495.5045166015625 425.2826232910156 464.2525329589844 386.8029479980469 455.6999816894531 C 405.0455322265625 486.82403564453125 456.7557678222656 439.6700439453125 435.7491455078125 496.99981689453125 C 420.2018737792969 549.2340698242188 405.0610656738281 564.7438354492188 406.3332214355469 534.4551391601562 C 377.2334899902344 541.214599609375 345.4908752441406 546.1715698242188 241.3780059814453 550.2266845703125" stroke-width="22.21844482421875" fill="none" stroke="rgb(0, 0, 0)" stroke-opacity="1.0" stroke-linecap="round" stroke-linejoin="round"/>
    <path d="M 471.8371887207031 506.8796081542969 C 439.19622802734375 495.5045166015625 425.2826232910156 464.2525329589844 386.8029479980469 455.6999816894531 C 405.0455322265625 486.82403564453125 456.7557678222656 439.6700439453125 435.7491455078125 496.99981689453125 C 420.2018737792969 549.2340698242188 405.0610656738281 564.7438354492188 406.3332214355469 534.4551391601562 C 377.2334899902344 541.214599609375 345.4908752441406 546.1715698242188 241.3780059814453 550.2266845703125" stroke-width="22.21844482421875" fill="none" stroke="rgb(0, 0, 0)" stroke-opacity="1.0" stroke-linecap="round" stroke-linejoin="round"/>
    <path d="M 471.8371887207031 506.8796081542969 C 439.19622802734375 495.5045166015625 425.2826232910156 464.2525329589844 386.8029479980469 455.6999816894531 C 405.0455322265625 486.82403564453125 456.7557678222656 439.6700439453125 435.7491455078125 496.99981689453125 C 420.2018737792969 549.2340698242188 405.0610656738281 564.7438354492188 406.3332214355469 534.4551391601562 C 377.2334899902344 541.214599609375 345.4908752441406 546.1715698242188 241.3780059814453 550.2266845703125" stroke-width="22.21844482421875" fill="none" stroke="rgb(0, 0, 0)" stroke-opacity="1.0" stroke-linecap="round" stroke-linejoin="round"/>
    <path d="M 180.1476287841797 124.72598266601562 C 178.94371032714844 123.14546966552734 176.55023193359375 123.67230224609375 189.33877563476562 128.10220336914062 C 216.00579833984375 132.8726043701172 202.13275146484375 86.31200408935547 223.9659423828125 153.1226348876953 C 263.83050537109375 188.2201385498047 194.62417602539062 90.0051040649414 225.881103515625 149.04568481445312 C 295.0569763183594 178.8367919921875 239.1003875732422 189.19602966308594 340.7770690917969 180.208740234375" stroke-width="2.946239471435547" fill="none" stroke="rgb(0, 0, 0)" stroke-opacity="0.47594392" stroke-linecap="round" stroke-linejoin="round"/>
    <path d="M 221.6619415283203 412.22747802734375 C 273.7540588378906 399.3701171875 250.3066864013672 395.32659912109375 224.14340209960938 400.9257507324219 C 227.27085876464844 408.8692626953125 245.119384765625 409.43536376953125 230.8993377685547 465.205078125 C 213.00177001953125 480.52618408203125 214.65428161621094 475.82275390625 198.23956298828125 490.18170166015625 C 219.55206298828125 474.3997802734375 189.65707397460938 492.35711669921875 165.94798278808594 500.1151428222656" stroke-width="3.945410966873169" fill="none" stroke="rgb(0, 0, 0)" stroke-opacity="1.0" stroke-linecap="round" stroke-linejoin="round"/>
    <path d="M 471.8371887207031 506.8796081542969 C 439.19622802734375 495.5045166015625 425.2826232910156 464.2525329589844 386.8029479980469 455.6999816894531 C 405.0455322265625 486.82403564453125 456.7557678222656 439.6700439453125 435.7491455078125 496.99981689453125 C 420.2018737792969 549.2340698242188 405.0610656738281 564.7438354492188 406.3332214355469 534.4551391601562 C 377.2334899902344 541.214599609375 345.4908752441406 546.1715698242188 241.3780059814453 550.2266845703125" stroke-width="22.21844482421875" fill="none" stroke="rgb(0, 0, 0)" stroke-opacity="1.0" stroke-linecap="round" stroke-linejoin="round"/>
    <path d="M 471.8371887207031 506.8796081542969 C 439.19622802734375 495.5045166015625 425.2826232910156 464.2525329589844 386.8029479980469 455.6999816894531 C 405.0455322265625 486.82403564453125 456.7557678222656 439.6700439453125 435.7491455078125 496.99981689453125 C 420.2018737792969 549.2340698242188 405.0610656738281 564.7438354492188 406.3332214355469 534.4551391601562 C 377.2334899902344 541.214599609375 345.4908752441406 546.1715698242188 241.3780059814453 550.2266845703125" stroke-width="22.21844482421875" fill="none" stroke="rgb(0, 0, 0)" stroke-opacity="1.0" stroke-linecap="round" stroke-linejoin="round"/>
    <path d="M 471.8371887207031 506.8796081542969 C 439.19622802734375 495.5045166015625 425.2826232910156 464.2525329589844 386.8029479980469 455.6999816894531 C 405.0455322265625 486.82403564453125 456.7557678222656 439.6700439453125 435.7491455078125 496.99981689453125 C 420.2018737792969 549.2340698242188 405.0610656738281 564.7438354492188 406.3332214355469 534.4551391601562 C 377.2334899902344 541.214599609375 345.4908752441406 546.1715698242188 241.3780059814453 550.2266845703125" stroke-width="22.21844482421875" fill="none" stroke="rgb(0, 0, 0)" stroke-opacity="1.0" stroke-linecap="round" stroke-linejoin="round"/>
    <path d="M 471.8371887207031 506.8796081542969 C 439.19622802734375 495.5045166015625 425.2826232910156 464.2525329589844 386.8029479980469 455.6999816894531 C 405.0455322265625 486.82403564453125 456.7557678222656 439.6700439453125 435.7491455078125 496.99981689453125 C 420.2018737792969 549.2340698242188 405.0610656738281 564.7438354492188 406.3332214355469 534.4551391601562 C 377.2334899902344 541.214599609375 345.4908752441406 546.1715698242188 241.3780059814453 550.2266845703125" stroke-width="22.21844482421875" fill="none" stroke="rgb(0, 0, 0)" stroke-opacity="1.0" stroke-linecap="round" stroke-linejoin="round"/>
    <path d="M 471.8371887207031 506.8796081542969 C 439.19622802734375 495.5045166015625 425.2826232910156 464.2525329589844 386.8029479980469 455.6999816894531 C 405.0455322265625 486.82403564453125 456.7557678222656 439.6700439453125 435.7491455078125 496.99981689453125 C 420.2018737792969 549.2340698242188 405.0610656738281 564.7438354492188 406.3332214355469 534.4551391601562 C 377.2334899902344 541.214599609375 345.4908752441406 546.1715698242188 241.3780059814453 550.2266845703125" stroke-width="22.21844482421875" fill="none" stroke="rgb(0, 0, 0)" stroke-opacity="1.0" stroke-linecap="round" stroke-linejoin="round"/>
    <path d="M 471.8371887207031 506.8796081542969 C 439.19622802734375 495.5045166015625 425.2826232910156 464.2525329589844 386.8029479980469 455.6999816894531 C 405.0455322265625 486.82403564453125 456.7557678222656 439.6700439453125 435.7491455078125 496.99981689453125 C 420.2018737792969 549.2340698242188 405.0610656738281 564.7438354492188 406.3332214355469 534.4551391601562 C 377.2334899902344 541.214599609375 345.4908752441406 546.1715698242188 241.3780059814453 550.2266845703125" stroke-width="22.21844482421875" fill="none" stroke="rgb(0, 0, 0)" stroke-opacity="1.0" stroke-linecap="round" stroke-linejoin="round"/>
    <path d="M 277.4880676269531 172.62367248535156 C 381.63714599609375 157.66348266601562 341.0250549316406 172.14938354492188 376.01123046875 148.6837921142578 C 384.8960876464844 188.42266845703125 441.3646240234375 199.12315368652344 361.23272705078125 176.9422149658203 C 374.1366882324219 192.08837890625 368.615478515625 214.96337890625 361.9769592285156 153.1011505126953 C 393.6617126464844 197.9436492919922 452.31243896484375 207.6539306640625 364.67388916015625 172.3235321044922" stroke-width="36.926727294921875" fill="none" stroke="rgb(0, 0, 0)" stroke-opacity="1.0" stroke-linecap="round" stroke-linejoin="round"/>
    <path d="M 273.2179870605469 551.03564453125 C 294.3614501953125 563.2850952148438 291.0799865722656 533.0015869140625 304.9587707519531 573.231201171875 C 323.3199462890625 535.5617065429688 293.0323181152344 543.621826171875 243.95567321777344 544.3862915039062 C 232.4136505126953 549.6905517578125 186.54335021972656 542.7258911132812 133.1391143798828 554.3135986328125 C 192.25918579101562 561.1577758789062 276.7751770019531 549.4981079101562 262.0703430175781 547.9752197265625" stroke-width="14.663147926330566" fill="none" stroke="rgb(0, 0, 0)" stroke-opacity="0.98989236" stroke-linecap="round" stroke-linejoin="round"/>
    <path d="M 292.3209533691406 210.3679656982422 C 393.8404541015625 188.44996643066406 417.99969482421875 192.62899780273438 381.8470153808594 249.42588806152344 C 344.31646728515625 281.8797607421875 334.77691650390625 294.5731506347656 355.72222900390625 263.6695251464844 C 303.6695251464844 277.5579528808594 282.6778869628906 274.5554504394531 373.18621826171875 285.1565246582031 C 350.7795715332031 286.0286865234375 350.8794250488281 255.939208984375 352.46734619140625 277.94659423828125" stroke-width="20.34210968017578" fill="none" stroke="rgb(0, 0, 0)" stroke-opacity="1.0" stroke-linecap="round" stroke-linejoin="round"/>
    <path d="M 471.8371887207031 506.8796081542969 C 439.19622802734375 495.5045166015625 425.2826232910156 464.2525329589844 386.8029479980469 455.6999816894531 C 405.0455322265625 486.82403564453125 456.7557678222656 439.6700439453125 435.7491455078125 496.99981689453125 C 420.2018737792969 549.2340698242188 405.0610656738281 564.7438354492188 406.3332214355469 534.4551391601562 C 377.2334899902344 541.214599609375 345.4908752441406 546.1715698242188 241.3780059814453 550.2266845703125" stroke-width="22.21844482421875" fill="none" stroke="rgb(0, 0, 0)" stroke-opacity="1.0" stroke-linecap="round" stroke-linejoin="round"/>
    <path d="M 96.14303588867188 552.3389282226562 C 214.1546173095703 566.2779541015625 267.3622131347656 539.5819702148438 266.7261657714844 543.7100219726562 C 202.6083221435547 546.0598754882812 281.6832275390625 555.383056640625 228.85101318359375 568.7152709960938 C 199.45306396484375 569.9882202148438 181.1125030517578 529.9518432617188 207.11099243164062 490.34722900390625 C 204.3882598876953 438.93292236328125 254.266357421875 450.4906311035156 199.02633666992188 444.5841369628906" stroke-width="-14.786272048950195" fill="none" stroke="rgb(0, 0, 0)" stroke-opacity="0.020036625" stroke-linecap="round" stroke-linejoin="round"/>
    <path d="M 471.8371887207031 506.8796081542969 C 439.19622802734375 495.5045166015625 425.2826232910156 464.2525329589844 386.8029479980469 455.6999816894531 C 405.0455322265625 486.82403564453125 456.7557678222656 439.6700439453125 435.7491455078125 496.99981689453125 C 420.2018737792969 549.2340698242188 405.0610656738281 564.7438354492188 406.3332214355469 534.4551391601562 C 377.2334899902344 541.214599609375 345.4908752441406 546.1715698242188 241.3780059814453 550.2266845703125" stroke-width="22.21844482421875" fill="none" stroke="rgb(0, 0, 0)" stroke-opacity="1.0" stroke-linecap="round" stroke-linejoin="round"/>
    <path d="M 471.8371887207031 506.8796081542969 C 439.19622802734375 495.5045166015625 425.2826232910156 464.2525329589844 386.8029479980469 455.6999816894531 C 405.0455322265625 486.82403564453125 456.7557678222656 439.6700439453125 435.7491455078125 496.99981689453125 C 420.2018737792969 549.2340698242188 405.0610656738281 564.7438354492188 406.3332214355469 534.4551391601562 C 377.2334899902344 541.214599609375 345.4908752441406 546.1715698242188 241.3780059814453 550.2266845703125" stroke-width="22.21844482421875" fill="none" stroke="rgb(0, 0, 0)" stroke-opacity="1.0" stroke-linecap="round" stroke-linejoin="round"/>
    <path d="M 471.8371887207031 506.8796081542969 C 439.19622802734375 495.5045166015625 425.2826232910156 464.2525329589844 386.8029479980469 455.6999816894531 C 405.0455322265625 486.82403564453125 456.7557678222656 439.6700439453125 435.7491455078125 496.99981689453125 C 420.2018737792969 549.2340698242188 405.0610656738281 564.7438354492188 406.3332214355469 534.4551391601562 C 377.2334899902344 541.214599609375 345.4908752441406 546.1715698242188 241.3780059814453 550.2266845703125" stroke-width="22.21844482421875" fill="none" stroke="rgb(0, 0, 0)" stroke-opacity="1.0" stroke-linecap="round" stroke-linejoin="round"/>
    <path d="M 471.8371887207031 506.8796081542969 C 439.19622802734375 495.5045166015625 425.2826232910156 464.2525329589844 386.8029479980469 455.6999816894531 C 405.0455322265625 486.82403564453125 456.7557678222656 439.6700439453125 435.7491455078125 496.99981689453125 C 420.2018737792969 549.2340698242188 405.0610656738281 564.7438354492188 406.3332214355469 534.4551391601562 C 377.2334899902344 541.214599609375 345.4908752441406 546.1715698242188 241.3780059814453 550.2266845703125" stroke-width="22.21844482421875" fill="none" stroke="rgb(0, 0, 0)" stroke-opacity="1.0" stroke-linecap="round" stroke-linejoin="round"/>
    <path d="M -8.138843536376953 -16.78664779663086 C -39.85243225097656 -2.359980583190918 -0.6134294867515564 -2.3425889015197754 -3.4954605102539062 2.3493850231170654 C -18.23870849609375 8.085926055908203 -26.495893478393555 -32.02629852294922 -31.019737243652344 -8.84387493133545 C -24.07027244567871 24.45256996154785 -41.489723205566406 -0.5079599618911743 -41.13299560546875 -10.414332389831543 C -40.84654235839844 -15.29953670501709 -61.3176155090332 -21.594619750976562 -90.4468765258789 -10.52220630645752" stroke-width="2.3271563053131104" fill="none" stroke="rgb(0, 0, 0)" stroke-opacity="0.26794058" stroke-linecap="round" stroke-linejoin="round"/>
    <path d="M 417.3228759765625 477.29913330078125 C 438.4054870605469 462.73046875 401.6816101074219 481.6449890136719 390.1151428222656 453.0747985839844 C 362.0384216308594 422.2981872558594 378.2716064453125 444.7972412109375 422.48602294921875 455.68670654296875 C 445.3292236328125 473.5718078613281 441.422119140625 475.5013427734375 450.80877685546875 437.3193054199219 C 405.75286865234375 432.41607666015625 404.7368469238281 397.29400634765625 401.7485656738281 402.47186279296875" stroke-width="8.885766983032227" fill="none" stroke="rgb(0, 0, 0)" stroke-opacity="0.99363303" stroke-linecap="round" stroke-linejoin="round"/>
    <path d="M 471.8371887207031 506.8796081542969 C 439.19622802734375 495.5045166015625 425.2826232910156 464.2525329589844 386.8029479980469 455.6999816894531 C 405.0455322265625 486.82403564453125 456.7557678222656 439.6700439453125 435.7491455078125 496.99981689453125 C 420.2018737792969 549.2340698242188 405.0610656738281 564.7438354492188 406.3332214355469 534.4551391601562 C 377.2334899902344 541.214599609375 345.4908752441406 546.1715698242188 241.3780059814453 550.2266845703125" stroke-width="22.21844482421875" fill="none" stroke="rgb(0, 0, 0)" stroke-opacity="1.0" stroke-linecap="round" stroke-linejoin="round"/>
    <path d="M 471.8371887207031 506.8796081542969 C 439.19622802734375 495.5045166015625 425.2826232910156 464.2525329589844 386.8029479980469 455.6999816894531 C 405.0455322265625 486.82403564453125 456.7557678222656 439.6700439453125 435.7491455078125 496.99981689453125 C 420.2018737792969 549.2340698242188 405.0610656738281 564.7438354492188 406.3332214355469 534.4551391601562 C 377.2334899902344 541.214599609375 345.4908752441406 546.1715698242188 241.3780059814453 550.2266845703125" stroke-width="22.21844482421875" fill="none" stroke="rgb(0, 0, 0)" stroke-opacity="1.0" stroke-linecap="round" stroke-linejoin="round"/>
    <path d="M 471.8371887207031 506.8796081542969 C 439.19622802734375 495.5045166015625 425.2826232910156 464.2525329589844 386.8029479980469 455.6999816894531 C 405.0455322265625 486.82403564453125 456.7557678222656 439.6700439453125 435.7491455078125 496.99981689453125 C 420.2018737792969 549.2340698242188 405.0610656738281 564.7438354492188 406.3332214355469 534.4551391601562 C 377.2334899902344 541.214599609375 345.4908752441406 546.1715698242188 241.3780059814453 550.2266845703125" stroke-width="22.21844482421875" fill="none" stroke="rgb(0, 0, 0)" stroke-opacity="1.0" stroke-linecap="round" stroke-linejoin="round"/>
    <path d="M 471.8371887207031 506.8796081542969 C 439.19622802734375 495.5045166015625 425.2826232910156 464.2525329589844 386.8029479980469 455.6999816894531 C 405.0455322265625 486.82403564453125 456.7557678222656 439.6700439453125 435.7491455078125 496.99981689453125 C 420.2018737792969 549.2340698242188 405.0610656738281 564.7438354492188 406.3332214355469 534.4551391601562 C 377.2334899902344 541.214599609375 345.4908752441406 546.1715698242188 241.3780059814453 550.2266845703125" stroke-width="22.21844482421875" fill="none" stroke="rgb(0, 0, 0)" stroke-opacity="1.0" stroke-linecap="round" stroke-linejoin="round"/>
    <path d="M 471.8371887207031 506.8796081542969 C 439.19622802734375 495.5045166015625 425.2826232910156 464.2525329589844 386.8029479980469 455.6999816894531 C 405.0455322265625 486.82403564453125 456.7557678222656 439.6700439453125 435.7491455078125 496.99981689453125 C 420.2018737792969 549.2340698242188 405.0610656738281 564.7438354492188 406.3332214355469 534.4551391601562 C 377.2334899902344 541.214599609375 345.4908752441406 546.1715698242188 241.3780059814453 550.2266845703125" stroke-width="22.21844482421875" fill="none" stroke="rgb(0, 0, 0)" stroke-opacity="1.0" stroke-linecap="round" stroke-linejoin="round"/>
    <path d="M 350.740478515625 323.28521728515625 C 213.8302459716797 353.4468688964844 267.71783447265625 298.5428771972656 296.8321533203125 277.2916259765625 C 236.82421875 293.1315612792969 278.2972106933594 292.8713073730469 353.29852294921875 279.738525390625 C 342.33758544921875 260.34576416015625 289.98516845703125 283.02886962890625 204.05274963378906 282.86767578125 C 277.846923828125 302.7297668457031 232.5938262939453 354.7787780761719 313.27581787109375 325.9184265136719" stroke-width="27.75491714477539" fill="none" stroke="rgb(0, 0, 0)" stroke-opacity="1.0" stroke-linecap="round" stroke-linejoin="round"/>
    <path d="M 471.8371887207031 506.8796081542969 C 439.19622802734375 495.5045166015625 425.2826232910156 464.2525329589844 386.8029479980469 455.6999816894531 C 405.0455322265625 486.82403564453125 456.7557678222656 439.6700439453125 435.7491455078125 496.99981689453125 C 420.2018737792969 549.2340698242188 405.0610656738281 564.7438354492188 406.3332214355469 534.4551391601562 C 377.2334899902344 541.214599609375 345.4908752441406 546.1715698242188 241.3780059814453 550.2266845703125" stroke-width="22.21844482421875" fill="none" stroke="rgb(0, 0, 0)" stroke-opacity="1.0" stroke-linecap="round" stroke-linejoin="round"/>
    <path d="M 471.8371887207031 506.8796081542969 C 439.19622802734375 495.5045166015625 425.2826232910156 464.2525329589844 386.8029479980469 455.6999816894531 C 405.0455322265625 486.82403564453125 456.7557678222656 439.6700439453125 435.7491455078125 496.99981689453125 C 420.2018737792969 549.2340698242188 405.0610656738281 564.7438354492188 406.3332214355469 534.4551391601562 C 377.2334899902344 541.214599609375 345.4908752441406 546.1715698242188 241.3780059814453 550.2266845703125" stroke-width="22.21844482421875" fill="none" stroke="rgb(0, 0, 0)" stroke-opacity="1.0" stroke-linecap="round" stroke-linejoin="round"/>
    <path d="M 102.70030212402344 379.6095275878906 C 96.84870147705078 374.0932922363281 88.88312530517578 375.08343505859375 123.45166015625 388.7790222167969 C 101.34459686279297 367.22918701171875 98.28839874267578 403.0302734375 172.31727600097656 409.3886413574219 C 232.70777893066406 405.205078125 272.0916748046875 404.2147216796875 215.53733825683594 433.1568908691406 C 164.20155334472656 413.98175048828125 166.03720092773438 424.493408203125 216.20492553710938 417.3186340332031" stroke-width="20.323633193969727" fill="none" stroke="rgb(0, 0, 0)" stroke-opacity="1.0" stroke-linecap="round" stroke-linejoin="round"/>
    <path d="M 471.8371887207031 506.8796081542969 C 439.19622802734375 495.5045166015625 425.2826232910156 464.2525329589844 386.8029479980469 455.6999816894531 C 405.0455322265625 486.82403564453125 456.7557678222656 439.6700439453125 435.7491455078125 496.99981689453125 C 420.2018737792969 549.2340698242188 405.0610656738281 564.7438354492188 406.3332214355469 534.4551391601562 C 377.2334899902344 541.214599609375 345.4908752441406 546.1715698242188 241.3780059814453 550.2266845703125" stroke-width="22.21844482421875" fill="none" stroke="rgb(0, 0, 0)" stroke-opacity="1.0" stroke-linecap="round" stroke-linejoin="round"/>
    <path d="M 471.8371887207031 506.8796081542969 C 439.19622802734375 495.5045166015625 425.2826232910156 464.2525329589844 386.8029479980469 455.6999816894531 C 405.0455322265625 486.82403564453125 456.7557678222656 439.6700439453125 435.7491455078125 496.99981689453125 C 420.2018737792969 549.2340698242188 405.0610656738281 564.7438354492188 406.3332214355469 534.4551391601562 C 377.2334899902344 541.214599609375 345.4908752441406 546.1715698242188 241.3780059814453 550.2266845703125" stroke-width="22.21844482421875" fill="none" stroke="rgb(0, 0, 0)" stroke-opacity="1.0" stroke-linecap="round" stroke-linejoin="round"/>
    <path d="M 471.8371887207031 506.8796081542969 C 439.19622802734375 495.5045166015625 425.2826232910156 464.2525329589844 386.8029479980469 455.6999816894531 C 405.0455322265625 486.82403564453125 456.7557678222656 439.6700439453125 435.7491455078125 496.99981689453125 C 420.2018737792969 549.2340698242188 405.0610656738281 564.7438354492188 406.3332214355469 534.4551391601562 C 377.2334899902344 541.214599609375 345.4908752441406 546.1715698242188 241.3780059814453 550.2266845703125" stroke-width="22.21844482421875" fill="none" stroke="rgb(0, 0, 0)" stroke-opacity="1.0" stroke-linecap="round" stroke-linejoin="round"/>
    <path d="M 290.29510498046875 443.5296325683594 C 296.8930358886719 454.943359375 321.9801330566406 451.97900390625 360.5534973144531 448.7868347167969 C 471.794189453125 469.2330017089844 466.3659362792969 482.2803039550781 444.8631591796875 474.9173889160156 C 420.2414245605469 497.3707275390625 410.53521728515625 502.5603332519531 365.9333801269531 445.6707763671875 C 406.5544738769531 448.6123046875 396.107421875 433.00286865234375 388.61029052734375 474.58367919921875" stroke-width="14.920984268188477" fill="none" stroke="rgb(0, 0, 0)" stroke-opacity="0.9493163" stroke-linecap="round" stroke-linejoin="round"/>
    <path d="M 282.28717041015625 163.43417358398438 C 185.35232543945312 145.54373168945312 252.1466064453125 155.8870391845703 319.71588134765625 209.97952270507812 C 331.7886047363281 162.0174560546875 416.0960693359375 102.94196319580078 375.9053649902344 124.67732238769531 C 307.7181396484375 94.76717376708984 335.5682373046875 137.19656372070312 334.99322509765625 84.46109771728516 C 365.25994873046875 121.38998413085938 377.5128173828125 121.52460479736328 332.236572265625 64.15031433105469" stroke-width="10.839583396911621" fill="none" stroke="rgb(0, 0, 0)" stroke-opacity="0.9754216" stroke-linecap="round" stroke-linejoin="round"/>
    <path d="M 471.8371887207031 506.8796081542969 C 439.19622802734375 495.5045166015625 425.2826232910156 464.2525329589844 386.8029479980469 455.6999816894531 C 405.0455322265625 486.82403564453125 456.7557678222656 439.6700439453125 435.7491455078125 496.99981689453125 C 420.2018737792969 549.2340698242188 405.0610656738281 564.7438354492188 406.3332214355469 534.4551391601562 C 377.2334899902344 541.214599609375 345.4908752441406 546.1715698242188 241.3780059814453 550.2266845703125" stroke-width="22.21844482421875" fill="none" stroke="rgb(0, 0, 0)" stroke-opacity="1.0" stroke-linecap="round" stroke-linejoin="round"/>
    <path d="M 471.8371887207031 506.8796081542969 C 439.19622802734375 495.5045166015625 425.2826232910156 464.2525329589844 386.8029479980469 455.6999816894531 C 405.0455322265625 486.82403564453125 456.7557678222656 439.6700439453125 435.7491455078125 496.99981689453125 C 420.2018737792969 549.2340698242188 405.0610656738281 564.7438354492188 406.3332214355469 534.4551391601562 C 377.2334899902344 541.214599609375 345.4908752441406 546.1715698242188 241.3780059814453 550.2266845703125" stroke-width="22.21844482421875" fill="none" stroke="rgb(0, 0, 0)" stroke-opacity="1.0" stroke-linecap="round" stroke-linejoin="round"/>
    <path d="M 471.8371887207031 506.8796081542969 C 439.19622802734375 495.5045166015625 425.2826232910156 464.2525329589844 386.8029479980469 455.6999816894531 C 405.0455322265625 486.82403564453125 456.7557678222656 439.6700439453125 435.7491455078125 496.99981689453125 C 420.2018737792969 549.2340698242188 405.0610656738281 564.7438354492188 406.3332214355469 534.4551391601562 C 377.2334899902344 541.214599609375 345.4908752441406 546.1715698242188 241.3780059814453 550.2266845703125" stroke-width="22.21844482421875" fill="none" stroke="rgb(0, 0, 0)" stroke-opacity="1.0" stroke-linecap="round" stroke-linejoin="round"/>
    <path d="M 471.8371887207031 506.8796081542969 C 439.19622802734375 495.5045166015625 425.2826232910156 464.2525329589844 386.8029479980469 455.6999816894531 C 405.0455322265625 486.82403564453125 456.7557678222656 439.6700439453125 435.7491455078125 496.99981689453125 C 420.2018737792969 549.2340698242188 405.0610656738281 564.7438354492188 406.3332214355469 534.4551391601562 C 377.2334899902344 541.214599609375 345.4908752441406 546.1715698242188 241.3780059814453 550.2266845703125" stroke-width="22.21844482421875" fill="none" stroke="rgb(0, 0, 0)" stroke-opacity="1.0" stroke-linecap="round" stroke-linejoin="round"/>
    <path d="M 164.87660217285156 259.40362548828125 C 220.54083251953125 276.6976623535156 155.0761260986328 276.69061279296875 167.4939727783203 257.85546875 C 194.67417907714844 253.78445434570312 176.1649169921875 267.3590087890625 167.38784790039062 248.6419677734375 C 171.7022247314453 270.92803955078125 177.22300720214844 294.77972412109375 203.63037109375 271.1898498535156 C 176.6055908203125 265.8662109375 179.66580200195312 282.2153015136719 244.9971923828125 319.0438537597656" stroke-width="10.667644500732422" fill="none" stroke="rgb(0, 0, 0)" stroke-opacity="1.0" stroke-linecap="round" stroke-linejoin="round"/>
    <path d="M 471.8371887207031 506.8796081542969 C 439.19622802734375 495.5045166015625 425.2826232910156 464.2525329589844 386.8029479980469 455.6999816894531 C 405.0455322265625 486.82403564453125 456.7557678222656 439.6700439453125 435.7491455078125 496.99981689453125 C 420.2018737792969 549.2340698242188 405.0610656738281 564.7438354492188 406.3332214355469 534.4551391601562 C 377.2334899902344 541.214599609375 345.4908752441406 546.1715698242188 241.3780059814453 550.2266845703125" stroke-width="22.21844482421875" fill="none" stroke="rgb(0, 0, 0)" stroke-opacity="1.0" stroke-linecap="round" stroke-linejoin="round"/>
    <path d="M 471.8371887207031 506.8796081542969 C 439.19622802734375 495.5045166015625 425.2826232910156 464.2525329589844 386.8029479980469 455.6999816894531 C 405.0455322265625 486.82403564453125 456.7557678222656 439.6700439453125 435.7491455078125 496.99981689453125 C 420.2018737792969 549.2340698242188 405.0610656738281 564.7438354492188 406.3332214355469 534.4551391601562 C 377.2334899902344 541.214599609375 345.4908752441406 546.1715698242188 241.3780059814453 550.2266845703125" stroke-width="22.21844482421875" fill="none" stroke="rgb(0, 0, 0)" stroke-opacity="1.0" stroke-linecap="round" stroke-linejoin="round"/>
    <path d="M 471.8371887207031 506.8796081542969 C 439.19622802734375 495.5045166015625 425.2826232910156 464.2525329589844 386.8029479980469 455.6999816894531 C 405.0455322265625 486.82403564453125 456.7557678222656 439.6700439453125 435.7491455078125 496.99981689453125 C 420.2018737792969 549.2340698242188 405.0610656738281 564.7438354492188 406.3332214355469 534.4551391601562 C 377.2334899902344 541.214599609375 345.4908752441406 546.1715698242188 241.3780059814453 550.2266845703125" stroke-width="22.21844482421875" fill="none" stroke="rgb(0, 0, 0)" stroke-opacity="1.0" stroke-linecap="round" stroke-linejoin="round"/>
    <path d="M 415.1120910644531 447.4212341308594 C 375.778076171875 458.4250183105469 354.3173522949219 460.4353332519531 298.5269775390625 449.8149719238281 C 300.6456604003906 450.4640808105469 292.9893493652344 430.00567626953125 373.7413330078125 461.18572998046875 C 424.96160888671875 430.6058044433594 395.9837341308594 465.5001220703125 417.6736145019531 457.3533935546875 C 372.2757263183594 430.9021911621094 350.6016845703125 446.28271484375 352.8993225097656 459.12451171875" stroke-width="-7.917287826538086" fill="none" stroke="rgb(0, 0, 0)" stroke-opacity="0.53589696" stroke-linecap="round" stroke-linejoin="round"/>
    <path d="M 471.8371887207031 506.8796081542969 C 439.19622802734375 495.5045166015625 425.2826232910156 464.2525329589844 386.8029479980469 455.6999816894531 C 405.0455322265625 486.82403564453125 456.7557678222656 439.6700439453125 435.7491455078125 496.99981689453125 C 420.2018737792969 549.2340698242188 405.0610656738281 564.7438354492188 406.3332214355469 534.4551391601562 C 377.2334899902344 541.214599609375 345.4908752441406 546.1715698242188 241.3780059814453 550.2266845703125" stroke-width="22.21844482421875" fill="none" stroke="rgb(0, 0, 0)" stroke-opacity="1.0" stroke-linecap="round" stroke-linejoin="round"/>
    <path d="M 471.8371887207031 506.8796081542969 C 439.19622802734375 495.5045166015625 425.2826232910156 464.2525329589844 386.8029479980469 455.6999816894531 C 405.0455322265625 486.82403564453125 456.7557678222656 439.6700439453125 435.7491455078125 496.99981689453125 C 420.2018737792969 549.2340698242188 405.0610656738281 564.7438354492188 406.3332214355469 534.4551391601562 C 377.2334899902344 541.214599609375 345.4908752441406 546.1715698242188 241.3780059814453 550.2266845703125" stroke-width="22.21844482421875" fill="none" stroke="rgb(0, 0, 0)" stroke-opacity="1.0" stroke-linecap="round" stroke-linejoin="round"/>
    <path d="M 471.8371887207031 506.8796081542969 C 439.19622802734375 495.5045166015625 425.2826232910156 464.2525329589844 386.8029479980469 455.6999816894531 C 405.0455322265625 486.82403564453125 456.7557678222656 439.6700439453125 435.7491455078125 496.99981689453125 C 420.2018737792969 549.2340698242188 405.0610656738281 564.7438354492188 406.3332214355469 534.4551391601562 C 377.2334899902344 541.214599609375 345.4908752441406 546.1715698242188 241.3780059814453 550.2266845703125" stroke-width="22.21844482421875" fill="none" stroke="rgb(0, 0, 0)" stroke-opacity="1.0" stroke-linecap="round" stroke-linejoin="round"/>
    <path d="M 471.8371887207031 506.8796081542969 C 439.19622802734375 495.5045166015625 425.2826232910156 464.2525329589844 386.8029479980469 455.6999816894531 C 405.0455322265625 486.82403564453125 456.7557678222656 439.6700439453125 435.7491455078125 496.99981689453125 C 420.2018737792969 549.2340698242188 405.0610656738281 564.7438354492188 406.3332214355469 534.4551391601562 C 377.2334899902344 541.214599609375 345.4908752441406 546.1715698242188 241.3780059814453 550.2266845703125" stroke-width="22.21844482421875" fill="none" stroke="rgb(0, 0, 0)" stroke-opacity="1.0" stroke-linecap="round" stroke-linejoin="round"/>
    <path d="M 471.8371887207031 506.8796081542969 C 439.19622802734375 495.5045166015625 425.2826232910156 464.2525329589844 386.8029479980469 455.6999816894531 C 405.0455322265625 486.82403564453125 456.7557678222656 439.6700439453125 435.7491455078125 496.99981689453125 C 420.2018737792969 549.2340698242188 405.0610656738281 564.7438354492188 406.3332214355469 534.4551391601562 C 377.2334899902344 541.214599609375 345.4908752441406 546.1715698242188 241.3780059814453 550.2266845703125" stroke-width="22.21844482421875" fill="none" stroke="rgb(0, 0, 0)" stroke-opacity="0.5268231" stroke-linecap="round" stroke-linejoin="round"/>
  </g>
</svg>
