<?xml version="1.0" ?>
<svg xmlns="http://www.w3.org/2000/svg" version="1.1" width="600" height="600">
  <defs/>
  <g>
    <path d="M 244.1751708984375 294.4493408203125 C 273.1956787109375 244.7550506591797 288.0288391113281 223.06594848632812 301.2214050292969 188.3974151611328 C 236.97998046875 271.5144348144531 245.6930694580078 261.4703369140625 208.22000122070312 239.00335693359375 C 311.6523132324219 228.31590270996094 344.9450988769531 261.7547912597656 361.9978942871094 260.8008728027344 C 357.281494140625 246.5356903076172 326.9801025390625 250.47804260253906 290.01434326171875 184.41757202148438" stroke-width="23.457685470581055" fill="none" stroke="rgb(0, 0, 0)" stroke-opacity="1.0" stroke-linecap="round" stroke-linejoin="round"/>
    <path d="M 203.3383026123047 430.3864440917969 C 192.8509521484375 430.12493896484375 216.8119354248047 421.30670166015625 229.2080841064453 353.8422546386719 C 190.3550262451172 360.1925354003906 158.45289611816406 369.5285949707031 157.3330841064453 361.8302307128906 C 130.21841430664062 356.6134338378906 172.80264282226562 377.26068115234375 186.08380126953125 380.7263488769531 C 151.42575073242188 349.4806823730469 207.50115966796875 375.51165771484375 215.91334533691406 392.1625671386719" stroke-width="9.603989601135254" fill="none" stroke="rgb(0, 0, 0)" stroke-opacity="1.0" stroke-linecap="round" stroke-linejoin="round"/>
    <path d="M 291.985107421875 400.9852294921875 C 334.683349609375 400.2568054199219 353.54541015625 403.1777648925781 320.4990234375 401.9255676269531 C 315.092529296875 408.9288024902344 353.4154052734375 392.43499755859375 428.1011047363281 417.0760498046875 C 489.7535400390625 453.9942321777344 433.1069030761719 437.5462951660156 349.2166748046875 441.9783020019531 C 316.7611083984375 428.91070556640625 325.3249816894531 410.3616027832031 288.35302734375 377.87371826171875" stroke-width="3.2630600929260254" fill="none" stroke="rgb(0, 0, 0)" stroke-opacity="0.98522294" stroke-linecap="round" stroke-linejoin="round"/>
    <path d="M 406.0700378417969 589.982177734375 C 453.00335693359375 611.9778442382812 487.8397216796875 588.0208129882812 491.19146728515625 583.7550048828125 C 487.8770751953125 567.1541137695312 491.9068603515625 614.4389038085938 505.25433349609375 531.69921875 C 544.056884765625 530.084716796875 507.98101806640625 575.9612426757812 526.27490234375 570.9873046875 C 516.7413940429688 581.7471313476562 522.41748046875 585.1533203125 439.75048828125 595.4042358398438" stroke-width="28.244247436523438" fill="none" stroke="rgb(0, 0, 0)" stroke-opacity="0.96213704" stroke-linecap="round" stroke-linejoin="round"/>
    <path d="M 35.60284423828125 512.6947021484375 C -19.064870834350586 535.4833984375 7.286276340484619 494.45159912109375 17.08930778503418 526.7571411132812 C -17.120269775390625 495.9705505371094 -24.626039505004883 515.6723022460938 -57.91823196411133 501.0541076660156 C -27.827430725097656 529.7410278320312 -41.32009506225586 521.9078369140625 -2.6215696334838867 510.6291198730469 C 27.887577056884766 507.29107666015625 13.265873908996582 530.32763671875 20.1602783203125 592.0936889648438" stroke-width="30.617666244506836" fill="none" stroke="rgb(0, 0, 0)" stroke-opacity="0.8922042" stroke-linecap="round" stroke-linejoin="round"/>
    <path d="M 203.3383026123047 430.3864440917969 C 192.8509521484375 430.12493896484375 216.8119354248047 421.30670166015625 229.2080841064453 353.8422546386719 C 190.3550262451172 360.1925354003906 158.45289611816406 369.5285949707031 157.3330841064453 361.8302307128906 C 130.21841430664062 356.6134338378906 172.80264282226562 377.26068115234375 186.08380126953125 380.7263488769531 C 151.42575073242188 349.4806823730469 207.50115966796875 375.51165771484375 215.91334533691406 392.1625671386719" stroke-width="9.603989601135254" fill="none" stroke="rgb(0, 0, 0)" stroke-opacity="1.0" stroke-linecap="round" stroke-linejoin="round"/>
    <path d="M 203.3383026123047 430.3864440917969 C 192.8509521484375 430.12493896484375 216.8119354248047 421.30670166015625 229.2080841064453 353.8422546386719 C 190.3550262451172 360.1925354003906 158.45289611816406 369.5285949707031 157.3330841064453 361.8302307128906 C 130.21841430664062 356.6134338378906 172.80264282226562 377.26068115234375 186.08380126953125 380.7263488769531 C 151.42575073242188 349.4806823730469 207.50115966796875 375.51165771484375 215.91334533691406 392.1625671386719" stroke-width="9.603989601135254" fill="none" stroke="rgb(0, 0, 0)" stroke-opacity="1.0" stroke-linecap="round" stroke-linejoin="round"/>
    <path d="M 203.3383026123047 430.3864440917969 C 192.8509521484375 430.12493896484375 216.8119354248047 421.30670166015625 229.2080841064453 353.8422546386719 C 190.3550262451172 360.1925354003906 158.45289611816406 369.5285949707031 157.3330841064453 361.8302307128906 C 130.21841430664062 356.6134338378906 172.80264282226562 377.26068115234375 186.08380126953125 380.7263488769531 C 151.42575073242188 349.4806823730469 207.50115966796875 375.51165771484375 215.91334533691406 392.1625671386719" stroke-width="9.603989601135254" fill="none" stroke="rgb(0, 0, 0)" stroke-opacity="1.0" stroke-linecap="round" stroke-linejoin="round"/>
    <path d="M 203.3383026123047 430.3864440917969 C 192.8509521484375 430.12493896484375 216.8119354248047 421.30670166015625 229.2080841064453 353.8422546386719 C 190.3550262451172 360.1925354003906 158.45289611816406 369.5285949707031 157.3330841064453 361.8302307128906 C 130.21841430664062 356.6134338378906 172.80264282226562 377.26068115234375 186.08380126953125 380.7263488769531 C 151.42575073242188 349.4806823730469 207.50115966796875 375.51165771484375 215.91334533691406 392.1625671386719" stroke-width="9.603989601135254" fill="none" stroke="rgb(0, 0, 0)" stroke-opacity="1.0" stroke-linecap="round" stroke-linejoin="round"/>
    <path d="M 203.3383026123047 430.3864440917969 C 192.8509521484375 430.12493896484375 216.8119354248047 421.30670166015625 229.2080841064453 353.8422546386719 C 190.3550262451172 360.1925354003906 158.45289611816406 369.5285949707031 157.3330841064453 361.8302307128906 C 130.21841430664062 356.6134338378906 172.80264282226562 377.26068115234375 186.08380126953125 380.7263488769531 C 151.42575073242188 349.4806823730469 207.50115966796875 375.51165771484375 215.91334533691406 392.1625671386719" stroke-width="9.603989601135254" fill="none" stroke="rgb(0, 0, 0)" stroke-opacity="1.0" stroke-linecap="round" stroke-linejoin="round"/>
    <path d="M 203.3383026123047 430.3864440917969 C 192.8509521484375 430.12493896484375 216.8119354248047 421.30670166015625 229.2080841064453 353.8422546386719 C 190.3550262451172 360.1925354003906 158.45289611816406 369.5285949707031 157.3330841064453 361.8302307128906 C 130.21841430664062 356.6134338378906 172.80264282226562 377.26068115234375 186.08380126953125 380.7263488769531 C 151.42575073242188 349.4806823730469 207.50115966796875 375.51165771484375 215.91334533691406 392.1625671386719" stroke-width="9.603989601135254" fill="none" stroke="rgb(0, 0, 0)" stroke-opacity="1.0" stroke-linecap="round" stroke-linejoin="round"/>
    <path d="M 230.96090698242188 514.8663940429688 C 268.15350341796875 498.57977294921875 241.70123291015625 462.4290466308594 216.0455322265625 522.1607055664062 C 218.33775329589844 537.2454833984375 231.59719848632812 499.9452819824219 226.57803344726562 451.6258544921875 C 195.4063720703125 456.0721435546875 233.4751739501953 451.9443664550781 270.3617248535156 461.06298828125 C 239.25827026367188 496.10516357421875 213.33580017089844 490.1491394042969 249.6042938232422 503.29412841796875" stroke-width="11.301005363464355" fill="none" stroke="rgb(0, 0, 0)" stroke-opacity="0.3703584" stroke-linecap="round" stroke-linejoin="round"/>
    <path d="M 235.0267333984375 441.5214538574219 C 219.6853790283203 375.61700439453125 243.39891052246094 339.493408203125 266.0321350097656 354.37506103515625 C 252.4987030029297 319.0367126464844 275.7422790527344 339.8409423828125 305.4284362792969 368.6261291503906 C 186.145263671875 374.9356994628906 179.6885223388672 363.69580078125 210.58123779296875 384.5058288574219 C 228.83055114746094 432.38336181640625 240.72793579101562 427.57244873046875 257.3769836425781 436.8595886230469" stroke-width="27.1934757232666" fill="none" stroke="rgb(0, 0, 0)" stroke-opacity="0.99745387" stroke-linecap="round" stroke-linejoin="round"/>
    <path d="M 283.2868957519531 593.6137084960938 C 292.2823486328125 564.7365112304688 320.475341796875 518.2930908203125 306.61749267578125 496.2915954589844 C 353.39825439453125 485.0592346191406 307.0402526855469 479.5303955078125 283.9411315917969 475.668212890625 C 211.1937713623047 496.0915222167969 236.2919158935547 518.9556274414062 273.36553955078125 516.6674194335938 C 261.54400634765625 477.4174499511719 246.4462127685547 449.6414489746094 246.7349090576172 493.59619140625" stroke-width="-7.084437847137451" fill="none" stroke="rgb(0, 0, 0)" stroke-opacity="0.02091038" stroke-linecap="round" stroke-linejoin="round"/>
    <path d="M 203.3383026123047 430.3864440917969 C 192.8509521484375 430.12493896484375 216.8119354248047 421.30670166015625 229.2080841064453 353.8422546386719 C 190.3550262451172 360.1925354003906 158.45289611816406 369.5285949707031 157.3330841064453 361.8302307128906 C 130.21841430664062 356.6134338378906 172.80264282226562 377.26068115234375 186.08380126953125 380.7263488769531 C 151.42575073242188 349.4806823730469 207.50115966796875 375.51165771484375 215.91334533691406 392.1625671386719" stroke-width="9.603989601135254" fill="none" stroke="rgb(0, 0, 0)" stroke-opacity="1.0" stroke-linecap="round" stroke-linejoin="round"/>
    <path d="M 203.3383026123047 430.3864440917969 C 192.8509521484375 430.12493896484375 216.8119354248047 421.30670166015625 229.2080841064453 353.8422546386719 C 190.3550262451172 360.1925354003906 158.45289611816406 369.5285949707031 157.3330841064453 361.8302307128906 C 130.21841430664062 356.6134338378906 172.80264282226562 377.26068115234375 186.08380126953125 380.7263488769531 C 151.42575073242188 349.4806823730469 207.50115966796875 375.51165771484375 215.91334533691406 392.1625671386719" stroke-width="9.603989601135254" fill="none" stroke="rgb(0, 0, 0)" stroke-opacity="1.0" stroke-linecap="round" stroke-linejoin="round"/>
    <path d="M 42.79887008666992 528.4669799804688 C 62.46846008300781 590.931396484375 92.81939697265625 594.880615234375 110.59069061279297 583.6921997070312 C 88.67608642578125 549.9368896484375 85.93038177490234 547.2589111328125 116.75630187988281 589.455810546875 C 53.859947204589844 596.302490234375 69.13187408447266 612.9163208007812 63.117431640625 639.27685546875 C 57.7832145690918 626.2864379882812 64.50203704833984 615.9175415039062 54.209598541259766 620.3352661132812" stroke-width="31.87196159362793" fill="none" stroke="rgb(0, 0, 0)" stroke-opacity="0.9827044" stroke-linecap="round" stroke-linejoin="round"/>
    <path d="M 243.24537658691406 614.8856201171875 C 222.8445587158203 617.2915649414062 226.0321044921875 596.5842895507812 239.22264099121094 604.7940063476562 C 240.70059204101562 578.4052734375 232.48565673828125 610.394287109375 246.89707946777344 647.076904296875 C 252.43997192382812 599.4122314453125 259.95440673828125 585.748046875 244.1734619140625 589.5866088867188 C 224.63888549804688 593.1956787109375 233.40927124023438 612.84130859375 228.7216796875 623.233154296875" stroke-width="-10.555644035339355" fill="none" stroke="rgb(0, 0, 0)" stroke-opacity="0.0" stroke-linecap="round" stroke-linejoin="round"/>
    <path d="M 203.3383026123047 430.3864440917969 C 192.8509521484375 430.12493896484375 216.8119354248047 421.30670166015625 229.2080841064453 353.8422546386719 C 190.3550262451172 360.1925354003906 158.45289611816406 369.5285949707031 157.3330841064453 361.8302307128906 C 130.21841430664062 356.6134338378906 172.80264282226562 377.26068115234375 186.08380126953125 380.7263488769531 C 151.42575073242188 349.4806823730469 207.50115966796875 375.51165771484375 215.91334533691406 392.1625671386719" stroke-width="9.603989601135254" fill="none" stroke="rgb(0, 0, 0)" stroke-opacity="1.0" stroke-linecap="round" stroke-linejoin="round"/>
    <path d="M 203.3383026123047 430.3864440917969 C 192.8509521484375 430.12493896484375 216.8119354248047 421.30670166015625 229.2080841064453 353.8422546386719 C 190.3550262451172 360.1925354003906 158.45289611816406 369.5285949707031 157.3330841064453 361.8302307128906 C 130.21841430664062 356.6134338378906 172.80264282226562 377.26068115234375 186.08380126953125 380.7263488769531 C 151.42575073242188 349.4806823730469 207.50115966796875 375.51165771484375 215.91334533691406 392.1625671386719" stroke-width="9.603989601135254" fill="none" stroke="rgb(0, 0, 0)" stroke-opacity="1.0" stroke-linecap="round" stroke-linejoin="round"/>
    <path d="M 203.3383026123047 430.3864440917969 C 192.8509521484375 430.12493896484375 216.8119354248047 421.30670166015625 229.2080841064453 353.8422546386719 C 190.3550262451172 360.1925354003906 158.45289611816406 369.5285949707031 157.3330841064453 361.8302307128906 C 130.21841430664062 356.6134338378906 172.80264282226562 377.26068115234375 186.08380126953125 380.7263488769531 C 151.42575073242188 349.4806823730469 207.50115966796875 375.51165771484375 215.91334533691406 392.1625671386719" stroke-width="9.603989601135254" fill="none" stroke="rgb(0, 0, 0)" stroke-opacity="1.0" stroke-linecap="round" stroke-linejoin="round"/>
    <path d="M 551.4734497070312 541.3836669921875 C 605.162353515625 539.0571899414062 553.43115234375 553.9801025390625 527.8326416015625 547.7402954101562 C 619.2031860351562 545.607177734375 618.7725219726562 533.2743530273438 529.674072265625 531.0333251953125 C 575.8410034179688 560.4970092773438 629.6810302734375 558.5009155273438 579.7168579101562 582.0172119140625 C 631.9921264648438 579.6385498046875 636.0181274414062 579.489013671875 610.4869384765625 601.8096923828125" stroke-width="14.882097244262695" fill="none" stroke="rgb(0, 0, 0)" stroke-opacity="0.6939128" stroke-linecap="round" stroke-linejoin="round"/>
    <path d="M 203.3383026123047 430.3864440917969 C 192.8509521484375 430.12493896484375 216.8119354248047 421.30670166015625 229.2080841064453 353.8422546386719 C 190.3550262451172 360.1925354003906 158.45289611816406 369.5285949707031 157.3330841064453 361.8302307128906 C 130.21841430664062 356.6134338378906 172.80264282226562 377.26068115234375 186.08380126953125 380.7263488769531 C 151.42575073242188 349.4806823730469 207.50115966796875 375.51165771484375 215.91334533691406 392.1625671386719" stroke-width="9.603989601135254" fill="none" stroke="rgb(0, 0, 0)" stroke-opacity="1.0" stroke-linecap="round" stroke-linejoin="round"/>
    <path d="M 203.3383026123047 430.3864440917969 C 192.8509521484375 430.12493896484375 216.8119354248047 421.30670166015625 229.2080841064453 353.8422546386719 C 190.3550262451172 360.1925354003906 158.45289611816406 369.5285949707031 157.3330841064453 361.8302307128906 C 130.21841430664062 356.6134338378906 172.80264282226562 377.26068115234375 186.08380126953125 380.7263488769531 C 151.42575073242188 349.4806823730469 207.50115966796875 375.51165771484375 215.91334533691406 392.1625671386719" stroke-width="9.603989601135254" fill="none" stroke="rgb(0, 0, 0)" stroke-opacity="1.0" stroke-linecap="round" stroke-linejoin="round"/>
    <path d="M 203.3383026123047 430.3864440917969 C 192.8509521484375 430.12493896484375 216.8119354248047 421.30670166015625 229.2080841064453 353.8422546386719 C 190.3550262451172 360.1925354003906 158.45289611816406 369.5285949707031 157.3330841064453 361.8302307128906 C 130.21841430664062 356.6134338378906 172.80264282226562 377.26068115234375 186.08380126953125 380.7263488769531 C 151.42575073242188 349.4806823730469 207.50115966796875 375.51165771484375 215.91334533691406 392.1625671386719" stroke-width="9.603989601135254" fill="none" stroke="rgb(0, 0, 0)" stroke-opacity="1.0" stroke-linecap="round" stroke-linejoin="round"/>
    <path d="M 31.837932586669922 498.88311767578125 C 33.583274841308594 528.5296020507812 61.28032684326172 537.29345703125 68.5665283203125 503.7245178222656 C 96.28248596191406 449.30377197265625 101.65545654296875 484.6919860839844 129.54193115234375 489.92901611328125 C 112.46707153320312 473.5849304199219 98.53524017333984 512.4240112304688 87.25594329833984 539.7944946289062 C 109.806640625 538.7816772460938 93.42961120605469 530.4110717773438 83.40010833740234 575.5269775390625" stroke-width="-18.868398666381836" fill="none" stroke="rgb(0, 0, 0)" stroke-opacity="0.13134821" stroke-linecap="round" stroke-linejoin="round"/>
    <path d="M 203.3383026123047 430.3864440917969 C 192.8509521484375 430.12493896484375 216.8119354248047 421.30670166015625 229.2080841064453 353.8422546386719 C 190.3550262451172 360.1925354003906 158.45289611816406 369.5285949707031 157.3330841064453 361.8302307128906 C 130.21841430664062 356.6134338378906 172.80264282226562 377.26068115234375 186.08380126953125 380.7263488769531 C 151.42575073242188 349.4806823730469 207.50115966796875 375.51165771484375 215.91334533691406 392.1625671386719" stroke-width="9.603989601135254" fill="none" stroke="rgb(0, 0, 0)" stroke-opacity="1.0" stroke-linecap="round" stroke-linejoin="round"/>
    <path d="M 64.74868774414062 376.77435302734375 C 52.85300827026367 388.8761901855469 46.00776290893555 373.0733337402344 54.72122573852539 390.3656005859375 C 61.4485969543457 351.16180419921875 56.946693420410156 354.12469482421875 64.57882690429688 388.1890563964844 C 67.49739837646484 356.8065490722656 60.92304992675781 356.9731140136719 48.96018981933594 382.0146484375 C 50.79937744140625 361.1146545410156 60.67109680175781 387.267333984375 53.48534393310547 368.2509460449219" stroke-width="-0.9787498712539673" fill="none" stroke="rgb(0, 0, 0)" stroke-opacity="0.00019839569" stroke-linecap="round" stroke-linejoin="round"/>
    <path d="M 203.3383026123047 430.3864440917969 C 192.8509521484375 430.12493896484375 216.8119354248047 421.30670166015625 229.2080841064453 353.8422546386719 C 190.3550262451172 360.1925354003906 158.45289611816406 369.5285949707031 157.3330841064453 361.8302307128906 C 130.21841430664062 356.6134338378906 172.80264282226562 377.26068115234375 186.08380126953125 380.7263488769531 C 151.42575073242188 349.4806823730469 207.50115966796875 375.51165771484375 215.91334533691406 392.1625671386719" stroke-width="9.603989601135254" fill="none" stroke="rgb(0, 0, 0)" stroke-opacity="1.0" stroke-linecap="round" stroke-linejoin="round"/>
    <path d="M 518.0927124023438 584.6427612304688 C 528.1356811523438 588.0905151367188 466.0213928222656 572.2052001953125 475.2029113769531 571.6098022460938 C 525.6039428710938 567.6193237304688 569.9891967773438 589.243408203125 523.7367553710938 566.4780883789062 C 565.4466552734375 554.1947631835938 583.6605224609375 517.9044799804688 545.3930053710938 573.4625244140625 C 565.1686401367188 572.5484619140625 599.4595336914062 631.3963623046875 578.87158203125 515.1239013671875" stroke-width="39.57978439331055" fill="none" stroke="rgb(0, 0, 0)" stroke-opacity="0.99944866" stroke-linecap="round" stroke-linejoin="round"/>
    <path d="M 203.3383026123047 430.3864440917969 C 192.8509521484375 430.12493896484375 216.8119354248047 421.30670166015625 229.2080841064453 353.8422546386719 C 190.3550262451172 360.1925354003906 158.45289611816406 369.5285949707031 157.3330841064453 361.8302307128906 C 130.21841430664062 356.6134338378906 172.80264282226562 377.26068115234375 186.08380126953125 380.7263488769531 C 151.42575073242188 349.4806823730469 207.50115966796875 375.51165771484375 215.91334533691406 392.1625671386719" stroke-width="9.603989601135254" fill="none" stroke="rgb(0, 0, 0)" stroke-opacity="1.0" stroke-linecap="round" stroke-linejoin="round"/>
    <path d="M 203.3383026123047 430.3864440917969 C 192.8509521484375 430.12493896484375 216.8119354248047 421.30670166015625 229.2080841064453 353.8422546386719 C 190.3550262451172 360.1925354003906 158.45289611816406 369.5285949707031 157.3330841064453 361.8302307128906 C 130.21841430664062 356.6134338378906 172.80264282226562 377.26068115234375 186.08380126953125 380.7263488769531 C 151.42575073242188 349.4806823730469 207.50115966796875 375.51165771484375 215.91334533691406 392.1625671386719" stroke-width="9.603989601135254" fill="none" stroke="rgb(0, 0, 0)" stroke-opacity="1.0" stroke-linecap="round" stroke-linejoin="round"/>
    <path d="M 47.405914306640625 528.2359619140625 C 33.757286071777344 530.0161743164062 51.5827751159668 506.61590576171875 58.733341217041016 524.878662109375 C 50.51821517944336 515.207763671875 83.13175201416016 519.322021484375 142.61280822753906 523.5996704101562 C 124.98493957519531 480.4157409667969 110.53572082519531 478.8030700683594 133.53726196289062 491.798828125 C 135.1447296142578 495.02313232421875 117.7497329711914 447.7635498046875 142.93882751464844 488.2544250488281" stroke-width="10.807084083557129" fill="none" stroke="rgb(0, 0, 0)" stroke-opacity="1.0" stroke-linecap="round" stroke-linejoin="round"/>
    <path d="M 178.90443420410156 471.14111328125 C 378.3895568847656 453.10980224609375 305.3473815917969 437.1689147949219 199.90646362304688 434.9057312011719 C 224.08807373046875 407.2185363769531 166.7877197265625 424.90716552734375 163.62789916992188 425.2666015625 C 179.81640625 420.68572998046875 151.9872283935547 426.3799743652344 139.79161071777344 425.0789489746094 C 167.86996459960938 426.56658935546875 156.17469787597656 432.1140441894531 203.80430603027344 448.1900329589844" stroke-width="22.31740379333496" fill="none" stroke="rgb(0, 0, 0)" stroke-opacity="1.0" stroke-linecap="round" stroke-linejoin="round"/>
    <path d="M 27.300249099731445 520.548828125 C 57.73090744018555 494.4393005371094 45.3532829284668 487.86383056640625 51.02921676635742 492.38555908203125 C 52.064388275146484 500.4033508300781 81.86479949951172 510.0476379394531 44.54204559326172 515.8812866210938 C 70.66691589355469 511.3941955566406 41.94124221801758 524.9855346679688 49.325626373291016 526.3990478515625 C 65.16946411132812 526.4100341796875 56.409000396728516 489.857421875 26.627094268798828 520.3275756835938" stroke-width="-11.108155250549316" fill="none" stroke="rgb(0, 0, 0)" stroke-opacity="0.13105008" stroke-linecap="round" stroke-linejoin="round"/>
    <path d="M 203.3383026123047 430.3864440917969 C 192.8509521484375 430.12493896484375 216.8119354248047 421.30670166015625 229.2080841064453 353.8422546386719 C 190.3550262451172 360.1925354003906 158.45289611816406 369.5285949707031 157.3330841064453 361.8302307128906 C 130.21841430664062 356.6134338378906 172.80264282226562 377.26068115234375 186.08380126953125 380.7263488769531 C 151.42575073242188 349.4806823730469 207.50115966796875 375.51165771484375 215.91334533691406 392.1625671386719" stroke-width="9.603989601135254" fill="none" stroke="rgb(0, 0, 0)" stroke-opacity="1.0" stroke-linecap="round" stroke-linejoin="round"/>
    <path d="M 203.3383026123047 430.3864440917969 C 192.8509521484375 430.12493896484375 216.8119354248047 421.30670166015625 229.2080841064453 353.8422546386719 C 190.3550262451172 360.1925354003906 158.45289611816406 369.5285949707031 157.3330841064453 361.8302307128906 C 130.21841430664062 356.6134338378906 172.80264282226562 377.26068115234375 186.08380126953125 380.7263488769531 C 151.42575073242188 349.4806823730469 207.50115966796875 375.51165771484375 215.91334533691406 392.1625671386719" stroke-width="9.603989601135254" fill="none" stroke="rgb(0, 0, 0)" stroke-opacity="1.0" stroke-linecap="round" stroke-linejoin="round"/>
    <path d="M 203.3383026123047 430.3864440917969 C 192.8509521484375 430.12493896484375 216.8119354248047 421.30670166015625 229.2080841064453 353.8422546386719 C 190.3550262451172 360.1925354003906 158.45289611816406 369.5285949707031 157.3330841064453 361.8302307128906 C 130.21841430664062 356.6134338378906 172.80264282226562 377.26068115234375 186.08380126953125 380.7263488769531 C 151.42575073242188 349.4806823730469 207.50115966796875 375.51165771484375 215.91334533691406 392.1625671386719" stroke-width="9.603989601135254" fill="none" stroke="rgb(0, 0, 0)" stroke-opacity="1.0" stroke-linecap="round" stroke-linejoin="round"/>
    <path d="M 203.3383026123047 430.3864440917969 C 192.8509521484375 430.12493896484375 216.8119354248047 421.30670166015625 229.2080841064453 353.8422546386719 C 190.3550262451172 360.1925354003906 158.45289611816406 369.5285949707031 157.3330841064453 361.8302307128906 C 130.21841430664062 356.6134338378906 172.80264282226562 377.26068115234375 186.08380126953125 380.7263488769531 C 151.42575073242188 349.4806823730469 207.50115966796875 375.51165771484375 215.91334533691406 392.1625671386719" stroke-width="9.603989601135254" fill="none" stroke="rgb(0, 0, 0)" stroke-opacity="1.0" stroke-linecap="round" stroke-linejoin="round"/>
    <path d="M 24.390575408935547 524.6283569335938 C 20.952999114990234 584.9282836914062 42.564212799072266 609.9166870117188 20.6429443359375 638.5751953125 C -3.7860889434814453 620.34375 9.101150512695312 649.2011108398438 28.808269500732422 666.477294921875 C 21.26641082763672 666.8876953125 27.04888153076172 648.9301147460938 24.657272338867188 673.933837890625 C 18.024028778076172 644.1372680664062 26.240068435668945 673.864013671875 -1.7838892936706543 649.352294921875" stroke-width="24.655792236328125" fill="none" stroke="rgb(0, 0, 0)" stroke-opacity="0.85942775" stroke-linecap="round" stroke-linejoin="round"/>
    <path d="M 203.3383026123047 430.3864440917969 C 192.8509521484375 430.12493896484375 216.8119354248047 421.30670166015625 229.2080841064453 353.8422546386719 C 190.3550262451172 360.1925354003906 158.45289611816406 369.5285949707031 157.3330841064453 361.8302307128906 C 130.21841430664062 356.6134338378906 172.80264282226562 377.26068115234375 186.08380126953125 380.7263488769531 C 151.42575073242188 349.4806823730469 207.50115966796875 375.51165771484375 215.91334533691406 392.1625671386719" stroke-width="9.603989601135254" fill="none" stroke="rgb(0, 0, 0)" stroke-opacity="1.0" stroke-linecap="round" stroke-linejoin="round"/>
    <path d="M 203.3383026123047 430.3864440917969 C 192.8509521484375 430.12493896484375 216.8119354248047 421.30670166015625 229.2080841064453 353.8422546386719 C 190.3550262451172 360.1925354003906 158.45289611816406 369.5285949707031 157.3330841064453 361.8302307128906 C 130.21841430664062 356.6134338378906 172.80264282226562 377.26068115234375 186.08380126953125 380.7263488769531 C 151.42575073242188 349.4806823730469 207.50115966796875 375.51165771484375 215.91334533691406 392.1625671386719" stroke-width="9.603989601135254" fill="none" stroke="rgb(0, 0, 0)" stroke-opacity="1.0" stroke-linecap="round" stroke-linejoin="round"/>
    <path d="M 101.2393798828125 570.5881958007812 C 98.11502838134766 577.5701904296875 155.45851135253906 614.8486938476562 156.0139923095703 560.4730834960938 C 143.1731719970703 544.4677124023438 144.84951782226562 550.996826171875 100.98625946044922 585.595703125 C 118.80609130859375 569.2158203125 84.70632934570312 562.5576171875 38.953224182128906 581.6587524414062 C 25.702911376953125 586.4672241210938 83.0076904296875 588.8660888671875 141.5581512451172 584.8339233398438" stroke-width="17.367509841918945" fill="none" stroke="rgb(0, 0, 0)" stroke-opacity="1.0" stroke-linecap="round" stroke-linejoin="round"/>
    <path d="M 203.3383026123047 430.3864440917969 C 192.8509521484375 430.12493896484375 216.8119354248047 421.30670166015625 229.2080841064453 353.8422546386719 C 190.3550262451172 360.1925354003906 158.45289611816406 369.5285949707031 157.3330841064453 361.8302307128906 C 130.21841430664062 356.6134338378906 172.80264282226562 377.26068115234375 186.08380126953125 380.7263488769531 C 151.42575073242188 349.4806823730469 207.50115966796875 375.51165771484375 215.91334533691406 392.1625671386719" stroke-width="9.603989601135254" fill="none" stroke="rgb(0, 0, 0)" stroke-opacity="1.0" stroke-linecap="round" stroke-linejoin="round"/>
    <path d="M 188.89154052734375 231.91802978515625 C 236.88809204101562 247.50038146972656 282.4914855957031 210.90203857421875 291.9093322753906 186.2100830078125 C 300.76446533203125 196.87042236328125 273.0333557128906 183.64634704589844 299.09002685546875 184.9399871826172 C 297.8729248046875 153.49696350097656 288.9969177246094 84.96223449707031 303.8550109863281 57.65202713012695 C 266.09747314453125 44.04319381713867 298.19793701171875 99.2894515991211 295.03729248046875 6.942098617553711" stroke-width="17.22072982788086" fill="none" stroke="rgb(0, 0, 0)" stroke-opacity="1.0" stroke-linecap="round" stroke-linejoin="round"/>
    <path d="M 313.2037048339844 493.9804992675781 C 480.16302490234375 499.97796630859375 464.4676208496094 524.778076171875 425.17010498046875 445.7381591796875 C 305.8265686035156 442.1016845703125 283.14910888671875 415.70562744140625 261.51287841796875 443.07757568359375 C 317.119384765625 430.3862609863281 343.5666809082031 396.7701416015625 279.9684143066406 387.7366943359375 C 215.5210723876953 364.3579406738281 160.62884521484375 352.4761962890625 395.9093017578125 387.4472961425781" stroke-width="15.830604553222656" fill="none" stroke="rgb(0, 0, 0)" stroke-opacity="0.9903697" stroke-linecap="round" stroke-linejoin="round"/>
    <path d="M 280.38433837890625 495.1755676269531 C 213.8558349609375 494.1402893066406 261.1319580078125 455.4192199707031 302.94110107421875 487.5062561035156 C 300.6345520019531 480.1728210449219 313.41400146484375 435.9867858886719 225.16351318359375 417.9664001464844 C 281.5390930175781 392.19708251953125 293.1556701660156 430.0961608886719 296.61029052734375 370.5938415527344 C 316.3966064453125 325.9525451660156 241.89308166503906 327.8143005371094 236.0410919189453 366.3880615234375" stroke-width="31.119449615478516" fill="none" stroke="rgb(0, 0, 0)" stroke-opacity="0.9544072" stroke-linecap="round" stroke-linejoin="round"/>
    <path d="M 203.3383026123047 430.3864440917969 C 192.8509521484375 430.12493896484375 216.8119354248047 421.30670166015625 229.2080841064453 353.8422546386719 C 190.3550262451172 360.1925354003906 158.45289611816406 369.5285949707031 157.3330841064453 361.8302307128906 C 130.21841430664062 356.6134338378906 172.80264282226562 377.26068115234375 186.08380126953125 380.7263488769531 C 151.42575073242188 349.4806823730469 207.50115966796875 375.51165771484375 215.91334533691406 392.1625671386719" stroke-width="9.603989601135254" fill="none" stroke="rgb(0, 0, 0)" stroke-opacity="1.0" stroke-linecap="round" stroke-linejoin="round"/>
    <path d="M 384.9786376953125 320.5784912109375 C 344.08148193359375 319.14892578125 300.8976135253906 303.6190185546875 277.2188415527344 278.4024658203125 C 292.62152099609375 241.370849609375 287.9670104980469 230.28335571289062 286.26556396484375 308.3775939941406 C 235.53030395507812 330.3761291503906 169.2165069580078 305.303466796875 206.87966918945312 305.5179138183594 C 257.7419738769531 294.35406494140625 287.4445495605469 266.879150390625 253.0175018310547 267.26953125" stroke-width="24.622751235961914" fill="none" stroke="rgb(0, 0, 0)" stroke-opacity="1.0" stroke-linecap="round" stroke-linejoin="round"/>
    <path d="M 364.2326354980469 593.3974609375 C 343.7306823730469 599.2522583007812 383.67291259765625 542.0673217773438 383.07916259765625 594.7225952148438 C 367.1778564453125 604.8276977539062 355.683837890625 631.0902709960938 370.1159973144531 622.2392578125 C 328.18365478515625 594.48291015625 316.56634521484375 575.8688354492188 351.8260498046875 590.1944580078125 C 395.640380859375 629.7728881835938 396.51336669921875 610.0845947265625 405.73333740234375 623.6300048828125" stroke-width="32.59820556640625" fill="none" stroke="rgb(0, 0, 0)" stroke-opacity="0.96658826" stroke-linecap="round" stroke-linejoin="round"/>
    <path d="M 203.3383026123047 430.3864440917969 C 192.8509521484375 430.12493896484375 216.8119354248047 421.30670166015625 229.2080841064453 353.8422546386719 C 190.3550262451172 360.1925354003906 158.45289611816406 369.5285949707031 157.3330841064453 361.8302307128906 C 130.21841430664062 356.6134338378906 172.80264282226562 377.26068115234375 186.08380126953125 380.7263488769531 C 151.42575073242188 349.4806823730469 207.50115966796875 375.51165771484375 215.91334533691406 392.1625671386719" stroke-width="9.603989601135254" fill="none" stroke="rgb(0, 0, 0)" stroke-opacity="1.0" stroke-linecap="round" stroke-linejoin="round"/>
    <path d="M 203.3383026123047 430.3864440917969 C 192.8509521484375 430.12493896484375 216.8119354248047 421.30670166015625 229.2080841064453 353.8422546386719 C 190.3550262451172 360.1925354003906 158.45289611816406 369.5285949707031 157.3330841064453 361.8302307128906 C 130.21841430664062 356.6134338378906 172.80264282226562 377.26068115234375 186.08380126953125 380.7263488769531 C 151.42575073242188 349.4806823730469 207.50115966796875 375.51165771484375 215.91334533691406 392.1625671386719" stroke-width="9.603989601135254" fill="none" stroke="rgb(0, 0, 0)" stroke-opacity="1.0" stroke-linecap="round" stroke-linejoin="round"/>
    <path d="M 248.96249389648438 281.8768615722656 C 246.00796508789062 220.47830200195312 278.8277587890625 227.29502868652344 253.58094787597656 296.1340637207031 C 314.6471862792969 294.9743957519531 318.02606201171875 272.7079772949219 266.4470520019531 259.9186706542969 C 293.437744140625 263.7439880371094 263.4302978515625 296.17315673828125 239.77415466308594 312.6966247558594 C 206.39242553710938 332.2897033691406 222.31932067871094 324.03375244140625 170.9838104248047 296.49908447265625" stroke-width="12.51838493347168" fill="none" stroke="rgb(0, 0, 0)" stroke-opacity="0.9885446" stroke-linecap="round" stroke-linejoin="round"/>
    <path d="M 133.88153076171875 269.1729431152344 C 97.11901092529297 281.37408447265625 92.86528015136719 275.8711242675781 128.2999725341797 258.33673095703125 C 110.75934600830078 265.6929626464844 109.51163482666016 260.5190124511719 117.27185821533203 277.51922607421875 C 135.09222412109375 263.3825378417969 118.52118682861328 257.12884521484375 117.72632598876953 267.7186584472656 C 108.36934661865234 257.0043640136719 126.93509674072266 274.19244384765625 108.74058532714844 294.2062072753906" stroke-width="-6.423146724700928" fill="none" stroke="rgb(0, 0, 0)" stroke-opacity="0.017988123" stroke-linecap="round" stroke-linejoin="round"/>
    <path d="M 203.3383026123047 430.3864440917969 C 192.8509521484375 430.12493896484375 216.8119354248047 421.30670166015625 229.2080841064453 353.8422546386719 C 190.3550262451172 360.1925354003906 158.45289611816406 369.5285949707031 157.3330841064453 361.8302307128906 C 130.21841430664062 356.6134338378906 172.80264282226562 377.26068115234375 186.08380126953125 380.7263488769531 C 151.42575073242188 349.4806823730469 207.50115966796875 375.51165771484375 215.91334533691406 392.1625671386719" stroke-width="9.603989601135254" fill="none" stroke="rgb(0, 0, 0)" stroke-opacity="1.0" stroke-linecap="round" stroke-linejoin="round"/>
    <path d="M 20.384538650512695 511.5478515625 C 23.36223030090332 494.35638427734375 1.9707697629928589 511.9649353027344 9.144654273986816 555.5136108398438 C 74.98886108398438 541.1504516601562 67.94827270507812 515.1441040039062 65.7708969116211 590.0271606445312 C -28.567001342773438 608.5773315429688 8.016473770141602 597.6880493164062 17.1102294921875 553.0262451171875 C 67.84246063232422 599.352294921875 49.569068908691406 527.3920288085938 45.21826934814453 508.4096984863281" stroke-width="19.412382125854492" fill="none" stroke="rgb(0, 0, 0)" stroke-opacity="0.987658" stroke-linecap="round" stroke-linejoin="round"/>
    <path d="M 411.7900695800781 504.9214172363281 C 496.453369140625 500.49273681640625 470.97998046875 508.4621887207031 440.3688659667969 466.34429931640625 C 450.2375183105469 468.10400390625 382.13372802734375 467.1158447265625 322.5646667480469 458.7426452636719 C 334.8810119628906 478.7161865234375 293.0721435546875 503.157958984375 253.3199462890625 442.8555908203125 C 208.8859405517578 467.11724853515625 240.93374633789062 524.1279296875 330.2005615234375 524.835693359375" stroke-width="3.619645833969116" fill="none" stroke="rgb(0, 0, 0)" stroke-opacity="0.9478368" stroke-linecap="round" stroke-linejoin="round"/>
    <path d="M 517.0755004882812 68.00071716308594 C 499.6131591796875 88.29627227783203 486.3775939941406 64.83259582519531 462.3852844238281 64.56350708007812 C 463.7967224121094 63.34682083129883 489.675537109375 87.03305053710938 469.9144287109375 73.84025573730469 C 437.3514099121094 65.26927947998047 469.0037536621094 71.2722396850586 487.62811279296875 84.26702880859375 C 473.36700439453125 81.71129608154297 490.34954833984375 73.1187744140625 500.33636474609375 74.98668670654297" stroke-width="2.677720308303833" fill="none" stroke="rgb(0, 0, 0)" stroke-opacity="0.9179134" stroke-linecap="round" stroke-linejoin="round"/>
    <path d="M 203.3383026123047 430.3864440917969 C 192.8509521484375 430.12493896484375 216.8119354248047 421.30670166015625 229.2080841064453 353.8422546386719 C 190.3550262451172 360.1925354003906 158.45289611816406 369.5285949707031 157.3330841064453 361.8302307128906 C 130.21841430664062 356.6134338378906 172.80264282226562 377.26068115234375 186.08380126953125 380.7263488769531 C 151.42575073242188 349.4806823730469 207.50115966796875 375.51165771484375 215.91334533691406 392.1625671386719" stroke-width="9.603989601135254" fill="none" stroke="rgb(0, 0, 0)" stroke-opacity="1.0" stroke-linecap="round" stroke-linejoin="round"/>
    <path d="M 71.43717956542969 550.1221313476562 C 96.26040649414062 595.3444213867188 109.61936950683594 581.437744140625 116.25038146972656 587.3053588867188 C 86.37965393066406 535.9489135742188 96.54777526855469 570.6282958984375 147.8450164794922 608.3179321289062 C 142.0701904296875 599.282470703125 105.51866149902344 574.4780883789062 136.57664489746094 595.0698852539062 C 165.4291534423828 622.599365234375 162.83351135253906 653.6757202148438 135.18023681640625 627.9953002929688" stroke-width="5.744726657867432" fill="none" stroke="rgb(0, 0, 0)" stroke-opacity="0.9580901" stroke-linecap="round" stroke-linejoin="round"/>
    <path d="M 203.3383026123047 430.3864440917969 C 192.8509521484375 430.12493896484375 216.8119354248047 421.30670166015625 229.2080841064453 353.8422546386719 C 190.3550262451172 360.1925354003906 158.45289611816406 369.5285949707031 157.3330841064453 361.8302307128906 C 130.21841430664062 356.6134338378906 172.80264282226562 377.26068115234375 186.08380126953125 380.7263488769531 C 151.42575073242188 349.4806823730469 207.50115966796875 375.51165771484375 215.91334533691406 392.1625671386719" stroke-width="9.603989601135254" fill="none" stroke="rgb(0, 0, 0)" stroke-opacity="1.0" stroke-linecap="round" stroke-linejoin="round"/>
    <path d="M 203.3383026123047 430.3864440917969 C 192.8509521484375 430.12493896484375 216.8119354248047 421.30670166015625 229.2080841064453 353.8422546386719 C 190.3550262451172 360.1925354003906 158.45289611816406 369.5285949707031 157.3330841064453 361.8302307128906 C 130.21841430664062 356.6134338378906 172.80264282226562 377.26068115234375 186.08380126953125 380.7263488769531 C 151.42575073242188 349.4806823730469 207.50115966796875 375.51165771484375 215.91334533691406 392.1625671386719" stroke-width="9.603989601135254" fill="none" stroke="rgb(0, 0, 0)" stroke-opacity="1.0" stroke-linecap="round" stroke-linejoin="round"/>
    <path d="M 537.8471069335938 557.54443359375 C 500.56494140625 545.5144653320312 511.0385437011719 544.1008911132812 547.4199829101562 520.49609375 C 508.1399230957031 495.6578369140625 506.2164306640625 552.8361206054688 495.5278015136719 567.2831420898438 C 487.7776794433594 528.0546875 516.3789672851562 615.5465087890625 490.822509765625 538.5111083984375 C 569.34326171875 530.4107055664062 607.8290405273438 539.2976684570312 639.5667724609375 576.8392333984375" stroke-width="18.289793014526367" fill="none" stroke="rgb(0, 0, 0)" stroke-opacity="1.0" stroke-linecap="round" stroke-linejoin="round"/>
    <path d="M 288.8424072265625 309.43072509765625 C 266.4873046875 277.0328369140625 266.8819885253906 223.77130126953125 279.6832275390625 326.54302978515625 C 299.4729919433594 349.471923828125 275.9665222167969 291.5935363769531 289.24700927734375 245.87637329101562 C 262.5981750488281 256.7790222167969 265.34295654296875 241.6905975341797 264.055908203125 264.4156799316406 C 246.97608947753906 293.14404296875 285.5742492675781 299.15716552734375 227.48910522460938 326.7690124511719" stroke-width="27.357954025268555" fill="none" stroke="rgb(0, 0, 0)" stroke-opacity="0.9921299" stroke-linecap="round" stroke-linejoin="round"/>
    <path d="M 203.3383026123047 430.3864440917969 C 192.8509521484375 430.12493896484375 216.8119354248047 421.30670166015625 229.2080841064453 353.8422546386719 C 190.3550262451172 360.1925354003906 158.45289611816406 369.5285949707031 157.3330841064453 361.8302307128906 C 130.21841430664062 356.6134338378906 172.80264282226562 377.26068115234375 186.08380126953125 380.7263488769531 C 151.42575073242188 349.4806823730469 207.50115966796875 375.51165771484375 215.91334533691406 392.1625671386719" stroke-width="9.603989601135254" fill="none" stroke="rgb(0, 0, 0)" stroke-opacity="1.0" stroke-linecap="round" stroke-linejoin="round"/>
    <path d="M 495.1769714355469 518.9696655273438 C 498.38165283203125 527.33544921875 526.1351928710938 540.2430419921875 436.1864013671875 520.3681030273438 C 433.031494140625 493.2957458496094 462.2583312988281 490.0982971191406 503.4731140136719 465.7199401855469 C 509.7059020996094 511.55303955078125 447.4415283203125 509.3252258300781 437.6062316894531 512.8447875976562 C 461.2972717285156 493.4605407714844 481.2198791503906 441.4761047363281 451.658935546875 433.7365417480469" stroke-width="-18.29336166381836" fill="none" stroke="rgb(0, 0, 0)" stroke-opacity="0.8506937" stroke-linecap="round" stroke-linejoin="round"/>
    <path d="M 203.3383026123047 430.3864440917969 C 192.8509521484375 430.12493896484375 216.8119354248047 421.30670166015625 229.2080841064453 353.8422546386719 C 190.3550262451172 360.1925354003906 158.45289611816406 369.5285949707031 157.3330841064453 361.8302307128906 C 130.21841430664062 356.6134338378906 172.80264282226562 377.26068115234375 186.08380126953125 380.7263488769531 C 151.42575073242188 349.4806823730469 207.50115966796875 375.51165771484375 215.91334533691406 392.1625671386719" stroke-width="9.603989601135254" fill="none" stroke="rgb(0, 0, 0)" stroke-opacity="1.0" stroke-linecap="round" stroke-linejoin="round"/>
    <path d="M 203.3383026123047 430.3864440917969 C 192.8509521484375 430.12493896484375 216.8119354248047 421.30670166015625 229.2080841064453 353.8422546386719 C 190.3550262451172 360.1925354003906 158.45289611816406 369.5285949707031 157.3330841064453 361.8302307128906 C 130.21841430664062 356.6134338378906 172.80264282226562 377.26068115234375 186.08380126953125 380.7263488769531 C 151.42575073242188 349.4806823730469 207.50115966796875 375.51165771484375 215.91334533691406 392.1625671386719" stroke-width="9.603989601135254" fill="none" stroke="rgb(0, 0, 0)" stroke-opacity="1.0" stroke-linecap="round" stroke-linejoin="round"/>
    <path d="M 203.3383026123047 430.3864440917969 C 192.8509521484375 430.12493896484375 216.8119354248047 421.30670166015625 229.2080841064453 353.8422546386719 C 190.3550262451172 360.1925354003906 158.45289611816406 369.5285949707031 157.3330841064453 361.8302307128906 C 130.21841430664062 356.6134338378906 172.80264282226562 377.26068115234375 186.08380126953125 380.7263488769531 C 151.42575073242188 349.4806823730469 207.50115966796875 375.51165771484375 215.91334533691406 392.1625671386719" stroke-width="9.603989601135254" fill="none" stroke="rgb(0, 0, 0)" stroke-opacity="1.0" stroke-linecap="round" stroke-linejoin="round"/>
    <path d="M 462.5003967285156 358.0578918457031 C 428.3365173339844 364.5259094238281 391.0644226074219 344.0316162109375 342.50738525390625 345.162841796875 C 407.00762939453125 359.9354553222656 462.9686279296875 374.6410217285156 451.1209716796875 350.1199951171875 C 451.37738037109375 308.5311279296875 452.3812255859375 293.54296875 452.5572814941406 316.9634704589844 C 451.1834411621094 304.1083984375 452.8390197753906 306.6423645019531 452.775390625 311.903564453125" stroke-width="0.38541749119758606" fill="none" stroke="rgb(0, 0, 0)" stroke-opacity="0.7533143" stroke-linecap="round" stroke-linejoin="round"/>
    <path d="M 203.3383026123047 430.3864440917969 C 192.8509521484375 430.12493896484375 216.8119354248047 421.30670166015625 229.2080841064453 353.8422546386719 C 190.3550262451172 360.1925354003906 158.45289611816406 369.5285949707031 157.3330841064453 361.8302307128906 C 130.21841430664062 356.6134338378906 172.80264282226562 377.26068115234375 186.08380126953125 380.7263488769531 C 151.42575073242188 349.4806823730469 207.50115966796875 375.51165771484375 215.91334533691406 392.1625671386719" stroke-width="9.603989601135254" fill="none" stroke="rgb(0, 0, 0)" stroke-opacity="1.0" stroke-linecap="round" stroke-linejoin="round"/>
    <path d="M 291.42578125 374.5107727050781 C 238.55426025390625 385.9578552246094 244.21548461914062 366.5744323730469 226.11289978027344 367.55084228515625 C 189.51280212402344 402.4193420410156 235.8448486328125 456.32464599609375 215.96429443359375 421.35223388671875 C 217.30433654785156 376.76495361328125 240.12782287597656 280.9338073730469 236.06541442871094 345.50091552734375 C 192.38829040527344 390.70172119140625 170.40118408203125 372.0091247558594 207.34707641601562 368.17803955078125" stroke-width="22.416549682617188" fill="none" stroke="rgb(0, 0, 0)" stroke-opacity="0.8806098" stroke-linecap="round" stroke-linejoin="round"/>
    <path d="M 203.3383026123047 430.3864440917969 C 192.8509521484375 430.12493896484375 216.8119354248047 421.30670166015625 229.2080841064453 353.8422546386719 C 190.3550262451172 360.1925354003906 158.45289611816406 369.5285949707031 157.3330841064453 361.8302307128906 C 130.21841430664062 356.6134338378906 172.80264282226562 377.26068115234375 186.08380126953125 380.7263488769531 C 151.42575073242188 349.4806823730469 207.50115966796875 375.51165771484375 215.91334533691406 392.1625671386719" stroke-width="9.603989601135254" fill="none" stroke="rgb(0, 0, 0)" stroke-opacity="1.0" stroke-linecap="round" stroke-linejoin="round"/>
    <path d="M 203.3383026123047 430.3864440917969 C 192.8509521484375 430.12493896484375 216.8119354248047 421.30670166015625 229.2080841064453 353.8422546386719 C 190.3550262451172 360.1925354003906 158.45289611816406 369.5285949707031 157.3330841064453 361.8302307128906 C 130.21841430664062 356.6134338378906 172.80264282226562 377.26068115234375 186.08380126953125 380.7263488769531 C 151.42575073242188 349.4806823730469 207.50115966796875 375.51165771484375 215.91334533691406 392.1625671386719" stroke-width="9.603989601135254" fill="none" stroke="rgb(0, 0, 0)" stroke-opacity="1.0" stroke-linecap="round" stroke-linejoin="round"/>
    <path d="M 203.3383026123047 430.3864440917969 C 192.8509521484375 430.12493896484375 216.8119354248047 421.30670166015625 229.2080841064453 353.8422546386719 C 190.3550262451172 360.1925354003906 158.45289611816406 369.5285949707031 157.3330841064453 361.8302307128906 C 130.21841430664062 356.6134338378906 172.80264282226562 377.26068115234375 186.08380126953125 380.7263488769531 C 151.42575073242188 349.4806823730469 207.50115966796875 375.51165771484375 215.91334533691406 392.1625671386719" stroke-width="9.603989601135254" fill="none" stroke="rgb(0, 0, 0)" stroke-opacity="1.0" stroke-linecap="round" stroke-linejoin="round"/>
    <path d="M 338.41253662109375 313.37347412109375 C 418.3626403808594 324.3582458496094 441.0558166503906 299.7913818359375 430.4702453613281 297.9415588378906 C 355.5780029296875 294.38702392578125 315.1683349609375 245.62005615234375 285.47943115234375 289.9353942871094 C 454.8841247558594 317.005126953125 445.377197265625 320.5906066894531 324.2944641113281 323.6318664550781 C 372.350830078125 299.75262451171875 350.7655334472656 236.13307189941406 326.4656066894531 223.35153198242188" stroke-width="5.693907260894775" fill="none" stroke="rgb(0, 0, 0)" stroke-opacity="0.96581966" stroke-linecap="round" stroke-linejoin="round"/>
    <path d="M 203.3383026123047 430.3864440917969 C 192.8509521484375 430.12493896484375 216.8119354248047 421.30670166015625 229.2080841064453 353.8422546386719 C 190.3550262451172 360.1925354003906 158.45289611816406 369.5285949707031 157.3330841064453 361.8302307128906 C 130.21841430664062 356.6134338378906 172.80264282226562 377.26068115234375 186.08380126953125 380.7263488769531 C 151.42575073242188 349.4806823730469 207.50115966796875 375.51165771484375 215.91334533691406 392.1625671386719" stroke-width="9.603989601135254" fill="none" stroke="rgb(0, 0, 0)" stroke-opacity="1.0" stroke-linecap="round" stroke-linejoin="round"/>
    <path d="M 203.3383026123047 430.3864440917969 C 192.8509521484375 430.12493896484375 216.8119354248047 421.30670166015625 229.2080841064453 353.8422546386719 C 190.3550262451172 360.1925354003906 158.45289611816406 369.5285949707031 157.3330841064453 361.8302307128906 C 130.21841430664062 356.6134338378906 172.80264282226562 377.26068115234375 186.08380126953125 380.7263488769531 C 151.42575073242188 349.4806823730469 207.50115966796875 375.51165771484375 215.91334533691406 392.1625671386719" stroke-width="9.603989601135254" fill="none" stroke="rgb(0, 0, 0)" stroke-opacity="1.0" stroke-linecap="round" stroke-linejoin="round"/>
    <path d="M 203.3383026123047 430.3864440917969 C 192.8509521484375 430.12493896484375 216.8119354248047 421.30670166015625 229.2080841064453 353.8422546386719 C 190.3550262451172 360.1925354003906 158.45289611816406 369.5285949707031 157.3330841064453 361.8302307128906 C 130.21841430664062 356.6134338378906 172.80264282226562 377.26068115234375 186.08380126953125 380.7263488769531 C 151.42575073242188 349.4806823730469 207.50115966796875 375.51165771484375 215.91334533691406 392.1625671386719" stroke-width="9.603989601135254" fill="none" stroke="rgb(0, 0, 0)" stroke-opacity="1.0" stroke-linecap="round" stroke-linejoin="round"/>
    <path d="M 203.3383026123047 430.3864440917969 C 192.8509521484375 430.12493896484375 216.8119354248047 421.30670166015625 229.2080841064453 353.8422546386719 C 190.3550262451172 360.1925354003906 158.45289611816406 369.5285949707031 157.3330841064453 361.8302307128906 C 130.21841430664062 356.6134338378906 172.80264282226562 377.26068115234375 186.08380126953125 380.7263488769531 C 151.42575073242188 349.4806823730469 207.50115966796875 375.51165771484375 215.91334533691406 392.1625671386719" stroke-width="9.603989601135254" fill="none" stroke="rgb(0, 0, 0)" stroke-opacity="1.0" stroke-linecap="round" stroke-linejoin="round"/>
    <path d="M 449.6940002441406 -21.54274559020996 C 459.0087890625 10.912206649780273 455.22076416015625 -0.4130121171474457 434.38214111328125 -25.650320053100586 C 410.3517761230469 -23.328706741333008 403.6899719238281 -19.315271377563477 382.16412353515625 -24.541406631469727 C 362.96173095703125 -47.76313781738281 378.7569274902344 -60.07872772216797 389.3248596191406 -70.87449645996094 C 367.505126953125 -83.88795471191406 396.85821533203125 -84.09791564941406 423.7376708984375 -94.26051330566406" stroke-width="-0.8862649202346802" fill="none" stroke="rgb(0, 0, 0)" stroke-opacity="0.32819402" stroke-linecap="round" stroke-linejoin="round"/>
    <path d="M 103.5135726928711 577.7979736328125 C 106.92965698242188 541.5048217773438 106.97386932373047 560.6692504882812 85.60728454589844 555.9927368164062 C 111.5425796508789 587.5886840820312 108.03726196289062 561.2848510742188 98.27842712402344 570.2280883789062 C 81.1890869140625 553.1648559570312 75.94463348388672 584.6701049804688 104.85472869873047 580.7315673828125 C 100.20431518554688 575.3961181640625 65.36056518554688 626.2288818359375 54.0390510559082 523.7720336914062" stroke-width="8.216171264648438" fill="none" stroke="rgb(0, 0, 0)" stroke-opacity="0.5443365" stroke-linecap="round" stroke-linejoin="round"/>
    <path d="M 203.3383026123047 430.3864440917969 C 192.8509521484375 430.12493896484375 216.8119354248047 421.30670166015625 229.2080841064453 353.8422546386719 C 190.3550262451172 360.1925354003906 158.45289611816406 369.5285949707031 157.3330841064453 361.8302307128906 C 130.21841430664062 356.6134338378906 172.80264282226562 377.26068115234375 186.08380126953125 380.7263488769531 C 151.42575073242188 349.4806823730469 207.50115966796875 375.51165771484375 215.91334533691406 392.1625671386719" stroke-width="9.603989601135254" fill="none" stroke="rgb(0, 0, 0)" stroke-opacity="1.0" stroke-linecap="round" stroke-linejoin="round"/>
    <path d="M 203.3383026123047 430.3864440917969 C 192.8509521484375 430.12493896484375 216.8119354248047 421.30670166015625 229.2080841064453 353.8422546386719 C 190.3550262451172 360.1925354003906 158.45289611816406 369.5285949707031 157.3330841064453 361.8302307128906 C 130.21841430664062 356.6134338378906 172.80264282226562 377.26068115234375 186.08380126953125 380.7263488769531 C 151.42575073242188 349.4806823730469 207.50115966796875 375.51165771484375 215.91334533691406 392.1625671386719" stroke-width="9.603989601135254" fill="none" stroke="rgb(0, 0, 0)" stroke-opacity="1.0" stroke-linecap="round" stroke-linejoin="round"/>
    <path d="M 203.3383026123047 430.3864440917969 C 192.8509521484375 430.12493896484375 216.8119354248047 421.30670166015625 229.2080841064453 353.8422546386719 C 190.3550262451172 360.1925354003906 158.45289611816406 369.5285949707031 157.3330841064453 361.8302307128906 C 130.21841430664062 356.6134338378906 172.80264282226562 377.26068115234375 186.08380126953125 380.7263488769531 C 151.42575073242188 349.4806823730469 207.50115966796875 375.51165771484375 215.91334533691406 392.1625671386719" stroke-width="9.603989601135254" fill="none" stroke="rgb(0, 0, 0)" stroke-opacity="1.0" stroke-linecap="round" stroke-linejoin="round"/>
    <path d="M 203.3383026123047 430.3864440917969 C 192.8509521484375 430.12493896484375 216.8119354248047 421.30670166015625 229.2080841064453 353.8422546386719 C 190.3550262451172 360.1925354003906 158.45289611816406 369.5285949707031 157.3330841064453 361.8302307128906 C 130.21841430664062 356.6134338378906 172.80264282226562 377.26068115234375 186.08380126953125 380.7263488769531 C 151.42575073242188 349.4806823730469 207.50115966796875 375.51165771484375 215.91334533691406 392.1625671386719" stroke-width="9.603989601135254" fill="none" stroke="rgb(0, 0, 0)" stroke-opacity="1.0" stroke-linecap="round" stroke-linejoin="round"/>
    <path d="M 68.7501220703125 568.79150390625 C 25.196300506591797 522.63720703125 -7.1572184562683105 505.4450988769531 -31.471784591674805 489.9873962402344 C -33.47364044189453 498.00860595703125 -45.67509078979492 482.46337890625 -20.84178924560547 458.25140380859375 C -35.32898712158203 442.7900695800781 -43.252479553222656 426.7037658691406 -32.09844970703125 410.6275329589844 C -26.786205291748047 415.1077880859375 -35.745487213134766 427.0267028808594 -21.801427841186523 446.21112060546875" stroke-width="42.29274368286133" fill="none" stroke="rgb(0, 0, 0)" stroke-opacity="0.8030912" stroke-linecap="round" stroke-linejoin="round"/>
    <path d="M 203.3383026123047 430.3864440917969 C 192.8509521484375 430.12493896484375 216.8119354248047 421.30670166015625 229.2080841064453 353.8422546386719 C 190.3550262451172 360.1925354003906 158.45289611816406 369.5285949707031 157.3330841064453 361.8302307128906 C 130.21841430664062 356.6134338378906 172.80264282226562 377.26068115234375 186.08380126953125 380.7263488769531 C 151.42575073242188 349.4806823730469 207.50115966796875 375.51165771484375 215.91334533691406 392.1625671386719" stroke-width="9.603989601135254" fill="none" stroke="rgb(0, 0, 0)" stroke-opacity="1.0" stroke-linecap="round" stroke-linejoin="round"/>
    <path d="M 203.3383026123047 430.3864440917969 C 192.8509521484375 430.12493896484375 216.8119354248047 421.30670166015625 229.2080841064453 353.8422546386719 C 190.3550262451172 360.1925354003906 158.45289611816406 369.5285949707031 157.3330841064453 361.8302307128906 C 130.21841430664062 356.6134338378906 172.80264282226562 377.26068115234375 186.08380126953125 380.7263488769531 C 151.42575073242188 349.4806823730469 207.50115966796875 375.51165771484375 215.91334533691406 392.1625671386719" stroke-width="9.603989601135254" fill="none" stroke="rgb(0, 0, 0)" stroke-opacity="1.0" stroke-linecap="round" stroke-linejoin="round"/>
    <path d="M 454.0562744140625 438.8115234375 C 463.2763977050781 418.9537353515625 503.7445068359375 426.591064453125 427.7967834472656 444.1454162597656 C 508.34454345703125 417.05633544921875 444.02032470703125 428.39837646484375 394.7591247558594 404.65472412109375 C 432.0802917480469 427.7111511230469 466.78955078125 432.6492004394531 482.41455078125 423.4000244140625 C 483.4862060546875 422.67840576171875 429.02227783203125 457.2793273925781 327.57342529296875 421.77337646484375" stroke-width="5.256709098815918" fill="none" stroke="rgb(0, 0, 0)" stroke-opacity="1.0" stroke-linecap="round" stroke-linejoin="round"/>
    <path d="M 170.65330505371094 216.09764099121094 C 176.56619262695312 225.30322265625 185.2373046875 230.75009155273438 232.1283416748047 232.3715057373047 C 259.6651916503906 215.99737548828125 236.38427734375 219.40475463867188 259.14886474609375 221.9070587158203 C 297.4382629394531 165.66091918945312 292.8036193847656 204.41305541992188 320.40338134765625 236.91796875 C 309.44158935546875 232.61260986328125 286.2876281738281 216.10479736328125 251.04684448242188 219.0216064453125" stroke-width="6.530088424682617" fill="none" stroke="rgb(0, 0, 0)" stroke-opacity="1.0" stroke-linecap="round" stroke-linejoin="round"/>
    <path d="M 203.3383026123047 430.3864440917969 C 192.8509521484375 430.12493896484375 216.8119354248047 421.30670166015625 229.2080841064453 353.8422546386719 C 190.3550262451172 360.1925354003906 158.45289611816406 369.5285949707031 157.3330841064453 361.8302307128906 C 130.21841430664062 356.6134338378906 172.80264282226562 377.26068115234375 186.08380126953125 380.7263488769531 C 151.42575073242188 349.4806823730469 207.50115966796875 375.51165771484375 215.91334533691406 392.1625671386719" stroke-width="9.603989601135254" fill="none" stroke="rgb(0, 0, 0)" stroke-opacity="1.0" stroke-linecap="round" stroke-linejoin="round"/>
    <path d="M 203.3383026123047 430.3864440917969 C 192.8509521484375 430.12493896484375 216.8119354248047 421.30670166015625 229.2080841064453 353.8422546386719 C 190.3550262451172 360.1925354003906 158.45289611816406 369.5285949707031 157.3330841064453 361.8302307128906 C 130.21841430664062 356.6134338378906 172.80264282226562 377.26068115234375 186.08380126953125 380.7263488769531 C 151.42575073242188 349.4806823730469 207.50115966796875 375.51165771484375 215.91334533691406 392.1625671386719" stroke-width="9.603989601135254" fill="none" stroke="rgb(0, 0, 0)" stroke-opacity="1.0" stroke-linecap="round" stroke-linejoin="round"/>
    <path d="M 203.3383026123047 430.3864440917969 C 192.8509521484375 430.12493896484375 216.8119354248047 421.30670166015625 229.2080841064453 353.8422546386719 C 190.3550262451172 360.1925354003906 158.45289611816406 369.5285949707031 157.3330841064453 361.8302307128906 C 130.21841430664062 356.6134338378906 172.80264282226562 377.26068115234375 186.08380126953125 380.7263488769531 C 151.42575073242188 349.4806823730469 207.50115966796875 375.51165771484375 215.91334533691406 392.1625671386719" stroke-width="9.603989601135254" fill="none" stroke="rgb(0, 0, 0)" stroke-opacity="1.0" stroke-linecap="round" stroke-linejoin="round"/>
    <path d="M 203.3383026123047 430.3864440917969 C 192.8509521484375 430.12493896484375 216.8119354248047 421.30670166015625 229.2080841064453 353.8422546386719 C 190.3550262451172 360.1925354003906 158.45289611816406 369.5285949707031 157.3330841064453 361.8302307128906 C 130.21841430664062 356.6134338378906 172.80264282226562 377.26068115234375 186.08380126953125 380.7263488769531 C 151.42575073242188 349.4806823730469 207.50115966796875 375.51165771484375 215.91334533691406 392.1625671386719" stroke-width="9.603989601135254" fill="none" stroke="rgb(0, 0, 0)" stroke-opacity="1.0" stroke-linecap="round" stroke-linejoin="round"/>
    <path d="M 203.3383026123047 430.3864440917969 C 192.8509521484375 430.12493896484375 216.8119354248047 421.30670166015625 229.2080841064453 353.8422546386719 C 190.3550262451172 360.1925354003906 158.45289611816406 369.5285949707031 157.3330841064453 361.8302307128906 C 130.21841430664062 356.6134338378906 172.80264282226562 377.26068115234375 186.08380126953125 380.7263488769531 C 151.42575073242188 349.4806823730469 207.50115966796875 375.51165771484375 215.91334533691406 392.1625671386719" stroke-width="9.603989601135254" fill="none" stroke="rgb(0, 0, 0)" stroke-opacity="1.0" stroke-linecap="round" stroke-linejoin="round"/>
    <path d="M 203.3383026123047 430.3864440917969 C 192.8509521484375 430.12493896484375 216.8119354248047 421.30670166015625 229.2080841064453 353.8422546386719 C 190.3550262451172 360.1925354003906 158.45289611816406 369.5285949707031 157.3330841064453 361.8302307128906 C 130.21841430664062 356.6134338378906 172.80264282226562 377.26068115234375 186.08380126953125 380.7263488769531 C 151.42575073242188 349.4806823730469 207.50115966796875 375.51165771484375 215.91334533691406 392.1625671386719" stroke-width="9.603989601135254" fill="none" stroke="rgb(0, 0, 0)" stroke-opacity="1.0" stroke-linecap="round" stroke-linejoin="round"/>
    <path d="M 557.3143920898438 170.75851440429688 C 553.9320678710938 165.68421936035156 508.25848388671875 181.62599182128906 529.43017578125 178.38319396972656 C 541.9730224609375 179.66770935058594 519.7366333007812 187.18124389648438 526.8194580078125 175.96322631835938 C 522.5029296875 153.88058471679688 515.65771484375 133.4017791748047 534.4607543945312 171.5570526123047 C 507.761474609375 161.45449829101562 520.5278930664062 152.83412170410156 515.1195678710938 145.91729736328125" stroke-width="6.4324951171875" fill="none" stroke="rgb(0, 0, 0)" stroke-opacity="1.0" stroke-linecap="round" stroke-linejoin="round"/>
    <path d="M 242.14556884765625 494.2656555175781 C 188.94984436035156 495.65704345703125 133.57830810546875 481.0697021484375 231.50588989257812 469.70379638671875 C 171.14842224121094 462.4563293457031 160.0955352783203 483.7371826171875 128.8953857421875 512.6185302734375 C 145.56344604492188 502.01470947265625 166.5303955078125 520.7915649414062 203.38304138183594 485.679443359375 C 135.10928344726562 518.214599609375 177.45704650878906 506.9842224121094 306.695068359375 511.0619201660156" stroke-width="30.20551109313965" fill="none" stroke="rgb(0, 0, 0)" stroke-opacity="0.9817039" stroke-linecap="round" stroke-linejoin="round"/>
    <path d="M 150.1082763671875 608.2892456054688 C 145.818359375 639.2158203125 127.38514709472656 671.7407836914062 139.40597534179688 681.0635375976562 C 151.6791229248047 657.4235229492188 124.76802825927734 640.8810424804688 105.4658432006836 667.2125854492188 C 93.33889770507812 669.2999267578125 67.73390197753906 664.3912353515625 84.09061431884766 635.4126586914062 C 89.11422729492188 661.8297119140625 98.09150695800781 640.2440185546875 77.2783432006836 667.15673828125" stroke-width="9.045968055725098" fill="none" stroke="rgb(0, 0, 0)" stroke-opacity="0.8650997" stroke-linecap="round" stroke-linejoin="round"/>
    <path d="M 282.701416015625 185.2278594970703 C 336.0528564453125 231.9239959716797 339.7459411621094 249.7521209716797 271.40826416015625 236.23834228515625 C 298.9950256347656 222.89590454101562 292.8864440917969 236.45130920410156 251.70932006835938 296.6927490234375 C 309.3255310058594 320.208740234375 276.27386474609375 294.0129089355469 292.0947570800781 234.219970703125 C 431.92999267578125 252.47940063476562 405.92742919921875 249.2353973388672 298.56494140625 238.89041137695312" stroke-width="15.430994033813477" fill="none" stroke="rgb(0, 0, 0)" stroke-opacity="1.0" stroke-linecap="round" stroke-linejoin="round"/>
    <path d="M 203.3383026123047 430.3864440917969 C 192.8509521484375 430.12493896484375 216.8119354248047 421.30670166015625 229.2080841064453 353.8422546386719 C 190.3550262451172 360.1925354003906 158.45289611816406 369.5285949707031 157.3330841064453 361.8302307128906 C 130.21841430664062 356.6134338378906 172.80264282226562 377.26068115234375 186.08380126953125 380.7263488769531 C 151.42575073242188 349.4806823730469 207.50115966796875 375.51165771484375 215.91334533691406 392.1625671386719" stroke-width="9.603989601135254" fill="none" stroke="rgb(0, 0, 0)" stroke-opacity="1.0" stroke-linecap="round" stroke-linejoin="round"/>
    <path d="M 123.34173583984375 562.1123657226562 C 205.63427734375 605.5403442382812 202.04043579101562 550.8037719726562 127.85010528564453 585.6520385742188 C 161.28622436523438 648.909912109375 170.31976318359375 640.7657470703125 151.13687133789062 656.3583984375 C 184.3613739013672 623.793212890625 183.86257934570312 628.6192626953125 204.99261474609375 628.0435791015625 C 187.26048278808594 647.1510620117188 190.80621337890625 633.5593872070312 207.70852661132812 627.4551391601562" stroke-width="26.092063903808594" fill="none" stroke="rgb(0, 0, 0)" stroke-opacity="1.0" stroke-linecap="round" stroke-linejoin="round"/>
    <path d="M 273.26300048828125 124.66058349609375 C 315.6777648925781 142.86683654785156 318.5290222167969 124.07501983642578 285.6697692871094 182.23245239257812 C 301.8645324707031 175.1744384765625 301.9077453613281 175.29347229003906 296.3317565917969 170.30506896972656 C 268.9284973144531 178.17796325683594 319.8179931640625 153.798828125 295.624755859375 128.69674682617188 C 283.631103515625 119.40145111083984 322.5906677246094 122.8824234008789 283.4789733886719 108.59822082519531" stroke-width="-10.557014465332031" fill="none" stroke="rgb(0, 0, 0)" stroke-opacity="0.98164964" stroke-linecap="round" stroke-linejoin="round"/>
    <path d="M 203.3383026123047 430.3864440917969 C 192.8509521484375 430.12493896484375 216.8119354248047 421.30670166015625 229.2080841064453 353.8422546386719 C 190.3550262451172 360.1925354003906 158.45289611816406 369.5285949707031 157.3330841064453 361.8302307128906 C 130.21841430664062 356.6134338378906 172.80264282226562 377.26068115234375 186.08380126953125 380.7263488769531 C 151.42575073242188 349.4806823730469 207.50115966796875 375.51165771484375 215.91334533691406 392.1625671386719" stroke-width="9.603989601135254" fill="none" stroke="rgb(0, 0, 0)" stroke-opacity="1.0" stroke-linecap="round" stroke-linejoin="round"/>
    <path d="M 316.150146484375 275.22833251953125 C 266.2934265136719 278.5872497558594 229.89878845214844 309.7998352050781 227.64093017578125 316.7149963378906 C 248.3148651123047 289.6894226074219 265.9348449707031 281.6614685058594 242.79592895507812 256.3075256347656 C 207.4017333984375 256.8778381347656 245.52340698242188 275.4992980957031 208.51890563964844 313.87896728515625 C 159.97296142578125 289.68902587890625 139.135986328125 275.7857971191406 128.06529235839844 268.3497619628906" stroke-width="-19.021093368530273" fill="none" stroke="rgb(0, 0, 0)" stroke-opacity="0.06724126" stroke-linecap="round" stroke-linejoin="round"/>
    <path d="M 203.3383026123047 430.3864440917969 C 192.8509521484375 430.12493896484375 216.8119354248047 421.30670166015625 229.2080841064453 353.8422546386719 C 190.3550262451172 360.1925354003906 158.45289611816406 369.5285949707031 157.3330841064453 361.8302307128906 C 130.21841430664062 356.6134338378906 172.80264282226562 377.26068115234375 186.08380126953125 380.7263488769531 C 151.42575073242188 349.4806823730469 207.50115966796875 375.51165771484375 215.91334533691406 392.1625671386719" stroke-width="9.603989601135254" fill="none" stroke="rgb(0, 0, 0)" stroke-opacity="1.0" stroke-linecap="round" stroke-linejoin="round"/>
    <path d="M 203.3383026123047 430.3864440917969 C 192.8509521484375 430.12493896484375 216.8119354248047 421.30670166015625 229.2080841064453 353.8422546386719 C 190.3550262451172 360.1925354003906 158.45289611816406 369.5285949707031 157.3330841064453 361.8302307128906 C 130.21841430664062 356.6134338378906 172.80264282226562 377.26068115234375 186.08380126953125 380.7263488769531 C 151.42575073242188 349.4806823730469 207.50115966796875 375.51165771484375 215.91334533691406 392.1625671386719" stroke-width="9.603989601135254" fill="none" stroke="rgb(0, 0, 0)" stroke-opacity="1.0" stroke-linecap="round" stroke-linejoin="round"/>
    <path d="M 203.3383026123047 430.3864440917969 C 192.8509521484375 430.12493896484375 216.8119354248047 421.30670166015625 229.2080841064453 353.8422546386719 C 190.3550262451172 360.1925354003906 158.45289611816406 369.5285949707031 157.3330841064453 361.8302307128906 C 130.21841430664062 356.6134338378906 172.80264282226562 377.26068115234375 186.08380126953125 380.7263488769531 C 151.42575073242188 349.4806823730469 207.50115966796875 375.51165771484375 215.91334533691406 392.1625671386719" stroke-width="9.603989601135254" fill="none" stroke="rgb(0, 0, 0)" stroke-opacity="1.0" stroke-linecap="round" stroke-linejoin="round"/>
    <path d="M 203.3383026123047 430.3864440917969 C 192.8509521484375 430.12493896484375 216.8119354248047 421.30670166015625 229.2080841064453 353.8422546386719 C 190.3550262451172 360.1925354003906 158.45289611816406 369.5285949707031 157.3330841064453 361.8302307128906 C 130.21841430664062 356.6134338378906 172.80264282226562 377.26068115234375 186.08380126953125 380.7263488769531 C 151.42575073242188 349.4806823730469 207.50115966796875 375.51165771484375 215.91334533691406 392.1625671386719" stroke-width="9.603989601135254" fill="none" stroke="rgb(0, 0, 0)" stroke-opacity="1.0" stroke-linecap="round" stroke-linejoin="round"/>
    <path d="M 203.3383026123047 430.3864440917969 C 192.8509521484375 430.12493896484375 216.8119354248047 421.30670166015625 229.2080841064453 353.8422546386719 C 190.3550262451172 360.1925354003906 158.45289611816406 369.5285949707031 157.3330841064453 361.8302307128906 C 130.21841430664062 356.6134338378906 172.80264282226562 377.26068115234375 186.08380126953125 380.7263488769531 C 151.42575073242188 349.4806823730469 207.50115966796875 375.51165771484375 215.91334533691406 392.1625671386719" stroke-width="9.603989601135254" fill="none" stroke="rgb(0, 0, 0)" stroke-opacity="1.0" stroke-linecap="round" stroke-linejoin="round"/>
    <path d="M 401.0990295410156 620.580078125 C 411.66619873046875 628.6533813476562 391.1441345214844 628.90283203125 397.9537353515625 636.2103271484375 C 431.4272766113281 621.4683227539062 414.8206787109375 647.837646484375 396.42840576171875 654.3773193359375 C 429.2275085449219 655.2827758789062 418.052734375 663.136962890625 412.2785339355469 569.9052734375 C 392.79638671875 554.6309814453125 426.2941589355469 566.4797973632812 432.1167907714844 612.6934204101562" stroke-width="33.91551971435547" fill="none" stroke="rgb(0, 0, 0)" stroke-opacity="0.9359651" stroke-linecap="round" stroke-linejoin="round"/>
    <path d="M 203.3383026123047 430.3864440917969 C 192.8509521484375 430.12493896484375 216.8119354248047 421.30670166015625 229.2080841064453 353.8422546386719 C 190.3550262451172 360.1925354003906 158.45289611816406 369.5285949707031 157.3330841064453 361.8302307128906 C 130.21841430664062 356.6134338378906 172.80264282226562 377.26068115234375 186.08380126953125 380.7263488769531 C 151.42575073242188 349.4806823730469 207.50115966796875 375.51165771484375 215.91334533691406 392.1625671386719" stroke-width="9.603989601135254" fill="none" stroke="rgb(0, 0, 0)" stroke-opacity="1.0" stroke-linecap="round" stroke-linejoin="round"/>
    <path d="M 203.3383026123047 430.3864440917969 C 192.8509521484375 430.12493896484375 216.8119354248047 421.30670166015625 229.2080841064453 353.8422546386719 C 190.3550262451172 360.1925354003906 158.45289611816406 369.5285949707031 157.3330841064453 361.8302307128906 C 130.21841430664062 356.6134338378906 172.80264282226562 377.26068115234375 186.08380126953125 380.7263488769531 C 151.42575073242188 349.4806823730469 207.50115966796875 375.51165771484375 215.91334533691406 392.1625671386719" stroke-width="9.603989601135254" fill="none" stroke="rgb(0, 0, 0)" stroke-opacity="1.0" stroke-linecap="round" stroke-linejoin="round"/>
    <path d="M 203.3383026123047 430.3864440917969 C 192.8509521484375 430.12493896484375 216.8119354248047 421.30670166015625 229.2080841064453 353.8422546386719 C 190.3550262451172 360.1925354003906 158.45289611816406 369.5285949707031 157.3330841064453 361.8302307128906 C 130.21841430664062 356.6134338378906 172.80264282226562 377.26068115234375 186.08380126953125 380.7263488769531 C 151.42575073242188 349.4806823730469 207.50115966796875 375.51165771484375 215.91334533691406 392.1625671386719" stroke-width="9.603989601135254" fill="none" stroke="rgb(0, 0, 0)" stroke-opacity="1.0" stroke-linecap="round" stroke-linejoin="round"/>
    <path d="M 49.096961975097656 497.8868408203125 C -6.1519975662231445 510.8544616699219 6.410442352294922 523.1749877929688 53.609676361083984 509.7936096191406 C 51.368560791015625 551.1287231445312 -1.2043322324752808 507.2839050292969 -2.0339648723602295 524.9004516601562 C 2.061335563659668 459.321044921875 11.671307563781738 458.42742919921875 26.98377799987793 502.444091796875 C 41.687198638916016 559.3032836914062 -16.501636505126953 575.8157348632812 60.135337829589844 572.4285278320312" stroke-width="25.042339324951172" fill="none" stroke="rgb(0, 0, 0)" stroke-opacity="0.99838066" stroke-linecap="round" stroke-linejoin="round"/>
    <path d="M 203.3383026123047 430.3864440917969 C 192.8509521484375 430.12493896484375 216.8119354248047 421.30670166015625 229.2080841064453 353.8422546386719 C 190.3550262451172 360.1925354003906 158.45289611816406 369.5285949707031 157.3330841064453 361.8302307128906 C 130.21841430664062 356.6134338378906 172.80264282226562 377.26068115234375 186.08380126953125 380.7263488769531 C 151.42575073242188 349.4806823730469 207.50115966796875 375.51165771484375 215.91334533691406 392.1625671386719" stroke-width="9.603989601135254" fill="none" stroke="rgb(0, 0, 0)" stroke-opacity="1.0" stroke-linecap="round" stroke-linejoin="round"/>
    <path d="M 203.3383026123047 430.3864440917969 C 192.8509521484375 430.12493896484375 216.8119354248047 421.30670166015625 229.2080841064453 353.8422546386719 C 190.3550262451172 360.1925354003906 158.45289611816406 369.5285949707031 157.3330841064453 361.8302307128906 C 130.21841430664062 356.6134338378906 172.80264282226562 377.26068115234375 186.08380126953125 380.7263488769531 C 151.42575073242188 349.4806823730469 207.50115966796875 375.51165771484375 215.91334533691406 392.1625671386719" stroke-width="9.603989601135254" fill="none" stroke="rgb(0, 0, 0)" stroke-opacity="1.0" stroke-linecap="round" stroke-linejoin="round"/>
    <path d="M 203.3383026123047 430.3864440917969 C 192.8509521484375 430.12493896484375 216.8119354248047 421.30670166015625 229.2080841064453 353.8422546386719 C 190.3550262451172 360.1925354003906 158.45289611816406 369.5285949707031 157.3330841064453 361.8302307128906 C 130.21841430664062 356.6134338378906 172.80264282226562 377.26068115234375 186.08380126953125 380.7263488769531 C 151.42575073242188 349.4806823730469 207.50115966796875 375.51165771484375 215.91334533691406 392.1625671386719" stroke-width="9.603989601135254" fill="none" stroke="rgb(0, 0, 0)" stroke-opacity="1.0" stroke-linecap="round" stroke-linejoin="round"/>
    <path d="M 203.3383026123047 430.3864440917969 C 192.8509521484375 430.12493896484375 216.8119354248047 421.30670166015625 229.2080841064453 353.8422546386719 C 190.3550262451172 360.1925354003906 158.45289611816406 369.5285949707031 157.3330841064453 361.8302307128906 C 130.21841430664062 356.6134338378906 172.80264282226562 377.26068115234375 186.08380126953125 380.7263488769531 C 151.42575073242188 349.4806823730469 207.50115966796875 375.51165771484375 215.91334533691406 392.1625671386719" stroke-width="9.603989601135254" fill="none" stroke="rgb(0, 0, 0)" stroke-opacity="1.0" stroke-linecap="round" stroke-linejoin="round"/>
    <path d="M 203.3383026123047 430.3864440917969 C 192.8509521484375 430.12493896484375 216.8119354248047 421.30670166015625 229.2080841064453 353.8422546386719 C 190.3550262451172 360.1925354003906 158.45289611816406 369.5285949707031 157.3330841064453 361.8302307128906 C 130.21841430664062 356.6134338378906 172.80264282226562 377.26068115234375 186.08380126953125 380.7263488769531 C 151.42575073242188 349.4806823730469 207.50115966796875 375.51165771484375 215.91334533691406 392.1625671386719" stroke-width="9.603989601135254" fill="none" stroke="rgb(0, 0, 0)" stroke-opacity="1.0" stroke-linecap="round" stroke-linejoin="round"/>
    <path d="M 468.9806823730469 601.2669067382812 C 460.0568542480469 553.6931762695312 432.5538024902344 568.4716796875 446.6256103515625 574.2858276367188 C 499.4601745605469 587.2263793945312 482.88330078125 588.7442016601562 438.7146911621094 614.1196899414062 C 447.9432373046875 557.7374877929688 431.5470275878906 485.9276428222656 453.48382568359375 488.2423400878906 C 477.36328125 490.56817626953125 426.11767578125 501.37701416015625 337.72064208984375 498.4091491699219" stroke-width="-5.180152893066406" fill="none" stroke="rgb(0, 0, 0)" stroke-opacity="0.0" stroke-linecap="round" stroke-linejoin="round"/>
    <path d="M 203.3383026123047 430.3864440917969 C 192.8509521484375 430.12493896484375 216.8119354248047 421.30670166015625 229.2080841064453 353.8422546386719 C 190.3550262451172 360.1925354003906 158.45289611816406 369.5285949707031 157.3330841064453 361.8302307128906 C 130.21841430664062 356.6134338378906 172.80264282226562 377.26068115234375 186.08380126953125 380.7263488769531 C 151.42575073242188 349.4806823730469 207.50115966796875 375.51165771484375 215.91334533691406 392.1625671386719" stroke-width="9.603989601135254" fill="none" stroke="rgb(0, 0, 0)" stroke-opacity="1.0" stroke-linecap="round" stroke-linejoin="round"/>
    <path d="M 203.3383026123047 430.3864440917969 C 192.8509521484375 430.12493896484375 216.8119354248047 421.30670166015625 229.2080841064453 353.8422546386719 C 190.3550262451172 360.1925354003906 158.45289611816406 369.5285949707031 157.3330841064453 361.8302307128906 C 130.21841430664062 356.6134338378906 172.80264282226562 377.26068115234375 186.08380126953125 380.7263488769531 C 151.42575073242188 349.4806823730469 207.50115966796875 375.51165771484375 215.91334533691406 392.1625671386719" stroke-width="9.603989601135254" fill="none" stroke="rgb(0, 0, 0)" stroke-opacity="1.0" stroke-linecap="round" stroke-linejoin="round"/>
    <path d="M 203.3383026123047 430.3864440917969 C 192.8509521484375 430.12493896484375 216.8119354248047 421.30670166015625 229.2080841064453 353.8422546386719 C 190.3550262451172 360.1925354003906 158.45289611816406 369.5285949707031 157.3330841064453 361.8302307128906 C 130.21841430664062 356.6134338378906 172.80264282226562 377.26068115234375 186.08380126953125 380.7263488769531 C 151.42575073242188 349.4806823730469 207.50115966796875 375.51165771484375 215.91334533691406 392.1625671386719" stroke-width="9.603989601135254" fill="none" stroke="rgb(0, 0, 0)" stroke-opacity="1.0" stroke-linecap="round" stroke-linejoin="round"/>
    <path d="M 178.8199005126953 509.96728515625 C 168.4324951171875 630.4813842773438 177.70082092285156 604.0109252929688 123.69514465332031 621.6368408203125 C 89.90548706054688 580.2848510742188 98.70523834228516 516.6982421875 113.20935821533203 520.5601806640625 C 73.83958435058594 495.523681640625 89.46397399902344 526.5282592773438 113.20408630371094 587.8981323242188 C 106.30789184570312 634.3373413085938 104.61759948730469 646.9268188476562 86.85379028320312 604.8018188476562" stroke-width="-14.335345268249512" fill="none" stroke="rgb(0, 0, 0)" stroke-opacity="0.0" stroke-linecap="round" stroke-linejoin="round"/>
    <path d="M 452.4573974609375 359.97802734375 C 462.6270751953125 354.20355224609375 421.60302734375 388.62548828125 399.45654296875 378.6214599609375 C 397.00701904296875 339.97198486328125 358.6753234863281 361.4028625488281 393.6904296875 363.24700927734375 C 459.4603576660156 371.72344970703125 427.2662658691406 359.3180847167969 424.25567626953125 379.0195617675781 C 431.43426513671875 366.7228698730469 433.79736328125 376.86212158203125 437.3879089355469 369.7828369140625" stroke-width="11.227246284484863" fill="none" stroke="rgb(0, 0, 0)" stroke-opacity="0.97560626" stroke-linecap="round" stroke-linejoin="round"/>
    <path d="M 203.3383026123047 430.3864440917969 C 192.8509521484375 430.12493896484375 216.8119354248047 421.30670166015625 229.2080841064453 353.8422546386719 C 190.3550262451172 360.1925354003906 158.45289611816406 369.5285949707031 157.3330841064453 361.8302307128906 C 130.21841430664062 356.6134338378906 172.80264282226562 377.26068115234375 186.08380126953125 380.7263488769531 C 151.42575073242188 349.4806823730469 207.50115966796875 375.51165771484375 215.91334533691406 392.1625671386719" stroke-width="9.603989601135254" fill="none" stroke="rgb(0, 0, 0)" stroke-opacity="0.97461313" stroke-linecap="round" stroke-linejoin="round"/>
  </g>
</svg>
