<?xml version="1.0" ?>
<svg xmlns="http://www.w3.org/2000/svg" version="1.1" width="600" height="600">
  <defs/>
  <g>
    <path d="M 329.0702819824219 91.9298324584961 C 363.783203125 73.14969635009766 357.49566650390625 73.26010131835938 347.04217529296875 71.1963882446289 C 290.3692321777344 62.83647155761719 261.0972595214844 46.298301696777344 282.4971923828125 94.15493774414062 C 392.2696838378906 12.740946769714355 320.2316589355469 -2.9127142429351807 325.6410217285156 4.6839752197265625 C 317.1126708984375 55.272918701171875 337.7471618652344 96.63835144042969 301.4466552734375 103.6044692993164" stroke-width="-55.785037994384766" fill="none" stroke="rgb(0, 0, 0)" stroke-opacity="1.0" stroke-linecap="round" stroke-linejoin="round"/>
    <path d="M 329.0702819824219 91.9298324584961 C 363.783203125 73.14969635009766 357.49566650390625 73.26010131835938 347.04217529296875 71.1963882446289 C 290.3692321777344 62.83647155761719 261.0972595214844 46.298301696777344 282.4971923828125 94.15493774414062 C 392.2696838378906 12.740946769714355 320.2316589355469 -2.9127142429351807 325.6410217285156 4.6839752197265625 C 317.1126708984375 55.272918701171875 337.7471618652344 96.63835144042969 301.4466552734375 103.6044692993164" stroke-width="-55.785037994384766" fill="none" stroke="rgb(0, 0, 0)" stroke-opacity="1.0" stroke-linecap="round" stroke-linejoin="round"/>
    <path d="M 165.24703979492188 442.297119140625 C 216.95289611816406 467.40618896484375 227.27822875976562 436.8176574707031 243.06170654296875 422.1846923828125 C 194.73046875 360.06317138671875 215.53684997558594 351.8161315917969 199.2750244140625 416.7894592285156 C 235.937255859375 454.64154052734375 299.0901184082031 442.563232421875 262.80755615234375 443.0091857910156 C 266.11956787109375 423.9014892578125 239.5184783935547 396.1071472167969 164.67860412597656 400.8941345214844" stroke-width="18.099626541137695" fill="none" stroke="rgb(0, 0, 0)" stroke-opacity="0.87539893" stroke-linecap="round" stroke-linejoin="round"/>
    <path d="M 279.5843200683594 469.7607727050781 C 249.7339630126953 466.4523620605469 270.28924560546875 498.16650390625 254.10238647460938 498.5719299316406 C 220.24588012695312 493.4925231933594 220.25546264648438 509.84783935546875 262.7315979003906 490.259033203125 C 325.3312072753906 501.1325988769531 282.175048828125 474.7137145996094 278.79071044921875 534.6550903320312 C 298.5866394042969 519.8759155273438 315.9110107421875 516.473876953125 331.1763916015625 487.9180603027344" stroke-width="-10.118189811706543" fill="none" stroke="rgb(0, 0, 0)" stroke-opacity="0.023280239" stroke-linecap="round" stroke-linejoin="round"/>
    <path d="M 329.0702819824219 91.9298324584961 C 363.783203125 73.14969635009766 357.49566650390625 73.26010131835938 347.04217529296875 71.1963882446289 C 290.3692321777344 62.83647155761719 261.0972595214844 46.298301696777344 282.4971923828125 94.15493774414062 C 392.2696838378906 12.740946769714355 320.2316589355469 -2.9127142429351807 325.6410217285156 4.6839752197265625 C 317.1126708984375 55.272918701171875 337.7471618652344 96.63835144042969 301.4466552734375 103.6044692993164" stroke-width="-55.785037994384766" fill="none" stroke="rgb(0, 0, 0)" stroke-opacity="1.0" stroke-linecap="round" stroke-linejoin="round"/>
    <path d="M 329.0702819824219 91.9298324584961 C 363.783203125 73.14969635009766 357.49566650390625 73.26010131835938 347.04217529296875 71.1963882446289 C 290.3692321777344 62.83647155761719 261.0972595214844 46.298301696777344 282.4971923828125 94.15493774414062 C 392.2696838378906 12.740946769714355 320.2316589355469 -2.9127142429351807 325.6410217285156 4.6839752197265625 C 317.1126708984375 55.272918701171875 337.7471618652344 96.63835144042969 301.4466552734375 103.6044692993164" stroke-width="-55.785037994384766" fill="none" stroke="rgb(0, 0, 0)" stroke-opacity="1.0" stroke-linecap="round" stroke-linejoin="round"/>
    <path d="M 329.0702819824219 91.9298324584961 C 363.783203125 73.14969635009766 357.49566650390625 73.26010131835938 347.04217529296875 71.1963882446289 C 290.3692321777344 62.83647155761719 261.0972595214844 46.298301696777344 282.4971923828125 94.15493774414062 C 392.2696838378906 12.740946769714355 320.2316589355469 -2.9127142429351807 325.6410217285156 4.6839752197265625 C 317.1126708984375 55.272918701171875 337.7471618652344 96.63835144042969 301.4466552734375 103.6044692993164" stroke-width="-55.785037994384766" fill="none" stroke="rgb(0, 0, 0)" stroke-opacity="1.0" stroke-linecap="round" stroke-linejoin="round"/>
    <path d="M 158.21885681152344 256.6846923828125 C 150.72927856445312 212.96994018554688 163.03408813476562 246.7292022705078 188.35557556152344 267.977783203125 C 234.9982452392578 273.3817443847656 240.9845428466797 340.46295166015625 192.3537139892578 295.4598693847656 C 182.24099731445312 229.31423950195312 141.1444854736328 213.53692626953125 149.32435607910156 201.14271545410156 C 156.53805541992188 250.7925567626953 149.14772033691406 263.2101745605469 166.9845428466797 240.3168487548828" stroke-width="2.454906940460205" fill="none" stroke="rgb(0, 0, 0)" stroke-opacity="0.86110234" stroke-linecap="round" stroke-linejoin="round"/>
    <path d="M 365.1942443847656 552.3444213867188 C 370.8424987792969 620.1854858398438 369.6430969238281 625.4727783203125 367.4659423828125 577.3758544921875 C 367.4974365234375 601.017822265625 368.26507568359375 612.0379638671875 371.7655944824219 577.3134765625 C 377.53424072265625 525.0888061523438 362.77252197265625 582.9010009765625 367.849853515625 662.32470703125 C 366.2635803222656 564.3084106445312 359.80633544921875 551.287841796875 367.14093017578125 561.7269897460938" stroke-width="1.6532920598983765" fill="none" stroke="rgb(0, 0, 0)" stroke-opacity="0.0" stroke-linecap="round" stroke-linejoin="round"/>
    <path d="M 329.0702819824219 91.9298324584961 C 363.783203125 73.14969635009766 357.49566650390625 73.26010131835938 347.04217529296875 71.1963882446289 C 290.3692321777344 62.83647155761719 261.0972595214844 46.298301696777344 282.4971923828125 94.15493774414062 C 392.2696838378906 12.740946769714355 320.2316589355469 -2.9127142429351807 325.6410217285156 4.6839752197265625 C 317.1126708984375 55.272918701171875 337.7471618652344 96.63835144042969 301.4466552734375 103.6044692993164" stroke-width="-55.785037994384766" fill="none" stroke="rgb(0, 0, 0)" stroke-opacity="1.0" stroke-linecap="round" stroke-linejoin="round"/>
    <path d="M 329.0702819824219 91.9298324584961 C 363.783203125 73.14969635009766 357.49566650390625 73.26010131835938 347.04217529296875 71.1963882446289 C 290.3692321777344 62.83647155761719 261.0972595214844 46.298301696777344 282.4971923828125 94.15493774414062 C 392.2696838378906 12.740946769714355 320.2316589355469 -2.9127142429351807 325.6410217285156 4.6839752197265625 C 317.1126708984375 55.272918701171875 337.7471618652344 96.63835144042969 301.4466552734375 103.6044692993164" stroke-width="-55.785037994384766" fill="none" stroke="rgb(0, 0, 0)" stroke-opacity="1.0" stroke-linecap="round" stroke-linejoin="round"/>
    <path d="M 329.0702819824219 91.9298324584961 C 363.783203125 73.14969635009766 357.49566650390625 73.26010131835938 347.04217529296875 71.1963882446289 C 290.3692321777344 62.83647155761719 261.0972595214844 46.298301696777344 282.4971923828125 94.15493774414062 C 392.2696838378906 12.740946769714355 320.2316589355469 -2.9127142429351807 325.6410217285156 4.6839752197265625 C 317.1126708984375 55.272918701171875 337.7471618652344 96.63835144042969 301.4466552734375 103.6044692993164" stroke-width="-55.785037994384766" fill="none" stroke="rgb(0, 0, 0)" stroke-opacity="1.0" stroke-linecap="round" stroke-linejoin="round"/>
    <path d="M 329.0702819824219 91.9298324584961 C 363.783203125 73.14969635009766 357.49566650390625 73.26010131835938 347.04217529296875 71.1963882446289 C 290.3692321777344 62.83647155761719 261.0972595214844 46.298301696777344 282.4971923828125 94.15493774414062 C 392.2696838378906 12.740946769714355 320.2316589355469 -2.9127142429351807 325.6410217285156 4.6839752197265625 C 317.1126708984375 55.272918701171875 337.7471618652344 96.63835144042969 301.4466552734375 103.6044692993164" stroke-width="-55.785037994384766" fill="none" stroke="rgb(0, 0, 0)" stroke-opacity="1.0" stroke-linecap="round" stroke-linejoin="round"/>
    <path d="M 302.6527404785156 441.4138488769531 C 275.54449462890625 474.01812744140625 263.0378112792969 470.00946044921875 290.05517578125 464.1089782714844 C 293.27276611328125 535.75146484375 289.5971374511719 534.182373046875 285.7113342285156 487.7657775878906 C 285.64251708984375 535.3739624023438 288.6678161621094 514.0800170898438 278.93719482421875 523.0958862304688 C 302.3426818847656 484.2110595703125 240.01458740234375 505.8301696777344 187.33792114257812 516.3936767578125" stroke-width="-5.358562469482422" fill="none" stroke="rgb(0, 0, 0)" stroke-opacity="0.13947098" stroke-linecap="round" stroke-linejoin="round"/>
    <path d="M 329.0702819824219 91.9298324584961 C 363.783203125 73.14969635009766 357.49566650390625 73.26010131835938 347.04217529296875 71.1963882446289 C 290.3692321777344 62.83647155761719 261.0972595214844 46.298301696777344 282.4971923828125 94.15493774414062 C 392.2696838378906 12.740946769714355 320.2316589355469 -2.9127142429351807 325.6410217285156 4.6839752197265625 C 317.1126708984375 55.272918701171875 337.7471618652344 96.63835144042969 301.4466552734375 103.6044692993164" stroke-width="-55.785037994384766" fill="none" stroke="rgb(0, 0, 0)" stroke-opacity="1.0" stroke-linecap="round" stroke-linejoin="round"/>
    <path d="M 329.0702819824219 91.9298324584961 C 363.783203125 73.14969635009766 357.49566650390625 73.26010131835938 347.04217529296875 71.1963882446289 C 290.3692321777344 62.83647155761719 261.0972595214844 46.298301696777344 282.4971923828125 94.15493774414062 C 392.2696838378906 12.740946769714355 320.2316589355469 -2.9127142429351807 325.6410217285156 4.6839752197265625 C 317.1126708984375 55.272918701171875 337.7471618652344 96.63835144042969 301.4466552734375 103.6044692993164" stroke-width="-55.785037994384766" fill="none" stroke="rgb(0, 0, 0)" stroke-opacity="1.0" stroke-linecap="round" stroke-linejoin="round"/>
    <path d="M 329.0702819824219 91.9298324584961 C 363.783203125 73.14969635009766 357.49566650390625 73.26010131835938 347.04217529296875 71.1963882446289 C 290.3692321777344 62.83647155761719 261.0972595214844 46.298301696777344 282.4971923828125 94.15493774414062 C 392.2696838378906 12.740946769714355 320.2316589355469 -2.9127142429351807 325.6410217285156 4.6839752197265625 C 317.1126708984375 55.272918701171875 337.7471618652344 96.63835144042969 301.4466552734375 103.6044692993164" stroke-width="-55.785037994384766" fill="none" stroke="rgb(0, 0, 0)" stroke-opacity="1.0" stroke-linecap="round" stroke-linejoin="round"/>
    <path d="M 329.0702819824219 91.9298324584961 C 363.783203125 73.14969635009766 357.49566650390625 73.26010131835938 347.04217529296875 71.1963882446289 C 290.3692321777344 62.83647155761719 261.0972595214844 46.298301696777344 282.4971923828125 94.15493774414062 C 392.2696838378906 12.740946769714355 320.2316589355469 -2.9127142429351807 325.6410217285156 4.6839752197265625 C 317.1126708984375 55.272918701171875 337.7471618652344 96.63835144042969 301.4466552734375 103.6044692993164" stroke-width="-55.785037994384766" fill="none" stroke="rgb(0, 0, 0)" stroke-opacity="1.0" stroke-linecap="round" stroke-linejoin="round"/>
    <path d="M 149.00579833984375 101.31394958496094 C 152.44032287597656 58.75848388671875 186.27520751953125 96.44444274902344 158.86289978027344 100.85387420654297 C 155.401611328125 134.4355926513672 163.7163543701172 124.58317565917969 153.56309509277344 79.8880844116211 C 192.45068359375 114.76648712158203 148.73638916015625 103.58541107177734 146.8994903564453 104.33695220947266 C 168.1793670654297 72.43098449707031 151.5172882080078 11.892297744750977 160.80642700195312 98.09139251708984" stroke-width="7.602443218231201" fill="none" stroke="rgb(0, 0, 0)" stroke-opacity="1.0" stroke-linecap="round" stroke-linejoin="round"/>
    <path d="M 329.0702819824219 91.9298324584961 C 363.783203125 73.14969635009766 357.49566650390625 73.26010131835938 347.04217529296875 71.1963882446289 C 290.3692321777344 62.83647155761719 261.0972595214844 46.298301696777344 282.4971923828125 94.15493774414062 C 392.2696838378906 12.740946769714355 320.2316589355469 -2.9127142429351807 325.6410217285156 4.6839752197265625 C 317.1126708984375 55.272918701171875 337.7471618652344 96.63835144042969 301.4466552734375 103.6044692993164" stroke-width="-55.785037994384766" fill="none" stroke="rgb(0, 0, 0)" stroke-opacity="1.0" stroke-linecap="round" stroke-linejoin="round"/>
    <path d="M 479.68316650390625 425.4496765136719 C 458.2040100097656 418.5893249511719 486.2475891113281 412.62744140625 482.1644592285156 425.96044921875 C 465.9518737792969 418.9177551269531 458.8714294433594 413.330078125 476.2791748046875 422.87615966796875 C 485.4355773925781 423.0329895019531 463.21820068359375 459.63525390625 482.3413391113281 465.28875732421875 C 492.6614990234375 422.3200378417969 468.16363525390625 432.4819641113281 425.2079772949219 433.802734375" stroke-width="12.045084953308105" fill="none" stroke="rgb(0, 0, 0)" stroke-opacity="0.98308784" stroke-linecap="round" stroke-linejoin="round"/>
    <path d="M 329.0702819824219 91.9298324584961 C 363.783203125 73.14969635009766 357.49566650390625 73.26010131835938 347.04217529296875 71.1963882446289 C 290.3692321777344 62.83647155761719 261.0972595214844 46.298301696777344 282.4971923828125 94.15493774414062 C 392.2696838378906 12.740946769714355 320.2316589355469 -2.9127142429351807 325.6410217285156 4.6839752197265625 C 317.1126708984375 55.272918701171875 337.7471618652344 96.63835144042969 301.4466552734375 103.6044692993164" stroke-width="-55.785037994384766" fill="none" stroke="rgb(0, 0, 0)" stroke-opacity="1.0" stroke-linecap="round" stroke-linejoin="round"/>
    <path d="M 98.13058471679688 309.4176025390625 C 168.30270385742188 291.6869812011719 169.15708923339844 262.40087890625 153.1342010498047 284.1136169433594 C 180.77462768554688 329.2769775390625 202.00692749023438 292.2049560546875 164.20730590820312 226.18177795410156 C 146.4341278076172 249.06932067871094 115.76535034179688 287.2678527832031 82.8460464477539 309.5640563964844 C 100.68131256103516 324.3660888671875 98.07832336425781 343.0616760253906 16.10430145263672 323.22235107421875" stroke-width="19.94564437866211" fill="none" stroke="rgb(0, 0, 0)" stroke-opacity="0.989999" stroke-linecap="round" stroke-linejoin="round"/>
    <path d="M 115.0313949584961 430.2916259765625 C 163.45924377441406 411.5227966308594 129.23170471191406 423.9716796875 58.854488372802734 428.06622314453125 C 44.30207824707031 455.11895751953125 68.2825927734375 464.7447509765625 106.5082778930664 434.6101989746094 C 137.322265625 406.45556640625 109.45187377929688 427.196533203125 77.8267593383789 436.5865173339844 C 55.272239685058594 430.24609375 60.52363204956055 409.34613037109375 48.67416763305664 454.30462646484375" stroke-width="12.466339111328125" fill="none" stroke="rgb(0, 0, 0)" stroke-opacity="0.9998148" stroke-linecap="round" stroke-linejoin="round"/>
    <path d="M 73.08872985839844 384.2154846191406 C 230.85125732421875 361.1815185546875 281.8494873046875 357.6945495605469 201.25079345703125 350.8074951171875 C 175.28639221191406 353.5317687988281 200.5691680908203 458.8004150390625 183.65933227539062 512.0394287109375 C 193.7718505859375 473.4311828613281 212.67108154296875 467.9267578125 226.403564453125 463.6269836425781 C 208.9760284423828 497.54498291015625 172.2695770263672 504.10052490234375 250.50735473632812 497.34906005859375" stroke-width="24.31405258178711" fill="none" stroke="rgb(0, 0, 0)" stroke-opacity="1.0" stroke-linecap="round" stroke-linejoin="round"/>
    <path d="M 329.0702819824219 91.9298324584961 C 363.783203125 73.14969635009766 357.49566650390625 73.26010131835938 347.04217529296875 71.1963882446289 C 290.3692321777344 62.83647155761719 261.0972595214844 46.298301696777344 282.4971923828125 94.15493774414062 C 392.2696838378906 12.740946769714355 320.2316589355469 -2.9127142429351807 325.6410217285156 4.6839752197265625 C 317.1126708984375 55.272918701171875 337.7471618652344 96.63835144042969 301.4466552734375 103.6044692993164" stroke-width="-55.785037994384766" fill="none" stroke="rgb(0, 0, 0)" stroke-opacity="1.0" stroke-linecap="round" stroke-linejoin="round"/>
    <path d="M 329.0702819824219 91.9298324584961 C 363.783203125 73.14969635009766 357.49566650390625 73.26010131835938 347.04217529296875 71.1963882446289 C 290.3692321777344 62.83647155761719 261.0972595214844 46.298301696777344 282.4971923828125 94.15493774414062 C 392.2696838378906 12.740946769714355 320.2316589355469 -2.9127142429351807 325.6410217285156 4.6839752197265625 C 317.1126708984375 55.272918701171875 337.7471618652344 96.63835144042969 301.4466552734375 103.6044692993164" stroke-width="-55.785037994384766" fill="none" stroke="rgb(0, 0, 0)" stroke-opacity="1.0" stroke-linecap="round" stroke-linejoin="round"/>
    <path d="M 329.0702819824219 91.9298324584961 C 363.783203125 73.14969635009766 357.49566650390625 73.26010131835938 347.04217529296875 71.1963882446289 C 290.3692321777344 62.83647155761719 261.0972595214844 46.298301696777344 282.4971923828125 94.15493774414062 C 392.2696838378906 12.740946769714355 320.2316589355469 -2.9127142429351807 325.6410217285156 4.6839752197265625 C 317.1126708984375 55.272918701171875 337.7471618652344 96.63835144042969 301.4466552734375 103.6044692993164" stroke-width="-55.785037994384766" fill="none" stroke="rgb(0, 0, 0)" stroke-opacity="1.0" stroke-linecap="round" stroke-linejoin="round"/>
    <path d="M 329.0702819824219 91.9298324584961 C 363.783203125 73.14969635009766 357.49566650390625 73.26010131835938 347.04217529296875 71.1963882446289 C 290.3692321777344 62.83647155761719 261.0972595214844 46.298301696777344 282.4971923828125 94.15493774414062 C 392.2696838378906 12.740946769714355 320.2316589355469 -2.9127142429351807 325.6410217285156 4.6839752197265625 C 317.1126708984375 55.272918701171875 337.7471618652344 96.63835144042969 301.4466552734375 103.6044692993164" stroke-width="-55.785037994384766" fill="none" stroke="rgb(0, 0, 0)" stroke-opacity="1.0" stroke-linecap="round" stroke-linejoin="round"/>
    <path d="M 329.0702819824219 91.9298324584961 C 363.783203125 73.14969635009766 357.49566650390625 73.26010131835938 347.04217529296875 71.1963882446289 C 290.3692321777344 62.83647155761719 261.0972595214844 46.298301696777344 282.4971923828125 94.15493774414062 C 392.2696838378906 12.740946769714355 320.2316589355469 -2.9127142429351807 325.6410217285156 4.6839752197265625 C 317.1126708984375 55.272918701171875 337.7471618652344 96.63835144042969 301.4466552734375 103.6044692993164" stroke-width="-55.785037994384766" fill="none" stroke="rgb(0, 0, 0)" stroke-opacity="1.0" stroke-linecap="round" stroke-linejoin="round"/>
    <path d="M 329.0702819824219 91.9298324584961 C 363.783203125 73.14969635009766 357.49566650390625 73.26010131835938 347.04217529296875 71.1963882446289 C 290.3692321777344 62.83647155761719 261.0972595214844 46.298301696777344 282.4971923828125 94.15493774414062 C 392.2696838378906 12.740946769714355 320.2316589355469 -2.9127142429351807 325.6410217285156 4.6839752197265625 C 317.1126708984375 55.272918701171875 337.7471618652344 96.63835144042969 301.4466552734375 103.6044692993164" stroke-width="-55.785037994384766" fill="none" stroke="rgb(0, 0, 0)" stroke-opacity="1.0" stroke-linecap="round" stroke-linejoin="round"/>
    <path d="M 139.6945037841797 306.5725402832031 C 79.18180084228516 293.2111511230469 55.68270492553711 296.00408935546875 76.5003662109375 358.90740966796875 C 97.7486343383789 371.94488525390625 112.94135284423828 396.9709777832031 173.82113647460938 401.5283203125 C 250.55862426757812 346.07391357421875 261.9187316894531 355.8741455078125 248.77906799316406 296.5687255859375 C 224.9749755859375 308.85906982421875 226.71649169921875 294.81988525390625 181.6009521484375 286.111572265625" stroke-width="9.615760803222656" fill="none" stroke="rgb(0, 0, 0)" stroke-opacity="0.83927506" stroke-linecap="round" stroke-linejoin="round"/>
    <path d="M 329.0702819824219 91.9298324584961 C 363.783203125 73.14969635009766 357.49566650390625 73.26010131835938 347.04217529296875 71.1963882446289 C 290.3692321777344 62.83647155761719 261.0972595214844 46.298301696777344 282.4971923828125 94.15493774414062 C 392.2696838378906 12.740946769714355 320.2316589355469 -2.9127142429351807 325.6410217285156 4.6839752197265625 C 317.1126708984375 55.272918701171875 337.7471618652344 96.63835144042969 301.4466552734375 103.6044692993164" stroke-width="-55.785037994384766" fill="none" stroke="rgb(0, 0, 0)" stroke-opacity="1.0" stroke-linecap="round" stroke-linejoin="round"/>
    <path d="M 329.0702819824219 91.9298324584961 C 363.783203125 73.14969635009766 357.49566650390625 73.26010131835938 347.04217529296875 71.1963882446289 C 290.3692321777344 62.83647155761719 261.0972595214844 46.298301696777344 282.4971923828125 94.15493774414062 C 392.2696838378906 12.740946769714355 320.2316589355469 -2.9127142429351807 325.6410217285156 4.6839752197265625 C 317.1126708984375 55.272918701171875 337.7471618652344 96.63835144042969 301.4466552734375 103.6044692993164" stroke-width="-55.785037994384766" fill="none" stroke="rgb(0, 0, 0)" stroke-opacity="1.0" stroke-linecap="round" stroke-linejoin="round"/>
    <path d="M 329.0702819824219 91.9298324584961 C 363.783203125 73.14969635009766 357.49566650390625 73.26010131835938 347.04217529296875 71.1963882446289 C 290.3692321777344 62.83647155761719 261.0972595214844 46.298301696777344 282.4971923828125 94.15493774414062 C 392.2696838378906 12.740946769714355 320.2316589355469 -2.9127142429351807 325.6410217285156 4.6839752197265625 C 317.1126708984375 55.272918701171875 337.7471618652344 96.63835144042969 301.4466552734375 103.6044692993164" stroke-width="-55.785037994384766" fill="none" stroke="rgb(0, 0, 0)" stroke-opacity="1.0" stroke-linecap="round" stroke-linejoin="round"/>
    <path d="M 329.0702819824219 91.9298324584961 C 363.783203125 73.14969635009766 357.49566650390625 73.26010131835938 347.04217529296875 71.1963882446289 C 290.3692321777344 62.83647155761719 261.0972595214844 46.298301696777344 282.4971923828125 94.15493774414062 C 392.2696838378906 12.740946769714355 320.2316589355469 -2.9127142429351807 325.6410217285156 4.6839752197265625 C 317.1126708984375 55.272918701171875 337.7471618652344 96.63835144042969 301.4466552734375 103.6044692993164" stroke-width="-55.785037994384766" fill="none" stroke="rgb(0, 0, 0)" stroke-opacity="1.0" stroke-linecap="round" stroke-linejoin="round"/>
    <path d="M 329.0702819824219 91.9298324584961 C 363.783203125 73.14969635009766 357.49566650390625 73.26010131835938 347.04217529296875 71.1963882446289 C 290.3692321777344 62.83647155761719 261.0972595214844 46.298301696777344 282.4971923828125 94.15493774414062 C 392.2696838378906 12.740946769714355 320.2316589355469 -2.9127142429351807 325.6410217285156 4.6839752197265625 C 317.1126708984375 55.272918701171875 337.7471618652344 96.63835144042969 301.4466552734375 103.6044692993164" stroke-width="-55.785037994384766" fill="none" stroke="rgb(0, 0, 0)" stroke-opacity="1.0" stroke-linecap="round" stroke-linejoin="round"/>
    <path d="M 398.182373046875 619.673828125 C 440.8673400878906 650.7144775390625 453.3309326171875 610.7155151367188 453.47821044921875 556.6346435546875 C 438.9733581542969 555.64599609375 485.38323974609375 534.673095703125 510.4578552246094 544.557861328125 C 462.3045349121094 565.6337280273438 449.6969299316406 560.9674072265625 490.1802978515625 553.8806762695312 C 471.2786865234375 634.75439453125 477.89642333984375 629.6589965820312 490.5577392578125 542.52392578125" stroke-width="-7.585851192474365" fill="none" stroke="rgb(0, 0, 0)" stroke-opacity="0.0" stroke-linecap="round" stroke-linejoin="round"/>
    <path d="M 329.0702819824219 91.9298324584961 C 363.783203125 73.14969635009766 357.49566650390625 73.26010131835938 347.04217529296875 71.1963882446289 C 290.3692321777344 62.83647155761719 261.0972595214844 46.298301696777344 282.4971923828125 94.15493774414062 C 392.2696838378906 12.740946769714355 320.2316589355469 -2.9127142429351807 325.6410217285156 4.6839752197265625 C 317.1126708984375 55.272918701171875 337.7471618652344 96.63835144042969 301.4466552734375 103.6044692993164" stroke-width="-55.785037994384766" fill="none" stroke="rgb(0, 0, 0)" stroke-opacity="1.0" stroke-linecap="round" stroke-linejoin="round"/>
    <path d="M 329.0702819824219 91.9298324584961 C 363.783203125 73.14969635009766 357.49566650390625 73.26010131835938 347.04217529296875 71.1963882446289 C 290.3692321777344 62.83647155761719 261.0972595214844 46.298301696777344 282.4971923828125 94.15493774414062 C 392.2696838378906 12.740946769714355 320.2316589355469 -2.9127142429351807 325.6410217285156 4.6839752197265625 C 317.1126708984375 55.272918701171875 337.7471618652344 96.63835144042969 301.4466552734375 103.6044692993164" stroke-width="-55.785037994384766" fill="none" stroke="rgb(0, 0, 0)" stroke-opacity="1.0" stroke-linecap="round" stroke-linejoin="round"/>
    <path d="M 61.17335510253906 428.65020751953125 C 39.34236145019531 461.0456237792969 56.60980987548828 479.06878662109375 42.8349723815918 394.9176330566406 C 154.3162078857422 347.482666015625 203.2530059814453 395.4881896972656 205.42384338378906 332.7860107421875 C 223.06431579589844 299.1895751953125 277.0434875488281 351.3604736328125 227.36073303222656 391.2884826660156 C 71.1059799194336 350.1640930175781 102.75670623779297 321.2922668457031 118.75814056396484 414.9651794433594" stroke-width="6.993774890899658" fill="none" stroke="rgb(0, 0, 0)" stroke-opacity="0.9977404" stroke-linecap="round" stroke-linejoin="round"/>
    <path d="M 596.5323486328125 492.6125183105469 C 552.350830078125 420.2930603027344 513.2692260742188 399.0437927246094 564.8975830078125 449.8072204589844 C 601.717041015625 413.6293640136719 616.0186767578125 390.40966796875 629.9508666992188 406.9471435546875 C 605.783447265625 446.1963806152344 594.8187866210938 468.0340881347656 537.71923828125 456.8651123046875 C 540.2974243164062 486.8307189941406 556.00146484375 498.9691162109375 606.271240234375 465.04425048828125" stroke-width="31.927165985107422" fill="none" stroke="rgb(0, 0, 0)" stroke-opacity="1.0" stroke-linecap="round" stroke-linejoin="round"/>
    <path d="M 353.5049133300781 137.05511474609375 C 340.86590576171875 136.5611114501953 339.0931396484375 168.3084716796875 344.3218994140625 150.9233856201172 C 332.71868896484375 159.2703399658203 341.71527099609375 161.20033264160156 331.5485534667969 143.3563232421875 C 341.89410400390625 156.43031311035156 355.7403259277344 133.04713439941406 329.8034362792969 160.05142211914062 C 346.7561950683594 148.78684997558594 337.60205078125 151.63124084472656 325.6602783203125 150.27725219726562" stroke-width="5.228879451751709" fill="none" stroke="rgb(0, 0, 0)" stroke-opacity="0.33762968" stroke-linecap="round" stroke-linejoin="round"/>
    <path d="M 293.27606201171875 -23.15390968322754 C 294.5044860839844 -57.90019607543945 264.9453125 -52.378990173339844 254.99169921875 19.986915588378906 C 292.0362854003906 40.86436462402344 315.7774353027344 39.24106216430664 303.6225891113281 62.536746978759766 C 318.23077392578125 55.98918151855469 256.39068603515625 74.9466323852539 265.5118103027344 57.14645767211914 C 320.2740783691406 31.51395606994629 280.58294677734375 56.137149810791016 314.4326171875 42.410667419433594" stroke-width="-6.417801380157471" fill="none" stroke="rgb(0, 0, 0)" stroke-opacity="0.06954803" stroke-linecap="round" stroke-linejoin="round"/>
    <path d="M 329.0702819824219 91.9298324584961 C 363.783203125 73.14969635009766 357.49566650390625 73.26010131835938 347.04217529296875 71.1963882446289 C 290.3692321777344 62.83647155761719 261.0972595214844 46.298301696777344 282.4971923828125 94.15493774414062 C 392.2696838378906 12.740946769714355 320.2316589355469 -2.9127142429351807 325.6410217285156 4.6839752197265625 C 317.1126708984375 55.272918701171875 337.7471618652344 96.63835144042969 301.4466552734375 103.6044692993164" stroke-width="-55.785037994384766" fill="none" stroke="rgb(0, 0, 0)" stroke-opacity="1.0" stroke-linecap="round" stroke-linejoin="round"/>
    <path d="M -41.28569030761719 455.8728332519531 C 33.21834182739258 470.7677917480469 99.48866271972656 423.3724060058594 50.87916564941406 458.3774719238281 C 23.52349281311035 458.9180603027344 85.81554412841797 448.24981689453125 86.332275390625 436.9311828613281 C 52.19096374511719 439.9525146484375 67.0020523071289 428.58056640625 101.6753921508789 418.09375 C 66.74159240722656 432.11944580078125 76.87075805664062 432.8792724609375 90.44033813476562 427.9435119628906" stroke-width="14.922698974609375" fill="none" stroke="rgb(0, 0, 0)" stroke-opacity="0.40443778" stroke-linecap="round" stroke-linejoin="round"/>
    <path d="M 329.0702819824219 91.9298324584961 C 363.783203125 73.14969635009766 357.49566650390625 73.26010131835938 347.04217529296875 71.1963882446289 C 290.3692321777344 62.83647155761719 261.0972595214844 46.298301696777344 282.4971923828125 94.15493774414062 C 392.2696838378906 12.740946769714355 320.2316589355469 -2.9127142429351807 325.6410217285156 4.6839752197265625 C 317.1126708984375 55.272918701171875 337.7471618652344 96.63835144042969 301.4466552734375 103.6044692993164" stroke-width="-55.785037994384766" fill="none" stroke="rgb(0, 0, 0)" stroke-opacity="1.0" stroke-linecap="round" stroke-linejoin="round"/>
    <path d="M 329.0702819824219 91.9298324584961 C 363.783203125 73.14969635009766 357.49566650390625 73.26010131835938 347.04217529296875 71.1963882446289 C 290.3692321777344 62.83647155761719 261.0972595214844 46.298301696777344 282.4971923828125 94.15493774414062 C 392.2696838378906 12.740946769714355 320.2316589355469 -2.9127142429351807 325.6410217285156 4.6839752197265625 C 317.1126708984375 55.272918701171875 337.7471618652344 96.63835144042969 301.4466552734375 103.6044692993164" stroke-width="-55.785037994384766" fill="none" stroke="rgb(0, 0, 0)" stroke-opacity="1.0" stroke-linecap="round" stroke-linejoin="round"/>
    <path d="M 445.9552001953125 486.27081298828125 C 349.1205749511719 491.36639404296875 323.1716003417969 457.4016418457031 374.8504333496094 440.6492919921875 C 480.6763916015625 515.3524780273438 521.7108154296875 477.5700988769531 508.36614990234375 440.7228088378906 C 388.7862548828125 454.24822998046875 382.18408203125 449.0484619140625 430.81890869140625 479.8955993652344 C 502.548583984375 497.9989013671875 569.991943359375 486.8544616699219 571.7230834960938 491.907470703125" stroke-width="33.72801971435547" fill="none" stroke="rgb(0, 0, 0)" stroke-opacity="0.99692506" stroke-linecap="round" stroke-linejoin="round"/>
    <path d="M 155.25331115722656 236.5001678466797 C 141.1061248779297 220.5295867919922 169.5880889892578 211.9423065185547 149.0496826171875 303.43182373046875 C 220.14907836914062 268.6782531738281 201.03472900390625 280.4516906738281 137.5966033935547 283.439208984375 C 94.51021575927734 309.16455078125 124.54593658447266 302.94049072265625 184.70095825195312 310.9234619140625 C 244.52792358398438 314.8347473144531 209.8026580810547 324.0486145019531 259.8748474121094 329.3279724121094" stroke-width="23.703397750854492" fill="none" stroke="rgb(0, 0, 0)" stroke-opacity="0.9979754" stroke-linecap="round" stroke-linejoin="round"/>
    <path d="M 329.0702819824219 91.9298324584961 C 363.783203125 73.14969635009766 357.49566650390625 73.26010131835938 347.04217529296875 71.1963882446289 C 290.3692321777344 62.83647155761719 261.0972595214844 46.298301696777344 282.4971923828125 94.15493774414062 C 392.2696838378906 12.740946769714355 320.2316589355469 -2.9127142429351807 325.6410217285156 4.6839752197265625 C 317.1126708984375 55.272918701171875 337.7471618652344 96.63835144042969 301.4466552734375 103.6044692993164" stroke-width="-55.785037994384766" fill="none" stroke="rgb(0, 0, 0)" stroke-opacity="1.0" stroke-linecap="round" stroke-linejoin="round"/>
    <path d="M 87.38018035888672 85.93257141113281 C 66.02442932128906 73.90092468261719 74.17835235595703 100.34783172607422 71.29647064208984 74.91222381591797 C 75.6347427368164 55.016082763671875 56.406436920166016 51.66963195800781 80.75202941894531 61.38850021362305 C 61.08197021484375 61.79831314086914 60.20988464355469 77.1911392211914 69.95945739746094 91.24071502685547 C 39.6804313659668 106.33586120605469 38.410911560058594 85.16451263427734 72.76766967773438 84.72623443603516" stroke-width="12.710895538330078" fill="none" stroke="rgb(0, 0, 0)" stroke-opacity="0.94747376" stroke-linecap="round" stroke-linejoin="round"/>
    <path d="M 329.0702819824219 91.9298324584961 C 363.783203125 73.14969635009766 357.49566650390625 73.26010131835938 347.04217529296875 71.1963882446289 C 290.3692321777344 62.83647155761719 261.0972595214844 46.298301696777344 282.4971923828125 94.15493774414062 C 392.2696838378906 12.740946769714355 320.2316589355469 -2.9127142429351807 325.6410217285156 4.6839752197265625 C 317.1126708984375 55.272918701171875 337.7471618652344 96.63835144042969 301.4466552734375 103.6044692993164" stroke-width="-55.785037994384766" fill="none" stroke="rgb(0, 0, 0)" stroke-opacity="1.0" stroke-linecap="round" stroke-linejoin="round"/>
    <path d="M 329.0702819824219 91.9298324584961 C 363.783203125 73.14969635009766 357.49566650390625 73.26010131835938 347.04217529296875 71.1963882446289 C 290.3692321777344 62.83647155761719 261.0972595214844 46.298301696777344 282.4971923828125 94.15493774414062 C 392.2696838378906 12.740946769714355 320.2316589355469 -2.9127142429351807 325.6410217285156 4.6839752197265625 C 317.1126708984375 55.272918701171875 337.7471618652344 96.63835144042969 301.4466552734375 103.6044692993164" stroke-width="-55.785037994384766" fill="none" stroke="rgb(0, 0, 0)" stroke-opacity="1.0" stroke-linecap="round" stroke-linejoin="round"/>
    <path d="M 329.0702819824219 91.9298324584961 C 363.783203125 73.14969635009766 357.49566650390625 73.26010131835938 347.04217529296875 71.1963882446289 C 290.3692321777344 62.83647155761719 261.0972595214844 46.298301696777344 282.4971923828125 94.15493774414062 C 392.2696838378906 12.740946769714355 320.2316589355469 -2.9127142429351807 325.6410217285156 4.6839752197265625 C 317.1126708984375 55.272918701171875 337.7471618652344 96.63835144042969 301.4466552734375 103.6044692993164" stroke-width="-55.785037994384766" fill="none" stroke="rgb(0, 0, 0)" stroke-opacity="1.0" stroke-linecap="round" stroke-linejoin="round"/>
    <path d="M 293.8894348144531 400.6004638671875 C 297.904052734375 388.1428527832031 278.1980895996094 405.4361267089844 245.6013946533203 420.5541687011719 C 217.1659698486328 400.8952331542969 238.22833251953125 420.8085632324219 419.3204345703125 404.9638671875 C 387.09185791015625 319.92962646484375 293.5640563964844 390.06951904296875 257.44964599609375 412.1575622558594 C 254.15689086914062 378.3608093261719 265.7294616699219 401.0535888671875 273.3296813964844 460.4252014160156" stroke-width="-26.432756423950195" fill="none" stroke="rgb(0, 0, 0)" stroke-opacity="0.0" stroke-linecap="round" stroke-linejoin="round"/>
    <path d="M 120.72923278808594 493.8641662597656 C -4.64391565322876 495.3937683105469 -24.52570915222168 468.2307434082031 -65.71284484863281 500.0807189941406 C -33.32234573364258 487.67132568359375 -8.843314170837402 486.4804382324219 107.22777557373047 476.5257568359375 C 145.35044860839844 493.03350830078125 129.91835021972656 521.4654541015625 105.27552032470703 476.2773742675781 C 158.44288635253906 486.575439453125 188.138916015625 468.2697448730469 164.3271026611328 504.2914733886719" stroke-width="35.88549041748047" fill="none" stroke="rgb(0, 0, 0)" stroke-opacity="1.0" stroke-linecap="round" stroke-linejoin="round"/>
    <path d="M 329.0702819824219 91.9298324584961 C 363.783203125 73.14969635009766 357.49566650390625 73.26010131835938 347.04217529296875 71.1963882446289 C 290.3692321777344 62.83647155761719 261.0972595214844 46.298301696777344 282.4971923828125 94.15493774414062 C 392.2696838378906 12.740946769714355 320.2316589355469 -2.9127142429351807 325.6410217285156 4.6839752197265625 C 317.1126708984375 55.272918701171875 337.7471618652344 96.63835144042969 301.4466552734375 103.6044692993164" stroke-width="-55.785037994384766" fill="none" stroke="rgb(0, 0, 0)" stroke-opacity="1.0" stroke-linecap="round" stroke-linejoin="round"/>
    <path d="M 329.0702819824219 91.9298324584961 C 363.783203125 73.14969635009766 357.49566650390625 73.26010131835938 347.04217529296875 71.1963882446289 C 290.3692321777344 62.83647155761719 261.0972595214844 46.298301696777344 282.4971923828125 94.15493774414062 C 392.2696838378906 12.740946769714355 320.2316589355469 -2.9127142429351807 325.6410217285156 4.6839752197265625 C 317.1126708984375 55.272918701171875 337.7471618652344 96.63835144042969 301.4466552734375 103.6044692993164" stroke-width="-55.785037994384766" fill="none" stroke="rgb(0, 0, 0)" stroke-opacity="1.0" stroke-linecap="round" stroke-linejoin="round"/>
    <path d="M 70.15081787109375 463.6365661621094 C 86.2815170288086 473.3713684082031 53.3336181640625 472.24761962890625 6.011082172393799 460.2816467285156 C -82.66429901123047 459.87188720703125 -63.059417724609375 479.2603454589844 -65.38074493408203 501.99554443359375 C -24.736284255981445 519.953857421875 -45.24067306518555 533.4462280273438 -35.580848693847656 515.1954345703125 C -58.116634368896484 540.2738037109375 -28.804691314697266 555.2491455078125 -36.831459045410156 564.0120849609375" stroke-width="-4.805587291717529" fill="none" stroke="rgb(0, 0, 0)" stroke-opacity="0.7509255" stroke-linecap="round" stroke-linejoin="round"/>
    <path d="M 418.8055114746094 -5.302378177642822 C 437.7595520019531 -3.884915828704834 441.293701171875 -10.012297630310059 417.7627868652344 -38.78738784790039 C 406.6190490722656 -17.324501037597656 429.5251159667969 -46.00425720214844 415.1509704589844 -15.308770179748535 C 406.28582763671875 8.733464241027832 399.48956298828125 -27.5595645904541 416.6463928222656 -28.99842643737793 C 400.33148193359375 -15.461420059204102 411.16094970703125 25.06524085998535 392.9571533203125 24.58810806274414" stroke-width="-11.648055076599121" fill="none" stroke="rgb(0, 0, 0)" stroke-opacity="0.0" stroke-linecap="round" stroke-linejoin="round"/>
    <path d="M 584.34765625 269.8359375 C 565.8204345703125 252.66583251953125 576.333740234375 284.4368896484375 580.2171020507812 266.45819091796875 C 579.3726806640625 256.1220703125 604.573974609375 292.1517333984375 587.5914916992188 238.30039978027344 C 613.4659423828125 267.1927490234375 597.4664306640625 244.8129119873047 655.8807373046875 258.0983581542969 C 621.8240356445312 265.2604064941406 585.5908203125 256.1832275390625 567.697021484375 264.5894470214844" stroke-width="9.96502685546875" fill="none" stroke="rgb(0, 0, 0)" stroke-opacity="1.0" stroke-linecap="round" stroke-linejoin="round"/>
    <path d="M 329.0702819824219 91.9298324584961 C 363.783203125 73.14969635009766 357.49566650390625 73.26010131835938 347.04217529296875 71.1963882446289 C 290.3692321777344 62.83647155761719 261.0972595214844 46.298301696777344 282.4971923828125 94.15493774414062 C 392.2696838378906 12.740946769714355 320.2316589355469 -2.9127142429351807 325.6410217285156 4.6839752197265625 C 317.1126708984375 55.272918701171875 337.7471618652344 96.63835144042969 301.4466552734375 103.6044692993164" stroke-width="-55.785037994384766" fill="none" stroke="rgb(0, 0, 0)" stroke-opacity="1.0" stroke-linecap="round" stroke-linejoin="round"/>
    <path d="M 329.0702819824219 91.9298324584961 C 363.783203125 73.14969635009766 357.49566650390625 73.26010131835938 347.04217529296875 71.1963882446289 C 290.3692321777344 62.83647155761719 261.0972595214844 46.298301696777344 282.4971923828125 94.15493774414062 C 392.2696838378906 12.740946769714355 320.2316589355469 -2.9127142429351807 325.6410217285156 4.6839752197265625 C 317.1126708984375 55.272918701171875 337.7471618652344 96.63835144042969 301.4466552734375 103.6044692993164" stroke-width="-55.785037994384766" fill="none" stroke="rgb(0, 0, 0)" stroke-opacity="1.0" stroke-linecap="round" stroke-linejoin="round"/>
    <path d="M 329.0702819824219 91.9298324584961 C 363.783203125 73.14969635009766 357.49566650390625 73.26010131835938 347.04217529296875 71.1963882446289 C 290.3692321777344 62.83647155761719 261.0972595214844 46.298301696777344 282.4971923828125 94.15493774414062 C 392.2696838378906 12.740946769714355 320.2316589355469 -2.9127142429351807 325.6410217285156 4.6839752197265625 C 317.1126708984375 55.272918701171875 337.7471618652344 96.63835144042969 301.4466552734375 103.6044692993164" stroke-width="-55.785037994384766" fill="none" stroke="rgb(0, 0, 0)" stroke-opacity="1.0" stroke-linecap="round" stroke-linejoin="round"/>
    <path d="M 606.162109375 503.22161865234375 C 539.9758911132812 499.6697082519531 531.4432983398438 497.6513977050781 539.19970703125 541.8658447265625 C 577.230712890625 557.7869262695312 619.012939453125 559.7182006835938 641.4979248046875 542.906982421875 C 631.965576171875 536.1295166015625 634.5960083007812 513.5547485351562 671.2581787109375 583.311279296875 C 636.5560913085938 599.4554443359375 576.6038208007812 599.8126220703125 533.7288208007812 573.3655395507812" stroke-width="-14.084474563598633" fill="none" stroke="rgb(0, 0, 0)" stroke-opacity="0.0" stroke-linecap="round" stroke-linejoin="round"/>
    <path d="M 83.18737030029297 621.4425048828125 C 96.18828582763672 601.345458984375 100.45323944091797 600.8428955078125 105.13178253173828 625.089599609375 C 81.16719055175781 598.0745849609375 60.66172790527344 617.302734375 123.80010223388672 640.7188720703125 C 158.28076171875 619.2758178710938 143.05264282226562 560.89208984375 153.1473388671875 596.2962036132812 C 142.24253845214844 606.4546508789062 142.1792449951172 578.7068481445312 137.13201904296875 569.6279907226562" stroke-width="-14.67226791381836" fill="none" stroke="rgb(0, 0, 0)" stroke-opacity="0.026320523" stroke-linecap="round" stroke-linejoin="round"/>
    <path d="M 97.29307556152344 360.94927978515625 C 121.37100982666016 369.9044189453125 80.65565490722656 389.774658203125 91.63664245605469 352.11492919921875 C 56.72288131713867 348.773681640625 79.08863830566406 326.96435546875 56.59272384643555 340.28240966796875 C 83.86121368408203 372.06060791015625 60.616111755371094 390.1402282714844 112.94609069824219 415.6986083984375 C 69.72753143310547 481.15618896484375 34.80099105834961 430.7755126953125 66.43497467041016 455.1410827636719" stroke-width="-7.917686462402344" fill="none" stroke="rgb(0, 0, 0)" stroke-opacity="0.51517767" stroke-linecap="round" stroke-linejoin="round"/>
    <path d="M 512.1423950195312 410.6607971191406 C 510.5289306640625 474.2718811035156 502.8104248046875 537.2764892578125 510.19366455078125 553.4705810546875 C 502.8846740722656 517.6138305664062 512.5178833007812 519.424072265625 496.4852294921875 467.7447509765625 C 490.2124328613281 579.1554565429688 505.1507873535156 596.943603515625 499.4127502441406 548.5234985351562 C 484.9884338378906 558.140625 486.66973876953125 566.1846923828125 543.7481079101562 581.7208251953125" stroke-width="-13.163674354553223" fill="none" stroke="rgb(0, 0, 0)" stroke-opacity="0.004251591" stroke-linecap="round" stroke-linejoin="round"/>
    <path d="M 253.1746063232422 60.385833740234375 C 262.545654296875 64.06184387207031 268.0760192871094 56.87251663208008 236.25523376464844 46.21485900878906 C 239.15736389160156 44.87433624267578 268.8985900878906 55.98646926879883 267.3542785644531 61.866485595703125 C 247.77896118164062 50.590370178222656 230.15768432617188 47.92869567871094 234.26092529296875 25.628511428833008 C 249.35821533203125 57.228702545166016 233.38018798828125 43.52814865112305 250.9987030029297 44.74888229370117" stroke-width="-14.097721099853516" fill="none" stroke="rgb(0, 0, 0)" stroke-opacity="0.005268232" stroke-linecap="round" stroke-linejoin="round"/>
    <path d="M 453.9364929199219 96.37934875488281 C 434.4599304199219 96.55916595458984 418.19317626953125 117.99066925048828 438.0044250488281 113.59034729003906 C 442.0267639160156 118.06941986083984 451.89178466796875 93.21092224121094 416.2677307128906 119.43392181396484 C 407.3236389160156 87.38822174072266 412.39599609375 110.22595977783203 443.2419738769531 108.16862487792969 C 428.1747131347656 118.49545288085938 421.840576171875 135.2588653564453 424.2795104980469 124.23328399658203" stroke-width="11.171215057373047" fill="none" stroke="rgb(0, 0, 0)" stroke-opacity="1.0" stroke-linecap="round" stroke-linejoin="round"/>
    <path d="M 329.0702819824219 91.9298324584961 C 363.783203125 73.14969635009766 357.49566650390625 73.26010131835938 347.04217529296875 71.1963882446289 C 290.3692321777344 62.83647155761719 261.0972595214844 46.298301696777344 282.4971923828125 94.15493774414062 C 392.2696838378906 12.740946769714355 320.2316589355469 -2.9127142429351807 325.6410217285156 4.6839752197265625 C 317.1126708984375 55.272918701171875 337.7471618652344 96.63835144042969 301.4466552734375 103.6044692993164" stroke-width="-55.785037994384766" fill="none" stroke="rgb(0, 0, 0)" stroke-opacity="1.0" stroke-linecap="round" stroke-linejoin="round"/>
    <path d="M 163.76657104492188 209.18450927734375 C 148.64263916015625 195.53323364257812 149.93353271484375 127.24346160888672 158.67559814453125 128.896240234375 C 159.07603454589844 97.56036376953125 155.13702392578125 126.69920349121094 159.40806579589844 161.40557861328125 C 141.25473022460938 171.75408935546875 161.56483459472656 166.2629852294922 160.92822265625 139.82713317871094 C 168.17388916015625 219.06272888183594 141.0439453125 217.24847412109375 157.00369262695312 222.70364379882812" stroke-width="12.810223579406738" fill="none" stroke="rgb(0, 0, 0)" stroke-opacity="1.0" stroke-linecap="round" stroke-linejoin="round"/>
    <path d="M 329.0702819824219 91.9298324584961 C 363.783203125 73.14969635009766 357.49566650390625 73.26010131835938 347.04217529296875 71.1963882446289 C 290.3692321777344 62.83647155761719 261.0972595214844 46.298301696777344 282.4971923828125 94.15493774414062 C 392.2696838378906 12.740946769714355 320.2316589355469 -2.9127142429351807 325.6410217285156 4.6839752197265625 C 317.1126708984375 55.272918701171875 337.7471618652344 96.63835144042969 301.4466552734375 103.6044692993164" stroke-width="-55.785037994384766" fill="none" stroke="rgb(0, 0, 0)" stroke-opacity="1.0" stroke-linecap="round" stroke-linejoin="round"/>
    <path d="M 329.0702819824219 91.9298324584961 C 363.783203125 73.14969635009766 357.49566650390625 73.26010131835938 347.04217529296875 71.1963882446289 C 290.3692321777344 62.83647155761719 261.0972595214844 46.298301696777344 282.4971923828125 94.15493774414062 C 392.2696838378906 12.740946769714355 320.2316589355469 -2.9127142429351807 325.6410217285156 4.6839752197265625 C 317.1126708984375 55.272918701171875 337.7471618652344 96.63835144042969 301.4466552734375 103.6044692993164" stroke-width="-55.785037994384766" fill="none" stroke="rgb(0, 0, 0)" stroke-opacity="1.0" stroke-linecap="round" stroke-linejoin="round"/>
    <path d="M 341.74383544921875 457.7661437988281 C 421.50543212890625 456.7682800292969 457.1194763183594 450.4172668457031 337.99066162109375 462.8977966308594 C 376.7680969238281 513.7957153320312 411.3395080566406 515.9111938476562 452.47808837890625 497.53814697265625 C 513.5494384765625 483.2476806640625 504.8802490234375 477.07666015625 499.6950988769531 549.615234375 C 511.5969543457031 531.6619873046875 483.0835266113281 570.0794677734375 399.9314270019531 614.3427734375" stroke-width="-8.562569618225098" fill="none" stroke="rgb(0, 0, 0)" stroke-opacity="0.0" stroke-linecap="round" stroke-linejoin="round"/>
    <path d="M 124.32737731933594 281.7343444824219 C 64.72338104248047 316.38836669921875 49.48514938354492 316.0059814453125 56.1058464050293 321.86627197265625 C 54.63125991821289 315.92327880859375 47.03726577758789 318.9087829589844 37.878379821777344 322.34814453125 C 25.336732864379883 336.9734802246094 1.5261305570602417 313.0928039550781 39.9277229309082 337.31256103515625 C 58.40114974975586 314.156005859375 75.01091766357422 333.2363586425781 145.99310302734375 286.6979675292969" stroke-width="13.43761157989502" fill="none" stroke="rgb(0, 0, 0)" stroke-opacity="1.0" stroke-linecap="round" stroke-linejoin="round"/>
    <path d="M 329.0702819824219 91.9298324584961 C 363.783203125 73.14969635009766 357.49566650390625 73.26010131835938 347.04217529296875 71.1963882446289 C 290.3692321777344 62.83647155761719 261.0972595214844 46.298301696777344 282.4971923828125 94.15493774414062 C 392.2696838378906 12.740946769714355 320.2316589355469 -2.9127142429351807 325.6410217285156 4.6839752197265625 C 317.1126708984375 55.272918701171875 337.7471618652344 96.63835144042969 301.4466552734375 103.6044692993164" stroke-width="-55.785037994384766" fill="none" stroke="rgb(0, 0, 0)" stroke-opacity="1.0" stroke-linecap="round" stroke-linejoin="round"/>
    <path d="M 367.80712890625 453.2587585449219 C 332.2359313964844 502.12847900390625 348.2087097167969 500.1395568847656 342.35540771484375 471.3939514160156 C 395.4934387207031 467.2468566894531 401.5198059082031 474.442626953125 315.05267333984375 497.09649658203125 C 299.57879638671875 483.52618408203125 277.08984375 452.1105041503906 277.8131408691406 499.0730895996094 C 343.7342529296875 505.6063537597656 383.3989562988281 471.90130615234375 308.0597229003906 470.13165283203125" stroke-width="28.573389053344727" fill="none" stroke="rgb(0, 0, 0)" stroke-opacity="1.0" stroke-linecap="round" stroke-linejoin="round"/>
    <path d="M -22.739171981811523 404.764892578125 C -22.113964080810547 399.0970764160156 8.775416374206543 404.6331481933594 76.32510375976562 401.2571716308594 C 168.96505737304688 386.42706298828125 119.46559143066406 352.87225341796875 110.833740234375 336.85955810546875 C 150.0055694580078 358.9947204589844 225.35440063476562 318.6345520019531 165.7021484375 395.087890625 C 114.69830322265625 396.5667419433594 97.38160705566406 342.6030578613281 118.16341400146484 269.5166320800781" stroke-width="23.993953704833984" fill="none" stroke="rgb(0, 0, 0)" stroke-opacity="1.0" stroke-linecap="round" stroke-linejoin="round"/>
    <path d="M 329.0702819824219 91.9298324584961 C 363.783203125 73.14969635009766 357.49566650390625 73.26010131835938 347.04217529296875 71.1963882446289 C 290.3692321777344 62.83647155761719 261.0972595214844 46.298301696777344 282.4971923828125 94.15493774414062 C 392.2696838378906 12.740946769714355 320.2316589355469 -2.9127142429351807 325.6410217285156 4.6839752197265625 C 317.1126708984375 55.272918701171875 337.7471618652344 96.63835144042969 301.4466552734375 103.6044692993164" stroke-width="-55.785037994384766" fill="none" stroke="rgb(0, 0, 0)" stroke-opacity="1.0" stroke-linecap="round" stroke-linejoin="round"/>
    <path d="M 329.0702819824219 91.9298324584961 C 363.783203125 73.14969635009766 357.49566650390625 73.26010131835938 347.04217529296875 71.1963882446289 C 290.3692321777344 62.83647155761719 261.0972595214844 46.298301696777344 282.4971923828125 94.15493774414062 C 392.2696838378906 12.740946769714355 320.2316589355469 -2.9127142429351807 325.6410217285156 4.6839752197265625 C 317.1126708984375 55.272918701171875 337.7471618652344 96.63835144042969 301.4466552734375 103.6044692993164" stroke-width="-55.785037994384766" fill="none" stroke="rgb(0, 0, 0)" stroke-opacity="1.0" stroke-linecap="round" stroke-linejoin="round"/>
    <path d="M 364.3427734375 535.6853637695312 C 369.21234130859375 454.885498046875 362.3157958984375 433.9808654785156 358.35858154296875 495.12603759765625 C 362.2870788574219 478.374755859375 346.3023376464844 431.6748046875 361.5987243652344 455.3570861816406 C 428.6521911621094 437.08551025390625 370.04278564453125 447.48382568359375 307.2205505371094 438.9472961425781 C 295.8849182128906 528.9813842773438 320.5582275390625 513.2900390625 274.1986999511719 534.3976440429688" stroke-width="-10.394274711608887" fill="none" stroke="rgb(0, 0, 0)" stroke-opacity="0.024818022" stroke-linecap="round" stroke-linejoin="round"/>
    <path d="M 281.92926025390625 515.4143676757812 C 135.90768432617188 520.2547607421875 118.56326293945312 519.9257202148438 140.86631774902344 504.3753662109375 C 83.71134185791016 511.22760009765625 75.58084106445312 507.9174499511719 177.88804626464844 488.190673828125 C 187.86996459960938 479.0205993652344 216.04449462890625 454.43756103515625 184.29202270507812 448.7553405761719 C 227.6741943359375 446.52545166015625 320.52154541015625 458.6551208496094 325.4019470214844 444.80389404296875" stroke-width="8.195366859436035" fill="none" stroke="rgb(0, 0, 0)" stroke-opacity="0.9382308" stroke-linecap="round" stroke-linejoin="round"/>
    <path d="M 205.6062469482422 427.56298828125 C 187.62936401367188 430.903564453125 237.92445373535156 431.8005676269531 203.99395751953125 399.05816650390625 C 225.20318603515625 358.814697265625 206.2818603515625 341.7146301269531 120.0730972290039 344.7087097167969 C 107.69429016113281 361.3088073730469 86.71537780761719 358.8216552734375 185.13182067871094 360.8853454589844 C 231.05038452148438 367.7286376953125 240.3203887939453 403.9847412109375 207.75901794433594 430.2530517578125" stroke-width="23.10491943359375" fill="none" stroke="rgb(0, 0, 0)" stroke-opacity="0.88959366" stroke-linecap="round" stroke-linejoin="round"/>
    <path d="M 329.0702819824219 91.9298324584961 C 363.783203125 73.14969635009766 357.49566650390625 73.26010131835938 347.04217529296875 71.1963882446289 C 290.3692321777344 62.83647155761719 261.0972595214844 46.298301696777344 282.4971923828125 94.15493774414062 C 392.2696838378906 12.740946769714355 320.2316589355469 -2.9127142429351807 325.6410217285156 4.6839752197265625 C 317.1126708984375 55.272918701171875 337.7471618652344 96.63835144042969 301.4466552734375 103.6044692993164" stroke-width="-55.785037994384766" fill="none" stroke="rgb(0, 0, 0)" stroke-opacity="1.0" stroke-linecap="round" stroke-linejoin="round"/>
    <path d="M 329.0702819824219 91.9298324584961 C 363.783203125 73.14969635009766 357.49566650390625 73.26010131835938 347.04217529296875 71.1963882446289 C 290.3692321777344 62.83647155761719 261.0972595214844 46.298301696777344 282.4971923828125 94.15493774414062 C 392.2696838378906 12.740946769714355 320.2316589355469 -2.9127142429351807 325.6410217285156 4.6839752197265625 C 317.1126708984375 55.272918701171875 337.7471618652344 96.63835144042969 301.4466552734375 103.6044692993164" stroke-width="-55.785037994384766" fill="none" stroke="rgb(0, 0, 0)" stroke-opacity="1.0" stroke-linecap="round" stroke-linejoin="round"/>
    <path d="M 337.02392578125 391.7850036621094 C 233.88731384277344 419.853271484375 212.29275512695312 316.4320068359375 243.9504852294922 414.1506042480469 C 310.44940185546875 403.021728515625 235.6228485107422 400.91143798828125 258.34942626953125 421.6617431640625 C 306.85028076171875 432.5549621582031 202.99496459960938 398.9771423339844 191.54527282714844 496.2266845703125 C 247.04054260253906 480.9645690917969 294.1856384277344 465.16387939453125 263.18096923828125 491.9432678222656" stroke-width="29.624683380126953" fill="none" stroke="rgb(0, 0, 0)" stroke-opacity="1.0" stroke-linecap="round" stroke-linejoin="round"/>
    <path d="M 329.0702819824219 91.9298324584961 C 363.783203125 73.14969635009766 357.49566650390625 73.26010131835938 347.04217529296875 71.1963882446289 C 290.3692321777344 62.83647155761719 261.0972595214844 46.298301696777344 282.4971923828125 94.15493774414062 C 392.2696838378906 12.740946769714355 320.2316589355469 -2.9127142429351807 325.6410217285156 4.6839752197265625 C 317.1126708984375 55.272918701171875 337.7471618652344 96.63835144042969 301.4466552734375 103.6044692993164" stroke-width="-55.785037994384766" fill="none" stroke="rgb(0, 0, 0)" stroke-opacity="1.0" stroke-linecap="round" stroke-linejoin="round"/>
    <path d="M 329.0702819824219 91.9298324584961 C 363.783203125 73.14969635009766 357.49566650390625 73.26010131835938 347.04217529296875 71.1963882446289 C 290.3692321777344 62.83647155761719 261.0972595214844 46.298301696777344 282.4971923828125 94.15493774414062 C 392.2696838378906 12.740946769714355 320.2316589355469 -2.9127142429351807 325.6410217285156 4.6839752197265625 C 317.1126708984375 55.272918701171875 337.7471618652344 96.63835144042969 301.4466552734375 103.6044692993164" stroke-width="-55.785037994384766" fill="none" stroke="rgb(0, 0, 0)" stroke-opacity="1.0" stroke-linecap="round" stroke-linejoin="round"/>
    <path d="M 329.0702819824219 91.9298324584961 C 363.783203125 73.14969635009766 357.49566650390625 73.26010131835938 347.04217529296875 71.1963882446289 C 290.3692321777344 62.83647155761719 261.0972595214844 46.298301696777344 282.4971923828125 94.15493774414062 C 392.2696838378906 12.740946769714355 320.2316589355469 -2.9127142429351807 325.6410217285156 4.6839752197265625 C 317.1126708984375 55.272918701171875 337.7471618652344 96.63835144042969 301.4466552734375 103.6044692993164" stroke-width="-55.785037994384766" fill="none" stroke="rgb(0, 0, 0)" stroke-opacity="1.0" stroke-linecap="round" stroke-linejoin="round"/>
    <path d="M 329.0702819824219 91.9298324584961 C 363.783203125 73.14969635009766 357.49566650390625 73.26010131835938 347.04217529296875 71.1963882446289 C 290.3692321777344 62.83647155761719 261.0972595214844 46.298301696777344 282.4971923828125 94.15493774414062 C 392.2696838378906 12.740946769714355 320.2316589355469 -2.9127142429351807 325.6410217285156 4.6839752197265625 C 317.1126708984375 55.272918701171875 337.7471618652344 96.63835144042969 301.4466552734375 103.6044692993164" stroke-width="-55.785037994384766" fill="none" stroke="rgb(0, 0, 0)" stroke-opacity="1.0" stroke-linecap="round" stroke-linejoin="round"/>
    <path d="M 329.0702819824219 91.9298324584961 C 363.783203125 73.14969635009766 357.49566650390625 73.26010131835938 347.04217529296875 71.1963882446289 C 290.3692321777344 62.83647155761719 261.0972595214844 46.298301696777344 282.4971923828125 94.15493774414062 C 392.2696838378906 12.740946769714355 320.2316589355469 -2.9127142429351807 325.6410217285156 4.6839752197265625 C 317.1126708984375 55.272918701171875 337.7471618652344 96.63835144042969 301.4466552734375 103.6044692993164" stroke-width="-55.785037994384766" fill="none" stroke="rgb(0, 0, 0)" stroke-opacity="1.0" stroke-linecap="round" stroke-linejoin="round"/>
    <path d="M 546.5812377929688 445.7440490722656 C 512.3098754882812 444.7993469238281 524.1336669921875 432.7213439941406 439.9791259765625 422.5353088378906 C 472.4804382324219 459.64886474609375 486.7108154296875 434.9476623535156 479.12255859375 413.6891174316406 C 522.66259765625 417.41583251953125 486.1168518066406 412.9698181152344 474.3463439941406 461.5798645019531 C 496.087158203125 471.8518981933594 466.2228698730469 466.04022216796875 502.25958251953125 443.9438781738281" stroke-width="21.083778381347656" fill="none" stroke="rgb(0, 0, 0)" stroke-opacity="0.96561044" stroke-linecap="round" stroke-linejoin="round"/>
    <path d="M 329.0702819824219 91.9298324584961 C 363.783203125 73.14969635009766 357.49566650390625 73.26010131835938 347.04217529296875 71.1963882446289 C 290.3692321777344 62.83647155761719 261.0972595214844 46.298301696777344 282.4971923828125 94.15493774414062 C 392.2696838378906 12.740946769714355 320.2316589355469 -2.9127142429351807 325.6410217285156 4.6839752197265625 C 317.1126708984375 55.272918701171875 337.7471618652344 96.63835144042969 301.4466552734375 103.6044692993164" stroke-width="-55.785037994384766" fill="none" stroke="rgb(0, 0, 0)" stroke-opacity="1.0" stroke-linecap="round" stroke-linejoin="round"/>
    <path d="M 214.500244140625 429.0179138183594 C 193.666259765625 475.02301025390625 199.962158203125 531.7371826171875 214.42953491210938 462.5869140625 C 243.8352508544922 473.6941833496094 254.37777709960938 476.5134582519531 274.3687744140625 485.6522521972656 C 249.9150390625 451.660888671875 288.5282287597656 469.87615966796875 285.6451416015625 482.5048828125 C 317.1615295410156 468.57659912109375 282.0385437011719 470.9417724609375 269.42767333984375 510.7290344238281" stroke-width="11.3102445602417" fill="none" stroke="rgb(0, 0, 0)" stroke-opacity="0.9957835" stroke-linecap="round" stroke-linejoin="round"/>
    <path d="M 255.70826721191406 448.0096435546875 C 249.98257446289062 466.86932373046875 224.22857666015625 501.92169189453125 257.9098205566406 501.6593322753906 C 239.77857971191406 512.2975463867188 204.54266357421875 484.6097412109375 196.84518432617188 520.669921875 C 211.7803192138672 461.4227294921875 224.84927368164062 460.0262145996094 260.8648376464844 479.0113830566406 C 281.65460205078125 457.8847961425781 338.8712158203125 436.6858215332031 319.49310302734375 451.86273193359375" stroke-width="2.2499260902404785" fill="none" stroke="rgb(0, 0, 0)" stroke-opacity="0.6231383" stroke-linecap="round" stroke-linejoin="round"/>
    <path d="M 329.0702819824219 91.9298324584961 C 363.783203125 73.14969635009766 357.49566650390625 73.26010131835938 347.04217529296875 71.1963882446289 C 290.3692321777344 62.83647155761719 261.0972595214844 46.298301696777344 282.4971923828125 94.15493774414062 C 392.2696838378906 12.740946769714355 320.2316589355469 -2.9127142429351807 325.6410217285156 4.6839752197265625 C 317.1126708984375 55.272918701171875 337.7471618652344 96.63835144042969 301.4466552734375 103.6044692993164" stroke-width="-55.785037994384766" fill="none" stroke="rgb(0, 0, 0)" stroke-opacity="1.0" stroke-linecap="round" stroke-linejoin="round"/>
    <path d="M 272.3545837402344 617.540283203125 C 268.237060546875 624.2697143554688 277.6307373046875 604.7826538085938 207.78102111816406 610.369384765625 C 276.85552978515625 623.97412109375 259.7800598144531 597.2373657226562 249.8309326171875 616.071044921875 C 307.04669189453125 641.3714599609375 297.3384094238281 627.57568359375 309.4297180175781 630.4635009765625 C 327.21612548828125 652.9860229492188 351.6351013183594 659.8502197265625 354.85699462890625 673.3649291992188" stroke-width="12.085718154907227" fill="none" stroke="rgb(0, 0, 0)" stroke-opacity="0.0" stroke-linecap="round" stroke-linejoin="round"/>
    <path d="M 621.954833984375 268.195556640625 C 636.562255859375 268.005615234375 609.195068359375 247.8539276123047 604.3748168945312 250.4912109375 C 569.56640625 257.0490417480469 562.8372192382812 284.66375732421875 571.3499755859375 279.5960998535156 C 604.20458984375 273.0413818359375 612.2392578125 249.73931884765625 539.7425537109375 265.64483642578125 C 574.3990478515625 286.58172607421875 578.6341552734375 254.2355499267578 575.754638671875 226.80416870117188" stroke-width="-10.783674240112305" fill="none" stroke="rgb(0, 0, 0)" stroke-opacity="0.0" stroke-linecap="round" stroke-linejoin="round"/>
    <path d="M 160.02955627441406 124.37877655029297 C 166.2283477783203 221.48655700683594 162.93031311035156 269.009033203125 165.66566467285156 303.8667297363281 C 186.70191955566406 244.97718811035156 137.6377716064453 257.2089538574219 116.4604721069336 294.4448547363281 C 150.41477966308594 277.9580078125 164.30433654785156 276.9536437988281 161.06150817871094 293.22332763671875 C 110.49358367919922 312.7964172363281 120.60079956054688 274.60546875 147.0069580078125 285.8313903808594" stroke-width="15.779525756835938" fill="none" stroke="rgb(0, 0, 0)" stroke-opacity="0.47502032" stroke-linecap="round" stroke-linejoin="round"/>
    <path d="M 329.0702819824219 91.9298324584961 C 363.783203125 73.14969635009766 357.49566650390625 73.26010131835938 347.04217529296875 71.1963882446289 C 290.3692321777344 62.83647155761719 261.0972595214844 46.298301696777344 282.4971923828125 94.15493774414062 C 392.2696838378906 12.740946769714355 320.2316589355469 -2.9127142429351807 325.6410217285156 4.6839752197265625 C 317.1126708984375 55.272918701171875 337.7471618652344 96.63835144042969 301.4466552734375 103.6044692993164" stroke-width="-55.785037994384766" fill="none" stroke="rgb(0, 0, 0)" stroke-opacity="1.0" stroke-linecap="round" stroke-linejoin="round"/>
    <path d="M 329.0702819824219 91.9298324584961 C 363.783203125 73.14969635009766 357.49566650390625 73.26010131835938 347.04217529296875 71.1963882446289 C 290.3692321777344 62.83647155761719 261.0972595214844 46.298301696777344 282.4971923828125 94.15493774414062 C 392.2696838378906 12.740946769714355 320.2316589355469 -2.9127142429351807 325.6410217285156 4.6839752197265625 C 317.1126708984375 55.272918701171875 337.7471618652344 96.63835144042969 301.4466552734375 103.6044692993164" stroke-width="-55.785037994384766" fill="none" stroke="rgb(0, 0, 0)" stroke-opacity="1.0" stroke-linecap="round" stroke-linejoin="round"/>
    <path d="M 329.0702819824219 91.9298324584961 C 363.783203125 73.14969635009766 357.49566650390625 73.26010131835938 347.04217529296875 71.1963882446289 C 290.3692321777344 62.83647155761719 261.0972595214844 46.298301696777344 282.4971923828125 94.15493774414062 C 392.2696838378906 12.740946769714355 320.2316589355469 -2.9127142429351807 325.6410217285156 4.6839752197265625 C 317.1126708984375 55.272918701171875 337.7471618652344 96.63835144042969 301.4466552734375 103.6044692993164" stroke-width="-55.785037994384766" fill="none" stroke="rgb(0, 0, 0)" stroke-opacity="1.0" stroke-linecap="round" stroke-linejoin="round"/>
    <path d="M 115.01102447509766 357.9990234375 C 176.47213745117188 344.6127014160156 157.63526916503906 358.8043212890625 107.51670837402344 367.18658447265625 C 177.10919189453125 364.05718994140625 196.44898986816406 387.30523681640625 204.66712951660156 313.7285461425781 C 183.97021484375 289.62115478515625 207.64198303222656 247.42994689941406 226.31710815429688 312.80633544921875 C 187.74386596679688 327.75640869140625 188.043701171875 367.71441650390625 176.2350616455078 378.3199462890625" stroke-width="0.2713458836078644" fill="none" stroke="rgb(0, 0, 0)" stroke-opacity="0.12194654" stroke-linecap="round" stroke-linejoin="round"/>
    <path d="M 437.59259033203125 419.089599609375 C 448.317626953125 411.3962097167969 472.4607849121094 413.7174377441406 466.4660339355469 462.1849670410156 C 482.3948059082031 405.7445373535156 484.82135009765625 427.8012390136719 487.5791320800781 447.5747985839844 C 533.6646728515625 410.11517333984375 519.53369140625 421.8925476074219 483.72637939453125 417.89300537109375 C 466.6330871582031 439.56964111328125 456.6598815917969 481.6438903808594 365.2333068847656 469.51239013671875" stroke-width="-7.602065086364746" fill="none" stroke="rgb(0, 0, 0)" stroke-opacity="0.35424536" stroke-linecap="round" stroke-linejoin="round"/>
    <path d="M 540.6401977539062 482.0241394042969 C 553.5176391601562 574.890625 539.3115234375 581.056396484375 570.0150756835938 585.2178344726562 C 525.0912475585938 567.6936645507812 503.6602783203125 554.2539672851562 506.8072814941406 556.8212280273438 C 548.8754272460938 570.0910034179688 545.5125732421875 597.9113159179688 546.6582641601562 514.6668701171875 C 627.5265502929688 534.28759765625 679.3313598632812 530.1629638671875 711.1448974609375 518.8194580078125" stroke-width="-3.54929518699646" fill="none" stroke="rgb(0, 0, 0)" stroke-opacity="0.0" stroke-linecap="round" stroke-linejoin="round"/>
    <path d="M 319.1494445800781 454.6871032714844 C 241.7229766845703 448.0322570800781 271.0193786621094 448.6091003417969 253.9203338623047 419.3790588378906 C 250.2893829345703 460.35858154296875 248.36273193359375 498.9845886230469 245.25979614257812 493.9951477050781 C 251.8861083984375 451.978515625 269.2994384765625 470.58306884765625 229.4251708984375 501.59906005859375 C 243.0774688720703 458.68121337890625 267.15325927734375 456.325927734375 300.4892578125 506.7298583984375" stroke-width="16.087770462036133" fill="none" stroke="rgb(0, 0, 0)" stroke-opacity="0.0" stroke-linecap="round" stroke-linejoin="round"/>
    <path d="M 106.69734954833984 425.5558776855469 C 199.03419494628906 414.8200378417969 206.55191040039062 442.6954650878906 123.98472595214844 423.1836242675781 C 68.3798828125 445.9472351074219 117.63151550292969 436.2804870605469 129.720703125 420.3531494140625 C 75.03809356689453 437.6100769042969 66.99236297607422 437.8904113769531 89.18235778808594 444.1072692871094 C 178.2760009765625 465.43048095703125 198.58651733398438 433.3937072753906 238.6197509765625 428.0074462890625" stroke-width="17.16900062561035" fill="none" stroke="rgb(0, 0, 0)" stroke-opacity="0.9682701" stroke-linecap="round" stroke-linejoin="round"/>
    <path d="M 329.0702819824219 91.9298324584961 C 363.783203125 73.14969635009766 357.49566650390625 73.26010131835938 347.04217529296875 71.1963882446289 C 290.3692321777344 62.83647155761719 261.0972595214844 46.298301696777344 282.4971923828125 94.15493774414062 C 392.2696838378906 12.740946769714355 320.2316589355469 -2.9127142429351807 325.6410217285156 4.6839752197265625 C 317.1126708984375 55.272918701171875 337.7471618652344 96.63835144042969 301.4466552734375 103.6044692993164" stroke-width="-55.785037994384766" fill="none" stroke="rgb(0, 0, 0)" stroke-opacity="1.0" stroke-linecap="round" stroke-linejoin="round"/>
    <path d="M 329.0702819824219 91.9298324584961 C 363.783203125 73.14969635009766 357.49566650390625 73.26010131835938 347.04217529296875 71.1963882446289 C 290.3692321777344 62.83647155761719 261.0972595214844 46.298301696777344 282.4971923828125 94.15493774414062 C 392.2696838378906 12.740946769714355 320.2316589355469 -2.9127142429351807 325.6410217285156 4.6839752197265625 C 317.1126708984375 55.272918701171875 337.7471618652344 96.63835144042969 301.4466552734375 103.6044692993164" stroke-width="-55.785037994384766" fill="none" stroke="rgb(0, 0, 0)" stroke-opacity="1.0" stroke-linecap="round" stroke-linejoin="round"/>
    <path d="M 329.0702819824219 91.9298324584961 C 363.783203125 73.14969635009766 357.49566650390625 73.26010131835938 347.04217529296875 71.1963882446289 C 290.3692321777344 62.83647155761719 261.0972595214844 46.298301696777344 282.4971923828125 94.15493774414062 C 392.2696838378906 12.740946769714355 320.2316589355469 -2.9127142429351807 325.6410217285156 4.6839752197265625 C 317.1126708984375 55.272918701171875 337.7471618652344 96.63835144042969 301.4466552734375 103.6044692993164" stroke-width="-55.785037994384766" fill="none" stroke="rgb(0, 0, 0)" stroke-opacity="1.0" stroke-linecap="round" stroke-linejoin="round"/>
    <path d="M 329.0702819824219 91.9298324584961 C 363.783203125 73.14969635009766 357.49566650390625 73.26010131835938 347.04217529296875 71.1963882446289 C 290.3692321777344 62.83647155761719 261.0972595214844 46.298301696777344 282.4971923828125 94.15493774414062 C 392.2696838378906 12.740946769714355 320.2316589355469 -2.9127142429351807 325.6410217285156 4.6839752197265625 C 317.1126708984375 55.272918701171875 337.7471618652344 96.63835144042969 301.4466552734375 103.6044692993164" stroke-width="-55.785037994384766" fill="none" stroke="rgb(0, 0, 0)" stroke-opacity="1.0" stroke-linecap="round" stroke-linejoin="round"/>
    <path d="M 329.0702819824219 91.9298324584961 C 363.783203125 73.14969635009766 357.49566650390625 73.26010131835938 347.04217529296875 71.1963882446289 C 290.3692321777344 62.83647155761719 261.0972595214844 46.298301696777344 282.4971923828125 94.15493774414062 C 392.2696838378906 12.740946769714355 320.2316589355469 -2.9127142429351807 325.6410217285156 4.6839752197265625 C 317.1126708984375 55.272918701171875 337.7471618652344 96.63835144042969 301.4466552734375 103.6044692993164" stroke-width="-55.785037994384766" fill="none" stroke="rgb(0, 0, 0)" stroke-opacity="1.0" stroke-linecap="round" stroke-linejoin="round"/>
    <path d="M 329.0702819824219 91.9298324584961 C 363.783203125 73.14969635009766 357.49566650390625 73.26010131835938 347.04217529296875 71.1963882446289 C 290.3692321777344 62.83647155761719 261.0972595214844 46.298301696777344 282.4971923828125 94.15493774414062 C 392.2696838378906 12.740946769714355 320.2316589355469 -2.9127142429351807 325.6410217285156 4.6839752197265625 C 317.1126708984375 55.272918701171875 337.7471618652344 96.63835144042969 301.4466552734375 103.6044692993164" stroke-width="-55.785037994384766" fill="none" stroke="rgb(0, 0, 0)" stroke-opacity="1.0" stroke-linecap="round" stroke-linejoin="round"/>
    <path d="M 325.3726806640625 304.96185302734375 C 276.0352478027344 331.36370849609375 187.2661590576172 268.5970458984375 210.305908203125 295.1715393066406 C 293.32110595703125 302.58563232421875 213.07614135742188 327.236083984375 208.96243286132812 289.1794738769531 C 185.77200317382812 251.96946716308594 175.91567993164062 253.8221435546875 171.9029083251953 264.7799072265625 C 242.52195739746094 290.26953125 206.94503784179688 287.7777404785156 190.49749755859375 306.33355712890625" stroke-width="14.200094223022461" fill="none" stroke="rgb(0, 0, 0)" stroke-opacity="0.9998664" stroke-linecap="round" stroke-linejoin="round"/>
    <path d="M 589.7317504882812 480.2111511230469 C 540.9319458007812 536.0338134765625 530.1287231445312 517.6396484375 537.827392578125 491.101318359375 C 466.2655334472656 474.5375061035156 448.900146484375 505.76251220703125 471.0901184082031 507.5581359863281 C 441.56573486328125 505.1183166503906 501.32177734375 426.2373962402344 496.3709411621094 494.7419738769531 C 491.605224609375 507.6102294921875 541.7523193359375 525.2311401367188 532.9825439453125 431.83251953125" stroke-width="19.569597244262695" fill="none" stroke="rgb(0, 0, 0)" stroke-opacity="0.0" stroke-linecap="round" stroke-linejoin="round"/>
    <path d="M 459.05853271484375 428.7366943359375 C 470.4083557128906 396.9959411621094 487.7882080078125 426.8660888671875 500.4453125 460.3455810546875 C 501.1022033691406 421.7868347167969 500.3825378417969 397.82623291015625 532.6234130859375 470.2157897949219 C 588.614501953125 419.0213317871094 576.919921875 448.0902099609375 552.8633422851562 433.1121826171875 C 522.3480224609375 449.7850036621094 507.55657958984375 485.11737060546875 567.0065307617188 454.42547607421875" stroke-width="26.356637954711914" fill="none" stroke="rgb(0, 0, 0)" stroke-opacity="1.0" stroke-linecap="round" stroke-linejoin="round"/>
    <path d="M 329.0702819824219 91.9298324584961 C 363.783203125 73.14969635009766 357.49566650390625 73.26010131835938 347.04217529296875 71.1963882446289 C 290.3692321777344 62.83647155761719 261.0972595214844 46.298301696777344 282.4971923828125 94.15493774414062 C 392.2696838378906 12.740946769714355 320.2316589355469 -2.9127142429351807 325.6410217285156 4.6839752197265625 C 317.1126708984375 55.272918701171875 337.7471618652344 96.63835144042969 301.4466552734375 103.6044692993164" stroke-width="-55.785037994384766" fill="none" stroke="rgb(0, 0, 0)" stroke-opacity="1.0" stroke-linecap="round" stroke-linejoin="round"/>
    <path d="M 329.0702819824219 91.9298324584961 C 363.783203125 73.14969635009766 357.49566650390625 73.26010131835938 347.04217529296875 71.1963882446289 C 290.3692321777344 62.83647155761719 261.0972595214844 46.298301696777344 282.4971923828125 94.15493774414062 C 392.2696838378906 12.740946769714355 320.2316589355469 -2.9127142429351807 325.6410217285156 4.6839752197265625 C 317.1126708984375 55.272918701171875 337.7471618652344 96.63835144042969 301.4466552734375 103.6044692993164" stroke-width="-55.785037994384766" fill="none" stroke="rgb(0, 0, 0)" stroke-opacity="1.0" stroke-linecap="round" stroke-linejoin="round"/>
    <path d="M 176.7786865234375 376.28411865234375 C 108.03447723388672 372.32672119140625 59.20257568359375 385.94964599609375 38.36906051635742 390.80328369140625 C 114.48377990722656 356.428466796875 136.37481689453125 328.5492248535156 69.51173400878906 352.6525573730469 C 74.5027084350586 368.7508850097656 127.36483764648438 344.98712158203125 88.51847839355469 352.61383056640625 C 52.738975524902344 338.4652099609375 69.56905364990234 329.7264099121094 109.67733764648438 318.5164489746094" stroke-width="8.826647758483887" fill="none" stroke="rgb(0, 0, 0)" stroke-opacity="1.0" stroke-linecap="round" stroke-linejoin="round"/>
    <path d="M 329.0702819824219 91.9298324584961 C 363.783203125 73.14969635009766 357.49566650390625 73.26010131835938 347.04217529296875 71.1963882446289 C 290.3692321777344 62.83647155761719 261.0972595214844 46.298301696777344 282.4971923828125 94.15493774414062 C 392.2696838378906 12.740946769714355 320.2316589355469 -2.9127142429351807 325.6410217285156 4.6839752197265625 C 317.1126708984375 55.272918701171875 337.7471618652344 96.63835144042969 301.4466552734375 103.6044692993164" stroke-width="-55.785037994384766" fill="none" stroke="rgb(0, 0, 0)" stroke-opacity="1.0" stroke-linecap="round" stroke-linejoin="round"/>
    <path d="M -45.97526550292969 498.58233642578125 C 58.25302505493164 497.188720703125 124.95347595214844 510.7154235839844 130.3632049560547 511.4341735839844 C 140.24339294433594 522.4725341796875 126.1025161743164 461.3343200683594 92.82904815673828 464.0353698730469 C 96.7724380493164 414.8821716308594 83.62040710449219 422.0181579589844 140.64544677734375 435.7269592285156 C 237.9954376220703 442.26885986328125 203.32106018066406 448.43304443359375 184.92608642578125 463.1096496582031" stroke-width="4.167722225189209" fill="none" stroke="rgb(0, 0, 0)" stroke-opacity="0.8785048" stroke-linecap="round" stroke-linejoin="round"/>
    <path d="M 329.0702819824219 91.9298324584961 C 363.783203125 73.14969635009766 357.49566650390625 73.26010131835938 347.04217529296875 71.1963882446289 C 290.3692321777344 62.83647155761719 261.0972595214844 46.298301696777344 282.4971923828125 94.15493774414062 C 392.2696838378906 12.740946769714355 320.2316589355469 -2.9127142429351807 325.6410217285156 4.6839752197265625 C 317.1126708984375 55.272918701171875 337.7471618652344 96.63835144042969 301.4466552734375 103.6044692993164" stroke-width="-55.785037994384766" fill="none" stroke="rgb(0, 0, 0)" stroke-opacity="1.0" stroke-linecap="round" stroke-linejoin="round"/>
    <path d="M 329.0702819824219 91.9298324584961 C 363.783203125 73.14969635009766 357.49566650390625 73.26010131835938 347.04217529296875 71.1963882446289 C 290.3692321777344 62.83647155761719 261.0972595214844 46.298301696777344 282.4971923828125 94.15493774414062 C 392.2696838378906 12.740946769714355 320.2316589355469 -2.9127142429351807 325.6410217285156 4.6839752197265625 C 317.1126708984375 55.272918701171875 337.7471618652344 96.63835144042969 301.4466552734375 103.6044692993164" stroke-width="-55.785037994384766" fill="none" stroke="rgb(0, 0, 0)" stroke-opacity="1.0" stroke-linecap="round" stroke-linejoin="round"/>
    <path d="M 308.93975830078125 311.7684020996094 C 208.9486083984375 335.21435546875 140.68072509765625 315.4777526855469 136.05369567871094 292.0382080078125 C 138.7425537109375 244.4986114501953 156.96914672851562 230.3363037109375 165.90887451171875 255.1103057861328 C 110.99958801269531 271.556640625 117.21424102783203 310.8128967285156 164.06192016601562 312.7582092285156 C 185.18325805664062 309.0071105957031 188.7151641845703 288.6689147949219 162.1295166015625 257.6411437988281" stroke-width="26.27104949951172" fill="none" stroke="rgb(0, 0, 0)" stroke-opacity="1.0" stroke-linecap="round" stroke-linejoin="round"/>
    <path d="M 329.0702819824219 91.9298324584961 C 363.783203125 73.14969635009766 357.49566650390625 73.26010131835938 347.04217529296875 71.1963882446289 C 290.3692321777344 62.83647155761719 261.0972595214844 46.298301696777344 282.4971923828125 94.15493774414062 C 392.2696838378906 12.740946769714355 320.2316589355469 -2.9127142429351807 325.6410217285156 4.6839752197265625 C 317.1126708984375 55.272918701171875 337.7471618652344 96.63835144042969 301.4466552734375 103.6044692993164" stroke-width="-55.785037994384766" fill="none" stroke="rgb(0, 0, 0)" stroke-opacity="1.0" stroke-linecap="round" stroke-linejoin="round"/>
    <path d="M 329.0702819824219 91.9298324584961 C 363.783203125 73.14969635009766 357.49566650390625 73.26010131835938 347.04217529296875 71.1963882446289 C 290.3692321777344 62.83647155761719 261.0972595214844 46.298301696777344 282.4971923828125 94.15493774414062 C 392.2696838378906 12.740946769714355 320.2316589355469 -2.9127142429351807 325.6410217285156 4.6839752197265625 C 317.1126708984375 55.272918701171875 337.7471618652344 96.63835144042969 301.4466552734375 103.6044692993164" stroke-width="-55.785037994384766" fill="none" stroke="rgb(0, 0, 0)" stroke-opacity="0.23874286" stroke-linecap="round" stroke-linejoin="round"/>
  </g>
</svg>
