<?xml version="1.0" ?>
<svg xmlns="http://www.w3.org/2000/svg" version="1.1" width="600" height="600">
  <defs/>
  <g>
    <path d="M 343.0115966796875 423.2289123535156 C 360.2695617675781 410.4393615722656 359.28192138671875 438.24029541015625 307.04803466796875 389.24560546875 C 299.5234680175781 407.89544677734375 297.1721496582031 458.4036865234375 312.10589599609375 509.0792541503906 C 350.2142333984375 484.4311218261719 378.11614990234375 488.2868957519531 301.2365417480469 531.3728637695312 C 290.9712219238281 576.2535400390625 321.7059020996094 611.4357299804688 335.3618469238281 623.7698364257812" stroke-width="-33.7851676940918" fill="none" stroke="rgb(0, 0, 0)" stroke-opacity="1.0" stroke-linecap="round" stroke-linejoin="round"/>
    <path d="M 343.0115966796875 423.2289123535156 C 360.2695617675781 410.4393615722656 359.28192138671875 438.24029541015625 307.04803466796875 389.24560546875 C 299.5234680175781 407.89544677734375 297.1721496582031 458.4036865234375 312.10589599609375 509.0792541503906 C 350.2142333984375 484.4311218261719 378.11614990234375 488.2868957519531 301.2365417480469 531.3728637695312 C 290.9712219238281 576.2535400390625 321.7059020996094 611.4357299804688 335.3618469238281 623.7698364257812" stroke-width="-33.7851676940918" fill="none" stroke="rgb(0, 0, 0)" stroke-opacity="1.0" stroke-linecap="round" stroke-linejoin="round"/>
    <path d="M 343.0115966796875 423.2289123535156 C 360.2695617675781 410.4393615722656 359.28192138671875 438.24029541015625 307.04803466796875 389.24560546875 C 299.5234680175781 407.89544677734375 297.1721496582031 458.4036865234375 312.10589599609375 509.0792541503906 C 350.2142333984375 484.4311218261719 378.11614990234375 488.2868957519531 301.2365417480469 531.3728637695312 C 290.9712219238281 576.2535400390625 321.7059020996094 611.4357299804688 335.3618469238281 623.7698364257812" stroke-width="-33.7851676940918" fill="none" stroke="rgb(0, 0, 0)" stroke-opacity="1.0" stroke-linecap="round" stroke-linejoin="round"/>
    <path d="M -1.1104393005371094 500.342529296875 C 44.147335052490234 535.7373657226562 107.19557189941406 490.1191101074219 10.204334259033203 543.3419799804688 C 27.136457443237305 558.0303955078125 39.516014099121094 574.4309692382812 59.77273178100586 544.9384155273438 C 95.50568389892578 546.2405395507812 82.08919525146484 557.0629272460938 65.49717712402344 599.7006225585938 C 133.31350708007812 593.3896484375 130.16470336914062 566.258544921875 12.042998313903809 589.38916015625" stroke-width="35.057029724121094" fill="none" stroke="rgb(0, 0, 0)" stroke-opacity="0.97490615" stroke-linecap="round" stroke-linejoin="round"/>
    <path d="M 343.0115966796875 423.2289123535156 C 360.2695617675781 410.4393615722656 359.28192138671875 438.24029541015625 307.04803466796875 389.24560546875 C 299.5234680175781 407.89544677734375 297.1721496582031 458.4036865234375 312.10589599609375 509.0792541503906 C 350.2142333984375 484.4311218261719 378.11614990234375 488.2868957519531 301.2365417480469 531.3728637695312 C 290.9712219238281 576.2535400390625 321.7059020996094 611.4357299804688 335.3618469238281 623.7698364257812" stroke-width="-33.7851676940918" fill="none" stroke="rgb(0, 0, 0)" stroke-opacity="1.0" stroke-linecap="round" stroke-linejoin="round"/>
    <path d="M 642.6503295898438 94.90360260009766 C 596.4156494140625 113.70389556884766 630.4227905273438 119.06096649169922 652.5460205078125 135.85650634765625 C 587.8948974609375 140.1453399658203 614.730224609375 104.15754699707031 551.220947265625 124.41703033447266 C 599.2222900390625 158.34725952148438 610.4222412109375 162.52911376953125 577.3335571289062 164.2587890625 C 539.3626708984375 174.82481384277344 540.6786499023438 146.26953125 557.8905029296875 141.0484161376953" stroke-width="36.27155303955078" fill="none" stroke="rgb(0, 0, 0)" stroke-opacity="0.017650867" stroke-linecap="round" stroke-linejoin="round"/>
    <path d="M 16.182220458984375 544.1019897460938 C 17.04218292236328 486.38140869140625 -8.292143821716309 477.1102600097656 11.705647468566895 451.4390563964844 C 51.642662048339844 462.13232421875 56.79647445678711 457.7893981933594 53.88530349731445 393.9336853027344 C 39.04496765136719 373.5231628417969 15.50495433807373 394.1729431152344 -4.357029914855957 380.2239990234375 C -63.58366394042969 351.9081726074219 -29.4046573638916 389.47802734375 -12.617931365966797 412.3500061035156" stroke-width="8.386519432067871" fill="none" stroke="rgb(0, 0, 0)" stroke-opacity="0.049193572" stroke-linecap="round" stroke-linejoin="round"/>
    <path d="M 522.8203125 367.6184997558594 C 485.32659912109375 367.0115661621094 511.74493408203125 373.72210693359375 556.1942138671875 367.277587890625 C 494.4380798339844 346.5499267578125 495.220947265625 359.5202331542969 550.9381103515625 345.3052062988281 C 523.0988159179688 365.80999755859375 507.287353515625 339.5672912597656 544.5308227539062 352.3420104980469 C 555.16845703125 335.87255859375 551.4451293945312 346.3387145996094 558.6735229492188 365.14813232421875" stroke-width="0.5784314274787903" fill="none" stroke="rgb(0, 0, 0)" stroke-opacity="0.24542037" stroke-linecap="round" stroke-linejoin="round"/>
    <path d="M 343.0115966796875 423.2289123535156 C 360.2695617675781 410.4393615722656 359.28192138671875 438.24029541015625 307.04803466796875 389.24560546875 C 299.5234680175781 407.89544677734375 297.1721496582031 458.4036865234375 312.10589599609375 509.0792541503906 C 350.2142333984375 484.4311218261719 378.11614990234375 488.2868957519531 301.2365417480469 531.3728637695312 C 290.9712219238281 576.2535400390625 321.7059020996094 611.4357299804688 335.3618469238281 623.7698364257812" stroke-width="-33.7851676940918" fill="none" stroke="rgb(0, 0, 0)" stroke-opacity="1.0" stroke-linecap="round" stroke-linejoin="round"/>
    <path d="M 126.11058807373047 515.322998046875 C 48.709266662597656 580.7435913085938 81.12715911865234 603.383056640625 144.367431640625 565.5025634765625 C 212.80828857421875 572.5433959960938 214.65476989746094 555.9834594726562 162.9560546875 554.1823120117188 C 185.206787109375 546.0298461914062 145.9403839111328 512.9459838867188 139.66725158691406 497.72625732421875 C 137.96458435058594 492.1780090332031 148.07899475097656 559.1497802734375 146.3555450439453 560.8426513671875" stroke-width="30.488313674926758" fill="none" stroke="rgb(0, 0, 0)" stroke-opacity="0.9992816" stroke-linecap="round" stroke-linejoin="round"/>
    <path d="M 343.0115966796875 423.2289123535156 C 360.2695617675781 410.4393615722656 359.28192138671875 438.24029541015625 307.04803466796875 389.24560546875 C 299.5234680175781 407.89544677734375 297.1721496582031 458.4036865234375 312.10589599609375 509.0792541503906 C 350.2142333984375 484.4311218261719 378.11614990234375 488.2868957519531 301.2365417480469 531.3728637695312 C 290.9712219238281 576.2535400390625 321.7059020996094 611.4357299804688 335.3618469238281 623.7698364257812" stroke-width="-33.7851676940918" fill="none" stroke="rgb(0, 0, 0)" stroke-opacity="1.0" stroke-linecap="round" stroke-linejoin="round"/>
    <path d="M 332.8511047363281 414.718017578125 C 370.00970458984375 419.04986572265625 332.9937438964844 431.77056884765625 268.5837097167969 439.5207214355469 C 300.9970397949219 387.6557922363281 354.71044921875 416.1364440917969 318.4140930175781 426.89459228515625 C 283.6176452636719 475.5235595703125 317.7144775390625 496.3531494140625 263.9405212402344 503.42547607421875 C 258.5495910644531 450.7872619628906 273.61517333984375 428.01910400390625 254.3927001953125 470.0496826171875" stroke-width="6.0456061363220215" fill="none" stroke="rgb(0, 0, 0)" stroke-opacity="0.99477404" stroke-linecap="round" stroke-linejoin="round"/>
    <path d="M 317.1607971191406 497.4245910644531 C 399.0205078125 515.2296752929688 463.0112609863281 501.2956848144531 476.9294128417969 514.9125366210938 C 441.9990539550781 502.84100341796875 433.6532897949219 495.0597839355469 460.20452880859375 512.3842163085938 C 468.4636535644531 504.61627197265625 468.8309631347656 517.1394653320312 446.6038818359375 505.14801025390625 C 471.2431945800781 515.3148803710938 487.67669677734375 516.2123413085938 474.5400390625 512.5862426757812" stroke-width="37.79219436645508" fill="none" stroke="rgb(0, 0, 0)" stroke-opacity="0.9547781" stroke-linecap="round" stroke-linejoin="round"/>
    <path d="M 343.0115966796875 423.2289123535156 C 360.2695617675781 410.4393615722656 359.28192138671875 438.24029541015625 307.04803466796875 389.24560546875 C 299.5234680175781 407.89544677734375 297.1721496582031 458.4036865234375 312.10589599609375 509.0792541503906 C 350.2142333984375 484.4311218261719 378.11614990234375 488.2868957519531 301.2365417480469 531.3728637695312 C 290.9712219238281 576.2535400390625 321.7059020996094 611.4357299804688 335.3618469238281 623.7698364257812" stroke-width="-33.7851676940918" fill="none" stroke="rgb(0, 0, 0)" stroke-opacity="1.0" stroke-linecap="round" stroke-linejoin="round"/>
    <path d="M 343.0115966796875 423.2289123535156 C 360.2695617675781 410.4393615722656 359.28192138671875 438.24029541015625 307.04803466796875 389.24560546875 C 299.5234680175781 407.89544677734375 297.1721496582031 458.4036865234375 312.10589599609375 509.0792541503906 C 350.2142333984375 484.4311218261719 378.11614990234375 488.2868957519531 301.2365417480469 531.3728637695312 C 290.9712219238281 576.2535400390625 321.7059020996094 611.4357299804688 335.3618469238281 623.7698364257812" stroke-width="-33.7851676940918" fill="none" stroke="rgb(0, 0, 0)" stroke-opacity="1.0" stroke-linecap="round" stroke-linejoin="round"/>
    <path d="M 343.0115966796875 423.2289123535156 C 360.2695617675781 410.4393615722656 359.28192138671875 438.24029541015625 307.04803466796875 389.24560546875 C 299.5234680175781 407.89544677734375 297.1721496582031 458.4036865234375 312.10589599609375 509.0792541503906 C 350.2142333984375 484.4311218261719 378.11614990234375 488.2868957519531 301.2365417480469 531.3728637695312 C 290.9712219238281 576.2535400390625 321.7059020996094 611.4357299804688 335.3618469238281 623.7698364257812" stroke-width="-33.7851676940918" fill="none" stroke="rgb(0, 0, 0)" stroke-opacity="1.0" stroke-linecap="round" stroke-linejoin="round"/>
    <path d="M 333.74786376953125 364.832275390625 C 339.3033142089844 304.0549011230469 341.0937805175781 273.3155212402344 361.4808044433594 310.8873291015625 C 353.41754150390625 253.1910858154297 322.65252685546875 256.23284912109375 353.2347106933594 385.23046875 C 365.904296875 335.9286193847656 341.3238220214844 273.19256591796875 343.25384521484375 225.30873107910156 C 352.0220031738281 192.98898315429688 333.51641845703125 157.13546752929688 342.4342956542969 214.28912353515625" stroke-width="20.126615524291992" fill="none" stroke="rgb(0, 0, 0)" stroke-opacity="1.0" stroke-linecap="round" stroke-linejoin="round"/>
    <path d="M 343.0115966796875 423.2289123535156 C 360.2695617675781 410.4393615722656 359.28192138671875 438.24029541015625 307.04803466796875 389.24560546875 C 299.5234680175781 407.89544677734375 297.1721496582031 458.4036865234375 312.10589599609375 509.0792541503906 C 350.2142333984375 484.4311218261719 378.11614990234375 488.2868957519531 301.2365417480469 531.3728637695312 C 290.9712219238281 576.2535400390625 321.7059020996094 611.4357299804688 335.3618469238281 623.7698364257812" stroke-width="-33.7851676940918" fill="none" stroke="rgb(0, 0, 0)" stroke-opacity="1.0" stroke-linecap="round" stroke-linejoin="round"/>
    <path d="M 343.0115966796875 423.2289123535156 C 360.2695617675781 410.4393615722656 359.28192138671875 438.24029541015625 307.04803466796875 389.24560546875 C 299.5234680175781 407.89544677734375 297.1721496582031 458.4036865234375 312.10589599609375 509.0792541503906 C 350.2142333984375 484.4311218261719 378.11614990234375 488.2868957519531 301.2365417480469 531.3728637695312 C 290.9712219238281 576.2535400390625 321.7059020996094 611.4357299804688 335.3618469238281 623.7698364257812" stroke-width="-33.7851676940918" fill="none" stroke="rgb(0, 0, 0)" stroke-opacity="1.0" stroke-linecap="round" stroke-linejoin="round"/>
    <path d="M 308.13458251953125 505.5225524902344 C 253.68362426757812 461.7818298339844 261.1846923828125 473.25860595703125 366.1504211425781 487.199951171875 C 376.5834655761719 501.6516418457031 359.355712890625 473.4612731933594 346.8307800292969 486.04962158203125 C 388.94744873046875 486.7568664550781 460.58160400390625 491.4993591308594 447.11871337890625 487.61138916015625 C 437.16552734375 482.34326171875 468.22216796875 497.1894226074219 451.9800720214844 501.69122314453125" stroke-width="7.669635772705078" fill="none" stroke="rgb(0, 0, 0)" stroke-opacity="0.9918023" stroke-linecap="round" stroke-linejoin="round"/>
    <path d="M 343.0115966796875 423.2289123535156 C 360.2695617675781 410.4393615722656 359.28192138671875 438.24029541015625 307.04803466796875 389.24560546875 C 299.5234680175781 407.89544677734375 297.1721496582031 458.4036865234375 312.10589599609375 509.0792541503906 C 350.2142333984375 484.4311218261719 378.11614990234375 488.2868957519531 301.2365417480469 531.3728637695312 C 290.9712219238281 576.2535400390625 321.7059020996094 611.4357299804688 335.3618469238281 623.7698364257812" stroke-width="-33.7851676940918" fill="none" stroke="rgb(0, 0, 0)" stroke-opacity="1.0" stroke-linecap="round" stroke-linejoin="round"/>
    <path d="M 343.0115966796875 423.2289123535156 C 360.2695617675781 410.4393615722656 359.28192138671875 438.24029541015625 307.04803466796875 389.24560546875 C 299.5234680175781 407.89544677734375 297.1721496582031 458.4036865234375 312.10589599609375 509.0792541503906 C 350.2142333984375 484.4311218261719 378.11614990234375 488.2868957519531 301.2365417480469 531.3728637695312 C 290.9712219238281 576.2535400390625 321.7059020996094 611.4357299804688 335.3618469238281 623.7698364257812" stroke-width="-33.7851676940918" fill="none" stroke="rgb(0, 0, 0)" stroke-opacity="1.0" stroke-linecap="round" stroke-linejoin="round"/>
    <path d="M 44.148597717285156 518.4512329101562 C 109.35206604003906 512.1480102539062 49.16985321044922 509.11785888671875 20.31644058227539 567.4522705078125 C 89.96092224121094 548.552001953125 67.42070007324219 553.5166015625 22.912330627441406 535.7723388671875 C 48.63097381591797 546.3955078125 -20.260005950927734 551.5889892578125 29.341384887695312 557.7723999023438 C -19.34822654724121 561.4427490234375 5.621159553527832 573.4278564453125 52.85478973388672 574.33251953125" stroke-width="14.92809009552002" fill="none" stroke="rgb(0, 0, 0)" stroke-opacity="1.0" stroke-linecap="round" stroke-linejoin="round"/>
    <path d="M 543.5961303710938 565.1736450195312 C 669.3433837890625 548.95458984375 654.4645385742188 586.9070434570312 557.7780151367188 587.2962036132812 C 533.0028686523438 521.274169921875 560.7077026367188 539.1243896484375 578.1566162109375 566.479736328125 C 612.52001953125 588.6399536132812 630.5643310546875 614.4321899414062 622.4559326171875 594.8408203125 C 622.1673583984375 604.8012084960938 603.26806640625 621.3089599609375 611.3624267578125 623.3980102539062" stroke-width="30.787195205688477" fill="none" stroke="rgb(0, 0, 0)" stroke-opacity="0.99645156" stroke-linecap="round" stroke-linejoin="round"/>
    <path d="M 343.0115966796875 423.2289123535156 C 360.2695617675781 410.4393615722656 359.28192138671875 438.24029541015625 307.04803466796875 389.24560546875 C 299.5234680175781 407.89544677734375 297.1721496582031 458.4036865234375 312.10589599609375 509.0792541503906 C 350.2142333984375 484.4311218261719 378.11614990234375 488.2868957519531 301.2365417480469 531.3728637695312 C 290.9712219238281 576.2535400390625 321.7059020996094 611.4357299804688 335.3618469238281 623.7698364257812" stroke-width="-33.7851676940918" fill="none" stroke="rgb(0, 0, 0)" stroke-opacity="1.0" stroke-linecap="round" stroke-linejoin="round"/>
    <path d="M 324.51220703125 448.0899353027344 C 335.666259765625 518.8692626953125 314.7432556152344 556.5709228515625 296.6881103515625 545.3359985351562 C 374.54461669921875 541.6101684570312 395.48345947265625 579.4517822265625 387.2220764160156 521.7750244140625 C 324.25909423828125 503.9490661621094 384.5227966308594 506.1774597167969 417.4307556152344 518.296630859375 C 404.1844177246094 474.051513671875 411.4647521972656 486.92706298828125 417.2372131347656 506.2009582519531" stroke-width="6.6910295486450195" fill="none" stroke="rgb(0, 0, 0)" stroke-opacity="0.9157433" stroke-linecap="round" stroke-linejoin="round"/>
    <path d="M 343.0115966796875 423.2289123535156 C 360.2695617675781 410.4393615722656 359.28192138671875 438.24029541015625 307.04803466796875 389.24560546875 C 299.5234680175781 407.89544677734375 297.1721496582031 458.4036865234375 312.10589599609375 509.0792541503906 C 350.2142333984375 484.4311218261719 378.11614990234375 488.2868957519531 301.2365417480469 531.3728637695312 C 290.9712219238281 576.2535400390625 321.7059020996094 611.4357299804688 335.3618469238281 623.7698364257812" stroke-width="-33.7851676940918" fill="none" stroke="rgb(0, 0, 0)" stroke-opacity="1.0" stroke-linecap="round" stroke-linejoin="round"/>
    <path d="M 343.0115966796875 423.2289123535156 C 360.2695617675781 410.4393615722656 359.28192138671875 438.24029541015625 307.04803466796875 389.24560546875 C 299.5234680175781 407.89544677734375 297.1721496582031 458.4036865234375 312.10589599609375 509.0792541503906 C 350.2142333984375 484.4311218261719 378.11614990234375 488.2868957519531 301.2365417480469 531.3728637695312 C 290.9712219238281 576.2535400390625 321.7059020996094 611.4357299804688 335.3618469238281 623.7698364257812" stroke-width="-33.7851676940918" fill="none" stroke="rgb(0, 0, 0)" stroke-opacity="1.0" stroke-linecap="round" stroke-linejoin="round"/>
    <path d="M 343.0115966796875 423.2289123535156 C 360.2695617675781 410.4393615722656 359.28192138671875 438.24029541015625 307.04803466796875 389.24560546875 C 299.5234680175781 407.89544677734375 297.1721496582031 458.4036865234375 312.10589599609375 509.0792541503906 C 350.2142333984375 484.4311218261719 378.11614990234375 488.2868957519531 301.2365417480469 531.3728637695312 C 290.9712219238281 576.2535400390625 321.7059020996094 611.4357299804688 335.3618469238281 623.7698364257812" stroke-width="-33.7851676940918" fill="none" stroke="rgb(0, 0, 0)" stroke-opacity="1.0" stroke-linecap="round" stroke-linejoin="round"/>
    <path d="M 343.0115966796875 423.2289123535156 C 360.2695617675781 410.4393615722656 359.28192138671875 438.24029541015625 307.04803466796875 389.24560546875 C 299.5234680175781 407.89544677734375 297.1721496582031 458.4036865234375 312.10589599609375 509.0792541503906 C 350.2142333984375 484.4311218261719 378.11614990234375 488.2868957519531 301.2365417480469 531.3728637695312 C 290.9712219238281 576.2535400390625 321.7059020996094 611.4357299804688 335.3618469238281 623.7698364257812" stroke-width="-33.7851676940918" fill="none" stroke="rgb(0, 0, 0)" stroke-opacity="1.0" stroke-linecap="round" stroke-linejoin="round"/>
    <path d="M 499.13226318359375 502.4434814453125 C 549.3482055664062 527.5037231445312 537.38525390625 508.53076171875 511.1001892089844 499.3651123046875 C 626.3763427734375 517.7318725585938 644.0330200195312 455.303466796875 633.3208618164062 467.29345703125 C 622.53662109375 435.4173889160156 617.6525268554688 428.6747741699219 633.4697875976562 416.5634765625 C 627.038818359375 418.1831970214844 611.0225219726562 434.1751708984375 638.6367797851562 408.6136169433594" stroke-width="7.518777847290039" fill="none" stroke="rgb(0, 0, 0)" stroke-opacity="0.0011413489" stroke-linecap="round" stroke-linejoin="round"/>
    <path d="M 449.135986328125 505.1806335449219 C 429.5363464355469 462.8497619628906 430.8970031738281 440.2098388671875 509.05303955078125 434.0292663574219 C 479.4973449707031 445.38031005859375 447.0429382324219 456.44854736328125 423.96240234375 453.6516418457031 C 430.9349365234375 440.6841125488281 390.17938232421875 444.9684143066406 330.91973876953125 424.1198425292969 C 309.10467529296875 410.9937744140625 333.8238525390625 452.6614685058594 311.37188720703125 452.3185729980469" stroke-width="8.322507858276367" fill="none" stroke="rgb(0, 0, 0)" stroke-opacity="0.9907763" stroke-linecap="round" stroke-linejoin="round"/>
    <path d="M 133.50746154785156 494.08636474609375 C 154.38253784179688 501.2073669433594 163.75242614746094 463.8308410644531 181.9718017578125 373.647705078125 C 188.77517700195312 359.4862976074219 166.6923065185547 420.8236083984375 154.15866088867188 429.7161865234375 C 168.10440063476562 397.5190734863281 133.6869354248047 379.6842956542969 171.6922607421875 388.33929443359375 C 115.70010375976562 388.1556091308594 159.31813049316406 398.29364013671875 184.0226593017578 387.8309020996094" stroke-width="-5.802186489105225" fill="none" stroke="rgb(0, 0, 0)" stroke-opacity="0.0037228472" stroke-linecap="round" stroke-linejoin="round"/>
    <path d="M 343.0115966796875 423.2289123535156 C 360.2695617675781 410.4393615722656 359.28192138671875 438.24029541015625 307.04803466796875 389.24560546875 C 299.5234680175781 407.89544677734375 297.1721496582031 458.4036865234375 312.10589599609375 509.0792541503906 C 350.2142333984375 484.4311218261719 378.11614990234375 488.2868957519531 301.2365417480469 531.3728637695312 C 290.9712219238281 576.2535400390625 321.7059020996094 611.4357299804688 335.3618469238281 623.7698364257812" stroke-width="-33.7851676940918" fill="none" stroke="rgb(0, 0, 0)" stroke-opacity="1.0" stroke-linecap="round" stroke-linejoin="round"/>
    <path d="M 532.0675659179688 502.5698547363281 C 460.18914794921875 519.0723876953125 432.6231689453125 571.2236938476562 515.5013427734375 548.6535034179688 C 520.5176391601562 616.098388671875 533.5950317382812 631.0036010742188 540.6995239257812 611.388671875 C 566.6543579101562 511.7687683105469 568.4589233398438 511.7290344238281 589.78466796875 582.1446533203125 C 632.4971923828125 547.944580078125 600.63037109375 495.7950744628906 609.3728637695312 505.4818115234375" stroke-width="9.820735931396484" fill="none" stroke="rgb(0, 0, 0)" stroke-opacity="1.0" stroke-linecap="round" stroke-linejoin="round"/>
    <path d="M 84.92901611328125 39.82183074951172 C 102.6564712524414 39.451171875 92.71356964111328 76.9161605834961 127.26974487304688 44.06987762451172 C 115.66542053222656 49.322784423828125 103.43506622314453 51.49931335449219 116.05018615722656 16.850139617919922 C 148.78497314453125 7.674034595489502 178.99354553222656 31.195606231689453 194.32534790039062 8.431889533996582 C 239.7568817138672 -16.911643981933594 230.27972412109375 -21.55985450744629 196.87908935546875 -42.28600311279297" stroke-width="16.811845779418945" fill="none" stroke="rgb(0, 0, 0)" stroke-opacity="0.03669121" stroke-linecap="round" stroke-linejoin="round"/>
    <path d="M 343.0115966796875 423.2289123535156 C 360.2695617675781 410.4393615722656 359.28192138671875 438.24029541015625 307.04803466796875 389.24560546875 C 299.5234680175781 407.89544677734375 297.1721496582031 458.4036865234375 312.10589599609375 509.0792541503906 C 350.2142333984375 484.4311218261719 378.11614990234375 488.2868957519531 301.2365417480469 531.3728637695312 C 290.9712219238281 576.2535400390625 321.7059020996094 611.4357299804688 335.3618469238281 623.7698364257812" stroke-width="-33.7851676940918" fill="none" stroke="rgb(0, 0, 0)" stroke-opacity="1.0" stroke-linecap="round" stroke-linejoin="round"/>
    <path d="M 213.99700927734375 564.957275390625 C 126.85615539550781 549.8422241210938 134.1630096435547 537.7454223632812 114.25914001464844 532.0787353515625 C 122.92293548583984 517.970458984375 166.7064971923828 529.6387939453125 195.91421508789062 553.7564697265625 C 166.30140686035156 576.6282348632812 187.0493621826172 568.1489868164062 195.03399658203125 583.835693359375 C 116.19538879394531 581.024658203125 101.65311431884766 575.7601928710938 142.09390258789062 528.5021362304688" stroke-width="18.864622116088867" fill="none" stroke="rgb(0, 0, 0)" stroke-opacity="1.0" stroke-linecap="round" stroke-linejoin="round"/>
    <path d="M 373.81512451171875 -9.463277816772461 C 372.4155578613281 -15.421749114990234 398.7708740234375 -9.122504234313965 417.2106018066406 -32.115814208984375 C 439.5213623046875 -45.72861862182617 430.5309753417969 -17.277376174926758 442.2221984863281 -37.78526306152344 C 447.66253662109375 -57.17453384399414 472.3640441894531 -83.04097747802734 483.0990295410156 -65.7472915649414 C 488.0799560546875 -47.33738708496094 472.5290832519531 -64.18803405761719 462.3046875 -54.671443939208984" stroke-width="4.823761463165283" fill="none" stroke="rgb(0, 0, 0)" stroke-opacity="0.45087183" stroke-linecap="round" stroke-linejoin="round"/>
    <path d="M 57.57550811767578 490.74224853515625 C 68.13491821289062 480.0988464355469 78.43329620361328 517.7407836914062 148.51370239257812 511.482421875 C 129.53567504882812 579.81787109375 100.01371002197266 601.169677734375 89.04107666015625 631.0430297851562 C 142.04652404785156 602.6900024414062 173.3217315673828 614.2662353515625 117.2359390258789 644.1735229492188 C 113.92922973632812 611.6220703125 86.30109405517578 562.0478515625 99.23055267333984 580.349853515625" stroke-width="-6.805167198181152" fill="none" stroke="rgb(0, 0, 0)" stroke-opacity="0.0042409976" stroke-linecap="round" stroke-linejoin="round"/>
    <path d="M 343.0115966796875 423.2289123535156 C 360.2695617675781 410.4393615722656 359.28192138671875 438.24029541015625 307.04803466796875 389.24560546875 C 299.5234680175781 407.89544677734375 297.1721496582031 458.4036865234375 312.10589599609375 509.0792541503906 C 350.2142333984375 484.4311218261719 378.11614990234375 488.2868957519531 301.2365417480469 531.3728637695312 C 290.9712219238281 576.2535400390625 321.7059020996094 611.4357299804688 335.3618469238281 623.7698364257812" stroke-width="-33.7851676940918" fill="none" stroke="rgb(0, 0, 0)" stroke-opacity="1.0" stroke-linecap="round" stroke-linejoin="round"/>
    <path d="M 624.0634155273438 451.83935546875 C 636.5157470703125 451.3105163574219 645.4205932617188 510.9912109375 588.62841796875 529.5769653320312 C 588.7869262695312 517.29736328125 597.47265625 542.8609619140625 604.8435668945312 515.041259765625 C 593.6251220703125 557.9931030273438 604.1382446289062 515.9118041992188 627.1950073242188 486.0092468261719 C 611.3187866210938 516.537841796875 642.1056518554688 549.7406616210938 533.513671875 545.1871337890625" stroke-width="15.623745918273926" fill="none" stroke="rgb(0, 0, 0)" stroke-opacity="0.9865585" stroke-linecap="round" stroke-linejoin="round"/>
    <path d="M 265.4227294921875 511.54803466796875 C 315.8343811035156 493.5005798339844 273.5256042480469 493.220458984375 335.9925231933594 512.4248046875 C 284.6918640136719 524.4232177734375 218.39825439453125 540.1790771484375 225.85484313964844 527.5409545898438 C 307.7191467285156 492.86175537109375 311.0700378417969 486.3587646484375 321.79534912109375 521.6519165039062 C 300.03741455078125 489.3605651855469 290.7076721191406 482.64276123046875 299.2171936035156 510.812744140625" stroke-width="20.804967880249023" fill="none" stroke="rgb(0, 0, 0)" stroke-opacity="1.0" stroke-linecap="round" stroke-linejoin="round"/>
    <path d="M 79.0868911743164 408.1490783691406 C 114.71392059326172 407.5313415527344 72.96208953857422 414.5297546386719 74.64373779296875 415.78607177734375 C 50.98427963256836 412.8700866699219 84.02095794677734 402.3720397949219 67.8622055053711 414.16943359375 C 48.13566970825195 425.0802001953125 121.48817443847656 414.4630432128906 70.52030944824219 420.6893310546875 C 79.97952270507812 436.76495361328125 107.2741470336914 404.40936279296875 94.49138641357422 410.4360046386719" stroke-width="6.90954065322876" fill="none" stroke="rgb(0, 0, 0)" stroke-opacity="0.014860328" stroke-linecap="round" stroke-linejoin="round"/>
    <path d="M 343.0115966796875 423.2289123535156 C 360.2695617675781 410.4393615722656 359.28192138671875 438.24029541015625 307.04803466796875 389.24560546875 C 299.5234680175781 407.89544677734375 297.1721496582031 458.4036865234375 312.10589599609375 509.0792541503906 C 350.2142333984375 484.4311218261719 378.11614990234375 488.2868957519531 301.2365417480469 531.3728637695312 C 290.9712219238281 576.2535400390625 321.7059020996094 611.4357299804688 335.3618469238281 623.7698364257812" stroke-width="-33.7851676940918" fill="none" stroke="rgb(0, 0, 0)" stroke-opacity="1.0" stroke-linecap="round" stroke-linejoin="round"/>
    <path d="M 343.0115966796875 423.2289123535156 C 360.2695617675781 410.4393615722656 359.28192138671875 438.24029541015625 307.04803466796875 389.24560546875 C 299.5234680175781 407.89544677734375 297.1721496582031 458.4036865234375 312.10589599609375 509.0792541503906 C 350.2142333984375 484.4311218261719 378.11614990234375 488.2868957519531 301.2365417480469 531.3728637695312 C 290.9712219238281 576.2535400390625 321.7059020996094 611.4357299804688 335.3618469238281 623.7698364257812" stroke-width="-33.7851676940918" fill="none" stroke="rgb(0, 0, 0)" stroke-opacity="1.0" stroke-linecap="round" stroke-linejoin="round"/>
    <path d="M 343.0115966796875 423.2289123535156 C 360.2695617675781 410.4393615722656 359.28192138671875 438.24029541015625 307.04803466796875 389.24560546875 C 299.5234680175781 407.89544677734375 297.1721496582031 458.4036865234375 312.10589599609375 509.0792541503906 C 350.2142333984375 484.4311218261719 378.11614990234375 488.2868957519531 301.2365417480469 531.3728637695312 C 290.9712219238281 576.2535400390625 321.7059020996094 611.4357299804688 335.3618469238281 623.7698364257812" stroke-width="-33.7851676940918" fill="none" stroke="rgb(0, 0, 0)" stroke-opacity="1.0" stroke-linecap="round" stroke-linejoin="round"/>
    <path d="M 343.0115966796875 423.2289123535156 C 360.2695617675781 410.4393615722656 359.28192138671875 438.24029541015625 307.04803466796875 389.24560546875 C 299.5234680175781 407.89544677734375 297.1721496582031 458.4036865234375 312.10589599609375 509.0792541503906 C 350.2142333984375 484.4311218261719 378.11614990234375 488.2868957519531 301.2365417480469 531.3728637695312 C 290.9712219238281 576.2535400390625 321.7059020996094 611.4357299804688 335.3618469238281 623.7698364257812" stroke-width="-33.7851676940918" fill="none" stroke="rgb(0, 0, 0)" stroke-opacity="1.0" stroke-linecap="round" stroke-linejoin="round"/>
    <path d="M 343.0115966796875 423.2289123535156 C 360.2695617675781 410.4393615722656 359.28192138671875 438.24029541015625 307.04803466796875 389.24560546875 C 299.5234680175781 407.89544677734375 297.1721496582031 458.4036865234375 312.10589599609375 509.0792541503906 C 350.2142333984375 484.4311218261719 378.11614990234375 488.2868957519531 301.2365417480469 531.3728637695312 C 290.9712219238281 576.2535400390625 321.7059020996094 611.4357299804688 335.3618469238281 623.7698364257812" stroke-width="-33.7851676940918" fill="none" stroke="rgb(0, 0, 0)" stroke-opacity="1.0" stroke-linecap="round" stroke-linejoin="round"/>
    <path d="M 343.0115966796875 423.2289123535156 C 360.2695617675781 410.4393615722656 359.28192138671875 438.24029541015625 307.04803466796875 389.24560546875 C 299.5234680175781 407.89544677734375 297.1721496582031 458.4036865234375 312.10589599609375 509.0792541503906 C 350.2142333984375 484.4311218261719 378.11614990234375 488.2868957519531 301.2365417480469 531.3728637695312 C 290.9712219238281 576.2535400390625 321.7059020996094 611.4357299804688 335.3618469238281 623.7698364257812" stroke-width="-33.7851676940918" fill="none" stroke="rgb(0, 0, 0)" stroke-opacity="1.0" stroke-linecap="round" stroke-linejoin="round"/>
    <path d="M 343.0115966796875 423.2289123535156 C 360.2695617675781 410.4393615722656 359.28192138671875 438.24029541015625 307.04803466796875 389.24560546875 C 299.5234680175781 407.89544677734375 297.1721496582031 458.4036865234375 312.10589599609375 509.0792541503906 C 350.2142333984375 484.4311218261719 378.11614990234375 488.2868957519531 301.2365417480469 531.3728637695312 C 290.9712219238281 576.2535400390625 321.7059020996094 611.4357299804688 335.3618469238281 623.7698364257812" stroke-width="-33.7851676940918" fill="none" stroke="rgb(0, 0, 0)" stroke-opacity="1.0" stroke-linecap="round" stroke-linejoin="round"/>
    <path d="M 151.3759307861328 489.3196716308594 C 159.64126586914062 502.195068359375 164.3209228515625 473.5855712890625 158.78939819335938 519.8179931640625 C 210.2579345703125 519.6090698242188 254.79237365722656 523.4497680664062 143.8370819091797 519.9020385742188 C 149.6769561767578 504.8233337402344 195.7186279296875 560.9992065429688 214.86802673339844 529.1253662109375 C 180.69459533691406 525.7459106445312 226.20458984375 518.8914184570312 247.52658081054688 514.0835571289062" stroke-width="0.3051033616065979" fill="none" stroke="rgb(0, 0, 0)" stroke-opacity="0.88002807" stroke-linecap="round" stroke-linejoin="round"/>
    <path d="M 343.0115966796875 423.2289123535156 C 360.2695617675781 410.4393615722656 359.28192138671875 438.24029541015625 307.04803466796875 389.24560546875 C 299.5234680175781 407.89544677734375 297.1721496582031 458.4036865234375 312.10589599609375 509.0792541503906 C 350.2142333984375 484.4311218261719 378.11614990234375 488.2868957519531 301.2365417480469 531.3728637695312 C 290.9712219238281 576.2535400390625 321.7059020996094 611.4357299804688 335.3618469238281 623.7698364257812" stroke-width="-33.7851676940918" fill="none" stroke="rgb(0, 0, 0)" stroke-opacity="1.0" stroke-linecap="round" stroke-linejoin="round"/>
    <path d="M 343.0115966796875 423.2289123535156 C 360.2695617675781 410.4393615722656 359.28192138671875 438.24029541015625 307.04803466796875 389.24560546875 C 299.5234680175781 407.89544677734375 297.1721496582031 458.4036865234375 312.10589599609375 509.0792541503906 C 350.2142333984375 484.4311218261719 378.11614990234375 488.2868957519531 301.2365417480469 531.3728637695312 C 290.9712219238281 576.2535400390625 321.7059020996094 611.4357299804688 335.3618469238281 623.7698364257812" stroke-width="-33.7851676940918" fill="none" stroke="rgb(0, 0, 0)" stroke-opacity="1.0" stroke-linecap="round" stroke-linejoin="round"/>
    <path d="M 343.0115966796875 423.2289123535156 C 360.2695617675781 410.4393615722656 359.28192138671875 438.24029541015625 307.04803466796875 389.24560546875 C 299.5234680175781 407.89544677734375 297.1721496582031 458.4036865234375 312.10589599609375 509.0792541503906 C 350.2142333984375 484.4311218261719 378.11614990234375 488.2868957519531 301.2365417480469 531.3728637695312 C 290.9712219238281 576.2535400390625 321.7059020996094 611.4357299804688 335.3618469238281 623.7698364257812" stroke-width="-33.7851676940918" fill="none" stroke="rgb(0, 0, 0)" stroke-opacity="1.0" stroke-linecap="round" stroke-linejoin="round"/>
    <path d="M 343.0115966796875 423.2289123535156 C 360.2695617675781 410.4393615722656 359.28192138671875 438.24029541015625 307.04803466796875 389.24560546875 C 299.5234680175781 407.89544677734375 297.1721496582031 458.4036865234375 312.10589599609375 509.0792541503906 C 350.2142333984375 484.4311218261719 378.11614990234375 488.2868957519531 301.2365417480469 531.3728637695312 C 290.9712219238281 576.2535400390625 321.7059020996094 611.4357299804688 335.3618469238281 623.7698364257812" stroke-width="-33.7851676940918" fill="none" stroke="rgb(0, 0, 0)" stroke-opacity="1.0" stroke-linecap="round" stroke-linejoin="round"/>
    <path d="M 250.33648681640625 357.3154296875 C 236.39988708496094 343.38861083984375 270.8003845214844 353.2500915527344 242.8185577392578 371.34075927734375 C 224.919677734375 393.68829345703125 207.14602661132812 362.70989990234375 240.66018676757812 379.9530334472656 C 305.600341796875 368.1319885253906 295.1911315917969 345.46826171875 336.23712158203125 309.8032531738281 C 286.5470275878906 287.7744445800781 305.7723693847656 307.31365966796875 310.097412109375 306.5506591796875" stroke-width="-13.179001808166504" fill="none" stroke="rgb(0, 0, 0)" stroke-opacity="0.0" stroke-linecap="round" stroke-linejoin="round"/>
    <path d="M 343.0115966796875 423.2289123535156 C 360.2695617675781 410.4393615722656 359.28192138671875 438.24029541015625 307.04803466796875 389.24560546875 C 299.5234680175781 407.89544677734375 297.1721496582031 458.4036865234375 312.10589599609375 509.0792541503906 C 350.2142333984375 484.4311218261719 378.11614990234375 488.2868957519531 301.2365417480469 531.3728637695312 C 290.9712219238281 576.2535400390625 321.7059020996094 611.4357299804688 335.3618469238281 623.7698364257812" stroke-width="-33.7851676940918" fill="none" stroke="rgb(0, 0, 0)" stroke-opacity="1.0" stroke-linecap="round" stroke-linejoin="round"/>
    <path d="M 114.95755004882812 519.3688354492188 C 119.43768310546875 618.5462036132812 97.75849914550781 574.4049682617188 159.9510498046875 573.8485717773438 C 109.85784149169922 621.3963623046875 119.68407440185547 603.7940063476562 177.72947692871094 623.4752197265625 C 195.4148712158203 570.3194580078125 187.24691772460938 575.3709716796875 117.2323226928711 596.330810546875 C 162.5869140625 624.0912475585938 155.55616760253906 651.86279296875 164.58204650878906 664.560791015625" stroke-width="10.518054008483887" fill="none" stroke="rgb(0, 0, 0)" stroke-opacity="1.0" stroke-linecap="round" stroke-linejoin="round"/>
    <path d="M 474.6719055175781 529.7686767578125 C 465.86370849609375 501.6991271972656 480.1042175292969 464.1904296875 462.91668701171875 551.2982788085938 C 512.15673828125 556.0152587890625 426.1298828125 552.2904663085938 351.0653381347656 551.3107299804688 C 379.6371765136719 554.9710083007812 375.10906982421875 548.4607543945312 357.89459228515625 555.4182739257812 C 404.381591796875 545.7579345703125 348.638916015625 560.3379516601562 349.58282470703125 548.0897827148438" stroke-width="8.641827583312988" fill="none" stroke="rgb(0, 0, 0)" stroke-opacity="0.9905145" stroke-linecap="round" stroke-linejoin="round"/>
    <path d="M 343.0115966796875 423.2289123535156 C 360.2695617675781 410.4393615722656 359.28192138671875 438.24029541015625 307.04803466796875 389.24560546875 C 299.5234680175781 407.89544677734375 297.1721496582031 458.4036865234375 312.10589599609375 509.0792541503906 C 350.2142333984375 484.4311218261719 378.11614990234375 488.2868957519531 301.2365417480469 531.3728637695312 C 290.9712219238281 576.2535400390625 321.7059020996094 611.4357299804688 335.3618469238281 623.7698364257812" stroke-width="-33.7851676940918" fill="none" stroke="rgb(0, 0, 0)" stroke-opacity="1.0" stroke-linecap="round" stroke-linejoin="round"/>
    <path d="M 270.11187744140625 377.53350830078125 C 306.6212158203125 393.9333190917969 324.6824951171875 424.5641174316406 347.2388916015625 437.3473205566406 C 287.6880187988281 425.50653076171875 272.09014892578125 410.8900451660156 303.2037353515625 482.4332580566406 C 327.86383056640625 496.5271301269531 314.9076843261719 449.8074645996094 316.60211181640625 437.367919921875 C 261.6117858886719 406.5765686035156 276.9566955566406 390.04779052734375 308.5799865722656 342.9504699707031" stroke-width="12.28425121307373" fill="none" stroke="rgb(0, 0, 0)" stroke-opacity="0.7028777" stroke-linecap="round" stroke-linejoin="round"/>
    <path d="M 343.0115966796875 423.2289123535156 C 360.2695617675781 410.4393615722656 359.28192138671875 438.24029541015625 307.04803466796875 389.24560546875 C 299.5234680175781 407.89544677734375 297.1721496582031 458.4036865234375 312.10589599609375 509.0792541503906 C 350.2142333984375 484.4311218261719 378.11614990234375 488.2868957519531 301.2365417480469 531.3728637695312 C 290.9712219238281 576.2535400390625 321.7059020996094 611.4357299804688 335.3618469238281 623.7698364257812" stroke-width="-33.7851676940918" fill="none" stroke="rgb(0, 0, 0)" stroke-opacity="1.0" stroke-linecap="round" stroke-linejoin="round"/>
    <path d="M 612.2330322265625 240.24916076660156 C 608.5825805664062 227.4573516845703 612.9719848632812 202.35227966308594 638.046630859375 173.95068359375 C 648.01513671875 183.966064453125 656.619140625 209.3868408203125 638.3740234375 195.0908203125 C 629.1370849609375 176.8610382080078 605.114013671875 154.48587036132812 608.9016723632812 144.3389129638672 C 624.8653564453125 127.24260711669922 598.3794555664062 104.96720886230469 622.4483642578125 81.27579498291016" stroke-width="6.80719518661499" fill="none" stroke="rgb(0, 0, 0)" stroke-opacity="0.48357466" stroke-linecap="round" stroke-linejoin="round"/>
    <path d="M 343.0115966796875 423.2289123535156 C 360.2695617675781 410.4393615722656 359.28192138671875 438.24029541015625 307.04803466796875 389.24560546875 C 299.5234680175781 407.89544677734375 297.1721496582031 458.4036865234375 312.10589599609375 509.0792541503906 C 350.2142333984375 484.4311218261719 378.11614990234375 488.2868957519531 301.2365417480469 531.3728637695312 C 290.9712219238281 576.2535400390625 321.7059020996094 611.4357299804688 335.3618469238281 623.7698364257812" stroke-width="-33.7851676940918" fill="none" stroke="rgb(0, 0, 0)" stroke-opacity="1.0" stroke-linecap="round" stroke-linejoin="round"/>
    <path d="M 343.0115966796875 423.2289123535156 C 360.2695617675781 410.4393615722656 359.28192138671875 438.24029541015625 307.04803466796875 389.24560546875 C 299.5234680175781 407.89544677734375 297.1721496582031 458.4036865234375 312.10589599609375 509.0792541503906 C 350.2142333984375 484.4311218261719 378.11614990234375 488.2868957519531 301.2365417480469 531.3728637695312 C 290.9712219238281 576.2535400390625 321.7059020996094 611.4357299804688 335.3618469238281 623.7698364257812" stroke-width="-33.7851676940918" fill="none" stroke="rgb(0, 0, 0)" stroke-opacity="1.0" stroke-linecap="round" stroke-linejoin="round"/>
    <path d="M 232.2083740234375 519.5697021484375 C 171.68064880371094 533.3110961914062 152.65049743652344 506.55279541015625 190.82363891601562 556.4772338867188 C 260.5557861328125 576.077392578125 235.55296325683594 555.6778564453125 241.2856903076172 535.1259155273438 C 198.0790557861328 525.2222900390625 170.32595825195312 517.011474609375 187.13294982910156 524.7880859375 C 139.7305450439453 529.0242919921875 131.20191955566406 480.89794921875 138.41128540039062 458.54248046875" stroke-width="8.255170822143555" fill="none" stroke="rgb(0, 0, 0)" stroke-opacity="1.0" stroke-linecap="round" stroke-linejoin="round"/>
    <path d="M 343.0115966796875 423.2289123535156 C 360.2695617675781 410.4393615722656 359.28192138671875 438.24029541015625 307.04803466796875 389.24560546875 C 299.5234680175781 407.89544677734375 297.1721496582031 458.4036865234375 312.10589599609375 509.0792541503906 C 350.2142333984375 484.4311218261719 378.11614990234375 488.2868957519531 301.2365417480469 531.3728637695312 C 290.9712219238281 576.2535400390625 321.7059020996094 611.4357299804688 335.3618469238281 623.7698364257812" stroke-width="-33.7851676940918" fill="none" stroke="rgb(0, 0, 0)" stroke-opacity="1.0" stroke-linecap="round" stroke-linejoin="round"/>
    <path d="M -13.004055976867676 523.0930786132812 C 2.9190218448638916 517.2848510742188 66.71050262451172 513.5989379882812 -16.207408905029297 551.3231811523438 C -3.1409389972686768 580.783447265625 48.561500549316406 554.1066284179688 43.893524169921875 518.1376953125 C 16.667011260986328 463.7562561035156 53.1181755065918 501.7823181152344 67.01878356933594 553.9380493164062 C 15.847492218017578 556.6840209960938 75.97991943359375 497.8327331542969 19.726581573486328 515.7376098632812" stroke-width="22.922964096069336" fill="none" stroke="rgb(0, 0, 0)" stroke-opacity="0.9737201" stroke-linecap="round" stroke-linejoin="round"/>
    <path d="M 573.3648681640625 537.42919921875 C 475.6874694824219 581.7273559570312 444.4593200683594 565.4212036132812 479.5578918457031 551.0985717773438 C 473.93511962890625 455.9217529296875 430.282470703125 484.1719055175781 442.6502990722656 552.4347534179688 C 479.9715576171875 572.9328002929688 478.6790771484375 605.6301879882812 472.9381103515625 636.9796752929688 C 458.63360595703125 568.644287109375 487.99285888671875 560.2889404296875 487.06268310546875 551.9463500976562" stroke-width="14.588126182556152" fill="none" stroke="rgb(0, 0, 0)" stroke-opacity="0.03001225" stroke-linecap="round" stroke-linejoin="round"/>
    <path d="M 343.0115966796875 423.2289123535156 C 360.2695617675781 410.4393615722656 359.28192138671875 438.24029541015625 307.04803466796875 389.24560546875 C 299.5234680175781 407.89544677734375 297.1721496582031 458.4036865234375 312.10589599609375 509.0792541503906 C 350.2142333984375 484.4311218261719 378.11614990234375 488.2868957519531 301.2365417480469 531.3728637695312 C 290.9712219238281 576.2535400390625 321.7059020996094 611.4357299804688 335.3618469238281 623.7698364257812" stroke-width="-33.7851676940918" fill="none" stroke="rgb(0, 0, 0)" stroke-opacity="1.0" stroke-linecap="round" stroke-linejoin="round"/>
    <path d="M 394.4617004394531 377.0015869140625 C 439.1885070800781 369.16607666015625 378.1956787109375 379.6986389160156 402.516845703125 357.7265625 C 486.4247131347656 380.29852294921875 422.1141662597656 391.0303649902344 392.8479919433594 371.20758056640625 C 412.5948486328125 345.7449951171875 379.9491271972656 342.3132019042969 371.4779052734375 346.6290283203125 C 382.6953430175781 299.2409973144531 372.2376403808594 288.43609619140625 268.2657470703125 395.538818359375" stroke-width="37.056312561035156" fill="none" stroke="rgb(0, 0, 0)" stroke-opacity="0.9827589" stroke-linecap="round" stroke-linejoin="round"/>
    <path d="M 76.32707214355469 611.3543701171875 C 83.96430206298828 618.0022583007812 81.9952163696289 643.0989379882812 86.66301727294922 651.1323852539062 C 97.41412353515625 627.4837036132812 127.1842269897461 625.4879150390625 148.44400024414062 636.2644653320312 C 123.70929718017578 632.4798583984375 94.93936920166016 648.50390625 105.44171142578125 664.08935546875 C 101.09461975097656 639.6630249023438 95.2448959350586 626.3065185546875 113.20691680908203 608.1832885742188" stroke-width="4.954873561859131" fill="none" stroke="rgb(0, 0, 0)" stroke-opacity="0.3198971" stroke-linecap="round" stroke-linejoin="round"/>
    <path d="M 260.9002685546875 102.59693145751953 C 183.31222534179688 105.72863006591797 214.71095275878906 104.8300552368164 223.4932098388672 78.72806549072266 C 221.4307098388672 36.672725677490234 230.51190185546875 44.65633773803711 220.9539337158203 65.34246826171875 C 220.0010528564453 35.934200286865234 235.9945831298828 46.00668716430664 267.4281005859375 44.79730987548828 C 214.07296752929688 81.31619262695312 201.4304962158203 56.79628372192383 200.20004272460938 72.5689926147461" stroke-width="21.40538787841797" fill="none" stroke="rgb(0, 0, 0)" stroke-opacity="0.0" stroke-linecap="round" stroke-linejoin="round"/>
    <path d="M 610.7496948242188 521.8467407226562 C 603.43115234375 519.4174194335938 628.429443359375 494.4365234375 633.8297729492188 483.5677795410156 C 647.9930419921875 461.900390625 619.0028076171875 462.5773620605469 623.0556640625 477.365478515625 C 641.2412719726562 466.2157897949219 607.1475219726562 489.49334716796875 609.4990234375 496.74432373046875 C 590.9266357421875 566.3402709960938 573.4412231445312 546.3623657226562 605.814697265625 531.0886840820312" stroke-width="9.732159614562988" fill="none" stroke="rgb(0, 0, 0)" stroke-opacity="0.46599972" stroke-linecap="round" stroke-linejoin="round"/>
    <path d="M 352.68060302734375 -10.005135536193848 C 350.6410217285156 -9.00202465057373 361.9951477050781 -19.66372299194336 367.5272521972656 -26.9149112701416 C 378.57958984375 -33.64727020263672 368.21484375 -5.139073371887207 340.953369140625 -26.822832107543945 C 369.6612854003906 -7.369754791259766 366.2518005371094 -16.860549926757812 341.39312744140625 -37.49775314331055 C 367.4397888183594 -54.47501754760742 391.3517761230469 -76.27285766601562 364.09613037109375 -51.48093032836914" stroke-width="6.113336086273193" fill="none" stroke="rgb(0, 0, 0)" stroke-opacity="0.52749777" stroke-linecap="round" stroke-linejoin="round"/>
    <path d="M 343.0115966796875 423.2289123535156 C 360.2695617675781 410.4393615722656 359.28192138671875 438.24029541015625 307.04803466796875 389.24560546875 C 299.5234680175781 407.89544677734375 297.1721496582031 458.4036865234375 312.10589599609375 509.0792541503906 C 350.2142333984375 484.4311218261719 378.11614990234375 488.2868957519531 301.2365417480469 531.3728637695312 C 290.9712219238281 576.2535400390625 321.7059020996094 611.4357299804688 335.3618469238281 623.7698364257812" stroke-width="-33.7851676940918" fill="none" stroke="rgb(0, 0, 0)" stroke-opacity="1.0" stroke-linecap="round" stroke-linejoin="round"/>
    <path d="M 343.0115966796875 423.2289123535156 C 360.2695617675781 410.4393615722656 359.28192138671875 438.24029541015625 307.04803466796875 389.24560546875 C 299.5234680175781 407.89544677734375 297.1721496582031 458.4036865234375 312.10589599609375 509.0792541503906 C 350.2142333984375 484.4311218261719 378.11614990234375 488.2868957519531 301.2365417480469 531.3728637695312 C 290.9712219238281 576.2535400390625 321.7059020996094 611.4357299804688 335.3618469238281 623.7698364257812" stroke-width="-33.7851676940918" fill="none" stroke="rgb(0, 0, 0)" stroke-opacity="1.0" stroke-linecap="round" stroke-linejoin="round"/>
    <path d="M 555.3661499023438 348.3542175292969 C 611.7532348632812 312.9759826660156 655.1270141601562 333.6125793457031 675.6077880859375 353.9013366699219 C 616.956298828125 442.6734313964844 621.1447143554688 457.2433776855469 642.9465942382812 456.6565246582031 C 647.5850219726562 475.2276306152344 606.6808471679688 471.1663513183594 614.9118041992188 481.0928649902344 C 629.4319458007812 457.3182067871094 646.4556274414062 457.3341979980469 627.956298828125 450.0563659667969" stroke-width="12.521597862243652" fill="none" stroke="rgb(0, 0, 0)" stroke-opacity="0.019083072" stroke-linecap="round" stroke-linejoin="round"/>
    <path d="M 475.99676513671875 360.93792724609375 C 427.2556457519531 371.70849609375 460.4294738769531 393.1526184082031 495.61468505859375 353.35565185546875 C 535.446044921875 359.1796569824219 580.0010375976562 390.0079040527344 546.6026000976562 358.99462890625 C 568.722900390625 328.2662353515625 599.3200073242188 319.12994384765625 582.6686401367188 326.9892578125 C 560.52099609375 369.5127258300781 571.947021484375 323.2912902832031 572.7261352539062 326.82598876953125" stroke-width="10.043432235717773" fill="none" stroke="rgb(0, 0, 0)" stroke-opacity="0.9975333" stroke-linecap="round" stroke-linejoin="round"/>
    <path d="M 293.318115234375 407.4826965332031 C 352.14605712890625 406.5624694824219 386.3774719238281 440.3173828125 363.60137939453125 438.483642578125 C 306.5348815917969 406.9895324707031 267.360107421875 390.2677307128906 309.9554138183594 354.64031982421875 C 335.5023498535156 371.6368408203125 288.35760498046875 412.05145263671875 299.7045593261719 455.106201171875 C 274.21942138671875 463.9272766113281 195.9754638671875 461.9543151855469 210.67430114746094 460.5512390136719" stroke-width="13.51176643371582" fill="none" stroke="rgb(0, 0, 0)" stroke-opacity="0.93148446" stroke-linecap="round" stroke-linejoin="round"/>
    <path d="M 462.3329162597656 503.5722961425781 C 427.09185791015625 483.3016662597656 407.5688781738281 511.57696533203125 451.31683349609375 495.5755310058594 C 461.55694580078125 493.32891845703125 443.31768798828125 487.7312316894531 388.4596862792969 488.49810791015625 C 427.87579345703125 496.3914489746094 471.4211730957031 489.872314453125 409.56231689453125 507.77496337890625 C 399.70684814453125 491.00860595703125 382.45916748046875 479.2505798339844 400.801513671875 489.36944580078125" stroke-width="5.267362117767334" fill="none" stroke="rgb(0, 0, 0)" stroke-opacity="0.88795096" stroke-linecap="round" stroke-linejoin="round"/>
    <path d="M 507.4574890136719 425.15936279296875 C 519.0064697265625 469.663330078125 426.41851806640625 461.8927307128906 382.11810302734375 420.730712890625 C 389.21929931640625 410.1986999511719 361.4437561035156 434.11370849609375 390.6405334472656 404.7999572753906 C 490.09185791015625 427.40667724609375 485.3767395019531 453.1394958496094 526.5924072265625 382.1582946777344 C 549.2357177734375 401.3927917480469 582.7625122070312 444.4139709472656 511.3728332519531 505.14898681640625" stroke-width="-7.023129463195801" fill="none" stroke="rgb(0, 0, 0)" stroke-opacity="0.051999953" stroke-linecap="round" stroke-linejoin="round"/>
    <path d="M 343.0115966796875 423.2289123535156 C 360.2695617675781 410.4393615722656 359.28192138671875 438.24029541015625 307.04803466796875 389.24560546875 C 299.5234680175781 407.89544677734375 297.1721496582031 458.4036865234375 312.10589599609375 509.0792541503906 C 350.2142333984375 484.4311218261719 378.11614990234375 488.2868957519531 301.2365417480469 531.3728637695312 C 290.9712219238281 576.2535400390625 321.7059020996094 611.4357299804688 335.3618469238281 623.7698364257812" stroke-width="-33.7851676940918" fill="none" stroke="rgb(0, 0, 0)" stroke-opacity="1.0" stroke-linecap="round" stroke-linejoin="round"/>
    <path d="M 53.93315124511719 332.09942626953125 C 101.208984375 334.7356872558594 135.7029266357422 337.2724914550781 105.28954315185547 341.85101318359375 C 86.03445434570312 352.2929992675781 108.44988250732422 321.6790466308594 122.82286071777344 311.78277587890625 C 127.48594665527344 327.1341857910156 104.260009765625 325.9674377441406 97.73493194580078 346.46124267578125 C 124.5000228881836 295.6775817871094 156.2931671142578 323.5302429199219 79.98859405517578 329.58380126953125" stroke-width="5.859829425811768" fill="none" stroke="rgb(0, 0, 0)" stroke-opacity="1.0" stroke-linecap="round" stroke-linejoin="round"/>
    <path d="M 222.24761962890625 91.70930480957031 C 181.3932342529297 94.3493881225586 193.17166137695312 100.43251037597656 212.82920837402344 82.72584533691406 C 211.7401580810547 103.04537963867188 195.2122344970703 57.402854919433594 172.32371520996094 49.43052673339844 C 197.34226989746094 98.20442199707031 206.6934814453125 83.05410766601562 239.68759155273438 62.10471725463867 C 231.58200073242188 37.62699508666992 235.22177124023438 42.07889938354492 234.79238891601562 58.210365295410156" stroke-width="9.999847412109375" fill="none" stroke="rgb(0, 0, 0)" stroke-opacity="1.0" stroke-linecap="round" stroke-linejoin="round"/>
    <path d="M 343.0115966796875 423.2289123535156 C 360.2695617675781 410.4393615722656 359.28192138671875 438.24029541015625 307.04803466796875 389.24560546875 C 299.5234680175781 407.89544677734375 297.1721496582031 458.4036865234375 312.10589599609375 509.0792541503906 C 350.2142333984375 484.4311218261719 378.11614990234375 488.2868957519531 301.2365417480469 531.3728637695312 C 290.9712219238281 576.2535400390625 321.7059020996094 611.4357299804688 335.3618469238281 623.7698364257812" stroke-width="-33.7851676940918" fill="none" stroke="rgb(0, 0, 0)" stroke-opacity="1.0" stroke-linecap="round" stroke-linejoin="round"/>
    <path d="M 258.8952941894531 549.104736328125 C 282.7051696777344 499.76910400390625 309.6873474121094 489.1374816894531 277.881591796875 472.9090576171875 C 294.4015197753906 546.8467407226562 300.06756591796875 540.1705932617188 285.6201477050781 540.2550048828125 C 263.2272033691406 552.7692260742188 270.6376953125 500.5254211425781 287.0281982421875 502.209716796875 C 311.76141357421875 477.4897155761719 344.8271484375 514.0231323242188 287.25067138671875 495.1242980957031" stroke-width="35.76465606689453" fill="none" stroke="rgb(0, 0, 0)" stroke-opacity="0.8231068" stroke-linecap="round" stroke-linejoin="round"/>
    <path d="M 343.0115966796875 423.2289123535156 C 360.2695617675781 410.4393615722656 359.28192138671875 438.24029541015625 307.04803466796875 389.24560546875 C 299.5234680175781 407.89544677734375 297.1721496582031 458.4036865234375 312.10589599609375 509.0792541503906 C 350.2142333984375 484.4311218261719 378.11614990234375 488.2868957519531 301.2365417480469 531.3728637695312 C 290.9712219238281 576.2535400390625 321.7059020996094 611.4357299804688 335.3618469238281 623.7698364257812" stroke-width="-33.7851676940918" fill="none" stroke="rgb(0, 0, 0)" stroke-opacity="1.0" stroke-linecap="round" stroke-linejoin="round"/>
    <path d="M 436.2204284667969 434.0609436035156 C 439.8585510253906 465.9789123535156 477.6168518066406 428.46636962890625 448.3218994140625 450.7528381347656 C 417.8543701171875 469.6252136230469 474.27752685546875 437.7556457519531 477.1905822753906 442.06011962890625 C 415.52215576171875 425.9382019042969 390.95391845703125 419.6253662109375 353.47283935546875 443.8400573730469 C 336.3009033203125 445.1468200683594 347.46551513671875 441.9370422363281 439.0375671386719 447.74285888671875" stroke-width="18.53545570373535" fill="none" stroke="rgb(0, 0, 0)" stroke-opacity="1.0" stroke-linecap="round" stroke-linejoin="round"/>
    <path d="M 207.66587829589844 599.6832885742188 C 151.745849609375 560.4845581054688 151.39434814453125 535.8120727539062 131.3700408935547 572.0286865234375 C 103.74301147460938 515.2058715820312 115.7332992553711 525.44775390625 100.48531341552734 591.6976318359375 C 234.34420776367188 606.977783203125 246.7115478515625 612.1194458007812 198.150146484375 623.082763671875 C 150.65682983398438 612.309326171875 158.02085876464844 632.822998046875 152.19219970703125 652.3635864257812" stroke-width="14.62695598602295" fill="none" stroke="rgb(0, 0, 0)" stroke-opacity="0.9434342" stroke-linecap="round" stroke-linejoin="round"/>
    <path d="M 457.078369140625 177.0050506591797 C 512.3333740234375 158.10406494140625 539.2064208984375 180.5199737548828 551.3551635742188 165.75518798828125 C 562.8265380859375 177.204833984375 555.248046875 145.299072265625 546.3553466796875 121.49952697753906 C 557.569091796875 116.98772430419922 563.0770874023438 125.97310638427734 559.1682739257812 171.5089569091797 C 555.83740234375 96.49703216552734 555.455810546875 94.2111587524414 550.341064453125 117.91078186035156" stroke-width="7.656327724456787" fill="none" stroke="rgb(0, 0, 0)" stroke-opacity="0.034602538" stroke-linecap="round" stroke-linejoin="round"/>
    <path d="M 143.89907836914062 469.8647155761719 C 139.17933654785156 492.78350830078125 165.4296112060547 519.358154296875 185.32809448242188 529.5098876953125 C 156.66943359375 514.71875 140.95497131347656 505.9568176269531 143.7700653076172 516.478515625 C 96.01873016357422 511.2176818847656 122.60220336914062 504.1355285644531 147.4226837158203 482.051513671875 C 152.6740264892578 544.9313354492188 222.06361389160156 520.861083984375 274.97076416015625 495.9342346191406" stroke-width="4.137931823730469" fill="none" stroke="rgb(0, 0, 0)" stroke-opacity="1.0" stroke-linecap="round" stroke-linejoin="round"/>
    <path d="M 343.0115966796875 423.2289123535156 C 360.2695617675781 410.4393615722656 359.28192138671875 438.24029541015625 307.04803466796875 389.24560546875 C 299.5234680175781 407.89544677734375 297.1721496582031 458.4036865234375 312.10589599609375 509.0792541503906 C 350.2142333984375 484.4311218261719 378.11614990234375 488.2868957519531 301.2365417480469 531.3728637695312 C 290.9712219238281 576.2535400390625 321.7059020996094 611.4357299804688 335.3618469238281 623.7698364257812" stroke-width="-33.7851676940918" fill="none" stroke="rgb(0, 0, 0)" stroke-opacity="1.0" stroke-linecap="round" stroke-linejoin="round"/>
    <path d="M 343.0115966796875 423.2289123535156 C 360.2695617675781 410.4393615722656 359.28192138671875 438.24029541015625 307.04803466796875 389.24560546875 C 299.5234680175781 407.89544677734375 297.1721496582031 458.4036865234375 312.10589599609375 509.0792541503906 C 350.2142333984375 484.4311218261719 378.11614990234375 488.2868957519531 301.2365417480469 531.3728637695312 C 290.9712219238281 576.2535400390625 321.7059020996094 611.4357299804688 335.3618469238281 623.7698364257812" stroke-width="-33.7851676940918" fill="none" stroke="rgb(0, 0, 0)" stroke-opacity="1.0" stroke-linecap="round" stroke-linejoin="round"/>
    <path d="M 343.0115966796875 423.2289123535156 C 360.2695617675781 410.4393615722656 359.28192138671875 438.24029541015625 307.04803466796875 389.24560546875 C 299.5234680175781 407.89544677734375 297.1721496582031 458.4036865234375 312.10589599609375 509.0792541503906 C 350.2142333984375 484.4311218261719 378.11614990234375 488.2868957519531 301.2365417480469 531.3728637695312 C 290.9712219238281 576.2535400390625 321.7059020996094 611.4357299804688 335.3618469238281 623.7698364257812" stroke-width="-33.7851676940918" fill="none" stroke="rgb(0, 0, 0)" stroke-opacity="1.0" stroke-linecap="round" stroke-linejoin="round"/>
    <path d="M 343.0115966796875 423.2289123535156 C 360.2695617675781 410.4393615722656 359.28192138671875 438.24029541015625 307.04803466796875 389.24560546875 C 299.5234680175781 407.89544677734375 297.1721496582031 458.4036865234375 312.10589599609375 509.0792541503906 C 350.2142333984375 484.4311218261719 378.11614990234375 488.2868957519531 301.2365417480469 531.3728637695312 C 290.9712219238281 576.2535400390625 321.7059020996094 611.4357299804688 335.3618469238281 623.7698364257812" stroke-width="-33.7851676940918" fill="none" stroke="rgb(0, 0, 0)" stroke-opacity="1.0" stroke-linecap="round" stroke-linejoin="round"/>
    <path d="M 343.0115966796875 423.2289123535156 C 360.2695617675781 410.4393615722656 359.28192138671875 438.24029541015625 307.04803466796875 389.24560546875 C 299.5234680175781 407.89544677734375 297.1721496582031 458.4036865234375 312.10589599609375 509.0792541503906 C 350.2142333984375 484.4311218261719 378.11614990234375 488.2868957519531 301.2365417480469 531.3728637695312 C 290.9712219238281 576.2535400390625 321.7059020996094 611.4357299804688 335.3618469238281 623.7698364257812" stroke-width="-33.7851676940918" fill="none" stroke="rgb(0, 0, 0)" stroke-opacity="1.0" stroke-linecap="round" stroke-linejoin="round"/>
    <path d="M 343.0115966796875 423.2289123535156 C 360.2695617675781 410.4393615722656 359.28192138671875 438.24029541015625 307.04803466796875 389.24560546875 C 299.5234680175781 407.89544677734375 297.1721496582031 458.4036865234375 312.10589599609375 509.0792541503906 C 350.2142333984375 484.4311218261719 378.11614990234375 488.2868957519531 301.2365417480469 531.3728637695312 C 290.9712219238281 576.2535400390625 321.7059020996094 611.4357299804688 335.3618469238281 623.7698364257812" stroke-width="-33.7851676940918" fill="none" stroke="rgb(0, 0, 0)" stroke-opacity="1.0" stroke-linecap="round" stroke-linejoin="round"/>
    <path d="M 52.916141510009766 351.5772705078125 C 17.933347702026367 402.44207763671875 41.57682418823242 394.67462158203125 -23.842330932617188 388.65582275390625 C -15.349411964416504 351.1644592285156 -42.62289047241211 326.0682678222656 -27.42780303955078 305.4630432128906 C -32.63261032104492 305.88812255859375 -43.15728759765625 282.9639587402344 -64.45215606689453 299.485595703125 C -55.387298583984375 306.1491394042969 -39.562171936035156 326.5909118652344 -34.95169448852539 334.1595153808594" stroke-width="-5.371220111846924" fill="none" stroke="rgb(0, 0, 0)" stroke-opacity="0.0" stroke-linecap="round" stroke-linejoin="round"/>
    <path d="M 343.0115966796875 423.2289123535156 C 360.2695617675781 410.4393615722656 359.28192138671875 438.24029541015625 307.04803466796875 389.24560546875 C 299.5234680175781 407.89544677734375 297.1721496582031 458.4036865234375 312.10589599609375 509.0792541503906 C 350.2142333984375 484.4311218261719 378.11614990234375 488.2868957519531 301.2365417480469 531.3728637695312 C 290.9712219238281 576.2535400390625 321.7059020996094 611.4357299804688 335.3618469238281 623.7698364257812" stroke-width="-33.7851676940918" fill="none" stroke="rgb(0, 0, 0)" stroke-opacity="1.0" stroke-linecap="round" stroke-linejoin="round"/>
    <path d="M 343.0115966796875 423.2289123535156 C 360.2695617675781 410.4393615722656 359.28192138671875 438.24029541015625 307.04803466796875 389.24560546875 C 299.5234680175781 407.89544677734375 297.1721496582031 458.4036865234375 312.10589599609375 509.0792541503906 C 350.2142333984375 484.4311218261719 378.11614990234375 488.2868957519531 301.2365417480469 531.3728637695312 C 290.9712219238281 576.2535400390625 321.7059020996094 611.4357299804688 335.3618469238281 623.7698364257812" stroke-width="-33.7851676940918" fill="none" stroke="rgb(0, 0, 0)" stroke-opacity="1.0" stroke-linecap="round" stroke-linejoin="round"/>
    <path d="M 343.0115966796875 423.2289123535156 C 360.2695617675781 410.4393615722656 359.28192138671875 438.24029541015625 307.04803466796875 389.24560546875 C 299.5234680175781 407.89544677734375 297.1721496582031 458.4036865234375 312.10589599609375 509.0792541503906 C 350.2142333984375 484.4311218261719 378.11614990234375 488.2868957519531 301.2365417480469 531.3728637695312 C 290.9712219238281 576.2535400390625 321.7059020996094 611.4357299804688 335.3618469238281 623.7698364257812" stroke-width="-33.7851676940918" fill="none" stroke="rgb(0, 0, 0)" stroke-opacity="1.0" stroke-linecap="round" stroke-linejoin="round"/>
    <path d="M 428.3846130371094 438.097412109375 C 332.0882568359375 408.6314392089844 258.4143981933594 436.1785888671875 361.57696533203125 438.2176513671875 C 335.92120361328125 429.00701904296875 296.173583984375 423.6728515625 336.2615051269531 426.1154479980469 C 313.2159729003906 419.02294921875 325.3391418457031 417.3902587890625 308.3033447265625 380.5275573730469 C 299.9809265136719 347.3428955078125 278.0706787109375 362.8675231933594 374.66802978515625 376.8083190917969" stroke-width="29.533418655395508" fill="none" stroke="rgb(0, 0, 0)" stroke-opacity="0.99920607" stroke-linecap="round" stroke-linejoin="round"/>
    <path d="M 317.3304138183594 365.2396545410156 C 323.914306640625 414.1529846191406 308.6622009277344 421.8954162597656 233.71035766601562 461.8044738769531 C 284.8159484863281 487.1751403808594 278.1940612792969 442.4811706542969 302.91827392578125 426.5485534667969 C 312.9446716308594 498.2686767578125 293.7631530761719 542.7886962890625 310.2403564453125 487.7922058105469 C 307.0773010253906 423.5611267089844 269.1105041503906 428.2917175292969 307.4756164550781 419.8053894042969" stroke-width="19.660030364990234" fill="none" stroke="rgb(0, 0, 0)" stroke-opacity="0.9503238" stroke-linecap="round" stroke-linejoin="round"/>
    <path d="M 343.0115966796875 423.2289123535156 C 360.2695617675781 410.4393615722656 359.28192138671875 438.24029541015625 307.04803466796875 389.24560546875 C 299.5234680175781 407.89544677734375 297.1721496582031 458.4036865234375 312.10589599609375 509.0792541503906 C 350.2142333984375 484.4311218261719 378.11614990234375 488.2868957519531 301.2365417480469 531.3728637695312 C 290.9712219238281 576.2535400390625 321.7059020996094 611.4357299804688 335.3618469238281 623.7698364257812" stroke-width="-33.7851676940918" fill="none" stroke="rgb(0, 0, 0)" stroke-opacity="1.0" stroke-linecap="round" stroke-linejoin="round"/>
    <path d="M 565.4676513671875 153.46229553222656 C 587.8705444335938 175.10177612304688 617.4185791015625 149.95736694335938 636.360107421875 172.06373596191406 C 589.4241333007812 161.0095977783203 568.429931640625 160.61375427246094 564.2189331054688 161.22824096679688 C 607.5750122070312 161.98704528808594 632.3550415039062 191.08151245117188 650.5173950195312 181.96633911132812 C 610.615966796875 165.18971252441406 600.0270385742188 147.18753051757812 617.8243408203125 119.41203308105469" stroke-width="-3.476011037826538" fill="none" stroke="rgb(0, 0, 0)" stroke-opacity="0.055166893" stroke-linecap="round" stroke-linejoin="round"/>
    <path d="M 396.3186950683594 551.5661010742188 C 360.8839416503906 525.3385620117188 375.32550048828125 550.8678588867188 353.0796813964844 544.7098388671875 C 346.6505126953125 514.7468872070312 346.0377197265625 566.1231689453125 380.4007873535156 600.286376953125 C 424.78729248046875 617.908935546875 373.4760437011719 603.1986694335938 357.06787109375 598.1672973632812 C 411.5533752441406 608.5498046875 384.9795837402344 596.06396484375 376.3912048339844 540.3912963867188" stroke-width="-5.397058010101318" fill="none" stroke="rgb(0, 0, 0)" stroke-opacity="0.020155901" stroke-linecap="round" stroke-linejoin="round"/>
    <path d="M 343.0115966796875 423.2289123535156 C 360.2695617675781 410.4393615722656 359.28192138671875 438.24029541015625 307.04803466796875 389.24560546875 C 299.5234680175781 407.89544677734375 297.1721496582031 458.4036865234375 312.10589599609375 509.0792541503906 C 350.2142333984375 484.4311218261719 378.11614990234375 488.2868957519531 301.2365417480469 531.3728637695312 C 290.9712219238281 576.2535400390625 321.7059020996094 611.4357299804688 335.3618469238281 623.7698364257812" stroke-width="-33.7851676940918" fill="none" stroke="rgb(0, 0, 0)" stroke-opacity="1.0" stroke-linecap="round" stroke-linejoin="round"/>
    <path d="M 343.0115966796875 423.2289123535156 C 360.2695617675781 410.4393615722656 359.28192138671875 438.24029541015625 307.04803466796875 389.24560546875 C 299.5234680175781 407.89544677734375 297.1721496582031 458.4036865234375 312.10589599609375 509.0792541503906 C 350.2142333984375 484.4311218261719 378.11614990234375 488.2868957519531 301.2365417480469 531.3728637695312 C 290.9712219238281 576.2535400390625 321.7059020996094 611.4357299804688 335.3618469238281 623.7698364257812" stroke-width="-33.7851676940918" fill="none" stroke="rgb(0, 0, 0)" stroke-opacity="1.0" stroke-linecap="round" stroke-linejoin="round"/>
    <path d="M 343.0115966796875 423.2289123535156 C 360.2695617675781 410.4393615722656 359.28192138671875 438.24029541015625 307.04803466796875 389.24560546875 C 299.5234680175781 407.89544677734375 297.1721496582031 458.4036865234375 312.10589599609375 509.0792541503906 C 350.2142333984375 484.4311218261719 378.11614990234375 488.2868957519531 301.2365417480469 531.3728637695312 C 290.9712219238281 576.2535400390625 321.7059020996094 611.4357299804688 335.3618469238281 623.7698364257812" stroke-width="-33.7851676940918" fill="none" stroke="rgb(0, 0, 0)" stroke-opacity="1.0" stroke-linecap="round" stroke-linejoin="round"/>
    <path d="M 343.0115966796875 423.2289123535156 C 360.2695617675781 410.4393615722656 359.28192138671875 438.24029541015625 307.04803466796875 389.24560546875 C 299.5234680175781 407.89544677734375 297.1721496582031 458.4036865234375 312.10589599609375 509.0792541503906 C 350.2142333984375 484.4311218261719 378.11614990234375 488.2868957519531 301.2365417480469 531.3728637695312 C 290.9712219238281 576.2535400390625 321.7059020996094 611.4357299804688 335.3618469238281 623.7698364257812" stroke-width="-33.7851676940918" fill="none" stroke="rgb(0, 0, 0)" stroke-opacity="1.0" stroke-linecap="round" stroke-linejoin="round"/>
    <path d="M 48.57981491088867 284.834716796875 C 40.56435775756836 316.2631530761719 68.8676528930664 278.12017822265625 71.60334777832031 280.2649841308594 C 13.893189430236816 278.1641845703125 41.358821868896484 304.51373291015625 83.14790344238281 295.72418212890625 C 129.21054077148438 303.73040771484375 99.38745880126953 315.3225402832031 66.93388366699219 334.490234375 C 43.51643753051758 311.17034912109375 28.655244827270508 287.783203125 56.280357360839844 300.83203125" stroke-width="22.014549255371094" fill="none" stroke="rgb(0, 0, 0)" stroke-opacity="0.0056454334" stroke-linecap="round" stroke-linejoin="round"/>
    <path d="M 343.0115966796875 423.2289123535156 C 360.2695617675781 410.4393615722656 359.28192138671875 438.24029541015625 307.04803466796875 389.24560546875 C 299.5234680175781 407.89544677734375 297.1721496582031 458.4036865234375 312.10589599609375 509.0792541503906 C 350.2142333984375 484.4311218261719 378.11614990234375 488.2868957519531 301.2365417480469 531.3728637695312 C 290.9712219238281 576.2535400390625 321.7059020996094 611.4357299804688 335.3618469238281 623.7698364257812" stroke-width="-33.7851676940918" fill="none" stroke="rgb(0, 0, 0)" stroke-opacity="1.0" stroke-linecap="round" stroke-linejoin="round"/>
    <path d="M 343.0115966796875 423.2289123535156 C 360.2695617675781 410.4393615722656 359.28192138671875 438.24029541015625 307.04803466796875 389.24560546875 C 299.5234680175781 407.89544677734375 297.1721496582031 458.4036865234375 312.10589599609375 509.0792541503906 C 350.2142333984375 484.4311218261719 378.11614990234375 488.2868957519531 301.2365417480469 531.3728637695312 C 290.9712219238281 576.2535400390625 321.7059020996094 611.4357299804688 335.3618469238281 623.7698364257812" stroke-width="-33.7851676940918" fill="none" stroke="rgb(0, 0, 0)" stroke-opacity="1.0" stroke-linecap="round" stroke-linejoin="round"/>
    <path d="M 343.0115966796875 423.2289123535156 C 360.2695617675781 410.4393615722656 359.28192138671875 438.24029541015625 307.04803466796875 389.24560546875 C 299.5234680175781 407.89544677734375 297.1721496582031 458.4036865234375 312.10589599609375 509.0792541503906 C 350.2142333984375 484.4311218261719 378.11614990234375 488.2868957519531 301.2365417480469 531.3728637695312 C 290.9712219238281 576.2535400390625 321.7059020996094 611.4357299804688 335.3618469238281 623.7698364257812" stroke-width="-33.7851676940918" fill="none" stroke="rgb(0, 0, 0)" stroke-opacity="1.0" stroke-linecap="round" stroke-linejoin="round"/>
    <path d="M 343.0115966796875 423.2289123535156 C 360.2695617675781 410.4393615722656 359.28192138671875 438.24029541015625 307.04803466796875 389.24560546875 C 299.5234680175781 407.89544677734375 297.1721496582031 458.4036865234375 312.10589599609375 509.0792541503906 C 350.2142333984375 484.4311218261719 378.11614990234375 488.2868957519531 301.2365417480469 531.3728637695312 C 290.9712219238281 576.2535400390625 321.7059020996094 611.4357299804688 335.3618469238281 623.7698364257812" stroke-width="-33.7851676940918" fill="none" stroke="rgb(0, 0, 0)" stroke-opacity="1.0" stroke-linecap="round" stroke-linejoin="round"/>
    <path d="M 183.94239807128906 628.1160278320312 C 179.7957000732422 600.1661987304688 194.45474243164062 569.3607788085938 191.84889221191406 600.9627685546875 C 127.84326171875 595.5472412109375 138.8797607421875 578.1365966796875 202.36050415039062 600.852783203125 C 195.7615509033203 609.1602783203125 248.35574340820312 606.5971069335938 269.9830627441406 610.7335205078125 C 226.12954711914062 638.9453125 199.12461853027344 645.6094970703125 185.8860321044922 674.1658935546875" stroke-width="9.759479522705078" fill="none" stroke="rgb(0, 0, 0)" stroke-opacity="0.68522507" stroke-linecap="round" stroke-linejoin="round"/>
    <path d="M 317.63690185546875 316.132568359375 C 339.3976745605469 313.2546081542969 337.4709777832031 302.2583312988281 334.0293273925781 295.0747375488281 C 316.93914794921875 315.31890869140625 308.4432067871094 308.1751403808594 321.0961608886719 334.3308410644531 C 276.7897644042969 371.6694030761719 244.55398559570312 394.845703125 232.65921020507812 390.9114990234375 C 284.3381042480469 419.3114929199219 306.3033142089844 400.8638610839844 291.2374572753906 369.2082214355469" stroke-width="13.220561981201172" fill="none" stroke="rgb(0, 0, 0)" stroke-opacity="1.0" stroke-linecap="round" stroke-linejoin="round"/>
    <path d="M 566.80615234375 297.63995361328125 C 569.1226196289062 330.2092590332031 556.448486328125 350.9203796386719 619.0123901367188 353.1824645996094 C 640.4782104492188 341.41119384765625 615.4644165039062 327.6846618652344 585.8598022460938 370.3455505371094 C 620.0548095703125 349.83453369140625 637.5455322265625 345.0832214355469 630.5552978515625 373.00091552734375 C 602.3314819335938 409.12298583984375 615.0426635742188 428.98193359375 631.767822265625 442.4324645996094" stroke-width="0.9186080694198608" fill="none" stroke="rgb(0, 0, 0)" stroke-opacity="0.0" stroke-linecap="round" stroke-linejoin="round"/>
    <path d="M 343.0115966796875 423.2289123535156 C 360.2695617675781 410.4393615722656 359.28192138671875 438.24029541015625 307.04803466796875 389.24560546875 C 299.5234680175781 407.89544677734375 297.1721496582031 458.4036865234375 312.10589599609375 509.0792541503906 C 350.2142333984375 484.4311218261719 378.11614990234375 488.2868957519531 301.2365417480469 531.3728637695312 C 290.9712219238281 576.2535400390625 321.7059020996094 611.4357299804688 335.3618469238281 623.7698364257812" stroke-width="-33.7851676940918" fill="none" stroke="rgb(0, 0, 0)" stroke-opacity="1.0" stroke-linecap="round" stroke-linejoin="round"/>
    <path d="M 343.0115966796875 423.2289123535156 C 360.2695617675781 410.4393615722656 359.28192138671875 438.24029541015625 307.04803466796875 389.24560546875 C 299.5234680175781 407.89544677734375 297.1721496582031 458.4036865234375 312.10589599609375 509.0792541503906 C 350.2142333984375 484.4311218261719 378.11614990234375 488.2868957519531 301.2365417480469 531.3728637695312 C 290.9712219238281 576.2535400390625 321.7059020996094 611.4357299804688 335.3618469238281 623.7698364257812" stroke-width="-33.7851676940918" fill="none" stroke="rgb(0, 0, 0)" stroke-opacity="1.0" stroke-linecap="round" stroke-linejoin="round"/>
    <path d="M 343.0115966796875 423.2289123535156 C 360.2695617675781 410.4393615722656 359.28192138671875 438.24029541015625 307.04803466796875 389.24560546875 C 299.5234680175781 407.89544677734375 297.1721496582031 458.4036865234375 312.10589599609375 509.0792541503906 C 350.2142333984375 484.4311218261719 378.11614990234375 488.2868957519531 301.2365417480469 531.3728637695312 C 290.9712219238281 576.2535400390625 321.7059020996094 611.4357299804688 335.3618469238281 623.7698364257812" stroke-width="-33.7851676940918" fill="none" stroke="rgb(0, 0, 0)" stroke-opacity="1.0" stroke-linecap="round" stroke-linejoin="round"/>
    <path d="M 343.0115966796875 423.2289123535156 C 360.2695617675781 410.4393615722656 359.28192138671875 438.24029541015625 307.04803466796875 389.24560546875 C 299.5234680175781 407.89544677734375 297.1721496582031 458.4036865234375 312.10589599609375 509.0792541503906 C 350.2142333984375 484.4311218261719 378.11614990234375 488.2868957519531 301.2365417480469 531.3728637695312 C 290.9712219238281 576.2535400390625 321.7059020996094 611.4357299804688 335.3618469238281 623.7698364257812" stroke-width="-33.7851676940918" fill="none" stroke="rgb(0, 0, 0)" stroke-opacity="1.0" stroke-linecap="round" stroke-linejoin="round"/>
    <path d="M 343.0115966796875 423.2289123535156 C 360.2695617675781 410.4393615722656 359.28192138671875 438.24029541015625 307.04803466796875 389.24560546875 C 299.5234680175781 407.89544677734375 297.1721496582031 458.4036865234375 312.10589599609375 509.0792541503906 C 350.2142333984375 484.4311218261719 378.11614990234375 488.2868957519531 301.2365417480469 531.3728637695312 C 290.9712219238281 576.2535400390625 321.7059020996094 611.4357299804688 335.3618469238281 623.7698364257812" stroke-width="-33.7851676940918" fill="none" stroke="rgb(0, 0, 0)" stroke-opacity="1.0" stroke-linecap="round" stroke-linejoin="round"/>
    <path d="M 343.0115966796875 423.2289123535156 C 360.2695617675781 410.4393615722656 359.28192138671875 438.24029541015625 307.04803466796875 389.24560546875 C 299.5234680175781 407.89544677734375 297.1721496582031 458.4036865234375 312.10589599609375 509.0792541503906 C 350.2142333984375 484.4311218261719 378.11614990234375 488.2868957519531 301.2365417480469 531.3728637695312 C 290.9712219238281 576.2535400390625 321.7059020996094 611.4357299804688 335.3618469238281 623.7698364257812" stroke-width="-33.7851676940918" fill="none" stroke="rgb(0, 0, 0)" stroke-opacity="1.0" stroke-linecap="round" stroke-linejoin="round"/>
    <path d="M 343.0115966796875 423.2289123535156 C 360.2695617675781 410.4393615722656 359.28192138671875 438.24029541015625 307.04803466796875 389.24560546875 C 299.5234680175781 407.89544677734375 297.1721496582031 458.4036865234375 312.10589599609375 509.0792541503906 C 350.2142333984375 484.4311218261719 378.11614990234375 488.2868957519531 301.2365417480469 531.3728637695312 C 290.9712219238281 576.2535400390625 321.7059020996094 611.4357299804688 335.3618469238281 623.7698364257812" stroke-width="-33.7851676940918" fill="none" stroke="rgb(0, 0, 0)" stroke-opacity="1.0" stroke-linecap="round" stroke-linejoin="round"/>
    <path d="M 343.0115966796875 423.2289123535156 C 360.2695617675781 410.4393615722656 359.28192138671875 438.24029541015625 307.04803466796875 389.24560546875 C 299.5234680175781 407.89544677734375 297.1721496582031 458.4036865234375 312.10589599609375 509.0792541503906 C 350.2142333984375 484.4311218261719 378.11614990234375 488.2868957519531 301.2365417480469 531.3728637695312 C 290.9712219238281 576.2535400390625 321.7059020996094 611.4357299804688 335.3618469238281 623.7698364257812" stroke-width="-33.7851676940918" fill="none" stroke="rgb(0, 0, 0)" stroke-opacity="0.39640233" stroke-linecap="round" stroke-linejoin="round"/>
  </g>
</svg>
