<?xml version="1.0" ?>
<svg xmlns="http://www.w3.org/2000/svg" version="1.1" width="224" height="224">
  <defs/>
  <g>
    <path d="M 20.952299118041992 143.95053100585938 C 18.787216186523438 144.46743774414062 23.09531593322754 143.49696350097656 21.075393676757812 143.4469757080078" stroke-width="3.0" fill="none" stroke="rgb(0, 0, 0)" stroke-opacity="1" stroke-linecap="round" stroke-linejoin="round"/>
    <path d="M 235.27642822265625 218.66244506835938 C 229.18653869628906 224.21376037597656 233.20907592773438 228.8305206298828 228.3155059814453 217.81463623046875" stroke-width="3.0" fill="none" stroke="rgb(0, 0, 0)" stroke-opacity="1" stroke-linecap="round" stroke-linejoin="round"/>
    <path d="M 6.903509140014648 122.09276580810547 C 27.129295349121094 46.604190826416016 15.105551719665527 37.43616485595703 8.108376502990723 124.63829040527344" stroke-width="3.0" fill="none" stroke="rgb(0, 0, 0)" stroke-opacity="1" stroke-linecap="round" stroke-linejoin="round"/>
    <path d="M 229.49221801757812 215.18458557128906 C 235.6074981689453 236.00379943847656 228.7631378173828 234.2627410888672 193.26632690429688 227.13836669921875" stroke-width="3.0" fill="none" stroke="rgb(0, 0, 0)" stroke-opacity="1" stroke-linecap="round" stroke-linejoin="round"/>
    <path d="M 178.39276123046875 154.03359985351562 C 186.49720764160156 197.74732971191406 186.1824493408203 180.61695861816406 178.64404296875 82.37572479248047" stroke-width="3.0" fill="none" stroke="rgb(0, 0, 0)" stroke-opacity="1" stroke-linecap="round" stroke-linejoin="round"/>
    <path d="M 230.98056030273438 180.6475067138672 C 208.17938232421875 177.20428466796875 200.6085968017578 177.17147827148438 232.5474395751953 176.1558074951172" stroke-width="3.0" fill="none" stroke="rgb(0, 0, 0)" stroke-opacity="1" stroke-linecap="round" stroke-linejoin="round"/>
    <path d="M 51.859275817871094 232.13534545898438 C 51.995845794677734 223.04867553710938 51.13239669799805 233.0893096923828 57.8111686706543 236.018310546875" stroke-width="3.0" fill="none" stroke="rgb(0, 0, 0)" stroke-opacity="1" stroke-linecap="round" stroke-linejoin="round"/>
    <path d="M 65.90278625488281 35.205238342285156 C 84.88106536865234 51.18772888183594 129.22500610351562 40.34337615966797 79.49396514892578 41.420989990234375" stroke-width="3.0" fill="none" stroke="rgb(0, 0, 0)" stroke-opacity="1" stroke-linecap="round" stroke-linejoin="round"/>
    <path d="M 161.9987030029297 153.1165008544922 C 197.25274658203125 169.3896942138672 158.04959106445312 136.51141357421875 165.4628143310547 165.59677124023438" stroke-width="3.0" fill="none" stroke="rgb(0, 0, 0)" stroke-opacity="1" stroke-linecap="round" stroke-linejoin="round"/>
    <path d="M 219.65176391601562 5.609514236450195 C 165.5048370361328 59.40452194213867 128.37559509277344 57.97878646850586 43.27123260498047 53.401126861572266" stroke-width="3.0" fill="none" stroke="rgb(0, 0, 0)" stroke-opacity="1" stroke-linecap="round" stroke-linejoin="round"/>
    <path d="M 10.590909957885742 98.3177490234375 C 15.90636920928955 100.53424835205078 8.850015640258789 97.39229583740234 -12.245790481567383 84.77700805664062" stroke-width="3.0" fill="none" stroke="rgb(0, 0, 0)" stroke-opacity="1" stroke-linecap="round" stroke-linejoin="round"/>
    <path d="M 184.55886840820312 3.4072036743164062 C 146.53631591796875 38.54244613647461 154.62271118164062 47.43862533569336 93.940673828125 44.345184326171875" stroke-width="3.0" fill="none" stroke="rgb(0, 0, 0)" stroke-opacity="1" stroke-linecap="round" stroke-linejoin="round"/>
    <path d="M 141.20095825195312 171.13905334472656 C 131.0980224609375 118.62010192871094 137.7587127685547 66.15120697021484 131.62403869628906 86.23109436035156" stroke-width="3.0" fill="none" stroke="rgb(0, 0, 0)" stroke-opacity="1" stroke-linecap="round" stroke-linejoin="round"/>
    <path d="M 217.26504516601562 177.72109985351562 C 205.24337768554688 174.71737670898438 197.12962341308594 171.59622192382812 215.5100555419922 176.15640258789062" stroke-width="3.0" fill="none" stroke="rgb(0, 0, 0)" stroke-opacity="1" stroke-linecap="round" stroke-linejoin="round"/>
    <path d="M 124.9479751586914 80.7782974243164 C 125.18115997314453 195.1021728515625 128.69964599609375 189.9395294189453 134.99281311035156 85.34449005126953" stroke-width="3.0" fill="none" stroke="rgb(0, 0, 0)" stroke-opacity="1" stroke-linecap="round" stroke-linejoin="round"/>
    <path d="M 12.572208404541016 144.62110900878906 C -10.050661087036133 132.3417205810547 23.804054260253906 190.11756896972656 27.52457618713379 155.95806884765625" stroke-width="3.0" fill="none" stroke="rgb(0, 0, 0)" stroke-opacity="1" stroke-linecap="round" stroke-linejoin="round"/>
    <path d="M -14.119112014770508 126.45265197753906 C -5.983587265014648 115.87364959716797 -12.676329612731934 108.12255096435547 -3.979471445083618 111.0288314819336" stroke-width="3.0" fill="none" stroke="rgb(0, 0, 0)" stroke-opacity="1" stroke-linecap="round" stroke-linejoin="round"/>
    <path d="M -20.47576904296875 168.9461669921875 C 37.78086471557617 166.9253692626953 53.53392791748047 166.04827880859375 -16.88985252380371 168.5771484375" stroke-width="3.0" fill="none" stroke="rgb(0, 0, 0)" stroke-opacity="1" stroke-linecap="round" stroke-linejoin="round"/>
    <path d="M 125.33387756347656 164.50291442871094 C 134.73348999023438 152.3421630859375 142.2076416015625 143.6057586669922 135.42620849609375 85.26761627197266" stroke-width="3.0" fill="none" stroke="rgb(0, 0, 0)" stroke-opacity="1" stroke-linecap="round" stroke-linejoin="round"/>
    <path d="M 160.66395568847656 41.79495620727539 C 226.6380615234375 2.2617111206054688 193.2028045654297 -4.1060285568237305 229.6554718017578 2.111452341079712" stroke-width="3.0" fill="none" stroke="rgb(0, 0, 0)" stroke-opacity="1" stroke-linecap="round" stroke-linejoin="round"/>
    <path d="M 30.58900260925293 146.83335876464844 C 33.921043395996094 147.50718688964844 14.741522789001465 146.91864013671875 50.48885726928711 147.68490600585938" stroke-width="3.0" fill="none" stroke="rgb(0, 0, 0)" stroke-opacity="1" stroke-linecap="round" stroke-linejoin="round"/>
    <path d="M 127.4234619140625 57.38743591308594 C 164.0625457763672 57.94839859008789 205.88827514648438 32.0806884765625 224.4024200439453 0.9202410578727722" stroke-width="3.0" fill="none" stroke="rgb(0, 0, 0)" stroke-opacity="1" stroke-linecap="round" stroke-linejoin="round"/>
    <path d="M 17.709964752197266 67.23001861572266 C -7.536900520324707 43.49930953979492 0.3471227288246155 94.4647216796875 -0.4793063998222351 73.63311767578125" stroke-width="3.0" fill="none" stroke="rgb(0, 0, 0)" stroke-opacity="1" stroke-linecap="round" stroke-linejoin="round"/>
    <path d="M 141.85679626464844 66.9638671875 C -27.941076278686523 57.9328498840332 47.21123123168945 73.82262420654297 -1.8707201480865479 20.789440155029297" stroke-width="3.0" fill="none" stroke="rgb(0, 0, 0)" stroke-opacity="1" stroke-linecap="round" stroke-linejoin="round"/>
    <path d="M 5.650407314300537 142.71946716308594 C 2.221400737762451 132.5157012939453 9.767484664916992 155.97604370117188 11.379233360290527 83.42059326171875" stroke-width="3.0" fill="none" stroke="rgb(0, 0, 0)" stroke-opacity="1" stroke-linecap="round" stroke-linejoin="round"/>
    <path d="M 198.19656372070312 -5.464537620544434 C 193.79769897460938 -17.42886734008789 194.66981506347656 15.333719253540039 140.78907775878906 37.294769287109375" stroke-width="3.0" fill="none" stroke="rgb(0, 0, 0)" stroke-opacity="1" stroke-linecap="round" stroke-linejoin="round"/>
    <path d="M 127.0772933959961 165.31021118164062 C 136.15541076660156 78.09524536132812 140.71896362304688 81.7581558227539 126.9600601196289 81.89935302734375" stroke-width="3.0" fill="none" stroke="rgb(0, 0, 0)" stroke-opacity="1" stroke-linecap="round" stroke-linejoin="round"/>
    <path d="M 164.026123046875 175.92059326171875 C 237.90455627441406 177.7445831298828 270.43719482421875 185.89108276367188 251.1664276123047 180.74769592285156" stroke-width="3.0" fill="none" stroke="rgb(0, 0, 0)" stroke-opacity="1" stroke-linecap="round" stroke-linejoin="round"/>
    <path d="M 1.7271952629089355 -0.8060711026191711 C 52.020450592041016 56.795692443847656 83.63062286376953 55.513668060302734 138.44264221191406 59.190093994140625" stroke-width="3.0" fill="none" stroke="rgb(0, 0, 0)" stroke-opacity="1" stroke-linecap="round" stroke-linejoin="round"/>
    <path d="M 228.7409210205078 221.87734985351562 C 229.73846435546875 230.23788452148438 216.83169555664062 225.52084350585938 213.29098510742188 231.4481964111328" stroke-width="3.0" fill="none" stroke="rgb(0, 0, 0)" stroke-opacity="1" stroke-linecap="round" stroke-linejoin="round"/>
    <path d="M 2.331040382385254 -10.8203125 C 23.01325035095215 -2.676917552947998 19.262094497680664 5.961610794067383 56.45856857299805 30.422927856445312" stroke-width="3.0" fill="none" stroke="rgb(0, 0, 0)" stroke-opacity="1" stroke-linecap="round" stroke-linejoin="round"/>
    <path d="M 206.23287963867188 169.64706420898438 C 192.0646209716797 14.571234703063965 187.5922393798828 93.97425842285156 217.29693603515625 56.72113800048828" stroke-width="3.0" fill="none" stroke="rgb(0, 0, 0)" stroke-opacity="1" stroke-linecap="round" stroke-linejoin="round"/>
    <path d="M 138.69703674316406 163.26351928710938 C 128.9376220703125 93.357177734375 125.36985778808594 126.61067199707031 133.4878387451172 163.26731872558594" stroke-width="3.0" fill="none" stroke="rgb(0, 0, 0)" stroke-opacity="1" stroke-linecap="round" stroke-linejoin="round"/>
    <path d="M 139.57363891601562 165.080810546875 C 116.23419952392578 164.07252502441406 95.58670806884766 173.60858154296875 189.34552001953125 171.84278869628906" stroke-width="3.0" fill="none" stroke="rgb(0, 0, 0)" stroke-opacity="1" stroke-linecap="round" stroke-linejoin="round"/>
    <path d="M 2.670973539352417 62.21382522583008 C 26.832782745361328 72.49498748779297 4.945550918579102 76.38008117675781 7.326653480529785 67.76630401611328" stroke-width="3.0" fill="none" stroke="rgb(0, 0, 0)" stroke-opacity="1" stroke-linecap="round" stroke-linejoin="round"/>
    <path d="M 41.237548828125 230.7305908203125 C 34.27201843261719 233.69187927246094 29.907773971557617 226.408447265625 20.46230697631836 227.2269287109375" stroke-width="3.0" fill="none" stroke="rgb(0, 0, 0)" stroke-opacity="1" stroke-linecap="round" stroke-linejoin="round"/>
    <path d="M 96.09896087646484 231.62677001953125 C 96.40548706054688 228.1951904296875 98.13304901123047 226.056640625 86.99971008300781 230.01438903808594" stroke-width="3.0" fill="none" stroke="rgb(0, 0, 0)" stroke-opacity="1" stroke-linecap="round" stroke-linejoin="round"/>
    <path d="M 34.08615493774414 165.42306518554688 C 42.28745651245117 174.52581787109375 20.260345458984375 157.67233276367188 7.333352565765381 166.6347198486328" stroke-width="3.0" fill="none" stroke="rgb(0, 0, 0)" stroke-opacity="1" stroke-linecap="round" stroke-linejoin="round"/>
    <path d="M 173.84437561035156 59.848384857177734 C 101.54036712646484 56.24638748168945 165.5207061767578 65.06004333496094 184.35281372070312 41.229698181152344" stroke-width="3.0" fill="none" stroke="rgb(0, 0, 0)" stroke-opacity="1" stroke-linecap="round" stroke-linejoin="round"/>
    <path d="M 130.56944274902344 85.11897277832031 C 135.9528045654297 67.56597137451172 126.2416763305664 156.9324188232422 123.75911712646484 166.15234375" stroke-width="3.0" fill="none" stroke="rgb(0, 0, 0)" stroke-opacity="1" stroke-linecap="round" stroke-linejoin="round"/>
    <path d="M 68.58915710449219 53.07661437988281 C 8.234833717346191 45.82157516479492 -3.569420337677002 58.89731979370117 65.47547912597656 52.92231369018555" stroke-width="3.0" fill="none" stroke="rgb(0, 0, 0)" stroke-opacity="1" stroke-linecap="round" stroke-linejoin="round"/>
    <path d="M 52.67400360107422 26.075868606567383 C 79.62641906738281 38.3328971862793 55.54531478881836 49.485931396484375 68.47393035888672 -8.207963943481445" stroke-width="3.0" fill="none" stroke="rgb(0, 0, 0)" stroke-opacity="1" stroke-linecap="round" stroke-linejoin="round"/>
    <path d="M 213.76365661621094 176.55177307128906 C 202.03968811035156 176.99267578125 202.68873596191406 174.91159057617188 247.1586151123047 180.75662231445312" stroke-width="3.0" fill="none" stroke="rgb(0, 0, 0)" stroke-opacity="1" stroke-linecap="round" stroke-linejoin="round"/>
    <path d="M 11.079890251159668 166.88531494140625 C -5.289145469665527 179.76519775390625 17.68988037109375 126.57017517089844 12.323041915893555 163.34271240234375" stroke-width="3.0" fill="none" stroke="rgb(0, 0, 0)" stroke-opacity="1" stroke-linecap="round" stroke-linejoin="round"/>
    <path d="M 128.66160583496094 86.25972747802734 C 139.13914489746094 77.15934753417969 140.16551208496094 72.82350158691406 131.3684844970703 162.90122985839844" stroke-width="3.0" fill="none" stroke="rgb(0, 0, 0)" stroke-opacity="1" stroke-linecap="round" stroke-linejoin="round"/>
    <path d="M 141.41883850097656 -12.422619819641113 C 137.09312438964844 -19.4467716217041 142.8805389404297 -0.32507237792015076 149.73023986816406 23.032325744628906" stroke-width="3.0" fill="none" stroke="rgb(0, 0, 0)" stroke-opacity="1" stroke-linecap="round" stroke-linejoin="round"/>
    <path d="M 150.64149475097656 31.10956382751465 C 147.1322479248047 3.3418328762054443 134.95172119140625 -7.3762311935424805 145.23399353027344 -13.489623069763184" stroke-width="3.0" fill="none" stroke="rgb(0, 0, 0)" stroke-opacity="1" stroke-linecap="round" stroke-linejoin="round"/>
    <path d="M 11.358803749084473 104.0081787109375 C 5.304587364196777 153.5979766845703 -3.676065683364868 158.77076721191406 10.93529224395752 97.3670883178711" stroke-width="3.0" fill="none" stroke="rgb(0, 0, 0)" stroke-opacity="1" stroke-linecap="round" stroke-linejoin="round"/>
    <path d="M -3.5337953567504883 56.579734802246094 C 24.714845657348633 88.74578857421875 31.47602653503418 67.56951141357422 -4.896745204925537 61.95241928100586" stroke-width="3.0" fill="none" stroke="rgb(0, 0, 0)" stroke-opacity="1" stroke-linecap="round" stroke-linejoin="round"/>
    <path d="M 5.9038848876953125 147.7168426513672 C 20.81662368774414 64.40460968017578 16.170673370361328 31.87981414794922 5.826199531555176 116.15410614013672" stroke-width="3.0" fill="none" stroke="rgb(0, 0, 0)" stroke-opacity="1" stroke-linecap="round" stroke-linejoin="round"/>
    <path d="M 135.04595947265625 82.59380340576172 C 144.59336853027344 194.49240112304688 133.50546264648438 189.63829040527344 128.46609497070312 85.26897430419922" stroke-width="3.0" fill="none" stroke="rgb(0, 0, 0)" stroke-opacity="1" stroke-linecap="round" stroke-linejoin="round"/>
    <path d="M 101.70216369628906 -11.562783241271973 C 108.83198547363281 -8.865979194641113 93.45038604736328 -11.66614055633545 93.16387176513672 -5.901460647583008" stroke-width="3.0" fill="none" stroke="rgb(0, 0, 0)" stroke-opacity="1" stroke-linecap="round" stroke-linejoin="round"/>
    <path d="M 21.335634231567383 4.37501859664917 C 35.375022888183594 29.752750396728516 61.121585845947266 35.55435562133789 87.1595687866211 38.89237976074219" stroke-width="3.0" fill="none" stroke="rgb(0, 0, 0)" stroke-opacity="1" stroke-linecap="round" stroke-linejoin="round"/>
    <path d="M 9.56380558013916 111.34900665283203 C -1.0427908897399902 158.6115264892578 18.12109375 151.49560546875 4.354485988616943 168.80502319335938" stroke-width="3.0" fill="none" stroke="rgb(0, 0, 0)" stroke-opacity="1" stroke-linecap="round" stroke-linejoin="round"/>
    <path d="M 73.74325561523438 73.4501724243164 C 75.65885162353516 92.5268783569336 37.773590087890625 76.39358520507812 70.67977905273438 80.37152862548828" stroke-width="3.0" fill="none" stroke="rgb(0, 0, 0)" stroke-opacity="1" stroke-linecap="round" stroke-linejoin="round"/>
    <path d="M 139.6865234375 74.48516845703125 C 134.4945068359375 107.15061950683594 131.63323974609375 118.66358184814453 130.40673828125 83.03729248046875" stroke-width="3.0" fill="none" stroke="rgb(0, 0, 0)" stroke-opacity="1" stroke-linecap="round" stroke-linejoin="round"/>
    <path d="M 8.061324119567871 123.38428497314453 C 0.5552878379821777 181.21595764160156 2.8033602237701416 137.262939453125 4.59877347946167 122.65906524658203" stroke-width="3.0" fill="none" stroke="rgb(0, 0, 0)" stroke-opacity="1" stroke-linecap="round" stroke-linejoin="round"/>
    <path d="M 9.094792366027832 99.30028533935547 C 10.395511627197266 103.2068099975586 12.41762924194336 95.15755462646484 11.38866138458252 100.81777954101562" stroke-width="3.0" fill="none" stroke="rgb(0, 0, 0)" stroke-opacity="1" stroke-linecap="round" stroke-linejoin="round"/>
    <path d="M 79.47539520263672 167.37692260742188 C 70.35554504394531 163.0989532470703 75.10993194580078 189.08428955078125 75.39666748046875 69.83088684082031" stroke-width="3.0" fill="none" stroke="rgb(0, 0, 0)" stroke-opacity="1" stroke-linecap="round" stroke-linejoin="round"/>
    <path d="M 150.349365234375 32.51337432861328 C 153.6430206298828 34.7708625793457 117.72418975830078 50.23003387451172 163.74404907226562 21.985755920410156" stroke-width="3.0" fill="none" stroke="rgb(0, 0, 0)" stroke-opacity="1" stroke-linecap="round" stroke-linejoin="round"/>
    <path d="M 129.05618286132812 82.18893432617188 C 124.78892517089844 173.6031036376953 115.8282470703125 220.31793212890625 127.55301666259766 81.7601318359375" stroke-width="3.0" fill="none" stroke="rgb(0, 0, 0)" stroke-opacity="1" stroke-linecap="round" stroke-linejoin="round"/>
    <path d="M 102.92884063720703 236.14886474609375 C 76.16642761230469 232.72763061523438 89.85613250732422 240.7938995361328 84.57241821289062 234.82669067382812" stroke-width="3.0" fill="none" stroke="rgb(0, 0, 0)" stroke-opacity="1" stroke-linecap="round" stroke-linejoin="round"/>
    <path d="M 83.52180480957031 41.838783264160156 C 49.14140319824219 38.2153434753418 29.01136016845703 13.626553535461426 78.8935546875 38.93732452392578" stroke-width="3.0" fill="none" stroke="rgb(0, 0, 0)" stroke-opacity="1" stroke-linecap="round" stroke-linejoin="round"/>
    <path d="M 65.90518951416016 166.15603637695312 C 60.0146598815918 175.143798828125 66.62359619140625 69.72024536132812 76.17625427246094 69.23518371582031" stroke-width="3.0" fill="none" stroke="rgb(0, 0, 0)" stroke-opacity="1" stroke-linecap="round" stroke-linejoin="round"/>
  </g>
</svg>
