<?xml version="1.0" ?>
<svg xmlns="http://www.w3.org/2000/svg" xmlns:ev="http://www.w3.org/2001/xml-events" xmlns:xlink="http://www.w3.org/1999/xlink" baseProfile="full" height="224" version="1.1" viewBox="0 0 224 224" width="224">
	<defs/>
	<path d="M 147.55996704101562,11.062520980834961 C 135.5572509765625,6.042253017425537 155.98365783691406,8.023465156555176 155.20498657226562,35.564247131347656" fill="none" stroke="rgb(0, 0, 0)" stroke-linecap="round" stroke-linejoin="round" stroke-opacity="1" stroke-width="3.0"/>
	<path d="M 99.82217407226562,93.51485443115234 C 93.11382293701172,101.43760681152344 87.86874389648438,90.82183837890625 70.22752380371094,104.91130828857422" fill="none" stroke="rgb(0, 0, 0)" stroke-linecap="round" stroke-linejoin="round" stroke-opacity="1" stroke-width="3.0"/>
	<path d="M 105.14903259277344,85.80570983886719 C 119.36660766601562,83.13372039794922 120.20121765136719,84.92250061035156 122.19776153564453,88.93751525878906" fill="none" stroke="rgb(0, 0, 0)" stroke-linecap="round" stroke-linejoin="round" stroke-opacity="1" stroke-width="3.0"/>
	<path d="M 115.22106170654297,43.6356315612793 C 97.40421295166016,42.4581184387207 138.25868225097656,15.993706703186035 124.46417999267578,49.90412902832031" fill="none" stroke="rgb(0, 0, 0)" stroke-linecap="round" stroke-linejoin="round" stroke-opacity="1" stroke-width="3.0"/>
	<path d="M 109.88416290283203,146.0769500732422 C 107.9357681274414,192.41384887695312 123.60456848144531,186.54722595214844 115.59477996826172,199.07080078125" fill="none" stroke="rgb(0, 0, 0)" stroke-linecap="round" stroke-linejoin="round" stroke-opacity="1" stroke-width="3.0"/>
	<path d="M 121.2154769897461,44.03408432006836 C 132.50701904296875,24.819406509399414 123.41670989990234,23.69727897644043 112.3968505859375,61.69279861450195" fill="none" stroke="rgb(0, 0, 0)" stroke-linecap="round" stroke-linejoin="round" stroke-opacity="1" stroke-width="3.0"/>
	<path d="M 98.09137725830078,99.47938537597656 C 64.73824310302734,111.62937927246094 81.21490478515625,111.2582015991211 97.09724426269531,102.79071044921875" fill="none" stroke="rgb(0, 0, 0)" stroke-linecap="round" stroke-linejoin="round" stroke-opacity="1" stroke-width="3.0"/>
	<path d="M 112.21367645263672,214.3259735107422 C 103.57514953613281,215.675537109375 116.29171752929688,217.3633575439453 112.3463363647461,186.4644317626953" fill="none" stroke="rgb(0, 0, 0)" stroke-linecap="round" stroke-linejoin="round" stroke-opacity="1" stroke-width="3.0"/>
	<path d="M 94.25553894042969,107.00883483886719 C 111.92810821533203,113.36846160888672 93.37905883789062,113.98594665527344 113.74474334716797,112.875" fill="none" stroke="rgb(0, 0, 0)" stroke-linecap="round" stroke-linejoin="round" stroke-opacity="1" stroke-width="3.0"/>
	<path d="M 126.9584732055664,110.11676025390625 C 113.84622955322266,108.6751480102539 126.21320343017578,123.11575317382812 117.84700012207031,107.35015869140625" fill="none" stroke="rgb(0, 0, 0)" stroke-linecap="round" stroke-linejoin="round" stroke-opacity="1" stroke-width="3.0"/>
	<path d="M 108.103515625,111.9596939086914 C 117.33982849121094,101.5207748413086 112.82301330566406,116.31993103027344 116.68177795410156,149.0477752685547" fill="none" stroke="rgb(0, 0, 0)" stroke-linecap="round" stroke-linejoin="round" stroke-opacity="1" stroke-width="3.0"/>
	<path d="M 104.63859558105469,126.41267395019531 C 112.64413452148438,103.12994384765625 95.78557586669922,106.69224548339844 101.12214660644531,123.53410339355469" fill="none" stroke="rgb(0, 0, 0)" stroke-linecap="round" stroke-linejoin="round" stroke-opacity="1" stroke-width="3.0"/>
	<path d="M 144.10279846191406,49.45818328857422 C 124.34186553955078,71.4734878540039 103.50180053710938,74.44790649414062 130.72366333007812,56.64803695678711" fill="none" stroke="rgb(0, 0, 0)" stroke-linecap="round" stroke-linejoin="round" stroke-opacity="1" stroke-width="3.0"/>
	<path d="M 115.09292602539062,56.75400161743164 C 121.31623077392578,47.832374572753906 152.1354522705078,56.05270767211914 114.29181671142578,48.83973693847656" fill="none" stroke="rgb(0, 0, 0)" stroke-linecap="round" stroke-linejoin="round" stroke-opacity="1" stroke-width="3.0"/>
	<path d="M 104.06993865966797,112.47282409667969 C 107.57527923583984,128.3572235107422 103.61302947998047,133.072509765625 113.691162109375,154.934326171875" fill="none" stroke="rgb(0, 0, 0)" stroke-linecap="round" stroke-linejoin="round" stroke-opacity="1" stroke-width="3.0"/>
	<path d="M 149.75042724609375,17.67140007019043 C 144.81675720214844,13.288691520690918 134.33677673339844,10.14890193939209 140.44671630859375,11.40453815460205" fill="none" stroke="rgb(0, 0, 0)" stroke-linecap="round" stroke-linejoin="round" stroke-opacity="1" stroke-width="3.0"/>
	<path d="M 103.92738342285156,85.78534698486328 C 105.9717788696289,81.64203643798828 101.54916381835938,82.35360717773438 99.62831115722656,83.13510131835938" fill="none" stroke="rgb(0, 0, 0)" stroke-linecap="round" stroke-linejoin="round" stroke-opacity="1" stroke-width="3.0"/>
	<path d="M 118.44739532470703,154.0713653564453 C 103.37106323242188,130.79705810546875 122.6403579711914,116.42259979248047 118.84770202636719,155.7588348388672" fill="none" stroke="rgb(0, 0, 0)" stroke-linecap="round" stroke-linejoin="round" stroke-opacity="1" stroke-width="3.0"/>
	<path d="M 104.34949493408203,123.00053405761719 C 99.83817291259766,102.96192169189453 90.11821746826172,110.26783752441406 60.68701934814453,106.22637939453125" fill="none" stroke="rgb(0, 0, 0)" stroke-linecap="round" stroke-linejoin="round" stroke-opacity="1" stroke-width="3.0"/>
	<path d="M 120.99545288085938,47.77297592163086 C 111.38512420654297,89.4109115600586 111.86804962158203,67.39008331298828 141.2210693359375,50.70029067993164" fill="none" stroke="rgb(0, 0, 0)" stroke-linecap="round" stroke-linejoin="round" stroke-opacity="1" stroke-width="3.0"/>
	<path d="M 101.15359497070312,116.50012969970703 C 110.9175796508789,167.94277954101562 112.2910385131836,160.8976287841797 108.43834686279297,110.3568344116211" fill="none" stroke="rgb(0, 0, 0)" stroke-linecap="round" stroke-linejoin="round" stroke-opacity="1" stroke-width="3.0"/>
	<path d="M 142.61183166503906,96.02249908447266 C 164.7746124267578,105.96212005615234 166.77947998046875,113.03855895996094 133.4877166748047,107.99403381347656" fill="none" stroke="rgb(0, 0, 0)" stroke-linecap="round" stroke-linejoin="round" stroke-opacity="1" stroke-width="3.0"/>
	<path d="M 103.5965576171875,81.2610855102539 C 123.04837799072266,94.16830444335938 109.46929168701172,86.31869506835938 108.73314666748047,54.32927703857422" fill="none" stroke="rgb(0, 0, 0)" stroke-linecap="round" stroke-linejoin="round" stroke-opacity="1" stroke-width="3.0"/>
	<path d="M 140.21885681152344,8.139862060546875 C 146.5489501953125,7.137019634246826 152.60818481445312,18.60834312438965 146.04551696777344,9.529643058776855" fill="none" stroke="rgb(0, 0, 0)" stroke-linecap="round" stroke-linejoin="round" stroke-opacity="1" stroke-width="3.0"/>
	<path d="M 121.76428985595703,76.52222442626953 C 106.97572326660156,90.73361206054688 108.42949676513672,87.65068817138672 120.89567565917969,79.46916961669922" fill="none" stroke="rgb(0, 0, 0)" stroke-linecap="round" stroke-linejoin="round" stroke-opacity="1" stroke-width="3.0"/>
	<path d="M 134.2515106201172,37.8840446472168 C 131.7855987548828,19.606300354003906 123.18052673339844,22.44626808166504 117.13548278808594,42.29932403564453" fill="none" stroke="rgb(0, 0, 0)" stroke-linecap="round" stroke-linejoin="round" stroke-opacity="1" stroke-width="3.0"/>
	<path d="M 111.75247192382812,79.66654205322266 C 118.7586898803711,67.76558685302734 135.7576446533203,68.69799041748047 106.93768310546875,65.59611511230469" fill="none" stroke="rgb(0, 0, 0)" stroke-linecap="round" stroke-linejoin="round" stroke-opacity="1" stroke-width="3.0"/>
	<path d="M 102.02777862548828,81.4393081665039 C 111.52960205078125,87.34870910644531 95.44253540039062,83.78710174560547 64.77790069580078,105.1449966430664" fill="none" stroke="rgb(0, 0, 0)" stroke-linecap="round" stroke-linejoin="round" stroke-opacity="1" stroke-width="3.0"/>
	<path d="M 117.03313446044922,84.07445526123047 C 119.13406372070312,85.44853210449219 119.7456283569336,85.58378601074219 118.8590087890625,87.90872955322266" fill="none" stroke="rgb(0, 0, 0)" stroke-linecap="round" stroke-linejoin="round" stroke-opacity="1" stroke-width="3.0"/>
	<path d="M 136.52642822265625,8.666169166564941 C 149.6871337890625,12.660307884216309 141.53265380859375,12.129434585571289 144.3988494873047,10.897517204284668" fill="none" stroke="rgb(0, 0, 0)" stroke-linecap="round" stroke-linejoin="round" stroke-opacity="1" stroke-width="3.0"/>
	<path d="M 124.86390686035156,48.86151123046875 C 144.7406463623047,32.77566146850586 113.24205017089844,21.147136688232422 114.40909576416016,36.88494110107422" fill="none" stroke="rgb(0, 0, 0)" stroke-linecap="round" stroke-linejoin="round" stroke-opacity="1" stroke-width="3.0"/>
	<path d="M 132.665283203125,91.96702575683594 C 151.3058624267578,99.31464385986328 130.2259979248047,94.57972717285156 154.9705352783203,106.68833923339844" fill="none" stroke="rgb(0, 0, 0)" stroke-linecap="round" stroke-linejoin="round" stroke-opacity="1" stroke-width="3.0"/>
	<path d="M 94.99036407470703,78.27203369140625 C 89.67936706542969,67.93888854980469 74.0741958618164,62.50511932373047 91.84001159667969,77.58010864257812" fill="none" stroke="rgb(0, 0, 0)" stroke-linecap="round" stroke-linejoin="round" stroke-opacity="1" stroke-width="3.0"/>
	<path d="M 84.3105239868164,62.955135345458984 C 73.97320556640625,80.58329772949219 105.29293823242188,84.17823791503906 95.44873809814453,67.70179748535156" fill="none" stroke="rgb(0, 0, 0)" stroke-linecap="round" stroke-linejoin="round" stroke-opacity="1" stroke-width="3.0"/>
	<path d="M 112.79630279541016,140.11329650878906 C 112.95755004882812,118.32681274414062 109.73731231689453,99.36275482177734 117.44970703125,109.94673156738281" fill="none" stroke="rgb(0, 0, 0)" stroke-linecap="round" stroke-linejoin="round" stroke-opacity="1" stroke-width="3.0"/>
	<path d="M 123.38079833984375,86.15755462646484 C 137.9390869140625,95.25399017333984 137.6006317138672,91.67235565185547 116.85157012939453,86.39380645751953" fill="none" stroke="rgb(0, 0, 0)" stroke-linecap="round" stroke-linejoin="round" stroke-opacity="1" stroke-width="3.0"/>
	<path d="M 125.83882141113281,88.93046569824219 C 126.48434448242188,99.94731903076172 118.30955505371094,91.10530853271484 119.64561462402344,89.12882232666016" fill="none" stroke="rgb(0, 0, 0)" stroke-linecap="round" stroke-linejoin="round" stroke-opacity="1" stroke-width="3.0"/>
	<path d="M 135.40859985351562,62.85826110839844 C 155.15696716308594,38.512813568115234 161.95318603515625,33.9072380065918 154.31497192382812,23.291717529296875" fill="none" stroke="rgb(0, 0, 0)" stroke-linecap="round" stroke-linejoin="round" stroke-opacity="1" stroke-width="3.0"/>
	<path d="M 110.17053985595703,194.70065307617188 C 108.33792877197266,221.6736602783203 116.3150634765625,219.1801300048828 113.67906188964844,190.820556640625" fill="none" stroke="rgb(0, 0, 0)" stroke-linecap="round" stroke-linejoin="round" stroke-opacity="1" stroke-width="3.0"/>
	<path d="M 152.97787475585938,110.38996124267578 C 124.15474700927734,94.92428588867188 144.69749450683594,101.33958435058594 127.16111755371094,92.95217895507812" fill="none" stroke="rgb(0, 0, 0)" stroke-linecap="round" stroke-linejoin="round" stroke-opacity="1" stroke-width="3.0"/>
	<path d="M 115.20573425292969,85.49959564208984 C 111.79513549804688,85.84280395507812 104.09125518798828,85.64273071289062 100.1545181274414,78.02230072021484" fill="none" stroke="rgb(0, 0, 0)" stroke-linecap="round" stroke-linejoin="round" stroke-opacity="1" stroke-width="3.0"/>
	<path d="M 92.09597778320312,86.6089859008789 C 72.16899108886719,92.5729751586914 67.71688079833984,100.22791290283203 59.29616165161133,103.8292236328125" fill="none" stroke="rgb(0, 0, 0)" stroke-linecap="round" stroke-linejoin="round" stroke-opacity="1" stroke-width="3.0"/>
	<path d="M 111.68867492675781,75.61177062988281 C 89.20785522460938,53.68081283569336 126.90421295166016,47.76982879638672 105.67778778076172,51.2310905456543" fill="none" stroke="rgb(0, 0, 0)" stroke-linecap="round" stroke-linejoin="round" stroke-opacity="1" stroke-width="3.0"/>
	<path d="M 101.30094909667969,129.16253662109375 C 86.67472839355469,102.07574462890625 106.61289978027344,88.7564697265625 75.9421615600586,105.24801635742188" fill="none" stroke="rgb(0, 0, 0)" stroke-linecap="round" stroke-linejoin="round" stroke-opacity="1" stroke-width="3.0"/>
	<path d="M 132.14642333984375,32.9310417175293 C 114.72542572021484,14.23788070678711 99.95765686035156,41.4706916809082 119.85366821289062,38.34832000732422" fill="none" stroke="rgb(0, 0, 0)" stroke-linecap="round" stroke-linejoin="round" stroke-opacity="1" stroke-width="3.0"/>
	<path d="M 118.87129211425781,140.51287841796875 C 127.65013122558594,104.24957275390625 122.71656036376953,103.39268493652344 117.47357177734375,138.12440490722656" fill="none" stroke="rgb(0, 0, 0)" stroke-linecap="round" stroke-linejoin="round" stroke-opacity="1" stroke-width="3.0"/>
	<path d="M 118.13101959228516,179.84217834472656 C 118.44233703613281,162.5535888671875 115.48680877685547,166.18045043945312 117.83576202392578,152.75880432128906" fill="none" stroke="rgb(0, 0, 0)" stroke-linecap="round" stroke-linejoin="round" stroke-opacity="1" stroke-width="3.0"/>
	<path d="M 84.39204406738281,97.08119201660156 C 102.79454803466797,88.89938354492188 103.875,84.85482788085938 107.79300689697266,89.37847900390625" fill="none" stroke="rgb(0, 0, 0)" stroke-linecap="round" stroke-linejoin="round" stroke-opacity="1" stroke-width="3.0"/>
	<path d="M 130.20535278320312,63.539127349853516 C 119.85202026367188,79.3155746459961 111.48832702636719,83.67977905273438 121.48316192626953,71.02848052978516" fill="none" stroke="rgb(0, 0, 0)" stroke-linecap="round" stroke-linejoin="round" stroke-opacity="1" stroke-width="3.0"/>
	<path d="M 105.71765899658203,127.1567611694336 C 104.49510192871094,139.41944885253906 102.97138214111328,130.0342254638672 96.98556518554688,109.82292175292969" fill="none" stroke="rgb(0, 0, 0)" stroke-linecap="round" stroke-linejoin="round" stroke-opacity="1" stroke-width="3.0"/>
	<path d="M 113.06403350830078,38.58543395996094 C 131.08163452148438,65.11199951171875 104.93782043457031,36.68603515625 112.17021942138672,67.29783630371094" fill="none" stroke="rgb(0, 0, 0)" stroke-linecap="round" stroke-linejoin="round" stroke-opacity="1" stroke-width="3.0"/>
	<path d="M 155.23135375976562,34.06707000732422 C 145.20118713378906,41.535892486572266 152.32928466796875,46.66522216796875 120.09876251220703,60.01047134399414" fill="none" stroke="rgb(0, 0, 0)" stroke-linecap="round" stroke-linejoin="round" stroke-opacity="1" stroke-width="3.0"/>
	<path d="M 121.49647521972656,168.10562133789062 C 127.55987548828125,124.69477081298828 122.4341812133789,168.09695434570312 119.91374969482422,171.31068420410156" fill="none" stroke="rgb(0, 0, 0)" stroke-linecap="round" stroke-linejoin="round" stroke-opacity="1" stroke-width="3.0"/>
	<path d="M 115.9756851196289,89.98473358154297 C 128.9947967529297,90.59803771972656 136.30245971679688,101.90079498291016 129.50155639648438,95.69820404052734" fill="none" stroke="rgb(0, 0, 0)" stroke-linecap="round" stroke-linejoin="round" stroke-opacity="1" stroke-width="3.0"/>
	<path d="M 144.0651092529297,12.555201530456543 C 148.53817749023438,20.562864303588867 137.51161193847656,14.252963066101074 143.2803955078125,9.200467109680176" fill="none" stroke="rgb(0, 0, 0)" stroke-linecap="round" stroke-linejoin="round" stroke-opacity="1" stroke-width="3.0"/>
	<path d="M 116.95903015136719,115.50517272949219 C 127.6546859741211,102.00131225585938 124.96156311035156,113.3284683227539 122.88584899902344,153.43930053710938" fill="none" stroke="rgb(0, 0, 0)" stroke-linecap="round" stroke-linejoin="round" stroke-opacity="1" stroke-width="3.0"/>
	<path d="M 95.83467864990234,56.639732360839844 C 66.34307098388672,75.24432373046875 77.56929016113281,60.933101654052734 104.34088897705078,49.35475540161133" fill="none" stroke="rgb(0, 0, 0)" stroke-linecap="round" stroke-linejoin="round" stroke-opacity="1" stroke-width="3.0"/>
	<path d="M 122.09134674072266,109.54096984863281 C 110.6471176147461,100.9911880493164 116.41687774658203,134.4121856689453 119.46746063232422,115.10257720947266" fill="none" stroke="rgb(0, 0, 0)" stroke-linecap="round" stroke-linejoin="round" stroke-opacity="1" stroke-width="3.0"/>
	<path d="M 118.52446746826172,167.11767578125 C 119.06505584716797,156.7266845703125 122.72356414794922,148.97027587890625 120.36865997314453,161.61204528808594" fill="none" stroke="rgb(0, 0, 0)" stroke-linecap="round" stroke-linejoin="round" stroke-opacity="1" stroke-width="3.0"/>
	<path d="M 115.53443145751953,117.6341323852539 C 119.23125457763672,113.77010345458984 116.36019134521484,112.8183364868164 117.89108276367188,147.7100067138672" fill="none" stroke="rgb(0, 0, 0)" stroke-linecap="round" stroke-linejoin="round" stroke-opacity="1" stroke-width="3.0"/>
	<path d="M 114.9013442993164,81.39509582519531 C 111.57344055175781,59.606719970703125 113.77936553955078,57.498931884765625 130.8528289794922,53.79867935180664" fill="none" stroke="rgb(0, 0, 0)" stroke-linecap="round" stroke-linejoin="round" stroke-opacity="1" stroke-width="3.0"/>
	<path d="M 114.8059310913086,131.77035522460938 C 109.42056274414062,112.10934448242188 121.69844055175781,106.53398895263672 123.17304992675781,111.04606628417969" fill="none" stroke="rgb(0, 0, 0)" stroke-linecap="round" stroke-linejoin="round" stroke-opacity="1" stroke-width="3.0"/>
	<path d="M 113.91533660888672,173.4903106689453 C 114.22022247314453,189.4560089111328 112.33383178710938,183.28652954101562 113.17862701416016,153.2232666015625" fill="none" stroke="rgb(0, 0, 0)" stroke-linecap="round" stroke-linejoin="round" stroke-opacity="1" stroke-width="3.0"/>
	<path d="M 106.69577026367188,72.27094268798828 C 113.50444793701172,96.59716796875 128.0284881591797,82.58106231689453 117.20649719238281,82.91780090332031" fill="none" stroke="rgb(0, 0, 0)" stroke-linecap="round" stroke-linejoin="round" stroke-opacity="1" stroke-width="3.0"/>
	<path d="M 20.016345977783203,152.37181091308594 C 20.179616928100586,150.0452117919922 21.9057559967041,191.9773712158203 25.49790382385254,151.54196166992188" fill="none" stroke="rgb(0, 0, 0)" stroke-linecap="round" stroke-linejoin="round" stroke-opacity="1" stroke-width="3.0"/>
	<path d="M 237.5371856689453,217.5905303955078 C 255.2666473388672,212.01927185058594 238.10203552246094,213.93905639648438 194.6162109375,213.81845092773438" fill="none" stroke="rgb(0, 0, 0)" stroke-linecap="round" stroke-linejoin="round" stroke-opacity="1" stroke-width="3.0"/>
	<path d="M 6.401535511016846,128.77870178222656 C 19.206314086914062,51.00574493408203 15.410520553588867,45.3994255065918 6.009467601776123,133.35523986816406" fill="none" stroke="rgb(0, 0, 0)" stroke-linecap="round" stroke-linejoin="round" stroke-opacity="1" stroke-width="3.0"/>
	<path d="M 116.40985870361328,212.6761474609375 C 168.64488220214844,208.8045654296875 173.9105682373047,218.07650756835938 112.44206237792969,212.76710510253906" fill="none" stroke="rgb(0, 0, 0)" stroke-linecap="round" stroke-linejoin="round" stroke-opacity="1" stroke-width="3.0"/>
	<path d="M 179.7661895751953,82.58267211914062 C 200.542724609375,262.65618896484375 177.6208038330078,115.95994567871094 182.16571044921875,174.22471618652344" fill="none" stroke="rgb(0, 0, 0)" stroke-linecap="round" stroke-linejoin="round" stroke-opacity="1" stroke-width="3.0"/>
	<path d="M 184.98638916015625,172.4019012451172 C 252.98973083496094,177.72625732421875 239.32957458496094,182.77960205078125 180.53607177734375,176.66510009765625" fill="none" stroke="rgb(0, 0, 0)" stroke-linecap="round" stroke-linejoin="round" stroke-opacity="1" stroke-width="3.0"/>
	<path d="M 45.5488166809082,236.04188537597656 C 46.33441162109375,222.22776794433594 51.000755310058594,227.21800231933594 56.218055725097656,238.30966186523438" fill="none" stroke="rgb(0, 0, 0)" stroke-linecap="round" stroke-linejoin="round" stroke-opacity="1" stroke-width="3.0"/>
	<path d="M 22.31288719177246,22.2921142578125 C 69.01868438720703,65.20976257324219 171.8573455810547,65.55249786376953 183.4912567138672,43.93659210205078" fill="none" stroke="rgb(0, 0, 0)" stroke-linecap="round" stroke-linejoin="round" stroke-opacity="1" stroke-width="3.0"/>
	<path d="M 162.31471252441406,154.4573516845703 C 214.82009887695312,167.6715087890625 157.31808471679688,139.02565002441406 166.2167205810547,165.72018432617188" fill="none" stroke="rgb(0, 0, 0)" stroke-linecap="round" stroke-linejoin="round" stroke-opacity="1" stroke-width="3.0"/>
	<path d="M 203.97474670410156,20.024377822875977 C 153.4437255859375,61.40851974487305 126.17472839355469,55.227745056152344 68.33317565917969,54.5722541809082" fill="none" stroke="rgb(0, 0, 0)" stroke-linecap="round" stroke-linejoin="round" stroke-opacity="1" stroke-width="3.0"/>
	<path d="M 8.051196098327637,100.94969177246094 C 12.5934419631958,94.83070373535156 9.724260330200195,98.71365356445312 -14.972428321838379,81.1116943359375" fill="none" stroke="rgb(0, 0, 0)" stroke-linecap="round" stroke-linejoin="round" stroke-opacity="1" stroke-width="3.0"/>
	<path d="M 223.3455810546875,3.601454019546509 C 187.93043518066406,32.934593200683594 181.66494750976562,50.44081115722656 132.52902221679688,58.59621810913086" fill="none" stroke="rgb(0, 0, 0)" stroke-linecap="round" stroke-linejoin="round" stroke-opacity="1" stroke-width="3.0"/>
	<path d="M 131.33164978027344,122.1050796508789 C 127.19600677490234,189.67630004882812 125.4408950805664,54.22799301147461 133.93922424316406,86.1773452758789" fill="none" stroke="rgb(0, 0, 0)" stroke-linecap="round" stroke-linejoin="round" stroke-opacity="1" stroke-width="3.0"/>
	<path d="M 231.1011199951172,177.7337188720703 C 194.73504638671875,173.29458618164062 196.01187133789062,176.76443481445312 218.01551818847656,178.39944458007812" fill="none" stroke="rgb(0, 0, 0)" stroke-linecap="round" stroke-linejoin="round" stroke-opacity="1" stroke-width="3.0"/>
	<path d="M 134.02273559570312,85.29330444335938 C 127.15792846679688,254.42054748535156 131.47508239746094,186.8675994873047 136.53994750976562,84.78916931152344" fill="none" stroke="rgb(0, 0, 0)" stroke-linecap="round" stroke-linejoin="round" stroke-opacity="1" stroke-width="3.0"/>
	<path d="M -12.39031982421875,172.63540649414062 C 28.024227142333984,161.09214782714844 36.07560348510742,173.95159912109375 33.14389419555664,163.9934844970703" fill="none" stroke="rgb(0, 0, 0)" stroke-linecap="round" stroke-linejoin="round" stroke-opacity="1" stroke-width="3.0"/>
	<path d="M 0.4344455301761627,115.86090850830078 C -16.134315490722656,116.09272766113281 -13.121299743652344,101.35960388183594 -7.61207389831543,114.0848159790039" fill="none" stroke="rgb(0, 0, 0)" stroke-linecap="round" stroke-linejoin="round" stroke-opacity="1" stroke-width="3.0"/>
	<path d="M -5.903820037841797,170.27627563476562 C 61.04823303222656,165.62545776367188 -9.155606269836426,169.31845092773438 39.3934326171875,167.7632293701172" fill="none" stroke="rgb(0, 0, 0)" stroke-linecap="round" stroke-linejoin="round" stroke-opacity="1" stroke-width="3.0"/>
	<path d="M 135.90689086914062,165.95919799804688 C 136.22067260742188,208.6340789794922 129.01429748535156,131.3494873046875 138.5081329345703,73.0994873046875" fill="none" stroke="rgb(0, 0, 0)" stroke-linecap="round" stroke-linejoin="round" stroke-opacity="1" stroke-width="3.0"/>
	<path d="M 162.06846618652344,41.31733322143555 C 236.03163146972656,-10.189281463623047 184.64987182617188,0.5612767934799194 240.20077514648438,0.6051366925239563" fill="none" stroke="rgb(0, 0, 0)" stroke-linecap="round" stroke-linejoin="round" stroke-opacity="1" stroke-width="3.0"/>
	<path d="M 20.279239654541016,164.98167419433594 C 24.911766052246094,171.8045654296875 -10.261197090148926,166.58480834960938 12.496935844421387,169.75096130371094" fill="none" stroke="rgb(0, 0, 0)" stroke-linecap="round" stroke-linejoin="round" stroke-opacity="1" stroke-width="3.0"/>
	<path d="M 155.5872344970703,55.43496322631836 C 169.01641845703125,65.53651428222656 192.25112915039062,44.36285400390625 228.20309448242188,-2.3002514839172363" fill="none" stroke="rgb(0, 0, 0)" stroke-linecap="round" stroke-linejoin="round" stroke-opacity="1" stroke-width="3.0"/>
	<path d="M 16.393423080444336,76.16989135742188 C -5.2147698402404785,46.66104507446289 -0.25794559717178345,82.67664337158203 -1.1902363300323486,66.53204345703125" fill="none" stroke="rgb(0, 0, 0)" stroke-linecap="round" stroke-linejoin="round" stroke-opacity="1" stroke-width="3.0"/>
	<path d="M 137.86517333984375,67.32073211669922 C -14.057684898376465,62.92997741699219 -15.092188835144043,55.46928024291992 77.29065704345703,53.51841354370117" fill="none" stroke="rgb(0, 0, 0)" stroke-linecap="round" stroke-linejoin="round" stroke-opacity="1" stroke-width="3.0"/>
	<path d="M 12.547898292541504,166.47967529296875 C -2.020599842071533,136.09092712402344 -0.2366936206817627,173.20492553710938 13.276226043701172,66.09042358398438" fill="none" stroke="rgb(0, 0, 0)" stroke-linecap="round" stroke-linejoin="round" stroke-opacity="1" stroke-width="3.0"/>
	<path d="M 129.7488250732422,58.05046081542969 C 246.9031982421875,-1.6239498853683472 234.43992614746094,-10.565978050231934 173.17886352539062,59.66903305053711" fill="none" stroke="rgb(0, 0, 0)" stroke-linecap="round" stroke-linejoin="round" stroke-opacity="1" stroke-width="3.0"/>
	<path d="M 137.62120056152344,170.72825622558594 C 136.68292236328125,50.201045989990234 121.70353698730469,51.229400634765625 127.07009887695312,168.4515838623047" fill="none" stroke="rgb(0, 0, 0)" stroke-linecap="round" stroke-linejoin="round" stroke-opacity="1" stroke-width="3.0"/>
	<path d="M 161.4212188720703,173.47940063476562 C 231.61668395996094,176.07643127441406 259.8828430175781,188.443603515625 261.30010986328125,153.71295166015625" fill="none" stroke="rgb(0, 0, 0)" stroke-linecap="round" stroke-linejoin="round" stroke-opacity="1" stroke-width="3.0"/>
	<path d="M 107.45538330078125,44.32308578491211 C 106.44027709960938,36.330196380615234 120.47953796386719,61.754737854003906 166.0923614501953,25.72041130065918" fill="none" stroke="rgb(0, 0, 0)" stroke-linecap="round" stroke-linejoin="round" stroke-opacity="1" stroke-width="3.0"/>
	<path d="M 230.46434020996094,215.3418426513672 C 111.8697280883789,209.38499450683594 95.3196792602539,216.2071533203125 229.64553833007812,213.75648498535156" fill="none" stroke="rgb(0, 0, 0)" stroke-linecap="round" stroke-linejoin="round" stroke-opacity="1" stroke-width="3.0"/>
	<path d="M -11.312217712402344,-13.66783332824707 C 8.309388160705566,5.314117908477783 14.88302230834961,8.01796817779541 55.45127868652344,32.6871223449707" fill="none" stroke="rgb(0, 0, 0)" stroke-linecap="round" stroke-linejoin="round" stroke-opacity="1" stroke-width="3.0"/>
	<path d="M 216.77940368652344,59.11399841308594 C 227.13343811035156,37.885379791259766 198.72882080078125,83.51787567138672 193.20603942871094,67.6691665649414" fill="none" stroke="rgb(0, 0, 0)" stroke-linecap="round" stroke-linejoin="round" stroke-opacity="1" stroke-width="3.0"/>
	<path d="M 132.18019104003906,139.50502014160156 C 126.44257354736328,202.688232421875 131.3485107421875,197.8831024169922 130.7567901611328,123.60356903076172" fill="none" stroke="rgb(0, 0, 0)" stroke-linecap="round" stroke-linejoin="round" stroke-opacity="1" stroke-width="3.0"/>
	<path d="M 133.0904998779297,114.34706115722656 C 118.91287994384766,202.14173889160156 135.90914916992188,176.15367126464844 125.34428405761719,168.27737426757812" fill="none" stroke="rgb(0, 0, 0)" stroke-linecap="round" stroke-linejoin="round" stroke-opacity="1" stroke-width="3.0"/>
	<path d="M 6.028223991394043,64.26341247558594 C -5.053361892700195,70.44911193847656 9.66163158416748,55.43586730957031 12.721176147460938,70.56510925292969" fill="none" stroke="rgb(0, 0, 0)" stroke-linecap="round" stroke-linejoin="round" stroke-opacity="1" stroke-width="3.0"/>
	<path d="M 32.7313346862793,226.2938690185547 C 31.255470275878906,227.51119995117188 26.991130828857422,233.99952697753906 31.54808807373047,228.09014892578125" fill="none" stroke="rgb(0, 0, 0)" stroke-linecap="round" stroke-linejoin="round" stroke-opacity="1" stroke-width="3.0"/>
	<path d="M 93.32846069335938,237.3433837890625 C 98.7641372680664,232.1859130859375 100.98828125,228.0188446044922 88.99585723876953,234.79103088378906" fill="none" stroke="rgb(0, 0, 0)" stroke-linecap="round" stroke-linejoin="round" stroke-opacity="1" stroke-width="3.0"/>
	<path d="M 22.22542381286621,161.81796264648438 C 10.185108184814453,176.9261016845703 25.271249771118164,139.69229125976562 19.462324142456055,142.54391479492188" fill="none" stroke="rgb(0, 0, 0)" stroke-linecap="round" stroke-linejoin="round" stroke-opacity="1" stroke-width="3.0"/>
	<path d="M 192.15313720703125,36.231258392333984 C 160.128173828125,65.59123229980469 105.62313842773438,56.26214599609375 172.9636993408203,59.16372299194336" fill="none" stroke="rgb(0, 0, 0)" stroke-linecap="round" stroke-linejoin="round" stroke-opacity="1" stroke-width="3.0"/>
	<path d="M 135.73745727539062,86.0501480102539 C 131.91156005859375,212.92813110351562 123.44194793701172,210.03977966308594 132.94192504882812,81.82933807373047" fill="none" stroke="rgb(0, 0, 0)" stroke-linecap="round" stroke-linejoin="round" stroke-opacity="1" stroke-width="3.0"/>
	<path d="M 76.36502838134766,64.66534423828125 C -35.113136291503906,61.02145767211914 -10.028838157653809,67.24080657958984 67.17573547363281,72.72367095947266" fill="none" stroke="rgb(0, 0, 0)" stroke-linecap="round" stroke-linejoin="round" stroke-opacity="1" stroke-width="3.0"/>
	<path d="M 45.80912399291992,-25.179311752319336 C 35.18095016479492,10.937078475952148 31.060226440429688,-3.364710569381714 45.15622329711914,-18.8526611328125" fill="none" stroke="rgb(0, 0, 0)" stroke-linecap="round" stroke-linejoin="round" stroke-opacity="1" stroke-width="3.0"/>
	<path d="M 192.05599975585938,70.16974639892578 C 218.12474060058594,201.35987854003906 204.90220642089844,176.16200256347656 206.85443115234375,176.25027465820312" fill="none" stroke="rgb(0, 0, 0)" stroke-linecap="round" stroke-linejoin="round" stroke-opacity="1" stroke-width="3.0"/>
	<path d="M 22.607112884521484,144.0849609375 C 21.504459381103516,134.488525390625 16.54422378540039,186.54319763183594 10.915189743041992,157.6523895263672" fill="none" stroke="rgb(0, 0, 0)" stroke-linecap="round" stroke-linejoin="round" stroke-opacity="1" stroke-width="3.0"/>
	<path d="M 129.82838439941406,92.10716247558594 C 137.7974395751953,57.43274688720703 134.75912475585938,111.52809143066406 139.44993591308594,169.56985473632812" fill="none" stroke="rgb(0, 0, 0)" stroke-linecap="round" stroke-linejoin="round" stroke-opacity="1" stroke-width="3.0"/>
	<path d="M 133.06175231933594,-20.034191131591797 C 134.06849670410156,-25.00537109375 151.63238525390625,9.59184741973877 152.55535888671875,33.4052848815918" fill="none" stroke="rgb(0, 0, 0)" stroke-linecap="round" stroke-linejoin="round" stroke-opacity="1" stroke-width="3.0"/>
	<path d="M 156.02957153320312,30.24721336364746 C 146.4050750732422,28.431673049926758 145.1977996826172,-34.93014907836914 127.90243530273438,-12.40639877319336" fill="none" stroke="rgb(0, 0, 0)" stroke-linecap="round" stroke-linejoin="round" stroke-opacity="1" stroke-width="3.0"/>
	<path d="M 9.51895809173584,97.84464263916016 C 6.364175319671631,149.56234741210938 1.7363771200180054,145.36448669433594 10.22698974609375,168.0135955810547" fill="none" stroke="rgb(0, 0, 0)" stroke-linecap="round" stroke-linejoin="round" stroke-opacity="1" stroke-width="3.0"/>
	<path d="M -11.130744934082031,55.234764099121094 C 21.424724578857422,74.6204833984375 5.4941816329956055,80.20259857177734 6.6037516593933105,67.28172302246094" fill="none" stroke="rgb(0, 0, 0)" stroke-linecap="round" stroke-linejoin="round" stroke-opacity="1" stroke-width="3.0"/>
	<path d="M 6.296051025390625,150.74569702148438 C 16.163127899169922,72.51754760742188 29.341167449951172,27.99091339111328 6.628517150878906,118.60831451416016" fill="none" stroke="rgb(0, 0, 0)" stroke-linecap="round" stroke-linejoin="round" stroke-opacity="1" stroke-width="3.0"/>
	<path d="M 135.73651123046875,83.59866333007812 C 120.97747039794922,182.48594665527344 120.55048370361328,229.28857421875 125.99532318115234,81.05186462402344" fill="none" stroke="rgb(0, 0, 0)" stroke-linecap="round" stroke-linejoin="round" stroke-opacity="1" stroke-width="3.0"/>
	<path d="M 103.21107482910156,-11.427498817443848 C 108.61167907714844,-2.973175048828125 100.10257720947266,-1.8846464157104492 97.31441497802734,-16.310216903686523" fill="none" stroke="rgb(0, 0, 0)" stroke-linecap="round" stroke-linejoin="round" stroke-opacity="1" stroke-width="3.0"/>
	<path d="M 16.266315460205078,9.311951637268066 C 33.04576873779297,27.2629451751709 58.91216278076172,42.41584014892578 123.0704574584961,43.84832763671875" fill="none" stroke="rgb(0, 0, 0)" stroke-linecap="round" stroke-linejoin="round" stroke-opacity="1" stroke-width="3.0"/>
	<path d="M 5.1387810707092285,134.4259033203125 C 5.332024097442627,154.04165649414062 11.94237995147705,184.01451110839844 -10.696308135986328,162.5166473388672" fill="none" stroke="rgb(0, 0, 0)" stroke-linecap="round" stroke-linejoin="round" stroke-opacity="1" stroke-width="3.0"/>
	<path d="M 71.46458435058594,84.27489471435547 C 51.92908477783203,84.16293334960938 54.069759368896484,78.00686645507812 70.62890625,81.31505584716797" fill="none" stroke="rgb(0, 0, 0)" stroke-linecap="round" stroke-linejoin="round" stroke-opacity="1" stroke-width="3.0"/>
	<path d="M 197.3363494873047,66.21456146240234 C 200.87042236328125,138.7522735595703 205.15379333496094,127.54696655273438 192.7267303466797,46.78984832763672" fill="none" stroke="rgb(0, 0, 0)" stroke-linecap="round" stroke-linejoin="round" stroke-opacity="1" stroke-width="3.0"/>
	<path d="M 10.555744171142578,150.7783203125 C -11.361677169799805,142.76795959472656 20.33659553527832,159.59408569335938 -14.227913856506348,149.86570739746094" fill="none" stroke="rgb(0, 0, 0)" stroke-linecap="round" stroke-linejoin="round" stroke-opacity="1" stroke-width="3.0"/>
	<path d="M 11.14917278289795,96.77360534667969 C 10.079937934875488,116.64728546142578 6.575686931610107,92.90402221679688 11.921307563781738,95.97991180419922" fill="none" stroke="rgb(0, 0, 0)" stroke-linecap="round" stroke-linejoin="round" stroke-opacity="1" stroke-width="3.0"/>
	<path d="M 52.10835266113281,165.13226318359375 C 81.67741394042969,163.23643493652344 69.21328735351562,207.15435791015625 78.87157440185547,69.32675170898438" fill="none" stroke="rgb(0, 0, 0)" stroke-linecap="round" stroke-linejoin="round" stroke-opacity="1" stroke-width="3.0"/>
	<path d="M 142.4585418701172,-7.990297794342041 C 157.81405639648438,46.363773345947266 146.1344451904297,28.99678611755371 139.98486328125,39.99003982543945" fill="none" stroke="rgb(0, 0, 0)" stroke-linecap="round" stroke-linejoin="round" stroke-opacity="1" stroke-width="3.0"/>
	<path d="M 133.07701110839844,83.03755950927734 C 139.53785705566406,208.78346252441406 129.23190307617188,212.02320861816406 129.81858825683594,89.0914077758789" fill="none" stroke="rgb(0, 0, 0)" stroke-linecap="round" stroke-linejoin="round" stroke-opacity="1" stroke-width="3.0"/>
	<path d="M 111.60665130615234,228.05996704101562 C 78.49861907958984,234.2986602783203 90.974365234375,240.90499877929688 88.31744384765625,236.52383422851562" fill="none" stroke="rgb(0, 0, 0)" stroke-linecap="round" stroke-linejoin="round" stroke-opacity="1" stroke-width="3.0"/>
	<path d="M 115.94878387451172,43.78972244262695 C 98.42961120605469,40.85243225097656 104.18275451660156,45.763946533203125 136.3868408203125,40.60885238647461" fill="none" stroke="rgb(0, 0, 0)" stroke-linecap="round" stroke-linejoin="round" stroke-opacity="1" stroke-width="3.0"/>
	<path d="M 66.14925384521484,161.448486328125 C 61.37567901611328,197.9974365234375 60.983646392822266,97.46083068847656 75.86629486083984,70.47407531738281" fill="none" stroke="rgb(0, 0, 0)" stroke-linecap="round" stroke-linejoin="round" stroke-opacity="1" stroke-width="3.0"/>
</svg>
