<?xml version="1.0" ?>
<svg xmlns="http://www.w3.org/2000/svg" version="1.1" width="224" height="224">
  <defs/>
  <g>
    <path d="M 145.9061279296875 11.198728561401367 C 137.83970642089844 8.056169509887695 153.33148193359375 5.395467758178711 154.13087463378906 36.36636734008789" stroke-width="3.0" fill="none" stroke="rgb(0, 0, 0)" stroke-opacity="1" stroke-linecap="round" stroke-linejoin="round"/>
    <path d="M 99.12276458740234 92.43548583984375 C 99.84193420410156 84.8160400390625 90.80997467041016 93.11575317382812 71.1832504272461 106.60118865966797" stroke-width="3.0" fill="none" stroke="rgb(0, 0, 0)" stroke-opacity="1" stroke-linecap="round" stroke-linejoin="round"/>
    <path d="M 104.73912048339844 74.25568389892578 C 120.43020629882812 76.12200164794922 126.76718139648438 94.44171142578125 113.00345611572266 88.90531158447266" stroke-width="3.0" fill="none" stroke="rgb(0, 0, 0)" stroke-opacity="1" stroke-linecap="round" stroke-linejoin="round"/>
    <path d="M 134.42970275878906 34.765201568603516 C 97.90904998779297 36.33000946044922 105.20360565185547 30.679584503173828 132.27047729492188 32.888614654541016" stroke-width="3.0" fill="none" stroke="rgb(0, 0, 0)" stroke-opacity="1" stroke-linecap="round" stroke-linejoin="round"/>
    <path d="M 118.66449737548828 186.88206481933594 C 114.42262268066406 182.92984008789062 122.14322662353516 180.82383728027344 110.07451629638672 199.2420654296875" stroke-width="3.0" fill="none" stroke="rgb(0, 0, 0)" stroke-opacity="1" stroke-linecap="round" stroke-linejoin="round"/>
    <path d="M 108.83032989501953 40.504547119140625 C 138.65066528320312 32.36922836303711 134.037109375 41.15953826904297 106.20011138916016 53.277099609375" stroke-width="3.0" fill="none" stroke="rgb(0, 0, 0)" stroke-opacity="1" stroke-linecap="round" stroke-linejoin="round"/>
    <path d="M 102.42676544189453 89.17647552490234 C 76.85327911376953 100.75342559814453 79.28313446044922 111.10255432128906 99.71644592285156 93.87909698486328" stroke-width="3.0" fill="none" stroke="rgb(0, 0, 0)" stroke-opacity="1" stroke-linecap="round" stroke-linejoin="round"/>
    <path d="M 111.90909576416016 210.747802734375 C 103.33670806884766 193.23756408691406 125.68022155761719 200.90225219726562 118.73591613769531 188.07266235351562" stroke-width="3.0" fill="none" stroke="rgb(0, 0, 0)" stroke-opacity="1" stroke-linecap="round" stroke-linejoin="round"/>
    <path d="M 89.67249298095703 105.17245483398438 C 102.83902740478516 124.65274810791016 90.11739349365234 104.32286071777344 106.73146057128906 112.86676788330078" stroke-width="3.0" fill="none" stroke="rgb(0, 0, 0)" stroke-opacity="1" stroke-linecap="round" stroke-linejoin="round"/>
    <path d="M 146.24667358398438 112.66172790527344 C 144.98851013183594 102.16569519042969 109.37035369873047 119.0272216796875 94.0314712524414 107.86815643310547" stroke-width="3.0" fill="none" stroke="rgb(0, 0, 0)" stroke-opacity="1" stroke-linecap="round" stroke-linejoin="round"/>
    <path d="M 119.10095977783203 119.81265258789062 C 113.76872253417969 89.08580780029297 112.41881561279297 122.98396301269531 114.90140533447266 143.5771026611328" stroke-width="3.0" fill="none" stroke="rgb(0, 0, 0)" stroke-opacity="1" stroke-linecap="round" stroke-linejoin="round"/>
    <path d="M 105.69889831542969 130.8985595703125 C 110.20059967041016 111.70211791992188 89.26519775390625 112.65768432617188 101.99879455566406 130.03277587890625" stroke-width="3.0" fill="none" stroke="rgb(0, 0, 0)" stroke-opacity="1" stroke-linecap="round" stroke-linejoin="round"/>
    <path d="M 123.71757507324219 54.668212890625 C 131.8230743408203 57.66058349609375 115.16676330566406 48.53793716430664 114.50404357910156 75.28758239746094" stroke-width="3.0" fill="none" stroke="rgb(0, 0, 0)" stroke-opacity="1" stroke-linecap="round" stroke-linejoin="round"/>
    <path d="M 108.451904296875 62.07154846191406 C 103.05095672607422 47.329097747802734 147.7814178466797 52.874183654785156 109.03155517578125 36.70167922973633" stroke-width="3.0" fill="none" stroke="rgb(0, 0, 0)" stroke-opacity="1" stroke-linecap="round" stroke-linejoin="round"/>
    <path d="M 97.4018325805664 112.85225677490234 C 99.38616943359375 128.80064392089844 109.36751556396484 130.51756286621094 113.76423645019531 161.7452392578125" stroke-width="3.0" fill="none" stroke="rgb(0, 0, 0)" stroke-opacity="1" stroke-linecap="round" stroke-linejoin="round"/>
    <path d="M 143.46311950683594 13.24067211151123 C 144.5487518310547 14.56959342956543 148.7327423095703 12.371352195739746 137.1215057373047 8.551396369934082" stroke-width="3.0" fill="none" stroke="rgb(0, 0, 0)" stroke-opacity="1" stroke-linecap="round" stroke-linejoin="round"/>
    <path d="M 97.30867767333984 89.8517837524414 C 96.66839599609375 89.6873779296875 91.4966049194336 80.79071044921875 97.15898132324219 89.91399383544922" stroke-width="3.0" fill="none" stroke="rgb(0, 0, 0)" stroke-opacity="1" stroke-linecap="round" stroke-linejoin="round"/>
    <path d="M 120.26861572265625 153.87765502929688 C 104.1307601928711 129.8931427001953 123.17431640625 119.4537124633789 119.1579818725586 165.10980224609375" stroke-width="3.0" fill="none" stroke="rgb(0, 0, 0)" stroke-opacity="1" stroke-linecap="round" stroke-linejoin="round"/>
    <path d="M 96.22689056396484 120.24961853027344 C 95.76791381835938 99.65386962890625 89.98822021484375 112.91204833984375 65.80267333984375 106.52511596679688" stroke-width="3.0" fill="none" stroke="rgb(0, 0, 0)" stroke-opacity="1" stroke-linecap="round" stroke-linejoin="round"/>
    <path d="M 119.67564392089844 72.45555114746094 C 118.61763000488281 59.250579833984375 152.2901153564453 33.90801239013672 121.01617431640625 70.62332153320312" stroke-width="3.0" fill="none" stroke="rgb(0, 0, 0)" stroke-opacity="1" stroke-linecap="round" stroke-linejoin="round"/>
    <path d="M 106.23131561279297 120.37914276123047 C 116.39937591552734 160.6630401611328 99.5238265991211 153.60848999023438 103.00585174560547 113.63246154785156" stroke-width="3.0" fill="none" stroke="rgb(0, 0, 0)" stroke-opacity="1" stroke-linecap="round" stroke-linejoin="round"/>
    <path d="M 142.00582885742188 94.91387176513672 C 164.2950439453125 107.19988250732422 165.4979248046875 109.69513702392578 143.3314208984375 111.33615112304688" stroke-width="3.0" fill="none" stroke="rgb(0, 0, 0)" stroke-opacity="1" stroke-linecap="round" stroke-linejoin="round"/>
    <path d="M 103.81963348388672 71.31436920166016 C 109.37371826171875 69.63802337646484 110.2043685913086 83.08558654785156 95.82066345214844 55.909881591796875" stroke-width="3.0" fill="none" stroke="rgb(0, 0, 0)" stroke-opacity="1" stroke-linecap="round" stroke-linejoin="round"/>
    <path d="M 142.6332550048828 8.429344177246094 C 147.2324981689453 7.071776390075684 153.11781311035156 19.754796981811523 157.57937622070312 30.698257446289062" stroke-width="3.0" fill="none" stroke="rgb(0, 0, 0)" stroke-opacity="1" stroke-linecap="round" stroke-linejoin="round"/>
    <path d="M 123.2945556640625 56.374752044677734 C 108.53990936279297 82.30911254882812 119.36066436767578 91.81532287597656 119.93153381347656 63.07572555541992" stroke-width="3.0" fill="none" stroke="rgb(0, 0, 0)" stroke-opacity="1" stroke-linecap="round" stroke-linejoin="round"/>
    <path d="M 130.84201049804688 30.492719650268555 C 134.5308380126953 21.34187126159668 111.64939880371094 28.269868850708008 115.6314926147461 26.69048500061035" stroke-width="3.0" fill="none" stroke="rgb(0, 0, 0)" stroke-opacity="1" stroke-linecap="round" stroke-linejoin="round"/>
    <path d="M 111.41950225830078 75.03871154785156 C 109.89450073242188 56.13485336303711 122.2928237915039 54.99217987060547 126.08101654052734 49.393959045410156" stroke-width="3.0" fill="none" stroke="rgb(0, 0, 0)" stroke-opacity="1" stroke-linecap="round" stroke-linejoin="round"/>
    <path d="M 101.26376342773438 86.7813491821289 C 92.47391510009766 91.05370330810547 96.63726806640625 76.24986267089844 62.2909049987793 104.29631042480469" stroke-width="3.0" fill="none" stroke="rgb(0, 0, 0)" stroke-opacity="1" stroke-linecap="round" stroke-linejoin="round"/>
    <path d="M 121.1344223022461 85.8404541015625 C 116.91988372802734 84.83935546875 110.30194091796875 86.77252197265625 105.86714935302734 81.91019439697266" stroke-width="3.0" fill="none" stroke="rgb(0, 0, 0)" stroke-opacity="1" stroke-linecap="round" stroke-linejoin="round"/>
    <path d="M 142.13983154296875 10.284887313842773 C 145.86166381835938 14.148256301879883 146.35992431640625 19.23642921447754 141.23829650878906 11.031473159790039" stroke-width="3.0" fill="none" stroke="rgb(0, 0, 0)" stroke-opacity="1" stroke-linecap="round" stroke-linejoin="round"/>
    <path d="M 128.2886199951172 46.2761344909668 C 145.8190155029297 30.31454849243164 117.18878936767578 20.648141860961914 112.29026794433594 37.362056732177734" stroke-width="3.0" fill="none" stroke="rgb(0, 0, 0)" stroke-opacity="1" stroke-linecap="round" stroke-linejoin="round"/>
    <path d="M 131.22686767578125 90.65328979492188 C 151.5526123046875 97.90910339355469 131.03814697265625 95.40023040771484 155.30865478515625 106.67564392089844" stroke-width="3.0" fill="none" stroke="rgb(0, 0, 0)" stroke-opacity="1" stroke-linecap="round" stroke-linejoin="round"/>
    <path d="M 95.34130859375 79.56939697265625 C 73.20780944824219 74.8930435180664 81.60586547851562 56.315521240234375 96.25255584716797 78.03661346435547" stroke-width="3.0" fill="none" stroke="rgb(0, 0, 0)" stroke-opacity="1" stroke-linecap="round" stroke-linejoin="round"/>
    <path d="M 79.17847442626953 67.46399688720703 C 77.10054016113281 81.08283233642578 102.44623565673828 83.99152374267578 87.17127990722656 72.33397674560547" stroke-width="3.0" fill="none" stroke="rgb(0, 0, 0)" stroke-opacity="1" stroke-linecap="round" stroke-linejoin="round"/>
    <path d="M 110.45803833007812 153.45388793945312 C 109.59830474853516 115.00363159179688 111.85340881347656 95.07122039794922 104.58598327636719 124.24024200439453" stroke-width="3.0" fill="none" stroke="rgb(0, 0, 0)" stroke-opacity="1" stroke-linecap="round" stroke-linejoin="round"/>
    <path d="M 144.9477996826172 103.91082000732422 C 136.77935791015625 102.93479919433594 137.32725524902344 88.89240264892578 111.88902282714844 82.72413635253906" stroke-width="3.0" fill="none" stroke="rgb(0, 0, 0)" stroke-opacity="1" stroke-linecap="round" stroke-linejoin="round"/>
    <path d="M 121.80965423583984 86.75123596191406 C 121.23657989501953 89.89936828613281 110.36161804199219 84.97457885742188 122.89447021484375 95.15864562988281" stroke-width="3.0" fill="none" stroke="rgb(0, 0, 0)" stroke-opacity="1" stroke-linecap="round" stroke-linejoin="round"/>
    <path d="M 135.01211547851562 62.08010482788086 C 148.67196655273438 47.84858703613281 163.1857452392578 28.576173782348633 156.0750274658203 33.26006317138672" stroke-width="3.0" fill="none" stroke="rgb(0, 0, 0)" stroke-opacity="1" stroke-linecap="round" stroke-linejoin="round"/>
    <path d="M 114.54890441894531 198.50010681152344 C 118.7297592163086 217.6338348388672 99.4511947631836 225.22787475585938 118.06085968017578 196.19757080078125" stroke-width="3.0" fill="none" stroke="rgb(0, 0, 0)" stroke-opacity="1" stroke-linecap="round" stroke-linejoin="round"/>
    <path d="M 152.0279998779297 108.41864013671875 C 123.99705505371094 99.79297637939453 146.2942352294922 104.6205825805664 122.64068603515625 90.05780029296875" stroke-width="3.0" fill="none" stroke="rgb(0, 0, 0)" stroke-opacity="1" stroke-linecap="round" stroke-linejoin="round"/>
    <path d="M 116.77217864990234 82.88233947753906 C 101.82671356201172 82.17759704589844 102.58184051513672 67.97735595703125 115.92605590820312 79.98764038085938" stroke-width="3.0" fill="none" stroke="rgb(0, 0, 0)" stroke-opacity="1" stroke-linecap="round" stroke-linejoin="round"/>
    <path d="M 90.3305435180664 88.32473754882812 C 67.78634643554688 100.845703125 60.45183563232422 114.60868835449219 60.442874908447266 105.10713958740234" stroke-width="3.0" fill="none" stroke="rgb(0, 0, 0)" stroke-opacity="1" stroke-linecap="round" stroke-linejoin="round"/>
    <path d="M 100.53125 67.2795181274414 C 94.7131576538086 42.715702056884766 120.16349029541016 48.46475601196289 82.25894165039062 63.703285217285156" stroke-width="3.0" fill="none" stroke="rgb(0, 0, 0)" stroke-opacity="1" stroke-linecap="round" stroke-linejoin="round"/>
    <path d="M 77.95082092285156 106.72286987304688 C 105.83534240722656 101.9784927368164 92.68791198730469 93.09977722167969 94.39433288574219 109.2569808959961" stroke-width="3.0" fill="none" stroke="rgb(0, 0, 0)" stroke-opacity="1" stroke-linecap="round" stroke-linejoin="round"/>
    <path d="M 130.53550720214844 29.80076789855957 C 122.2884521484375 28.953027725219727 99.06661987304688 41.040061950683594 115.62891387939453 26.087783813476562" stroke-width="3.0" fill="none" stroke="rgb(0, 0, 0)" stroke-opacity="1" stroke-linecap="round" stroke-linejoin="round"/>
    <path d="M 116.40414428710938 158.2149658203125 C 128.42410278320312 109.29412841796875 119.74368286132812 93.82196044921875 118.00654602050781 137.64300537109375" stroke-width="3.0" fill="none" stroke="rgb(0, 0, 0)" stroke-opacity="1" stroke-linecap="round" stroke-linejoin="round"/>
    <path d="M 113.54903411865234 196.49160766601562 C 106.25843811035156 140.49522399902344 114.1964111328125 170.1867218017578 103.67677307128906 130.93162536621094" stroke-width="3.0" fill="none" stroke="rgb(0, 0, 0)" stroke-opacity="1" stroke-linecap="round" stroke-linejoin="round"/>
    <path d="M 77.00931549072266 105.29557800292969 C 107.14640808105469 90.94368743896484 99.2029800415039 87.99115753173828 98.34229278564453 86.7550277709961" stroke-width="3.0" fill="none" stroke="rgb(0, 0, 0)" stroke-opacity="1" stroke-linecap="round" stroke-linejoin="round"/>
    <path d="M 129.30783081054688 64.3272476196289 C 123.7913589477539 74.73847198486328 114.62091827392578 79.76734161376953 121.67326354980469 86.63059997558594" stroke-width="3.0" fill="none" stroke="rgb(0, 0, 0)" stroke-opacity="1" stroke-linecap="round" stroke-linejoin="round"/>
    <path d="M 103.64848327636719 130.55880737304688 C 109.88054656982422 132.5338134765625 106.08228302001953 127.94371032714844 108.88330841064453 116.90586853027344" stroke-width="3.0" fill="none" stroke="rgb(0, 0, 0)" stroke-opacity="1" stroke-linecap="round" stroke-linejoin="round"/>
    <path d="M 126.1831283569336 39.148067474365234 C 100.3331527709961 46.525146484375 127.83355712890625 43.23898696899414 111.35482788085938 41.897056579589844" stroke-width="3.0" fill="none" stroke="rgb(0, 0, 0)" stroke-opacity="1" stroke-linecap="round" stroke-linejoin="round"/>
    <path d="M 153.8750762939453 35.87795639038086 C 150.85231018066406 37.16543197631836 148.9649658203125 42.548240661621094 133.61581420898438 58.61539077758789" stroke-width="3.0" fill="none" stroke="rgb(0, 0, 0)" stroke-opacity="1" stroke-linecap="round" stroke-linejoin="round"/>
    <path d="M 116.5931396484375 168.1266632080078 C 120.63297271728516 132.52871704101562 126.78726959228516 166.6844024658203 118.9466781616211 171.80381774902344" stroke-width="3.0" fill="none" stroke="rgb(0, 0, 0)" stroke-opacity="1" stroke-linecap="round" stroke-linejoin="round"/>
    <path d="M 117.7354965209961 87.53694915771484 C 110.4423828125 91.21036529541016 130.41319274902344 87.7438735961914 118.91375732421875 91.20951080322266" stroke-width="3.0" fill="none" stroke="rgb(0, 0, 0)" stroke-opacity="1" stroke-linecap="round" stroke-linejoin="round"/>
    <path d="M 151.96200561523438 15.583893775939941 C 145.0314483642578 22.06693458557129 132.36184692382812 6.97132682800293 143.34857177734375 7.93896484375" stroke-width="3.0" fill="none" stroke="rgb(0, 0, 0)" stroke-opacity="1" stroke-linecap="round" stroke-linejoin="round"/>
    <path d="M 118.40912628173828 114.80119323730469 C 133.51515197753906 99.35665130615234 119.07242584228516 135.22117614746094 123.99810791015625 151.57350158691406" stroke-width="3.0" fill="none" stroke="rgb(0, 0, 0)" stroke-opacity="1" stroke-linecap="round" stroke-linejoin="round"/>
    <path d="M 98.0100326538086 52.66303634643555 C 60.770381927490234 72.60344696044922 83.2044448852539 65.90284729003906 98.02375030517578 59.811180114746094" stroke-width="3.0" fill="none" stroke="rgb(0, 0, 0)" stroke-opacity="1" stroke-linecap="round" stroke-linejoin="round"/>
    <path d="M 100.24282836914062 112.0101089477539 C 98.51942443847656 129.13824462890625 107.49211120605469 138.69512939453125 104.87459564208984 113.98680877685547" stroke-width="3.0" fill="none" stroke="rgb(0, 0, 0)" stroke-opacity="1" stroke-linecap="round" stroke-linejoin="round"/>
    <path d="M 116.42626190185547 180.00555419921875 C 108.09996032714844 152.344482421875 113.59517669677734 151.9507293701172 115.94498443603516 174.8511962890625" stroke-width="3.0" fill="none" stroke="rgb(0, 0, 0)" stroke-opacity="1" stroke-linecap="round" stroke-linejoin="round"/>
    <path d="M 99.31481170654297 112.19831848144531 C 123.65480041503906 105.90135955810547 113.69345092773438 114.23225402832031 118.53951263427734 146.4053192138672" stroke-width="3.0" fill="none" stroke="rgb(0, 0, 0)" stroke-opacity="1" stroke-linecap="round" stroke-linejoin="round"/>
    <path d="M 108.95332336425781 74.35909271240234 C 106.45726013183594 52.95541763305664 117.89566802978516 50.557647705078125 142.3360595703125 53.19002914428711" stroke-width="3.0" fill="none" stroke="rgb(0, 0, 0)" stroke-opacity="1" stroke-linecap="round" stroke-linejoin="round"/>
    <path d="M 102.49152374267578 120.1581039428711 C 110.2913589477539 105.6038818359375 127.87059020996094 99.48090362548828 123.06270599365234 127.68712615966797" stroke-width="3.0" fill="none" stroke="rgb(0, 0, 0)" stroke-opacity="1" stroke-linecap="round" stroke-linejoin="round"/>
    <path d="M 117.37042999267578 195.23837280273438 C 114.4560546875 189.61666870117188 118.66764831542969 180.74676513671875 118.2833251953125 166.34083557128906" stroke-width="3.0" fill="none" stroke="rgb(0, 0, 0)" stroke-opacity="1" stroke-linecap="round" stroke-linejoin="round"/>
    <path d="M 108.38005828857422 77.95747375488281 C 127.11353302001953 86.55907440185547 129.5782012939453 87.64944458007812 115.82793426513672 84.73035430908203" stroke-width="3.0" fill="none" stroke="rgb(0, 0, 0)" stroke-opacity="1" stroke-linecap="round" stroke-linejoin="round"/>
  </g>
</svg>
